G04 #@! TF.FileFunction,Other,User*
%FSLAX46Y46*%
G04 Gerber Fmt 4.6, Leading zero omitted, Abs format (unit mm)*
G04 Created by KiCad (PCBNEW 4.0.5+dfsg1-4) date Mon Feb 26 17:29:33 2018*
%MOMM*%
%LPD*%
G01*
G04 APERTURE LIST*
%ADD10C,0.150000*%
%ADD11C,0.050000*%
G04 APERTURE END LIST*
D10*
D11*
X162265000Y-50387500D02*
X153865000Y-50387500D01*
X162265000Y-57687500D02*
X153865000Y-57687500D01*
X162265000Y-50387500D02*
X162265000Y-57687500D01*
X153865000Y-50387500D02*
X153865000Y-57687500D01*
X46610000Y-48540000D02*
X46610000Y-57140000D01*
X50110000Y-48540000D02*
X50110000Y-57140000D01*
X46610000Y-48540000D02*
X50110000Y-48540000D01*
X46610000Y-57140000D02*
X50110000Y-57140000D01*
X169332500Y-41619500D02*
X169332500Y-45119500D01*
X172832500Y-41619500D02*
X172832500Y-45119500D01*
X169332500Y-41619500D02*
X172832500Y-41619500D01*
X169332500Y-45119500D02*
X172832500Y-45119500D01*
X170500900Y-110453500D02*
X170500900Y-113953500D01*
X174000900Y-110453500D02*
X174000900Y-113953500D01*
X170500900Y-110453500D02*
X174000900Y-110453500D01*
X170500900Y-113953500D02*
X174000900Y-113953500D01*
X162265000Y-99219000D02*
X153865000Y-99219000D01*
X162265000Y-106519000D02*
X153865000Y-106519000D01*
X162265000Y-99219000D02*
X162265000Y-106519000D01*
X153865000Y-99219000D02*
X153865000Y-106519000D01*
X150036000Y-62591000D02*
X150036000Y-36191000D01*
X143986000Y-62591000D02*
X143986000Y-36191000D01*
X150036000Y-62591000D02*
X143986000Y-62591000D01*
X150036000Y-36191000D02*
X143986000Y-36191000D01*
X161389000Y-93647200D02*
X161389000Y-59647200D01*
X155339000Y-93647200D02*
X155339000Y-59647200D01*
X161389000Y-93647200D02*
X155339000Y-93647200D01*
X161389000Y-59647200D02*
X155339000Y-59647200D01*
X150036000Y-116557000D02*
X150036000Y-82557000D01*
X143986000Y-116557000D02*
X143986000Y-82557000D01*
X150036000Y-116557000D02*
X143986000Y-116557000D01*
X150036000Y-82557000D02*
X143986000Y-82557000D01*
X162737300Y-104116900D02*
X167337300Y-104116900D01*
X162737300Y-106116900D02*
X167337300Y-106116900D01*
X162737300Y-104116900D02*
X162737300Y-106116900D01*
X167337300Y-104116900D02*
X167337300Y-106116900D01*
X162737300Y-106415600D02*
X167337300Y-106415600D01*
X162737300Y-108415600D02*
X167337300Y-108415600D01*
X162737300Y-106415600D02*
X162737300Y-108415600D01*
X167337300Y-106415600D02*
X167337300Y-108415600D01*
X165099500Y-53507400D02*
X169699500Y-53507400D01*
X165099500Y-55507400D02*
X169699500Y-55507400D01*
X165099500Y-53507400D02*
X165099500Y-55507400D01*
X169699500Y-53507400D02*
X169699500Y-55507400D01*
X165099500Y-55717200D02*
X169699500Y-55717200D01*
X165099500Y-57717200D02*
X169699500Y-57717200D01*
X165099500Y-55717200D02*
X165099500Y-57717200D01*
X169699500Y-55717200D02*
X169699500Y-57717200D01*
M02*
