G04 #@! TF.FileFunction,Legend,Top*
%FSLAX46Y46*%
G04 Gerber Fmt 4.6, Leading zero omitted, Abs format (unit mm)*
G04 Created by KiCad (PCBNEW 4.0.5+dfsg1-4) date Mon Feb 26 17:29:33 2018*
%MOMM*%
%LPD*%
G01*
G04 APERTURE LIST*
%ADD10C,0.150000*%
%ADD11C,0.304800*%
%ADD12C,0.300000*%
%ADD13C,0.200000*%
%ADD14C,0.010000*%
%ADD15C,0.100000*%
G04 APERTURE END LIST*
D10*
D11*
X174607658Y-42531300D02*
X174462515Y-42458729D01*
X174244801Y-42458729D01*
X174027086Y-42531300D01*
X173881944Y-42676443D01*
X173809372Y-42821586D01*
X173736801Y-43111871D01*
X173736801Y-43329586D01*
X173809372Y-43619871D01*
X173881944Y-43765014D01*
X174027086Y-43910157D01*
X174244801Y-43982729D01*
X174389944Y-43982729D01*
X174607658Y-43910157D01*
X174680229Y-43837586D01*
X174680229Y-43329586D01*
X174389944Y-43329586D01*
X175333372Y-43982729D02*
X175333372Y-42458729D01*
X176204229Y-43982729D01*
X176204229Y-42458729D01*
X176929943Y-43982729D02*
X176929943Y-42458729D01*
X177292800Y-42458729D01*
X177510515Y-42531300D01*
X177655657Y-42676443D01*
X177728229Y-42821586D01*
X177800800Y-43111871D01*
X177800800Y-43329586D01*
X177728229Y-43619871D01*
X177655657Y-43765014D01*
X177510515Y-43910157D01*
X177292800Y-43982729D01*
X176929943Y-43982729D01*
X175788758Y-111416100D02*
X175643615Y-111343529D01*
X175425901Y-111343529D01*
X175208186Y-111416100D01*
X175063044Y-111561243D01*
X174990472Y-111706386D01*
X174917901Y-111996671D01*
X174917901Y-112214386D01*
X174990472Y-112504671D01*
X175063044Y-112649814D01*
X175208186Y-112794957D01*
X175425901Y-112867529D01*
X175571044Y-112867529D01*
X175788758Y-112794957D01*
X175861329Y-112722386D01*
X175861329Y-112214386D01*
X175571044Y-112214386D01*
X176514472Y-112867529D02*
X176514472Y-111343529D01*
X177385329Y-112867529D01*
X177385329Y-111343529D01*
X178111043Y-112867529D02*
X178111043Y-111343529D01*
X178473900Y-111343529D01*
X178691615Y-111416100D01*
X178836757Y-111561243D01*
X178909329Y-111706386D01*
X178981900Y-111996671D01*
X178981900Y-112214386D01*
X178909329Y-112504671D01*
X178836757Y-112649814D01*
X178691615Y-112794957D01*
X178473900Y-112867529D01*
X178111043Y-112867529D01*
X145602671Y-68386686D02*
X145530100Y-68459257D01*
X145312386Y-68531829D01*
X145167243Y-68531829D01*
X144949528Y-68459257D01*
X144804386Y-68314114D01*
X144731814Y-68168971D01*
X144659243Y-67878686D01*
X144659243Y-67660971D01*
X144731814Y-67370686D01*
X144804386Y-67225543D01*
X144949528Y-67080400D01*
X145167243Y-67007829D01*
X145312386Y-67007829D01*
X145530100Y-67080400D01*
X145602671Y-67152971D01*
X148578100Y-68531829D02*
X148578100Y-67007829D01*
X148940957Y-67007829D01*
X149158672Y-67080400D01*
X149303814Y-67225543D01*
X149376386Y-67370686D01*
X149448957Y-67660971D01*
X149448957Y-67878686D01*
X149376386Y-68168971D01*
X149303814Y-68314114D01*
X149158672Y-68459257D01*
X148940957Y-68531829D01*
X148578100Y-68531829D01*
X145348671Y-77207743D02*
X145566385Y-77280314D01*
X145638957Y-77352886D01*
X145711528Y-77498029D01*
X145711528Y-77715743D01*
X145638957Y-77860886D01*
X145566385Y-77933457D01*
X145421243Y-78006029D01*
X144840671Y-78006029D01*
X144840671Y-76482029D01*
X145348671Y-76482029D01*
X145493814Y-76554600D01*
X145566385Y-76627171D01*
X145638957Y-76772314D01*
X145638957Y-76917457D01*
X145566385Y-77062600D01*
X145493814Y-77135171D01*
X145348671Y-77207743D01*
X144840671Y-77207743D01*
X148614386Y-77570600D02*
X149340100Y-77570600D01*
X148469243Y-78006029D02*
X148977243Y-76482029D01*
X149485243Y-78006029D01*
D12*
X50317143Y-50397143D02*
X51460000Y-50397143D01*
X50888571Y-50968571D02*
X50888571Y-49825714D01*
X52888572Y-49468571D02*
X52174286Y-49468571D01*
X52102857Y-50182857D01*
X52174286Y-50111429D01*
X52317143Y-50040000D01*
X52674286Y-50040000D01*
X52817143Y-50111429D01*
X52888572Y-50182857D01*
X52960000Y-50325714D01*
X52960000Y-50682857D01*
X52888572Y-50825714D01*
X52817143Y-50897143D01*
X52674286Y-50968571D01*
X52317143Y-50968571D01*
X52174286Y-50897143D01*
X52102857Y-50825714D01*
X53388571Y-49468571D02*
X53888571Y-50968571D01*
X54388571Y-49468571D01*
X50317143Y-52947143D02*
X51460000Y-52947143D01*
X50888571Y-53518571D02*
X50888571Y-52375714D01*
X52960000Y-53518571D02*
X52102857Y-53518571D01*
X52531429Y-53518571D02*
X52531429Y-52018571D01*
X52388572Y-52232857D01*
X52245714Y-52375714D01*
X52102857Y-52447143D01*
X53602857Y-53375714D02*
X53674285Y-53447143D01*
X53602857Y-53518571D01*
X53531428Y-53447143D01*
X53602857Y-53375714D01*
X53602857Y-53518571D01*
X54531429Y-52661429D02*
X54388571Y-52590000D01*
X54317143Y-52518571D01*
X54245714Y-52375714D01*
X54245714Y-52304286D01*
X54317143Y-52161429D01*
X54388571Y-52090000D01*
X54531429Y-52018571D01*
X54817143Y-52018571D01*
X54960000Y-52090000D01*
X55031429Y-52161429D01*
X55102857Y-52304286D01*
X55102857Y-52375714D01*
X55031429Y-52518571D01*
X54960000Y-52590000D01*
X54817143Y-52661429D01*
X54531429Y-52661429D01*
X54388571Y-52732857D01*
X54317143Y-52804286D01*
X54245714Y-52947143D01*
X54245714Y-53232857D01*
X54317143Y-53375714D01*
X54388571Y-53447143D01*
X54531429Y-53518571D01*
X54817143Y-53518571D01*
X54960000Y-53447143D01*
X55031429Y-53375714D01*
X55102857Y-53232857D01*
X55102857Y-52947143D01*
X55031429Y-52804286D01*
X54960000Y-52732857D01*
X54817143Y-52661429D01*
X55531428Y-52018571D02*
X56031428Y-53518571D01*
X56531428Y-52018571D01*
X50317143Y-55497143D02*
X51460000Y-55497143D01*
X50888571Y-56068571D02*
X50888571Y-54925714D01*
X52031429Y-54568571D02*
X52960000Y-54568571D01*
X52460000Y-55140000D01*
X52674286Y-55140000D01*
X52817143Y-55211429D01*
X52888572Y-55282857D01*
X52960000Y-55425714D01*
X52960000Y-55782857D01*
X52888572Y-55925714D01*
X52817143Y-55997143D01*
X52674286Y-56068571D01*
X52245714Y-56068571D01*
X52102857Y-55997143D01*
X52031429Y-55925714D01*
X53602857Y-55925714D02*
X53674285Y-55997143D01*
X53602857Y-56068571D01*
X53531428Y-55997143D01*
X53602857Y-55925714D01*
X53602857Y-56068571D01*
X54174286Y-54568571D02*
X55102857Y-54568571D01*
X54602857Y-55140000D01*
X54817143Y-55140000D01*
X54960000Y-55211429D01*
X55031429Y-55282857D01*
X55102857Y-55425714D01*
X55102857Y-55782857D01*
X55031429Y-55925714D01*
X54960000Y-55997143D01*
X54817143Y-56068571D01*
X54388571Y-56068571D01*
X54245714Y-55997143D01*
X54174286Y-55925714D01*
X55531428Y-54568571D02*
X56031428Y-56068571D01*
X56531428Y-54568571D01*
D13*
X172703286Y-100305984D02*
X172765190Y-100367889D01*
X172827095Y-100553603D01*
X172827095Y-100677413D01*
X172765190Y-100863127D01*
X172641381Y-100986936D01*
X172517571Y-101048841D01*
X172269952Y-101110746D01*
X172084238Y-101110746D01*
X171836619Y-101048841D01*
X171712810Y-100986936D01*
X171589000Y-100863127D01*
X171527095Y-100677413D01*
X171527095Y-100553603D01*
X171589000Y-100367889D01*
X171650905Y-100305984D01*
X172827095Y-99563127D02*
X172765190Y-99686936D01*
X172703286Y-99748841D01*
X172579476Y-99810746D01*
X172208048Y-99810746D01*
X172084238Y-99748841D01*
X172022333Y-99686936D01*
X171960429Y-99563127D01*
X171960429Y-99377413D01*
X172022333Y-99253603D01*
X172084238Y-99191698D01*
X172208048Y-99129794D01*
X172579476Y-99129794D01*
X172703286Y-99191698D01*
X172765190Y-99253603D01*
X172827095Y-99377413D01*
X172827095Y-99563127D01*
X171960429Y-98572651D02*
X172827095Y-98572651D01*
X172084238Y-98572651D02*
X172022333Y-98510746D01*
X171960429Y-98386937D01*
X171960429Y-98201223D01*
X172022333Y-98077413D01*
X172146143Y-98015508D01*
X172827095Y-98015508D01*
X171960429Y-97582175D02*
X171960429Y-97086937D01*
X171527095Y-97396461D02*
X172641381Y-97396461D01*
X172765190Y-97334556D01*
X172827095Y-97210747D01*
X172827095Y-97086937D01*
X172827095Y-96653604D02*
X171960429Y-96653604D01*
X172208048Y-96653604D02*
X172084238Y-96591699D01*
X172022333Y-96529795D01*
X171960429Y-96405985D01*
X171960429Y-96282176D01*
X172827095Y-95663128D02*
X172765190Y-95786937D01*
X172703286Y-95848842D01*
X172579476Y-95910747D01*
X172208048Y-95910747D01*
X172084238Y-95848842D01*
X172022333Y-95786937D01*
X171960429Y-95663128D01*
X171960429Y-95477414D01*
X172022333Y-95353604D01*
X172084238Y-95291699D01*
X172208048Y-95229795D01*
X172579476Y-95229795D01*
X172703286Y-95291699D01*
X172765190Y-95353604D01*
X172827095Y-95477414D01*
X172827095Y-95663128D01*
X172827095Y-94486938D02*
X172765190Y-94610747D01*
X172641381Y-94672652D01*
X171527095Y-94672652D01*
X172765190Y-94053605D02*
X172827095Y-93929795D01*
X172827095Y-93682176D01*
X172765190Y-93558367D01*
X172641381Y-93496462D01*
X172579476Y-93496462D01*
X172455667Y-93558367D01*
X172393762Y-93682176D01*
X172393762Y-93867891D01*
X172331857Y-93991700D01*
X172208048Y-94053605D01*
X172146143Y-94053605D01*
X172022333Y-93991700D01*
X171960429Y-93867891D01*
X171960429Y-93682176D01*
X172022333Y-93558367D01*
X171589000Y-91267891D02*
X171527095Y-91391700D01*
X171527095Y-91577415D01*
X171589000Y-91763129D01*
X171712810Y-91886938D01*
X171836619Y-91948843D01*
X172084238Y-92010748D01*
X172269952Y-92010748D01*
X172517571Y-91948843D01*
X172641381Y-91886938D01*
X172765190Y-91763129D01*
X172827095Y-91577415D01*
X172827095Y-91453605D01*
X172765190Y-91267891D01*
X172703286Y-91205986D01*
X172269952Y-91205986D01*
X172269952Y-91453605D01*
X172827095Y-90648843D02*
X171960429Y-90648843D01*
X172208048Y-90648843D02*
X172084238Y-90586938D01*
X172022333Y-90525034D01*
X171960429Y-90401224D01*
X171960429Y-90277415D01*
X172827095Y-89658367D02*
X172765190Y-89782176D01*
X172703286Y-89844081D01*
X172579476Y-89905986D01*
X172208048Y-89905986D01*
X172084238Y-89844081D01*
X172022333Y-89782176D01*
X171960429Y-89658367D01*
X171960429Y-89472653D01*
X172022333Y-89348843D01*
X172084238Y-89286938D01*
X172208048Y-89225034D01*
X172579476Y-89225034D01*
X172703286Y-89286938D01*
X172765190Y-89348843D01*
X172827095Y-89472653D01*
X172827095Y-89658367D01*
X171960429Y-88110748D02*
X172827095Y-88110748D01*
X171960429Y-88667891D02*
X172641381Y-88667891D01*
X172765190Y-88605986D01*
X172827095Y-88482177D01*
X172827095Y-88296463D01*
X172765190Y-88172653D01*
X172703286Y-88110748D01*
X171960429Y-87491701D02*
X173260429Y-87491701D01*
X172022333Y-87491701D02*
X171960429Y-87367892D01*
X171960429Y-87120273D01*
X172022333Y-86996463D01*
X172084238Y-86934558D01*
X172208048Y-86872654D01*
X172579476Y-86872654D01*
X172703286Y-86934558D01*
X172765190Y-86996463D01*
X172827095Y-87120273D01*
X172827095Y-87367892D01*
X172765190Y-87491701D01*
X174977095Y-101884558D02*
X174977095Y-102503605D01*
X173677095Y-102503605D01*
X174977095Y-101451224D02*
X173677095Y-101451224D01*
X174977095Y-100708367D01*
X173677095Y-100708367D01*
X174977095Y-99470272D02*
X174977095Y-100089319D01*
X173677095Y-100089319D01*
X174915190Y-99098843D02*
X174977095Y-98913129D01*
X174977095Y-98603605D01*
X174915190Y-98479795D01*
X174853286Y-98417891D01*
X174729476Y-98355986D01*
X174605667Y-98355986D01*
X174481857Y-98417891D01*
X174419952Y-98479795D01*
X174358048Y-98603605D01*
X174296143Y-98851224D01*
X174234238Y-98975033D01*
X174172333Y-99036938D01*
X174048524Y-99098843D01*
X173924714Y-99098843D01*
X173800905Y-99036938D01*
X173739000Y-98975033D01*
X173677095Y-98851224D01*
X173677095Y-98541700D01*
X173739000Y-98355986D01*
X174481857Y-96808367D02*
X174481857Y-95817891D01*
X174915190Y-94270272D02*
X174977095Y-94084558D01*
X174977095Y-93775034D01*
X174915190Y-93651224D01*
X174853286Y-93589320D01*
X174729476Y-93527415D01*
X174605667Y-93527415D01*
X174481857Y-93589320D01*
X174419952Y-93651224D01*
X174358048Y-93775034D01*
X174296143Y-94022653D01*
X174234238Y-94146462D01*
X174172333Y-94208367D01*
X174048524Y-94270272D01*
X173924714Y-94270272D01*
X173800905Y-94208367D01*
X173739000Y-94146462D01*
X173677095Y-94022653D01*
X173677095Y-93713129D01*
X173739000Y-93527415D01*
X174977095Y-92970272D02*
X173677095Y-92970272D01*
X173677095Y-92475034D01*
X173739000Y-92351225D01*
X173800905Y-92289320D01*
X173924714Y-92227415D01*
X174110429Y-92227415D01*
X174234238Y-92289320D01*
X174296143Y-92351225D01*
X174358048Y-92475034D01*
X174358048Y-92970272D01*
X174977095Y-91670272D02*
X173677095Y-91670272D01*
X174977095Y-91175034D02*
X174110429Y-90494081D01*
X174110429Y-91175034D02*
X174977095Y-90494081D01*
X174853286Y-89255986D02*
X174915190Y-89317891D01*
X174977095Y-89503605D01*
X174977095Y-89627415D01*
X174915190Y-89813129D01*
X174791381Y-89936938D01*
X174667571Y-89998843D01*
X174419952Y-90060748D01*
X174234238Y-90060748D01*
X173986619Y-89998843D01*
X173862810Y-89936938D01*
X173739000Y-89813129D01*
X173677095Y-89627415D01*
X173677095Y-89503605D01*
X173739000Y-89317891D01*
X173800905Y-89255986D01*
X173677095Y-88451224D02*
X173677095Y-88203605D01*
X173739000Y-88079796D01*
X173862810Y-87955986D01*
X174110429Y-87894081D01*
X174543762Y-87894081D01*
X174791381Y-87955986D01*
X174915190Y-88079796D01*
X174977095Y-88203605D01*
X174977095Y-88451224D01*
X174915190Y-88575034D01*
X174791381Y-88698843D01*
X174543762Y-88760748D01*
X174110429Y-88760748D01*
X173862810Y-88698843D01*
X173739000Y-88575034D01*
X173677095Y-88451224D01*
X174977095Y-87336938D02*
X173677095Y-87336938D01*
X174977095Y-86594081D01*
X173677095Y-86594081D01*
X173677095Y-86160747D02*
X174977095Y-85727414D01*
X173677095Y-85294081D01*
X175889000Y-100182176D02*
X175827095Y-100305985D01*
X175827095Y-100491700D01*
X175889000Y-100677414D01*
X176012810Y-100801223D01*
X176136619Y-100863128D01*
X176384238Y-100925033D01*
X176569952Y-100925033D01*
X176817571Y-100863128D01*
X176941381Y-100801223D01*
X177065190Y-100677414D01*
X177127095Y-100491700D01*
X177127095Y-100367890D01*
X177065190Y-100182176D01*
X177003286Y-100120271D01*
X176569952Y-100120271D01*
X176569952Y-100367890D01*
X177127095Y-99563128D02*
X175827095Y-99563128D01*
X175827095Y-99067890D01*
X175889000Y-98944081D01*
X175950905Y-98882176D01*
X176074714Y-98820271D01*
X176260429Y-98820271D01*
X176384238Y-98882176D01*
X176446143Y-98944081D01*
X176508048Y-99067890D01*
X176508048Y-99563128D01*
X177127095Y-98263128D02*
X175827095Y-98263128D01*
X175827095Y-97396461D02*
X175827095Y-97148842D01*
X175889000Y-97025033D01*
X176012810Y-96901223D01*
X176260429Y-96839318D01*
X176693762Y-96839318D01*
X176941381Y-96901223D01*
X177065190Y-97025033D01*
X177127095Y-97148842D01*
X177127095Y-97396461D01*
X177065190Y-97520271D01*
X176941381Y-97644080D01*
X176693762Y-97705985D01*
X176260429Y-97705985D01*
X176012810Y-97644080D01*
X175889000Y-97520271D01*
X175827095Y-97396461D01*
X177065190Y-94796461D02*
X177127095Y-94920271D01*
X177127095Y-95167890D01*
X177065190Y-95291699D01*
X176941381Y-95353604D01*
X176446143Y-95353604D01*
X176322333Y-95291699D01*
X176260429Y-95167890D01*
X176260429Y-94920271D01*
X176322333Y-94796461D01*
X176446143Y-94734556D01*
X176569952Y-94734556D01*
X176693762Y-95353604D01*
X177127095Y-94301223D02*
X176260429Y-93620270D01*
X176260429Y-94301223D02*
X177127095Y-93620270D01*
X176260429Y-93125032D02*
X177560429Y-93125032D01*
X176322333Y-93125032D02*
X176260429Y-93001223D01*
X176260429Y-92753604D01*
X176322333Y-92629794D01*
X176384238Y-92567889D01*
X176508048Y-92505985D01*
X176879476Y-92505985D01*
X177003286Y-92567889D01*
X177065190Y-92629794D01*
X177127095Y-92753604D01*
X177127095Y-93001223D01*
X177065190Y-93125032D01*
X177127095Y-91391699D02*
X176446143Y-91391699D01*
X176322333Y-91453604D01*
X176260429Y-91577414D01*
X176260429Y-91825033D01*
X176322333Y-91948842D01*
X177065190Y-91391699D02*
X177127095Y-91515509D01*
X177127095Y-91825033D01*
X177065190Y-91948842D01*
X176941381Y-92010747D01*
X176817571Y-92010747D01*
X176693762Y-91948842D01*
X176631857Y-91825033D01*
X176631857Y-91515509D01*
X176569952Y-91391699D01*
X176260429Y-90772652D02*
X177127095Y-90772652D01*
X176384238Y-90772652D02*
X176322333Y-90710747D01*
X176260429Y-90586938D01*
X176260429Y-90401224D01*
X176322333Y-90277414D01*
X176446143Y-90215509D01*
X177127095Y-90215509D01*
X177127095Y-89039319D02*
X175827095Y-89039319D01*
X177065190Y-89039319D02*
X177127095Y-89163129D01*
X177127095Y-89410748D01*
X177065190Y-89534557D01*
X177003286Y-89596462D01*
X176879476Y-89658367D01*
X176508048Y-89658367D01*
X176384238Y-89596462D01*
X176322333Y-89534557D01*
X176260429Y-89410748D01*
X176260429Y-89163129D01*
X176322333Y-89039319D01*
X177065190Y-87925034D02*
X177127095Y-88048844D01*
X177127095Y-88296463D01*
X177065190Y-88420272D01*
X176941381Y-88482177D01*
X176446143Y-88482177D01*
X176322333Y-88420272D01*
X176260429Y-88296463D01*
X176260429Y-88048844D01*
X176322333Y-87925034D01*
X176446143Y-87863129D01*
X176569952Y-87863129D01*
X176693762Y-88482177D01*
X177127095Y-87305986D02*
X176260429Y-87305986D01*
X176508048Y-87305986D02*
X176384238Y-87244081D01*
X176322333Y-87182177D01*
X176260429Y-87058367D01*
X176260429Y-86934558D01*
X178410429Y-104546461D02*
X179277095Y-104236937D01*
X178410429Y-103927413D01*
X179277095Y-102751223D02*
X179277095Y-103494080D01*
X179277095Y-103122651D02*
X177977095Y-103122651D01*
X178162810Y-103246461D01*
X178286619Y-103370270D01*
X178348524Y-103494080D01*
X179153286Y-102194080D02*
X179215190Y-102132175D01*
X179277095Y-102194080D01*
X179215190Y-102255985D01*
X179153286Y-102194080D01*
X179277095Y-102194080D01*
X178100905Y-101636937D02*
X178039000Y-101575032D01*
X177977095Y-101451223D01*
X177977095Y-101141699D01*
X178039000Y-101017889D01*
X178100905Y-100955985D01*
X178224714Y-100894080D01*
X178348524Y-100894080D01*
X178534238Y-100955985D01*
X179277095Y-101698842D01*
X179277095Y-100894080D01*
X179772333Y-98975033D02*
X179710429Y-99036937D01*
X179524714Y-99160747D01*
X179400905Y-99222652D01*
X179215190Y-99284556D01*
X178905667Y-99346461D01*
X178658048Y-99346461D01*
X178348524Y-99284556D01*
X178162810Y-99222652D01*
X178039000Y-99160747D01*
X177853286Y-99036937D01*
X177791381Y-98975033D01*
X178596143Y-98046461D02*
X178596143Y-98479794D01*
X179277095Y-98479794D02*
X177977095Y-98479794D01*
X177977095Y-97860747D01*
X179215190Y-96870270D02*
X179277095Y-96994080D01*
X179277095Y-97241699D01*
X179215190Y-97365508D01*
X179091381Y-97427413D01*
X178596143Y-97427413D01*
X178472333Y-97365508D01*
X178410429Y-97241699D01*
X178410429Y-96994080D01*
X178472333Y-96870270D01*
X178596143Y-96808365D01*
X178719952Y-96808365D01*
X178843762Y-97427413D01*
X179277095Y-96251222D02*
X177977095Y-96251222D01*
X178472333Y-96251222D02*
X178410429Y-96127413D01*
X178410429Y-95879794D01*
X178472333Y-95755984D01*
X178534238Y-95694079D01*
X178658048Y-95632175D01*
X179029476Y-95632175D01*
X179153286Y-95694079D01*
X179215190Y-95755984D01*
X179277095Y-95879794D01*
X179277095Y-96127413D01*
X179215190Y-96251222D01*
X179277095Y-95075032D02*
X178410429Y-95075032D01*
X178658048Y-95075032D02*
X178534238Y-95013127D01*
X178472333Y-94951223D01*
X178410429Y-94827413D01*
X178410429Y-94703604D01*
X178410429Y-93713127D02*
X179277095Y-93713127D01*
X178410429Y-94270270D02*
X179091381Y-94270270D01*
X179215190Y-94208365D01*
X179277095Y-94084556D01*
X179277095Y-93898842D01*
X179215190Y-93775032D01*
X179153286Y-93713127D01*
X179277095Y-92536937D02*
X178596143Y-92536937D01*
X178472333Y-92598842D01*
X178410429Y-92722652D01*
X178410429Y-92970271D01*
X178472333Y-93094080D01*
X179215190Y-92536937D02*
X179277095Y-92660747D01*
X179277095Y-92970271D01*
X179215190Y-93094080D01*
X179091381Y-93155985D01*
X178967571Y-93155985D01*
X178843762Y-93094080D01*
X178781857Y-92970271D01*
X178781857Y-92660747D01*
X178719952Y-92536937D01*
X179277095Y-91917890D02*
X178410429Y-91917890D01*
X178658048Y-91917890D02*
X178534238Y-91855985D01*
X178472333Y-91794081D01*
X178410429Y-91670271D01*
X178410429Y-91546462D01*
X178410429Y-91236938D02*
X179277095Y-90927414D01*
X178410429Y-90617890D02*
X179277095Y-90927414D01*
X179586619Y-91051223D01*
X179648524Y-91113128D01*
X179710429Y-91236938D01*
X177915190Y-89194081D02*
X179586619Y-90308366D01*
X178100905Y-88822652D02*
X178039000Y-88760747D01*
X177977095Y-88636938D01*
X177977095Y-88327414D01*
X178039000Y-88203604D01*
X178100905Y-88141700D01*
X178224714Y-88079795D01*
X178348524Y-88079795D01*
X178534238Y-88141700D01*
X179277095Y-88884557D01*
X179277095Y-88079795D01*
X177977095Y-87275033D02*
X177977095Y-87151224D01*
X178039000Y-87027414D01*
X178100905Y-86965509D01*
X178224714Y-86903605D01*
X178472333Y-86841700D01*
X178781857Y-86841700D01*
X179029476Y-86903605D01*
X179153286Y-86965509D01*
X179215190Y-87027414D01*
X179277095Y-87151224D01*
X179277095Y-87275033D01*
X179215190Y-87398843D01*
X179153286Y-87460747D01*
X179029476Y-87522652D01*
X178781857Y-87584557D01*
X178472333Y-87584557D01*
X178224714Y-87522652D01*
X178100905Y-87460747D01*
X178039000Y-87398843D01*
X177977095Y-87275033D01*
X179277095Y-85603605D02*
X179277095Y-86346462D01*
X179277095Y-85975033D02*
X177977095Y-85975033D01*
X178162810Y-86098843D01*
X178286619Y-86222652D01*
X178348524Y-86346462D01*
X178534238Y-84860748D02*
X178472333Y-84984557D01*
X178410429Y-85046462D01*
X178286619Y-85108367D01*
X178224714Y-85108367D01*
X178100905Y-85046462D01*
X178039000Y-84984557D01*
X177977095Y-84860748D01*
X177977095Y-84613129D01*
X178039000Y-84489319D01*
X178100905Y-84427415D01*
X178224714Y-84365510D01*
X178286619Y-84365510D01*
X178410429Y-84427415D01*
X178472333Y-84489319D01*
X178534238Y-84613129D01*
X178534238Y-84860748D01*
X178596143Y-84984557D01*
X178658048Y-85046462D01*
X178781857Y-85108367D01*
X179029476Y-85108367D01*
X179153286Y-85046462D01*
X179215190Y-84984557D01*
X179277095Y-84860748D01*
X179277095Y-84613129D01*
X179215190Y-84489319D01*
X179153286Y-84427415D01*
X179029476Y-84365510D01*
X178781857Y-84365510D01*
X178658048Y-84427415D01*
X178596143Y-84489319D01*
X178534238Y-84613129D01*
X179772333Y-83932177D02*
X179710429Y-83870272D01*
X179524714Y-83746462D01*
X179400905Y-83684558D01*
X179215190Y-83622653D01*
X178905667Y-83560748D01*
X178658048Y-83560748D01*
X178348524Y-83622653D01*
X178162810Y-83684558D01*
X178039000Y-83746462D01*
X177853286Y-83870272D01*
X177791381Y-83932177D01*
D10*
X162090000Y-56362500D02*
X162065000Y-56362500D01*
X154040000Y-56362500D02*
X154065000Y-56362500D01*
X154040000Y-51712500D02*
X154065000Y-51712500D01*
X162140000Y-50637500D02*
X162140000Y-56362500D01*
X154040000Y-51712500D02*
X154040000Y-56362500D01*
X47090000Y-51560000D02*
X47090000Y-56640000D01*
X47090000Y-56640000D02*
X49630000Y-56640000D01*
X49630000Y-56640000D02*
X49630000Y-51560000D01*
X49910000Y-48740000D02*
X49910000Y-50290000D01*
X49630000Y-51560000D02*
X47090000Y-51560000D01*
X46810000Y-50290000D02*
X46810000Y-48740000D01*
X46810000Y-48740000D02*
X49910000Y-48740000D01*
X172632500Y-41819500D02*
X172632500Y-43369500D01*
X169532500Y-43369500D02*
X169532500Y-41819500D01*
X169532500Y-41819500D02*
X172632500Y-41819500D01*
X169812500Y-44639500D02*
X172352500Y-44639500D01*
X173800900Y-110653500D02*
X173800900Y-112203500D01*
X170700900Y-112203500D02*
X170700900Y-110653500D01*
X170700900Y-110653500D02*
X173800900Y-110653500D01*
X170980900Y-113473500D02*
X173520900Y-113473500D01*
D14*
G36*
X173607987Y-75064295D02*
X173613637Y-75084988D01*
X173631560Y-75175707D01*
X173651697Y-75314623D01*
X173669756Y-75472052D01*
X173670123Y-75475757D01*
X173686364Y-75619652D01*
X173702904Y-75732588D01*
X173716437Y-75792375D01*
X173717641Y-75794823D01*
X173755217Y-75793459D01*
X173821503Y-75747341D01*
X173830284Y-75739310D01*
X173910871Y-75680916D01*
X173949832Y-75682780D01*
X173937449Y-75733814D01*
X173884931Y-75801653D01*
X173830263Y-75873099D01*
X173816179Y-75920578D01*
X173818406Y-75924001D01*
X173865747Y-75937956D01*
X173972877Y-75955252D01*
X174121661Y-75973242D01*
X174225612Y-75983468D01*
X174433572Y-76003213D01*
X174566716Y-76018946D01*
X174628186Y-76032152D01*
X174621127Y-76044310D01*
X174548681Y-76056905D01*
X174413992Y-76071417D01*
X174412469Y-76071565D01*
X174238803Y-76088939D01*
X174064710Y-76107264D01*
X173949960Y-76120049D01*
X173760989Y-76142064D01*
X173868957Y-76254759D01*
X173935937Y-76340592D01*
X173948754Y-76390323D01*
X173913427Y-76393112D01*
X173835972Y-76338121D01*
X173827181Y-76330005D01*
X173774280Y-76284408D01*
X173738111Y-76272349D01*
X173713776Y-76303653D01*
X173696377Y-76388145D01*
X173681017Y-76535649D01*
X173672173Y-76640955D01*
X173650680Y-76826487D01*
X173622805Y-76942232D01*
X173589591Y-76985325D01*
X173556119Y-76959830D01*
X173541541Y-76903902D01*
X173525198Y-76791641D01*
X173510097Y-76644722D01*
X173506839Y-76604732D01*
X173490931Y-76435715D01*
X173472252Y-76336462D01*
X173446552Y-76298598D01*
X173409580Y-76313748D01*
X173376931Y-76348730D01*
X173320521Y-76397854D01*
X173293992Y-76407346D01*
X173260607Y-76381723D01*
X173272349Y-76320316D01*
X173323058Y-76246312D01*
X173341585Y-76228123D01*
X173423469Y-76154018D01*
X173331815Y-76128269D01*
X173237994Y-76111647D01*
X173106562Y-76099341D01*
X173044777Y-76096373D01*
X172889888Y-76086025D01*
X172736565Y-76067483D01*
X172693085Y-76060015D01*
X172616055Y-76043968D01*
X172592154Y-76032648D01*
X172628442Y-76022581D01*
X172731976Y-76010292D01*
X172810315Y-76002315D01*
X172979589Y-75984685D01*
X173145207Y-75966432D01*
X173254317Y-75953572D01*
X173424781Y-75932318D01*
X173315782Y-75818547D01*
X173249084Y-75733219D01*
X173234827Y-75682392D01*
X173267681Y-75677283D01*
X173342316Y-75729111D01*
X173353424Y-75739310D01*
X173421296Y-75790002D01*
X173463225Y-75797460D01*
X173465372Y-75794823D01*
X173478684Y-75741717D01*
X173495220Y-75634765D01*
X173510141Y-75508576D01*
X173528116Y-75350464D01*
X173547664Y-75202371D01*
X173560910Y-75117807D01*
X173578107Y-75030392D01*
X173590821Y-75014409D01*
X173607987Y-75064295D01*
X173607987Y-75064295D01*
G37*
X173607987Y-75064295D02*
X173613637Y-75084988D01*
X173631560Y-75175707D01*
X173651697Y-75314623D01*
X173669756Y-75472052D01*
X173670123Y-75475757D01*
X173686364Y-75619652D01*
X173702904Y-75732588D01*
X173716437Y-75792375D01*
X173717641Y-75794823D01*
X173755217Y-75793459D01*
X173821503Y-75747341D01*
X173830284Y-75739310D01*
X173910871Y-75680916D01*
X173949832Y-75682780D01*
X173937449Y-75733814D01*
X173884931Y-75801653D01*
X173830263Y-75873099D01*
X173816179Y-75920578D01*
X173818406Y-75924001D01*
X173865747Y-75937956D01*
X173972877Y-75955252D01*
X174121661Y-75973242D01*
X174225612Y-75983468D01*
X174433572Y-76003213D01*
X174566716Y-76018946D01*
X174628186Y-76032152D01*
X174621127Y-76044310D01*
X174548681Y-76056905D01*
X174413992Y-76071417D01*
X174412469Y-76071565D01*
X174238803Y-76088939D01*
X174064710Y-76107264D01*
X173949960Y-76120049D01*
X173760989Y-76142064D01*
X173868957Y-76254759D01*
X173935937Y-76340592D01*
X173948754Y-76390323D01*
X173913427Y-76393112D01*
X173835972Y-76338121D01*
X173827181Y-76330005D01*
X173774280Y-76284408D01*
X173738111Y-76272349D01*
X173713776Y-76303653D01*
X173696377Y-76388145D01*
X173681017Y-76535649D01*
X173672173Y-76640955D01*
X173650680Y-76826487D01*
X173622805Y-76942232D01*
X173589591Y-76985325D01*
X173556119Y-76959830D01*
X173541541Y-76903902D01*
X173525198Y-76791641D01*
X173510097Y-76644722D01*
X173506839Y-76604732D01*
X173490931Y-76435715D01*
X173472252Y-76336462D01*
X173446552Y-76298598D01*
X173409580Y-76313748D01*
X173376931Y-76348730D01*
X173320521Y-76397854D01*
X173293992Y-76407346D01*
X173260607Y-76381723D01*
X173272349Y-76320316D01*
X173323058Y-76246312D01*
X173341585Y-76228123D01*
X173423469Y-76154018D01*
X173331815Y-76128269D01*
X173237994Y-76111647D01*
X173106562Y-76099341D01*
X173044777Y-76096373D01*
X172889888Y-76086025D01*
X172736565Y-76067483D01*
X172693085Y-76060015D01*
X172616055Y-76043968D01*
X172592154Y-76032648D01*
X172628442Y-76022581D01*
X172731976Y-76010292D01*
X172810315Y-76002315D01*
X172979589Y-75984685D01*
X173145207Y-75966432D01*
X173254317Y-75953572D01*
X173424781Y-75932318D01*
X173315782Y-75818547D01*
X173249084Y-75733219D01*
X173234827Y-75682392D01*
X173267681Y-75677283D01*
X173342316Y-75729111D01*
X173353424Y-75739310D01*
X173421296Y-75790002D01*
X173463225Y-75797460D01*
X173465372Y-75794823D01*
X173478684Y-75741717D01*
X173495220Y-75634765D01*
X173510141Y-75508576D01*
X173528116Y-75350464D01*
X173547664Y-75202371D01*
X173560910Y-75117807D01*
X173578107Y-75030392D01*
X173590821Y-75014409D01*
X173607987Y-75064295D01*
G36*
X175571169Y-75667474D02*
X175645475Y-75678948D01*
X175676710Y-75704864D01*
X175682469Y-75743038D01*
X175673526Y-75787436D01*
X175634571Y-75811041D01*
X175547414Y-75820198D01*
X175457777Y-75821405D01*
X175233085Y-75821619D01*
X175496854Y-75979878D01*
X175640233Y-76072037D01*
X175723513Y-76142901D01*
X175757977Y-76202993D01*
X175760623Y-76225849D01*
X175746015Y-76311841D01*
X175693965Y-76366764D01*
X175592136Y-76396525D01*
X175428191Y-76407031D01*
X175381577Y-76407346D01*
X175234145Y-76405401D01*
X175148434Y-76396573D01*
X175108046Y-76376369D01*
X175096584Y-76340297D01*
X175096315Y-76329192D01*
X175104582Y-76286212D01*
X175141087Y-76262539D01*
X175223392Y-76252516D01*
X175340546Y-76250507D01*
X175584777Y-76249977D01*
X175340546Y-76105215D01*
X175208378Y-76021651D01*
X175133066Y-75957532D01*
X175100784Y-75898952D01*
X175096315Y-75859560D01*
X175111843Y-75763087D01*
X175166811Y-75703288D01*
X175273801Y-75672960D01*
X175436285Y-75664884D01*
X175571169Y-75667474D01*
X175571169Y-75667474D01*
G37*
X175571169Y-75667474D02*
X175645475Y-75678948D01*
X175676710Y-75704864D01*
X175682469Y-75743038D01*
X175673526Y-75787436D01*
X175634571Y-75811041D01*
X175547414Y-75820198D01*
X175457777Y-75821405D01*
X175233085Y-75821619D01*
X175496854Y-75979878D01*
X175640233Y-76072037D01*
X175723513Y-76142901D01*
X175757977Y-76202993D01*
X175760623Y-76225849D01*
X175746015Y-76311841D01*
X175693965Y-76366764D01*
X175592136Y-76396525D01*
X175428191Y-76407031D01*
X175381577Y-76407346D01*
X175234145Y-76405401D01*
X175148434Y-76396573D01*
X175108046Y-76376369D01*
X175096584Y-76340297D01*
X175096315Y-76329192D01*
X175104582Y-76286212D01*
X175141087Y-76262539D01*
X175223392Y-76252516D01*
X175340546Y-76250507D01*
X175584777Y-76249977D01*
X175340546Y-76105215D01*
X175208378Y-76021651D01*
X175133066Y-75957532D01*
X175100784Y-75898952D01*
X175096315Y-75859560D01*
X175111843Y-75763087D01*
X175166811Y-75703288D01*
X175273801Y-75672960D01*
X175436285Y-75664884D01*
X175571169Y-75667474D01*
G36*
X176177111Y-75667462D02*
X176205654Y-75684955D01*
X176221335Y-75732004D01*
X176228007Y-75823246D01*
X176229521Y-75973321D01*
X176229546Y-76036115D01*
X176228868Y-76208093D01*
X176224264Y-76316556D01*
X176211883Y-76376144D01*
X176187872Y-76401496D01*
X176148378Y-76407252D01*
X176131854Y-76407346D01*
X176086596Y-76404768D01*
X176058053Y-76387274D01*
X176042372Y-76340226D01*
X176035701Y-76248984D01*
X176034186Y-76098909D01*
X176034161Y-76036115D01*
X176034840Y-75864137D01*
X176039443Y-75755674D01*
X176051824Y-75696086D01*
X176075836Y-75670733D01*
X176115329Y-75664978D01*
X176131854Y-75664884D01*
X176177111Y-75667462D01*
X176177111Y-75667462D01*
G37*
X176177111Y-75667462D02*
X176205654Y-75684955D01*
X176221335Y-75732004D01*
X176228007Y-75823246D01*
X176229521Y-75973321D01*
X176229546Y-76036115D01*
X176228868Y-76208093D01*
X176224264Y-76316556D01*
X176211883Y-76376144D01*
X176187872Y-76401496D01*
X176148378Y-76407252D01*
X176131854Y-76407346D01*
X176086596Y-76404768D01*
X176058053Y-76387274D01*
X176042372Y-76340226D01*
X176035701Y-76248984D01*
X176034186Y-76098909D01*
X176034161Y-76036115D01*
X176034840Y-75864137D01*
X176039443Y-75755674D01*
X176051824Y-75696086D01*
X176075836Y-75670733D01*
X176115329Y-75664978D01*
X176131854Y-75664884D01*
X176177111Y-75667462D01*
G36*
X176977938Y-75667474D02*
X177052245Y-75678948D01*
X177083479Y-75704864D01*
X177089238Y-75743038D01*
X177079910Y-75788203D01*
X177039576Y-75811731D01*
X176949716Y-75820358D01*
X176874315Y-75821192D01*
X176659392Y-75821192D01*
X176659392Y-76114269D01*
X176657546Y-76264115D01*
X176649129Y-76352036D01*
X176629822Y-76394228D01*
X176595307Y-76406886D01*
X176581238Y-76407346D01*
X176542871Y-76401032D01*
X176519607Y-76371788D01*
X176507723Y-76304160D01*
X176503496Y-76182696D01*
X176503085Y-76083007D01*
X176508983Y-75901862D01*
X176525600Y-75773426D01*
X176549977Y-75711776D01*
X176613503Y-75686208D01*
X176730400Y-75669391D01*
X176843054Y-75664884D01*
X176977938Y-75667474D01*
X176977938Y-75667474D01*
G37*
X176977938Y-75667474D02*
X177052245Y-75678948D01*
X177083479Y-75704864D01*
X177089238Y-75743038D01*
X177079910Y-75788203D01*
X177039576Y-75811731D01*
X176949716Y-75820358D01*
X176874315Y-75821192D01*
X176659392Y-75821192D01*
X176659392Y-76114269D01*
X176657546Y-76264115D01*
X176649129Y-76352036D01*
X176629822Y-76394228D01*
X176595307Y-76406886D01*
X176581238Y-76407346D01*
X176542871Y-76401032D01*
X176519607Y-76371788D01*
X176507723Y-76304160D01*
X176503496Y-76182696D01*
X176503085Y-76083007D01*
X176508983Y-75901862D01*
X176525600Y-75773426D01*
X176549977Y-75711776D01*
X176613503Y-75686208D01*
X176730400Y-75669391D01*
X176843054Y-75664884D01*
X176977938Y-75667474D01*
G36*
X177505726Y-75667462D02*
X177534269Y-75684955D01*
X177549951Y-75732004D01*
X177556622Y-75823246D01*
X177558137Y-75973321D01*
X177558161Y-76036115D01*
X177557483Y-76208093D01*
X177552879Y-76316556D01*
X177540498Y-76376144D01*
X177516487Y-76401496D01*
X177476994Y-76407252D01*
X177460469Y-76407346D01*
X177415212Y-76404768D01*
X177386669Y-76387274D01*
X177370988Y-76340226D01*
X177364316Y-76248984D01*
X177362802Y-76098909D01*
X177362777Y-76036115D01*
X177363455Y-75864137D01*
X177368059Y-75755674D01*
X177380440Y-75696086D01*
X177404451Y-75670733D01*
X177443944Y-75664978D01*
X177460469Y-75664884D01*
X177505726Y-75667462D01*
X177505726Y-75667462D01*
G37*
X177505726Y-75667462D02*
X177534269Y-75684955D01*
X177549951Y-75732004D01*
X177556622Y-75823246D01*
X177558137Y-75973321D01*
X177558161Y-76036115D01*
X177557483Y-76208093D01*
X177552879Y-76316556D01*
X177540498Y-76376144D01*
X177516487Y-76401496D01*
X177476994Y-76407252D01*
X177460469Y-76407346D01*
X177415212Y-76404768D01*
X177386669Y-76387274D01*
X177370988Y-76340226D01*
X177364316Y-76248984D01*
X177362802Y-76098909D01*
X177362777Y-76036115D01*
X177363455Y-75864137D01*
X177368059Y-75755674D01*
X177380440Y-75696086D01*
X177404451Y-75670733D01*
X177443944Y-75664978D01*
X177460469Y-75664884D01*
X177505726Y-75667462D01*
G36*
X178456221Y-75671198D02*
X178479485Y-75700442D01*
X178491369Y-75768070D01*
X178495596Y-75889533D01*
X178496008Y-75989223D01*
X178490109Y-76170368D01*
X178473492Y-76298804D01*
X178449115Y-76360453D01*
X178390023Y-76382601D01*
X178280220Y-76398359D01*
X178145808Y-76406808D01*
X178012889Y-76407026D01*
X177907563Y-76398096D01*
X177857751Y-76381294D01*
X177846092Y-76332906D01*
X177837129Y-76225789D01*
X177832223Y-76079356D01*
X177831700Y-76010064D01*
X177833052Y-75844817D01*
X177839376Y-75742702D01*
X177854067Y-75688711D01*
X177880524Y-75667836D01*
X177909854Y-75664884D01*
X177949813Y-75671806D01*
X177973258Y-75703370D01*
X177984510Y-75775771D01*
X177987885Y-75905205D01*
X177988008Y-75957961D01*
X177988008Y-76251038D01*
X178339700Y-76251038D01*
X178339700Y-75957961D01*
X178341546Y-75808114D01*
X178349963Y-75720193D01*
X178369270Y-75678002D01*
X178403786Y-75665344D01*
X178417854Y-75664884D01*
X178456221Y-75671198D01*
X178456221Y-75671198D01*
G37*
X178456221Y-75671198D02*
X178479485Y-75700442D01*
X178491369Y-75768070D01*
X178495596Y-75889533D01*
X178496008Y-75989223D01*
X178490109Y-76170368D01*
X178473492Y-76298804D01*
X178449115Y-76360453D01*
X178390023Y-76382601D01*
X178280220Y-76398359D01*
X178145808Y-76406808D01*
X178012889Y-76407026D01*
X177907563Y-76398096D01*
X177857751Y-76381294D01*
X177846092Y-76332906D01*
X177837129Y-76225789D01*
X177832223Y-76079356D01*
X177831700Y-76010064D01*
X177833052Y-75844817D01*
X177839376Y-75742702D01*
X177854067Y-75688711D01*
X177880524Y-75667836D01*
X177909854Y-75664884D01*
X177949813Y-75671806D01*
X177973258Y-75703370D01*
X177984510Y-75775771D01*
X177987885Y-75905205D01*
X177988008Y-75957961D01*
X177988008Y-76251038D01*
X178339700Y-76251038D01*
X178339700Y-75957961D01*
X178341546Y-75808114D01*
X178349963Y-75720193D01*
X178369270Y-75678002D01*
X178403786Y-75665344D01*
X178417854Y-75664884D01*
X178456221Y-75671198D01*
G36*
X179244400Y-75667474D02*
X179318706Y-75678948D01*
X179349940Y-75704864D01*
X179355700Y-75743038D01*
X179346757Y-75787436D01*
X179307802Y-75811041D01*
X179220645Y-75820198D01*
X179131008Y-75821405D01*
X178906315Y-75821619D01*
X179170085Y-75979878D01*
X179313464Y-76072037D01*
X179396744Y-76142901D01*
X179431208Y-76202993D01*
X179433854Y-76225849D01*
X179419245Y-76311841D01*
X179367195Y-76366764D01*
X179265367Y-76396525D01*
X179101422Y-76407031D01*
X179054808Y-76407346D01*
X178907376Y-76405401D01*
X178821664Y-76396573D01*
X178781276Y-76376369D01*
X178769815Y-76340297D01*
X178769546Y-76329192D01*
X178777812Y-76286212D01*
X178814318Y-76262539D01*
X178896623Y-76252516D01*
X179013777Y-76250507D01*
X179258008Y-76249977D01*
X179013777Y-76105215D01*
X178881609Y-76021651D01*
X178806297Y-75957532D01*
X178774015Y-75898952D01*
X178769546Y-75859560D01*
X178785073Y-75763087D01*
X178840042Y-75703288D01*
X178947032Y-75672960D01*
X179109515Y-75664884D01*
X179244400Y-75667474D01*
X179244400Y-75667474D01*
G37*
X179244400Y-75667474D02*
X179318706Y-75678948D01*
X179349940Y-75704864D01*
X179355700Y-75743038D01*
X179346757Y-75787436D01*
X179307802Y-75811041D01*
X179220645Y-75820198D01*
X179131008Y-75821405D01*
X178906315Y-75821619D01*
X179170085Y-75979878D01*
X179313464Y-76072037D01*
X179396744Y-76142901D01*
X179431208Y-76202993D01*
X179433854Y-76225849D01*
X179419245Y-76311841D01*
X179367195Y-76366764D01*
X179265367Y-76396525D01*
X179101422Y-76407031D01*
X179054808Y-76407346D01*
X178907376Y-76405401D01*
X178821664Y-76396573D01*
X178781276Y-76376369D01*
X178769815Y-76340297D01*
X178769546Y-76329192D01*
X178777812Y-76286212D01*
X178814318Y-76262539D01*
X178896623Y-76252516D01*
X179013777Y-76250507D01*
X179258008Y-76249977D01*
X179013777Y-76105215D01*
X178881609Y-76021651D01*
X178806297Y-75957532D01*
X178774015Y-75898952D01*
X178769546Y-75859560D01*
X178785073Y-75763087D01*
X178840042Y-75703288D01*
X178947032Y-75672960D01*
X179109515Y-75664884D01*
X179244400Y-75667474D01*
G36*
X173220623Y-75606269D02*
X173201085Y-75625807D01*
X173181546Y-75606269D01*
X173201085Y-75586730D01*
X173220623Y-75606269D01*
X173220623Y-75606269D01*
G37*
X173220623Y-75606269D02*
X173201085Y-75625807D01*
X173181546Y-75606269D01*
X173201085Y-75586730D01*
X173220623Y-75606269D01*
G36*
X176208460Y-75253355D02*
X176229546Y-75313192D01*
X176206650Y-75374477D01*
X176131854Y-75391346D01*
X176055247Y-75373029D01*
X176034161Y-75313192D01*
X176057058Y-75251906D01*
X176131854Y-75235038D01*
X176208460Y-75253355D01*
X176208460Y-75253355D01*
G37*
X176208460Y-75253355D02*
X176229546Y-75313192D01*
X176206650Y-75374477D01*
X176131854Y-75391346D01*
X176055247Y-75373029D01*
X176034161Y-75313192D01*
X176057058Y-75251906D01*
X176131854Y-75235038D01*
X176208460Y-75253355D01*
G36*
X177537076Y-75253355D02*
X177558161Y-75313192D01*
X177535265Y-75374477D01*
X177460469Y-75391346D01*
X177383862Y-75373029D01*
X177362777Y-75313192D01*
X177385673Y-75251906D01*
X177460469Y-75235038D01*
X177537076Y-75253355D01*
X177537076Y-75253355D01*
G37*
X177537076Y-75253355D02*
X177558161Y-75313192D01*
X177535265Y-75374477D01*
X177460469Y-75391346D01*
X177383862Y-75373029D01*
X177362777Y-75313192D01*
X177385673Y-75251906D01*
X177460469Y-75235038D01*
X177537076Y-75253355D01*
G36*
X179551085Y-74844269D02*
X164897238Y-74844269D01*
X164897238Y-74531653D01*
X179551085Y-74531653D01*
X179551085Y-74844269D01*
X179551085Y-74844269D01*
G37*
X179551085Y-74844269D02*
X164897238Y-74844269D01*
X164897238Y-74531653D01*
X179551085Y-74531653D01*
X179551085Y-74844269D01*
G36*
X165561546Y-72696814D02*
X165561275Y-72976733D01*
X165566848Y-73188166D01*
X165587844Y-73340693D01*
X165633842Y-73443894D01*
X165714423Y-73507348D01*
X165839165Y-73540635D01*
X166017648Y-73553333D01*
X166259452Y-73555023D01*
X166419462Y-73554730D01*
X167085546Y-73554730D01*
X167085546Y-73906423D01*
X166253672Y-73906423D01*
X165975805Y-73905982D01*
X165764090Y-73903961D01*
X165606530Y-73899311D01*
X165491124Y-73890983D01*
X165405874Y-73877930D01*
X165338781Y-73859102D01*
X165277845Y-73833452D01*
X165247441Y-73818500D01*
X165098219Y-73716541D01*
X164993768Y-73572870D01*
X164985161Y-73556220D01*
X164952927Y-73486745D01*
X164929666Y-73416552D01*
X164913930Y-73331654D01*
X164904274Y-73218070D01*
X164899251Y-73061815D01*
X164897415Y-72848905D01*
X164897238Y-72706296D01*
X164897238Y-72030730D01*
X165561546Y-72030730D01*
X165561546Y-72696814D01*
X165561546Y-72696814D01*
G37*
X165561546Y-72696814D02*
X165561275Y-72976733D01*
X165566848Y-73188166D01*
X165587844Y-73340693D01*
X165633842Y-73443894D01*
X165714423Y-73507348D01*
X165839165Y-73540635D01*
X166017648Y-73553333D01*
X166259452Y-73555023D01*
X166419462Y-73554730D01*
X167085546Y-73554730D01*
X167085546Y-73906423D01*
X166253672Y-73906423D01*
X165975805Y-73905982D01*
X165764090Y-73903961D01*
X165606530Y-73899311D01*
X165491124Y-73890983D01*
X165405874Y-73877930D01*
X165338781Y-73859102D01*
X165277845Y-73833452D01*
X165247441Y-73818500D01*
X165098219Y-73716541D01*
X164993768Y-73572870D01*
X164985161Y-73556220D01*
X164952927Y-73486745D01*
X164929666Y-73416552D01*
X164913930Y-73331654D01*
X164904274Y-73218070D01*
X164899251Y-73061815D01*
X164897415Y-72848905D01*
X164897238Y-72706296D01*
X164897238Y-72030730D01*
X165561546Y-72030730D01*
X165561546Y-72696814D01*
G36*
X171344931Y-73906423D02*
X170779178Y-73906423D01*
X170143747Y-73271867D01*
X169508315Y-72637311D01*
X169508315Y-73906423D01*
X168883085Y-73906423D01*
X168883085Y-72030730D01*
X169146854Y-72031616D01*
X169410623Y-72032503D01*
X170680623Y-73249327D01*
X170680623Y-72030730D01*
X171344931Y-72030730D01*
X171344931Y-73906423D01*
X171344931Y-73906423D01*
G37*
X171344931Y-73906423D02*
X170779178Y-73906423D01*
X170143747Y-73271867D01*
X169508315Y-72637311D01*
X169508315Y-73906423D01*
X168883085Y-73906423D01*
X168883085Y-72030730D01*
X169146854Y-72031616D01*
X169410623Y-72032503D01*
X170680623Y-73249327D01*
X170680623Y-72030730D01*
X171344931Y-72030730D01*
X171344931Y-73906423D01*
G36*
X173924008Y-72696814D02*
X173924367Y-72939649D01*
X173926498Y-73116873D01*
X173931979Y-73241031D01*
X173942389Y-73324667D01*
X173959307Y-73380323D01*
X173984312Y-73420544D01*
X174018984Y-73457874D01*
X174019924Y-73458814D01*
X174057336Y-73493731D01*
X174097346Y-73518944D01*
X174152498Y-73536034D01*
X174235335Y-73546578D01*
X174358402Y-73552156D01*
X174534241Y-73554347D01*
X174775396Y-73554730D01*
X175448008Y-73554730D01*
X175448008Y-73906423D01*
X174616134Y-73906423D01*
X174338266Y-73905982D01*
X174126552Y-73903961D01*
X173968991Y-73899311D01*
X173853586Y-73890983D01*
X173768336Y-73877930D01*
X173701242Y-73859102D01*
X173640307Y-73833452D01*
X173609903Y-73818500D01*
X173460681Y-73716541D01*
X173356229Y-73572870D01*
X173347623Y-73556220D01*
X173315389Y-73486745D01*
X173292127Y-73416552D01*
X173276392Y-73331654D01*
X173266736Y-73218070D01*
X173261713Y-73061815D01*
X173259876Y-72848905D01*
X173259700Y-72706296D01*
X173259700Y-72030730D01*
X173924008Y-72030730D01*
X173924008Y-72696814D01*
X173924008Y-72696814D01*
G37*
X173924008Y-72696814D02*
X173924367Y-72939649D01*
X173926498Y-73116873D01*
X173931979Y-73241031D01*
X173942389Y-73324667D01*
X173959307Y-73380323D01*
X173984312Y-73420544D01*
X174018984Y-73457874D01*
X174019924Y-73458814D01*
X174057336Y-73493731D01*
X174097346Y-73518944D01*
X174152498Y-73536034D01*
X174235335Y-73546578D01*
X174358402Y-73552156D01*
X174534241Y-73554347D01*
X174775396Y-73554730D01*
X175448008Y-73554730D01*
X175448008Y-73906423D01*
X174616134Y-73906423D01*
X174338266Y-73905982D01*
X174126552Y-73903961D01*
X173968991Y-73899311D01*
X173853586Y-73890983D01*
X173768336Y-73877930D01*
X173701242Y-73859102D01*
X173640307Y-73833452D01*
X173609903Y-73818500D01*
X173460681Y-73716541D01*
X173356229Y-73572870D01*
X173347623Y-73556220D01*
X173315389Y-73486745D01*
X173292127Y-73416552D01*
X173276392Y-73331654D01*
X173266736Y-73218070D01*
X173261713Y-73061815D01*
X173259876Y-72848905D01*
X173259700Y-72706296D01*
X173259700Y-72030730D01*
X173924008Y-72030730D01*
X173924008Y-72696814D01*
G36*
X179394777Y-72382423D02*
X177833502Y-72382423D01*
X177771208Y-72477494D01*
X177736142Y-72588862D01*
X177773025Y-72690232D01*
X177875787Y-72767041D01*
X177895235Y-72775062D01*
X177967885Y-72788172D01*
X178102143Y-72799278D01*
X178281470Y-72807486D01*
X178489329Y-72811903D01*
X178586475Y-72812415D01*
X178820038Y-72813518D01*
X178989830Y-72817741D01*
X179110217Y-72826654D01*
X179195564Y-72841829D01*
X179260240Y-72864835D01*
X179309205Y-72891424D01*
X179441580Y-73014542D01*
X179522249Y-73178498D01*
X179546822Y-73361928D01*
X179510908Y-73543467D01*
X179462382Y-73636875D01*
X179405285Y-73715931D01*
X179345362Y-73777854D01*
X179272669Y-73824724D01*
X179177261Y-73858621D01*
X179049193Y-73881622D01*
X178878523Y-73895809D01*
X178655304Y-73903260D01*
X178369593Y-73906055D01*
X178173623Y-73906362D01*
X177245546Y-73906423D01*
X177245546Y-73554730D01*
X178001490Y-73554730D01*
X178265221Y-73554121D01*
X178461886Y-73551650D01*
X178602566Y-73546352D01*
X178698343Y-73537262D01*
X178760299Y-73523415D01*
X178799516Y-73503847D01*
X178822105Y-73483269D01*
X178880208Y-73373333D01*
X178867801Y-73264454D01*
X178799928Y-73185715D01*
X178750430Y-73161608D01*
X178673762Y-73144515D01*
X178557911Y-73133401D01*
X178390861Y-73127228D01*
X178160599Y-73124962D01*
X178094603Y-73124884D01*
X177822727Y-73122482D01*
X177616723Y-73113120D01*
X177464399Y-73093569D01*
X177353562Y-73060597D01*
X177272018Y-73010973D01*
X177207576Y-72941466D01*
X177165810Y-72878756D01*
X177104407Y-72713772D01*
X177092804Y-72524759D01*
X177131166Y-72346276D01*
X177162925Y-72281603D01*
X177212571Y-72208656D01*
X177268641Y-72151315D01*
X177340681Y-72107721D01*
X177438240Y-72076018D01*
X177570866Y-72054350D01*
X177748106Y-72040860D01*
X177979508Y-72033692D01*
X178274621Y-72030988D01*
X178453067Y-72030730D01*
X179394777Y-72030730D01*
X179394777Y-72382423D01*
X179394777Y-72382423D01*
G37*
X179394777Y-72382423D02*
X177833502Y-72382423D01*
X177771208Y-72477494D01*
X177736142Y-72588862D01*
X177773025Y-72690232D01*
X177875787Y-72767041D01*
X177895235Y-72775062D01*
X177967885Y-72788172D01*
X178102143Y-72799278D01*
X178281470Y-72807486D01*
X178489329Y-72811903D01*
X178586475Y-72812415D01*
X178820038Y-72813518D01*
X178989830Y-72817741D01*
X179110217Y-72826654D01*
X179195564Y-72841829D01*
X179260240Y-72864835D01*
X179309205Y-72891424D01*
X179441580Y-73014542D01*
X179522249Y-73178498D01*
X179546822Y-73361928D01*
X179510908Y-73543467D01*
X179462382Y-73636875D01*
X179405285Y-73715931D01*
X179345362Y-73777854D01*
X179272669Y-73824724D01*
X179177261Y-73858621D01*
X179049193Y-73881622D01*
X178878523Y-73895809D01*
X178655304Y-73903260D01*
X178369593Y-73906055D01*
X178173623Y-73906362D01*
X177245546Y-73906423D01*
X177245546Y-73554730D01*
X178001490Y-73554730D01*
X178265221Y-73554121D01*
X178461886Y-73551650D01*
X178602566Y-73546352D01*
X178698343Y-73537262D01*
X178760299Y-73523415D01*
X178799516Y-73503847D01*
X178822105Y-73483269D01*
X178880208Y-73373333D01*
X178867801Y-73264454D01*
X178799928Y-73185715D01*
X178750430Y-73161608D01*
X178673762Y-73144515D01*
X178557911Y-73133401D01*
X178390861Y-73127228D01*
X178160599Y-73124962D01*
X178094603Y-73124884D01*
X177822727Y-73122482D01*
X177616723Y-73113120D01*
X177464399Y-73093569D01*
X177353562Y-73060597D01*
X177272018Y-73010973D01*
X177207576Y-72941466D01*
X177165810Y-72878756D01*
X177104407Y-72713772D01*
X177092804Y-72524759D01*
X177131166Y-72346276D01*
X177162925Y-72281603D01*
X177212571Y-72208656D01*
X177268641Y-72151315D01*
X177340681Y-72107721D01*
X177438240Y-72076018D01*
X177570866Y-72054350D01*
X177748106Y-72040860D01*
X177979508Y-72033692D01*
X178274621Y-72030988D01*
X178453067Y-72030730D01*
X179394777Y-72030730D01*
X179394777Y-72382423D01*
G36*
X179648777Y-71503192D02*
X172232743Y-71513062D01*
X171306827Y-71514203D01*
X170456254Y-71515049D01*
X169678215Y-71515586D01*
X168969901Y-71515798D01*
X168328500Y-71515670D01*
X167751204Y-71515189D01*
X167235204Y-71514339D01*
X166777688Y-71513105D01*
X166375847Y-71511473D01*
X166026873Y-71509428D01*
X165727954Y-71506955D01*
X165476281Y-71504039D01*
X165269045Y-71500666D01*
X165103435Y-71496820D01*
X164976642Y-71492488D01*
X164885857Y-71487654D01*
X164828269Y-71482303D01*
X164801068Y-71476421D01*
X164798092Y-71473985D01*
X164796068Y-71430051D01*
X164794232Y-71312191D01*
X164792589Y-71124630D01*
X164791145Y-70871596D01*
X164789906Y-70557315D01*
X164788878Y-70186013D01*
X164788067Y-69761919D01*
X164787478Y-69289257D01*
X164787118Y-68772256D01*
X164786992Y-68215142D01*
X164787107Y-67622140D01*
X164787467Y-66997479D01*
X164788080Y-66345385D01*
X164788951Y-65670084D01*
X164789510Y-65309500D01*
X164799129Y-59447961D01*
X165053546Y-59447961D01*
X165053546Y-71249192D01*
X166010931Y-71249192D01*
X166275161Y-71248758D01*
X166511454Y-71247539D01*
X166709241Y-71245658D01*
X166857951Y-71243237D01*
X166947017Y-71240400D01*
X166968315Y-71238068D01*
X166955989Y-71198564D01*
X166923826Y-71106461D01*
X166883199Y-70993837D01*
X166819434Y-70750354D01*
X166783109Y-70462109D01*
X166774955Y-70157788D01*
X166795703Y-69866077D01*
X166846084Y-69615663D01*
X166847921Y-69609549D01*
X167004215Y-69221598D01*
X167220880Y-68875341D01*
X167490367Y-68576474D01*
X167805126Y-68330695D01*
X168157608Y-68143700D01*
X168540263Y-68021185D01*
X168945542Y-67968848D01*
X169024289Y-67967308D01*
X169338878Y-67982254D01*
X169615021Y-68033744D01*
X169886957Y-68129603D01*
X170035854Y-68198489D01*
X170399315Y-68418715D01*
X170707993Y-68690601D01*
X170958022Y-69007026D01*
X171145541Y-69360870D01*
X171266684Y-69745011D01*
X171317588Y-70152329D01*
X171300582Y-70529416D01*
X171270979Y-70709382D01*
X171229482Y-70890674D01*
X171187094Y-71028157D01*
X171145017Y-71140469D01*
X171117192Y-71217825D01*
X171110489Y-71239423D01*
X171148494Y-71241085D01*
X171258246Y-71242659D01*
X171433337Y-71244119D01*
X171667359Y-71245442D01*
X171953905Y-71246604D01*
X172286567Y-71247580D01*
X172658937Y-71248347D01*
X173064609Y-71248881D01*
X173497175Y-71249158D01*
X173715483Y-71249192D01*
X176320497Y-71249192D01*
X175835406Y-70757258D01*
X175155178Y-70112527D01*
X174460449Y-69543852D01*
X173749305Y-69050157D01*
X173019832Y-68630364D01*
X172270117Y-68283397D01*
X171498245Y-68008177D01*
X170702303Y-67803628D01*
X170524315Y-67768106D01*
X170306015Y-67726116D01*
X170112137Y-67687659D01*
X169956803Y-67655628D01*
X169854137Y-67632918D01*
X169820931Y-67624026D01*
X169818718Y-67606726D01*
X169885747Y-67585330D01*
X170013287Y-67561075D01*
X170192609Y-67535196D01*
X170414981Y-67508931D01*
X170671674Y-67483516D01*
X170953957Y-67460186D01*
X171003744Y-67456525D01*
X171851264Y-67433611D01*
X172710254Y-67485025D01*
X173573690Y-67609156D01*
X174434550Y-67804398D01*
X175285810Y-68069143D01*
X176120448Y-68401781D01*
X176931440Y-68800706D01*
X176973065Y-68823360D01*
X177143741Y-68918071D01*
X177366208Y-69043584D01*
X177624928Y-69191017D01*
X177904362Y-69351486D01*
X178188974Y-69516109D01*
X178406132Y-69642599D01*
X178651817Y-69785752D01*
X178875271Y-69915084D01*
X179067697Y-70025574D01*
X179220298Y-70112199D01*
X179324276Y-70169938D01*
X179370836Y-70193769D01*
X179372228Y-70194115D01*
X179374920Y-70155782D01*
X179377519Y-70043756D01*
X179380008Y-69862500D01*
X179382369Y-69616474D01*
X179384581Y-69310142D01*
X179386627Y-68947963D01*
X179388488Y-68534399D01*
X179390144Y-68073913D01*
X179391578Y-67570966D01*
X179392771Y-67030019D01*
X179393704Y-66455533D01*
X179394357Y-65851972D01*
X179394714Y-65223795D01*
X179394777Y-64821038D01*
X179394777Y-59447961D01*
X165053546Y-59447961D01*
X164799129Y-59447961D01*
X164799546Y-59193961D01*
X179648777Y-59193961D01*
X179648777Y-71503192D01*
X179648777Y-71503192D01*
G37*
X179648777Y-71503192D02*
X172232743Y-71513062D01*
X171306827Y-71514203D01*
X170456254Y-71515049D01*
X169678215Y-71515586D01*
X168969901Y-71515798D01*
X168328500Y-71515670D01*
X167751204Y-71515189D01*
X167235204Y-71514339D01*
X166777688Y-71513105D01*
X166375847Y-71511473D01*
X166026873Y-71509428D01*
X165727954Y-71506955D01*
X165476281Y-71504039D01*
X165269045Y-71500666D01*
X165103435Y-71496820D01*
X164976642Y-71492488D01*
X164885857Y-71487654D01*
X164828269Y-71482303D01*
X164801068Y-71476421D01*
X164798092Y-71473985D01*
X164796068Y-71430051D01*
X164794232Y-71312191D01*
X164792589Y-71124630D01*
X164791145Y-70871596D01*
X164789906Y-70557315D01*
X164788878Y-70186013D01*
X164788067Y-69761919D01*
X164787478Y-69289257D01*
X164787118Y-68772256D01*
X164786992Y-68215142D01*
X164787107Y-67622140D01*
X164787467Y-66997479D01*
X164788080Y-66345385D01*
X164788951Y-65670084D01*
X164789510Y-65309500D01*
X164799129Y-59447961D01*
X165053546Y-59447961D01*
X165053546Y-71249192D01*
X166010931Y-71249192D01*
X166275161Y-71248758D01*
X166511454Y-71247539D01*
X166709241Y-71245658D01*
X166857951Y-71243237D01*
X166947017Y-71240400D01*
X166968315Y-71238068D01*
X166955989Y-71198564D01*
X166923826Y-71106461D01*
X166883199Y-70993837D01*
X166819434Y-70750354D01*
X166783109Y-70462109D01*
X166774955Y-70157788D01*
X166795703Y-69866077D01*
X166846084Y-69615663D01*
X166847921Y-69609549D01*
X167004215Y-69221598D01*
X167220880Y-68875341D01*
X167490367Y-68576474D01*
X167805126Y-68330695D01*
X168157608Y-68143700D01*
X168540263Y-68021185D01*
X168945542Y-67968848D01*
X169024289Y-67967308D01*
X169338878Y-67982254D01*
X169615021Y-68033744D01*
X169886957Y-68129603D01*
X170035854Y-68198489D01*
X170399315Y-68418715D01*
X170707993Y-68690601D01*
X170958022Y-69007026D01*
X171145541Y-69360870D01*
X171266684Y-69745011D01*
X171317588Y-70152329D01*
X171300582Y-70529416D01*
X171270979Y-70709382D01*
X171229482Y-70890674D01*
X171187094Y-71028157D01*
X171145017Y-71140469D01*
X171117192Y-71217825D01*
X171110489Y-71239423D01*
X171148494Y-71241085D01*
X171258246Y-71242659D01*
X171433337Y-71244119D01*
X171667359Y-71245442D01*
X171953905Y-71246604D01*
X172286567Y-71247580D01*
X172658937Y-71248347D01*
X173064609Y-71248881D01*
X173497175Y-71249158D01*
X173715483Y-71249192D01*
X176320497Y-71249192D01*
X175835406Y-70757258D01*
X175155178Y-70112527D01*
X174460449Y-69543852D01*
X173749305Y-69050157D01*
X173019832Y-68630364D01*
X172270117Y-68283397D01*
X171498245Y-68008177D01*
X170702303Y-67803628D01*
X170524315Y-67768106D01*
X170306015Y-67726116D01*
X170112137Y-67687659D01*
X169956803Y-67655628D01*
X169854137Y-67632918D01*
X169820931Y-67624026D01*
X169818718Y-67606726D01*
X169885747Y-67585330D01*
X170013287Y-67561075D01*
X170192609Y-67535196D01*
X170414981Y-67508931D01*
X170671674Y-67483516D01*
X170953957Y-67460186D01*
X171003744Y-67456525D01*
X171851264Y-67433611D01*
X172710254Y-67485025D01*
X173573690Y-67609156D01*
X174434550Y-67804398D01*
X175285810Y-68069143D01*
X176120448Y-68401781D01*
X176931440Y-68800706D01*
X176973065Y-68823360D01*
X177143741Y-68918071D01*
X177366208Y-69043584D01*
X177624928Y-69191017D01*
X177904362Y-69351486D01*
X178188974Y-69516109D01*
X178406132Y-69642599D01*
X178651817Y-69785752D01*
X178875271Y-69915084D01*
X179067697Y-70025574D01*
X179220298Y-70112199D01*
X179324276Y-70169938D01*
X179370836Y-70193769D01*
X179372228Y-70194115D01*
X179374920Y-70155782D01*
X179377519Y-70043756D01*
X179380008Y-69862500D01*
X179382369Y-69616474D01*
X179384581Y-69310142D01*
X179386627Y-68947963D01*
X179388488Y-68534399D01*
X179390144Y-68073913D01*
X179391578Y-67570966D01*
X179392771Y-67030019D01*
X179393704Y-66455533D01*
X179394357Y-65851972D01*
X179394714Y-65223795D01*
X179394777Y-64821038D01*
X179394777Y-59447961D01*
X165053546Y-59447961D01*
X164799129Y-59447961D01*
X164799546Y-59193961D01*
X179648777Y-59193961D01*
X179648777Y-71503192D01*
G36*
X169213853Y-59836297D02*
X169285433Y-59878502D01*
X169414763Y-59953668D01*
X169591734Y-60055991D01*
X169806235Y-60179664D01*
X170048157Y-60318880D01*
X170307389Y-60467835D01*
X170573822Y-60620721D01*
X170837346Y-60771733D01*
X171087850Y-60915065D01*
X171315225Y-61044909D01*
X171509361Y-61155460D01*
X171628172Y-61222844D01*
X171788597Y-61315422D01*
X171920766Y-61395184D01*
X172011613Y-61453993D01*
X172048071Y-61483708D01*
X172048249Y-61484506D01*
X172017802Y-61514242D01*
X171934471Y-61578473D01*
X171810350Y-61668268D01*
X171657533Y-61774694D01*
X171628238Y-61794704D01*
X170857231Y-62346727D01*
X170159578Y-62903817D01*
X169530479Y-63471116D01*
X168965135Y-64053768D01*
X168458746Y-64656917D01*
X168006512Y-65285704D01*
X167603634Y-65945275D01*
X167400086Y-66325500D01*
X167184826Y-66768350D01*
X167005490Y-67187758D01*
X166854640Y-67605624D01*
X166724839Y-68043847D01*
X166608648Y-68524326D01*
X166538144Y-68863368D01*
X166483840Y-69131954D01*
X166441647Y-69325742D01*
X166410963Y-69447045D01*
X166391187Y-69498177D01*
X166381717Y-69481452D01*
X166380922Y-69467935D01*
X166375027Y-69416175D01*
X166360134Y-69305436D01*
X166338757Y-69154041D01*
X166322405Y-69041346D01*
X166300764Y-68862080D01*
X166279443Y-68629534D01*
X166260370Y-68368565D01*
X166245476Y-68104030D01*
X166240496Y-67986269D01*
X166246175Y-67088429D01*
X166329659Y-66193695D01*
X166490618Y-65303359D01*
X166728724Y-64418716D01*
X167043647Y-63541059D01*
X167435060Y-62671681D01*
X167736465Y-62100671D01*
X167834507Y-61927216D01*
X167963110Y-61702457D01*
X168113053Y-61442359D01*
X168275110Y-61162887D01*
X168440060Y-60880006D01*
X168553706Y-60686127D01*
X169095237Y-59764565D01*
X169213853Y-59836297D01*
X169213853Y-59836297D01*
G37*
X169213853Y-59836297D02*
X169285433Y-59878502D01*
X169414763Y-59953668D01*
X169591734Y-60055991D01*
X169806235Y-60179664D01*
X170048157Y-60318880D01*
X170307389Y-60467835D01*
X170573822Y-60620721D01*
X170837346Y-60771733D01*
X171087850Y-60915065D01*
X171315225Y-61044909D01*
X171509361Y-61155460D01*
X171628172Y-61222844D01*
X171788597Y-61315422D01*
X171920766Y-61395184D01*
X172011613Y-61453993D01*
X172048071Y-61483708D01*
X172048249Y-61484506D01*
X172017802Y-61514242D01*
X171934471Y-61578473D01*
X171810350Y-61668268D01*
X171657533Y-61774694D01*
X171628238Y-61794704D01*
X170857231Y-62346727D01*
X170159578Y-62903817D01*
X169530479Y-63471116D01*
X168965135Y-64053768D01*
X168458746Y-64656917D01*
X168006512Y-65285704D01*
X167603634Y-65945275D01*
X167400086Y-66325500D01*
X167184826Y-66768350D01*
X167005490Y-67187758D01*
X166854640Y-67605624D01*
X166724839Y-68043847D01*
X166608648Y-68524326D01*
X166538144Y-68863368D01*
X166483840Y-69131954D01*
X166441647Y-69325742D01*
X166410963Y-69447045D01*
X166391187Y-69498177D01*
X166381717Y-69481452D01*
X166380922Y-69467935D01*
X166375027Y-69416175D01*
X166360134Y-69305436D01*
X166338757Y-69154041D01*
X166322405Y-69041346D01*
X166300764Y-68862080D01*
X166279443Y-68629534D01*
X166260370Y-68368565D01*
X166245476Y-68104030D01*
X166240496Y-67986269D01*
X166246175Y-67088429D01*
X166329659Y-66193695D01*
X166490618Y-65303359D01*
X166728724Y-64418716D01*
X167043647Y-63541059D01*
X167435060Y-62671681D01*
X167736465Y-62100671D01*
X167834507Y-61927216D01*
X167963110Y-61702457D01*
X168113053Y-61442359D01*
X168275110Y-61162887D01*
X168440060Y-60880006D01*
X168553706Y-60686127D01*
X169095237Y-59764565D01*
X169213853Y-59836297D01*
G36*
X176748147Y-65050834D02*
X176956765Y-65055286D01*
X178144315Y-65084015D01*
X178144315Y-66798911D01*
X178143670Y-67156379D01*
X178141825Y-67488457D01*
X178138914Y-67787269D01*
X178135073Y-68044939D01*
X178130437Y-68253590D01*
X178125140Y-68405345D01*
X178119317Y-68492327D01*
X178115008Y-68510458D01*
X178070668Y-68492515D01*
X177971189Y-68446040D01*
X177831071Y-68377971D01*
X177664816Y-68295249D01*
X177655854Y-68290740D01*
X176806349Y-67891377D01*
X175978548Y-67560833D01*
X175162788Y-67296341D01*
X174349408Y-67095136D01*
X173528744Y-66954453D01*
X172699681Y-66872080D01*
X171901247Y-66852383D01*
X171117876Y-66900202D01*
X170338985Y-67017086D01*
X169553988Y-67204582D01*
X168822379Y-67438956D01*
X168658948Y-67494873D01*
X168521675Y-67537215D01*
X168427802Y-67560934D01*
X168396600Y-67563594D01*
X168400791Y-67535136D01*
X168463255Y-67472246D01*
X168575317Y-67380813D01*
X168728301Y-67266725D01*
X168913530Y-67135871D01*
X169122329Y-66994140D01*
X169346022Y-66847420D01*
X169575931Y-66701600D01*
X169803383Y-66562570D01*
X170019700Y-66436216D01*
X170216206Y-66328429D01*
X170217202Y-66327905D01*
X170780236Y-66049516D01*
X171341107Y-65808799D01*
X171908131Y-65604185D01*
X172489623Y-65434102D01*
X173093902Y-65296981D01*
X173729282Y-65191251D01*
X174404080Y-65115342D01*
X175126613Y-65067683D01*
X175905197Y-65046704D01*
X176748147Y-65050834D01*
X176748147Y-65050834D01*
G37*
X176748147Y-65050834D02*
X176956765Y-65055286D01*
X178144315Y-65084015D01*
X178144315Y-66798911D01*
X178143670Y-67156379D01*
X178141825Y-67488457D01*
X178138914Y-67787269D01*
X178135073Y-68044939D01*
X178130437Y-68253590D01*
X178125140Y-68405345D01*
X178119317Y-68492327D01*
X178115008Y-68510458D01*
X178070668Y-68492515D01*
X177971189Y-68446040D01*
X177831071Y-68377971D01*
X177664816Y-68295249D01*
X177655854Y-68290740D01*
X176806349Y-67891377D01*
X175978548Y-67560833D01*
X175162788Y-67296341D01*
X174349408Y-67095136D01*
X173528744Y-66954453D01*
X172699681Y-66872080D01*
X171901247Y-66852383D01*
X171117876Y-66900202D01*
X170338985Y-67017086D01*
X169553988Y-67204582D01*
X168822379Y-67438956D01*
X168658948Y-67494873D01*
X168521675Y-67537215D01*
X168427802Y-67560934D01*
X168396600Y-67563594D01*
X168400791Y-67535136D01*
X168463255Y-67472246D01*
X168575317Y-67380813D01*
X168728301Y-67266725D01*
X168913530Y-67135871D01*
X169122329Y-66994140D01*
X169346022Y-66847420D01*
X169575931Y-66701600D01*
X169803383Y-66562570D01*
X170019700Y-66436216D01*
X170216206Y-66328429D01*
X170217202Y-66327905D01*
X170780236Y-66049516D01*
X171341107Y-65808799D01*
X171908131Y-65604185D01*
X172489623Y-65434102D01*
X173093902Y-65296981D01*
X173729282Y-65191251D01*
X174404080Y-65115342D01*
X175126613Y-65067683D01*
X175905197Y-65046704D01*
X176748147Y-65050834D01*
G36*
X174410859Y-61373141D02*
X174460389Y-61455366D01*
X174539621Y-61589641D01*
X174643603Y-61767377D01*
X174767383Y-61979985D01*
X174906011Y-62218877D01*
X175054533Y-62475462D01*
X175207999Y-62741152D01*
X175361456Y-63007358D01*
X175509954Y-63265491D01*
X175648541Y-63506961D01*
X175772264Y-63723179D01*
X175876172Y-63905557D01*
X175955314Y-64045505D01*
X176004738Y-64134434D01*
X176019695Y-64163819D01*
X175980743Y-64169250D01*
X175876156Y-64180083D01*
X175718179Y-64195151D01*
X175519053Y-64213287D01*
X175291124Y-64233313D01*
X174712928Y-64289248D01*
X174197820Y-64352384D01*
X173730884Y-64425035D01*
X173297206Y-64509514D01*
X172892185Y-64605471D01*
X172008022Y-64864923D01*
X171182674Y-65173071D01*
X170411829Y-65532536D01*
X169691176Y-65945937D01*
X169016405Y-66415895D01*
X168383202Y-66945028D01*
X167787258Y-67535957D01*
X167456922Y-67908115D01*
X167321732Y-68067440D01*
X167229210Y-68175612D01*
X167171292Y-68240927D01*
X167139909Y-68271678D01*
X167126997Y-68276161D01*
X167124489Y-68262670D01*
X167124623Y-68249831D01*
X167140311Y-68190919D01*
X167183199Y-68075850D01*
X167247026Y-67919098D01*
X167325530Y-67735133D01*
X167412447Y-67538427D01*
X167501515Y-67343452D01*
X167586473Y-67164680D01*
X167644506Y-67048423D01*
X168031584Y-66353664D01*
X168452547Y-65714508D01*
X168921714Y-65110891D01*
X169429538Y-64547500D01*
X169745342Y-64228150D01*
X170055597Y-63934498D01*
X170369983Y-63659395D01*
X170698179Y-63395691D01*
X171049865Y-63136237D01*
X171434719Y-62873885D01*
X171862422Y-62601484D01*
X172342652Y-62311886D01*
X172868931Y-62007148D01*
X173089510Y-61881863D01*
X173321245Y-61751017D01*
X173551037Y-61621931D01*
X173765788Y-61501924D01*
X173952396Y-61398314D01*
X174097763Y-61318423D01*
X174188789Y-61269569D01*
X174190997Y-61268425D01*
X174308413Y-61207707D01*
X174410859Y-61373141D01*
X174410859Y-61373141D01*
G37*
X174410859Y-61373141D02*
X174460389Y-61455366D01*
X174539621Y-61589641D01*
X174643603Y-61767377D01*
X174767383Y-61979985D01*
X174906011Y-62218877D01*
X175054533Y-62475462D01*
X175207999Y-62741152D01*
X175361456Y-63007358D01*
X175509954Y-63265491D01*
X175648541Y-63506961D01*
X175772264Y-63723179D01*
X175876172Y-63905557D01*
X175955314Y-64045505D01*
X176004738Y-64134434D01*
X176019695Y-64163819D01*
X175980743Y-64169250D01*
X175876156Y-64180083D01*
X175718179Y-64195151D01*
X175519053Y-64213287D01*
X175291124Y-64233313D01*
X174712928Y-64289248D01*
X174197820Y-64352384D01*
X173730884Y-64425035D01*
X173297206Y-64509514D01*
X172892185Y-64605471D01*
X172008022Y-64864923D01*
X171182674Y-65173071D01*
X170411829Y-65532536D01*
X169691176Y-65945937D01*
X169016405Y-66415895D01*
X168383202Y-66945028D01*
X167787258Y-67535957D01*
X167456922Y-67908115D01*
X167321732Y-68067440D01*
X167229210Y-68175612D01*
X167171292Y-68240927D01*
X167139909Y-68271678D01*
X167126997Y-68276161D01*
X167124489Y-68262670D01*
X167124623Y-68249831D01*
X167140311Y-68190919D01*
X167183199Y-68075850D01*
X167247026Y-67919098D01*
X167325530Y-67735133D01*
X167412447Y-67538427D01*
X167501515Y-67343452D01*
X167586473Y-67164680D01*
X167644506Y-67048423D01*
X168031584Y-66353664D01*
X168452547Y-65714508D01*
X168921714Y-65110891D01*
X169429538Y-64547500D01*
X169745342Y-64228150D01*
X170055597Y-63934498D01*
X170369983Y-63659395D01*
X170698179Y-63395691D01*
X171049865Y-63136237D01*
X171434719Y-62873885D01*
X171862422Y-62601484D01*
X172342652Y-62311886D01*
X172868931Y-62007148D01*
X173089510Y-61881863D01*
X173321245Y-61751017D01*
X173551037Y-61621931D01*
X173765788Y-61501924D01*
X173952396Y-61398314D01*
X174097763Y-61318423D01*
X174188789Y-61269569D01*
X174190997Y-61268425D01*
X174308413Y-61207707D01*
X174410859Y-61373141D01*
D10*
X162090000Y-105194000D02*
X162065000Y-105194000D01*
X154040000Y-105194000D02*
X154065000Y-105194000D01*
X154040000Y-100544000D02*
X154065000Y-100544000D01*
X162140000Y-99469000D02*
X162140000Y-105194000D01*
X154040000Y-100544000D02*
X154040000Y-105194000D01*
X144476000Y-36711000D02*
X144476000Y-62111000D01*
X149556000Y-59571000D02*
X149556000Y-36711000D01*
X144476000Y-36711000D02*
X149556000Y-36711000D01*
X144476000Y-62111000D02*
X147016000Y-62111000D01*
X148286000Y-62391000D02*
X149836000Y-62391000D01*
X147016000Y-62111000D02*
X147016000Y-59571000D01*
X147016000Y-59571000D02*
X149556000Y-59571000D01*
X149836000Y-62391000D02*
X149836000Y-60841000D01*
X155829000Y-93167200D02*
X155829000Y-60147200D01*
X160909000Y-90627200D02*
X160909000Y-60147200D01*
X155829000Y-60147200D02*
X160909000Y-60147200D01*
X155829000Y-93167200D02*
X158369000Y-93167200D01*
X159639000Y-93447200D02*
X161189000Y-93447200D01*
X158369000Y-93167200D02*
X158369000Y-90627200D01*
X158369000Y-90627200D02*
X160909000Y-90627200D01*
X161189000Y-93447200D02*
X161189000Y-91897200D01*
X144476000Y-116077000D02*
X144476000Y-83057000D01*
X149556000Y-113537000D02*
X149556000Y-83057000D01*
X144476000Y-83057000D02*
X149556000Y-83057000D01*
X144476000Y-116077000D02*
X147016000Y-116077000D01*
X148286000Y-116357000D02*
X149836000Y-116357000D01*
X147016000Y-116077000D02*
X147016000Y-113537000D01*
X147016000Y-113537000D02*
X149556000Y-113537000D01*
X149836000Y-116357000D02*
X149836000Y-114807000D01*
X165537300Y-104266900D02*
X164537300Y-104266900D01*
X164537300Y-105966900D02*
X165537300Y-105966900D01*
X165537300Y-106565600D02*
X164537300Y-106565600D01*
X164537300Y-108265600D02*
X165537300Y-108265600D01*
X167899500Y-53657400D02*
X166899500Y-53657400D01*
X166899500Y-55357400D02*
X167899500Y-55357400D01*
X167899500Y-55867200D02*
X166899500Y-55867200D01*
X166899500Y-57567200D02*
X167899500Y-57567200D01*
X162737081Y-54799405D02*
X163546605Y-54799405D01*
X163641843Y-54751786D01*
X163689462Y-54704167D01*
X163737081Y-54608929D01*
X163737081Y-54418452D01*
X163689462Y-54323214D01*
X163641843Y-54275595D01*
X163546605Y-54227976D01*
X162737081Y-54227976D01*
X162832319Y-53799405D02*
X162784700Y-53751786D01*
X162737081Y-53656548D01*
X162737081Y-53418452D01*
X162784700Y-53323214D01*
X162832319Y-53275595D01*
X162927557Y-53227976D01*
X163022795Y-53227976D01*
X163165652Y-53275595D01*
X163737081Y-53847024D01*
X163737081Y-53227976D01*
X152450081Y-57204167D02*
X153450081Y-56537500D01*
X152450081Y-56537500D02*
X153450081Y-57204167D01*
X153450081Y-55585119D02*
X152973890Y-55918453D01*
X153450081Y-56156548D02*
X152450081Y-56156548D01*
X152450081Y-55775595D01*
X152497700Y-55680357D01*
X152545319Y-55632738D01*
X152640557Y-55585119D01*
X152783414Y-55585119D01*
X152878652Y-55632738D01*
X152926271Y-55680357D01*
X152973890Y-55775595D01*
X152973890Y-56156548D01*
X153164367Y-55204167D02*
X153164367Y-54727976D01*
X153450081Y-55299405D02*
X152450081Y-54966072D01*
X153450081Y-54632738D01*
X153450081Y-53775595D02*
X153450081Y-54347024D01*
X153450081Y-54061310D02*
X152450081Y-54061310D01*
X152592938Y-54156548D01*
X152688176Y-54251786D01*
X152735795Y-54347024D01*
X152783414Y-52918452D02*
X153450081Y-52918452D01*
X152402462Y-53156548D02*
X153116748Y-53394643D01*
X153116748Y-52775595D01*
X152450081Y-52204167D02*
X152450081Y-52108928D01*
X152497700Y-52013690D01*
X152545319Y-51966071D01*
X152640557Y-51918452D01*
X152831033Y-51870833D01*
X153069129Y-51870833D01*
X153259605Y-51918452D01*
X153354843Y-51966071D01*
X153402462Y-52013690D01*
X153450081Y-52108928D01*
X153450081Y-52204167D01*
X153402462Y-52299405D01*
X153354843Y-52347024D01*
X153259605Y-52394643D01*
X153069129Y-52442262D01*
X152831033Y-52442262D01*
X152640557Y-52394643D01*
X152545319Y-52347024D01*
X152497700Y-52299405D01*
X152450081Y-52204167D01*
X152450081Y-50966071D02*
X152450081Y-51442262D01*
X152926271Y-51489881D01*
X152878652Y-51442262D01*
X152831033Y-51347024D01*
X152831033Y-51108928D01*
X152878652Y-51013690D01*
X152926271Y-50966071D01*
X153021510Y-50918452D01*
X153259605Y-50918452D01*
X153354843Y-50966071D01*
X153402462Y-51013690D01*
X153450081Y-51108928D01*
X153450081Y-51347024D01*
X153402462Y-51442262D01*
X153354843Y-51489881D01*
X47624305Y-47758881D02*
X47624305Y-46758881D01*
X48005258Y-46758881D01*
X48100496Y-46806500D01*
X48148115Y-46854119D01*
X48195734Y-46949357D01*
X48195734Y-47092214D01*
X48148115Y-47187452D01*
X48100496Y-47235071D01*
X48005258Y-47282690D01*
X47624305Y-47282690D01*
X49052877Y-47092214D02*
X49052877Y-47758881D01*
X48814781Y-46711262D02*
X48576686Y-47425548D01*
X49195734Y-47425548D01*
X170344405Y-46628581D02*
X170344405Y-45628581D01*
X170725358Y-45628581D01*
X170820596Y-45676200D01*
X170868215Y-45723819D01*
X170915834Y-45819057D01*
X170915834Y-45961914D01*
X170868215Y-46057152D01*
X170820596Y-46104771D01*
X170725358Y-46152390D01*
X170344405Y-46152390D01*
X171772977Y-45628581D02*
X171582500Y-45628581D01*
X171487262Y-45676200D01*
X171439643Y-45723819D01*
X171344405Y-45866676D01*
X171296786Y-46057152D01*
X171296786Y-46438105D01*
X171344405Y-46533343D01*
X171392024Y-46580962D01*
X171487262Y-46628581D01*
X171677739Y-46628581D01*
X171772977Y-46580962D01*
X171820596Y-46533343D01*
X171868215Y-46438105D01*
X171868215Y-46200010D01*
X171820596Y-46104771D01*
X171772977Y-46057152D01*
X171677739Y-46009533D01*
X171487262Y-46009533D01*
X171392024Y-46057152D01*
X171344405Y-46104771D01*
X171296786Y-46200010D01*
X171538205Y-115386381D02*
X171538205Y-114386381D01*
X171919158Y-114386381D01*
X172014396Y-114434000D01*
X172062015Y-114481619D01*
X172109634Y-114576857D01*
X172109634Y-114719714D01*
X172062015Y-114814952D01*
X172014396Y-114862571D01*
X171919158Y-114910190D01*
X171538205Y-114910190D01*
X173014396Y-114386381D02*
X172538205Y-114386381D01*
X172490586Y-114862571D01*
X172538205Y-114814952D01*
X172633443Y-114767333D01*
X172871539Y-114767333D01*
X172966777Y-114814952D01*
X173014396Y-114862571D01*
X173062015Y-114957810D01*
X173062015Y-115195905D01*
X173014396Y-115291143D01*
X172966777Y-115338762D01*
X172871539Y-115386381D01*
X172633443Y-115386381D01*
X172538205Y-115338762D01*
X172490586Y-115291143D01*
X165608967Y-117558081D02*
X165608967Y-116558081D01*
X165942301Y-117272367D01*
X166275634Y-116558081D01*
X166275634Y-117558081D01*
X166751824Y-117558081D02*
X166751824Y-116558081D01*
X166751824Y-117034271D02*
X167323253Y-117034271D01*
X167323253Y-117558081D02*
X167323253Y-116558081D01*
X168323253Y-117558081D02*
X167751824Y-117558081D01*
X168037538Y-117558081D02*
X168037538Y-116558081D01*
X167942300Y-116700938D01*
X167847062Y-116796176D01*
X167751824Y-116843795D01*
X37758067Y-36697181D02*
X37758067Y-35697181D01*
X38091401Y-36411467D01*
X38424734Y-35697181D01*
X38424734Y-36697181D01*
X38900924Y-36697181D02*
X38900924Y-35697181D01*
X38900924Y-36173371D02*
X39472353Y-36173371D01*
X39472353Y-36697181D02*
X39472353Y-35697181D01*
X39853305Y-35697181D02*
X40472353Y-35697181D01*
X40139019Y-36078133D01*
X40281877Y-36078133D01*
X40377115Y-36125752D01*
X40424734Y-36173371D01*
X40472353Y-36268610D01*
X40472353Y-36506705D01*
X40424734Y-36601943D01*
X40377115Y-36649562D01*
X40281877Y-36697181D01*
X39996162Y-36697181D01*
X39900924Y-36649562D01*
X39853305Y-36601943D01*
X165608967Y-37001981D02*
X165608967Y-36001981D01*
X165942301Y-36716267D01*
X166275634Y-36001981D01*
X166275634Y-37001981D01*
X166751824Y-37001981D02*
X166751824Y-36001981D01*
X166751824Y-36478171D02*
X167323253Y-36478171D01*
X167323253Y-37001981D02*
X167323253Y-36001981D01*
X168228015Y-36335314D02*
X168228015Y-37001981D01*
X167989919Y-35954362D02*
X167751824Y-36668648D01*
X168370872Y-36668648D01*
X176453176Y-118764581D02*
X176453176Y-117764581D01*
X176786510Y-118478867D01*
X177119843Y-117764581D01*
X177119843Y-118764581D01*
X177596033Y-118764581D02*
X177596033Y-117764581D01*
X177976986Y-117764581D01*
X178072224Y-117812200D01*
X178119843Y-117859819D01*
X178167462Y-117955057D01*
X178167462Y-118097914D01*
X178119843Y-118193152D01*
X178072224Y-118240771D01*
X177976986Y-118288390D01*
X177596033Y-118288390D01*
X179119843Y-118764581D02*
X178548414Y-118764581D01*
X178834128Y-118764581D02*
X178834128Y-117764581D01*
X178738890Y-117907438D01*
X178643652Y-118002676D01*
X178548414Y-118050295D01*
X176453176Y-35579581D02*
X176453176Y-34579581D01*
X176786510Y-35293867D01*
X177119843Y-34579581D01*
X177119843Y-35579581D01*
X177596033Y-35579581D02*
X177596033Y-34579581D01*
X177976986Y-34579581D01*
X178072224Y-34627200D01*
X178119843Y-34674819D01*
X178167462Y-34770057D01*
X178167462Y-34912914D01*
X178119843Y-35008152D01*
X178072224Y-35055771D01*
X177976986Y-35103390D01*
X177596033Y-35103390D01*
X178548414Y-34674819D02*
X178596033Y-34627200D01*
X178691271Y-34579581D01*
X178929367Y-34579581D01*
X179024605Y-34627200D01*
X179072224Y-34674819D01*
X179119843Y-34770057D01*
X179119843Y-34865295D01*
X179072224Y-35008152D01*
X178500795Y-35579581D01*
X179119843Y-35579581D01*
X162762481Y-103402305D02*
X163572005Y-103402305D01*
X163667243Y-103354686D01*
X163714862Y-103307067D01*
X163762481Y-103211829D01*
X163762481Y-103021352D01*
X163714862Y-102926114D01*
X163667243Y-102878495D01*
X163572005Y-102830876D01*
X162762481Y-102830876D01*
X163762481Y-101830876D02*
X163762481Y-102402305D01*
X163762481Y-102116591D02*
X162762481Y-102116591D01*
X162905338Y-102211829D01*
X163000576Y-102307067D01*
X163048195Y-102402305D01*
X152567381Y-106035667D02*
X153567381Y-105369000D01*
X152567381Y-105369000D02*
X153567381Y-106035667D01*
X153567381Y-104416619D02*
X153091190Y-104749953D01*
X153567381Y-104988048D02*
X152567381Y-104988048D01*
X152567381Y-104607095D01*
X152615000Y-104511857D01*
X152662619Y-104464238D01*
X152757857Y-104416619D01*
X152900714Y-104416619D01*
X152995952Y-104464238D01*
X153043571Y-104511857D01*
X153091190Y-104607095D01*
X153091190Y-104988048D01*
X153281667Y-104035667D02*
X153281667Y-103559476D01*
X153567381Y-104130905D02*
X152567381Y-103797572D01*
X153567381Y-103464238D01*
X153567381Y-102607095D02*
X153567381Y-103178524D01*
X153567381Y-102892810D02*
X152567381Y-102892810D01*
X152710238Y-102988048D01*
X152805476Y-103083286D01*
X152853095Y-103178524D01*
X152900714Y-101749952D02*
X153567381Y-101749952D01*
X152519762Y-101988048D02*
X153234048Y-102226143D01*
X153234048Y-101607095D01*
X152567381Y-101035667D02*
X152567381Y-100940428D01*
X152615000Y-100845190D01*
X152662619Y-100797571D01*
X152757857Y-100749952D01*
X152948333Y-100702333D01*
X153186429Y-100702333D01*
X153376905Y-100749952D01*
X153472143Y-100797571D01*
X153519762Y-100845190D01*
X153567381Y-100940428D01*
X153567381Y-101035667D01*
X153519762Y-101130905D01*
X153472143Y-101178524D01*
X153376905Y-101226143D01*
X153186429Y-101273762D01*
X152948333Y-101273762D01*
X152757857Y-101226143D01*
X152662619Y-101178524D01*
X152615000Y-101130905D01*
X152567381Y-101035667D01*
X152567381Y-99797571D02*
X152567381Y-100273762D01*
X153043571Y-100321381D01*
X152995952Y-100273762D01*
X152948333Y-100178524D01*
X152948333Y-99940428D01*
X152995952Y-99845190D01*
X153043571Y-99797571D01*
X153138810Y-99749952D01*
X153376905Y-99749952D01*
X153472143Y-99797571D01*
X153519762Y-99845190D01*
X153567381Y-99940428D01*
X153567381Y-100178524D01*
X153519762Y-100273762D01*
X153472143Y-100321381D01*
X146277905Y-31388581D02*
X146277905Y-30388581D01*
X146658858Y-30388581D01*
X146754096Y-30436200D01*
X146801715Y-30483819D01*
X146849334Y-30579057D01*
X146849334Y-30721914D01*
X146801715Y-30817152D01*
X146754096Y-30864771D01*
X146658858Y-30912390D01*
X146277905Y-30912390D01*
X147230286Y-30483819D02*
X147277905Y-30436200D01*
X147373143Y-30388581D01*
X147611239Y-30388581D01*
X147706477Y-30436200D01*
X147754096Y-30483819D01*
X147801715Y-30579057D01*
X147801715Y-30674295D01*
X147754096Y-30817152D01*
X147182667Y-31388581D01*
X147801715Y-31388581D01*
X165134081Y-81369395D02*
X164134081Y-81369395D01*
X164134081Y-80988442D01*
X164181700Y-80893204D01*
X164229319Y-80845585D01*
X164324557Y-80797966D01*
X164467414Y-80797966D01*
X164562652Y-80845585D01*
X164610271Y-80893204D01*
X164657890Y-80988442D01*
X164657890Y-81369395D01*
X164134081Y-80464633D02*
X164134081Y-79845585D01*
X164515033Y-80178919D01*
X164515033Y-80036061D01*
X164562652Y-79940823D01*
X164610271Y-79893204D01*
X164705510Y-79845585D01*
X164943605Y-79845585D01*
X165038843Y-79893204D01*
X165086462Y-79940823D01*
X165134081Y-80036061D01*
X165134081Y-80321776D01*
X165086462Y-80417014D01*
X165038843Y-80464633D01*
X146290605Y-122180881D02*
X146290605Y-121180881D01*
X146671558Y-121180881D01*
X146766796Y-121228500D01*
X146814415Y-121276119D01*
X146862034Y-121371357D01*
X146862034Y-121514214D01*
X146814415Y-121609452D01*
X146766796Y-121657071D01*
X146671558Y-121704690D01*
X146290605Y-121704690D01*
X147814415Y-122180881D02*
X147242986Y-122180881D01*
X147528700Y-122180881D02*
X147528700Y-121180881D01*
X147433462Y-121323738D01*
X147338224Y-121418976D01*
X147242986Y-121466595D01*
D15*
X168921134Y-104681100D02*
X168887800Y-104714433D01*
X168787800Y-104747767D01*
X168721134Y-104747767D01*
X168621134Y-104714433D01*
X168554467Y-104647767D01*
X168521134Y-104581100D01*
X168487800Y-104447767D01*
X168487800Y-104347767D01*
X168521134Y-104214433D01*
X168554467Y-104147767D01*
X168621134Y-104081100D01*
X168721134Y-104047767D01*
X168787800Y-104047767D01*
X168887800Y-104081100D01*
X168921134Y-104114433D01*
X169587800Y-104747767D02*
X169187800Y-104747767D01*
X169387800Y-104747767D02*
X169387800Y-104047767D01*
X169321134Y-104147767D01*
X169254467Y-104214433D01*
X169187800Y-104247767D01*
X168402100Y-105878067D02*
X168002100Y-105878067D01*
X168202100Y-105878067D02*
X168202100Y-105178067D01*
X168135434Y-105278067D01*
X168068767Y-105344733D01*
X168002100Y-105378067D01*
X168835434Y-105178067D02*
X168902101Y-105178067D01*
X168968767Y-105211400D01*
X169002101Y-105244733D01*
X169035434Y-105311400D01*
X169068767Y-105444733D01*
X169068767Y-105611400D01*
X169035434Y-105744733D01*
X169002101Y-105811400D01*
X168968767Y-105844733D01*
X168902101Y-105878067D01*
X168835434Y-105878067D01*
X168768767Y-105844733D01*
X168735434Y-105811400D01*
X168702101Y-105744733D01*
X168668767Y-105611400D01*
X168668767Y-105444733D01*
X168702101Y-105311400D01*
X168735434Y-105244733D01*
X168768767Y-105211400D01*
X168835434Y-105178067D01*
X169668768Y-105411400D02*
X169668768Y-105878067D01*
X169368768Y-105411400D02*
X169368768Y-105778067D01*
X169402101Y-105844733D01*
X169468768Y-105878067D01*
X169568768Y-105878067D01*
X169635434Y-105844733D01*
X169668768Y-105811400D01*
X170235434Y-105511400D02*
X170002101Y-105511400D01*
X170002101Y-105878067D02*
X170002101Y-105178067D01*
X170335434Y-105178067D01*
X169035434Y-107259200D02*
X169002100Y-107292533D01*
X168902100Y-107325867D01*
X168835434Y-107325867D01*
X168735434Y-107292533D01*
X168668767Y-107225867D01*
X168635434Y-107159200D01*
X168602100Y-107025867D01*
X168602100Y-106925867D01*
X168635434Y-106792533D01*
X168668767Y-106725867D01*
X168735434Y-106659200D01*
X168835434Y-106625867D01*
X168902100Y-106625867D01*
X169002100Y-106659200D01*
X169035434Y-106692533D01*
X169302100Y-106692533D02*
X169335434Y-106659200D01*
X169402100Y-106625867D01*
X169568767Y-106625867D01*
X169635434Y-106659200D01*
X169668767Y-106692533D01*
X169702100Y-106759200D01*
X169702100Y-106825867D01*
X169668767Y-106925867D01*
X169268767Y-107325867D01*
X169702100Y-107325867D01*
X168183066Y-108341867D02*
X167783066Y-108341867D01*
X167983066Y-108341867D02*
X167983066Y-107641867D01*
X167916400Y-107741867D01*
X167849733Y-107808533D01*
X167783066Y-107841867D01*
X168616400Y-107641867D02*
X168683067Y-107641867D01*
X168749733Y-107675200D01*
X168783067Y-107708533D01*
X168816400Y-107775200D01*
X168849733Y-107908533D01*
X168849733Y-108075200D01*
X168816400Y-108208533D01*
X168783067Y-108275200D01*
X168749733Y-108308533D01*
X168683067Y-108341867D01*
X168616400Y-108341867D01*
X168549733Y-108308533D01*
X168516400Y-108275200D01*
X168483067Y-108208533D01*
X168449733Y-108075200D01*
X168449733Y-107908533D01*
X168483067Y-107775200D01*
X168516400Y-107708533D01*
X168549733Y-107675200D01*
X168616400Y-107641867D01*
X169283067Y-107641867D02*
X169349734Y-107641867D01*
X169416400Y-107675200D01*
X169449734Y-107708533D01*
X169483067Y-107775200D01*
X169516400Y-107908533D01*
X169516400Y-108075200D01*
X169483067Y-108208533D01*
X169449734Y-108275200D01*
X169416400Y-108308533D01*
X169349734Y-108341867D01*
X169283067Y-108341867D01*
X169216400Y-108308533D01*
X169183067Y-108275200D01*
X169149734Y-108208533D01*
X169116400Y-108075200D01*
X169116400Y-107908533D01*
X169149734Y-107775200D01*
X169183067Y-107708533D01*
X169216400Y-107675200D01*
X169283067Y-107641867D01*
X169816401Y-107875200D02*
X169816401Y-108341867D01*
X169816401Y-107941867D02*
X169849734Y-107908533D01*
X169916401Y-107875200D01*
X170016401Y-107875200D01*
X170083067Y-107908533D01*
X170116401Y-107975200D01*
X170116401Y-108341867D01*
X170683067Y-107975200D02*
X170449734Y-107975200D01*
X170449734Y-108341867D02*
X170449734Y-107641867D01*
X170783067Y-107641867D01*
X171359534Y-54224000D02*
X171326200Y-54257333D01*
X171226200Y-54290667D01*
X171159534Y-54290667D01*
X171059534Y-54257333D01*
X170992867Y-54190667D01*
X170959534Y-54124000D01*
X170926200Y-53990667D01*
X170926200Y-53890667D01*
X170959534Y-53757333D01*
X170992867Y-53690667D01*
X171059534Y-53624000D01*
X171159534Y-53590667D01*
X171226200Y-53590667D01*
X171326200Y-53624000D01*
X171359534Y-53657333D01*
X171592867Y-53590667D02*
X172026200Y-53590667D01*
X171792867Y-53857333D01*
X171892867Y-53857333D01*
X171959534Y-53890667D01*
X171992867Y-53924000D01*
X172026200Y-53990667D01*
X172026200Y-54157333D01*
X171992867Y-54224000D01*
X171959534Y-54257333D01*
X171892867Y-54290667D01*
X171692867Y-54290667D01*
X171626200Y-54257333D01*
X171592867Y-54224000D01*
X170827800Y-55408267D02*
X170427800Y-55408267D01*
X170627800Y-55408267D02*
X170627800Y-54708267D01*
X170561134Y-54808267D01*
X170494467Y-54874933D01*
X170427800Y-54908267D01*
X171261134Y-54708267D02*
X171327801Y-54708267D01*
X171394467Y-54741600D01*
X171427801Y-54774933D01*
X171461134Y-54841600D01*
X171494467Y-54974933D01*
X171494467Y-55141600D01*
X171461134Y-55274933D01*
X171427801Y-55341600D01*
X171394467Y-55374933D01*
X171327801Y-55408267D01*
X171261134Y-55408267D01*
X171194467Y-55374933D01*
X171161134Y-55341600D01*
X171127801Y-55274933D01*
X171094467Y-55141600D01*
X171094467Y-54974933D01*
X171127801Y-54841600D01*
X171161134Y-54774933D01*
X171194467Y-54741600D01*
X171261134Y-54708267D01*
X172094468Y-54941600D02*
X172094468Y-55408267D01*
X171794468Y-54941600D02*
X171794468Y-55308267D01*
X171827801Y-55374933D01*
X171894468Y-55408267D01*
X171994468Y-55408267D01*
X172061134Y-55374933D01*
X172094468Y-55341600D01*
X172661134Y-55041600D02*
X172427801Y-55041600D01*
X172427801Y-55408267D02*
X172427801Y-54708267D01*
X172761134Y-54708267D01*
X171270634Y-56560800D02*
X171237300Y-56594133D01*
X171137300Y-56627467D01*
X171070634Y-56627467D01*
X170970634Y-56594133D01*
X170903967Y-56527467D01*
X170870634Y-56460800D01*
X170837300Y-56327467D01*
X170837300Y-56227467D01*
X170870634Y-56094133D01*
X170903967Y-56027467D01*
X170970634Y-55960800D01*
X171070634Y-55927467D01*
X171137300Y-55927467D01*
X171237300Y-55960800D01*
X171270634Y-55994133D01*
X171870634Y-56160800D02*
X171870634Y-56627467D01*
X171703967Y-55894133D02*
X171537300Y-56394133D01*
X171970634Y-56394133D01*
X170494466Y-57706967D02*
X170094466Y-57706967D01*
X170294466Y-57706967D02*
X170294466Y-57006967D01*
X170227800Y-57106967D01*
X170161133Y-57173633D01*
X170094466Y-57206967D01*
X170927800Y-57006967D02*
X170994467Y-57006967D01*
X171061133Y-57040300D01*
X171094467Y-57073633D01*
X171127800Y-57140300D01*
X171161133Y-57273633D01*
X171161133Y-57440300D01*
X171127800Y-57573633D01*
X171094467Y-57640300D01*
X171061133Y-57673633D01*
X170994467Y-57706967D01*
X170927800Y-57706967D01*
X170861133Y-57673633D01*
X170827800Y-57640300D01*
X170794467Y-57573633D01*
X170761133Y-57440300D01*
X170761133Y-57273633D01*
X170794467Y-57140300D01*
X170827800Y-57073633D01*
X170861133Y-57040300D01*
X170927800Y-57006967D01*
X171594467Y-57006967D02*
X171661134Y-57006967D01*
X171727800Y-57040300D01*
X171761134Y-57073633D01*
X171794467Y-57140300D01*
X171827800Y-57273633D01*
X171827800Y-57440300D01*
X171794467Y-57573633D01*
X171761134Y-57640300D01*
X171727800Y-57673633D01*
X171661134Y-57706967D01*
X171594467Y-57706967D01*
X171527800Y-57673633D01*
X171494467Y-57640300D01*
X171461134Y-57573633D01*
X171427800Y-57440300D01*
X171427800Y-57273633D01*
X171461134Y-57140300D01*
X171494467Y-57073633D01*
X171527800Y-57040300D01*
X171594467Y-57006967D01*
X172127801Y-57240300D02*
X172127801Y-57706967D01*
X172127801Y-57306967D02*
X172161134Y-57273633D01*
X172227801Y-57240300D01*
X172327801Y-57240300D01*
X172394467Y-57273633D01*
X172427801Y-57340300D01*
X172427801Y-57706967D01*
X172994467Y-57340300D02*
X172761134Y-57340300D01*
X172761134Y-57706967D02*
X172761134Y-57006967D01*
X173094467Y-57006967D01*
M02*
