G04 #@! TF.FileFunction,Soldermask,Top*
%FSLAX46Y46*%
G04 Gerber Fmt 4.6, Leading zero omitted, Abs format (unit mm)*
G04 Created by KiCad (PCBNEW 4.0.5+dfsg1-4) date Mon Feb 26 17:29:33 2018*
%MOMM*%
%LPD*%
G01*
G04 APERTURE LIST*
%ADD10C,0.150000*%
%ADD11R,0.908000X1.608000*%
%ADD12R,2.540000X2.235200*%
%ADD13O,2.540000X2.235200*%
%ADD14R,2.743200X2.743200*%
%ADD15C,6.008000*%
%ADD16C,3.508000*%
%ADD17R,2.235200X2.235200*%
%ADD18O,2.235200X2.235200*%
%ADD19R,2.008000X1.758000*%
G04 APERTURE END LIST*
D10*
D11*
X161640000Y-51187500D03*
X160990000Y-51187500D03*
X160340000Y-51187500D03*
X159690000Y-51187500D03*
X159040000Y-51187500D03*
X158390000Y-51187500D03*
X157740000Y-51187500D03*
X157090000Y-51187500D03*
X156440000Y-51187500D03*
X155790000Y-51187500D03*
X155140000Y-51187500D03*
X154490000Y-51187500D03*
X154490000Y-56887500D03*
X155140000Y-56887500D03*
X155790000Y-56887500D03*
X156440000Y-56887500D03*
X157090000Y-56887500D03*
X157740000Y-56887500D03*
X158390000Y-56887500D03*
X159040000Y-56887500D03*
X159690000Y-56887500D03*
X160340000Y-56887500D03*
X160990000Y-56887500D03*
X161640000Y-56887500D03*
D12*
X48360000Y-50290000D03*
D13*
X48360000Y-52830000D03*
X48360000Y-55370000D03*
D14*
X171082500Y-43369500D03*
X172250900Y-112203500D03*
D15*
X166946900Y-120828000D03*
X39096000Y-32170000D03*
X166946900Y-32512000D03*
D16*
X177766000Y-121170000D03*
X177766000Y-32170000D03*
D11*
X161640000Y-100019000D03*
X160990000Y-100019000D03*
X160340000Y-100019000D03*
X159690000Y-100019000D03*
X159040000Y-100019000D03*
X158390000Y-100019000D03*
X157740000Y-100019000D03*
X157090000Y-100019000D03*
X156440000Y-100019000D03*
X155790000Y-100019000D03*
X155140000Y-100019000D03*
X154490000Y-100019000D03*
X154490000Y-105719000D03*
X155140000Y-105719000D03*
X155790000Y-105719000D03*
X156440000Y-105719000D03*
X157090000Y-105719000D03*
X157740000Y-105719000D03*
X158390000Y-105719000D03*
X159040000Y-105719000D03*
X159690000Y-105719000D03*
X160340000Y-105719000D03*
X160990000Y-105719000D03*
X161640000Y-105719000D03*
D17*
X148286000Y-60841000D03*
D18*
X145746000Y-60841000D03*
X148286000Y-58301000D03*
X145746000Y-58301000D03*
X148286000Y-55761000D03*
X145746000Y-55761000D03*
X148286000Y-53221000D03*
X145746000Y-53221000D03*
X148286000Y-50681000D03*
X145746000Y-50681000D03*
X148286000Y-48141000D03*
X145746000Y-48141000D03*
X148286000Y-45601000D03*
X145746000Y-45601000D03*
X148286000Y-43061000D03*
X145746000Y-43061000D03*
X148286000Y-40521000D03*
X145746000Y-40521000D03*
X148286000Y-37981000D03*
X145746000Y-37981000D03*
D17*
X159639000Y-91897200D03*
D18*
X157099000Y-91897200D03*
X159639000Y-89357200D03*
X157099000Y-89357200D03*
X159639000Y-86817200D03*
X157099000Y-86817200D03*
X159639000Y-84277200D03*
X157099000Y-84277200D03*
X159639000Y-81737200D03*
X157099000Y-81737200D03*
X159639000Y-79197200D03*
X157099000Y-79197200D03*
X159639000Y-76657200D03*
X157099000Y-76657200D03*
X159639000Y-74117200D03*
X157099000Y-74117200D03*
X159639000Y-71577200D03*
X157099000Y-71577200D03*
X159639000Y-69037200D03*
X157099000Y-69037200D03*
X159639000Y-66497200D03*
X157099000Y-66497200D03*
X159639000Y-63957200D03*
X157099000Y-63957200D03*
X159639000Y-61417200D03*
X157099000Y-61417200D03*
D17*
X148286000Y-114807000D03*
D18*
X145746000Y-114807000D03*
X148286000Y-112267000D03*
X145746000Y-112267000D03*
X148286000Y-109727000D03*
X145746000Y-109727000D03*
X148286000Y-107187000D03*
X145746000Y-107187000D03*
X148286000Y-104647000D03*
X145746000Y-104647000D03*
X148286000Y-102107000D03*
X145746000Y-102107000D03*
X148286000Y-99567000D03*
X145746000Y-99567000D03*
X148286000Y-97027000D03*
X145746000Y-97027000D03*
X148286000Y-94487000D03*
X145746000Y-94487000D03*
X148286000Y-91947000D03*
X145746000Y-91947000D03*
X148286000Y-89407000D03*
X145746000Y-89407000D03*
X148286000Y-86867000D03*
X145746000Y-86867000D03*
X148286000Y-84327000D03*
X145746000Y-84327000D03*
D19*
X163787300Y-105116900D03*
X166287300Y-105116900D03*
X163787300Y-107415600D03*
X166287300Y-107415600D03*
X166149500Y-54507400D03*
X168649500Y-54507400D03*
X166149500Y-56717200D03*
X168649500Y-56717200D03*
M02*
