M48
;DRILL file {KiCad 4.0.5+dfsg1-4} date Mon Feb 26 17:29:38 2018
;FORMAT={-:-/ absolute / metric / decimal}
FMAT,2
METRIC,TZ
T1C0.635
T2C1.016
T3C3.000
%
G90
G05
M71
T1
X133.846Y-33.527
X139.739Y-60.832
X153.036Y-107.187
X153.29Y-98.513
X154.026Y-48.957
X160.63Y-48.221
X161.519Y-48.919
X162.523Y-49.504
X163.793Y-99.376
X166.155Y-52.145
X166.282Y-102.844
X168.644Y-52.145
T2
X48.36Y-50.29
X48.36Y-52.83
X48.36Y-55.37
X145.746Y-37.981
X145.746Y-40.521
X145.746Y-43.061
X145.746Y-45.601
X145.746Y-48.141
X145.746Y-50.681
X145.746Y-53.221
X145.746Y-55.761
X145.746Y-58.301
X145.746Y-60.841
X145.746Y-84.327
X145.746Y-86.867
X145.746Y-89.407
X145.746Y-91.947
X145.746Y-94.487
X145.746Y-97.027
X145.746Y-99.567
X145.746Y-102.107
X145.746Y-104.647
X145.746Y-107.187
X145.746Y-109.727
X145.746Y-112.267
X145.746Y-114.807
X148.286Y-37.981
X148.286Y-40.521
X148.286Y-43.061
X148.286Y-45.601
X148.286Y-48.141
X148.286Y-50.681
X148.286Y-53.221
X148.286Y-55.761
X148.286Y-58.301
X148.286Y-60.841
X148.286Y-84.327
X148.286Y-86.867
X148.286Y-89.407
X148.286Y-91.947
X148.286Y-94.487
X148.286Y-97.027
X148.286Y-99.567
X148.286Y-102.107
X148.286Y-104.647
X148.286Y-107.187
X148.286Y-109.727
X148.286Y-112.267
X148.286Y-114.807
X157.099Y-61.417
X157.099Y-63.957
X157.099Y-66.497
X157.099Y-69.037
X157.099Y-71.577
X157.099Y-74.117
X157.099Y-76.657
X157.099Y-79.197
X157.099Y-81.737
X157.099Y-84.277
X157.099Y-86.817
X157.099Y-89.357
X157.099Y-91.897
X159.639Y-61.417
X159.639Y-63.957
X159.639Y-66.497
X159.639Y-69.037
X159.639Y-71.577
X159.639Y-74.117
X159.639Y-76.657
X159.639Y-79.197
X159.639Y-81.737
X159.639Y-84.277
X159.639Y-86.817
X159.639Y-89.357
X159.639Y-91.897
X171.082Y-43.369
X172.251Y-112.203
T3
X39.096Y-32.17
X166.947Y-32.512
X166.947Y-120.828
X177.766Y-32.17
X177.766Y-121.17
T0
M30
