M48
;DRILL file {KiCad 4.0.5+dfsg1-4} date Tue Feb 27 09:26:53 2018
;FORMAT={-:-/ absolute / metric / decimal}
FMAT,2
METRIC,TZ
T1C0.635
T2C1.016
T3C3.000
%
G90
G05
M71
T1
X-1.714Y-101.193
X0.648Y-50.494
X0.775Y-101.193
X3.138Y-53.961
X4.408Y-103.834
X5.411Y-104.418
X6.3Y-105.117
X12.904Y-104.38
X13.641Y-54.825
X13.895Y-46.151
X27.191Y-92.506
X33.084Y-119.811
X133.846Y-33.527
X139.739Y-60.832
X153.036Y-107.187
X153.29Y-98.513
X154.026Y-48.957
X160.63Y-48.221
X161.519Y-48.919
X162.523Y-49.504
X163.793Y-99.376
X166.155Y-52.145
X166.282Y-102.844
X168.644Y-52.145
T2
X-5.321Y-41.134
X-4.152Y-109.968
X7.291Y-61.441
X7.291Y-63.981
X7.291Y-66.521
X7.291Y-69.061
X7.291Y-71.601
X7.291Y-74.141
X7.291Y-76.681
X7.291Y-79.221
X7.291Y-81.761
X7.291Y-84.301
X7.291Y-86.841
X7.291Y-89.381
X7.291Y-91.921
X9.831Y-61.441
X9.831Y-63.981
X9.831Y-66.521
X9.831Y-69.061
X9.831Y-71.601
X9.831Y-74.141
X9.831Y-76.681
X9.831Y-79.221
X9.831Y-81.761
X9.831Y-84.301
X9.831Y-86.841
X9.831Y-89.381
X9.831Y-91.921
X18.644Y-38.531
X18.644Y-41.071
X18.644Y-43.611
X18.644Y-46.151
X18.644Y-48.691
X18.644Y-51.231
X18.644Y-53.771
X18.644Y-56.311
X18.644Y-58.851
X18.644Y-61.391
X18.644Y-63.931
X18.644Y-66.471
X18.644Y-69.011
X18.644Y-92.497
X18.644Y-95.037
X18.644Y-97.577
X18.644Y-100.117
X18.644Y-102.657
X18.644Y-105.197
X18.644Y-107.737
X18.644Y-110.277
X18.644Y-112.817
X18.644Y-115.357
X21.184Y-38.531
X21.184Y-41.071
X21.184Y-43.611
X21.184Y-46.151
X21.184Y-48.691
X21.184Y-51.231
X21.184Y-53.771
X21.184Y-56.311
X21.184Y-58.851
X21.184Y-61.391
X21.184Y-63.931
X21.184Y-66.471
X21.184Y-69.011
X21.184Y-92.497
X21.184Y-95.037
X21.184Y-97.577
X21.184Y-100.117
X21.184Y-102.657
X21.184Y-105.197
X21.184Y-107.737
X21.184Y-110.277
X21.184Y-112.817
X21.184Y-115.357
X48.36Y-50.29
X48.36Y-52.83
X48.36Y-55.37
X118.57Y-97.968
X118.57Y-100.508
X118.57Y-103.048
X145.746Y-37.981
X145.746Y-40.521
X145.746Y-43.061
X145.746Y-45.601
X145.746Y-48.141
X145.746Y-50.681
X145.746Y-53.221
X145.746Y-55.761
X145.746Y-58.301
X145.746Y-60.841
X145.746Y-84.327
X145.746Y-86.867
X145.746Y-89.407
X145.746Y-91.947
X145.746Y-94.487
X145.746Y-97.027
X145.746Y-99.567
X145.746Y-102.107
X145.746Y-104.647
X145.746Y-107.187
X145.746Y-109.727
X145.746Y-112.267
X145.746Y-114.807
X148.286Y-37.981
X148.286Y-40.521
X148.286Y-43.061
X148.286Y-45.601
X148.286Y-48.141
X148.286Y-50.681
X148.286Y-53.221
X148.286Y-55.761
X148.286Y-58.301
X148.286Y-60.841
X148.286Y-84.327
X148.286Y-86.867
X148.286Y-89.407
X148.286Y-91.947
X148.286Y-94.487
X148.286Y-97.027
X148.286Y-99.567
X148.286Y-102.107
X148.286Y-104.647
X148.286Y-107.187
X148.286Y-109.727
X148.286Y-112.267
X148.286Y-114.807
X157.099Y-61.417
X157.099Y-63.957
X157.099Y-66.497
X157.099Y-69.037
X157.099Y-71.577
X157.099Y-74.117
X157.099Y-76.657
X157.099Y-79.197
X157.099Y-81.737
X157.099Y-84.277
X157.099Y-86.817
X157.099Y-89.357
X157.099Y-91.897
X159.639Y-61.417
X159.639Y-63.957
X159.639Y-66.497
X159.639Y-69.037
X159.639Y-71.577
X159.639Y-74.117
X159.639Y-76.657
X159.639Y-79.197
X159.639Y-81.737
X159.639Y-84.277
X159.639Y-86.817
X159.639Y-89.357
X159.639Y-91.897
X171.082Y-43.369
X172.251Y-112.203
T3
X-10.836Y-32.168
X-10.836Y-121.168
X-0.017Y-32.51
X-0.017Y-120.826
X39.096Y-32.17
X127.834Y-121.168
X166.947Y-32.512
X166.947Y-120.828
X177.766Y-32.17
X177.766Y-121.17
T0
M30
