G04 #@! TF.FileFunction,Legend,Top*
%FSLAX46Y46*%
G04 Gerber Fmt 4.6, Leading zero omitted, Abs format (unit mm)*
G04 Created by KiCad (PCBNEW 4.0.5+dfsg1-4) date Tue Feb 27 09:26:50 2018*
%MOMM*%
%LPD*%
G01*
G04 APERTURE LIST*
%ADD10C,0.150000*%
%ADD11C,0.100000*%
%ADD12C,0.200000*%
%ADD13C,0.300000*%
%ADD14C,0.304800*%
%ADD15C,0.010000*%
G04 APERTURE END LIST*
D10*
D11*
X-3861840Y-97863493D02*
X-3461840Y-97863493D01*
X-3661840Y-97863493D02*
X-3661840Y-98563493D01*
X-3595174Y-98463493D01*
X-3528507Y-98396827D01*
X-3461840Y-98363493D01*
X-4295174Y-98563493D02*
X-4361841Y-98563493D01*
X-4428507Y-98530160D01*
X-4461841Y-98496827D01*
X-4495174Y-98430160D01*
X-4528507Y-98296827D01*
X-4528507Y-98130160D01*
X-4495174Y-97996827D01*
X-4461841Y-97930160D01*
X-4428507Y-97896827D01*
X-4361841Y-97863493D01*
X-4295174Y-97863493D01*
X-4228507Y-97896827D01*
X-4195174Y-97930160D01*
X-4161841Y-97996827D01*
X-4128507Y-98130160D01*
X-4128507Y-98296827D01*
X-4161841Y-98430160D01*
X-4195174Y-98496827D01*
X-4228507Y-98530160D01*
X-4295174Y-98563493D01*
X-5128508Y-98330160D02*
X-5128508Y-97863493D01*
X-4828508Y-98330160D02*
X-4828508Y-97963493D01*
X-4861841Y-97896827D01*
X-4928508Y-97863493D01*
X-5028508Y-97863493D01*
X-5095174Y-97896827D01*
X-5128508Y-97930160D01*
X-5695174Y-98230160D02*
X-5461841Y-98230160D01*
X-5461841Y-97863493D02*
X-5461841Y-98563493D01*
X-5795174Y-98563493D01*
X-3533586Y-95567333D02*
X-3133586Y-95567333D01*
X-3333586Y-95567333D02*
X-3333586Y-96267333D01*
X-3266920Y-96167333D01*
X-3200253Y-96100667D01*
X-3133586Y-96067333D01*
X-3966920Y-96267333D02*
X-4033587Y-96267333D01*
X-4100253Y-96234000D01*
X-4133587Y-96200667D01*
X-4166920Y-96134000D01*
X-4200253Y-96000667D01*
X-4200253Y-95834000D01*
X-4166920Y-95700667D01*
X-4133587Y-95634000D01*
X-4100253Y-95600667D01*
X-4033587Y-95567333D01*
X-3966920Y-95567333D01*
X-3900253Y-95600667D01*
X-3866920Y-95634000D01*
X-3833587Y-95700667D01*
X-3800253Y-95834000D01*
X-3800253Y-96000667D01*
X-3833587Y-96134000D01*
X-3866920Y-96200667D01*
X-3900253Y-96234000D01*
X-3966920Y-96267333D01*
X-4633587Y-96267333D02*
X-4700254Y-96267333D01*
X-4766920Y-96234000D01*
X-4800254Y-96200667D01*
X-4833587Y-96134000D01*
X-4866920Y-96000667D01*
X-4866920Y-95834000D01*
X-4833587Y-95700667D01*
X-4800254Y-95634000D01*
X-4766920Y-95600667D01*
X-4700254Y-95567333D01*
X-4633587Y-95567333D01*
X-4566920Y-95600667D01*
X-4533587Y-95634000D01*
X-4500254Y-95700667D01*
X-4466920Y-95834000D01*
X-4466920Y-96000667D01*
X-4500254Y-96134000D01*
X-4533587Y-96200667D01*
X-4566920Y-96234000D01*
X-4633587Y-96267333D01*
X-5166921Y-96034000D02*
X-5166921Y-95567333D01*
X-5166921Y-95967333D02*
X-5200254Y-96000667D01*
X-5266921Y-96034000D01*
X-5366921Y-96034000D01*
X-5433587Y-96000667D01*
X-5466921Y-95934000D01*
X-5466921Y-95567333D01*
X-6033587Y-95934000D02*
X-5800254Y-95934000D01*
X-5800254Y-95567333D02*
X-5800254Y-96267333D01*
X-6133587Y-96267333D01*
X-4411354Y-99063000D02*
X-4378020Y-99029667D01*
X-4278020Y-98996333D01*
X-4211354Y-98996333D01*
X-4111354Y-99029667D01*
X-4044687Y-99096333D01*
X-4011354Y-99163000D01*
X-3978020Y-99296333D01*
X-3978020Y-99396333D01*
X-4011354Y-99529667D01*
X-4044687Y-99596333D01*
X-4111354Y-99663000D01*
X-4211354Y-99696333D01*
X-4278020Y-99696333D01*
X-4378020Y-99663000D01*
X-4411354Y-99629667D01*
X-4644687Y-99696333D02*
X-5078020Y-99696333D01*
X-4844687Y-99429667D01*
X-4944687Y-99429667D01*
X-5011354Y-99396333D01*
X-5044687Y-99363000D01*
X-5078020Y-99296333D01*
X-5078020Y-99129667D01*
X-5044687Y-99063000D01*
X-5011354Y-99029667D01*
X-4944687Y-98996333D01*
X-4744687Y-98996333D01*
X-4678020Y-99029667D01*
X-4644687Y-99063000D01*
X-4307214Y-96710960D02*
X-4273880Y-96677627D01*
X-4173880Y-96644293D01*
X-4107214Y-96644293D01*
X-4007214Y-96677627D01*
X-3940547Y-96744293D01*
X-3907214Y-96810960D01*
X-3873880Y-96944293D01*
X-3873880Y-97044293D01*
X-3907214Y-97177627D01*
X-3940547Y-97244293D01*
X-4007214Y-97310960D01*
X-4107214Y-97344293D01*
X-4173880Y-97344293D01*
X-4273880Y-97310960D01*
X-4307214Y-97277627D01*
X-4907214Y-97110960D02*
X-4907214Y-96644293D01*
X-4740547Y-97377627D02*
X-4573880Y-96877627D01*
X-5007214Y-96877627D01*
X-2056774Y-46010020D02*
X-2023440Y-45976687D01*
X-1923440Y-45943353D01*
X-1856774Y-45943353D01*
X-1756774Y-45976687D01*
X-1690107Y-46043353D01*
X-1656774Y-46110020D01*
X-1623440Y-46243353D01*
X-1623440Y-46343353D01*
X-1656774Y-46476687D01*
X-1690107Y-46543353D01*
X-1756774Y-46610020D01*
X-1856774Y-46643353D01*
X-1923440Y-46643353D01*
X-2023440Y-46610020D01*
X-2056774Y-46576687D01*
X-2323440Y-46576687D02*
X-2356774Y-46610020D01*
X-2423440Y-46643353D01*
X-2590107Y-46643353D01*
X-2656774Y-46610020D01*
X-2690107Y-46576687D01*
X-2723440Y-46510020D01*
X-2723440Y-46443353D01*
X-2690107Y-46343353D01*
X-2290107Y-45943353D01*
X-2723440Y-45943353D01*
X-2026294Y-48659240D02*
X-1992960Y-48625907D01*
X-1892960Y-48592573D01*
X-1826294Y-48592573D01*
X-1726294Y-48625907D01*
X-1659627Y-48692573D01*
X-1626294Y-48759240D01*
X-1592960Y-48892573D01*
X-1592960Y-48992573D01*
X-1626294Y-49125907D01*
X-1659627Y-49192573D01*
X-1726294Y-49259240D01*
X-1826294Y-49292573D01*
X-1892960Y-49292573D01*
X-1992960Y-49259240D01*
X-2026294Y-49225907D01*
X-2692960Y-48592573D02*
X-2292960Y-48592573D01*
X-2492960Y-48592573D02*
X-2492960Y-49292573D01*
X-2426294Y-49192573D01*
X-2359627Y-49125907D01*
X-2292960Y-49092573D01*
D10*
X1390013Y-35794959D02*
X1390013Y-36794959D01*
X1056679Y-36080673D01*
X723346Y-36794959D01*
X723346Y-35794959D01*
X247156Y-35794959D02*
X247156Y-36794959D01*
X247156Y-36318769D02*
X-324273Y-36318769D01*
X-324273Y-35794959D02*
X-324273Y-36794959D01*
X-1324273Y-35794959D02*
X-752844Y-35794959D01*
X-1038558Y-35794959D02*
X-1038558Y-36794959D01*
X-943320Y-36652102D01*
X-848082Y-36556864D01*
X-752844Y-36509245D01*
X1349373Y-116246919D02*
X1349373Y-117246919D01*
X1016039Y-116532633D01*
X682706Y-117246919D01*
X682706Y-116246919D01*
X206516Y-116246919D02*
X206516Y-117246919D01*
X206516Y-116770729D02*
X-364913Y-116770729D01*
X-364913Y-116246919D02*
X-364913Y-117246919D01*
X-1269675Y-116913586D02*
X-1269675Y-116246919D01*
X-1031579Y-117294538D02*
X-793484Y-116580252D01*
X-1412532Y-116580252D01*
X20698215Y-121852699D02*
X20698215Y-122852699D01*
X20317262Y-122852699D01*
X20222024Y-122805080D01*
X20174405Y-122757461D01*
X20126786Y-122662223D01*
X20126786Y-122519366D01*
X20174405Y-122424128D01*
X20222024Y-122376509D01*
X20317262Y-122328890D01*
X20698215Y-122328890D01*
X19745834Y-122757461D02*
X19698215Y-122805080D01*
X19602977Y-122852699D01*
X19364881Y-122852699D01*
X19269643Y-122805080D01*
X19222024Y-122757461D01*
X19174405Y-122662223D01*
X19174405Y-122566985D01*
X19222024Y-122424128D01*
X19793453Y-121852699D01*
X19174405Y-121852699D01*
X20665195Y-31070559D02*
X20665195Y-32070559D01*
X20284242Y-32070559D01*
X20189004Y-32022940D01*
X20141385Y-31975321D01*
X20093766Y-31880083D01*
X20093766Y-31737226D01*
X20141385Y-31641988D01*
X20189004Y-31594369D01*
X20284242Y-31546750D01*
X20665195Y-31546750D01*
X19141385Y-31070559D02*
X19712814Y-31070559D01*
X19427100Y-31070559D02*
X19427100Y-32070559D01*
X19522338Y-31927702D01*
X19617576Y-31832464D01*
X19712814Y-31784845D01*
X4099339Y-98510455D02*
X3289815Y-98510455D01*
X3194577Y-98558074D01*
X3146958Y-98605693D01*
X3099339Y-98700931D01*
X3099339Y-98891408D01*
X3146958Y-98986646D01*
X3194577Y-99034265D01*
X3289815Y-99081884D01*
X4099339Y-99081884D01*
X4004101Y-99510455D02*
X4051720Y-99558074D01*
X4099339Y-99653312D01*
X4099339Y-99891408D01*
X4051720Y-99986646D01*
X4004101Y-100034265D01*
X3908863Y-100081884D01*
X3813625Y-100081884D01*
X3670768Y-100034265D01*
X3099339Y-99462836D01*
X3099339Y-100081884D01*
X4079019Y-49894855D02*
X3269495Y-49894855D01*
X3174257Y-49942474D01*
X3126638Y-49990093D01*
X3079019Y-50085331D01*
X3079019Y-50275808D01*
X3126638Y-50371046D01*
X3174257Y-50418665D01*
X3269495Y-50466284D01*
X4079019Y-50466284D01*
X3079019Y-51466284D02*
X3079019Y-50894855D01*
X3079019Y-51180569D02*
X4079019Y-51180569D01*
X3936162Y-51085331D01*
X3840924Y-50990093D01*
X3793305Y-50894855D01*
X14388879Y-96217453D02*
X13388879Y-96884120D01*
X14388879Y-96884120D02*
X13388879Y-96217453D01*
X13388879Y-97836501D02*
X13865070Y-97503167D01*
X13388879Y-97265072D02*
X14388879Y-97265072D01*
X14388879Y-97646025D01*
X14341260Y-97741263D01*
X14293641Y-97788882D01*
X14198403Y-97836501D01*
X14055546Y-97836501D01*
X13960308Y-97788882D01*
X13912689Y-97741263D01*
X13865070Y-97646025D01*
X13865070Y-97265072D01*
X13674593Y-98217453D02*
X13674593Y-98693644D01*
X13388879Y-98122215D02*
X14388879Y-98455548D01*
X13388879Y-98788882D01*
X13388879Y-99646025D02*
X13388879Y-99074596D01*
X13388879Y-99360310D02*
X14388879Y-99360310D01*
X14246022Y-99265072D01*
X14150784Y-99169834D01*
X14103165Y-99074596D01*
X14055546Y-100503168D02*
X13388879Y-100503168D01*
X14436498Y-100265072D02*
X13722212Y-100026977D01*
X13722212Y-100646025D01*
X14388879Y-101217453D02*
X14388879Y-101312692D01*
X14341260Y-101407930D01*
X14293641Y-101455549D01*
X14198403Y-101503168D01*
X14007927Y-101550787D01*
X13769831Y-101550787D01*
X13579355Y-101503168D01*
X13484117Y-101455549D01*
X13436498Y-101407930D01*
X13388879Y-101312692D01*
X13388879Y-101217453D01*
X13436498Y-101122215D01*
X13484117Y-101074596D01*
X13579355Y-101026977D01*
X13769831Y-100979358D01*
X14007927Y-100979358D01*
X14198403Y-101026977D01*
X14293641Y-101074596D01*
X14341260Y-101122215D01*
X14388879Y-101217453D01*
X14388879Y-101884120D02*
X14388879Y-102503168D01*
X14007927Y-102169834D01*
X14007927Y-102312692D01*
X13960308Y-102407930D01*
X13912689Y-102455549D01*
X13817450Y-102503168D01*
X13579355Y-102503168D01*
X13484117Y-102455549D01*
X13436498Y-102407930D01*
X13388879Y-102312692D01*
X13388879Y-102026977D01*
X13436498Y-101931739D01*
X13484117Y-101884120D01*
X14297439Y-47284353D02*
X13297439Y-47951020D01*
X14297439Y-47951020D02*
X13297439Y-47284353D01*
X13297439Y-48903401D02*
X13773630Y-48570067D01*
X13297439Y-48331972D02*
X14297439Y-48331972D01*
X14297439Y-48712925D01*
X14249820Y-48808163D01*
X14202201Y-48855782D01*
X14106963Y-48903401D01*
X13964106Y-48903401D01*
X13868868Y-48855782D01*
X13821249Y-48808163D01*
X13773630Y-48712925D01*
X13773630Y-48331972D01*
X13583153Y-49284353D02*
X13583153Y-49760544D01*
X13297439Y-49189115D02*
X14297439Y-49522448D01*
X13297439Y-49855782D01*
X13297439Y-50712925D02*
X13297439Y-50141496D01*
X13297439Y-50427210D02*
X14297439Y-50427210D01*
X14154582Y-50331972D01*
X14059344Y-50236734D01*
X14011725Y-50141496D01*
X13964106Y-51570068D02*
X13297439Y-51570068D01*
X14345058Y-51331972D02*
X13630772Y-51093877D01*
X13630772Y-51712925D01*
X14297439Y-52284353D02*
X14297439Y-52379592D01*
X14249820Y-52474830D01*
X14202201Y-52522449D01*
X14106963Y-52570068D01*
X13916487Y-52617687D01*
X13678391Y-52617687D01*
X13487915Y-52570068D01*
X13392677Y-52522449D01*
X13345058Y-52474830D01*
X13297439Y-52379592D01*
X13297439Y-52284353D01*
X13345058Y-52189115D01*
X13392677Y-52141496D01*
X13487915Y-52093877D01*
X13678391Y-52046258D01*
X13916487Y-52046258D01*
X14106963Y-52093877D01*
X14202201Y-52141496D01*
X14249820Y-52189115D01*
X14297439Y-52284353D01*
X14297439Y-52951020D02*
X14297439Y-53570068D01*
X13916487Y-53236734D01*
X13916487Y-53379592D01*
X13868868Y-53474830D01*
X13821249Y-53522449D01*
X13726010Y-53570068D01*
X13487915Y-53570068D01*
X13392677Y-53522449D01*
X13345058Y-53474830D01*
X13297439Y-53379592D01*
X13297439Y-53093877D01*
X13345058Y-52998639D01*
X13392677Y-52951020D01*
D11*
X-1217106Y-44924813D02*
X-817106Y-44924813D01*
X-1017106Y-44924813D02*
X-1017106Y-45624813D01*
X-950440Y-45524813D01*
X-883773Y-45458147D01*
X-817106Y-45424813D01*
X-1650440Y-45624813D02*
X-1717107Y-45624813D01*
X-1783773Y-45591480D01*
X-1817107Y-45558147D01*
X-1850440Y-45491480D01*
X-1883773Y-45358147D01*
X-1883773Y-45191480D01*
X-1850440Y-45058147D01*
X-1817107Y-44991480D01*
X-1783773Y-44958147D01*
X-1717107Y-44924813D01*
X-1650440Y-44924813D01*
X-1583773Y-44958147D01*
X-1550440Y-44991480D01*
X-1517107Y-45058147D01*
X-1483773Y-45191480D01*
X-1483773Y-45358147D01*
X-1517107Y-45491480D01*
X-1550440Y-45558147D01*
X-1583773Y-45591480D01*
X-1650440Y-45624813D01*
X-2317107Y-45624813D02*
X-2383774Y-45624813D01*
X-2450440Y-45591480D01*
X-2483774Y-45558147D01*
X-2517107Y-45491480D01*
X-2550440Y-45358147D01*
X-2550440Y-45191480D01*
X-2517107Y-45058147D01*
X-2483774Y-44991480D01*
X-2450440Y-44958147D01*
X-2383774Y-44924813D01*
X-2317107Y-44924813D01*
X-2250440Y-44958147D01*
X-2217107Y-44991480D01*
X-2183774Y-45058147D01*
X-2150440Y-45191480D01*
X-2150440Y-45358147D01*
X-2183774Y-45491480D01*
X-2217107Y-45558147D01*
X-2250440Y-45591480D01*
X-2317107Y-45624813D01*
X-2850441Y-45391480D02*
X-2850441Y-44924813D01*
X-2850441Y-45324813D02*
X-2883774Y-45358147D01*
X-2950441Y-45391480D01*
X-3050441Y-45391480D01*
X-3117107Y-45358147D01*
X-3150441Y-45291480D01*
X-3150441Y-44924813D01*
X-3717107Y-45291480D02*
X-3483774Y-45291480D01*
X-3483774Y-44924813D02*
X-3483774Y-45624813D01*
X-3817107Y-45624813D01*
X-1438680Y-47398773D02*
X-1038680Y-47398773D01*
X-1238680Y-47398773D02*
X-1238680Y-48098773D01*
X-1172014Y-47998773D01*
X-1105347Y-47932107D01*
X-1038680Y-47898773D01*
X-1872014Y-48098773D02*
X-1938681Y-48098773D01*
X-2005347Y-48065440D01*
X-2038681Y-48032107D01*
X-2072014Y-47965440D01*
X-2105347Y-47832107D01*
X-2105347Y-47665440D01*
X-2072014Y-47532107D01*
X-2038681Y-47465440D01*
X-2005347Y-47432107D01*
X-1938681Y-47398773D01*
X-1872014Y-47398773D01*
X-1805347Y-47432107D01*
X-1772014Y-47465440D01*
X-1738681Y-47532107D01*
X-1705347Y-47665440D01*
X-1705347Y-47832107D01*
X-1738681Y-47965440D01*
X-1772014Y-48032107D01*
X-1805347Y-48065440D01*
X-1872014Y-48098773D01*
X-2705348Y-47865440D02*
X-2705348Y-47398773D01*
X-2405348Y-47865440D02*
X-2405348Y-47498773D01*
X-2438681Y-47432107D01*
X-2505348Y-47398773D01*
X-2605348Y-47398773D01*
X-2672014Y-47432107D01*
X-2705348Y-47465440D01*
X-3272014Y-47765440D02*
X-3038681Y-47765440D01*
X-3038681Y-47398773D02*
X-3038681Y-48098773D01*
X-3372014Y-48098773D01*
D10*
X-9459276Y-117676939D02*
X-9459276Y-118676939D01*
X-9792610Y-117962653D01*
X-10125943Y-118676939D01*
X-10125943Y-117676939D01*
X-10602133Y-117676939D02*
X-10602133Y-118676939D01*
X-10983086Y-118676939D01*
X-11078324Y-118629320D01*
X-11125943Y-118581701D01*
X-11173562Y-118486463D01*
X-11173562Y-118343606D01*
X-11125943Y-118248368D01*
X-11078324Y-118200749D01*
X-10983086Y-118153130D01*
X-10602133Y-118153130D01*
X-12125943Y-117676939D02*
X-11554514Y-117676939D01*
X-11840228Y-117676939D02*
X-11840228Y-118676939D01*
X-11744990Y-118534082D01*
X-11649752Y-118438844D01*
X-11554514Y-118391225D01*
X-9461816Y-34476699D02*
X-9461816Y-35476699D01*
X-9795150Y-34762413D01*
X-10128483Y-35476699D01*
X-10128483Y-34476699D01*
X-10604673Y-34476699D02*
X-10604673Y-35476699D01*
X-10985626Y-35476699D01*
X-11080864Y-35429080D01*
X-11128483Y-35381461D01*
X-11176102Y-35286223D01*
X-11176102Y-35143366D01*
X-11128483Y-35048128D01*
X-11080864Y-35000509D01*
X-10985626Y-34952890D01*
X-10604673Y-34952890D01*
X-11557054Y-35381461D02*
X-11604673Y-35429080D01*
X-11699911Y-35476699D01*
X-11938007Y-35476699D01*
X-12033245Y-35429080D01*
X-12080864Y-35381461D01*
X-12128483Y-35286223D01*
X-12128483Y-35190985D01*
X-12080864Y-35048128D01*
X-11509435Y-34476699D01*
X-12128483Y-34476699D01*
X1715039Y-71940465D02*
X2715039Y-71940465D01*
X2715039Y-72321418D01*
X2667420Y-72416656D01*
X2619801Y-72464275D01*
X2524563Y-72511894D01*
X2381706Y-72511894D01*
X2286468Y-72464275D01*
X2238849Y-72416656D01*
X2191230Y-72321418D01*
X2191230Y-71940465D01*
X2715039Y-72845227D02*
X2715039Y-73464275D01*
X2334087Y-73130941D01*
X2334087Y-73273799D01*
X2286468Y-73369037D01*
X2238849Y-73416656D01*
X2143610Y-73464275D01*
X1905515Y-73464275D01*
X1810277Y-73416656D01*
X1762658Y-73369037D01*
X1715039Y-73273799D01*
X1715039Y-72988084D01*
X1762658Y-72892846D01*
X1810277Y-72845227D01*
X129212973Y-116528859D02*
X129212973Y-117528859D01*
X128879639Y-116814573D01*
X128546306Y-117528859D01*
X128546306Y-116528859D01*
X128070116Y-116528859D02*
X128070116Y-117528859D01*
X128070116Y-117052669D02*
X127498687Y-117052669D01*
X127498687Y-116528859D02*
X127498687Y-117528859D01*
X127117735Y-117528859D02*
X126498687Y-117528859D01*
X126832021Y-117147907D01*
X126689163Y-117147907D01*
X126593925Y-117100288D01*
X126546306Y-117052669D01*
X126498687Y-116957430D01*
X126498687Y-116719335D01*
X126546306Y-116624097D01*
X126593925Y-116576478D01*
X126689163Y-116528859D01*
X126974878Y-116528859D01*
X127070116Y-116576478D01*
X127117735Y-116624097D01*
X-4638285Y-37844739D02*
X-4638285Y-38844739D01*
X-5019238Y-38844739D01*
X-5114476Y-38797120D01*
X-5162095Y-38749501D01*
X-5209714Y-38654263D01*
X-5209714Y-38511406D01*
X-5162095Y-38416168D01*
X-5114476Y-38368549D01*
X-5019238Y-38320930D01*
X-4638285Y-38320930D01*
X-6114476Y-38844739D02*
X-5638285Y-38844739D01*
X-5590666Y-38368549D01*
X-5638285Y-38416168D01*
X-5733523Y-38463787D01*
X-5971619Y-38463787D01*
X-6066857Y-38416168D01*
X-6114476Y-38368549D01*
X-6162095Y-38273310D01*
X-6162095Y-38035215D01*
X-6114476Y-37939977D01*
X-6066857Y-37892358D01*
X-5971619Y-37844739D01*
X-5733523Y-37844739D01*
X-5638285Y-37892358D01*
X-5590666Y-37939977D01*
X-3360665Y-106582219D02*
X-3360665Y-107582219D01*
X-3741618Y-107582219D01*
X-3836856Y-107534600D01*
X-3884475Y-107486981D01*
X-3932094Y-107391743D01*
X-3932094Y-107248886D01*
X-3884475Y-107153648D01*
X-3836856Y-107106029D01*
X-3741618Y-107058410D01*
X-3360665Y-107058410D01*
X-4789237Y-107582219D02*
X-4598760Y-107582219D01*
X-4503522Y-107534600D01*
X-4455903Y-107486981D01*
X-4360665Y-107344124D01*
X-4313046Y-107153648D01*
X-4313046Y-106772695D01*
X-4360665Y-106677457D01*
X-4408284Y-106629838D01*
X-4503522Y-106582219D01*
X-4693999Y-106582219D01*
X-4789237Y-106629838D01*
X-4836856Y-106677457D01*
X-4884475Y-106772695D01*
X-4884475Y-107010790D01*
X-4836856Y-107106029D01*
X-4789237Y-107153648D01*
X-4693999Y-107201267D01*
X-4503522Y-107201267D01*
X-4408284Y-107153648D01*
X-4360665Y-107106029D01*
X-4313046Y-107010790D01*
X119199415Y-105456999D02*
X119199415Y-106456999D01*
X118818462Y-106456999D01*
X118723224Y-106409380D01*
X118675605Y-106361761D01*
X118627986Y-106266523D01*
X118627986Y-106123666D01*
X118675605Y-106028428D01*
X118723224Y-105980809D01*
X118818462Y-105933190D01*
X119199415Y-105933190D01*
X117770843Y-106123666D02*
X117770843Y-105456999D01*
X118008939Y-106504618D02*
X118247034Y-105790332D01*
X117627986Y-105790332D01*
D12*
X-5772886Y-53031816D02*
X-5834790Y-52969911D01*
X-5896695Y-52784197D01*
X-5896695Y-52660387D01*
X-5834790Y-52474673D01*
X-5710981Y-52350864D01*
X-5587171Y-52288959D01*
X-5339552Y-52227054D01*
X-5153838Y-52227054D01*
X-4906219Y-52288959D01*
X-4782410Y-52350864D01*
X-4658600Y-52474673D01*
X-4596695Y-52660387D01*
X-4596695Y-52784197D01*
X-4658600Y-52969911D01*
X-4720505Y-53031816D01*
X-5896695Y-53774673D02*
X-5834790Y-53650864D01*
X-5772886Y-53588959D01*
X-5649076Y-53527054D01*
X-5277648Y-53527054D01*
X-5153838Y-53588959D01*
X-5091933Y-53650864D01*
X-5030029Y-53774673D01*
X-5030029Y-53960387D01*
X-5091933Y-54084197D01*
X-5153838Y-54146102D01*
X-5277648Y-54208006D01*
X-5649076Y-54208006D01*
X-5772886Y-54146102D01*
X-5834790Y-54084197D01*
X-5896695Y-53960387D01*
X-5896695Y-53774673D01*
X-5030029Y-54765149D02*
X-5896695Y-54765149D01*
X-5153838Y-54765149D02*
X-5091933Y-54827054D01*
X-5030029Y-54950863D01*
X-5030029Y-55136577D01*
X-5091933Y-55260387D01*
X-5215743Y-55322292D01*
X-5896695Y-55322292D01*
X-5030029Y-55755625D02*
X-5030029Y-56250863D01*
X-4596695Y-55941339D02*
X-5710981Y-55941339D01*
X-5834790Y-56003244D01*
X-5896695Y-56127053D01*
X-5896695Y-56250863D01*
X-5896695Y-56684196D02*
X-5030029Y-56684196D01*
X-5277648Y-56684196D02*
X-5153838Y-56746101D01*
X-5091933Y-56808005D01*
X-5030029Y-56931815D01*
X-5030029Y-57055624D01*
X-5896695Y-57674672D02*
X-5834790Y-57550863D01*
X-5772886Y-57488958D01*
X-5649076Y-57427053D01*
X-5277648Y-57427053D01*
X-5153838Y-57488958D01*
X-5091933Y-57550863D01*
X-5030029Y-57674672D01*
X-5030029Y-57860386D01*
X-5091933Y-57984196D01*
X-5153838Y-58046101D01*
X-5277648Y-58108005D01*
X-5649076Y-58108005D01*
X-5772886Y-58046101D01*
X-5834790Y-57984196D01*
X-5896695Y-57860386D01*
X-5896695Y-57674672D01*
X-5896695Y-58850862D02*
X-5834790Y-58727053D01*
X-5710981Y-58665148D01*
X-4596695Y-58665148D01*
X-5834790Y-59284195D02*
X-5896695Y-59408005D01*
X-5896695Y-59655624D01*
X-5834790Y-59779433D01*
X-5710981Y-59841338D01*
X-5649076Y-59841338D01*
X-5525267Y-59779433D01*
X-5463362Y-59655624D01*
X-5463362Y-59469909D01*
X-5401457Y-59346100D01*
X-5277648Y-59284195D01*
X-5215743Y-59284195D01*
X-5091933Y-59346100D01*
X-5030029Y-59469909D01*
X-5030029Y-59655624D01*
X-5091933Y-59779433D01*
X-4658600Y-62069909D02*
X-4596695Y-61946100D01*
X-4596695Y-61760385D01*
X-4658600Y-61574671D01*
X-4782410Y-61450862D01*
X-4906219Y-61388957D01*
X-5153838Y-61327052D01*
X-5339552Y-61327052D01*
X-5587171Y-61388957D01*
X-5710981Y-61450862D01*
X-5834790Y-61574671D01*
X-5896695Y-61760385D01*
X-5896695Y-61884195D01*
X-5834790Y-62069909D01*
X-5772886Y-62131814D01*
X-5339552Y-62131814D01*
X-5339552Y-61884195D01*
X-5896695Y-62688957D02*
X-5030029Y-62688957D01*
X-5277648Y-62688957D02*
X-5153838Y-62750862D01*
X-5091933Y-62812766D01*
X-5030029Y-62936576D01*
X-5030029Y-63060385D01*
X-5896695Y-63679433D02*
X-5834790Y-63555624D01*
X-5772886Y-63493719D01*
X-5649076Y-63431814D01*
X-5277648Y-63431814D01*
X-5153838Y-63493719D01*
X-5091933Y-63555624D01*
X-5030029Y-63679433D01*
X-5030029Y-63865147D01*
X-5091933Y-63988957D01*
X-5153838Y-64050862D01*
X-5277648Y-64112766D01*
X-5649076Y-64112766D01*
X-5772886Y-64050862D01*
X-5834790Y-63988957D01*
X-5896695Y-63865147D01*
X-5896695Y-63679433D01*
X-5030029Y-65227052D02*
X-5896695Y-65227052D01*
X-5030029Y-64669909D02*
X-5710981Y-64669909D01*
X-5834790Y-64731814D01*
X-5896695Y-64855623D01*
X-5896695Y-65041337D01*
X-5834790Y-65165147D01*
X-5772886Y-65227052D01*
X-5030029Y-65846099D02*
X-6330029Y-65846099D01*
X-5091933Y-65846099D02*
X-5030029Y-65969908D01*
X-5030029Y-66217527D01*
X-5091933Y-66341337D01*
X-5153838Y-66403242D01*
X-5277648Y-66465146D01*
X-5649076Y-66465146D01*
X-5772886Y-66403242D01*
X-5834790Y-66341337D01*
X-5896695Y-66217527D01*
X-5896695Y-65969908D01*
X-5834790Y-65846099D01*
X-8046695Y-51453242D02*
X-8046695Y-50834195D01*
X-6746695Y-50834195D01*
X-8046695Y-51886576D02*
X-6746695Y-51886576D01*
X-8046695Y-52629433D01*
X-6746695Y-52629433D01*
X-8046695Y-53867528D02*
X-8046695Y-53248481D01*
X-6746695Y-53248481D01*
X-7984790Y-54238957D02*
X-8046695Y-54424671D01*
X-8046695Y-54734195D01*
X-7984790Y-54858005D01*
X-7922886Y-54919909D01*
X-7799076Y-54981814D01*
X-7675267Y-54981814D01*
X-7551457Y-54919909D01*
X-7489552Y-54858005D01*
X-7427648Y-54734195D01*
X-7365743Y-54486576D01*
X-7303838Y-54362767D01*
X-7241933Y-54300862D01*
X-7118124Y-54238957D01*
X-6994314Y-54238957D01*
X-6870505Y-54300862D01*
X-6808600Y-54362767D01*
X-6746695Y-54486576D01*
X-6746695Y-54796100D01*
X-6808600Y-54981814D01*
X-7551457Y-56529433D02*
X-7551457Y-57519909D01*
X-7984790Y-59067528D02*
X-8046695Y-59253242D01*
X-8046695Y-59562766D01*
X-7984790Y-59686576D01*
X-7922886Y-59748480D01*
X-7799076Y-59810385D01*
X-7675267Y-59810385D01*
X-7551457Y-59748480D01*
X-7489552Y-59686576D01*
X-7427648Y-59562766D01*
X-7365743Y-59315147D01*
X-7303838Y-59191338D01*
X-7241933Y-59129433D01*
X-7118124Y-59067528D01*
X-6994314Y-59067528D01*
X-6870505Y-59129433D01*
X-6808600Y-59191338D01*
X-6746695Y-59315147D01*
X-6746695Y-59624671D01*
X-6808600Y-59810385D01*
X-8046695Y-60367528D02*
X-6746695Y-60367528D01*
X-6746695Y-60862766D01*
X-6808600Y-60986575D01*
X-6870505Y-61048480D01*
X-6994314Y-61110385D01*
X-7180029Y-61110385D01*
X-7303838Y-61048480D01*
X-7365743Y-60986575D01*
X-7427648Y-60862766D01*
X-7427648Y-60367528D01*
X-8046695Y-61667528D02*
X-6746695Y-61667528D01*
X-8046695Y-62162766D02*
X-7180029Y-62843719D01*
X-7180029Y-62162766D02*
X-8046695Y-62843719D01*
X-7922886Y-64081814D02*
X-7984790Y-64019909D01*
X-8046695Y-63834195D01*
X-8046695Y-63710385D01*
X-7984790Y-63524671D01*
X-7860981Y-63400862D01*
X-7737171Y-63338957D01*
X-7489552Y-63277052D01*
X-7303838Y-63277052D01*
X-7056219Y-63338957D01*
X-6932410Y-63400862D01*
X-6808600Y-63524671D01*
X-6746695Y-63710385D01*
X-6746695Y-63834195D01*
X-6808600Y-64019909D01*
X-6870505Y-64081814D01*
X-6746695Y-64886576D02*
X-6746695Y-65134195D01*
X-6808600Y-65258004D01*
X-6932410Y-65381814D01*
X-7180029Y-65443719D01*
X-7613362Y-65443719D01*
X-7860981Y-65381814D01*
X-7984790Y-65258004D01*
X-8046695Y-65134195D01*
X-8046695Y-64886576D01*
X-7984790Y-64762766D01*
X-7860981Y-64638957D01*
X-7613362Y-64577052D01*
X-7180029Y-64577052D01*
X-6932410Y-64638957D01*
X-6808600Y-64762766D01*
X-6746695Y-64886576D01*
X-8046695Y-66000862D02*
X-6746695Y-66000862D01*
X-8046695Y-66743719D01*
X-6746695Y-66743719D01*
X-6746695Y-67177053D02*
X-8046695Y-67610386D01*
X-6746695Y-68043719D01*
X-8958600Y-53155624D02*
X-8896695Y-53031815D01*
X-8896695Y-52846100D01*
X-8958600Y-52660386D01*
X-9082410Y-52536577D01*
X-9206219Y-52474672D01*
X-9453838Y-52412767D01*
X-9639552Y-52412767D01*
X-9887171Y-52474672D01*
X-10010981Y-52536577D01*
X-10134790Y-52660386D01*
X-10196695Y-52846100D01*
X-10196695Y-52969910D01*
X-10134790Y-53155624D01*
X-10072886Y-53217529D01*
X-9639552Y-53217529D01*
X-9639552Y-52969910D01*
X-10196695Y-53774672D02*
X-8896695Y-53774672D01*
X-8896695Y-54269910D01*
X-8958600Y-54393719D01*
X-9020505Y-54455624D01*
X-9144314Y-54517529D01*
X-9330029Y-54517529D01*
X-9453838Y-54455624D01*
X-9515743Y-54393719D01*
X-9577648Y-54269910D01*
X-9577648Y-53774672D01*
X-10196695Y-55074672D02*
X-8896695Y-55074672D01*
X-8896695Y-55941339D02*
X-8896695Y-56188958D01*
X-8958600Y-56312767D01*
X-9082410Y-56436577D01*
X-9330029Y-56498482D01*
X-9763362Y-56498482D01*
X-10010981Y-56436577D01*
X-10134790Y-56312767D01*
X-10196695Y-56188958D01*
X-10196695Y-55941339D01*
X-10134790Y-55817529D01*
X-10010981Y-55693720D01*
X-9763362Y-55631815D01*
X-9330029Y-55631815D01*
X-9082410Y-55693720D01*
X-8958600Y-55817529D01*
X-8896695Y-55941339D01*
X-10134790Y-58541339D02*
X-10196695Y-58417529D01*
X-10196695Y-58169910D01*
X-10134790Y-58046101D01*
X-10010981Y-57984196D01*
X-9515743Y-57984196D01*
X-9391933Y-58046101D01*
X-9330029Y-58169910D01*
X-9330029Y-58417529D01*
X-9391933Y-58541339D01*
X-9515743Y-58603244D01*
X-9639552Y-58603244D01*
X-9763362Y-57984196D01*
X-10196695Y-59036577D02*
X-9330029Y-59717530D01*
X-9330029Y-59036577D02*
X-10196695Y-59717530D01*
X-9330029Y-60212768D02*
X-10630029Y-60212768D01*
X-9391933Y-60212768D02*
X-9330029Y-60336577D01*
X-9330029Y-60584196D01*
X-9391933Y-60708006D01*
X-9453838Y-60769911D01*
X-9577648Y-60831815D01*
X-9949076Y-60831815D01*
X-10072886Y-60769911D01*
X-10134790Y-60708006D01*
X-10196695Y-60584196D01*
X-10196695Y-60336577D01*
X-10134790Y-60212768D01*
X-10196695Y-61946101D02*
X-9515743Y-61946101D01*
X-9391933Y-61884196D01*
X-9330029Y-61760386D01*
X-9330029Y-61512767D01*
X-9391933Y-61388958D01*
X-10134790Y-61946101D02*
X-10196695Y-61822291D01*
X-10196695Y-61512767D01*
X-10134790Y-61388958D01*
X-10010981Y-61327053D01*
X-9887171Y-61327053D01*
X-9763362Y-61388958D01*
X-9701457Y-61512767D01*
X-9701457Y-61822291D01*
X-9639552Y-61946101D01*
X-9330029Y-62565148D02*
X-10196695Y-62565148D01*
X-9453838Y-62565148D02*
X-9391933Y-62627053D01*
X-9330029Y-62750862D01*
X-9330029Y-62936576D01*
X-9391933Y-63060386D01*
X-9515743Y-63122291D01*
X-10196695Y-63122291D01*
X-10196695Y-64298481D02*
X-8896695Y-64298481D01*
X-10134790Y-64298481D02*
X-10196695Y-64174671D01*
X-10196695Y-63927052D01*
X-10134790Y-63803243D01*
X-10072886Y-63741338D01*
X-9949076Y-63679433D01*
X-9577648Y-63679433D01*
X-9453838Y-63741338D01*
X-9391933Y-63803243D01*
X-9330029Y-63927052D01*
X-9330029Y-64174671D01*
X-9391933Y-64298481D01*
X-10134790Y-65412766D02*
X-10196695Y-65288956D01*
X-10196695Y-65041337D01*
X-10134790Y-64917528D01*
X-10010981Y-64855623D01*
X-9515743Y-64855623D01*
X-9391933Y-64917528D01*
X-9330029Y-65041337D01*
X-9330029Y-65288956D01*
X-9391933Y-65412766D01*
X-9515743Y-65474671D01*
X-9639552Y-65474671D01*
X-9763362Y-64855623D01*
X-10196695Y-66031814D02*
X-9330029Y-66031814D01*
X-9577648Y-66031814D02*
X-9453838Y-66093719D01*
X-9391933Y-66155623D01*
X-9330029Y-66279433D01*
X-9330029Y-66403242D01*
X-11480029Y-48791339D02*
X-12346695Y-49100863D01*
X-11480029Y-49410387D01*
X-12346695Y-50586577D02*
X-12346695Y-49843720D01*
X-12346695Y-50215149D02*
X-11046695Y-50215149D01*
X-11232410Y-50091339D01*
X-11356219Y-49967530D01*
X-11418124Y-49843720D01*
X-12222886Y-51143720D02*
X-12284790Y-51205625D01*
X-12346695Y-51143720D01*
X-12284790Y-51081815D01*
X-12222886Y-51143720D01*
X-12346695Y-51143720D01*
X-11170505Y-51700863D02*
X-11108600Y-51762768D01*
X-11046695Y-51886577D01*
X-11046695Y-52196101D01*
X-11108600Y-52319911D01*
X-11170505Y-52381815D01*
X-11294314Y-52443720D01*
X-11418124Y-52443720D01*
X-11603838Y-52381815D01*
X-12346695Y-51638958D01*
X-12346695Y-52443720D01*
X-12841933Y-54362767D02*
X-12780029Y-54300863D01*
X-12594314Y-54177053D01*
X-12470505Y-54115148D01*
X-12284790Y-54053244D01*
X-11975267Y-53991339D01*
X-11727648Y-53991339D01*
X-11418124Y-54053244D01*
X-11232410Y-54115148D01*
X-11108600Y-54177053D01*
X-10922886Y-54300863D01*
X-10860981Y-54362767D01*
X-11665743Y-55291339D02*
X-11665743Y-54858006D01*
X-12346695Y-54858006D02*
X-11046695Y-54858006D01*
X-11046695Y-55477053D01*
X-12284790Y-56467530D02*
X-12346695Y-56343720D01*
X-12346695Y-56096101D01*
X-12284790Y-55972292D01*
X-12160981Y-55910387D01*
X-11665743Y-55910387D01*
X-11541933Y-55972292D01*
X-11480029Y-56096101D01*
X-11480029Y-56343720D01*
X-11541933Y-56467530D01*
X-11665743Y-56529435D01*
X-11789552Y-56529435D01*
X-11913362Y-55910387D01*
X-12346695Y-57086578D02*
X-11046695Y-57086578D01*
X-11541933Y-57086578D02*
X-11480029Y-57210387D01*
X-11480029Y-57458006D01*
X-11541933Y-57581816D01*
X-11603838Y-57643721D01*
X-11727648Y-57705625D01*
X-12099076Y-57705625D01*
X-12222886Y-57643721D01*
X-12284790Y-57581816D01*
X-12346695Y-57458006D01*
X-12346695Y-57210387D01*
X-12284790Y-57086578D01*
X-12346695Y-58262768D02*
X-11480029Y-58262768D01*
X-11727648Y-58262768D02*
X-11603838Y-58324673D01*
X-11541933Y-58386577D01*
X-11480029Y-58510387D01*
X-11480029Y-58634196D01*
X-11480029Y-59624673D02*
X-12346695Y-59624673D01*
X-11480029Y-59067530D02*
X-12160981Y-59067530D01*
X-12284790Y-59129435D01*
X-12346695Y-59253244D01*
X-12346695Y-59438958D01*
X-12284790Y-59562768D01*
X-12222886Y-59624673D01*
X-12346695Y-60800863D02*
X-11665743Y-60800863D01*
X-11541933Y-60738958D01*
X-11480029Y-60615148D01*
X-11480029Y-60367529D01*
X-11541933Y-60243720D01*
X-12284790Y-60800863D02*
X-12346695Y-60677053D01*
X-12346695Y-60367529D01*
X-12284790Y-60243720D01*
X-12160981Y-60181815D01*
X-12037171Y-60181815D01*
X-11913362Y-60243720D01*
X-11851457Y-60367529D01*
X-11851457Y-60677053D01*
X-11789552Y-60800863D01*
X-12346695Y-61419910D02*
X-11480029Y-61419910D01*
X-11727648Y-61419910D02*
X-11603838Y-61481815D01*
X-11541933Y-61543719D01*
X-11480029Y-61667529D01*
X-11480029Y-61791338D01*
X-11480029Y-62100862D02*
X-12346695Y-62410386D01*
X-11480029Y-62719910D02*
X-12346695Y-62410386D01*
X-12656219Y-62286577D01*
X-12718124Y-62224672D01*
X-12780029Y-62100862D01*
X-10984790Y-64143719D02*
X-12656219Y-63029434D01*
X-11170505Y-64515148D02*
X-11108600Y-64577053D01*
X-11046695Y-64700862D01*
X-11046695Y-65010386D01*
X-11108600Y-65134196D01*
X-11170505Y-65196100D01*
X-11294314Y-65258005D01*
X-11418124Y-65258005D01*
X-11603838Y-65196100D01*
X-12346695Y-64453243D01*
X-12346695Y-65258005D01*
X-11046695Y-66062767D02*
X-11046695Y-66186576D01*
X-11108600Y-66310386D01*
X-11170505Y-66372291D01*
X-11294314Y-66434195D01*
X-11541933Y-66496100D01*
X-11851457Y-66496100D01*
X-12099076Y-66434195D01*
X-12222886Y-66372291D01*
X-12284790Y-66310386D01*
X-12346695Y-66186576D01*
X-12346695Y-66062767D01*
X-12284790Y-65938957D01*
X-12222886Y-65877053D01*
X-12099076Y-65815148D01*
X-11851457Y-65753243D01*
X-11541933Y-65753243D01*
X-11294314Y-65815148D01*
X-11170505Y-65877053D01*
X-11108600Y-65938957D01*
X-11046695Y-66062767D01*
X-12346695Y-67734195D02*
X-12346695Y-66991338D01*
X-12346695Y-67362767D02*
X-11046695Y-67362767D01*
X-11232410Y-67238957D01*
X-11356219Y-67115148D01*
X-11418124Y-66991338D01*
X-11603838Y-68477052D02*
X-11541933Y-68353243D01*
X-11480029Y-68291338D01*
X-11356219Y-68229433D01*
X-11294314Y-68229433D01*
X-11170505Y-68291338D01*
X-11108600Y-68353243D01*
X-11046695Y-68477052D01*
X-11046695Y-68724671D01*
X-11108600Y-68848481D01*
X-11170505Y-68910385D01*
X-11294314Y-68972290D01*
X-11356219Y-68972290D01*
X-11480029Y-68910385D01*
X-11541933Y-68848481D01*
X-11603838Y-68724671D01*
X-11603838Y-68477052D01*
X-11665743Y-68353243D01*
X-11727648Y-68291338D01*
X-11851457Y-68229433D01*
X-12099076Y-68229433D01*
X-12222886Y-68291338D01*
X-12284790Y-68353243D01*
X-12346695Y-68477052D01*
X-12346695Y-68724671D01*
X-12284790Y-68848481D01*
X-12222886Y-68910385D01*
X-12099076Y-68972290D01*
X-11851457Y-68972290D01*
X-11727648Y-68910385D01*
X-11665743Y-68848481D01*
X-11603838Y-68724671D01*
X-12841933Y-69405623D02*
X-12780029Y-69467528D01*
X-12594314Y-69591338D01*
X-12470505Y-69653242D01*
X-12284790Y-69715147D01*
X-11975267Y-69777052D01*
X-11727648Y-69777052D01*
X-11418124Y-69715147D01*
X-11232410Y-69653242D01*
X-11108600Y-69591338D01*
X-10922886Y-69467528D01*
X-10860981Y-69405623D01*
D13*
X116613257Y-102940657D02*
X115470400Y-102940657D01*
X116041829Y-102369229D02*
X116041829Y-103512086D01*
X114041828Y-103869229D02*
X114756114Y-103869229D01*
X114827543Y-103154943D01*
X114756114Y-103226371D01*
X114613257Y-103297800D01*
X114256114Y-103297800D01*
X114113257Y-103226371D01*
X114041828Y-103154943D01*
X113970400Y-103012086D01*
X113970400Y-102654943D01*
X114041828Y-102512086D01*
X114113257Y-102440657D01*
X114256114Y-102369229D01*
X114613257Y-102369229D01*
X114756114Y-102440657D01*
X114827543Y-102512086D01*
X113541829Y-103869229D02*
X113041829Y-102369229D01*
X112541829Y-103869229D01*
X116613257Y-100390657D02*
X115470400Y-100390657D01*
X116041829Y-99819229D02*
X116041829Y-100962086D01*
X113970400Y-99819229D02*
X114827543Y-99819229D01*
X114398971Y-99819229D02*
X114398971Y-101319229D01*
X114541828Y-101104943D01*
X114684686Y-100962086D01*
X114827543Y-100890657D01*
X113327543Y-99962086D02*
X113256115Y-99890657D01*
X113327543Y-99819229D01*
X113398972Y-99890657D01*
X113327543Y-99962086D01*
X113327543Y-99819229D01*
X112398971Y-100676371D02*
X112541829Y-100747800D01*
X112613257Y-100819229D01*
X112684686Y-100962086D01*
X112684686Y-101033514D01*
X112613257Y-101176371D01*
X112541829Y-101247800D01*
X112398971Y-101319229D01*
X112113257Y-101319229D01*
X111970400Y-101247800D01*
X111898971Y-101176371D01*
X111827543Y-101033514D01*
X111827543Y-100962086D01*
X111898971Y-100819229D01*
X111970400Y-100747800D01*
X112113257Y-100676371D01*
X112398971Y-100676371D01*
X112541829Y-100604943D01*
X112613257Y-100533514D01*
X112684686Y-100390657D01*
X112684686Y-100104943D01*
X112613257Y-99962086D01*
X112541829Y-99890657D01*
X112398971Y-99819229D01*
X112113257Y-99819229D01*
X111970400Y-99890657D01*
X111898971Y-99962086D01*
X111827543Y-100104943D01*
X111827543Y-100390657D01*
X111898971Y-100533514D01*
X111970400Y-100604943D01*
X112113257Y-100676371D01*
X111398972Y-101319229D02*
X110898972Y-99819229D01*
X110398972Y-101319229D01*
X116613257Y-97840657D02*
X115470400Y-97840657D01*
X116041829Y-97269229D02*
X116041829Y-98412086D01*
X114898971Y-98769229D02*
X113970400Y-98769229D01*
X114470400Y-98197800D01*
X114256114Y-98197800D01*
X114113257Y-98126371D01*
X114041828Y-98054943D01*
X113970400Y-97912086D01*
X113970400Y-97554943D01*
X114041828Y-97412086D01*
X114113257Y-97340657D01*
X114256114Y-97269229D01*
X114684686Y-97269229D01*
X114827543Y-97340657D01*
X114898971Y-97412086D01*
X113327543Y-97412086D02*
X113256115Y-97340657D01*
X113327543Y-97269229D01*
X113398972Y-97340657D01*
X113327543Y-97412086D01*
X113327543Y-97269229D01*
X112756114Y-98769229D02*
X111827543Y-98769229D01*
X112327543Y-98197800D01*
X112113257Y-98197800D01*
X111970400Y-98126371D01*
X111898971Y-98054943D01*
X111827543Y-97912086D01*
X111827543Y-97554943D01*
X111898971Y-97412086D01*
X111970400Y-97340657D01*
X112113257Y-97269229D01*
X112541829Y-97269229D01*
X112684686Y-97340657D01*
X112756114Y-97412086D01*
X111398972Y-98769229D02*
X110898972Y-97269229D01*
X110398972Y-98769229D01*
D14*
X21581729Y-76130057D02*
X21364015Y-76057486D01*
X21291443Y-75984914D01*
X21218872Y-75839771D01*
X21218872Y-75622057D01*
X21291443Y-75476914D01*
X21364015Y-75404343D01*
X21509157Y-75331771D01*
X22089729Y-75331771D01*
X22089729Y-76855771D01*
X21581729Y-76855771D01*
X21436586Y-76783200D01*
X21364015Y-76710629D01*
X21291443Y-76565486D01*
X21291443Y-76420343D01*
X21364015Y-76275200D01*
X21436586Y-76202629D01*
X21581729Y-76130057D01*
X22089729Y-76130057D01*
X18316014Y-75767200D02*
X17590300Y-75767200D01*
X18461157Y-75331771D02*
X17953157Y-76855771D01*
X17445157Y-75331771D01*
X21327729Y-84951114D02*
X21400300Y-84878543D01*
X21618014Y-84805971D01*
X21763157Y-84805971D01*
X21980872Y-84878543D01*
X22126014Y-85023686D01*
X22198586Y-85168829D01*
X22271157Y-85459114D01*
X22271157Y-85676829D01*
X22198586Y-85967114D01*
X22126014Y-86112257D01*
X21980872Y-86257400D01*
X21763157Y-86329971D01*
X21618014Y-86329971D01*
X21400300Y-86257400D01*
X21327729Y-86184829D01*
X18352300Y-84805971D02*
X18352300Y-86329971D01*
X17989443Y-86329971D01*
X17771728Y-86257400D01*
X17626586Y-86112257D01*
X17554014Y-85967114D01*
X17481443Y-85676829D01*
X17481443Y-85459114D01*
X17554014Y-85168829D01*
X17626586Y-85023686D01*
X17771728Y-84878543D01*
X17989443Y-84805971D01*
X18352300Y-84805971D01*
X-8858358Y-41921700D02*
X-8713215Y-41994271D01*
X-8495501Y-41994271D01*
X-8277786Y-41921700D01*
X-8132644Y-41776557D01*
X-8060072Y-41631414D01*
X-7987501Y-41341129D01*
X-7987501Y-41123414D01*
X-8060072Y-40833129D01*
X-8132644Y-40687986D01*
X-8277786Y-40542843D01*
X-8495501Y-40470271D01*
X-8640644Y-40470271D01*
X-8858358Y-40542843D01*
X-8930929Y-40615414D01*
X-8930929Y-41123414D01*
X-8640644Y-41123414D01*
X-9584072Y-40470271D02*
X-9584072Y-41994271D01*
X-10454929Y-40470271D01*
X-10454929Y-41994271D01*
X-11180643Y-40470271D02*
X-11180643Y-41994271D01*
X-11543500Y-41994271D01*
X-11761215Y-41921700D01*
X-11906357Y-41776557D01*
X-11978929Y-41631414D01*
X-12051500Y-41341129D01*
X-12051500Y-41123414D01*
X-11978929Y-40833129D01*
X-11906357Y-40687986D01*
X-11761215Y-40542843D01*
X-11543500Y-40470271D01*
X-11180643Y-40470271D01*
X-7677258Y-110806500D02*
X-7532115Y-110879071D01*
X-7314401Y-110879071D01*
X-7096686Y-110806500D01*
X-6951544Y-110661357D01*
X-6878972Y-110516214D01*
X-6806401Y-110225929D01*
X-6806401Y-110008214D01*
X-6878972Y-109717929D01*
X-6951544Y-109572786D01*
X-7096686Y-109427643D01*
X-7314401Y-109355071D01*
X-7459544Y-109355071D01*
X-7677258Y-109427643D01*
X-7749829Y-109500214D01*
X-7749829Y-110008214D01*
X-7459544Y-110008214D01*
X-8402972Y-109355071D02*
X-8402972Y-110879071D01*
X-9273829Y-109355071D01*
X-9273829Y-110879071D01*
X-9999543Y-109355071D02*
X-9999543Y-110879071D01*
X-10362400Y-110879071D01*
X-10580115Y-110806500D01*
X-10725257Y-110661357D01*
X-10797829Y-110516214D01*
X-10870400Y-110225929D01*
X-10870400Y-110008214D01*
X-10797829Y-109717929D01*
X-10725257Y-109572786D01*
X-10580115Y-109427643D01*
X-10362400Y-109355071D01*
X-9999543Y-109355071D01*
X174607658Y-42531300D02*
X174462515Y-42458729D01*
X174244801Y-42458729D01*
X174027086Y-42531300D01*
X173881944Y-42676443D01*
X173809372Y-42821586D01*
X173736801Y-43111871D01*
X173736801Y-43329586D01*
X173809372Y-43619871D01*
X173881944Y-43765014D01*
X174027086Y-43910157D01*
X174244801Y-43982729D01*
X174389944Y-43982729D01*
X174607658Y-43910157D01*
X174680229Y-43837586D01*
X174680229Y-43329586D01*
X174389944Y-43329586D01*
X175333372Y-43982729D02*
X175333372Y-42458729D01*
X176204229Y-43982729D01*
X176204229Y-42458729D01*
X176929943Y-43982729D02*
X176929943Y-42458729D01*
X177292800Y-42458729D01*
X177510515Y-42531300D01*
X177655657Y-42676443D01*
X177728229Y-42821586D01*
X177800800Y-43111871D01*
X177800800Y-43329586D01*
X177728229Y-43619871D01*
X177655657Y-43765014D01*
X177510515Y-43910157D01*
X177292800Y-43982729D01*
X176929943Y-43982729D01*
X175788758Y-111416100D02*
X175643615Y-111343529D01*
X175425901Y-111343529D01*
X175208186Y-111416100D01*
X175063044Y-111561243D01*
X174990472Y-111706386D01*
X174917901Y-111996671D01*
X174917901Y-112214386D01*
X174990472Y-112504671D01*
X175063044Y-112649814D01*
X175208186Y-112794957D01*
X175425901Y-112867529D01*
X175571044Y-112867529D01*
X175788758Y-112794957D01*
X175861329Y-112722386D01*
X175861329Y-112214386D01*
X175571044Y-112214386D01*
X176514472Y-112867529D02*
X176514472Y-111343529D01*
X177385329Y-112867529D01*
X177385329Y-111343529D01*
X178111043Y-112867529D02*
X178111043Y-111343529D01*
X178473900Y-111343529D01*
X178691615Y-111416100D01*
X178836757Y-111561243D01*
X178909329Y-111706386D01*
X178981900Y-111996671D01*
X178981900Y-112214386D01*
X178909329Y-112504671D01*
X178836757Y-112649814D01*
X178691615Y-112794957D01*
X178473900Y-112867529D01*
X178111043Y-112867529D01*
X145602671Y-68386686D02*
X145530100Y-68459257D01*
X145312386Y-68531829D01*
X145167243Y-68531829D01*
X144949528Y-68459257D01*
X144804386Y-68314114D01*
X144731814Y-68168971D01*
X144659243Y-67878686D01*
X144659243Y-67660971D01*
X144731814Y-67370686D01*
X144804386Y-67225543D01*
X144949528Y-67080400D01*
X145167243Y-67007829D01*
X145312386Y-67007829D01*
X145530100Y-67080400D01*
X145602671Y-67152971D01*
X148578100Y-68531829D02*
X148578100Y-67007829D01*
X148940957Y-67007829D01*
X149158672Y-67080400D01*
X149303814Y-67225543D01*
X149376386Y-67370686D01*
X149448957Y-67660971D01*
X149448957Y-67878686D01*
X149376386Y-68168971D01*
X149303814Y-68314114D01*
X149158672Y-68459257D01*
X148940957Y-68531829D01*
X148578100Y-68531829D01*
X145348671Y-77207743D02*
X145566385Y-77280314D01*
X145638957Y-77352886D01*
X145711528Y-77498029D01*
X145711528Y-77715743D01*
X145638957Y-77860886D01*
X145566385Y-77933457D01*
X145421243Y-78006029D01*
X144840671Y-78006029D01*
X144840671Y-76482029D01*
X145348671Y-76482029D01*
X145493814Y-76554600D01*
X145566385Y-76627171D01*
X145638957Y-76772314D01*
X145638957Y-76917457D01*
X145566385Y-77062600D01*
X145493814Y-77135171D01*
X145348671Y-77207743D01*
X144840671Y-77207743D01*
X148614386Y-77570600D02*
X149340100Y-77570600D01*
X148469243Y-78006029D02*
X148977243Y-76482029D01*
X149485243Y-78006029D01*
D13*
X50317143Y-50397143D02*
X51460000Y-50397143D01*
X50888571Y-50968571D02*
X50888571Y-49825714D01*
X52888572Y-49468571D02*
X52174286Y-49468571D01*
X52102857Y-50182857D01*
X52174286Y-50111429D01*
X52317143Y-50040000D01*
X52674286Y-50040000D01*
X52817143Y-50111429D01*
X52888572Y-50182857D01*
X52960000Y-50325714D01*
X52960000Y-50682857D01*
X52888572Y-50825714D01*
X52817143Y-50897143D01*
X52674286Y-50968571D01*
X52317143Y-50968571D01*
X52174286Y-50897143D01*
X52102857Y-50825714D01*
X53388571Y-49468571D02*
X53888571Y-50968571D01*
X54388571Y-49468571D01*
X50317143Y-52947143D02*
X51460000Y-52947143D01*
X50888571Y-53518571D02*
X50888571Y-52375714D01*
X52960000Y-53518571D02*
X52102857Y-53518571D01*
X52531429Y-53518571D02*
X52531429Y-52018571D01*
X52388572Y-52232857D01*
X52245714Y-52375714D01*
X52102857Y-52447143D01*
X53602857Y-53375714D02*
X53674285Y-53447143D01*
X53602857Y-53518571D01*
X53531428Y-53447143D01*
X53602857Y-53375714D01*
X53602857Y-53518571D01*
X54531429Y-52661429D02*
X54388571Y-52590000D01*
X54317143Y-52518571D01*
X54245714Y-52375714D01*
X54245714Y-52304286D01*
X54317143Y-52161429D01*
X54388571Y-52090000D01*
X54531429Y-52018571D01*
X54817143Y-52018571D01*
X54960000Y-52090000D01*
X55031429Y-52161429D01*
X55102857Y-52304286D01*
X55102857Y-52375714D01*
X55031429Y-52518571D01*
X54960000Y-52590000D01*
X54817143Y-52661429D01*
X54531429Y-52661429D01*
X54388571Y-52732857D01*
X54317143Y-52804286D01*
X54245714Y-52947143D01*
X54245714Y-53232857D01*
X54317143Y-53375714D01*
X54388571Y-53447143D01*
X54531429Y-53518571D01*
X54817143Y-53518571D01*
X54960000Y-53447143D01*
X55031429Y-53375714D01*
X55102857Y-53232857D01*
X55102857Y-52947143D01*
X55031429Y-52804286D01*
X54960000Y-52732857D01*
X54817143Y-52661429D01*
X55531428Y-52018571D02*
X56031428Y-53518571D01*
X56531428Y-52018571D01*
X50317143Y-55497143D02*
X51460000Y-55497143D01*
X50888571Y-56068571D02*
X50888571Y-54925714D01*
X52031429Y-54568571D02*
X52960000Y-54568571D01*
X52460000Y-55140000D01*
X52674286Y-55140000D01*
X52817143Y-55211429D01*
X52888572Y-55282857D01*
X52960000Y-55425714D01*
X52960000Y-55782857D01*
X52888572Y-55925714D01*
X52817143Y-55997143D01*
X52674286Y-56068571D01*
X52245714Y-56068571D01*
X52102857Y-55997143D01*
X52031429Y-55925714D01*
X53602857Y-55925714D02*
X53674285Y-55997143D01*
X53602857Y-56068571D01*
X53531428Y-55997143D01*
X53602857Y-55925714D01*
X53602857Y-56068571D01*
X54174286Y-54568571D02*
X55102857Y-54568571D01*
X54602857Y-55140000D01*
X54817143Y-55140000D01*
X54960000Y-55211429D01*
X55031429Y-55282857D01*
X55102857Y-55425714D01*
X55102857Y-55782857D01*
X55031429Y-55925714D01*
X54960000Y-55997143D01*
X54817143Y-56068571D01*
X54388571Y-56068571D01*
X54245714Y-55997143D01*
X54174286Y-55925714D01*
X55531428Y-54568571D02*
X56031428Y-56068571D01*
X56531428Y-54568571D01*
D12*
X172703286Y-100305984D02*
X172765190Y-100367889D01*
X172827095Y-100553603D01*
X172827095Y-100677413D01*
X172765190Y-100863127D01*
X172641381Y-100986936D01*
X172517571Y-101048841D01*
X172269952Y-101110746D01*
X172084238Y-101110746D01*
X171836619Y-101048841D01*
X171712810Y-100986936D01*
X171589000Y-100863127D01*
X171527095Y-100677413D01*
X171527095Y-100553603D01*
X171589000Y-100367889D01*
X171650905Y-100305984D01*
X172827095Y-99563127D02*
X172765190Y-99686936D01*
X172703286Y-99748841D01*
X172579476Y-99810746D01*
X172208048Y-99810746D01*
X172084238Y-99748841D01*
X172022333Y-99686936D01*
X171960429Y-99563127D01*
X171960429Y-99377413D01*
X172022333Y-99253603D01*
X172084238Y-99191698D01*
X172208048Y-99129794D01*
X172579476Y-99129794D01*
X172703286Y-99191698D01*
X172765190Y-99253603D01*
X172827095Y-99377413D01*
X172827095Y-99563127D01*
X171960429Y-98572651D02*
X172827095Y-98572651D01*
X172084238Y-98572651D02*
X172022333Y-98510746D01*
X171960429Y-98386937D01*
X171960429Y-98201223D01*
X172022333Y-98077413D01*
X172146143Y-98015508D01*
X172827095Y-98015508D01*
X171960429Y-97582175D02*
X171960429Y-97086937D01*
X171527095Y-97396461D02*
X172641381Y-97396461D01*
X172765190Y-97334556D01*
X172827095Y-97210747D01*
X172827095Y-97086937D01*
X172827095Y-96653604D02*
X171960429Y-96653604D01*
X172208048Y-96653604D02*
X172084238Y-96591699D01*
X172022333Y-96529795D01*
X171960429Y-96405985D01*
X171960429Y-96282176D01*
X172827095Y-95663128D02*
X172765190Y-95786937D01*
X172703286Y-95848842D01*
X172579476Y-95910747D01*
X172208048Y-95910747D01*
X172084238Y-95848842D01*
X172022333Y-95786937D01*
X171960429Y-95663128D01*
X171960429Y-95477414D01*
X172022333Y-95353604D01*
X172084238Y-95291699D01*
X172208048Y-95229795D01*
X172579476Y-95229795D01*
X172703286Y-95291699D01*
X172765190Y-95353604D01*
X172827095Y-95477414D01*
X172827095Y-95663128D01*
X172827095Y-94486938D02*
X172765190Y-94610747D01*
X172641381Y-94672652D01*
X171527095Y-94672652D01*
X172765190Y-94053605D02*
X172827095Y-93929795D01*
X172827095Y-93682176D01*
X172765190Y-93558367D01*
X172641381Y-93496462D01*
X172579476Y-93496462D01*
X172455667Y-93558367D01*
X172393762Y-93682176D01*
X172393762Y-93867891D01*
X172331857Y-93991700D01*
X172208048Y-94053605D01*
X172146143Y-94053605D01*
X172022333Y-93991700D01*
X171960429Y-93867891D01*
X171960429Y-93682176D01*
X172022333Y-93558367D01*
X171589000Y-91267891D02*
X171527095Y-91391700D01*
X171527095Y-91577415D01*
X171589000Y-91763129D01*
X171712810Y-91886938D01*
X171836619Y-91948843D01*
X172084238Y-92010748D01*
X172269952Y-92010748D01*
X172517571Y-91948843D01*
X172641381Y-91886938D01*
X172765190Y-91763129D01*
X172827095Y-91577415D01*
X172827095Y-91453605D01*
X172765190Y-91267891D01*
X172703286Y-91205986D01*
X172269952Y-91205986D01*
X172269952Y-91453605D01*
X172827095Y-90648843D02*
X171960429Y-90648843D01*
X172208048Y-90648843D02*
X172084238Y-90586938D01*
X172022333Y-90525034D01*
X171960429Y-90401224D01*
X171960429Y-90277415D01*
X172827095Y-89658367D02*
X172765190Y-89782176D01*
X172703286Y-89844081D01*
X172579476Y-89905986D01*
X172208048Y-89905986D01*
X172084238Y-89844081D01*
X172022333Y-89782176D01*
X171960429Y-89658367D01*
X171960429Y-89472653D01*
X172022333Y-89348843D01*
X172084238Y-89286938D01*
X172208048Y-89225034D01*
X172579476Y-89225034D01*
X172703286Y-89286938D01*
X172765190Y-89348843D01*
X172827095Y-89472653D01*
X172827095Y-89658367D01*
X171960429Y-88110748D02*
X172827095Y-88110748D01*
X171960429Y-88667891D02*
X172641381Y-88667891D01*
X172765190Y-88605986D01*
X172827095Y-88482177D01*
X172827095Y-88296463D01*
X172765190Y-88172653D01*
X172703286Y-88110748D01*
X171960429Y-87491701D02*
X173260429Y-87491701D01*
X172022333Y-87491701D02*
X171960429Y-87367892D01*
X171960429Y-87120273D01*
X172022333Y-86996463D01*
X172084238Y-86934558D01*
X172208048Y-86872654D01*
X172579476Y-86872654D01*
X172703286Y-86934558D01*
X172765190Y-86996463D01*
X172827095Y-87120273D01*
X172827095Y-87367892D01*
X172765190Y-87491701D01*
X174977095Y-101884558D02*
X174977095Y-102503605D01*
X173677095Y-102503605D01*
X174977095Y-101451224D02*
X173677095Y-101451224D01*
X174977095Y-100708367D01*
X173677095Y-100708367D01*
X174977095Y-99470272D02*
X174977095Y-100089319D01*
X173677095Y-100089319D01*
X174915190Y-99098843D02*
X174977095Y-98913129D01*
X174977095Y-98603605D01*
X174915190Y-98479795D01*
X174853286Y-98417891D01*
X174729476Y-98355986D01*
X174605667Y-98355986D01*
X174481857Y-98417891D01*
X174419952Y-98479795D01*
X174358048Y-98603605D01*
X174296143Y-98851224D01*
X174234238Y-98975033D01*
X174172333Y-99036938D01*
X174048524Y-99098843D01*
X173924714Y-99098843D01*
X173800905Y-99036938D01*
X173739000Y-98975033D01*
X173677095Y-98851224D01*
X173677095Y-98541700D01*
X173739000Y-98355986D01*
X174481857Y-96808367D02*
X174481857Y-95817891D01*
X174915190Y-94270272D02*
X174977095Y-94084558D01*
X174977095Y-93775034D01*
X174915190Y-93651224D01*
X174853286Y-93589320D01*
X174729476Y-93527415D01*
X174605667Y-93527415D01*
X174481857Y-93589320D01*
X174419952Y-93651224D01*
X174358048Y-93775034D01*
X174296143Y-94022653D01*
X174234238Y-94146462D01*
X174172333Y-94208367D01*
X174048524Y-94270272D01*
X173924714Y-94270272D01*
X173800905Y-94208367D01*
X173739000Y-94146462D01*
X173677095Y-94022653D01*
X173677095Y-93713129D01*
X173739000Y-93527415D01*
X174977095Y-92970272D02*
X173677095Y-92970272D01*
X173677095Y-92475034D01*
X173739000Y-92351225D01*
X173800905Y-92289320D01*
X173924714Y-92227415D01*
X174110429Y-92227415D01*
X174234238Y-92289320D01*
X174296143Y-92351225D01*
X174358048Y-92475034D01*
X174358048Y-92970272D01*
X174977095Y-91670272D02*
X173677095Y-91670272D01*
X174977095Y-91175034D02*
X174110429Y-90494081D01*
X174110429Y-91175034D02*
X174977095Y-90494081D01*
X174853286Y-89255986D02*
X174915190Y-89317891D01*
X174977095Y-89503605D01*
X174977095Y-89627415D01*
X174915190Y-89813129D01*
X174791381Y-89936938D01*
X174667571Y-89998843D01*
X174419952Y-90060748D01*
X174234238Y-90060748D01*
X173986619Y-89998843D01*
X173862810Y-89936938D01*
X173739000Y-89813129D01*
X173677095Y-89627415D01*
X173677095Y-89503605D01*
X173739000Y-89317891D01*
X173800905Y-89255986D01*
X173677095Y-88451224D02*
X173677095Y-88203605D01*
X173739000Y-88079796D01*
X173862810Y-87955986D01*
X174110429Y-87894081D01*
X174543762Y-87894081D01*
X174791381Y-87955986D01*
X174915190Y-88079796D01*
X174977095Y-88203605D01*
X174977095Y-88451224D01*
X174915190Y-88575034D01*
X174791381Y-88698843D01*
X174543762Y-88760748D01*
X174110429Y-88760748D01*
X173862810Y-88698843D01*
X173739000Y-88575034D01*
X173677095Y-88451224D01*
X174977095Y-87336938D02*
X173677095Y-87336938D01*
X174977095Y-86594081D01*
X173677095Y-86594081D01*
X173677095Y-86160747D02*
X174977095Y-85727414D01*
X173677095Y-85294081D01*
X175889000Y-100182176D02*
X175827095Y-100305985D01*
X175827095Y-100491700D01*
X175889000Y-100677414D01*
X176012810Y-100801223D01*
X176136619Y-100863128D01*
X176384238Y-100925033D01*
X176569952Y-100925033D01*
X176817571Y-100863128D01*
X176941381Y-100801223D01*
X177065190Y-100677414D01*
X177127095Y-100491700D01*
X177127095Y-100367890D01*
X177065190Y-100182176D01*
X177003286Y-100120271D01*
X176569952Y-100120271D01*
X176569952Y-100367890D01*
X177127095Y-99563128D02*
X175827095Y-99563128D01*
X175827095Y-99067890D01*
X175889000Y-98944081D01*
X175950905Y-98882176D01*
X176074714Y-98820271D01*
X176260429Y-98820271D01*
X176384238Y-98882176D01*
X176446143Y-98944081D01*
X176508048Y-99067890D01*
X176508048Y-99563128D01*
X177127095Y-98263128D02*
X175827095Y-98263128D01*
X175827095Y-97396461D02*
X175827095Y-97148842D01*
X175889000Y-97025033D01*
X176012810Y-96901223D01*
X176260429Y-96839318D01*
X176693762Y-96839318D01*
X176941381Y-96901223D01*
X177065190Y-97025033D01*
X177127095Y-97148842D01*
X177127095Y-97396461D01*
X177065190Y-97520271D01*
X176941381Y-97644080D01*
X176693762Y-97705985D01*
X176260429Y-97705985D01*
X176012810Y-97644080D01*
X175889000Y-97520271D01*
X175827095Y-97396461D01*
X177065190Y-94796461D02*
X177127095Y-94920271D01*
X177127095Y-95167890D01*
X177065190Y-95291699D01*
X176941381Y-95353604D01*
X176446143Y-95353604D01*
X176322333Y-95291699D01*
X176260429Y-95167890D01*
X176260429Y-94920271D01*
X176322333Y-94796461D01*
X176446143Y-94734556D01*
X176569952Y-94734556D01*
X176693762Y-95353604D01*
X177127095Y-94301223D02*
X176260429Y-93620270D01*
X176260429Y-94301223D02*
X177127095Y-93620270D01*
X176260429Y-93125032D02*
X177560429Y-93125032D01*
X176322333Y-93125032D02*
X176260429Y-93001223D01*
X176260429Y-92753604D01*
X176322333Y-92629794D01*
X176384238Y-92567889D01*
X176508048Y-92505985D01*
X176879476Y-92505985D01*
X177003286Y-92567889D01*
X177065190Y-92629794D01*
X177127095Y-92753604D01*
X177127095Y-93001223D01*
X177065190Y-93125032D01*
X177127095Y-91391699D02*
X176446143Y-91391699D01*
X176322333Y-91453604D01*
X176260429Y-91577414D01*
X176260429Y-91825033D01*
X176322333Y-91948842D01*
X177065190Y-91391699D02*
X177127095Y-91515509D01*
X177127095Y-91825033D01*
X177065190Y-91948842D01*
X176941381Y-92010747D01*
X176817571Y-92010747D01*
X176693762Y-91948842D01*
X176631857Y-91825033D01*
X176631857Y-91515509D01*
X176569952Y-91391699D01*
X176260429Y-90772652D02*
X177127095Y-90772652D01*
X176384238Y-90772652D02*
X176322333Y-90710747D01*
X176260429Y-90586938D01*
X176260429Y-90401224D01*
X176322333Y-90277414D01*
X176446143Y-90215509D01*
X177127095Y-90215509D01*
X177127095Y-89039319D02*
X175827095Y-89039319D01*
X177065190Y-89039319D02*
X177127095Y-89163129D01*
X177127095Y-89410748D01*
X177065190Y-89534557D01*
X177003286Y-89596462D01*
X176879476Y-89658367D01*
X176508048Y-89658367D01*
X176384238Y-89596462D01*
X176322333Y-89534557D01*
X176260429Y-89410748D01*
X176260429Y-89163129D01*
X176322333Y-89039319D01*
X177065190Y-87925034D02*
X177127095Y-88048844D01*
X177127095Y-88296463D01*
X177065190Y-88420272D01*
X176941381Y-88482177D01*
X176446143Y-88482177D01*
X176322333Y-88420272D01*
X176260429Y-88296463D01*
X176260429Y-88048844D01*
X176322333Y-87925034D01*
X176446143Y-87863129D01*
X176569952Y-87863129D01*
X176693762Y-88482177D01*
X177127095Y-87305986D02*
X176260429Y-87305986D01*
X176508048Y-87305986D02*
X176384238Y-87244081D01*
X176322333Y-87182177D01*
X176260429Y-87058367D01*
X176260429Y-86934558D01*
X178410429Y-104546461D02*
X179277095Y-104236937D01*
X178410429Y-103927413D01*
X179277095Y-102751223D02*
X179277095Y-103494080D01*
X179277095Y-103122651D02*
X177977095Y-103122651D01*
X178162810Y-103246461D01*
X178286619Y-103370270D01*
X178348524Y-103494080D01*
X179153286Y-102194080D02*
X179215190Y-102132175D01*
X179277095Y-102194080D01*
X179215190Y-102255985D01*
X179153286Y-102194080D01*
X179277095Y-102194080D01*
X178100905Y-101636937D02*
X178039000Y-101575032D01*
X177977095Y-101451223D01*
X177977095Y-101141699D01*
X178039000Y-101017889D01*
X178100905Y-100955985D01*
X178224714Y-100894080D01*
X178348524Y-100894080D01*
X178534238Y-100955985D01*
X179277095Y-101698842D01*
X179277095Y-100894080D01*
X179772333Y-98975033D02*
X179710429Y-99036937D01*
X179524714Y-99160747D01*
X179400905Y-99222652D01*
X179215190Y-99284556D01*
X178905667Y-99346461D01*
X178658048Y-99346461D01*
X178348524Y-99284556D01*
X178162810Y-99222652D01*
X178039000Y-99160747D01*
X177853286Y-99036937D01*
X177791381Y-98975033D01*
X178596143Y-98046461D02*
X178596143Y-98479794D01*
X179277095Y-98479794D02*
X177977095Y-98479794D01*
X177977095Y-97860747D01*
X179215190Y-96870270D02*
X179277095Y-96994080D01*
X179277095Y-97241699D01*
X179215190Y-97365508D01*
X179091381Y-97427413D01*
X178596143Y-97427413D01*
X178472333Y-97365508D01*
X178410429Y-97241699D01*
X178410429Y-96994080D01*
X178472333Y-96870270D01*
X178596143Y-96808365D01*
X178719952Y-96808365D01*
X178843762Y-97427413D01*
X179277095Y-96251222D02*
X177977095Y-96251222D01*
X178472333Y-96251222D02*
X178410429Y-96127413D01*
X178410429Y-95879794D01*
X178472333Y-95755984D01*
X178534238Y-95694079D01*
X178658048Y-95632175D01*
X179029476Y-95632175D01*
X179153286Y-95694079D01*
X179215190Y-95755984D01*
X179277095Y-95879794D01*
X179277095Y-96127413D01*
X179215190Y-96251222D01*
X179277095Y-95075032D02*
X178410429Y-95075032D01*
X178658048Y-95075032D02*
X178534238Y-95013127D01*
X178472333Y-94951223D01*
X178410429Y-94827413D01*
X178410429Y-94703604D01*
X178410429Y-93713127D02*
X179277095Y-93713127D01*
X178410429Y-94270270D02*
X179091381Y-94270270D01*
X179215190Y-94208365D01*
X179277095Y-94084556D01*
X179277095Y-93898842D01*
X179215190Y-93775032D01*
X179153286Y-93713127D01*
X179277095Y-92536937D02*
X178596143Y-92536937D01*
X178472333Y-92598842D01*
X178410429Y-92722652D01*
X178410429Y-92970271D01*
X178472333Y-93094080D01*
X179215190Y-92536937D02*
X179277095Y-92660747D01*
X179277095Y-92970271D01*
X179215190Y-93094080D01*
X179091381Y-93155985D01*
X178967571Y-93155985D01*
X178843762Y-93094080D01*
X178781857Y-92970271D01*
X178781857Y-92660747D01*
X178719952Y-92536937D01*
X179277095Y-91917890D02*
X178410429Y-91917890D01*
X178658048Y-91917890D02*
X178534238Y-91855985D01*
X178472333Y-91794081D01*
X178410429Y-91670271D01*
X178410429Y-91546462D01*
X178410429Y-91236938D02*
X179277095Y-90927414D01*
X178410429Y-90617890D02*
X179277095Y-90927414D01*
X179586619Y-91051223D01*
X179648524Y-91113128D01*
X179710429Y-91236938D01*
X177915190Y-89194081D02*
X179586619Y-90308366D01*
X178100905Y-88822652D02*
X178039000Y-88760747D01*
X177977095Y-88636938D01*
X177977095Y-88327414D01*
X178039000Y-88203604D01*
X178100905Y-88141700D01*
X178224714Y-88079795D01*
X178348524Y-88079795D01*
X178534238Y-88141700D01*
X179277095Y-88884557D01*
X179277095Y-88079795D01*
X177977095Y-87275033D02*
X177977095Y-87151224D01*
X178039000Y-87027414D01*
X178100905Y-86965509D01*
X178224714Y-86903605D01*
X178472333Y-86841700D01*
X178781857Y-86841700D01*
X179029476Y-86903605D01*
X179153286Y-86965509D01*
X179215190Y-87027414D01*
X179277095Y-87151224D01*
X179277095Y-87275033D01*
X179215190Y-87398843D01*
X179153286Y-87460747D01*
X179029476Y-87522652D01*
X178781857Y-87584557D01*
X178472333Y-87584557D01*
X178224714Y-87522652D01*
X178100905Y-87460747D01*
X178039000Y-87398843D01*
X177977095Y-87275033D01*
X179277095Y-85603605D02*
X179277095Y-86346462D01*
X179277095Y-85975033D02*
X177977095Y-85975033D01*
X178162810Y-86098843D01*
X178286619Y-86222652D01*
X178348524Y-86346462D01*
X178534238Y-84860748D02*
X178472333Y-84984557D01*
X178410429Y-85046462D01*
X178286619Y-85108367D01*
X178224714Y-85108367D01*
X178100905Y-85046462D01*
X178039000Y-84984557D01*
X177977095Y-84860748D01*
X177977095Y-84613129D01*
X178039000Y-84489319D01*
X178100905Y-84427415D01*
X178224714Y-84365510D01*
X178286619Y-84365510D01*
X178410429Y-84427415D01*
X178472333Y-84489319D01*
X178534238Y-84613129D01*
X178534238Y-84860748D01*
X178596143Y-84984557D01*
X178658048Y-85046462D01*
X178781857Y-85108367D01*
X179029476Y-85108367D01*
X179153286Y-85046462D01*
X179215190Y-84984557D01*
X179277095Y-84860748D01*
X179277095Y-84613129D01*
X179215190Y-84489319D01*
X179153286Y-84427415D01*
X179029476Y-84365510D01*
X178781857Y-84365510D01*
X178658048Y-84427415D01*
X178596143Y-84489319D01*
X178534238Y-84613129D01*
X179772333Y-83932177D02*
X179710429Y-83870272D01*
X179524714Y-83746462D01*
X179400905Y-83684558D01*
X179215190Y-83622653D01*
X178905667Y-83560748D01*
X178658048Y-83560748D01*
X178348524Y-83622653D01*
X178162810Y-83684558D01*
X178039000Y-83746462D01*
X177853286Y-83870272D01*
X177791381Y-83932177D01*
D10*
X-969100Y-97470600D02*
X30900Y-97470600D01*
X30900Y-95770600D02*
X-969100Y-95770600D01*
X-969100Y-99680400D02*
X30900Y-99680400D01*
X30900Y-97980400D02*
X-969100Y-97980400D01*
X1393100Y-46772200D02*
X2393100Y-46772200D01*
X2393100Y-45072200D02*
X1393100Y-45072200D01*
X1393100Y-49070900D02*
X2393100Y-49070900D01*
X2393100Y-47370900D02*
X1393100Y-47370900D01*
X22454400Y-37260800D02*
X22454400Y-70280800D01*
X17374400Y-39800800D02*
X17374400Y-70280800D01*
X22454400Y-70280800D02*
X17374400Y-70280800D01*
X22454400Y-37260800D02*
X19914400Y-37260800D01*
X18644400Y-36980800D02*
X17094400Y-36980800D01*
X19914400Y-37260800D02*
X19914400Y-39800800D01*
X19914400Y-39800800D02*
X17374400Y-39800800D01*
X17094400Y-36980800D02*
X17094400Y-38530800D01*
X11101400Y-60170600D02*
X11101400Y-93190600D01*
X6021400Y-62710600D02*
X6021400Y-93190600D01*
X11101400Y-93190600D02*
X6021400Y-93190600D01*
X11101400Y-60170600D02*
X8561400Y-60170600D01*
X7291400Y-59890600D02*
X5741400Y-59890600D01*
X8561400Y-60170600D02*
X8561400Y-62710600D01*
X8561400Y-62710600D02*
X6021400Y-62710600D01*
X5741400Y-59890600D02*
X5741400Y-61440600D01*
X22454400Y-116626800D02*
X22454400Y-91226800D01*
X17374400Y-93766800D02*
X17374400Y-116626800D01*
X22454400Y-116626800D02*
X17374400Y-116626800D01*
X22454400Y-91226800D02*
X19914400Y-91226800D01*
X18644400Y-90946800D02*
X17094400Y-90946800D01*
X19914400Y-91226800D02*
X19914400Y-93766800D01*
X19914400Y-93766800D02*
X17374400Y-93766800D01*
X17094400Y-90946800D02*
X17094400Y-92496800D01*
X4840400Y-48143800D02*
X4865400Y-48143800D01*
X12890400Y-48143800D02*
X12865400Y-48143800D01*
X12890400Y-52793800D02*
X12865400Y-52793800D01*
X4790400Y-53868800D02*
X4790400Y-48143800D01*
X12890400Y-52793800D02*
X12890400Y-48143800D01*
D15*
G36*
X-6677587Y-78273505D02*
X-6683237Y-78252812D01*
X-6701160Y-78162093D01*
X-6721297Y-78023177D01*
X-6739356Y-77865748D01*
X-6739723Y-77862043D01*
X-6755964Y-77718148D01*
X-6772504Y-77605212D01*
X-6786037Y-77545425D01*
X-6787241Y-77542977D01*
X-6824817Y-77544341D01*
X-6891103Y-77590459D01*
X-6899884Y-77598490D01*
X-6980471Y-77656884D01*
X-7019432Y-77655020D01*
X-7007049Y-77603986D01*
X-6954531Y-77536147D01*
X-6899863Y-77464701D01*
X-6885779Y-77417222D01*
X-6888006Y-77413799D01*
X-6935347Y-77399844D01*
X-7042477Y-77382548D01*
X-7191261Y-77364558D01*
X-7295212Y-77354332D01*
X-7503172Y-77334587D01*
X-7636316Y-77318854D01*
X-7697786Y-77305648D01*
X-7690727Y-77293490D01*
X-7618281Y-77280895D01*
X-7483592Y-77266383D01*
X-7482069Y-77266235D01*
X-7308403Y-77248861D01*
X-7134310Y-77230536D01*
X-7019560Y-77217751D01*
X-6830589Y-77195736D01*
X-6938557Y-77083041D01*
X-7005537Y-76997208D01*
X-7018354Y-76947477D01*
X-6983027Y-76944688D01*
X-6905572Y-76999679D01*
X-6896781Y-77007795D01*
X-6843880Y-77053392D01*
X-6807711Y-77065451D01*
X-6783376Y-77034147D01*
X-6765977Y-76949655D01*
X-6750617Y-76802151D01*
X-6741773Y-76696845D01*
X-6720280Y-76511313D01*
X-6692405Y-76395568D01*
X-6659191Y-76352475D01*
X-6625719Y-76377970D01*
X-6611141Y-76433898D01*
X-6594798Y-76546159D01*
X-6579697Y-76693078D01*
X-6576439Y-76733068D01*
X-6560531Y-76902085D01*
X-6541852Y-77001338D01*
X-6516152Y-77039202D01*
X-6479180Y-77024052D01*
X-6446531Y-76989070D01*
X-6390121Y-76939946D01*
X-6363592Y-76930454D01*
X-6330207Y-76956077D01*
X-6341949Y-77017484D01*
X-6392658Y-77091488D01*
X-6411185Y-77109677D01*
X-6493069Y-77183782D01*
X-6401415Y-77209531D01*
X-6307594Y-77226153D01*
X-6176162Y-77238459D01*
X-6114377Y-77241427D01*
X-5959488Y-77251775D01*
X-5806165Y-77270317D01*
X-5762685Y-77277785D01*
X-5685655Y-77293832D01*
X-5661754Y-77305152D01*
X-5698042Y-77315219D01*
X-5801576Y-77327508D01*
X-5879915Y-77335485D01*
X-6049189Y-77353115D01*
X-6214807Y-77371368D01*
X-6323917Y-77384228D01*
X-6494381Y-77405482D01*
X-6385382Y-77519253D01*
X-6318684Y-77604581D01*
X-6304427Y-77655408D01*
X-6337281Y-77660517D01*
X-6411916Y-77608689D01*
X-6423024Y-77598490D01*
X-6490896Y-77547798D01*
X-6532825Y-77540340D01*
X-6534972Y-77542977D01*
X-6548284Y-77596083D01*
X-6564820Y-77703035D01*
X-6579741Y-77829224D01*
X-6597716Y-77987336D01*
X-6617264Y-78135429D01*
X-6630510Y-78219993D01*
X-6647707Y-78307408D01*
X-6660421Y-78323391D01*
X-6677587Y-78273505D01*
X-6677587Y-78273505D01*
G37*
X-6677587Y-78273505D02*
X-6683237Y-78252812D01*
X-6701160Y-78162093D01*
X-6721297Y-78023177D01*
X-6739356Y-77865748D01*
X-6739723Y-77862043D01*
X-6755964Y-77718148D01*
X-6772504Y-77605212D01*
X-6786037Y-77545425D01*
X-6787241Y-77542977D01*
X-6824817Y-77544341D01*
X-6891103Y-77590459D01*
X-6899884Y-77598490D01*
X-6980471Y-77656884D01*
X-7019432Y-77655020D01*
X-7007049Y-77603986D01*
X-6954531Y-77536147D01*
X-6899863Y-77464701D01*
X-6885779Y-77417222D01*
X-6888006Y-77413799D01*
X-6935347Y-77399844D01*
X-7042477Y-77382548D01*
X-7191261Y-77364558D01*
X-7295212Y-77354332D01*
X-7503172Y-77334587D01*
X-7636316Y-77318854D01*
X-7697786Y-77305648D01*
X-7690727Y-77293490D01*
X-7618281Y-77280895D01*
X-7483592Y-77266383D01*
X-7482069Y-77266235D01*
X-7308403Y-77248861D01*
X-7134310Y-77230536D01*
X-7019560Y-77217751D01*
X-6830589Y-77195736D01*
X-6938557Y-77083041D01*
X-7005537Y-76997208D01*
X-7018354Y-76947477D01*
X-6983027Y-76944688D01*
X-6905572Y-76999679D01*
X-6896781Y-77007795D01*
X-6843880Y-77053392D01*
X-6807711Y-77065451D01*
X-6783376Y-77034147D01*
X-6765977Y-76949655D01*
X-6750617Y-76802151D01*
X-6741773Y-76696845D01*
X-6720280Y-76511313D01*
X-6692405Y-76395568D01*
X-6659191Y-76352475D01*
X-6625719Y-76377970D01*
X-6611141Y-76433898D01*
X-6594798Y-76546159D01*
X-6579697Y-76693078D01*
X-6576439Y-76733068D01*
X-6560531Y-76902085D01*
X-6541852Y-77001338D01*
X-6516152Y-77039202D01*
X-6479180Y-77024052D01*
X-6446531Y-76989070D01*
X-6390121Y-76939946D01*
X-6363592Y-76930454D01*
X-6330207Y-76956077D01*
X-6341949Y-77017484D01*
X-6392658Y-77091488D01*
X-6411185Y-77109677D01*
X-6493069Y-77183782D01*
X-6401415Y-77209531D01*
X-6307594Y-77226153D01*
X-6176162Y-77238459D01*
X-6114377Y-77241427D01*
X-5959488Y-77251775D01*
X-5806165Y-77270317D01*
X-5762685Y-77277785D01*
X-5685655Y-77293832D01*
X-5661754Y-77305152D01*
X-5698042Y-77315219D01*
X-5801576Y-77327508D01*
X-5879915Y-77335485D01*
X-6049189Y-77353115D01*
X-6214807Y-77371368D01*
X-6323917Y-77384228D01*
X-6494381Y-77405482D01*
X-6385382Y-77519253D01*
X-6318684Y-77604581D01*
X-6304427Y-77655408D01*
X-6337281Y-77660517D01*
X-6411916Y-77608689D01*
X-6423024Y-77598490D01*
X-6490896Y-77547798D01*
X-6532825Y-77540340D01*
X-6534972Y-77542977D01*
X-6548284Y-77596083D01*
X-6564820Y-77703035D01*
X-6579741Y-77829224D01*
X-6597716Y-77987336D01*
X-6617264Y-78135429D01*
X-6630510Y-78219993D01*
X-6647707Y-78307408D01*
X-6660421Y-78323391D01*
X-6677587Y-78273505D01*
G36*
X-8640769Y-77670326D02*
X-8715075Y-77658852D01*
X-8746310Y-77632936D01*
X-8752069Y-77594762D01*
X-8743126Y-77550364D01*
X-8704171Y-77526759D01*
X-8617014Y-77517602D01*
X-8527377Y-77516395D01*
X-8302685Y-77516181D01*
X-8566454Y-77357922D01*
X-8709833Y-77265763D01*
X-8793113Y-77194899D01*
X-8827577Y-77134807D01*
X-8830223Y-77111951D01*
X-8815615Y-77025959D01*
X-8763565Y-76971036D01*
X-8661736Y-76941275D01*
X-8497791Y-76930769D01*
X-8451177Y-76930454D01*
X-8303745Y-76932399D01*
X-8218034Y-76941227D01*
X-8177646Y-76961431D01*
X-8166184Y-76997503D01*
X-8165915Y-77008608D01*
X-8174182Y-77051588D01*
X-8210687Y-77075261D01*
X-8292992Y-77085284D01*
X-8410146Y-77087293D01*
X-8654377Y-77087823D01*
X-8410146Y-77232585D01*
X-8277978Y-77316149D01*
X-8202666Y-77380268D01*
X-8170384Y-77438848D01*
X-8165915Y-77478240D01*
X-8181443Y-77574713D01*
X-8236411Y-77634512D01*
X-8343401Y-77664840D01*
X-8505885Y-77672916D01*
X-8640769Y-77670326D01*
X-8640769Y-77670326D01*
G37*
X-8640769Y-77670326D02*
X-8715075Y-77658852D01*
X-8746310Y-77632936D01*
X-8752069Y-77594762D01*
X-8743126Y-77550364D01*
X-8704171Y-77526759D01*
X-8617014Y-77517602D01*
X-8527377Y-77516395D01*
X-8302685Y-77516181D01*
X-8566454Y-77357922D01*
X-8709833Y-77265763D01*
X-8793113Y-77194899D01*
X-8827577Y-77134807D01*
X-8830223Y-77111951D01*
X-8815615Y-77025959D01*
X-8763565Y-76971036D01*
X-8661736Y-76941275D01*
X-8497791Y-76930769D01*
X-8451177Y-76930454D01*
X-8303745Y-76932399D01*
X-8218034Y-76941227D01*
X-8177646Y-76961431D01*
X-8166184Y-76997503D01*
X-8165915Y-77008608D01*
X-8174182Y-77051588D01*
X-8210687Y-77075261D01*
X-8292992Y-77085284D01*
X-8410146Y-77087293D01*
X-8654377Y-77087823D01*
X-8410146Y-77232585D01*
X-8277978Y-77316149D01*
X-8202666Y-77380268D01*
X-8170384Y-77438848D01*
X-8165915Y-77478240D01*
X-8181443Y-77574713D01*
X-8236411Y-77634512D01*
X-8343401Y-77664840D01*
X-8505885Y-77672916D01*
X-8640769Y-77670326D01*
G36*
X-9246711Y-77670338D02*
X-9275254Y-77652845D01*
X-9290935Y-77605796D01*
X-9297607Y-77514554D01*
X-9299121Y-77364479D01*
X-9299146Y-77301685D01*
X-9298468Y-77129707D01*
X-9293864Y-77021244D01*
X-9281483Y-76961656D01*
X-9257472Y-76936304D01*
X-9217978Y-76930548D01*
X-9201454Y-76930454D01*
X-9156196Y-76933032D01*
X-9127653Y-76950526D01*
X-9111972Y-76997574D01*
X-9105301Y-77088816D01*
X-9103786Y-77238891D01*
X-9103761Y-77301685D01*
X-9104440Y-77473663D01*
X-9109043Y-77582126D01*
X-9121424Y-77641714D01*
X-9145436Y-77667067D01*
X-9184929Y-77672822D01*
X-9201454Y-77672916D01*
X-9246711Y-77670338D01*
X-9246711Y-77670338D01*
G37*
X-9246711Y-77670338D02*
X-9275254Y-77652845D01*
X-9290935Y-77605796D01*
X-9297607Y-77514554D01*
X-9299121Y-77364479D01*
X-9299146Y-77301685D01*
X-9298468Y-77129707D01*
X-9293864Y-77021244D01*
X-9281483Y-76961656D01*
X-9257472Y-76936304D01*
X-9217978Y-76930548D01*
X-9201454Y-76930454D01*
X-9156196Y-76933032D01*
X-9127653Y-76950526D01*
X-9111972Y-76997574D01*
X-9105301Y-77088816D01*
X-9103786Y-77238891D01*
X-9103761Y-77301685D01*
X-9104440Y-77473663D01*
X-9109043Y-77582126D01*
X-9121424Y-77641714D01*
X-9145436Y-77667067D01*
X-9184929Y-77672822D01*
X-9201454Y-77672916D01*
X-9246711Y-77670338D01*
G36*
X-10047538Y-77670326D02*
X-10121845Y-77658852D01*
X-10153079Y-77632936D01*
X-10158838Y-77594762D01*
X-10149510Y-77549597D01*
X-10109176Y-77526069D01*
X-10019316Y-77517442D01*
X-9943915Y-77516608D01*
X-9728992Y-77516608D01*
X-9728992Y-77223531D01*
X-9727146Y-77073685D01*
X-9718729Y-76985764D01*
X-9699422Y-76943572D01*
X-9664907Y-76930914D01*
X-9650838Y-76930454D01*
X-9612471Y-76936768D01*
X-9589207Y-76966012D01*
X-9577323Y-77033640D01*
X-9573096Y-77155104D01*
X-9572685Y-77254793D01*
X-9578583Y-77435938D01*
X-9595200Y-77564374D01*
X-9619577Y-77626024D01*
X-9683103Y-77651592D01*
X-9800000Y-77668409D01*
X-9912654Y-77672916D01*
X-10047538Y-77670326D01*
X-10047538Y-77670326D01*
G37*
X-10047538Y-77670326D02*
X-10121845Y-77658852D01*
X-10153079Y-77632936D01*
X-10158838Y-77594762D01*
X-10149510Y-77549597D01*
X-10109176Y-77526069D01*
X-10019316Y-77517442D01*
X-9943915Y-77516608D01*
X-9728992Y-77516608D01*
X-9728992Y-77223531D01*
X-9727146Y-77073685D01*
X-9718729Y-76985764D01*
X-9699422Y-76943572D01*
X-9664907Y-76930914D01*
X-9650838Y-76930454D01*
X-9612471Y-76936768D01*
X-9589207Y-76966012D01*
X-9577323Y-77033640D01*
X-9573096Y-77155104D01*
X-9572685Y-77254793D01*
X-9578583Y-77435938D01*
X-9595200Y-77564374D01*
X-9619577Y-77626024D01*
X-9683103Y-77651592D01*
X-9800000Y-77668409D01*
X-9912654Y-77672916D01*
X-10047538Y-77670326D01*
G36*
X-10575326Y-77670338D02*
X-10603869Y-77652845D01*
X-10619551Y-77605796D01*
X-10626222Y-77514554D01*
X-10627737Y-77364479D01*
X-10627761Y-77301685D01*
X-10627083Y-77129707D01*
X-10622479Y-77021244D01*
X-10610098Y-76961656D01*
X-10586087Y-76936304D01*
X-10546594Y-76930548D01*
X-10530069Y-76930454D01*
X-10484812Y-76933032D01*
X-10456269Y-76950526D01*
X-10440588Y-76997574D01*
X-10433916Y-77088816D01*
X-10432402Y-77238891D01*
X-10432377Y-77301685D01*
X-10433055Y-77473663D01*
X-10437659Y-77582126D01*
X-10450040Y-77641714D01*
X-10474051Y-77667067D01*
X-10513544Y-77672822D01*
X-10530069Y-77672916D01*
X-10575326Y-77670338D01*
X-10575326Y-77670338D01*
G37*
X-10575326Y-77670338D02*
X-10603869Y-77652845D01*
X-10619551Y-77605796D01*
X-10626222Y-77514554D01*
X-10627737Y-77364479D01*
X-10627761Y-77301685D01*
X-10627083Y-77129707D01*
X-10622479Y-77021244D01*
X-10610098Y-76961656D01*
X-10586087Y-76936304D01*
X-10546594Y-76930548D01*
X-10530069Y-76930454D01*
X-10484812Y-76933032D01*
X-10456269Y-76950526D01*
X-10440588Y-76997574D01*
X-10433916Y-77088816D01*
X-10432402Y-77238891D01*
X-10432377Y-77301685D01*
X-10433055Y-77473663D01*
X-10437659Y-77582126D01*
X-10450040Y-77641714D01*
X-10474051Y-77667067D01*
X-10513544Y-77672822D01*
X-10530069Y-77672916D01*
X-10575326Y-77670338D01*
G36*
X-11525821Y-77666602D02*
X-11549085Y-77637358D01*
X-11560969Y-77569730D01*
X-11565196Y-77448267D01*
X-11565608Y-77348577D01*
X-11559709Y-77167432D01*
X-11543092Y-77038996D01*
X-11518715Y-76977347D01*
X-11459623Y-76955199D01*
X-11349820Y-76939441D01*
X-11215408Y-76930992D01*
X-11082489Y-76930774D01*
X-10977163Y-76939704D01*
X-10927351Y-76956506D01*
X-10915692Y-77004894D01*
X-10906729Y-77112011D01*
X-10901823Y-77258444D01*
X-10901300Y-77327736D01*
X-10902652Y-77492983D01*
X-10908976Y-77595098D01*
X-10923667Y-77649089D01*
X-10950124Y-77669964D01*
X-10979454Y-77672916D01*
X-11019413Y-77665994D01*
X-11042858Y-77634430D01*
X-11054110Y-77562029D01*
X-11057485Y-77432595D01*
X-11057608Y-77379839D01*
X-11057608Y-77086762D01*
X-11409300Y-77086762D01*
X-11409300Y-77379839D01*
X-11411146Y-77529686D01*
X-11419563Y-77617607D01*
X-11438870Y-77659798D01*
X-11473386Y-77672456D01*
X-11487454Y-77672916D01*
X-11525821Y-77666602D01*
X-11525821Y-77666602D01*
G37*
X-11525821Y-77666602D02*
X-11549085Y-77637358D01*
X-11560969Y-77569730D01*
X-11565196Y-77448267D01*
X-11565608Y-77348577D01*
X-11559709Y-77167432D01*
X-11543092Y-77038996D01*
X-11518715Y-76977347D01*
X-11459623Y-76955199D01*
X-11349820Y-76939441D01*
X-11215408Y-76930992D01*
X-11082489Y-76930774D01*
X-10977163Y-76939704D01*
X-10927351Y-76956506D01*
X-10915692Y-77004894D01*
X-10906729Y-77112011D01*
X-10901823Y-77258444D01*
X-10901300Y-77327736D01*
X-10902652Y-77492983D01*
X-10908976Y-77595098D01*
X-10923667Y-77649089D01*
X-10950124Y-77669964D01*
X-10979454Y-77672916D01*
X-11019413Y-77665994D01*
X-11042858Y-77634430D01*
X-11054110Y-77562029D01*
X-11057485Y-77432595D01*
X-11057608Y-77379839D01*
X-11057608Y-77086762D01*
X-11409300Y-77086762D01*
X-11409300Y-77379839D01*
X-11411146Y-77529686D01*
X-11419563Y-77617607D01*
X-11438870Y-77659798D01*
X-11473386Y-77672456D01*
X-11487454Y-77672916D01*
X-11525821Y-77666602D01*
G36*
X-12314000Y-77670326D02*
X-12388306Y-77658852D01*
X-12419540Y-77632936D01*
X-12425300Y-77594762D01*
X-12416357Y-77550364D01*
X-12377402Y-77526759D01*
X-12290245Y-77517602D01*
X-12200608Y-77516395D01*
X-11975915Y-77516181D01*
X-12239685Y-77357922D01*
X-12383064Y-77265763D01*
X-12466344Y-77194899D01*
X-12500808Y-77134807D01*
X-12503454Y-77111951D01*
X-12488845Y-77025959D01*
X-12436795Y-76971036D01*
X-12334967Y-76941275D01*
X-12171022Y-76930769D01*
X-12124408Y-76930454D01*
X-11976976Y-76932399D01*
X-11891264Y-76941227D01*
X-11850876Y-76961431D01*
X-11839415Y-76997503D01*
X-11839146Y-77008608D01*
X-11847412Y-77051588D01*
X-11883918Y-77075261D01*
X-11966223Y-77085284D01*
X-12083377Y-77087293D01*
X-12327608Y-77087823D01*
X-12083377Y-77232585D01*
X-11951209Y-77316149D01*
X-11875897Y-77380268D01*
X-11843615Y-77438848D01*
X-11839146Y-77478240D01*
X-11854673Y-77574713D01*
X-11909642Y-77634512D01*
X-12016632Y-77664840D01*
X-12179115Y-77672916D01*
X-12314000Y-77670326D01*
X-12314000Y-77670326D01*
G37*
X-12314000Y-77670326D02*
X-12388306Y-77658852D01*
X-12419540Y-77632936D01*
X-12425300Y-77594762D01*
X-12416357Y-77550364D01*
X-12377402Y-77526759D01*
X-12290245Y-77517602D01*
X-12200608Y-77516395D01*
X-11975915Y-77516181D01*
X-12239685Y-77357922D01*
X-12383064Y-77265763D01*
X-12466344Y-77194899D01*
X-12500808Y-77134807D01*
X-12503454Y-77111951D01*
X-12488845Y-77025959D01*
X-12436795Y-76971036D01*
X-12334967Y-76941275D01*
X-12171022Y-76930769D01*
X-12124408Y-76930454D01*
X-11976976Y-76932399D01*
X-11891264Y-76941227D01*
X-11850876Y-76961431D01*
X-11839415Y-76997503D01*
X-11839146Y-77008608D01*
X-11847412Y-77051588D01*
X-11883918Y-77075261D01*
X-11966223Y-77085284D01*
X-12083377Y-77087293D01*
X-12327608Y-77087823D01*
X-12083377Y-77232585D01*
X-11951209Y-77316149D01*
X-11875897Y-77380268D01*
X-11843615Y-77438848D01*
X-11839146Y-77478240D01*
X-11854673Y-77574713D01*
X-11909642Y-77634512D01*
X-12016632Y-77664840D01*
X-12179115Y-77672916D01*
X-12314000Y-77670326D01*
G36*
X-6290223Y-77731531D02*
X-6270685Y-77711993D01*
X-6251146Y-77731531D01*
X-6270685Y-77751070D01*
X-6290223Y-77731531D01*
X-6290223Y-77731531D01*
G37*
X-6290223Y-77731531D02*
X-6270685Y-77711993D01*
X-6251146Y-77731531D01*
X-6270685Y-77751070D01*
X-6290223Y-77731531D01*
G36*
X-9278060Y-78084445D02*
X-9299146Y-78024608D01*
X-9276250Y-77963323D01*
X-9201454Y-77946454D01*
X-9124847Y-77964771D01*
X-9103761Y-78024608D01*
X-9126658Y-78085894D01*
X-9201454Y-78102762D01*
X-9278060Y-78084445D01*
X-9278060Y-78084445D01*
G37*
X-9278060Y-78084445D02*
X-9299146Y-78024608D01*
X-9276250Y-77963323D01*
X-9201454Y-77946454D01*
X-9124847Y-77964771D01*
X-9103761Y-78024608D01*
X-9126658Y-78085894D01*
X-9201454Y-78102762D01*
X-9278060Y-78084445D01*
G36*
X-10606676Y-78084445D02*
X-10627761Y-78024608D01*
X-10604865Y-77963323D01*
X-10530069Y-77946454D01*
X-10453462Y-77964771D01*
X-10432377Y-78024608D01*
X-10455273Y-78085894D01*
X-10530069Y-78102762D01*
X-10606676Y-78084445D01*
X-10606676Y-78084445D01*
G37*
X-10606676Y-78084445D02*
X-10627761Y-78024608D01*
X-10604865Y-77963323D01*
X-10530069Y-77946454D01*
X-10453462Y-77964771D01*
X-10432377Y-78024608D01*
X-10455273Y-78085894D01*
X-10530069Y-78102762D01*
X-10606676Y-78084445D01*
G36*
X-12620685Y-78493531D02*
X2033162Y-78493531D01*
X2033162Y-78806147D01*
X-12620685Y-78806147D01*
X-12620685Y-78493531D01*
X-12620685Y-78493531D01*
G37*
X-12620685Y-78493531D02*
X2033162Y-78493531D01*
X2033162Y-78806147D01*
X-12620685Y-78806147D01*
X-12620685Y-78493531D01*
G36*
X1368854Y-80640986D02*
X1369125Y-80361067D01*
X1363552Y-80149634D01*
X1342556Y-79997107D01*
X1296558Y-79893906D01*
X1215977Y-79830452D01*
X1091235Y-79797165D01*
X912752Y-79784467D01*
X670948Y-79782777D01*
X510938Y-79783070D01*
X-155146Y-79783070D01*
X-155146Y-79431377D01*
X676728Y-79431377D01*
X954595Y-79431818D01*
X1166310Y-79433839D01*
X1323870Y-79438489D01*
X1439276Y-79446817D01*
X1524526Y-79459870D01*
X1591619Y-79478698D01*
X1652555Y-79504348D01*
X1682959Y-79519300D01*
X1832181Y-79621259D01*
X1936632Y-79764930D01*
X1945239Y-79781580D01*
X1977473Y-79851055D01*
X2000734Y-79921248D01*
X2016470Y-80006146D01*
X2026126Y-80119730D01*
X2031149Y-80275985D01*
X2032985Y-80488895D01*
X2033162Y-80631504D01*
X2033162Y-81307070D01*
X1368854Y-81307070D01*
X1368854Y-80640986D01*
X1368854Y-80640986D01*
G37*
X1368854Y-80640986D02*
X1369125Y-80361067D01*
X1363552Y-80149634D01*
X1342556Y-79997107D01*
X1296558Y-79893906D01*
X1215977Y-79830452D01*
X1091235Y-79797165D01*
X912752Y-79784467D01*
X670948Y-79782777D01*
X510938Y-79783070D01*
X-155146Y-79783070D01*
X-155146Y-79431377D01*
X676728Y-79431377D01*
X954595Y-79431818D01*
X1166310Y-79433839D01*
X1323870Y-79438489D01*
X1439276Y-79446817D01*
X1524526Y-79459870D01*
X1591619Y-79478698D01*
X1652555Y-79504348D01*
X1682959Y-79519300D01*
X1832181Y-79621259D01*
X1936632Y-79764930D01*
X1945239Y-79781580D01*
X1977473Y-79851055D01*
X2000734Y-79921248D01*
X2016470Y-80006146D01*
X2026126Y-80119730D01*
X2031149Y-80275985D01*
X2032985Y-80488895D01*
X2033162Y-80631504D01*
X2033162Y-81307070D01*
X1368854Y-81307070D01*
X1368854Y-80640986D01*
G36*
X-4414531Y-79431377D02*
X-3848778Y-79431377D01*
X-3213347Y-80065933D01*
X-2577915Y-80700489D01*
X-2577915Y-79431377D01*
X-1952685Y-79431377D01*
X-1952685Y-81307070D01*
X-2216454Y-81306184D01*
X-2480223Y-81305297D01*
X-3750223Y-80088473D01*
X-3750223Y-81307070D01*
X-4414531Y-81307070D01*
X-4414531Y-79431377D01*
X-4414531Y-79431377D01*
G37*
X-4414531Y-79431377D02*
X-3848778Y-79431377D01*
X-3213347Y-80065933D01*
X-2577915Y-80700489D01*
X-2577915Y-79431377D01*
X-1952685Y-79431377D01*
X-1952685Y-81307070D01*
X-2216454Y-81306184D01*
X-2480223Y-81305297D01*
X-3750223Y-80088473D01*
X-3750223Y-81307070D01*
X-4414531Y-81307070D01*
X-4414531Y-79431377D01*
G36*
X-6993608Y-80640986D02*
X-6993967Y-80398151D01*
X-6996098Y-80220927D01*
X-7001579Y-80096769D01*
X-7011989Y-80013133D01*
X-7028907Y-79957477D01*
X-7053912Y-79917256D01*
X-7088584Y-79879926D01*
X-7089524Y-79878986D01*
X-7126936Y-79844069D01*
X-7166946Y-79818856D01*
X-7222098Y-79801766D01*
X-7304935Y-79791222D01*
X-7428002Y-79785644D01*
X-7603841Y-79783453D01*
X-7844996Y-79783070D01*
X-8517608Y-79783070D01*
X-8517608Y-79431377D01*
X-7685734Y-79431377D01*
X-7407866Y-79431818D01*
X-7196152Y-79433839D01*
X-7038591Y-79438489D01*
X-6923186Y-79446817D01*
X-6837936Y-79459870D01*
X-6770842Y-79478698D01*
X-6709907Y-79504348D01*
X-6679503Y-79519300D01*
X-6530281Y-79621259D01*
X-6425829Y-79764930D01*
X-6417223Y-79781580D01*
X-6384989Y-79851055D01*
X-6361727Y-79921248D01*
X-6345992Y-80006146D01*
X-6336336Y-80119730D01*
X-6331313Y-80275985D01*
X-6329476Y-80488895D01*
X-6329300Y-80631504D01*
X-6329300Y-81307070D01*
X-6993608Y-81307070D01*
X-6993608Y-80640986D01*
X-6993608Y-80640986D01*
G37*
X-6993608Y-80640986D02*
X-6993967Y-80398151D01*
X-6996098Y-80220927D01*
X-7001579Y-80096769D01*
X-7011989Y-80013133D01*
X-7028907Y-79957477D01*
X-7053912Y-79917256D01*
X-7088584Y-79879926D01*
X-7089524Y-79878986D01*
X-7126936Y-79844069D01*
X-7166946Y-79818856D01*
X-7222098Y-79801766D01*
X-7304935Y-79791222D01*
X-7428002Y-79785644D01*
X-7603841Y-79783453D01*
X-7844996Y-79783070D01*
X-8517608Y-79783070D01*
X-8517608Y-79431377D01*
X-7685734Y-79431377D01*
X-7407866Y-79431818D01*
X-7196152Y-79433839D01*
X-7038591Y-79438489D01*
X-6923186Y-79446817D01*
X-6837936Y-79459870D01*
X-6770842Y-79478698D01*
X-6709907Y-79504348D01*
X-6679503Y-79519300D01*
X-6530281Y-79621259D01*
X-6425829Y-79764930D01*
X-6417223Y-79781580D01*
X-6384989Y-79851055D01*
X-6361727Y-79921248D01*
X-6345992Y-80006146D01*
X-6336336Y-80119730D01*
X-6331313Y-80275985D01*
X-6329476Y-80488895D01*
X-6329300Y-80631504D01*
X-6329300Y-81307070D01*
X-6993608Y-81307070D01*
X-6993608Y-80640986D01*
G36*
X-12464377Y-80955377D02*
X-10903102Y-80955377D01*
X-10840808Y-80860306D01*
X-10805742Y-80748938D01*
X-10842625Y-80647568D01*
X-10945387Y-80570759D01*
X-10964835Y-80562738D01*
X-11037485Y-80549628D01*
X-11171743Y-80538522D01*
X-11351070Y-80530314D01*
X-11558929Y-80525897D01*
X-11656075Y-80525385D01*
X-11889638Y-80524282D01*
X-12059430Y-80520059D01*
X-12179817Y-80511146D01*
X-12265164Y-80495971D01*
X-12329840Y-80472965D01*
X-12378805Y-80446376D01*
X-12511180Y-80323258D01*
X-12591849Y-80159302D01*
X-12616422Y-79975872D01*
X-12580508Y-79794333D01*
X-12531982Y-79700925D01*
X-12474885Y-79621869D01*
X-12414962Y-79559946D01*
X-12342269Y-79513076D01*
X-12246861Y-79479179D01*
X-12118793Y-79456178D01*
X-11948123Y-79441991D01*
X-11724904Y-79434540D01*
X-11439193Y-79431745D01*
X-11243223Y-79431438D01*
X-10315146Y-79431377D01*
X-10315146Y-79783070D01*
X-11071090Y-79783070D01*
X-11334821Y-79783679D01*
X-11531486Y-79786150D01*
X-11672166Y-79791448D01*
X-11767943Y-79800538D01*
X-11829899Y-79814385D01*
X-11869116Y-79833953D01*
X-11891705Y-79854531D01*
X-11949808Y-79964467D01*
X-11937401Y-80073346D01*
X-11869528Y-80152085D01*
X-11820030Y-80176192D01*
X-11743362Y-80193285D01*
X-11627511Y-80204399D01*
X-11460461Y-80210572D01*
X-11230199Y-80212838D01*
X-11164203Y-80212916D01*
X-10892327Y-80215318D01*
X-10686323Y-80224680D01*
X-10533999Y-80244231D01*
X-10423162Y-80277203D01*
X-10341618Y-80326827D01*
X-10277176Y-80396334D01*
X-10235410Y-80459044D01*
X-10174007Y-80624028D01*
X-10162404Y-80813041D01*
X-10200766Y-80991524D01*
X-10232525Y-81056197D01*
X-10282171Y-81129144D01*
X-10338241Y-81186485D01*
X-10410281Y-81230079D01*
X-10507840Y-81261782D01*
X-10640466Y-81283450D01*
X-10817706Y-81296940D01*
X-11049108Y-81304108D01*
X-11344221Y-81306812D01*
X-11522667Y-81307070D01*
X-12464377Y-81307070D01*
X-12464377Y-80955377D01*
X-12464377Y-80955377D01*
G37*
X-12464377Y-80955377D02*
X-10903102Y-80955377D01*
X-10840808Y-80860306D01*
X-10805742Y-80748938D01*
X-10842625Y-80647568D01*
X-10945387Y-80570759D01*
X-10964835Y-80562738D01*
X-11037485Y-80549628D01*
X-11171743Y-80538522D01*
X-11351070Y-80530314D01*
X-11558929Y-80525897D01*
X-11656075Y-80525385D01*
X-11889638Y-80524282D01*
X-12059430Y-80520059D01*
X-12179817Y-80511146D01*
X-12265164Y-80495971D01*
X-12329840Y-80472965D01*
X-12378805Y-80446376D01*
X-12511180Y-80323258D01*
X-12591849Y-80159302D01*
X-12616422Y-79975872D01*
X-12580508Y-79794333D01*
X-12531982Y-79700925D01*
X-12474885Y-79621869D01*
X-12414962Y-79559946D01*
X-12342269Y-79513076D01*
X-12246861Y-79479179D01*
X-12118793Y-79456178D01*
X-11948123Y-79441991D01*
X-11724904Y-79434540D01*
X-11439193Y-79431745D01*
X-11243223Y-79431438D01*
X-10315146Y-79431377D01*
X-10315146Y-79783070D01*
X-11071090Y-79783070D01*
X-11334821Y-79783679D01*
X-11531486Y-79786150D01*
X-11672166Y-79791448D01*
X-11767943Y-79800538D01*
X-11829899Y-79814385D01*
X-11869116Y-79833953D01*
X-11891705Y-79854531D01*
X-11949808Y-79964467D01*
X-11937401Y-80073346D01*
X-11869528Y-80152085D01*
X-11820030Y-80176192D01*
X-11743362Y-80193285D01*
X-11627511Y-80204399D01*
X-11460461Y-80210572D01*
X-11230199Y-80212838D01*
X-11164203Y-80212916D01*
X-10892327Y-80215318D01*
X-10686323Y-80224680D01*
X-10533999Y-80244231D01*
X-10423162Y-80277203D01*
X-10341618Y-80326827D01*
X-10277176Y-80396334D01*
X-10235410Y-80459044D01*
X-10174007Y-80624028D01*
X-10162404Y-80813041D01*
X-10200766Y-80991524D01*
X-10232525Y-81056197D01*
X-10282171Y-81129144D01*
X-10338241Y-81186485D01*
X-10410281Y-81230079D01*
X-10507840Y-81261782D01*
X-10640466Y-81283450D01*
X-10817706Y-81296940D01*
X-11049108Y-81304108D01*
X-11344221Y-81306812D01*
X-11522667Y-81307070D01*
X-12464377Y-81307070D01*
X-12464377Y-80955377D01*
G36*
X-12718377Y-81834608D02*
X-5302343Y-81824738D01*
X-4376427Y-81823597D01*
X-3525854Y-81822751D01*
X-2747815Y-81822214D01*
X-2039501Y-81822002D01*
X-1398100Y-81822130D01*
X-820804Y-81822611D01*
X-304804Y-81823461D01*
X152712Y-81824695D01*
X554553Y-81826327D01*
X903527Y-81828372D01*
X1202446Y-81830845D01*
X1454119Y-81833761D01*
X1661355Y-81837134D01*
X1826965Y-81840980D01*
X1953758Y-81845312D01*
X2044543Y-81850146D01*
X2102131Y-81855497D01*
X2129332Y-81861379D01*
X2132308Y-81863815D01*
X2134332Y-81907749D01*
X2136168Y-82025609D01*
X2137811Y-82213170D01*
X2139255Y-82466204D01*
X2140494Y-82780485D01*
X2141522Y-83151787D01*
X2142333Y-83575881D01*
X2142922Y-84048543D01*
X2143282Y-84565544D01*
X2143408Y-85122658D01*
X2143293Y-85715660D01*
X2142933Y-86340321D01*
X2142320Y-86992415D01*
X2141449Y-87667716D01*
X2140890Y-88028300D01*
X2131271Y-93889839D01*
X1876854Y-93889839D01*
X1876854Y-82088608D01*
X919469Y-82088608D01*
X655239Y-82089042D01*
X418946Y-82090261D01*
X221159Y-82092142D01*
X72449Y-82094563D01*
X-16617Y-82097400D01*
X-37915Y-82099732D01*
X-25589Y-82139236D01*
X6574Y-82231339D01*
X47201Y-82343963D01*
X110966Y-82587446D01*
X147291Y-82875691D01*
X155445Y-83180012D01*
X134697Y-83471723D01*
X84316Y-83722137D01*
X82479Y-83728251D01*
X-73815Y-84116202D01*
X-290480Y-84462459D01*
X-559967Y-84761326D01*
X-874726Y-85007105D01*
X-1227208Y-85194100D01*
X-1609863Y-85316615D01*
X-2015142Y-85368952D01*
X-2093889Y-85370492D01*
X-2408478Y-85355546D01*
X-2684621Y-85304056D01*
X-2956557Y-85208197D01*
X-3105454Y-85139311D01*
X-3468915Y-84919085D01*
X-3777593Y-84647199D01*
X-4027622Y-84330774D01*
X-4215141Y-83976930D01*
X-4336284Y-83592789D01*
X-4387188Y-83185471D01*
X-4370182Y-82808384D01*
X-4340579Y-82628418D01*
X-4299082Y-82447126D01*
X-4256694Y-82309643D01*
X-4214617Y-82197331D01*
X-4186792Y-82119975D01*
X-4180089Y-82098377D01*
X-4218094Y-82096715D01*
X-4327846Y-82095141D01*
X-4502937Y-82093681D01*
X-4736959Y-82092358D01*
X-5023505Y-82091196D01*
X-5356167Y-82090220D01*
X-5728537Y-82089453D01*
X-6134209Y-82088919D01*
X-6566775Y-82088642D01*
X-6785083Y-82088608D01*
X-9390097Y-82088608D01*
X-8905006Y-82580542D01*
X-8224778Y-83225273D01*
X-7530049Y-83793948D01*
X-6818905Y-84287643D01*
X-6089432Y-84707436D01*
X-5339717Y-85054403D01*
X-4567845Y-85329623D01*
X-3771903Y-85534172D01*
X-3593915Y-85569694D01*
X-3375615Y-85611684D01*
X-3181737Y-85650141D01*
X-3026403Y-85682172D01*
X-2923737Y-85704882D01*
X-2890531Y-85713774D01*
X-2888318Y-85731074D01*
X-2955347Y-85752470D01*
X-3082887Y-85776725D01*
X-3262209Y-85802604D01*
X-3484581Y-85828869D01*
X-3741274Y-85854284D01*
X-4023557Y-85877614D01*
X-4073344Y-85881275D01*
X-4920864Y-85904189D01*
X-5779854Y-85852775D01*
X-6643290Y-85728644D01*
X-7504150Y-85533402D01*
X-8355410Y-85268657D01*
X-9190048Y-84936019D01*
X-10001040Y-84537094D01*
X-10042665Y-84514440D01*
X-10213341Y-84419729D01*
X-10435808Y-84294216D01*
X-10694528Y-84146783D01*
X-10973962Y-83986314D01*
X-11258574Y-83821691D01*
X-11475732Y-83695201D01*
X-11721417Y-83552048D01*
X-11944871Y-83422716D01*
X-12137297Y-83312226D01*
X-12289898Y-83225601D01*
X-12393876Y-83167862D01*
X-12440436Y-83144031D01*
X-12441828Y-83143685D01*
X-12444520Y-83182018D01*
X-12447119Y-83294044D01*
X-12449608Y-83475300D01*
X-12451969Y-83721326D01*
X-12454181Y-84027658D01*
X-12456227Y-84389837D01*
X-12458088Y-84803401D01*
X-12459744Y-85263887D01*
X-12461178Y-85766834D01*
X-12462371Y-86307781D01*
X-12463304Y-86882267D01*
X-12463957Y-87485828D01*
X-12464314Y-88114005D01*
X-12464377Y-88516762D01*
X-12464377Y-93889839D01*
X1876854Y-93889839D01*
X2131271Y-93889839D01*
X2130854Y-94143839D01*
X-12718377Y-94143839D01*
X-12718377Y-81834608D01*
X-12718377Y-81834608D01*
G37*
X-12718377Y-81834608D02*
X-5302343Y-81824738D01*
X-4376427Y-81823597D01*
X-3525854Y-81822751D01*
X-2747815Y-81822214D01*
X-2039501Y-81822002D01*
X-1398100Y-81822130D01*
X-820804Y-81822611D01*
X-304804Y-81823461D01*
X152712Y-81824695D01*
X554553Y-81826327D01*
X903527Y-81828372D01*
X1202446Y-81830845D01*
X1454119Y-81833761D01*
X1661355Y-81837134D01*
X1826965Y-81840980D01*
X1953758Y-81845312D01*
X2044543Y-81850146D01*
X2102131Y-81855497D01*
X2129332Y-81861379D01*
X2132308Y-81863815D01*
X2134332Y-81907749D01*
X2136168Y-82025609D01*
X2137811Y-82213170D01*
X2139255Y-82466204D01*
X2140494Y-82780485D01*
X2141522Y-83151787D01*
X2142333Y-83575881D01*
X2142922Y-84048543D01*
X2143282Y-84565544D01*
X2143408Y-85122658D01*
X2143293Y-85715660D01*
X2142933Y-86340321D01*
X2142320Y-86992415D01*
X2141449Y-87667716D01*
X2140890Y-88028300D01*
X2131271Y-93889839D01*
X1876854Y-93889839D01*
X1876854Y-82088608D01*
X919469Y-82088608D01*
X655239Y-82089042D01*
X418946Y-82090261D01*
X221159Y-82092142D01*
X72449Y-82094563D01*
X-16617Y-82097400D01*
X-37915Y-82099732D01*
X-25589Y-82139236D01*
X6574Y-82231339D01*
X47201Y-82343963D01*
X110966Y-82587446D01*
X147291Y-82875691D01*
X155445Y-83180012D01*
X134697Y-83471723D01*
X84316Y-83722137D01*
X82479Y-83728251D01*
X-73815Y-84116202D01*
X-290480Y-84462459D01*
X-559967Y-84761326D01*
X-874726Y-85007105D01*
X-1227208Y-85194100D01*
X-1609863Y-85316615D01*
X-2015142Y-85368952D01*
X-2093889Y-85370492D01*
X-2408478Y-85355546D01*
X-2684621Y-85304056D01*
X-2956557Y-85208197D01*
X-3105454Y-85139311D01*
X-3468915Y-84919085D01*
X-3777593Y-84647199D01*
X-4027622Y-84330774D01*
X-4215141Y-83976930D01*
X-4336284Y-83592789D01*
X-4387188Y-83185471D01*
X-4370182Y-82808384D01*
X-4340579Y-82628418D01*
X-4299082Y-82447126D01*
X-4256694Y-82309643D01*
X-4214617Y-82197331D01*
X-4186792Y-82119975D01*
X-4180089Y-82098377D01*
X-4218094Y-82096715D01*
X-4327846Y-82095141D01*
X-4502937Y-82093681D01*
X-4736959Y-82092358D01*
X-5023505Y-82091196D01*
X-5356167Y-82090220D01*
X-5728537Y-82089453D01*
X-6134209Y-82088919D01*
X-6566775Y-82088642D01*
X-6785083Y-82088608D01*
X-9390097Y-82088608D01*
X-8905006Y-82580542D01*
X-8224778Y-83225273D01*
X-7530049Y-83793948D01*
X-6818905Y-84287643D01*
X-6089432Y-84707436D01*
X-5339717Y-85054403D01*
X-4567845Y-85329623D01*
X-3771903Y-85534172D01*
X-3593915Y-85569694D01*
X-3375615Y-85611684D01*
X-3181737Y-85650141D01*
X-3026403Y-85682172D01*
X-2923737Y-85704882D01*
X-2890531Y-85713774D01*
X-2888318Y-85731074D01*
X-2955347Y-85752470D01*
X-3082887Y-85776725D01*
X-3262209Y-85802604D01*
X-3484581Y-85828869D01*
X-3741274Y-85854284D01*
X-4023557Y-85877614D01*
X-4073344Y-85881275D01*
X-4920864Y-85904189D01*
X-5779854Y-85852775D01*
X-6643290Y-85728644D01*
X-7504150Y-85533402D01*
X-8355410Y-85268657D01*
X-9190048Y-84936019D01*
X-10001040Y-84537094D01*
X-10042665Y-84514440D01*
X-10213341Y-84419729D01*
X-10435808Y-84294216D01*
X-10694528Y-84146783D01*
X-10973962Y-83986314D01*
X-11258574Y-83821691D01*
X-11475732Y-83695201D01*
X-11721417Y-83552048D01*
X-11944871Y-83422716D01*
X-12137297Y-83312226D01*
X-12289898Y-83225601D01*
X-12393876Y-83167862D01*
X-12440436Y-83144031D01*
X-12441828Y-83143685D01*
X-12444520Y-83182018D01*
X-12447119Y-83294044D01*
X-12449608Y-83475300D01*
X-12451969Y-83721326D01*
X-12454181Y-84027658D01*
X-12456227Y-84389837D01*
X-12458088Y-84803401D01*
X-12459744Y-85263887D01*
X-12461178Y-85766834D01*
X-12462371Y-86307781D01*
X-12463304Y-86882267D01*
X-12463957Y-87485828D01*
X-12464314Y-88114005D01*
X-12464377Y-88516762D01*
X-12464377Y-93889839D01*
X1876854Y-93889839D01*
X2131271Y-93889839D01*
X2130854Y-94143839D01*
X-12718377Y-94143839D01*
X-12718377Y-81834608D01*
G36*
X-2283453Y-93501503D02*
X-2355033Y-93459298D01*
X-2484363Y-93384132D01*
X-2661334Y-93281809D01*
X-2875835Y-93158136D01*
X-3117757Y-93018920D01*
X-3376989Y-92869965D01*
X-3643422Y-92717079D01*
X-3906946Y-92566067D01*
X-4157450Y-92422735D01*
X-4384825Y-92292891D01*
X-4578961Y-92182340D01*
X-4697772Y-92114956D01*
X-4858197Y-92022378D01*
X-4990366Y-91942616D01*
X-5081213Y-91883807D01*
X-5117671Y-91854092D01*
X-5117849Y-91853294D01*
X-5087402Y-91823558D01*
X-5004071Y-91759327D01*
X-4879950Y-91669532D01*
X-4727133Y-91563106D01*
X-4697838Y-91543096D01*
X-3926831Y-90991073D01*
X-3229178Y-90433983D01*
X-2600079Y-89866684D01*
X-2034735Y-89284032D01*
X-1528346Y-88680883D01*
X-1076112Y-88052096D01*
X-673234Y-87392525D01*
X-469686Y-87012300D01*
X-254426Y-86569450D01*
X-75090Y-86150042D01*
X75760Y-85732176D01*
X205561Y-85293953D01*
X321752Y-84813474D01*
X392256Y-84474432D01*
X446560Y-84205846D01*
X488753Y-84012058D01*
X519437Y-83890755D01*
X539213Y-83839623D01*
X548683Y-83856348D01*
X549478Y-83869865D01*
X555373Y-83921625D01*
X570266Y-84032364D01*
X591643Y-84183759D01*
X607995Y-84296454D01*
X629636Y-84475720D01*
X650957Y-84708266D01*
X670030Y-84969235D01*
X684924Y-85233770D01*
X689904Y-85351531D01*
X684225Y-86249371D01*
X600741Y-87144105D01*
X439782Y-88034441D01*
X201676Y-88919084D01*
X-113247Y-89796741D01*
X-504660Y-90666119D01*
X-806065Y-91237129D01*
X-904107Y-91410584D01*
X-1032710Y-91635343D01*
X-1182653Y-91895441D01*
X-1344710Y-92174913D01*
X-1509660Y-92457794D01*
X-1623306Y-92651673D01*
X-2164837Y-93573235D01*
X-2283453Y-93501503D01*
X-2283453Y-93501503D01*
G37*
X-2283453Y-93501503D02*
X-2355033Y-93459298D01*
X-2484363Y-93384132D01*
X-2661334Y-93281809D01*
X-2875835Y-93158136D01*
X-3117757Y-93018920D01*
X-3376989Y-92869965D01*
X-3643422Y-92717079D01*
X-3906946Y-92566067D01*
X-4157450Y-92422735D01*
X-4384825Y-92292891D01*
X-4578961Y-92182340D01*
X-4697772Y-92114956D01*
X-4858197Y-92022378D01*
X-4990366Y-91942616D01*
X-5081213Y-91883807D01*
X-5117671Y-91854092D01*
X-5117849Y-91853294D01*
X-5087402Y-91823558D01*
X-5004071Y-91759327D01*
X-4879950Y-91669532D01*
X-4727133Y-91563106D01*
X-4697838Y-91543096D01*
X-3926831Y-90991073D01*
X-3229178Y-90433983D01*
X-2600079Y-89866684D01*
X-2034735Y-89284032D01*
X-1528346Y-88680883D01*
X-1076112Y-88052096D01*
X-673234Y-87392525D01*
X-469686Y-87012300D01*
X-254426Y-86569450D01*
X-75090Y-86150042D01*
X75760Y-85732176D01*
X205561Y-85293953D01*
X321752Y-84813474D01*
X392256Y-84474432D01*
X446560Y-84205846D01*
X488753Y-84012058D01*
X519437Y-83890755D01*
X539213Y-83839623D01*
X548683Y-83856348D01*
X549478Y-83869865D01*
X555373Y-83921625D01*
X570266Y-84032364D01*
X591643Y-84183759D01*
X607995Y-84296454D01*
X629636Y-84475720D01*
X650957Y-84708266D01*
X670030Y-84969235D01*
X684924Y-85233770D01*
X689904Y-85351531D01*
X684225Y-86249371D01*
X600741Y-87144105D01*
X439782Y-88034441D01*
X201676Y-88919084D01*
X-113247Y-89796741D01*
X-504660Y-90666119D01*
X-806065Y-91237129D01*
X-904107Y-91410584D01*
X-1032710Y-91635343D01*
X-1182653Y-91895441D01*
X-1344710Y-92174913D01*
X-1509660Y-92457794D01*
X-1623306Y-92651673D01*
X-2164837Y-93573235D01*
X-2283453Y-93501503D01*
G36*
X-9817747Y-88286966D02*
X-10026365Y-88282514D01*
X-11213915Y-88253785D01*
X-11213915Y-86538889D01*
X-11213270Y-86181421D01*
X-11211425Y-85849343D01*
X-11208514Y-85550531D01*
X-11204673Y-85292861D01*
X-11200037Y-85084210D01*
X-11194740Y-84932455D01*
X-11188917Y-84845473D01*
X-11184608Y-84827342D01*
X-11140268Y-84845285D01*
X-11040789Y-84891760D01*
X-10900671Y-84959829D01*
X-10734416Y-85042551D01*
X-10725454Y-85047060D01*
X-9875949Y-85446423D01*
X-9048148Y-85776967D01*
X-8232388Y-86041459D01*
X-7419008Y-86242664D01*
X-6598344Y-86383347D01*
X-5769281Y-86465720D01*
X-4970847Y-86485417D01*
X-4187476Y-86437598D01*
X-3408585Y-86320714D01*
X-2623588Y-86133218D01*
X-1891979Y-85898844D01*
X-1728548Y-85842927D01*
X-1591275Y-85800585D01*
X-1497402Y-85776866D01*
X-1466200Y-85774206D01*
X-1470391Y-85802664D01*
X-1532855Y-85865554D01*
X-1644917Y-85956987D01*
X-1797901Y-86071075D01*
X-1983130Y-86201929D01*
X-2191929Y-86343660D01*
X-2415622Y-86490380D01*
X-2645531Y-86636200D01*
X-2872983Y-86775230D01*
X-3089300Y-86901584D01*
X-3285806Y-87009371D01*
X-3286802Y-87009895D01*
X-3849836Y-87288284D01*
X-4410707Y-87529001D01*
X-4977731Y-87733615D01*
X-5559223Y-87903698D01*
X-6163502Y-88040819D01*
X-6798882Y-88146549D01*
X-7473680Y-88222458D01*
X-8196213Y-88270117D01*
X-8974797Y-88291096D01*
X-9817747Y-88286966D01*
X-9817747Y-88286966D01*
G37*
X-9817747Y-88286966D02*
X-10026365Y-88282514D01*
X-11213915Y-88253785D01*
X-11213915Y-86538889D01*
X-11213270Y-86181421D01*
X-11211425Y-85849343D01*
X-11208514Y-85550531D01*
X-11204673Y-85292861D01*
X-11200037Y-85084210D01*
X-11194740Y-84932455D01*
X-11188917Y-84845473D01*
X-11184608Y-84827342D01*
X-11140268Y-84845285D01*
X-11040789Y-84891760D01*
X-10900671Y-84959829D01*
X-10734416Y-85042551D01*
X-10725454Y-85047060D01*
X-9875949Y-85446423D01*
X-9048148Y-85776967D01*
X-8232388Y-86041459D01*
X-7419008Y-86242664D01*
X-6598344Y-86383347D01*
X-5769281Y-86465720D01*
X-4970847Y-86485417D01*
X-4187476Y-86437598D01*
X-3408585Y-86320714D01*
X-2623588Y-86133218D01*
X-1891979Y-85898844D01*
X-1728548Y-85842927D01*
X-1591275Y-85800585D01*
X-1497402Y-85776866D01*
X-1466200Y-85774206D01*
X-1470391Y-85802664D01*
X-1532855Y-85865554D01*
X-1644917Y-85956987D01*
X-1797901Y-86071075D01*
X-1983130Y-86201929D01*
X-2191929Y-86343660D01*
X-2415622Y-86490380D01*
X-2645531Y-86636200D01*
X-2872983Y-86775230D01*
X-3089300Y-86901584D01*
X-3285806Y-87009371D01*
X-3286802Y-87009895D01*
X-3849836Y-87288284D01*
X-4410707Y-87529001D01*
X-4977731Y-87733615D01*
X-5559223Y-87903698D01*
X-6163502Y-88040819D01*
X-6798882Y-88146549D01*
X-7473680Y-88222458D01*
X-8196213Y-88270117D01*
X-8974797Y-88291096D01*
X-9817747Y-88286966D01*
G36*
X-7480459Y-91964659D02*
X-7529989Y-91882434D01*
X-7609221Y-91748159D01*
X-7713203Y-91570423D01*
X-7836983Y-91357815D01*
X-7975611Y-91118923D01*
X-8124133Y-90862338D01*
X-8277599Y-90596648D01*
X-8431056Y-90330442D01*
X-8579554Y-90072309D01*
X-8718141Y-89830839D01*
X-8841864Y-89614621D01*
X-8945772Y-89432243D01*
X-9024914Y-89292295D01*
X-9074338Y-89203366D01*
X-9089295Y-89173981D01*
X-9050343Y-89168550D01*
X-8945756Y-89157717D01*
X-8787779Y-89142649D01*
X-8588653Y-89124513D01*
X-8360724Y-89104487D01*
X-7782528Y-89048552D01*
X-7267420Y-88985416D01*
X-6800484Y-88912765D01*
X-6366806Y-88828286D01*
X-5961785Y-88732329D01*
X-5077622Y-88472877D01*
X-4252274Y-88164729D01*
X-3481429Y-87805264D01*
X-2760776Y-87391863D01*
X-2086005Y-86921905D01*
X-1452802Y-86392772D01*
X-856858Y-85801843D01*
X-526522Y-85429685D01*
X-391332Y-85270360D01*
X-298810Y-85162188D01*
X-240892Y-85096873D01*
X-209509Y-85066122D01*
X-196597Y-85061639D01*
X-194089Y-85075130D01*
X-194223Y-85087969D01*
X-209911Y-85146881D01*
X-252799Y-85261950D01*
X-316626Y-85418702D01*
X-395130Y-85602667D01*
X-482047Y-85799373D01*
X-571115Y-85994348D01*
X-656073Y-86173120D01*
X-714106Y-86289377D01*
X-1101184Y-86984136D01*
X-1522147Y-87623292D01*
X-1991314Y-88226909D01*
X-2499138Y-88790300D01*
X-2814942Y-89109650D01*
X-3125197Y-89403302D01*
X-3439583Y-89678405D01*
X-3767779Y-89942109D01*
X-4119465Y-90201563D01*
X-4504319Y-90463915D01*
X-4932022Y-90736316D01*
X-5412252Y-91025914D01*
X-5938531Y-91330652D01*
X-6159110Y-91455937D01*
X-6390845Y-91586783D01*
X-6620637Y-91715869D01*
X-6835388Y-91835876D01*
X-7021996Y-91939486D01*
X-7167363Y-92019377D01*
X-7258389Y-92068231D01*
X-7260597Y-92069375D01*
X-7378013Y-92130093D01*
X-7480459Y-91964659D01*
X-7480459Y-91964659D01*
G37*
X-7480459Y-91964659D02*
X-7529989Y-91882434D01*
X-7609221Y-91748159D01*
X-7713203Y-91570423D01*
X-7836983Y-91357815D01*
X-7975611Y-91118923D01*
X-8124133Y-90862338D01*
X-8277599Y-90596648D01*
X-8431056Y-90330442D01*
X-8579554Y-90072309D01*
X-8718141Y-89830839D01*
X-8841864Y-89614621D01*
X-8945772Y-89432243D01*
X-9024914Y-89292295D01*
X-9074338Y-89203366D01*
X-9089295Y-89173981D01*
X-9050343Y-89168550D01*
X-8945756Y-89157717D01*
X-8787779Y-89142649D01*
X-8588653Y-89124513D01*
X-8360724Y-89104487D01*
X-7782528Y-89048552D01*
X-7267420Y-88985416D01*
X-6800484Y-88912765D01*
X-6366806Y-88828286D01*
X-5961785Y-88732329D01*
X-5077622Y-88472877D01*
X-4252274Y-88164729D01*
X-3481429Y-87805264D01*
X-2760776Y-87391863D01*
X-2086005Y-86921905D01*
X-1452802Y-86392772D01*
X-856858Y-85801843D01*
X-526522Y-85429685D01*
X-391332Y-85270360D01*
X-298810Y-85162188D01*
X-240892Y-85096873D01*
X-209509Y-85066122D01*
X-196597Y-85061639D01*
X-194089Y-85075130D01*
X-194223Y-85087969D01*
X-209911Y-85146881D01*
X-252799Y-85261950D01*
X-316626Y-85418702D01*
X-395130Y-85602667D01*
X-482047Y-85799373D01*
X-571115Y-85994348D01*
X-656073Y-86173120D01*
X-714106Y-86289377D01*
X-1101184Y-86984136D01*
X-1522147Y-87623292D01*
X-1991314Y-88226909D01*
X-2499138Y-88790300D01*
X-2814942Y-89109650D01*
X-3125197Y-89403302D01*
X-3439583Y-89678405D01*
X-3767779Y-89942109D01*
X-4119465Y-90201563D01*
X-4504319Y-90463915D01*
X-4932022Y-90736316D01*
X-5412252Y-91025914D01*
X-5938531Y-91330652D01*
X-6159110Y-91455937D01*
X-6390845Y-91586783D01*
X-6620637Y-91715869D01*
X-6835388Y-91835876D01*
X-7021996Y-91939486D01*
X-7167363Y-92019377D01*
X-7258389Y-92068231D01*
X-7260597Y-92069375D01*
X-7378013Y-92130093D01*
X-7480459Y-91964659D01*
D10*
X-6870500Y-42684300D02*
X-6870500Y-41134300D01*
X-3770500Y-41134300D02*
X-3770500Y-42684300D01*
X-3770500Y-42684300D02*
X-6870500Y-42684300D01*
X-4050500Y-39864300D02*
X-6590500Y-39864300D01*
X-5702100Y-111518300D02*
X-5702100Y-109968300D01*
X-2602100Y-109968300D02*
X-2602100Y-111518300D01*
X-2602100Y-111518300D02*
X-5702100Y-111518300D01*
X-2882100Y-108698300D02*
X-5422100Y-108698300D01*
X119840400Y-101777800D02*
X119840400Y-96697800D01*
X119840400Y-96697800D02*
X117300400Y-96697800D01*
X117300400Y-96697800D02*
X117300400Y-101777800D01*
X117020400Y-104597800D02*
X117020400Y-103047800D01*
X117300400Y-101777800D02*
X119840400Y-101777800D01*
X120120400Y-103047800D02*
X120120400Y-104597800D01*
X120120400Y-104597800D02*
X117020400Y-104597800D01*
X4840400Y-96975300D02*
X4865400Y-96975300D01*
X12890400Y-96975300D02*
X12865400Y-96975300D01*
X12890400Y-101625300D02*
X12865400Y-101625300D01*
X4790400Y-102700300D02*
X4790400Y-96975300D01*
X12890400Y-101625300D02*
X12890400Y-96975300D01*
X162090000Y-56362500D02*
X162065000Y-56362500D01*
X154040000Y-56362500D02*
X154065000Y-56362500D01*
X154040000Y-51712500D02*
X154065000Y-51712500D01*
X162140000Y-50637500D02*
X162140000Y-56362500D01*
X154040000Y-51712500D02*
X154040000Y-56362500D01*
X47090000Y-51560000D02*
X47090000Y-56640000D01*
X47090000Y-56640000D02*
X49630000Y-56640000D01*
X49630000Y-56640000D02*
X49630000Y-51560000D01*
X49910000Y-48740000D02*
X49910000Y-50290000D01*
X49630000Y-51560000D02*
X47090000Y-51560000D01*
X46810000Y-50290000D02*
X46810000Y-48740000D01*
X46810000Y-48740000D02*
X49910000Y-48740000D01*
X172632500Y-41819500D02*
X172632500Y-43369500D01*
X169532500Y-43369500D02*
X169532500Y-41819500D01*
X169532500Y-41819500D02*
X172632500Y-41819500D01*
X169812500Y-44639500D02*
X172352500Y-44639500D01*
X173800900Y-110653500D02*
X173800900Y-112203500D01*
X170700900Y-112203500D02*
X170700900Y-110653500D01*
X170700900Y-110653500D02*
X173800900Y-110653500D01*
X170980900Y-113473500D02*
X173520900Y-113473500D01*
D15*
G36*
X173607987Y-75064295D02*
X173613637Y-75084988D01*
X173631560Y-75175707D01*
X173651697Y-75314623D01*
X173669756Y-75472052D01*
X173670123Y-75475757D01*
X173686364Y-75619652D01*
X173702904Y-75732588D01*
X173716437Y-75792375D01*
X173717641Y-75794823D01*
X173755217Y-75793459D01*
X173821503Y-75747341D01*
X173830284Y-75739310D01*
X173910871Y-75680916D01*
X173949832Y-75682780D01*
X173937449Y-75733814D01*
X173884931Y-75801653D01*
X173830263Y-75873099D01*
X173816179Y-75920578D01*
X173818406Y-75924001D01*
X173865747Y-75937956D01*
X173972877Y-75955252D01*
X174121661Y-75973242D01*
X174225612Y-75983468D01*
X174433572Y-76003213D01*
X174566716Y-76018946D01*
X174628186Y-76032152D01*
X174621127Y-76044310D01*
X174548681Y-76056905D01*
X174413992Y-76071417D01*
X174412469Y-76071565D01*
X174238803Y-76088939D01*
X174064710Y-76107264D01*
X173949960Y-76120049D01*
X173760989Y-76142064D01*
X173868957Y-76254759D01*
X173935937Y-76340592D01*
X173948754Y-76390323D01*
X173913427Y-76393112D01*
X173835972Y-76338121D01*
X173827181Y-76330005D01*
X173774280Y-76284408D01*
X173738111Y-76272349D01*
X173713776Y-76303653D01*
X173696377Y-76388145D01*
X173681017Y-76535649D01*
X173672173Y-76640955D01*
X173650680Y-76826487D01*
X173622805Y-76942232D01*
X173589591Y-76985325D01*
X173556119Y-76959830D01*
X173541541Y-76903902D01*
X173525198Y-76791641D01*
X173510097Y-76644722D01*
X173506839Y-76604732D01*
X173490931Y-76435715D01*
X173472252Y-76336462D01*
X173446552Y-76298598D01*
X173409580Y-76313748D01*
X173376931Y-76348730D01*
X173320521Y-76397854D01*
X173293992Y-76407346D01*
X173260607Y-76381723D01*
X173272349Y-76320316D01*
X173323058Y-76246312D01*
X173341585Y-76228123D01*
X173423469Y-76154018D01*
X173331815Y-76128269D01*
X173237994Y-76111647D01*
X173106562Y-76099341D01*
X173044777Y-76096373D01*
X172889888Y-76086025D01*
X172736565Y-76067483D01*
X172693085Y-76060015D01*
X172616055Y-76043968D01*
X172592154Y-76032648D01*
X172628442Y-76022581D01*
X172731976Y-76010292D01*
X172810315Y-76002315D01*
X172979589Y-75984685D01*
X173145207Y-75966432D01*
X173254317Y-75953572D01*
X173424781Y-75932318D01*
X173315782Y-75818547D01*
X173249084Y-75733219D01*
X173234827Y-75682392D01*
X173267681Y-75677283D01*
X173342316Y-75729111D01*
X173353424Y-75739310D01*
X173421296Y-75790002D01*
X173463225Y-75797460D01*
X173465372Y-75794823D01*
X173478684Y-75741717D01*
X173495220Y-75634765D01*
X173510141Y-75508576D01*
X173528116Y-75350464D01*
X173547664Y-75202371D01*
X173560910Y-75117807D01*
X173578107Y-75030392D01*
X173590821Y-75014409D01*
X173607987Y-75064295D01*
X173607987Y-75064295D01*
G37*
X173607987Y-75064295D02*
X173613637Y-75084988D01*
X173631560Y-75175707D01*
X173651697Y-75314623D01*
X173669756Y-75472052D01*
X173670123Y-75475757D01*
X173686364Y-75619652D01*
X173702904Y-75732588D01*
X173716437Y-75792375D01*
X173717641Y-75794823D01*
X173755217Y-75793459D01*
X173821503Y-75747341D01*
X173830284Y-75739310D01*
X173910871Y-75680916D01*
X173949832Y-75682780D01*
X173937449Y-75733814D01*
X173884931Y-75801653D01*
X173830263Y-75873099D01*
X173816179Y-75920578D01*
X173818406Y-75924001D01*
X173865747Y-75937956D01*
X173972877Y-75955252D01*
X174121661Y-75973242D01*
X174225612Y-75983468D01*
X174433572Y-76003213D01*
X174566716Y-76018946D01*
X174628186Y-76032152D01*
X174621127Y-76044310D01*
X174548681Y-76056905D01*
X174413992Y-76071417D01*
X174412469Y-76071565D01*
X174238803Y-76088939D01*
X174064710Y-76107264D01*
X173949960Y-76120049D01*
X173760989Y-76142064D01*
X173868957Y-76254759D01*
X173935937Y-76340592D01*
X173948754Y-76390323D01*
X173913427Y-76393112D01*
X173835972Y-76338121D01*
X173827181Y-76330005D01*
X173774280Y-76284408D01*
X173738111Y-76272349D01*
X173713776Y-76303653D01*
X173696377Y-76388145D01*
X173681017Y-76535649D01*
X173672173Y-76640955D01*
X173650680Y-76826487D01*
X173622805Y-76942232D01*
X173589591Y-76985325D01*
X173556119Y-76959830D01*
X173541541Y-76903902D01*
X173525198Y-76791641D01*
X173510097Y-76644722D01*
X173506839Y-76604732D01*
X173490931Y-76435715D01*
X173472252Y-76336462D01*
X173446552Y-76298598D01*
X173409580Y-76313748D01*
X173376931Y-76348730D01*
X173320521Y-76397854D01*
X173293992Y-76407346D01*
X173260607Y-76381723D01*
X173272349Y-76320316D01*
X173323058Y-76246312D01*
X173341585Y-76228123D01*
X173423469Y-76154018D01*
X173331815Y-76128269D01*
X173237994Y-76111647D01*
X173106562Y-76099341D01*
X173044777Y-76096373D01*
X172889888Y-76086025D01*
X172736565Y-76067483D01*
X172693085Y-76060015D01*
X172616055Y-76043968D01*
X172592154Y-76032648D01*
X172628442Y-76022581D01*
X172731976Y-76010292D01*
X172810315Y-76002315D01*
X172979589Y-75984685D01*
X173145207Y-75966432D01*
X173254317Y-75953572D01*
X173424781Y-75932318D01*
X173315782Y-75818547D01*
X173249084Y-75733219D01*
X173234827Y-75682392D01*
X173267681Y-75677283D01*
X173342316Y-75729111D01*
X173353424Y-75739310D01*
X173421296Y-75790002D01*
X173463225Y-75797460D01*
X173465372Y-75794823D01*
X173478684Y-75741717D01*
X173495220Y-75634765D01*
X173510141Y-75508576D01*
X173528116Y-75350464D01*
X173547664Y-75202371D01*
X173560910Y-75117807D01*
X173578107Y-75030392D01*
X173590821Y-75014409D01*
X173607987Y-75064295D01*
G36*
X175571169Y-75667474D02*
X175645475Y-75678948D01*
X175676710Y-75704864D01*
X175682469Y-75743038D01*
X175673526Y-75787436D01*
X175634571Y-75811041D01*
X175547414Y-75820198D01*
X175457777Y-75821405D01*
X175233085Y-75821619D01*
X175496854Y-75979878D01*
X175640233Y-76072037D01*
X175723513Y-76142901D01*
X175757977Y-76202993D01*
X175760623Y-76225849D01*
X175746015Y-76311841D01*
X175693965Y-76366764D01*
X175592136Y-76396525D01*
X175428191Y-76407031D01*
X175381577Y-76407346D01*
X175234145Y-76405401D01*
X175148434Y-76396573D01*
X175108046Y-76376369D01*
X175096584Y-76340297D01*
X175096315Y-76329192D01*
X175104582Y-76286212D01*
X175141087Y-76262539D01*
X175223392Y-76252516D01*
X175340546Y-76250507D01*
X175584777Y-76249977D01*
X175340546Y-76105215D01*
X175208378Y-76021651D01*
X175133066Y-75957532D01*
X175100784Y-75898952D01*
X175096315Y-75859560D01*
X175111843Y-75763087D01*
X175166811Y-75703288D01*
X175273801Y-75672960D01*
X175436285Y-75664884D01*
X175571169Y-75667474D01*
X175571169Y-75667474D01*
G37*
X175571169Y-75667474D02*
X175645475Y-75678948D01*
X175676710Y-75704864D01*
X175682469Y-75743038D01*
X175673526Y-75787436D01*
X175634571Y-75811041D01*
X175547414Y-75820198D01*
X175457777Y-75821405D01*
X175233085Y-75821619D01*
X175496854Y-75979878D01*
X175640233Y-76072037D01*
X175723513Y-76142901D01*
X175757977Y-76202993D01*
X175760623Y-76225849D01*
X175746015Y-76311841D01*
X175693965Y-76366764D01*
X175592136Y-76396525D01*
X175428191Y-76407031D01*
X175381577Y-76407346D01*
X175234145Y-76405401D01*
X175148434Y-76396573D01*
X175108046Y-76376369D01*
X175096584Y-76340297D01*
X175096315Y-76329192D01*
X175104582Y-76286212D01*
X175141087Y-76262539D01*
X175223392Y-76252516D01*
X175340546Y-76250507D01*
X175584777Y-76249977D01*
X175340546Y-76105215D01*
X175208378Y-76021651D01*
X175133066Y-75957532D01*
X175100784Y-75898952D01*
X175096315Y-75859560D01*
X175111843Y-75763087D01*
X175166811Y-75703288D01*
X175273801Y-75672960D01*
X175436285Y-75664884D01*
X175571169Y-75667474D01*
G36*
X176177111Y-75667462D02*
X176205654Y-75684955D01*
X176221335Y-75732004D01*
X176228007Y-75823246D01*
X176229521Y-75973321D01*
X176229546Y-76036115D01*
X176228868Y-76208093D01*
X176224264Y-76316556D01*
X176211883Y-76376144D01*
X176187872Y-76401496D01*
X176148378Y-76407252D01*
X176131854Y-76407346D01*
X176086596Y-76404768D01*
X176058053Y-76387274D01*
X176042372Y-76340226D01*
X176035701Y-76248984D01*
X176034186Y-76098909D01*
X176034161Y-76036115D01*
X176034840Y-75864137D01*
X176039443Y-75755674D01*
X176051824Y-75696086D01*
X176075836Y-75670733D01*
X176115329Y-75664978D01*
X176131854Y-75664884D01*
X176177111Y-75667462D01*
X176177111Y-75667462D01*
G37*
X176177111Y-75667462D02*
X176205654Y-75684955D01*
X176221335Y-75732004D01*
X176228007Y-75823246D01*
X176229521Y-75973321D01*
X176229546Y-76036115D01*
X176228868Y-76208093D01*
X176224264Y-76316556D01*
X176211883Y-76376144D01*
X176187872Y-76401496D01*
X176148378Y-76407252D01*
X176131854Y-76407346D01*
X176086596Y-76404768D01*
X176058053Y-76387274D01*
X176042372Y-76340226D01*
X176035701Y-76248984D01*
X176034186Y-76098909D01*
X176034161Y-76036115D01*
X176034840Y-75864137D01*
X176039443Y-75755674D01*
X176051824Y-75696086D01*
X176075836Y-75670733D01*
X176115329Y-75664978D01*
X176131854Y-75664884D01*
X176177111Y-75667462D01*
G36*
X176977938Y-75667474D02*
X177052245Y-75678948D01*
X177083479Y-75704864D01*
X177089238Y-75743038D01*
X177079910Y-75788203D01*
X177039576Y-75811731D01*
X176949716Y-75820358D01*
X176874315Y-75821192D01*
X176659392Y-75821192D01*
X176659392Y-76114269D01*
X176657546Y-76264115D01*
X176649129Y-76352036D01*
X176629822Y-76394228D01*
X176595307Y-76406886D01*
X176581238Y-76407346D01*
X176542871Y-76401032D01*
X176519607Y-76371788D01*
X176507723Y-76304160D01*
X176503496Y-76182696D01*
X176503085Y-76083007D01*
X176508983Y-75901862D01*
X176525600Y-75773426D01*
X176549977Y-75711776D01*
X176613503Y-75686208D01*
X176730400Y-75669391D01*
X176843054Y-75664884D01*
X176977938Y-75667474D01*
X176977938Y-75667474D01*
G37*
X176977938Y-75667474D02*
X177052245Y-75678948D01*
X177083479Y-75704864D01*
X177089238Y-75743038D01*
X177079910Y-75788203D01*
X177039576Y-75811731D01*
X176949716Y-75820358D01*
X176874315Y-75821192D01*
X176659392Y-75821192D01*
X176659392Y-76114269D01*
X176657546Y-76264115D01*
X176649129Y-76352036D01*
X176629822Y-76394228D01*
X176595307Y-76406886D01*
X176581238Y-76407346D01*
X176542871Y-76401032D01*
X176519607Y-76371788D01*
X176507723Y-76304160D01*
X176503496Y-76182696D01*
X176503085Y-76083007D01*
X176508983Y-75901862D01*
X176525600Y-75773426D01*
X176549977Y-75711776D01*
X176613503Y-75686208D01*
X176730400Y-75669391D01*
X176843054Y-75664884D01*
X176977938Y-75667474D01*
G36*
X177505726Y-75667462D02*
X177534269Y-75684955D01*
X177549951Y-75732004D01*
X177556622Y-75823246D01*
X177558137Y-75973321D01*
X177558161Y-76036115D01*
X177557483Y-76208093D01*
X177552879Y-76316556D01*
X177540498Y-76376144D01*
X177516487Y-76401496D01*
X177476994Y-76407252D01*
X177460469Y-76407346D01*
X177415212Y-76404768D01*
X177386669Y-76387274D01*
X177370988Y-76340226D01*
X177364316Y-76248984D01*
X177362802Y-76098909D01*
X177362777Y-76036115D01*
X177363455Y-75864137D01*
X177368059Y-75755674D01*
X177380440Y-75696086D01*
X177404451Y-75670733D01*
X177443944Y-75664978D01*
X177460469Y-75664884D01*
X177505726Y-75667462D01*
X177505726Y-75667462D01*
G37*
X177505726Y-75667462D02*
X177534269Y-75684955D01*
X177549951Y-75732004D01*
X177556622Y-75823246D01*
X177558137Y-75973321D01*
X177558161Y-76036115D01*
X177557483Y-76208093D01*
X177552879Y-76316556D01*
X177540498Y-76376144D01*
X177516487Y-76401496D01*
X177476994Y-76407252D01*
X177460469Y-76407346D01*
X177415212Y-76404768D01*
X177386669Y-76387274D01*
X177370988Y-76340226D01*
X177364316Y-76248984D01*
X177362802Y-76098909D01*
X177362777Y-76036115D01*
X177363455Y-75864137D01*
X177368059Y-75755674D01*
X177380440Y-75696086D01*
X177404451Y-75670733D01*
X177443944Y-75664978D01*
X177460469Y-75664884D01*
X177505726Y-75667462D01*
G36*
X178456221Y-75671198D02*
X178479485Y-75700442D01*
X178491369Y-75768070D01*
X178495596Y-75889533D01*
X178496008Y-75989223D01*
X178490109Y-76170368D01*
X178473492Y-76298804D01*
X178449115Y-76360453D01*
X178390023Y-76382601D01*
X178280220Y-76398359D01*
X178145808Y-76406808D01*
X178012889Y-76407026D01*
X177907563Y-76398096D01*
X177857751Y-76381294D01*
X177846092Y-76332906D01*
X177837129Y-76225789D01*
X177832223Y-76079356D01*
X177831700Y-76010064D01*
X177833052Y-75844817D01*
X177839376Y-75742702D01*
X177854067Y-75688711D01*
X177880524Y-75667836D01*
X177909854Y-75664884D01*
X177949813Y-75671806D01*
X177973258Y-75703370D01*
X177984510Y-75775771D01*
X177987885Y-75905205D01*
X177988008Y-75957961D01*
X177988008Y-76251038D01*
X178339700Y-76251038D01*
X178339700Y-75957961D01*
X178341546Y-75808114D01*
X178349963Y-75720193D01*
X178369270Y-75678002D01*
X178403786Y-75665344D01*
X178417854Y-75664884D01*
X178456221Y-75671198D01*
X178456221Y-75671198D01*
G37*
X178456221Y-75671198D02*
X178479485Y-75700442D01*
X178491369Y-75768070D01*
X178495596Y-75889533D01*
X178496008Y-75989223D01*
X178490109Y-76170368D01*
X178473492Y-76298804D01*
X178449115Y-76360453D01*
X178390023Y-76382601D01*
X178280220Y-76398359D01*
X178145808Y-76406808D01*
X178012889Y-76407026D01*
X177907563Y-76398096D01*
X177857751Y-76381294D01*
X177846092Y-76332906D01*
X177837129Y-76225789D01*
X177832223Y-76079356D01*
X177831700Y-76010064D01*
X177833052Y-75844817D01*
X177839376Y-75742702D01*
X177854067Y-75688711D01*
X177880524Y-75667836D01*
X177909854Y-75664884D01*
X177949813Y-75671806D01*
X177973258Y-75703370D01*
X177984510Y-75775771D01*
X177987885Y-75905205D01*
X177988008Y-75957961D01*
X177988008Y-76251038D01*
X178339700Y-76251038D01*
X178339700Y-75957961D01*
X178341546Y-75808114D01*
X178349963Y-75720193D01*
X178369270Y-75678002D01*
X178403786Y-75665344D01*
X178417854Y-75664884D01*
X178456221Y-75671198D01*
G36*
X179244400Y-75667474D02*
X179318706Y-75678948D01*
X179349940Y-75704864D01*
X179355700Y-75743038D01*
X179346757Y-75787436D01*
X179307802Y-75811041D01*
X179220645Y-75820198D01*
X179131008Y-75821405D01*
X178906315Y-75821619D01*
X179170085Y-75979878D01*
X179313464Y-76072037D01*
X179396744Y-76142901D01*
X179431208Y-76202993D01*
X179433854Y-76225849D01*
X179419245Y-76311841D01*
X179367195Y-76366764D01*
X179265367Y-76396525D01*
X179101422Y-76407031D01*
X179054808Y-76407346D01*
X178907376Y-76405401D01*
X178821664Y-76396573D01*
X178781276Y-76376369D01*
X178769815Y-76340297D01*
X178769546Y-76329192D01*
X178777812Y-76286212D01*
X178814318Y-76262539D01*
X178896623Y-76252516D01*
X179013777Y-76250507D01*
X179258008Y-76249977D01*
X179013777Y-76105215D01*
X178881609Y-76021651D01*
X178806297Y-75957532D01*
X178774015Y-75898952D01*
X178769546Y-75859560D01*
X178785073Y-75763087D01*
X178840042Y-75703288D01*
X178947032Y-75672960D01*
X179109515Y-75664884D01*
X179244400Y-75667474D01*
X179244400Y-75667474D01*
G37*
X179244400Y-75667474D02*
X179318706Y-75678948D01*
X179349940Y-75704864D01*
X179355700Y-75743038D01*
X179346757Y-75787436D01*
X179307802Y-75811041D01*
X179220645Y-75820198D01*
X179131008Y-75821405D01*
X178906315Y-75821619D01*
X179170085Y-75979878D01*
X179313464Y-76072037D01*
X179396744Y-76142901D01*
X179431208Y-76202993D01*
X179433854Y-76225849D01*
X179419245Y-76311841D01*
X179367195Y-76366764D01*
X179265367Y-76396525D01*
X179101422Y-76407031D01*
X179054808Y-76407346D01*
X178907376Y-76405401D01*
X178821664Y-76396573D01*
X178781276Y-76376369D01*
X178769815Y-76340297D01*
X178769546Y-76329192D01*
X178777812Y-76286212D01*
X178814318Y-76262539D01*
X178896623Y-76252516D01*
X179013777Y-76250507D01*
X179258008Y-76249977D01*
X179013777Y-76105215D01*
X178881609Y-76021651D01*
X178806297Y-75957532D01*
X178774015Y-75898952D01*
X178769546Y-75859560D01*
X178785073Y-75763087D01*
X178840042Y-75703288D01*
X178947032Y-75672960D01*
X179109515Y-75664884D01*
X179244400Y-75667474D01*
G36*
X173220623Y-75606269D02*
X173201085Y-75625807D01*
X173181546Y-75606269D01*
X173201085Y-75586730D01*
X173220623Y-75606269D01*
X173220623Y-75606269D01*
G37*
X173220623Y-75606269D02*
X173201085Y-75625807D01*
X173181546Y-75606269D01*
X173201085Y-75586730D01*
X173220623Y-75606269D01*
G36*
X176208460Y-75253355D02*
X176229546Y-75313192D01*
X176206650Y-75374477D01*
X176131854Y-75391346D01*
X176055247Y-75373029D01*
X176034161Y-75313192D01*
X176057058Y-75251906D01*
X176131854Y-75235038D01*
X176208460Y-75253355D01*
X176208460Y-75253355D01*
G37*
X176208460Y-75253355D02*
X176229546Y-75313192D01*
X176206650Y-75374477D01*
X176131854Y-75391346D01*
X176055247Y-75373029D01*
X176034161Y-75313192D01*
X176057058Y-75251906D01*
X176131854Y-75235038D01*
X176208460Y-75253355D01*
G36*
X177537076Y-75253355D02*
X177558161Y-75313192D01*
X177535265Y-75374477D01*
X177460469Y-75391346D01*
X177383862Y-75373029D01*
X177362777Y-75313192D01*
X177385673Y-75251906D01*
X177460469Y-75235038D01*
X177537076Y-75253355D01*
X177537076Y-75253355D01*
G37*
X177537076Y-75253355D02*
X177558161Y-75313192D01*
X177535265Y-75374477D01*
X177460469Y-75391346D01*
X177383862Y-75373029D01*
X177362777Y-75313192D01*
X177385673Y-75251906D01*
X177460469Y-75235038D01*
X177537076Y-75253355D01*
G36*
X179551085Y-74844269D02*
X164897238Y-74844269D01*
X164897238Y-74531653D01*
X179551085Y-74531653D01*
X179551085Y-74844269D01*
X179551085Y-74844269D01*
G37*
X179551085Y-74844269D02*
X164897238Y-74844269D01*
X164897238Y-74531653D01*
X179551085Y-74531653D01*
X179551085Y-74844269D01*
G36*
X165561546Y-72696814D02*
X165561275Y-72976733D01*
X165566848Y-73188166D01*
X165587844Y-73340693D01*
X165633842Y-73443894D01*
X165714423Y-73507348D01*
X165839165Y-73540635D01*
X166017648Y-73553333D01*
X166259452Y-73555023D01*
X166419462Y-73554730D01*
X167085546Y-73554730D01*
X167085546Y-73906423D01*
X166253672Y-73906423D01*
X165975805Y-73905982D01*
X165764090Y-73903961D01*
X165606530Y-73899311D01*
X165491124Y-73890983D01*
X165405874Y-73877930D01*
X165338781Y-73859102D01*
X165277845Y-73833452D01*
X165247441Y-73818500D01*
X165098219Y-73716541D01*
X164993768Y-73572870D01*
X164985161Y-73556220D01*
X164952927Y-73486745D01*
X164929666Y-73416552D01*
X164913930Y-73331654D01*
X164904274Y-73218070D01*
X164899251Y-73061815D01*
X164897415Y-72848905D01*
X164897238Y-72706296D01*
X164897238Y-72030730D01*
X165561546Y-72030730D01*
X165561546Y-72696814D01*
X165561546Y-72696814D01*
G37*
X165561546Y-72696814D02*
X165561275Y-72976733D01*
X165566848Y-73188166D01*
X165587844Y-73340693D01*
X165633842Y-73443894D01*
X165714423Y-73507348D01*
X165839165Y-73540635D01*
X166017648Y-73553333D01*
X166259452Y-73555023D01*
X166419462Y-73554730D01*
X167085546Y-73554730D01*
X167085546Y-73906423D01*
X166253672Y-73906423D01*
X165975805Y-73905982D01*
X165764090Y-73903961D01*
X165606530Y-73899311D01*
X165491124Y-73890983D01*
X165405874Y-73877930D01*
X165338781Y-73859102D01*
X165277845Y-73833452D01*
X165247441Y-73818500D01*
X165098219Y-73716541D01*
X164993768Y-73572870D01*
X164985161Y-73556220D01*
X164952927Y-73486745D01*
X164929666Y-73416552D01*
X164913930Y-73331654D01*
X164904274Y-73218070D01*
X164899251Y-73061815D01*
X164897415Y-72848905D01*
X164897238Y-72706296D01*
X164897238Y-72030730D01*
X165561546Y-72030730D01*
X165561546Y-72696814D01*
G36*
X171344931Y-73906423D02*
X170779178Y-73906423D01*
X170143747Y-73271867D01*
X169508315Y-72637311D01*
X169508315Y-73906423D01*
X168883085Y-73906423D01*
X168883085Y-72030730D01*
X169146854Y-72031616D01*
X169410623Y-72032503D01*
X170680623Y-73249327D01*
X170680623Y-72030730D01*
X171344931Y-72030730D01*
X171344931Y-73906423D01*
X171344931Y-73906423D01*
G37*
X171344931Y-73906423D02*
X170779178Y-73906423D01*
X170143747Y-73271867D01*
X169508315Y-72637311D01*
X169508315Y-73906423D01*
X168883085Y-73906423D01*
X168883085Y-72030730D01*
X169146854Y-72031616D01*
X169410623Y-72032503D01*
X170680623Y-73249327D01*
X170680623Y-72030730D01*
X171344931Y-72030730D01*
X171344931Y-73906423D01*
G36*
X173924008Y-72696814D02*
X173924367Y-72939649D01*
X173926498Y-73116873D01*
X173931979Y-73241031D01*
X173942389Y-73324667D01*
X173959307Y-73380323D01*
X173984312Y-73420544D01*
X174018984Y-73457874D01*
X174019924Y-73458814D01*
X174057336Y-73493731D01*
X174097346Y-73518944D01*
X174152498Y-73536034D01*
X174235335Y-73546578D01*
X174358402Y-73552156D01*
X174534241Y-73554347D01*
X174775396Y-73554730D01*
X175448008Y-73554730D01*
X175448008Y-73906423D01*
X174616134Y-73906423D01*
X174338266Y-73905982D01*
X174126552Y-73903961D01*
X173968991Y-73899311D01*
X173853586Y-73890983D01*
X173768336Y-73877930D01*
X173701242Y-73859102D01*
X173640307Y-73833452D01*
X173609903Y-73818500D01*
X173460681Y-73716541D01*
X173356229Y-73572870D01*
X173347623Y-73556220D01*
X173315389Y-73486745D01*
X173292127Y-73416552D01*
X173276392Y-73331654D01*
X173266736Y-73218070D01*
X173261713Y-73061815D01*
X173259876Y-72848905D01*
X173259700Y-72706296D01*
X173259700Y-72030730D01*
X173924008Y-72030730D01*
X173924008Y-72696814D01*
X173924008Y-72696814D01*
G37*
X173924008Y-72696814D02*
X173924367Y-72939649D01*
X173926498Y-73116873D01*
X173931979Y-73241031D01*
X173942389Y-73324667D01*
X173959307Y-73380323D01*
X173984312Y-73420544D01*
X174018984Y-73457874D01*
X174019924Y-73458814D01*
X174057336Y-73493731D01*
X174097346Y-73518944D01*
X174152498Y-73536034D01*
X174235335Y-73546578D01*
X174358402Y-73552156D01*
X174534241Y-73554347D01*
X174775396Y-73554730D01*
X175448008Y-73554730D01*
X175448008Y-73906423D01*
X174616134Y-73906423D01*
X174338266Y-73905982D01*
X174126552Y-73903961D01*
X173968991Y-73899311D01*
X173853586Y-73890983D01*
X173768336Y-73877930D01*
X173701242Y-73859102D01*
X173640307Y-73833452D01*
X173609903Y-73818500D01*
X173460681Y-73716541D01*
X173356229Y-73572870D01*
X173347623Y-73556220D01*
X173315389Y-73486745D01*
X173292127Y-73416552D01*
X173276392Y-73331654D01*
X173266736Y-73218070D01*
X173261713Y-73061815D01*
X173259876Y-72848905D01*
X173259700Y-72706296D01*
X173259700Y-72030730D01*
X173924008Y-72030730D01*
X173924008Y-72696814D01*
G36*
X179394777Y-72382423D02*
X177833502Y-72382423D01*
X177771208Y-72477494D01*
X177736142Y-72588862D01*
X177773025Y-72690232D01*
X177875787Y-72767041D01*
X177895235Y-72775062D01*
X177967885Y-72788172D01*
X178102143Y-72799278D01*
X178281470Y-72807486D01*
X178489329Y-72811903D01*
X178586475Y-72812415D01*
X178820038Y-72813518D01*
X178989830Y-72817741D01*
X179110217Y-72826654D01*
X179195564Y-72841829D01*
X179260240Y-72864835D01*
X179309205Y-72891424D01*
X179441580Y-73014542D01*
X179522249Y-73178498D01*
X179546822Y-73361928D01*
X179510908Y-73543467D01*
X179462382Y-73636875D01*
X179405285Y-73715931D01*
X179345362Y-73777854D01*
X179272669Y-73824724D01*
X179177261Y-73858621D01*
X179049193Y-73881622D01*
X178878523Y-73895809D01*
X178655304Y-73903260D01*
X178369593Y-73906055D01*
X178173623Y-73906362D01*
X177245546Y-73906423D01*
X177245546Y-73554730D01*
X178001490Y-73554730D01*
X178265221Y-73554121D01*
X178461886Y-73551650D01*
X178602566Y-73546352D01*
X178698343Y-73537262D01*
X178760299Y-73523415D01*
X178799516Y-73503847D01*
X178822105Y-73483269D01*
X178880208Y-73373333D01*
X178867801Y-73264454D01*
X178799928Y-73185715D01*
X178750430Y-73161608D01*
X178673762Y-73144515D01*
X178557911Y-73133401D01*
X178390861Y-73127228D01*
X178160599Y-73124962D01*
X178094603Y-73124884D01*
X177822727Y-73122482D01*
X177616723Y-73113120D01*
X177464399Y-73093569D01*
X177353562Y-73060597D01*
X177272018Y-73010973D01*
X177207576Y-72941466D01*
X177165810Y-72878756D01*
X177104407Y-72713772D01*
X177092804Y-72524759D01*
X177131166Y-72346276D01*
X177162925Y-72281603D01*
X177212571Y-72208656D01*
X177268641Y-72151315D01*
X177340681Y-72107721D01*
X177438240Y-72076018D01*
X177570866Y-72054350D01*
X177748106Y-72040860D01*
X177979508Y-72033692D01*
X178274621Y-72030988D01*
X178453067Y-72030730D01*
X179394777Y-72030730D01*
X179394777Y-72382423D01*
X179394777Y-72382423D01*
G37*
X179394777Y-72382423D02*
X177833502Y-72382423D01*
X177771208Y-72477494D01*
X177736142Y-72588862D01*
X177773025Y-72690232D01*
X177875787Y-72767041D01*
X177895235Y-72775062D01*
X177967885Y-72788172D01*
X178102143Y-72799278D01*
X178281470Y-72807486D01*
X178489329Y-72811903D01*
X178586475Y-72812415D01*
X178820038Y-72813518D01*
X178989830Y-72817741D01*
X179110217Y-72826654D01*
X179195564Y-72841829D01*
X179260240Y-72864835D01*
X179309205Y-72891424D01*
X179441580Y-73014542D01*
X179522249Y-73178498D01*
X179546822Y-73361928D01*
X179510908Y-73543467D01*
X179462382Y-73636875D01*
X179405285Y-73715931D01*
X179345362Y-73777854D01*
X179272669Y-73824724D01*
X179177261Y-73858621D01*
X179049193Y-73881622D01*
X178878523Y-73895809D01*
X178655304Y-73903260D01*
X178369593Y-73906055D01*
X178173623Y-73906362D01*
X177245546Y-73906423D01*
X177245546Y-73554730D01*
X178001490Y-73554730D01*
X178265221Y-73554121D01*
X178461886Y-73551650D01*
X178602566Y-73546352D01*
X178698343Y-73537262D01*
X178760299Y-73523415D01*
X178799516Y-73503847D01*
X178822105Y-73483269D01*
X178880208Y-73373333D01*
X178867801Y-73264454D01*
X178799928Y-73185715D01*
X178750430Y-73161608D01*
X178673762Y-73144515D01*
X178557911Y-73133401D01*
X178390861Y-73127228D01*
X178160599Y-73124962D01*
X178094603Y-73124884D01*
X177822727Y-73122482D01*
X177616723Y-73113120D01*
X177464399Y-73093569D01*
X177353562Y-73060597D01*
X177272018Y-73010973D01*
X177207576Y-72941466D01*
X177165810Y-72878756D01*
X177104407Y-72713772D01*
X177092804Y-72524759D01*
X177131166Y-72346276D01*
X177162925Y-72281603D01*
X177212571Y-72208656D01*
X177268641Y-72151315D01*
X177340681Y-72107721D01*
X177438240Y-72076018D01*
X177570866Y-72054350D01*
X177748106Y-72040860D01*
X177979508Y-72033692D01*
X178274621Y-72030988D01*
X178453067Y-72030730D01*
X179394777Y-72030730D01*
X179394777Y-72382423D01*
G36*
X179648777Y-71503192D02*
X172232743Y-71513062D01*
X171306827Y-71514203D01*
X170456254Y-71515049D01*
X169678215Y-71515586D01*
X168969901Y-71515798D01*
X168328500Y-71515670D01*
X167751204Y-71515189D01*
X167235204Y-71514339D01*
X166777688Y-71513105D01*
X166375847Y-71511473D01*
X166026873Y-71509428D01*
X165727954Y-71506955D01*
X165476281Y-71504039D01*
X165269045Y-71500666D01*
X165103435Y-71496820D01*
X164976642Y-71492488D01*
X164885857Y-71487654D01*
X164828269Y-71482303D01*
X164801068Y-71476421D01*
X164798092Y-71473985D01*
X164796068Y-71430051D01*
X164794232Y-71312191D01*
X164792589Y-71124630D01*
X164791145Y-70871596D01*
X164789906Y-70557315D01*
X164788878Y-70186013D01*
X164788067Y-69761919D01*
X164787478Y-69289257D01*
X164787118Y-68772256D01*
X164786992Y-68215142D01*
X164787107Y-67622140D01*
X164787467Y-66997479D01*
X164788080Y-66345385D01*
X164788951Y-65670084D01*
X164789510Y-65309500D01*
X164799129Y-59447961D01*
X165053546Y-59447961D01*
X165053546Y-71249192D01*
X166010931Y-71249192D01*
X166275161Y-71248758D01*
X166511454Y-71247539D01*
X166709241Y-71245658D01*
X166857951Y-71243237D01*
X166947017Y-71240400D01*
X166968315Y-71238068D01*
X166955989Y-71198564D01*
X166923826Y-71106461D01*
X166883199Y-70993837D01*
X166819434Y-70750354D01*
X166783109Y-70462109D01*
X166774955Y-70157788D01*
X166795703Y-69866077D01*
X166846084Y-69615663D01*
X166847921Y-69609549D01*
X167004215Y-69221598D01*
X167220880Y-68875341D01*
X167490367Y-68576474D01*
X167805126Y-68330695D01*
X168157608Y-68143700D01*
X168540263Y-68021185D01*
X168945542Y-67968848D01*
X169024289Y-67967308D01*
X169338878Y-67982254D01*
X169615021Y-68033744D01*
X169886957Y-68129603D01*
X170035854Y-68198489D01*
X170399315Y-68418715D01*
X170707993Y-68690601D01*
X170958022Y-69007026D01*
X171145541Y-69360870D01*
X171266684Y-69745011D01*
X171317588Y-70152329D01*
X171300582Y-70529416D01*
X171270979Y-70709382D01*
X171229482Y-70890674D01*
X171187094Y-71028157D01*
X171145017Y-71140469D01*
X171117192Y-71217825D01*
X171110489Y-71239423D01*
X171148494Y-71241085D01*
X171258246Y-71242659D01*
X171433337Y-71244119D01*
X171667359Y-71245442D01*
X171953905Y-71246604D01*
X172286567Y-71247580D01*
X172658937Y-71248347D01*
X173064609Y-71248881D01*
X173497175Y-71249158D01*
X173715483Y-71249192D01*
X176320497Y-71249192D01*
X175835406Y-70757258D01*
X175155178Y-70112527D01*
X174460449Y-69543852D01*
X173749305Y-69050157D01*
X173019832Y-68630364D01*
X172270117Y-68283397D01*
X171498245Y-68008177D01*
X170702303Y-67803628D01*
X170524315Y-67768106D01*
X170306015Y-67726116D01*
X170112137Y-67687659D01*
X169956803Y-67655628D01*
X169854137Y-67632918D01*
X169820931Y-67624026D01*
X169818718Y-67606726D01*
X169885747Y-67585330D01*
X170013287Y-67561075D01*
X170192609Y-67535196D01*
X170414981Y-67508931D01*
X170671674Y-67483516D01*
X170953957Y-67460186D01*
X171003744Y-67456525D01*
X171851264Y-67433611D01*
X172710254Y-67485025D01*
X173573690Y-67609156D01*
X174434550Y-67804398D01*
X175285810Y-68069143D01*
X176120448Y-68401781D01*
X176931440Y-68800706D01*
X176973065Y-68823360D01*
X177143741Y-68918071D01*
X177366208Y-69043584D01*
X177624928Y-69191017D01*
X177904362Y-69351486D01*
X178188974Y-69516109D01*
X178406132Y-69642599D01*
X178651817Y-69785752D01*
X178875271Y-69915084D01*
X179067697Y-70025574D01*
X179220298Y-70112199D01*
X179324276Y-70169938D01*
X179370836Y-70193769D01*
X179372228Y-70194115D01*
X179374920Y-70155782D01*
X179377519Y-70043756D01*
X179380008Y-69862500D01*
X179382369Y-69616474D01*
X179384581Y-69310142D01*
X179386627Y-68947963D01*
X179388488Y-68534399D01*
X179390144Y-68073913D01*
X179391578Y-67570966D01*
X179392771Y-67030019D01*
X179393704Y-66455533D01*
X179394357Y-65851972D01*
X179394714Y-65223795D01*
X179394777Y-64821038D01*
X179394777Y-59447961D01*
X165053546Y-59447961D01*
X164799129Y-59447961D01*
X164799546Y-59193961D01*
X179648777Y-59193961D01*
X179648777Y-71503192D01*
X179648777Y-71503192D01*
G37*
X179648777Y-71503192D02*
X172232743Y-71513062D01*
X171306827Y-71514203D01*
X170456254Y-71515049D01*
X169678215Y-71515586D01*
X168969901Y-71515798D01*
X168328500Y-71515670D01*
X167751204Y-71515189D01*
X167235204Y-71514339D01*
X166777688Y-71513105D01*
X166375847Y-71511473D01*
X166026873Y-71509428D01*
X165727954Y-71506955D01*
X165476281Y-71504039D01*
X165269045Y-71500666D01*
X165103435Y-71496820D01*
X164976642Y-71492488D01*
X164885857Y-71487654D01*
X164828269Y-71482303D01*
X164801068Y-71476421D01*
X164798092Y-71473985D01*
X164796068Y-71430051D01*
X164794232Y-71312191D01*
X164792589Y-71124630D01*
X164791145Y-70871596D01*
X164789906Y-70557315D01*
X164788878Y-70186013D01*
X164788067Y-69761919D01*
X164787478Y-69289257D01*
X164787118Y-68772256D01*
X164786992Y-68215142D01*
X164787107Y-67622140D01*
X164787467Y-66997479D01*
X164788080Y-66345385D01*
X164788951Y-65670084D01*
X164789510Y-65309500D01*
X164799129Y-59447961D01*
X165053546Y-59447961D01*
X165053546Y-71249192D01*
X166010931Y-71249192D01*
X166275161Y-71248758D01*
X166511454Y-71247539D01*
X166709241Y-71245658D01*
X166857951Y-71243237D01*
X166947017Y-71240400D01*
X166968315Y-71238068D01*
X166955989Y-71198564D01*
X166923826Y-71106461D01*
X166883199Y-70993837D01*
X166819434Y-70750354D01*
X166783109Y-70462109D01*
X166774955Y-70157788D01*
X166795703Y-69866077D01*
X166846084Y-69615663D01*
X166847921Y-69609549D01*
X167004215Y-69221598D01*
X167220880Y-68875341D01*
X167490367Y-68576474D01*
X167805126Y-68330695D01*
X168157608Y-68143700D01*
X168540263Y-68021185D01*
X168945542Y-67968848D01*
X169024289Y-67967308D01*
X169338878Y-67982254D01*
X169615021Y-68033744D01*
X169886957Y-68129603D01*
X170035854Y-68198489D01*
X170399315Y-68418715D01*
X170707993Y-68690601D01*
X170958022Y-69007026D01*
X171145541Y-69360870D01*
X171266684Y-69745011D01*
X171317588Y-70152329D01*
X171300582Y-70529416D01*
X171270979Y-70709382D01*
X171229482Y-70890674D01*
X171187094Y-71028157D01*
X171145017Y-71140469D01*
X171117192Y-71217825D01*
X171110489Y-71239423D01*
X171148494Y-71241085D01*
X171258246Y-71242659D01*
X171433337Y-71244119D01*
X171667359Y-71245442D01*
X171953905Y-71246604D01*
X172286567Y-71247580D01*
X172658937Y-71248347D01*
X173064609Y-71248881D01*
X173497175Y-71249158D01*
X173715483Y-71249192D01*
X176320497Y-71249192D01*
X175835406Y-70757258D01*
X175155178Y-70112527D01*
X174460449Y-69543852D01*
X173749305Y-69050157D01*
X173019832Y-68630364D01*
X172270117Y-68283397D01*
X171498245Y-68008177D01*
X170702303Y-67803628D01*
X170524315Y-67768106D01*
X170306015Y-67726116D01*
X170112137Y-67687659D01*
X169956803Y-67655628D01*
X169854137Y-67632918D01*
X169820931Y-67624026D01*
X169818718Y-67606726D01*
X169885747Y-67585330D01*
X170013287Y-67561075D01*
X170192609Y-67535196D01*
X170414981Y-67508931D01*
X170671674Y-67483516D01*
X170953957Y-67460186D01*
X171003744Y-67456525D01*
X171851264Y-67433611D01*
X172710254Y-67485025D01*
X173573690Y-67609156D01*
X174434550Y-67804398D01*
X175285810Y-68069143D01*
X176120448Y-68401781D01*
X176931440Y-68800706D01*
X176973065Y-68823360D01*
X177143741Y-68918071D01*
X177366208Y-69043584D01*
X177624928Y-69191017D01*
X177904362Y-69351486D01*
X178188974Y-69516109D01*
X178406132Y-69642599D01*
X178651817Y-69785752D01*
X178875271Y-69915084D01*
X179067697Y-70025574D01*
X179220298Y-70112199D01*
X179324276Y-70169938D01*
X179370836Y-70193769D01*
X179372228Y-70194115D01*
X179374920Y-70155782D01*
X179377519Y-70043756D01*
X179380008Y-69862500D01*
X179382369Y-69616474D01*
X179384581Y-69310142D01*
X179386627Y-68947963D01*
X179388488Y-68534399D01*
X179390144Y-68073913D01*
X179391578Y-67570966D01*
X179392771Y-67030019D01*
X179393704Y-66455533D01*
X179394357Y-65851972D01*
X179394714Y-65223795D01*
X179394777Y-64821038D01*
X179394777Y-59447961D01*
X165053546Y-59447961D01*
X164799129Y-59447961D01*
X164799546Y-59193961D01*
X179648777Y-59193961D01*
X179648777Y-71503192D01*
G36*
X169213853Y-59836297D02*
X169285433Y-59878502D01*
X169414763Y-59953668D01*
X169591734Y-60055991D01*
X169806235Y-60179664D01*
X170048157Y-60318880D01*
X170307389Y-60467835D01*
X170573822Y-60620721D01*
X170837346Y-60771733D01*
X171087850Y-60915065D01*
X171315225Y-61044909D01*
X171509361Y-61155460D01*
X171628172Y-61222844D01*
X171788597Y-61315422D01*
X171920766Y-61395184D01*
X172011613Y-61453993D01*
X172048071Y-61483708D01*
X172048249Y-61484506D01*
X172017802Y-61514242D01*
X171934471Y-61578473D01*
X171810350Y-61668268D01*
X171657533Y-61774694D01*
X171628238Y-61794704D01*
X170857231Y-62346727D01*
X170159578Y-62903817D01*
X169530479Y-63471116D01*
X168965135Y-64053768D01*
X168458746Y-64656917D01*
X168006512Y-65285704D01*
X167603634Y-65945275D01*
X167400086Y-66325500D01*
X167184826Y-66768350D01*
X167005490Y-67187758D01*
X166854640Y-67605624D01*
X166724839Y-68043847D01*
X166608648Y-68524326D01*
X166538144Y-68863368D01*
X166483840Y-69131954D01*
X166441647Y-69325742D01*
X166410963Y-69447045D01*
X166391187Y-69498177D01*
X166381717Y-69481452D01*
X166380922Y-69467935D01*
X166375027Y-69416175D01*
X166360134Y-69305436D01*
X166338757Y-69154041D01*
X166322405Y-69041346D01*
X166300764Y-68862080D01*
X166279443Y-68629534D01*
X166260370Y-68368565D01*
X166245476Y-68104030D01*
X166240496Y-67986269D01*
X166246175Y-67088429D01*
X166329659Y-66193695D01*
X166490618Y-65303359D01*
X166728724Y-64418716D01*
X167043647Y-63541059D01*
X167435060Y-62671681D01*
X167736465Y-62100671D01*
X167834507Y-61927216D01*
X167963110Y-61702457D01*
X168113053Y-61442359D01*
X168275110Y-61162887D01*
X168440060Y-60880006D01*
X168553706Y-60686127D01*
X169095237Y-59764565D01*
X169213853Y-59836297D01*
X169213853Y-59836297D01*
G37*
X169213853Y-59836297D02*
X169285433Y-59878502D01*
X169414763Y-59953668D01*
X169591734Y-60055991D01*
X169806235Y-60179664D01*
X170048157Y-60318880D01*
X170307389Y-60467835D01*
X170573822Y-60620721D01*
X170837346Y-60771733D01*
X171087850Y-60915065D01*
X171315225Y-61044909D01*
X171509361Y-61155460D01*
X171628172Y-61222844D01*
X171788597Y-61315422D01*
X171920766Y-61395184D01*
X172011613Y-61453993D01*
X172048071Y-61483708D01*
X172048249Y-61484506D01*
X172017802Y-61514242D01*
X171934471Y-61578473D01*
X171810350Y-61668268D01*
X171657533Y-61774694D01*
X171628238Y-61794704D01*
X170857231Y-62346727D01*
X170159578Y-62903817D01*
X169530479Y-63471116D01*
X168965135Y-64053768D01*
X168458746Y-64656917D01*
X168006512Y-65285704D01*
X167603634Y-65945275D01*
X167400086Y-66325500D01*
X167184826Y-66768350D01*
X167005490Y-67187758D01*
X166854640Y-67605624D01*
X166724839Y-68043847D01*
X166608648Y-68524326D01*
X166538144Y-68863368D01*
X166483840Y-69131954D01*
X166441647Y-69325742D01*
X166410963Y-69447045D01*
X166391187Y-69498177D01*
X166381717Y-69481452D01*
X166380922Y-69467935D01*
X166375027Y-69416175D01*
X166360134Y-69305436D01*
X166338757Y-69154041D01*
X166322405Y-69041346D01*
X166300764Y-68862080D01*
X166279443Y-68629534D01*
X166260370Y-68368565D01*
X166245476Y-68104030D01*
X166240496Y-67986269D01*
X166246175Y-67088429D01*
X166329659Y-66193695D01*
X166490618Y-65303359D01*
X166728724Y-64418716D01*
X167043647Y-63541059D01*
X167435060Y-62671681D01*
X167736465Y-62100671D01*
X167834507Y-61927216D01*
X167963110Y-61702457D01*
X168113053Y-61442359D01*
X168275110Y-61162887D01*
X168440060Y-60880006D01*
X168553706Y-60686127D01*
X169095237Y-59764565D01*
X169213853Y-59836297D01*
G36*
X176748147Y-65050834D02*
X176956765Y-65055286D01*
X178144315Y-65084015D01*
X178144315Y-66798911D01*
X178143670Y-67156379D01*
X178141825Y-67488457D01*
X178138914Y-67787269D01*
X178135073Y-68044939D01*
X178130437Y-68253590D01*
X178125140Y-68405345D01*
X178119317Y-68492327D01*
X178115008Y-68510458D01*
X178070668Y-68492515D01*
X177971189Y-68446040D01*
X177831071Y-68377971D01*
X177664816Y-68295249D01*
X177655854Y-68290740D01*
X176806349Y-67891377D01*
X175978548Y-67560833D01*
X175162788Y-67296341D01*
X174349408Y-67095136D01*
X173528744Y-66954453D01*
X172699681Y-66872080D01*
X171901247Y-66852383D01*
X171117876Y-66900202D01*
X170338985Y-67017086D01*
X169553988Y-67204582D01*
X168822379Y-67438956D01*
X168658948Y-67494873D01*
X168521675Y-67537215D01*
X168427802Y-67560934D01*
X168396600Y-67563594D01*
X168400791Y-67535136D01*
X168463255Y-67472246D01*
X168575317Y-67380813D01*
X168728301Y-67266725D01*
X168913530Y-67135871D01*
X169122329Y-66994140D01*
X169346022Y-66847420D01*
X169575931Y-66701600D01*
X169803383Y-66562570D01*
X170019700Y-66436216D01*
X170216206Y-66328429D01*
X170217202Y-66327905D01*
X170780236Y-66049516D01*
X171341107Y-65808799D01*
X171908131Y-65604185D01*
X172489623Y-65434102D01*
X173093902Y-65296981D01*
X173729282Y-65191251D01*
X174404080Y-65115342D01*
X175126613Y-65067683D01*
X175905197Y-65046704D01*
X176748147Y-65050834D01*
X176748147Y-65050834D01*
G37*
X176748147Y-65050834D02*
X176956765Y-65055286D01*
X178144315Y-65084015D01*
X178144315Y-66798911D01*
X178143670Y-67156379D01*
X178141825Y-67488457D01*
X178138914Y-67787269D01*
X178135073Y-68044939D01*
X178130437Y-68253590D01*
X178125140Y-68405345D01*
X178119317Y-68492327D01*
X178115008Y-68510458D01*
X178070668Y-68492515D01*
X177971189Y-68446040D01*
X177831071Y-68377971D01*
X177664816Y-68295249D01*
X177655854Y-68290740D01*
X176806349Y-67891377D01*
X175978548Y-67560833D01*
X175162788Y-67296341D01*
X174349408Y-67095136D01*
X173528744Y-66954453D01*
X172699681Y-66872080D01*
X171901247Y-66852383D01*
X171117876Y-66900202D01*
X170338985Y-67017086D01*
X169553988Y-67204582D01*
X168822379Y-67438956D01*
X168658948Y-67494873D01*
X168521675Y-67537215D01*
X168427802Y-67560934D01*
X168396600Y-67563594D01*
X168400791Y-67535136D01*
X168463255Y-67472246D01*
X168575317Y-67380813D01*
X168728301Y-67266725D01*
X168913530Y-67135871D01*
X169122329Y-66994140D01*
X169346022Y-66847420D01*
X169575931Y-66701600D01*
X169803383Y-66562570D01*
X170019700Y-66436216D01*
X170216206Y-66328429D01*
X170217202Y-66327905D01*
X170780236Y-66049516D01*
X171341107Y-65808799D01*
X171908131Y-65604185D01*
X172489623Y-65434102D01*
X173093902Y-65296981D01*
X173729282Y-65191251D01*
X174404080Y-65115342D01*
X175126613Y-65067683D01*
X175905197Y-65046704D01*
X176748147Y-65050834D01*
G36*
X174410859Y-61373141D02*
X174460389Y-61455366D01*
X174539621Y-61589641D01*
X174643603Y-61767377D01*
X174767383Y-61979985D01*
X174906011Y-62218877D01*
X175054533Y-62475462D01*
X175207999Y-62741152D01*
X175361456Y-63007358D01*
X175509954Y-63265491D01*
X175648541Y-63506961D01*
X175772264Y-63723179D01*
X175876172Y-63905557D01*
X175955314Y-64045505D01*
X176004738Y-64134434D01*
X176019695Y-64163819D01*
X175980743Y-64169250D01*
X175876156Y-64180083D01*
X175718179Y-64195151D01*
X175519053Y-64213287D01*
X175291124Y-64233313D01*
X174712928Y-64289248D01*
X174197820Y-64352384D01*
X173730884Y-64425035D01*
X173297206Y-64509514D01*
X172892185Y-64605471D01*
X172008022Y-64864923D01*
X171182674Y-65173071D01*
X170411829Y-65532536D01*
X169691176Y-65945937D01*
X169016405Y-66415895D01*
X168383202Y-66945028D01*
X167787258Y-67535957D01*
X167456922Y-67908115D01*
X167321732Y-68067440D01*
X167229210Y-68175612D01*
X167171292Y-68240927D01*
X167139909Y-68271678D01*
X167126997Y-68276161D01*
X167124489Y-68262670D01*
X167124623Y-68249831D01*
X167140311Y-68190919D01*
X167183199Y-68075850D01*
X167247026Y-67919098D01*
X167325530Y-67735133D01*
X167412447Y-67538427D01*
X167501515Y-67343452D01*
X167586473Y-67164680D01*
X167644506Y-67048423D01*
X168031584Y-66353664D01*
X168452547Y-65714508D01*
X168921714Y-65110891D01*
X169429538Y-64547500D01*
X169745342Y-64228150D01*
X170055597Y-63934498D01*
X170369983Y-63659395D01*
X170698179Y-63395691D01*
X171049865Y-63136237D01*
X171434719Y-62873885D01*
X171862422Y-62601484D01*
X172342652Y-62311886D01*
X172868931Y-62007148D01*
X173089510Y-61881863D01*
X173321245Y-61751017D01*
X173551037Y-61621931D01*
X173765788Y-61501924D01*
X173952396Y-61398314D01*
X174097763Y-61318423D01*
X174188789Y-61269569D01*
X174190997Y-61268425D01*
X174308413Y-61207707D01*
X174410859Y-61373141D01*
X174410859Y-61373141D01*
G37*
X174410859Y-61373141D02*
X174460389Y-61455366D01*
X174539621Y-61589641D01*
X174643603Y-61767377D01*
X174767383Y-61979985D01*
X174906011Y-62218877D01*
X175054533Y-62475462D01*
X175207999Y-62741152D01*
X175361456Y-63007358D01*
X175509954Y-63265491D01*
X175648541Y-63506961D01*
X175772264Y-63723179D01*
X175876172Y-63905557D01*
X175955314Y-64045505D01*
X176004738Y-64134434D01*
X176019695Y-64163819D01*
X175980743Y-64169250D01*
X175876156Y-64180083D01*
X175718179Y-64195151D01*
X175519053Y-64213287D01*
X175291124Y-64233313D01*
X174712928Y-64289248D01*
X174197820Y-64352384D01*
X173730884Y-64425035D01*
X173297206Y-64509514D01*
X172892185Y-64605471D01*
X172008022Y-64864923D01*
X171182674Y-65173071D01*
X170411829Y-65532536D01*
X169691176Y-65945937D01*
X169016405Y-66415895D01*
X168383202Y-66945028D01*
X167787258Y-67535957D01*
X167456922Y-67908115D01*
X167321732Y-68067440D01*
X167229210Y-68175612D01*
X167171292Y-68240927D01*
X167139909Y-68271678D01*
X167126997Y-68276161D01*
X167124489Y-68262670D01*
X167124623Y-68249831D01*
X167140311Y-68190919D01*
X167183199Y-68075850D01*
X167247026Y-67919098D01*
X167325530Y-67735133D01*
X167412447Y-67538427D01*
X167501515Y-67343452D01*
X167586473Y-67164680D01*
X167644506Y-67048423D01*
X168031584Y-66353664D01*
X168452547Y-65714508D01*
X168921714Y-65110891D01*
X169429538Y-64547500D01*
X169745342Y-64228150D01*
X170055597Y-63934498D01*
X170369983Y-63659395D01*
X170698179Y-63395691D01*
X171049865Y-63136237D01*
X171434719Y-62873885D01*
X171862422Y-62601484D01*
X172342652Y-62311886D01*
X172868931Y-62007148D01*
X173089510Y-61881863D01*
X173321245Y-61751017D01*
X173551037Y-61621931D01*
X173765788Y-61501924D01*
X173952396Y-61398314D01*
X174097763Y-61318423D01*
X174188789Y-61269569D01*
X174190997Y-61268425D01*
X174308413Y-61207707D01*
X174410859Y-61373141D01*
D10*
X162090000Y-105194000D02*
X162065000Y-105194000D01*
X154040000Y-105194000D02*
X154065000Y-105194000D01*
X154040000Y-100544000D02*
X154065000Y-100544000D01*
X162140000Y-99469000D02*
X162140000Y-105194000D01*
X154040000Y-100544000D02*
X154040000Y-105194000D01*
X144476000Y-36711000D02*
X144476000Y-62111000D01*
X149556000Y-59571000D02*
X149556000Y-36711000D01*
X144476000Y-36711000D02*
X149556000Y-36711000D01*
X144476000Y-62111000D02*
X147016000Y-62111000D01*
X148286000Y-62391000D02*
X149836000Y-62391000D01*
X147016000Y-62111000D02*
X147016000Y-59571000D01*
X147016000Y-59571000D02*
X149556000Y-59571000D01*
X149836000Y-62391000D02*
X149836000Y-60841000D01*
X155829000Y-93167200D02*
X155829000Y-60147200D01*
X160909000Y-90627200D02*
X160909000Y-60147200D01*
X155829000Y-60147200D02*
X160909000Y-60147200D01*
X155829000Y-93167200D02*
X158369000Y-93167200D01*
X159639000Y-93447200D02*
X161189000Y-93447200D01*
X158369000Y-93167200D02*
X158369000Y-90627200D01*
X158369000Y-90627200D02*
X160909000Y-90627200D01*
X161189000Y-93447200D02*
X161189000Y-91897200D01*
X144476000Y-116077000D02*
X144476000Y-83057000D01*
X149556000Y-113537000D02*
X149556000Y-83057000D01*
X144476000Y-83057000D02*
X149556000Y-83057000D01*
X144476000Y-116077000D02*
X147016000Y-116077000D01*
X148286000Y-116357000D02*
X149836000Y-116357000D01*
X147016000Y-116077000D02*
X147016000Y-113537000D01*
X147016000Y-113537000D02*
X149556000Y-113537000D01*
X149836000Y-116357000D02*
X149836000Y-114807000D01*
X165537300Y-104266900D02*
X164537300Y-104266900D01*
X164537300Y-105966900D02*
X165537300Y-105966900D01*
X165537300Y-106565600D02*
X164537300Y-106565600D01*
X164537300Y-108265600D02*
X165537300Y-108265600D01*
X167899500Y-53657400D02*
X166899500Y-53657400D01*
X166899500Y-55357400D02*
X167899500Y-55357400D01*
X167899500Y-55867200D02*
X166899500Y-55867200D01*
X166899500Y-57567200D02*
X167899500Y-57567200D01*
X162737081Y-54799405D02*
X163546605Y-54799405D01*
X163641843Y-54751786D01*
X163689462Y-54704167D01*
X163737081Y-54608929D01*
X163737081Y-54418452D01*
X163689462Y-54323214D01*
X163641843Y-54275595D01*
X163546605Y-54227976D01*
X162737081Y-54227976D01*
X162832319Y-53799405D02*
X162784700Y-53751786D01*
X162737081Y-53656548D01*
X162737081Y-53418452D01*
X162784700Y-53323214D01*
X162832319Y-53275595D01*
X162927557Y-53227976D01*
X163022795Y-53227976D01*
X163165652Y-53275595D01*
X163737081Y-53847024D01*
X163737081Y-53227976D01*
X152450081Y-57204167D02*
X153450081Y-56537500D01*
X152450081Y-56537500D02*
X153450081Y-57204167D01*
X153450081Y-55585119D02*
X152973890Y-55918453D01*
X153450081Y-56156548D02*
X152450081Y-56156548D01*
X152450081Y-55775595D01*
X152497700Y-55680357D01*
X152545319Y-55632738D01*
X152640557Y-55585119D01*
X152783414Y-55585119D01*
X152878652Y-55632738D01*
X152926271Y-55680357D01*
X152973890Y-55775595D01*
X152973890Y-56156548D01*
X153164367Y-55204167D02*
X153164367Y-54727976D01*
X153450081Y-55299405D02*
X152450081Y-54966072D01*
X153450081Y-54632738D01*
X153450081Y-53775595D02*
X153450081Y-54347024D01*
X153450081Y-54061310D02*
X152450081Y-54061310D01*
X152592938Y-54156548D01*
X152688176Y-54251786D01*
X152735795Y-54347024D01*
X152783414Y-52918452D02*
X153450081Y-52918452D01*
X152402462Y-53156548D02*
X153116748Y-53394643D01*
X153116748Y-52775595D01*
X152450081Y-52204167D02*
X152450081Y-52108928D01*
X152497700Y-52013690D01*
X152545319Y-51966071D01*
X152640557Y-51918452D01*
X152831033Y-51870833D01*
X153069129Y-51870833D01*
X153259605Y-51918452D01*
X153354843Y-51966071D01*
X153402462Y-52013690D01*
X153450081Y-52108928D01*
X153450081Y-52204167D01*
X153402462Y-52299405D01*
X153354843Y-52347024D01*
X153259605Y-52394643D01*
X153069129Y-52442262D01*
X152831033Y-52442262D01*
X152640557Y-52394643D01*
X152545319Y-52347024D01*
X152497700Y-52299405D01*
X152450081Y-52204167D01*
X152450081Y-50966071D02*
X152450081Y-51442262D01*
X152926271Y-51489881D01*
X152878652Y-51442262D01*
X152831033Y-51347024D01*
X152831033Y-51108928D01*
X152878652Y-51013690D01*
X152926271Y-50966071D01*
X153021510Y-50918452D01*
X153259605Y-50918452D01*
X153354843Y-50966071D01*
X153402462Y-51013690D01*
X153450081Y-51108928D01*
X153450081Y-51347024D01*
X153402462Y-51442262D01*
X153354843Y-51489881D01*
X47624305Y-47758881D02*
X47624305Y-46758881D01*
X48005258Y-46758881D01*
X48100496Y-46806500D01*
X48148115Y-46854119D01*
X48195734Y-46949357D01*
X48195734Y-47092214D01*
X48148115Y-47187452D01*
X48100496Y-47235071D01*
X48005258Y-47282690D01*
X47624305Y-47282690D01*
X49052877Y-47092214D02*
X49052877Y-47758881D01*
X48814781Y-46711262D02*
X48576686Y-47425548D01*
X49195734Y-47425548D01*
X170344405Y-46628581D02*
X170344405Y-45628581D01*
X170725358Y-45628581D01*
X170820596Y-45676200D01*
X170868215Y-45723819D01*
X170915834Y-45819057D01*
X170915834Y-45961914D01*
X170868215Y-46057152D01*
X170820596Y-46104771D01*
X170725358Y-46152390D01*
X170344405Y-46152390D01*
X171772977Y-45628581D02*
X171582500Y-45628581D01*
X171487262Y-45676200D01*
X171439643Y-45723819D01*
X171344405Y-45866676D01*
X171296786Y-46057152D01*
X171296786Y-46438105D01*
X171344405Y-46533343D01*
X171392024Y-46580962D01*
X171487262Y-46628581D01*
X171677739Y-46628581D01*
X171772977Y-46580962D01*
X171820596Y-46533343D01*
X171868215Y-46438105D01*
X171868215Y-46200010D01*
X171820596Y-46104771D01*
X171772977Y-46057152D01*
X171677739Y-46009533D01*
X171487262Y-46009533D01*
X171392024Y-46057152D01*
X171344405Y-46104771D01*
X171296786Y-46200010D01*
X171538205Y-115386381D02*
X171538205Y-114386381D01*
X171919158Y-114386381D01*
X172014396Y-114434000D01*
X172062015Y-114481619D01*
X172109634Y-114576857D01*
X172109634Y-114719714D01*
X172062015Y-114814952D01*
X172014396Y-114862571D01*
X171919158Y-114910190D01*
X171538205Y-114910190D01*
X173014396Y-114386381D02*
X172538205Y-114386381D01*
X172490586Y-114862571D01*
X172538205Y-114814952D01*
X172633443Y-114767333D01*
X172871539Y-114767333D01*
X172966777Y-114814952D01*
X173014396Y-114862571D01*
X173062015Y-114957810D01*
X173062015Y-115195905D01*
X173014396Y-115291143D01*
X172966777Y-115338762D01*
X172871539Y-115386381D01*
X172633443Y-115386381D01*
X172538205Y-115338762D01*
X172490586Y-115291143D01*
X165608967Y-117558081D02*
X165608967Y-116558081D01*
X165942301Y-117272367D01*
X166275634Y-116558081D01*
X166275634Y-117558081D01*
X166751824Y-117558081D02*
X166751824Y-116558081D01*
X166751824Y-117034271D02*
X167323253Y-117034271D01*
X167323253Y-117558081D02*
X167323253Y-116558081D01*
X168323253Y-117558081D02*
X167751824Y-117558081D01*
X168037538Y-117558081D02*
X168037538Y-116558081D01*
X167942300Y-116700938D01*
X167847062Y-116796176D01*
X167751824Y-116843795D01*
X37758067Y-36697181D02*
X37758067Y-35697181D01*
X38091401Y-36411467D01*
X38424734Y-35697181D01*
X38424734Y-36697181D01*
X38900924Y-36697181D02*
X38900924Y-35697181D01*
X38900924Y-36173371D02*
X39472353Y-36173371D01*
X39472353Y-36697181D02*
X39472353Y-35697181D01*
X39853305Y-35697181D02*
X40472353Y-35697181D01*
X40139019Y-36078133D01*
X40281877Y-36078133D01*
X40377115Y-36125752D01*
X40424734Y-36173371D01*
X40472353Y-36268610D01*
X40472353Y-36506705D01*
X40424734Y-36601943D01*
X40377115Y-36649562D01*
X40281877Y-36697181D01*
X39996162Y-36697181D01*
X39900924Y-36649562D01*
X39853305Y-36601943D01*
X165608967Y-37001981D02*
X165608967Y-36001981D01*
X165942301Y-36716267D01*
X166275634Y-36001981D01*
X166275634Y-37001981D01*
X166751824Y-37001981D02*
X166751824Y-36001981D01*
X166751824Y-36478171D02*
X167323253Y-36478171D01*
X167323253Y-37001981D02*
X167323253Y-36001981D01*
X168228015Y-36335314D02*
X168228015Y-37001981D01*
X167989919Y-35954362D02*
X167751824Y-36668648D01*
X168370872Y-36668648D01*
X176453176Y-118764581D02*
X176453176Y-117764581D01*
X176786510Y-118478867D01*
X177119843Y-117764581D01*
X177119843Y-118764581D01*
X177596033Y-118764581D02*
X177596033Y-117764581D01*
X177976986Y-117764581D01*
X178072224Y-117812200D01*
X178119843Y-117859819D01*
X178167462Y-117955057D01*
X178167462Y-118097914D01*
X178119843Y-118193152D01*
X178072224Y-118240771D01*
X177976986Y-118288390D01*
X177596033Y-118288390D01*
X179119843Y-118764581D02*
X178548414Y-118764581D01*
X178834128Y-118764581D02*
X178834128Y-117764581D01*
X178738890Y-117907438D01*
X178643652Y-118002676D01*
X178548414Y-118050295D01*
X176453176Y-35579581D02*
X176453176Y-34579581D01*
X176786510Y-35293867D01*
X177119843Y-34579581D01*
X177119843Y-35579581D01*
X177596033Y-35579581D02*
X177596033Y-34579581D01*
X177976986Y-34579581D01*
X178072224Y-34627200D01*
X178119843Y-34674819D01*
X178167462Y-34770057D01*
X178167462Y-34912914D01*
X178119843Y-35008152D01*
X178072224Y-35055771D01*
X177976986Y-35103390D01*
X177596033Y-35103390D01*
X178548414Y-34674819D02*
X178596033Y-34627200D01*
X178691271Y-34579581D01*
X178929367Y-34579581D01*
X179024605Y-34627200D01*
X179072224Y-34674819D01*
X179119843Y-34770057D01*
X179119843Y-34865295D01*
X179072224Y-35008152D01*
X178500795Y-35579581D01*
X179119843Y-35579581D01*
X162762481Y-103402305D02*
X163572005Y-103402305D01*
X163667243Y-103354686D01*
X163714862Y-103307067D01*
X163762481Y-103211829D01*
X163762481Y-103021352D01*
X163714862Y-102926114D01*
X163667243Y-102878495D01*
X163572005Y-102830876D01*
X162762481Y-102830876D01*
X163762481Y-101830876D02*
X163762481Y-102402305D01*
X163762481Y-102116591D02*
X162762481Y-102116591D01*
X162905338Y-102211829D01*
X163000576Y-102307067D01*
X163048195Y-102402305D01*
X152567381Y-106035667D02*
X153567381Y-105369000D01*
X152567381Y-105369000D02*
X153567381Y-106035667D01*
X153567381Y-104416619D02*
X153091190Y-104749953D01*
X153567381Y-104988048D02*
X152567381Y-104988048D01*
X152567381Y-104607095D01*
X152615000Y-104511857D01*
X152662619Y-104464238D01*
X152757857Y-104416619D01*
X152900714Y-104416619D01*
X152995952Y-104464238D01*
X153043571Y-104511857D01*
X153091190Y-104607095D01*
X153091190Y-104988048D01*
X153281667Y-104035667D02*
X153281667Y-103559476D01*
X153567381Y-104130905D02*
X152567381Y-103797572D01*
X153567381Y-103464238D01*
X153567381Y-102607095D02*
X153567381Y-103178524D01*
X153567381Y-102892810D02*
X152567381Y-102892810D01*
X152710238Y-102988048D01*
X152805476Y-103083286D01*
X152853095Y-103178524D01*
X152900714Y-101749952D02*
X153567381Y-101749952D01*
X152519762Y-101988048D02*
X153234048Y-102226143D01*
X153234048Y-101607095D01*
X152567381Y-101035667D02*
X152567381Y-100940428D01*
X152615000Y-100845190D01*
X152662619Y-100797571D01*
X152757857Y-100749952D01*
X152948333Y-100702333D01*
X153186429Y-100702333D01*
X153376905Y-100749952D01*
X153472143Y-100797571D01*
X153519762Y-100845190D01*
X153567381Y-100940428D01*
X153567381Y-101035667D01*
X153519762Y-101130905D01*
X153472143Y-101178524D01*
X153376905Y-101226143D01*
X153186429Y-101273762D01*
X152948333Y-101273762D01*
X152757857Y-101226143D01*
X152662619Y-101178524D01*
X152615000Y-101130905D01*
X152567381Y-101035667D01*
X152567381Y-99797571D02*
X152567381Y-100273762D01*
X153043571Y-100321381D01*
X152995952Y-100273762D01*
X152948333Y-100178524D01*
X152948333Y-99940428D01*
X152995952Y-99845190D01*
X153043571Y-99797571D01*
X153138810Y-99749952D01*
X153376905Y-99749952D01*
X153472143Y-99797571D01*
X153519762Y-99845190D01*
X153567381Y-99940428D01*
X153567381Y-100178524D01*
X153519762Y-100273762D01*
X153472143Y-100321381D01*
X146277905Y-31388581D02*
X146277905Y-30388581D01*
X146658858Y-30388581D01*
X146754096Y-30436200D01*
X146801715Y-30483819D01*
X146849334Y-30579057D01*
X146849334Y-30721914D01*
X146801715Y-30817152D01*
X146754096Y-30864771D01*
X146658858Y-30912390D01*
X146277905Y-30912390D01*
X147230286Y-30483819D02*
X147277905Y-30436200D01*
X147373143Y-30388581D01*
X147611239Y-30388581D01*
X147706477Y-30436200D01*
X147754096Y-30483819D01*
X147801715Y-30579057D01*
X147801715Y-30674295D01*
X147754096Y-30817152D01*
X147182667Y-31388581D01*
X147801715Y-31388581D01*
X165134081Y-81369395D02*
X164134081Y-81369395D01*
X164134081Y-80988442D01*
X164181700Y-80893204D01*
X164229319Y-80845585D01*
X164324557Y-80797966D01*
X164467414Y-80797966D01*
X164562652Y-80845585D01*
X164610271Y-80893204D01*
X164657890Y-80988442D01*
X164657890Y-81369395D01*
X164134081Y-80464633D02*
X164134081Y-79845585D01*
X164515033Y-80178919D01*
X164515033Y-80036061D01*
X164562652Y-79940823D01*
X164610271Y-79893204D01*
X164705510Y-79845585D01*
X164943605Y-79845585D01*
X165038843Y-79893204D01*
X165086462Y-79940823D01*
X165134081Y-80036061D01*
X165134081Y-80321776D01*
X165086462Y-80417014D01*
X165038843Y-80464633D01*
X146290605Y-122180881D02*
X146290605Y-121180881D01*
X146671558Y-121180881D01*
X146766796Y-121228500D01*
X146814415Y-121276119D01*
X146862034Y-121371357D01*
X146862034Y-121514214D01*
X146814415Y-121609452D01*
X146766796Y-121657071D01*
X146671558Y-121704690D01*
X146290605Y-121704690D01*
X147814415Y-122180881D02*
X147242986Y-122180881D01*
X147528700Y-122180881D02*
X147528700Y-121180881D01*
X147433462Y-121323738D01*
X147338224Y-121418976D01*
X147242986Y-121466595D01*
D11*
X168921134Y-104681100D02*
X168887800Y-104714433D01*
X168787800Y-104747767D01*
X168721134Y-104747767D01*
X168621134Y-104714433D01*
X168554467Y-104647767D01*
X168521134Y-104581100D01*
X168487800Y-104447767D01*
X168487800Y-104347767D01*
X168521134Y-104214433D01*
X168554467Y-104147767D01*
X168621134Y-104081100D01*
X168721134Y-104047767D01*
X168787800Y-104047767D01*
X168887800Y-104081100D01*
X168921134Y-104114433D01*
X169587800Y-104747767D02*
X169187800Y-104747767D01*
X169387800Y-104747767D02*
X169387800Y-104047767D01*
X169321134Y-104147767D01*
X169254467Y-104214433D01*
X169187800Y-104247767D01*
X168402100Y-105878067D02*
X168002100Y-105878067D01*
X168202100Y-105878067D02*
X168202100Y-105178067D01*
X168135434Y-105278067D01*
X168068767Y-105344733D01*
X168002100Y-105378067D01*
X168835434Y-105178067D02*
X168902101Y-105178067D01*
X168968767Y-105211400D01*
X169002101Y-105244733D01*
X169035434Y-105311400D01*
X169068767Y-105444733D01*
X169068767Y-105611400D01*
X169035434Y-105744733D01*
X169002101Y-105811400D01*
X168968767Y-105844733D01*
X168902101Y-105878067D01*
X168835434Y-105878067D01*
X168768767Y-105844733D01*
X168735434Y-105811400D01*
X168702101Y-105744733D01*
X168668767Y-105611400D01*
X168668767Y-105444733D01*
X168702101Y-105311400D01*
X168735434Y-105244733D01*
X168768767Y-105211400D01*
X168835434Y-105178067D01*
X169668768Y-105411400D02*
X169668768Y-105878067D01*
X169368768Y-105411400D02*
X169368768Y-105778067D01*
X169402101Y-105844733D01*
X169468768Y-105878067D01*
X169568768Y-105878067D01*
X169635434Y-105844733D01*
X169668768Y-105811400D01*
X170235434Y-105511400D02*
X170002101Y-105511400D01*
X170002101Y-105878067D02*
X170002101Y-105178067D01*
X170335434Y-105178067D01*
X169035434Y-107259200D02*
X169002100Y-107292533D01*
X168902100Y-107325867D01*
X168835434Y-107325867D01*
X168735434Y-107292533D01*
X168668767Y-107225867D01*
X168635434Y-107159200D01*
X168602100Y-107025867D01*
X168602100Y-106925867D01*
X168635434Y-106792533D01*
X168668767Y-106725867D01*
X168735434Y-106659200D01*
X168835434Y-106625867D01*
X168902100Y-106625867D01*
X169002100Y-106659200D01*
X169035434Y-106692533D01*
X169302100Y-106692533D02*
X169335434Y-106659200D01*
X169402100Y-106625867D01*
X169568767Y-106625867D01*
X169635434Y-106659200D01*
X169668767Y-106692533D01*
X169702100Y-106759200D01*
X169702100Y-106825867D01*
X169668767Y-106925867D01*
X169268767Y-107325867D01*
X169702100Y-107325867D01*
X168183066Y-108341867D02*
X167783066Y-108341867D01*
X167983066Y-108341867D02*
X167983066Y-107641867D01*
X167916400Y-107741867D01*
X167849733Y-107808533D01*
X167783066Y-107841867D01*
X168616400Y-107641867D02*
X168683067Y-107641867D01*
X168749733Y-107675200D01*
X168783067Y-107708533D01*
X168816400Y-107775200D01*
X168849733Y-107908533D01*
X168849733Y-108075200D01*
X168816400Y-108208533D01*
X168783067Y-108275200D01*
X168749733Y-108308533D01*
X168683067Y-108341867D01*
X168616400Y-108341867D01*
X168549733Y-108308533D01*
X168516400Y-108275200D01*
X168483067Y-108208533D01*
X168449733Y-108075200D01*
X168449733Y-107908533D01*
X168483067Y-107775200D01*
X168516400Y-107708533D01*
X168549733Y-107675200D01*
X168616400Y-107641867D01*
X169283067Y-107641867D02*
X169349734Y-107641867D01*
X169416400Y-107675200D01*
X169449734Y-107708533D01*
X169483067Y-107775200D01*
X169516400Y-107908533D01*
X169516400Y-108075200D01*
X169483067Y-108208533D01*
X169449734Y-108275200D01*
X169416400Y-108308533D01*
X169349734Y-108341867D01*
X169283067Y-108341867D01*
X169216400Y-108308533D01*
X169183067Y-108275200D01*
X169149734Y-108208533D01*
X169116400Y-108075200D01*
X169116400Y-107908533D01*
X169149734Y-107775200D01*
X169183067Y-107708533D01*
X169216400Y-107675200D01*
X169283067Y-107641867D01*
X169816401Y-107875200D02*
X169816401Y-108341867D01*
X169816401Y-107941867D02*
X169849734Y-107908533D01*
X169916401Y-107875200D01*
X170016401Y-107875200D01*
X170083067Y-107908533D01*
X170116401Y-107975200D01*
X170116401Y-108341867D01*
X170683067Y-107975200D02*
X170449734Y-107975200D01*
X170449734Y-108341867D02*
X170449734Y-107641867D01*
X170783067Y-107641867D01*
X171359534Y-54224000D02*
X171326200Y-54257333D01*
X171226200Y-54290667D01*
X171159534Y-54290667D01*
X171059534Y-54257333D01*
X170992867Y-54190667D01*
X170959534Y-54124000D01*
X170926200Y-53990667D01*
X170926200Y-53890667D01*
X170959534Y-53757333D01*
X170992867Y-53690667D01*
X171059534Y-53624000D01*
X171159534Y-53590667D01*
X171226200Y-53590667D01*
X171326200Y-53624000D01*
X171359534Y-53657333D01*
X171592867Y-53590667D02*
X172026200Y-53590667D01*
X171792867Y-53857333D01*
X171892867Y-53857333D01*
X171959534Y-53890667D01*
X171992867Y-53924000D01*
X172026200Y-53990667D01*
X172026200Y-54157333D01*
X171992867Y-54224000D01*
X171959534Y-54257333D01*
X171892867Y-54290667D01*
X171692867Y-54290667D01*
X171626200Y-54257333D01*
X171592867Y-54224000D01*
X170827800Y-55408267D02*
X170427800Y-55408267D01*
X170627800Y-55408267D02*
X170627800Y-54708267D01*
X170561134Y-54808267D01*
X170494467Y-54874933D01*
X170427800Y-54908267D01*
X171261134Y-54708267D02*
X171327801Y-54708267D01*
X171394467Y-54741600D01*
X171427801Y-54774933D01*
X171461134Y-54841600D01*
X171494467Y-54974933D01*
X171494467Y-55141600D01*
X171461134Y-55274933D01*
X171427801Y-55341600D01*
X171394467Y-55374933D01*
X171327801Y-55408267D01*
X171261134Y-55408267D01*
X171194467Y-55374933D01*
X171161134Y-55341600D01*
X171127801Y-55274933D01*
X171094467Y-55141600D01*
X171094467Y-54974933D01*
X171127801Y-54841600D01*
X171161134Y-54774933D01*
X171194467Y-54741600D01*
X171261134Y-54708267D01*
X172094468Y-54941600D02*
X172094468Y-55408267D01*
X171794468Y-54941600D02*
X171794468Y-55308267D01*
X171827801Y-55374933D01*
X171894468Y-55408267D01*
X171994468Y-55408267D01*
X172061134Y-55374933D01*
X172094468Y-55341600D01*
X172661134Y-55041600D02*
X172427801Y-55041600D01*
X172427801Y-55408267D02*
X172427801Y-54708267D01*
X172761134Y-54708267D01*
X171270634Y-56560800D02*
X171237300Y-56594133D01*
X171137300Y-56627467D01*
X171070634Y-56627467D01*
X170970634Y-56594133D01*
X170903967Y-56527467D01*
X170870634Y-56460800D01*
X170837300Y-56327467D01*
X170837300Y-56227467D01*
X170870634Y-56094133D01*
X170903967Y-56027467D01*
X170970634Y-55960800D01*
X171070634Y-55927467D01*
X171137300Y-55927467D01*
X171237300Y-55960800D01*
X171270634Y-55994133D01*
X171870634Y-56160800D02*
X171870634Y-56627467D01*
X171703967Y-55894133D02*
X171537300Y-56394133D01*
X171970634Y-56394133D01*
X170494466Y-57706967D02*
X170094466Y-57706967D01*
X170294466Y-57706967D02*
X170294466Y-57006967D01*
X170227800Y-57106967D01*
X170161133Y-57173633D01*
X170094466Y-57206967D01*
X170927800Y-57006967D02*
X170994467Y-57006967D01*
X171061133Y-57040300D01*
X171094467Y-57073633D01*
X171127800Y-57140300D01*
X171161133Y-57273633D01*
X171161133Y-57440300D01*
X171127800Y-57573633D01*
X171094467Y-57640300D01*
X171061133Y-57673633D01*
X170994467Y-57706967D01*
X170927800Y-57706967D01*
X170861133Y-57673633D01*
X170827800Y-57640300D01*
X170794467Y-57573633D01*
X170761133Y-57440300D01*
X170761133Y-57273633D01*
X170794467Y-57140300D01*
X170827800Y-57073633D01*
X170861133Y-57040300D01*
X170927800Y-57006967D01*
X171594467Y-57006967D02*
X171661134Y-57006967D01*
X171727800Y-57040300D01*
X171761134Y-57073633D01*
X171794467Y-57140300D01*
X171827800Y-57273633D01*
X171827800Y-57440300D01*
X171794467Y-57573633D01*
X171761134Y-57640300D01*
X171727800Y-57673633D01*
X171661134Y-57706967D01*
X171594467Y-57706967D01*
X171527800Y-57673633D01*
X171494467Y-57640300D01*
X171461134Y-57573633D01*
X171427800Y-57440300D01*
X171427800Y-57273633D01*
X171461134Y-57140300D01*
X171494467Y-57073633D01*
X171527800Y-57040300D01*
X171594467Y-57006967D01*
X172127801Y-57240300D02*
X172127801Y-57706967D01*
X172127801Y-57306967D02*
X172161134Y-57273633D01*
X172227801Y-57240300D01*
X172327801Y-57240300D01*
X172394467Y-57273633D01*
X172427801Y-57340300D01*
X172427801Y-57706967D01*
X172994467Y-57340300D02*
X172761134Y-57340300D01*
X172761134Y-57706967D02*
X172761134Y-57006967D01*
X173094467Y-57006967D01*
M02*
