G04 #@! TF.FileFunction,Profile,NP*
%FSLAX46Y46*%
G04 Gerber Fmt 4.6, Leading zero omitted, Abs format (unit mm)*
G04 Created by KiCad (PCBNEW 4.0.5+dfsg1-4) date Tue Feb 27 09:26:50 2018*
%MOMM*%
%LPD*%
G01*
G04 APERTURE LIST*
%ADD10C,0.150000*%
%ADD11C,0.200000*%
G04 APERTURE END LIST*
D10*
D11*
X133334400Y-126667800D02*
X-14405600Y-126667800D01*
X-14405600Y-126667800D02*
X-14405600Y-26667800D01*
X-14405600Y-26667800D02*
X30594400Y-26667800D01*
X133334400Y-126667800D02*
X133334400Y-115667800D01*
X133334400Y-115667800D02*
X122334400Y-115667800D01*
X122334400Y-115667800D02*
X122334400Y-94203800D01*
X122334400Y-94203800D02*
X107930400Y-94203800D01*
X107930400Y-115667800D02*
X30594400Y-115667800D01*
X107930400Y-94203800D02*
X107930400Y-115667800D01*
X30594400Y-115667800D02*
X30594400Y-26667800D01*
X136336000Y-37670000D02*
X136336000Y-126670000D01*
X59000000Y-59134000D02*
X59000000Y-37670000D01*
X59000000Y-37670000D02*
X136336000Y-37670000D01*
X44596000Y-59134000D02*
X59000000Y-59134000D01*
X44596000Y-37670000D02*
X44596000Y-59134000D01*
X33596000Y-37670000D02*
X44596000Y-37670000D01*
X33596000Y-26670000D02*
X33596000Y-37670000D01*
X181336000Y-126670000D02*
X136336000Y-126670000D01*
X181336000Y-26670000D02*
X181336000Y-126670000D01*
X33596000Y-26670000D02*
X181336000Y-26670000D01*
M02*
