G04 #@! TF.FileFunction,Copper,L1,Top,Signal*
%FSLAX46Y46*%
G04 Gerber Fmt 4.6, Leading zero omitted, Abs format (unit mm)*
G04 Created by KiCad (PCBNEW 4.0.5+dfsg1-4) date Tue Feb 27 09:26:50 2018*
%MOMM*%
%LPD*%
G01*
G04 APERTURE LIST*
%ADD10C,0.150000*%
%ADD11R,1.500000X1.250000*%
%ADD12R,1.727200X1.727200*%
%ADD13O,1.727200X1.727200*%
%ADD14R,0.400000X1.100000*%
%ADD15C,3.000000*%
%ADD16C,5.500000*%
%ADD17R,2.235200X2.235200*%
%ADD18R,2.032000X1.727200*%
%ADD19O,2.032000X1.727200*%
%ADD20C,0.889000*%
%ADD21C,0.250000*%
%ADD22C,0.400000*%
%ADD23C,0.800000*%
G04 APERTURE END LIST*
D10*
D11*
X780900Y-96620600D03*
X-1719100Y-96620600D03*
X780900Y-98830400D03*
X-1719100Y-98830400D03*
X3143100Y-45922200D03*
X643100Y-45922200D03*
X3143100Y-48220900D03*
X643100Y-48220900D03*
D12*
X18644400Y-38530800D03*
D13*
X21184400Y-38530800D03*
X18644400Y-41070800D03*
X21184400Y-41070800D03*
X18644400Y-43610800D03*
X21184400Y-43610800D03*
X18644400Y-46150800D03*
X21184400Y-46150800D03*
X18644400Y-48690800D03*
X21184400Y-48690800D03*
X18644400Y-51230800D03*
X21184400Y-51230800D03*
X18644400Y-53770800D03*
X21184400Y-53770800D03*
X18644400Y-56310800D03*
X21184400Y-56310800D03*
X18644400Y-58850800D03*
X21184400Y-58850800D03*
X18644400Y-61390800D03*
X21184400Y-61390800D03*
X18644400Y-63930800D03*
X21184400Y-63930800D03*
X18644400Y-66470800D03*
X21184400Y-66470800D03*
X18644400Y-69010800D03*
X21184400Y-69010800D03*
D12*
X7291400Y-61440600D03*
D13*
X9831400Y-61440600D03*
X7291400Y-63980600D03*
X9831400Y-63980600D03*
X7291400Y-66520600D03*
X9831400Y-66520600D03*
X7291400Y-69060600D03*
X9831400Y-69060600D03*
X7291400Y-71600600D03*
X9831400Y-71600600D03*
X7291400Y-74140600D03*
X9831400Y-74140600D03*
X7291400Y-76680600D03*
X9831400Y-76680600D03*
X7291400Y-79220600D03*
X9831400Y-79220600D03*
X7291400Y-81760600D03*
X9831400Y-81760600D03*
X7291400Y-84300600D03*
X9831400Y-84300600D03*
X7291400Y-86840600D03*
X9831400Y-86840600D03*
X7291400Y-89380600D03*
X9831400Y-89380600D03*
X7291400Y-91920600D03*
X9831400Y-91920600D03*
D12*
X18644400Y-92496800D03*
D13*
X21184400Y-92496800D03*
X18644400Y-95036800D03*
X21184400Y-95036800D03*
X18644400Y-97576800D03*
X21184400Y-97576800D03*
X18644400Y-100116800D03*
X21184400Y-100116800D03*
X18644400Y-102656800D03*
X21184400Y-102656800D03*
X18644400Y-105196800D03*
X21184400Y-105196800D03*
X18644400Y-107736800D03*
X21184400Y-107736800D03*
X18644400Y-110276800D03*
X21184400Y-110276800D03*
X18644400Y-112816800D03*
X21184400Y-112816800D03*
X18644400Y-115356800D03*
X21184400Y-115356800D03*
D14*
X5290400Y-53318800D03*
X5940400Y-53318800D03*
X6590400Y-53318800D03*
X7240400Y-53318800D03*
X7890400Y-53318800D03*
X8540400Y-53318800D03*
X9190400Y-53318800D03*
X9840400Y-53318800D03*
X10490400Y-53318800D03*
X11140400Y-53318800D03*
X11790400Y-53318800D03*
X12440400Y-53318800D03*
X12440400Y-47618800D03*
X11790400Y-47618800D03*
X11140400Y-47618800D03*
X10490400Y-47618800D03*
X9840400Y-47618800D03*
X9190400Y-47618800D03*
X8540400Y-47618800D03*
X7890400Y-47618800D03*
X7240400Y-47618800D03*
X6590400Y-47618800D03*
X5940400Y-47618800D03*
X5290400Y-47618800D03*
D15*
X-10835600Y-121167800D03*
X-10835600Y-32167800D03*
D16*
X-16500Y-120825800D03*
X127834400Y-121167800D03*
X-16500Y-32509800D03*
D17*
X-5320500Y-41134300D03*
X-4152100Y-109968300D03*
D18*
X118570400Y-103047800D03*
D19*
X118570400Y-100507800D03*
X118570400Y-97967800D03*
D14*
X5290400Y-102150300D03*
X5940400Y-102150300D03*
X6590400Y-102150300D03*
X7240400Y-102150300D03*
X7890400Y-102150300D03*
X8540400Y-102150300D03*
X9190400Y-102150300D03*
X9840400Y-102150300D03*
X10490400Y-102150300D03*
X11140400Y-102150300D03*
X11790400Y-102150300D03*
X12440400Y-102150300D03*
X12440400Y-96450300D03*
X11790400Y-96450300D03*
X11140400Y-96450300D03*
X10490400Y-96450300D03*
X9840400Y-96450300D03*
X9190400Y-96450300D03*
X8540400Y-96450300D03*
X7890400Y-96450300D03*
X7240400Y-96450300D03*
X6590400Y-96450300D03*
X5940400Y-96450300D03*
X5290400Y-96450300D03*
X161640000Y-51187500D03*
X160990000Y-51187500D03*
X160340000Y-51187500D03*
X159690000Y-51187500D03*
X159040000Y-51187500D03*
X158390000Y-51187500D03*
X157740000Y-51187500D03*
X157090000Y-51187500D03*
X156440000Y-51187500D03*
X155790000Y-51187500D03*
X155140000Y-51187500D03*
X154490000Y-51187500D03*
X154490000Y-56887500D03*
X155140000Y-56887500D03*
X155790000Y-56887500D03*
X156440000Y-56887500D03*
X157090000Y-56887500D03*
X157740000Y-56887500D03*
X158390000Y-56887500D03*
X159040000Y-56887500D03*
X159690000Y-56887500D03*
X160340000Y-56887500D03*
X160990000Y-56887500D03*
X161640000Y-56887500D03*
D18*
X48360000Y-50290000D03*
D19*
X48360000Y-52830000D03*
X48360000Y-55370000D03*
D17*
X171082500Y-43369500D03*
X172250900Y-112203500D03*
D16*
X166946900Y-120828000D03*
X39096000Y-32170000D03*
X166946900Y-32512000D03*
D15*
X177766000Y-121170000D03*
X177766000Y-32170000D03*
D14*
X161640000Y-100019000D03*
X160990000Y-100019000D03*
X160340000Y-100019000D03*
X159690000Y-100019000D03*
X159040000Y-100019000D03*
X158390000Y-100019000D03*
X157740000Y-100019000D03*
X157090000Y-100019000D03*
X156440000Y-100019000D03*
X155790000Y-100019000D03*
X155140000Y-100019000D03*
X154490000Y-100019000D03*
X154490000Y-105719000D03*
X155140000Y-105719000D03*
X155790000Y-105719000D03*
X156440000Y-105719000D03*
X157090000Y-105719000D03*
X157740000Y-105719000D03*
X158390000Y-105719000D03*
X159040000Y-105719000D03*
X159690000Y-105719000D03*
X160340000Y-105719000D03*
X160990000Y-105719000D03*
X161640000Y-105719000D03*
D12*
X148286000Y-60841000D03*
D13*
X145746000Y-60841000D03*
X148286000Y-58301000D03*
X145746000Y-58301000D03*
X148286000Y-55761000D03*
X145746000Y-55761000D03*
X148286000Y-53221000D03*
X145746000Y-53221000D03*
X148286000Y-50681000D03*
X145746000Y-50681000D03*
X148286000Y-48141000D03*
X145746000Y-48141000D03*
X148286000Y-45601000D03*
X145746000Y-45601000D03*
X148286000Y-43061000D03*
X145746000Y-43061000D03*
X148286000Y-40521000D03*
X145746000Y-40521000D03*
X148286000Y-37981000D03*
X145746000Y-37981000D03*
D12*
X159639000Y-91897200D03*
D13*
X157099000Y-91897200D03*
X159639000Y-89357200D03*
X157099000Y-89357200D03*
X159639000Y-86817200D03*
X157099000Y-86817200D03*
X159639000Y-84277200D03*
X157099000Y-84277200D03*
X159639000Y-81737200D03*
X157099000Y-81737200D03*
X159639000Y-79197200D03*
X157099000Y-79197200D03*
X159639000Y-76657200D03*
X157099000Y-76657200D03*
X159639000Y-74117200D03*
X157099000Y-74117200D03*
X159639000Y-71577200D03*
X157099000Y-71577200D03*
X159639000Y-69037200D03*
X157099000Y-69037200D03*
X159639000Y-66497200D03*
X157099000Y-66497200D03*
X159639000Y-63957200D03*
X157099000Y-63957200D03*
X159639000Y-61417200D03*
X157099000Y-61417200D03*
D12*
X148286000Y-114807000D03*
D13*
X145746000Y-114807000D03*
X148286000Y-112267000D03*
X145746000Y-112267000D03*
X148286000Y-109727000D03*
X145746000Y-109727000D03*
X148286000Y-107187000D03*
X145746000Y-107187000D03*
X148286000Y-104647000D03*
X145746000Y-104647000D03*
X148286000Y-102107000D03*
X145746000Y-102107000D03*
X148286000Y-99567000D03*
X145746000Y-99567000D03*
X148286000Y-97027000D03*
X145746000Y-97027000D03*
X148286000Y-94487000D03*
X145746000Y-94487000D03*
X148286000Y-91947000D03*
X145746000Y-91947000D03*
X148286000Y-89407000D03*
X145746000Y-89407000D03*
X148286000Y-86867000D03*
X145746000Y-86867000D03*
X148286000Y-84327000D03*
X145746000Y-84327000D03*
D11*
X163787300Y-105116900D03*
X166287300Y-105116900D03*
X163787300Y-107415600D03*
X166287300Y-107415600D03*
X166149500Y-54507400D03*
X168649500Y-54507400D03*
X166149500Y-56717200D03*
X168649500Y-56717200D03*
D20*
X13894600Y-46150800D03*
X27191500Y-92505800D03*
X12904000Y-104380300D03*
X13640600Y-54824900D03*
X648500Y-50494200D03*
X-1713700Y-101192600D03*
X168644100Y-52145200D03*
X166281900Y-102843600D03*
X153289800Y-98512900D03*
X154026400Y-48957500D03*
X139738900Y-60832000D03*
X153035800Y-107187000D03*
X33084300Y-119810800D03*
X775500Y-101192600D03*
X3137700Y-53961300D03*
X163792700Y-99376500D03*
X166154900Y-52145200D03*
X133846100Y-33527000D03*
X4407700Y-103834200D03*
X162522700Y-49503600D03*
X5411000Y-104418400D03*
X161519400Y-48919400D03*
X6300000Y-105116900D03*
X160630400Y-48220900D03*
D21*
X18644400Y-46150800D02*
X13894600Y-46150800D01*
X18644400Y-47319200D02*
X18644400Y-47027100D01*
X21184400Y-47319200D02*
X18644400Y-47319200D01*
X21184400Y-46150800D02*
X21184400Y-47319200D01*
X21184400Y-114311700D02*
X21184400Y-115356800D01*
X21057400Y-114184700D02*
X21184400Y-114311700D01*
X18644400Y-114184700D02*
X21057400Y-114184700D01*
X18644400Y-115356800D02*
X18644400Y-114184700D01*
X21184400Y-92496800D02*
X21184400Y-93674200D01*
X27182500Y-92496800D02*
X27191500Y-92505800D01*
X21184400Y-92496800D02*
X27182500Y-92496800D01*
X18657100Y-92509500D02*
X18644400Y-92496800D01*
X21184400Y-93674200D02*
X18657100Y-93674200D01*
X18657100Y-93674200D02*
X18657100Y-92509500D01*
X18657100Y-93674200D02*
X18377700Y-93674200D01*
D22*
X12440400Y-102811800D02*
X12904000Y-103275400D01*
X12904000Y-103275400D02*
X12904000Y-104380300D01*
X12440400Y-102150300D02*
X12440400Y-102811800D01*
X12744100Y-53318800D02*
X13640600Y-54215300D01*
X13640600Y-54215300D02*
X13640600Y-54824900D01*
X12440400Y-53318800D02*
X12744100Y-53318800D01*
D21*
X643100Y-50488800D02*
X648500Y-50494200D01*
X643100Y-48220900D02*
X643100Y-50488800D01*
X9831400Y-70216500D02*
X7291400Y-70216500D01*
X7291400Y-70216500D02*
X7291400Y-69926000D01*
X7291400Y-69926000D02*
X7290600Y-69925200D01*
X9831400Y-69060600D02*
X9831400Y-70216500D01*
X9831400Y-67906700D02*
X7291400Y-67906700D01*
X7291400Y-67906700D02*
X7291400Y-69060600D01*
X9831400Y-69060600D02*
X9831400Y-67906700D01*
X-1719100Y-101187200D02*
X-1713700Y-101192600D01*
X-1719100Y-98830400D02*
X-1719100Y-101187200D01*
X168649500Y-54507400D02*
X168649500Y-52150600D01*
X168649500Y-52150600D02*
X168644100Y-52145200D01*
X157099000Y-84277200D02*
X157099000Y-85431100D01*
X159639000Y-85431100D02*
X159639000Y-84277200D01*
X157099000Y-85431100D02*
X159639000Y-85431100D01*
X157099000Y-84277200D02*
X157099000Y-83121300D01*
X159639000Y-83411800D02*
X159639800Y-83412600D01*
X159639000Y-83121300D02*
X159639000Y-83411800D01*
X157099000Y-83121300D02*
X159639000Y-83121300D01*
X166287300Y-105116900D02*
X166287300Y-102849000D01*
X166287300Y-102849000D02*
X166281900Y-102843600D01*
D22*
X154490000Y-100019000D02*
X154186300Y-100019000D01*
X153289800Y-99122500D02*
X153289800Y-98512900D01*
X154186300Y-100019000D02*
X153289800Y-99122500D01*
X154490000Y-51187500D02*
X154490000Y-50526000D01*
X154026400Y-50062400D02*
X154026400Y-48957500D01*
X154490000Y-50526000D02*
X154026400Y-50062400D01*
D21*
X148273300Y-59663600D02*
X148552700Y-59663600D01*
X148273300Y-59663600D02*
X148273300Y-60828300D01*
X145746000Y-59663600D02*
X148273300Y-59663600D01*
X148273300Y-60828300D02*
X148286000Y-60841000D01*
X145746000Y-60841000D02*
X139747900Y-60841000D01*
X139747900Y-60841000D02*
X139738900Y-60832000D01*
X145746000Y-60841000D02*
X145746000Y-59663600D01*
X148286000Y-37981000D02*
X148286000Y-39153100D01*
X148286000Y-39153100D02*
X145873000Y-39153100D01*
X145873000Y-39153100D02*
X145746000Y-39026100D01*
X145746000Y-39026100D02*
X145746000Y-37981000D01*
X145746000Y-107187000D02*
X145746000Y-106018600D01*
X145746000Y-106018600D02*
X148286000Y-106018600D01*
X148286000Y-106018600D02*
X148286000Y-106310700D01*
X148286000Y-107187000D02*
X153035800Y-107187000D01*
D22*
X18634988Y-48681388D02*
X18644400Y-48690800D01*
X8163612Y-48681388D02*
X18634988Y-48681388D01*
X7240400Y-49604600D02*
X8163612Y-48681388D01*
X7240400Y-53318800D02*
X7240400Y-49604600D01*
X159690000Y-100019000D02*
X159690000Y-103733200D01*
X159690000Y-103733200D02*
X158766788Y-104656412D01*
X158766788Y-104656412D02*
X148295412Y-104656412D01*
X148295412Y-104656412D02*
X148286000Y-104647000D01*
X23749800Y-37743400D02*
X23749800Y-46125400D01*
X23749800Y-46125400D02*
X21184400Y-48690800D01*
X22251200Y-36244800D02*
X23749800Y-37743400D01*
X13335800Y-36244800D02*
X22251200Y-36244800D01*
X12440400Y-37140200D02*
X13335800Y-36244800D01*
X12440400Y-47618800D02*
X12440400Y-37140200D01*
X154490000Y-105719000D02*
X154490000Y-116197600D01*
X154490000Y-116197600D02*
X153594600Y-117093000D01*
X153594600Y-117093000D02*
X144679200Y-117093000D01*
X144679200Y-117093000D02*
X143180600Y-115594400D01*
X143180600Y-107212400D02*
X145746000Y-104647000D01*
X143180600Y-115594400D02*
X143180600Y-107212400D01*
X16684990Y-49271390D02*
X18644400Y-51230800D01*
X8716610Y-49271390D02*
X16684990Y-49271390D01*
X7890400Y-50097600D02*
X8716610Y-49271390D01*
X7890400Y-53318800D02*
X7890400Y-50097600D01*
X159040000Y-100019000D02*
X159040000Y-103240200D01*
X159040000Y-103240200D02*
X158213790Y-104066410D01*
X158213790Y-104066410D02*
X150245410Y-104066410D01*
X150245410Y-104066410D02*
X148286000Y-102107000D01*
X21184400Y-51230800D02*
X24384800Y-48030400D01*
X24384800Y-48030400D02*
X24384800Y-37544012D01*
X24384800Y-37544012D02*
X22495586Y-35654798D01*
X22495586Y-35654798D02*
X13091414Y-35654798D01*
X13091414Y-35654798D02*
X11790400Y-36955812D01*
X11790400Y-36955812D02*
X11790400Y-47618800D01*
X155140000Y-116381988D02*
X155140000Y-105719000D01*
X153838986Y-117683002D02*
X155140000Y-116381988D01*
X144434814Y-117683002D02*
X153838986Y-117683002D01*
X142545600Y-115793788D02*
X144434814Y-117683002D01*
X142545600Y-105307400D02*
X142545600Y-115793788D01*
X145746000Y-102107000D02*
X142545600Y-105307400D01*
X18644400Y-53770800D02*
X14734992Y-49861392D01*
X14734992Y-49861392D02*
X9269608Y-49861392D01*
X9269608Y-49861392D02*
X8540400Y-50590600D01*
X8540400Y-50590600D02*
X8540400Y-53318800D01*
X158390000Y-102747200D02*
X158390000Y-100019000D01*
X157660792Y-103476408D02*
X158390000Y-102747200D01*
X152195408Y-103476408D02*
X157660792Y-103476408D01*
X148286000Y-99567000D02*
X152195408Y-103476408D01*
X21184400Y-53770800D02*
X24994400Y-49960800D01*
X24994400Y-49960800D02*
X24994400Y-37319224D01*
X24994400Y-37319224D02*
X22739972Y-35064796D01*
X11140400Y-36771424D02*
X11140400Y-47618800D01*
X12847028Y-35064796D02*
X22739972Y-35064796D01*
X11140400Y-36771424D02*
X12847028Y-35064796D01*
X155790000Y-116566376D02*
X154083372Y-118273004D01*
X154083372Y-118273004D02*
X144190428Y-118273004D01*
X155790000Y-116566376D02*
X155790000Y-105719000D01*
X141936000Y-116018576D02*
X144190428Y-118273004D01*
X141936000Y-103377000D02*
X141936000Y-116018576D01*
X145746000Y-99567000D02*
X141936000Y-103377000D01*
X17107700Y-53224700D02*
X17107700Y-54774100D01*
X17107700Y-54774100D02*
X18644400Y-56310800D01*
X14334394Y-50451394D02*
X17107700Y-53224700D01*
X9771806Y-50451394D02*
X14334394Y-50451394D01*
X9190400Y-51032800D02*
X9771806Y-50451394D01*
X9190400Y-53318800D02*
X9190400Y-51032800D01*
X157740000Y-100019000D02*
X157740000Y-102305000D01*
X157740000Y-102305000D02*
X157158594Y-102886406D01*
X157158594Y-102886406D02*
X152596006Y-102886406D01*
X152596006Y-102886406D02*
X149822700Y-100113100D01*
X149822700Y-98563700D02*
X148286000Y-97027000D01*
X149822700Y-100113100D02*
X149822700Y-98563700D01*
X21184400Y-56310800D02*
X25629400Y-51865800D01*
X25629400Y-51865800D02*
X25629400Y-37119836D01*
X25629400Y-37119836D02*
X22984358Y-34474794D01*
X22984358Y-34474794D02*
X12602642Y-34474794D01*
X12602642Y-34474794D02*
X10490400Y-36587036D01*
X10490400Y-36587036D02*
X10490400Y-47618800D01*
X156440000Y-116750764D02*
X156440000Y-105719000D01*
X154327758Y-118863006D02*
X156440000Y-116750764D01*
X143946042Y-118863006D02*
X154327758Y-118863006D01*
X141301000Y-116217964D02*
X143946042Y-118863006D01*
X141301000Y-101472000D02*
X141301000Y-116217964D01*
X145746000Y-97027000D02*
X141301000Y-101472000D01*
X18644400Y-58850800D02*
X16358400Y-56564800D01*
X16358400Y-56564800D02*
X16358400Y-53643800D01*
X16358400Y-53643800D02*
X13755996Y-51041396D01*
X13755996Y-51041396D02*
X10375604Y-51041396D01*
X10375604Y-51041396D02*
X9840400Y-51576600D01*
X9840400Y-51576600D02*
X9840400Y-53318800D01*
X157090000Y-101761200D02*
X157090000Y-100019000D01*
X156554796Y-102296404D02*
X157090000Y-101761200D01*
X153174404Y-102296404D02*
X156554796Y-102296404D01*
X150572000Y-99694000D02*
X153174404Y-102296404D01*
X150572000Y-96773000D02*
X150572000Y-99694000D01*
X148286000Y-94487000D02*
X150572000Y-96773000D01*
X26264400Y-36920448D02*
X26264400Y-53770800D01*
X26264400Y-53770800D02*
X21184400Y-58850800D01*
X23228744Y-33884792D02*
X26264400Y-36920448D01*
X12358256Y-33884792D02*
X23228744Y-33884792D01*
X9840400Y-36402648D02*
X12358256Y-33884792D01*
X9840400Y-47618800D02*
X9840400Y-36402648D01*
X157090000Y-105719000D02*
X157090000Y-116935152D01*
X157090000Y-116935152D02*
X154572144Y-119453008D01*
X154572144Y-119453008D02*
X143701656Y-119453008D01*
X143701656Y-119453008D02*
X140666000Y-116417352D01*
X140666000Y-99567000D02*
X145746000Y-94487000D01*
X140666000Y-116417352D02*
X140666000Y-99567000D01*
X10490400Y-53318800D02*
X10490400Y-52044200D01*
X10490400Y-52044200D02*
X10903202Y-51631398D01*
X10903202Y-51631398D02*
X13224586Y-51631398D01*
X13224586Y-51631398D02*
X15596400Y-54003212D01*
X15596400Y-54003212D02*
X15596400Y-58342800D01*
X15596400Y-58342800D02*
X18644400Y-61390800D01*
X151334000Y-94995000D02*
X148286000Y-91947000D01*
X151334000Y-99334588D02*
X151334000Y-94995000D01*
X153705814Y-101706402D02*
X151334000Y-99334588D01*
X156027198Y-101706402D02*
X153705814Y-101706402D01*
X156440000Y-101293600D02*
X156027198Y-101706402D01*
X156440000Y-100019000D02*
X156440000Y-101293600D01*
X12113870Y-33294790D02*
X9190400Y-36218260D01*
X9190400Y-36218260D02*
X9190400Y-47618800D01*
X23473130Y-33294790D02*
X12113870Y-33294790D01*
X26874000Y-36695660D02*
X23473130Y-33294790D01*
X26874000Y-55701200D02*
X26874000Y-36695660D01*
X21184400Y-61390800D02*
X26874000Y-55701200D01*
X145746000Y-91947000D02*
X140056400Y-97636600D01*
X140056400Y-97636600D02*
X140056400Y-116642140D01*
X140056400Y-116642140D02*
X143457270Y-120043010D01*
X143457270Y-120043010D02*
X154816530Y-120043010D01*
X157740000Y-117119540D02*
X157740000Y-105719000D01*
X154816530Y-120043010D02*
X157740000Y-117119540D01*
X14897900Y-60184300D02*
X14897900Y-54342300D01*
X14897900Y-54342300D02*
X12777000Y-52221400D01*
X12777000Y-52221400D02*
X11507000Y-52221400D01*
X11507000Y-52221400D02*
X11140400Y-52588000D01*
X11140400Y-52588000D02*
X11140400Y-53318800D01*
X18644400Y-63930800D02*
X14897900Y-60184300D01*
X148286000Y-89407000D02*
X152032500Y-93153500D01*
X155790000Y-100749800D02*
X155790000Y-100019000D01*
X155423400Y-101116400D02*
X155790000Y-100749800D01*
X154153400Y-101116400D02*
X155423400Y-101116400D01*
X152032500Y-98995500D02*
X154153400Y-101116400D01*
X152032500Y-93153500D02*
X152032500Y-98995500D01*
X8540400Y-36033872D02*
X11869484Y-32704788D01*
X11869484Y-32704788D02*
X23717516Y-32704788D01*
X23717516Y-32704788D02*
X27483600Y-36470872D01*
X27483600Y-36470872D02*
X27483600Y-57631600D01*
X27483600Y-57631600D02*
X21184400Y-63930800D01*
X8540400Y-47618800D02*
X8540400Y-36033872D01*
X158390000Y-105719000D02*
X158390000Y-117303928D01*
X139446800Y-95706200D02*
X145746000Y-89407000D01*
X139446800Y-116866928D02*
X139446800Y-95706200D01*
X143212884Y-120633012D02*
X139446800Y-116866928D01*
X155060916Y-120633012D02*
X143212884Y-120633012D01*
X158390000Y-117303928D02*
X155060916Y-120633012D01*
X14123200Y-61949600D02*
X18644400Y-66470800D01*
X11790400Y-54397100D02*
X14123200Y-56729900D01*
X14123200Y-56729900D02*
X14123200Y-61949600D01*
X11790400Y-53318800D02*
X11790400Y-54397100D01*
X155140000Y-100019000D02*
X155140000Y-98940700D01*
X152807200Y-96607900D02*
X152807200Y-91388200D01*
X155140000Y-98940700D02*
X152807200Y-96607900D01*
X152807200Y-91388200D02*
X148286000Y-86867000D01*
X28118600Y-59536600D02*
X28118600Y-36271484D01*
X28118600Y-36271484D02*
X23961902Y-32114786D01*
X23961902Y-32114786D02*
X11625098Y-32114786D01*
X11625098Y-32114786D02*
X7890400Y-35849484D01*
X7890400Y-35849484D02*
X7890400Y-47618800D01*
X21184400Y-66470800D02*
X28118600Y-59536600D01*
X145746000Y-86867000D02*
X138811800Y-93801200D01*
X159040000Y-117488316D02*
X159040000Y-105719000D01*
X155305302Y-121223014D02*
X159040000Y-117488316D01*
X142968498Y-121223014D02*
X155305302Y-121223014D01*
X138811800Y-117066316D02*
X142968498Y-121223014D01*
X138811800Y-93801200D02*
X138811800Y-117066316D01*
X5290400Y-95623700D02*
X4877600Y-95210900D01*
X4877600Y-95210900D02*
X3836200Y-95210900D01*
X5290400Y-96450300D02*
X5290400Y-95623700D01*
D23*
X770100Y-96620600D02*
X770100Y-98830400D01*
X775500Y-98835800D02*
X770100Y-98830400D01*
X120917500Y-113613200D02*
X114719900Y-119810800D01*
X114719900Y-119810800D02*
X33084300Y-119810800D01*
X775500Y-98835800D02*
X775500Y-101192600D01*
D22*
X5290400Y-46690600D02*
X4522000Y-45922200D01*
X4522000Y-45922200D02*
X3143100Y-45922200D01*
X5290400Y-47618800D02*
X5290400Y-46690600D01*
D23*
X3143100Y-45922200D02*
X3143100Y-48220900D01*
X3137700Y-48226300D02*
X3143100Y-48220900D01*
X3137700Y-53961300D02*
X3137700Y-48226300D01*
D22*
X2426500Y-96620600D02*
X780900Y-96620600D01*
X3836200Y-95210900D02*
X2426500Y-96620600D01*
D23*
X120917500Y-99033600D02*
X120917500Y-113613200D01*
X119851700Y-97967800D02*
X120917500Y-99033600D01*
X119851700Y-97967800D02*
X118570400Y-97967800D01*
X47078700Y-55370000D02*
X48360000Y-55370000D01*
X47078700Y-55370000D02*
X46012900Y-54304200D01*
X46012900Y-54304200D02*
X46012900Y-39724600D01*
D22*
X163094200Y-58126900D02*
X164503900Y-56717200D01*
X164503900Y-56717200D02*
X166149500Y-56717200D01*
D23*
X163792700Y-99376500D02*
X163792700Y-105111500D01*
X163792700Y-105111500D02*
X163787300Y-105116900D01*
X163787300Y-107415600D02*
X163787300Y-105116900D01*
D22*
X161640000Y-105719000D02*
X161640000Y-106647200D01*
X162408400Y-107415600D02*
X163787300Y-107415600D01*
X161640000Y-106647200D02*
X162408400Y-107415600D01*
D23*
X166154900Y-54502000D02*
X166154900Y-52145200D01*
X52210500Y-33527000D02*
X133846100Y-33527000D01*
X46012900Y-39724600D02*
X52210500Y-33527000D01*
X166154900Y-54502000D02*
X166160300Y-54507400D01*
X166160300Y-56717200D02*
X166160300Y-54507400D01*
D22*
X161640000Y-56887500D02*
X161640000Y-57714100D01*
X162052800Y-58126900D02*
X163094200Y-58126900D01*
X161640000Y-57714100D02*
X162052800Y-58126900D01*
X27112012Y-100964412D02*
X21184400Y-95036800D01*
X27112012Y-117568716D02*
X27112012Y-100964412D01*
X23559314Y-121121414D02*
X27112012Y-117568716D01*
X13403098Y-121121414D02*
X23559314Y-121121414D01*
X7240400Y-114958716D02*
X13403098Y-121121414D01*
X7240400Y-102150300D02*
X7240400Y-114958716D01*
X159690000Y-51187500D02*
X159690000Y-38379084D01*
X159690000Y-38379084D02*
X153527302Y-32216386D01*
X153527302Y-32216386D02*
X143371086Y-32216386D01*
X143371086Y-32216386D02*
X139818388Y-35769084D01*
X139818388Y-35769084D02*
X139818388Y-52373388D01*
X139818388Y-52373388D02*
X145746000Y-58301000D01*
X18644400Y-95036800D02*
X13217800Y-95036800D01*
X13217800Y-95036800D02*
X12440400Y-95814200D01*
X12440400Y-95814200D02*
X12440400Y-96450300D01*
X154490000Y-57523600D02*
X154490000Y-56887500D01*
X153712600Y-58301000D02*
X154490000Y-57523600D01*
X148286000Y-58301000D02*
X153712600Y-58301000D01*
X26522010Y-102914410D02*
X21184400Y-97576800D01*
X26522010Y-117324330D02*
X26522010Y-102914410D01*
X23314928Y-120531412D02*
X26522010Y-117324330D01*
X13647484Y-120531412D02*
X23314928Y-120531412D01*
X7890400Y-114774328D02*
X13647484Y-120531412D01*
X7890400Y-102150300D02*
X7890400Y-114774328D01*
X159040000Y-51187500D02*
X159040000Y-38563472D01*
X159040000Y-38563472D02*
X153282916Y-32806388D01*
X153282916Y-32806388D02*
X143615472Y-32806388D01*
X143615472Y-32806388D02*
X140408390Y-36013470D01*
X140408390Y-36013470D02*
X140408390Y-50423390D01*
X140408390Y-50423390D02*
X145746000Y-55761000D01*
X18644400Y-97576800D02*
X12221900Y-97576800D01*
X12221900Y-97576800D02*
X11790400Y-97145300D01*
X11790400Y-97145300D02*
X11790400Y-96450300D01*
X155140000Y-56192500D02*
X155140000Y-56887500D01*
X154708500Y-55761000D02*
X155140000Y-56192500D01*
X148286000Y-55761000D02*
X154708500Y-55761000D01*
X13891870Y-119941410D02*
X23070542Y-119941410D01*
X8540400Y-114589940D02*
X13891870Y-119941410D01*
X8540400Y-102150300D02*
X8540400Y-114589940D01*
X23070542Y-119941410D02*
X25932008Y-117079944D01*
X25932008Y-117079944D02*
X25932008Y-104864408D01*
X25932008Y-104864408D02*
X21184400Y-100116800D01*
X140998392Y-48473392D02*
X145746000Y-53221000D01*
X140998392Y-36257856D02*
X140998392Y-48473392D01*
X143859858Y-33396390D02*
X140998392Y-36257856D01*
X158390000Y-51187500D02*
X158390000Y-38747860D01*
X158390000Y-38747860D02*
X153038530Y-33396390D01*
X153038530Y-33396390D02*
X143859858Y-33396390D01*
X11140400Y-96450300D02*
X11140400Y-97625600D01*
X11140400Y-97625600D02*
X11681602Y-98166802D01*
X11681602Y-98166802D02*
X16694402Y-98166802D01*
X16694402Y-98166802D02*
X18644400Y-100116800D01*
X150235998Y-55170998D02*
X148286000Y-53221000D01*
X155248798Y-55170998D02*
X150235998Y-55170998D01*
X155790000Y-55712200D02*
X155248798Y-55170998D01*
X155790000Y-56887500D02*
X155790000Y-55712200D01*
X14136256Y-119351408D02*
X22826156Y-119351408D01*
X9190400Y-114405552D02*
X14136256Y-119351408D01*
X9190400Y-102150300D02*
X9190400Y-114405552D01*
X22826156Y-119351408D02*
X25342006Y-116835558D01*
X25342006Y-116835558D02*
X25342006Y-106814406D01*
X25342006Y-106814406D02*
X21184400Y-102656800D01*
X141588394Y-46523394D02*
X145746000Y-50681000D01*
X141588394Y-36502242D02*
X141588394Y-46523394D01*
X144104244Y-33986392D02*
X141588394Y-36502242D01*
X157740000Y-51187500D02*
X157740000Y-38932248D01*
X157740000Y-38932248D02*
X152794144Y-33986392D01*
X152794144Y-33986392D02*
X144104244Y-33986392D01*
X10490400Y-96450300D02*
X10490400Y-98105900D01*
X10490400Y-98105900D02*
X11141304Y-98756804D01*
X11141304Y-98756804D02*
X15522804Y-98756804D01*
X15522804Y-98756804D02*
X17145800Y-100379800D01*
X17145800Y-100379800D02*
X17145800Y-101158200D01*
X17145800Y-101158200D02*
X18644400Y-102656800D01*
X149784600Y-52179600D02*
X148286000Y-50681000D01*
X149784600Y-52958000D02*
X149784600Y-52179600D01*
X151407596Y-54580996D02*
X149784600Y-52958000D01*
X155789096Y-54580996D02*
X151407596Y-54580996D01*
X156440000Y-55231900D02*
X155789096Y-54580996D01*
X156440000Y-56887500D02*
X156440000Y-55231900D01*
X14380642Y-118761406D02*
X22581770Y-118761406D01*
X9840400Y-114221164D02*
X14380642Y-118761406D01*
X9840400Y-102150300D02*
X9840400Y-114221164D01*
X22581770Y-118761406D02*
X24752004Y-116591172D01*
X24752004Y-116591172D02*
X24752004Y-108764404D01*
X24752004Y-108764404D02*
X21184400Y-105196800D01*
X142178396Y-44573396D02*
X145746000Y-48141000D01*
X142178396Y-36746628D02*
X142178396Y-44573396D01*
X144348630Y-34576394D02*
X142178396Y-36746628D01*
X157090000Y-51187500D02*
X157090000Y-39116636D01*
X157090000Y-39116636D02*
X152549758Y-34576394D01*
X152549758Y-34576394D02*
X144348630Y-34576394D01*
X10613706Y-99346806D02*
X9840400Y-98573500D01*
X9840400Y-98573500D02*
X9840400Y-96450300D01*
X14779306Y-99346806D02*
X10613706Y-99346806D01*
X16294900Y-100862400D02*
X14779306Y-99346806D01*
X16294900Y-102847300D02*
X16294900Y-100862400D01*
X18644400Y-105196800D02*
X16294900Y-102847300D01*
X148286000Y-48141000D02*
X150635500Y-50490500D01*
X150635500Y-50490500D02*
X150635500Y-52475400D01*
X150635500Y-52475400D02*
X152151094Y-53990994D01*
X152151094Y-53990994D02*
X156316694Y-53990994D01*
X157090000Y-54764300D02*
X157090000Y-56887500D01*
X156316694Y-53990994D02*
X157090000Y-54764300D01*
X14625028Y-118171404D02*
X22337384Y-118171404D01*
X10490400Y-114036776D02*
X14625028Y-118171404D01*
X10490400Y-102150300D02*
X10490400Y-114036776D01*
X22337384Y-118171404D02*
X24162002Y-116346786D01*
X24162002Y-116346786D02*
X24162002Y-110714402D01*
X24162002Y-110714402D02*
X21184400Y-107736800D01*
X142768398Y-42623398D02*
X145746000Y-45601000D01*
X142768398Y-36991014D02*
X142768398Y-42623398D01*
X144593016Y-35166396D02*
X142768398Y-36991014D01*
X156440000Y-51187500D02*
X156440000Y-39301024D01*
X156440000Y-39301024D02*
X152305372Y-35166396D01*
X152305372Y-35166396D02*
X144593016Y-35166396D01*
X9190400Y-96450300D02*
X9190400Y-99091900D01*
X9190400Y-99091900D02*
X10035308Y-99936808D01*
X10035308Y-99936808D02*
X14239008Y-99936808D01*
X14239008Y-99936808D02*
X15494800Y-101192600D01*
X15494800Y-101192600D02*
X15494800Y-104587200D01*
X15494800Y-104587200D02*
X18644400Y-107736800D01*
X151435600Y-48750600D02*
X148286000Y-45601000D01*
X151435600Y-52145200D02*
X151435600Y-48750600D01*
X152691392Y-53400992D02*
X151435600Y-52145200D01*
X156895092Y-53400992D02*
X152691392Y-53400992D01*
X157740000Y-54245900D02*
X156895092Y-53400992D01*
X157740000Y-56887500D02*
X157740000Y-54245900D01*
X14869414Y-117581402D02*
X22092998Y-117581402D01*
X11140400Y-113852388D02*
X14869414Y-117581402D01*
X11140400Y-102150300D02*
X11140400Y-113852388D01*
X22092998Y-117581402D02*
X23572000Y-116102400D01*
X23572000Y-116102400D02*
X23572000Y-112664400D01*
X23572000Y-112664400D02*
X21184400Y-110276800D01*
X143358400Y-40673400D02*
X145746000Y-43061000D01*
X143358400Y-37235400D02*
X143358400Y-40673400D01*
X144837402Y-35756398D02*
X143358400Y-37235400D01*
X155790000Y-51187500D02*
X155790000Y-39485412D01*
X155790000Y-39485412D02*
X152060986Y-35756398D01*
X152060986Y-35756398D02*
X144837402Y-35756398D01*
X9495010Y-100526810D02*
X8540400Y-99572200D01*
X8540400Y-99572200D02*
X8540400Y-96450300D01*
X13711410Y-100526810D02*
X9495010Y-100526810D01*
X14694700Y-101510100D02*
X13711410Y-100526810D01*
X14694700Y-106327100D02*
X14694700Y-101510100D01*
X18644400Y-110276800D02*
X14694700Y-106327100D01*
X148286000Y-43061000D02*
X152235700Y-47010700D01*
X152235700Y-47010700D02*
X152235700Y-51827700D01*
X152235700Y-51827700D02*
X153218990Y-52810990D01*
X153218990Y-52810990D02*
X157435390Y-52810990D01*
X158390000Y-53765600D02*
X158390000Y-56887500D01*
X157435390Y-52810990D02*
X158390000Y-53765600D01*
X15113800Y-116991400D02*
X21819400Y-116991400D01*
X11790400Y-113668000D02*
X15113800Y-116991400D01*
X11790400Y-102150300D02*
X11790400Y-113668000D01*
X21819400Y-116991400D02*
X22962400Y-115848400D01*
X22962400Y-115848400D02*
X22962400Y-114594800D01*
X22962400Y-114594800D02*
X21184400Y-112816800D01*
X143968000Y-38743000D02*
X145746000Y-40521000D01*
X143968000Y-37489400D02*
X143968000Y-38743000D01*
X145111000Y-36346400D02*
X143968000Y-37489400D01*
X155140000Y-51187500D02*
X155140000Y-39669800D01*
X155140000Y-39669800D02*
X151816600Y-36346400D01*
X151816600Y-36346400D02*
X145111000Y-36346400D01*
X7890400Y-96450300D02*
X7890400Y-100090600D01*
X7890400Y-100090600D02*
X8916612Y-101116812D01*
X8916612Y-101116812D02*
X13183812Y-101116812D01*
X13183812Y-101116812D02*
X14008900Y-101941900D01*
X14008900Y-101941900D02*
X14008900Y-108181300D01*
X14008900Y-108181300D02*
X18644400Y-112816800D01*
X152921500Y-45156500D02*
X148286000Y-40521000D01*
X152921500Y-51395900D02*
X152921500Y-45156500D01*
X153746588Y-52220988D02*
X152921500Y-51395900D01*
X158013788Y-52220988D02*
X153746588Y-52220988D01*
X159040000Y-53247200D02*
X158013788Y-52220988D01*
X159040000Y-56887500D02*
X159040000Y-53247200D01*
X5296700Y-102156600D02*
X5290400Y-102150300D01*
X5290400Y-102150300D02*
X5290400Y-102951500D01*
X5290400Y-102951500D02*
X4407700Y-103834200D01*
X161640000Y-50386300D02*
X162522700Y-49503600D01*
X161640000Y-51187500D02*
X161640000Y-50386300D01*
X161633700Y-51181200D02*
X161640000Y-51187500D01*
X5940400Y-103889000D02*
X5940400Y-102150300D01*
X5940400Y-103889000D02*
X5411000Y-104418400D01*
X11773700Y-72198300D02*
X9831400Y-74140600D01*
X5940400Y-55976600D02*
X7544600Y-57580800D01*
X7544600Y-57580800D02*
X10198900Y-57580800D01*
X5940400Y-53318800D02*
X5940400Y-55976600D01*
X10198900Y-57580800D02*
X11773700Y-59155600D01*
X11773700Y-59155600D02*
X11773700Y-72198300D01*
X155156700Y-94182200D02*
X155156700Y-81139500D01*
X156731500Y-95757000D02*
X155156700Y-94182200D01*
X160990000Y-100019000D02*
X160990000Y-97361200D01*
X159385800Y-95757000D02*
X156731500Y-95757000D01*
X160990000Y-97361200D02*
X159385800Y-95757000D01*
X155156700Y-81139500D02*
X157099000Y-79197200D01*
X160990000Y-49448800D02*
X161519400Y-48919400D01*
X160990000Y-49448800D02*
X160990000Y-51187500D01*
X7240400Y-95438900D02*
X7240400Y-96450300D01*
X7240400Y-95438900D02*
X7925600Y-94753700D01*
X12624600Y-82013800D02*
X12624600Y-93369400D01*
X11240300Y-94753700D02*
X12624600Y-93369400D01*
X7925600Y-94753700D02*
X11240300Y-94753700D01*
X9831400Y-79220600D02*
X12624600Y-82013800D01*
X157099000Y-74117200D02*
X154305800Y-71324000D01*
X159004800Y-58584100D02*
X155690100Y-58584100D01*
X155690100Y-58584100D02*
X154305800Y-59968400D01*
X154305800Y-71324000D02*
X154305800Y-59968400D01*
X159690000Y-57898900D02*
X159004800Y-58584100D01*
X159690000Y-57898900D02*
X159690000Y-56887500D01*
X6590400Y-44828300D02*
X5138498Y-43376398D01*
X5118900Y-73633600D02*
X-2080904Y-66433796D01*
X-2080904Y-44663804D02*
X-2080904Y-66433796D01*
X-793498Y-43376398D02*
X-2080904Y-44663804D01*
X5138498Y-43376398D02*
X-793498Y-43376398D01*
X6590400Y-47618800D02*
X6590400Y-44828300D01*
X11773700Y-83702900D02*
X9831400Y-81760600D01*
X6590400Y-96450300D02*
X6590400Y-94958600D01*
X6590400Y-94958600D02*
X7620800Y-93928200D01*
X10897400Y-93928200D02*
X11773700Y-93051900D01*
X7620800Y-93928200D02*
X10897400Y-93928200D01*
X11773700Y-93051900D02*
X11773700Y-83702900D01*
X8562400Y-80491600D02*
X6274600Y-80491600D01*
X6274600Y-80491600D02*
X5118900Y-79335900D01*
X5118900Y-79335900D02*
X5118900Y-73633600D01*
X9831400Y-81760600D02*
X8562400Y-80491600D01*
X157099000Y-71577200D02*
X158368000Y-72846200D01*
X161811500Y-74001900D02*
X161811500Y-79704200D01*
X160655800Y-72846200D02*
X161811500Y-74001900D01*
X158368000Y-72846200D02*
X160655800Y-72846200D01*
X155156700Y-60285900D02*
X155156700Y-69634900D01*
X159309600Y-59409600D02*
X156033000Y-59409600D01*
X156033000Y-59409600D02*
X155156700Y-60285900D01*
X160340000Y-58379200D02*
X159309600Y-59409600D01*
X160340000Y-56887500D02*
X160340000Y-58379200D01*
X155156700Y-69634900D02*
X157099000Y-71577200D01*
X160340000Y-105719000D02*
X160340000Y-108509500D01*
X161791902Y-109961402D02*
X167723898Y-109961402D01*
X167723898Y-109961402D02*
X169011304Y-108673996D01*
X169011304Y-108673996D02*
X169011304Y-86904004D01*
X161811500Y-79704200D02*
X169011304Y-86904004D01*
X160340000Y-108509500D02*
X161791902Y-109961402D01*
X7291400Y-71600600D02*
X5290400Y-69599600D01*
X5290400Y-69599600D02*
X5290400Y-53318800D01*
X161640000Y-83738200D02*
X161640000Y-100019000D01*
X159639000Y-81737200D02*
X161640000Y-83738200D01*
X-1355384Y-42595896D02*
X-2836006Y-44076518D01*
X-2836006Y-44076518D02*
X-2836006Y-67304294D01*
X-2836006Y-67304294D02*
X4153700Y-74294000D01*
X8562400Y-83031600D02*
X5868200Y-83031600D01*
X5868200Y-83031600D02*
X4153700Y-81317100D01*
X4153700Y-81317100D02*
X4153700Y-74294000D01*
X9831400Y-84300600D02*
X8562400Y-83031600D01*
X5547984Y-42595896D02*
X-1355384Y-42595896D01*
X7240400Y-44288312D02*
X5547984Y-42595896D01*
X7240400Y-47618800D02*
X7240400Y-44288312D01*
X159690000Y-105719000D02*
X159690000Y-109049488D01*
X159690000Y-109049488D02*
X161382416Y-110741904D01*
X161382416Y-110741904D02*
X168285784Y-110741904D01*
X157099000Y-69037200D02*
X158368000Y-70306200D01*
X162776700Y-72020700D02*
X162776700Y-79043800D01*
X161062200Y-70306200D02*
X162776700Y-72020700D01*
X158368000Y-70306200D02*
X161062200Y-70306200D01*
X169766406Y-86033506D02*
X162776700Y-79043800D01*
X169766406Y-109261282D02*
X169766406Y-86033506D01*
X168285784Y-110741904D02*
X169766406Y-109261282D01*
X5940400Y-47618800D02*
X5940400Y-45410200D01*
X5940400Y-45410200D02*
X4712500Y-44182300D01*
X4712500Y-44182300D02*
X-253200Y-44182300D01*
X-253200Y-44182300D02*
X-1338502Y-45267602D01*
X-1338502Y-45267602D02*
X-1338502Y-65510698D01*
X-1338502Y-65510698D02*
X7291400Y-74140600D01*
X168268902Y-87827102D02*
X159639000Y-79197200D01*
X168268902Y-108070198D02*
X168268902Y-87827102D01*
X167183600Y-109155500D02*
X168268902Y-108070198D01*
X162217900Y-109155500D02*
X167183600Y-109155500D01*
X160990000Y-107927600D02*
X162217900Y-109155500D01*
X160990000Y-105719000D02*
X160990000Y-107927600D01*
X5309400Y-91362600D02*
X7291400Y-89380600D01*
X5940400Y-94927500D02*
X5309400Y-94296500D01*
X5309400Y-94296500D02*
X5309400Y-91362600D01*
X5940400Y-96450300D02*
X5940400Y-94927500D01*
X160990000Y-56887500D02*
X160990000Y-58410300D01*
X161621000Y-59041300D02*
X161621000Y-61975200D01*
X160990000Y-58410300D02*
X161621000Y-59041300D01*
X161621000Y-61975200D02*
X159639000Y-63957200D01*
X6590400Y-53318800D02*
X6590400Y-55470900D01*
X6590400Y-55470900D02*
X7862100Y-56742600D01*
X7862100Y-56742600D02*
X10859300Y-56742600D01*
X12573800Y-73938200D02*
X9831400Y-76680600D01*
X10859300Y-56742600D02*
X12573800Y-58457100D01*
X12573800Y-58457100D02*
X12573800Y-73938200D01*
X154356600Y-94880700D02*
X154356600Y-79399600D01*
X156071100Y-96595200D02*
X154356600Y-94880700D01*
X154356600Y-79399600D02*
X157099000Y-76657200D01*
X159068300Y-96595200D02*
X156071100Y-96595200D01*
X160340000Y-97866900D02*
X159068300Y-96595200D01*
X160340000Y-100019000D02*
X160340000Y-97866900D01*
X6590400Y-104826500D02*
X6300000Y-105116900D01*
X6590400Y-102150300D02*
X6590400Y-104826500D01*
X160340000Y-51187500D02*
X160340000Y-48511300D01*
X160340000Y-48511300D02*
X160630400Y-48220900D01*
D21*
G36*
X37482490Y-29293134D02*
X37243285Y-29391971D01*
X36321209Y-30312439D01*
X35821570Y-31515704D01*
X35820433Y-32818580D01*
X36317971Y-34022715D01*
X37238439Y-34944791D01*
X38441704Y-35444430D01*
X39744580Y-35445567D01*
X40948715Y-34948029D01*
X41870791Y-34027561D01*
X42370430Y-32824296D01*
X42371567Y-31521420D01*
X41874029Y-30317285D01*
X40953561Y-29395209D01*
X40707837Y-29293175D01*
X166157055Y-29294803D01*
X165094185Y-29733971D01*
X164172109Y-30654439D01*
X163672470Y-31857704D01*
X163671333Y-33160580D01*
X164168871Y-34364715D01*
X165089339Y-35286791D01*
X166292604Y-35786430D01*
X167595480Y-35787567D01*
X168799615Y-35290029D01*
X169721691Y-34369561D01*
X170221330Y-33166296D01*
X170221849Y-32571030D01*
X175740649Y-32571030D01*
X176048288Y-33315572D01*
X176617432Y-33885710D01*
X177361435Y-34194648D01*
X178167030Y-34195351D01*
X178911572Y-33887712D01*
X179481710Y-33318568D01*
X179790648Y-32574565D01*
X179791351Y-31768970D01*
X179483712Y-31024428D01*
X178914568Y-30454290D01*
X178170565Y-30145352D01*
X177364970Y-30144649D01*
X176620428Y-30452288D01*
X176050290Y-31021432D01*
X175741352Y-31765435D01*
X175740649Y-32571030D01*
X170221849Y-32571030D01*
X170222467Y-31863420D01*
X169724929Y-30659285D01*
X168804461Y-29737209D01*
X167739077Y-29294823D01*
X180711000Y-29294991D01*
X180711000Y-124045000D01*
X167737223Y-124045000D01*
X168799615Y-123606029D01*
X169721691Y-122685561D01*
X170184484Y-121571030D01*
X175740649Y-121571030D01*
X176048288Y-122315572D01*
X176617432Y-122885710D01*
X177361435Y-123194648D01*
X178167030Y-123195351D01*
X178911572Y-122887712D01*
X179481710Y-122318568D01*
X179790648Y-121574565D01*
X179791351Y-120768970D01*
X179483712Y-120024428D01*
X178914568Y-119454290D01*
X178170565Y-119145352D01*
X177364970Y-119144649D01*
X176620428Y-119452288D01*
X176050290Y-120021432D01*
X175741352Y-120765435D01*
X175740649Y-121571030D01*
X170184484Y-121571030D01*
X170221330Y-121482296D01*
X170222467Y-120179420D01*
X169724929Y-118975285D01*
X168804461Y-118053209D01*
X167601196Y-117553570D01*
X166298320Y-117552433D01*
X165094185Y-118049971D01*
X164172109Y-118970439D01*
X163672470Y-120173704D01*
X163671333Y-121476580D01*
X164168871Y-122680715D01*
X165089339Y-123602791D01*
X166154297Y-124045000D01*
X155107160Y-124045000D01*
X155096000Y-124042900D01*
X136961000Y-124042900D01*
X136961000Y-93801200D01*
X138086800Y-93801200D01*
X138086800Y-117066316D01*
X138126006Y-117263417D01*
X138141987Y-117343762D01*
X138299148Y-117578968D01*
X142455846Y-121735667D01*
X142691052Y-121892827D01*
X142968498Y-121948014D01*
X155305302Y-121948014D01*
X155536717Y-121901983D01*
X155582748Y-121892827D01*
X155817954Y-121735666D01*
X159552653Y-118000968D01*
X159709813Y-117765762D01*
X159765000Y-117488316D01*
X159765000Y-112413750D01*
X170808300Y-112413750D01*
X170808300Y-113385747D01*
X170857779Y-113505198D01*
X170949203Y-113596622D01*
X171068654Y-113646100D01*
X172040650Y-113646100D01*
X172121900Y-113564850D01*
X172121900Y-112332500D01*
X172379900Y-112332500D01*
X172379900Y-113564850D01*
X172461150Y-113646100D01*
X173433146Y-113646100D01*
X173552597Y-113596622D01*
X173644021Y-113505198D01*
X173693500Y-113385747D01*
X173693500Y-112413750D01*
X173612250Y-112332500D01*
X172379900Y-112332500D01*
X172121900Y-112332500D01*
X170889550Y-112332500D01*
X170808300Y-112413750D01*
X159765000Y-112413750D01*
X159765000Y-110149792D01*
X160869764Y-111254557D01*
X161104970Y-111411717D01*
X161382416Y-111466904D01*
X168285784Y-111466904D01*
X168517199Y-111420873D01*
X168563230Y-111411717D01*
X168798436Y-111254556D01*
X169031739Y-111021253D01*
X170808300Y-111021253D01*
X170808300Y-111993250D01*
X170889550Y-112074500D01*
X172121900Y-112074500D01*
X172121900Y-110842150D01*
X172379900Y-110842150D01*
X172379900Y-112074500D01*
X173612250Y-112074500D01*
X173693500Y-111993250D01*
X173693500Y-111021253D01*
X173644021Y-110901802D01*
X173552597Y-110810378D01*
X173433146Y-110760900D01*
X172461150Y-110760900D01*
X172379900Y-110842150D01*
X172121900Y-110842150D01*
X172040650Y-110760900D01*
X171068654Y-110760900D01*
X170949203Y-110810378D01*
X170857779Y-110901802D01*
X170808300Y-111021253D01*
X169031739Y-111021253D01*
X170279059Y-109773934D01*
X170436219Y-109538728D01*
X170491406Y-109261282D01*
X170491406Y-86033506D01*
X170436219Y-85756061D01*
X170436219Y-85756060D01*
X170279058Y-85520854D01*
X163501700Y-78743496D01*
X163501700Y-72020700D01*
X163446513Y-71743255D01*
X163335558Y-71577200D01*
X163289352Y-71508047D01*
X161574852Y-69793548D01*
X161339646Y-69636387D01*
X161293615Y-69627231D01*
X161062200Y-69581200D01*
X160940680Y-69581200D01*
X160949103Y-69568594D01*
X161054804Y-69037200D01*
X160949103Y-68505806D01*
X160648092Y-68055312D01*
X160216903Y-67767200D01*
X160648092Y-67479088D01*
X160949103Y-67028594D01*
X161054804Y-66497200D01*
X160949103Y-65965806D01*
X160648092Y-65515312D01*
X160216903Y-65227200D01*
X160648092Y-64939088D01*
X160949103Y-64488594D01*
X161054804Y-63957200D01*
X160990016Y-63631489D01*
X162133652Y-62487853D01*
X162290812Y-62252646D01*
X162290813Y-62252645D01*
X162346000Y-61975200D01*
X162346000Y-59209500D01*
X164268700Y-59209500D01*
X164268700Y-77389500D01*
X164277249Y-77434932D01*
X164304099Y-77476659D01*
X164345068Y-77504652D01*
X164393700Y-77514500D01*
X180043700Y-77514500D01*
X180089132Y-77505951D01*
X180130859Y-77479101D01*
X180158852Y-77438132D01*
X180168700Y-77389500D01*
X180168700Y-59209500D01*
X180160151Y-59164068D01*
X180133301Y-59122341D01*
X180092332Y-59094348D01*
X180043700Y-59084500D01*
X164393700Y-59084500D01*
X164348268Y-59093049D01*
X164306541Y-59119899D01*
X164278548Y-59160868D01*
X164268700Y-59209500D01*
X162346000Y-59209500D01*
X162346000Y-59041300D01*
X162313549Y-58878155D01*
X162308326Y-58851900D01*
X163094200Y-58851900D01*
X163325615Y-58805869D01*
X163371646Y-58796713D01*
X163606852Y-58639552D01*
X164804205Y-57442200D01*
X164883031Y-57442200D01*
X164900823Y-57536753D01*
X165015804Y-57715439D01*
X165191244Y-57835312D01*
X165399500Y-57877485D01*
X166899500Y-57877485D01*
X167094053Y-57840877D01*
X167272739Y-57725896D01*
X167392612Y-57550456D01*
X167434785Y-57342200D01*
X167434785Y-56927450D01*
X167574500Y-56927450D01*
X167574500Y-57406847D01*
X167623979Y-57526298D01*
X167715403Y-57617722D01*
X167834854Y-57667200D01*
X168439250Y-57667200D01*
X168520500Y-57585950D01*
X168520500Y-56846200D01*
X168778500Y-56846200D01*
X168778500Y-57585950D01*
X168859750Y-57667200D01*
X169464146Y-57667200D01*
X169583597Y-57617722D01*
X169675021Y-57526298D01*
X169724500Y-57406847D01*
X169724500Y-56927450D01*
X169643250Y-56846200D01*
X168778500Y-56846200D01*
X168520500Y-56846200D01*
X167655750Y-56846200D01*
X167574500Y-56927450D01*
X167434785Y-56927450D01*
X167434785Y-56092200D01*
X167422621Y-56027553D01*
X167574500Y-56027553D01*
X167574500Y-56506950D01*
X167655750Y-56588200D01*
X168520500Y-56588200D01*
X168520500Y-55848450D01*
X168778500Y-55848450D01*
X168778500Y-56588200D01*
X169643250Y-56588200D01*
X169724500Y-56506950D01*
X169724500Y-56027553D01*
X169675021Y-55908102D01*
X169583597Y-55816678D01*
X169464146Y-55767200D01*
X168859750Y-55767200D01*
X168778500Y-55848450D01*
X168520500Y-55848450D01*
X168439250Y-55767200D01*
X167834854Y-55767200D01*
X167715403Y-55816678D01*
X167623979Y-55908102D01*
X167574500Y-56027553D01*
X167422621Y-56027553D01*
X167398177Y-55897647D01*
X167283196Y-55718961D01*
X167125221Y-55611021D01*
X167272739Y-55516096D01*
X167392612Y-55340656D01*
X167434785Y-55132400D01*
X167434785Y-54717650D01*
X167574500Y-54717650D01*
X167574500Y-55197047D01*
X167623979Y-55316498D01*
X167715403Y-55407922D01*
X167834854Y-55457400D01*
X168439250Y-55457400D01*
X168520500Y-55376150D01*
X168520500Y-54636400D01*
X168778500Y-54636400D01*
X168778500Y-55376150D01*
X168859750Y-55457400D01*
X169464146Y-55457400D01*
X169583597Y-55407922D01*
X169675021Y-55316498D01*
X169724500Y-55197047D01*
X169724500Y-54717650D01*
X169643250Y-54636400D01*
X168778500Y-54636400D01*
X168520500Y-54636400D01*
X167655750Y-54636400D01*
X167574500Y-54717650D01*
X167434785Y-54717650D01*
X167434785Y-53882400D01*
X167422621Y-53817753D01*
X167574500Y-53817753D01*
X167574500Y-54297150D01*
X167655750Y-54378400D01*
X168520500Y-54378400D01*
X168520500Y-53638650D01*
X168778500Y-53638650D01*
X168778500Y-54378400D01*
X169643250Y-54378400D01*
X169724500Y-54297150D01*
X169724500Y-53817753D01*
X169675021Y-53698302D01*
X169583597Y-53606878D01*
X169464146Y-53557400D01*
X168859750Y-53557400D01*
X168778500Y-53638650D01*
X168520500Y-53638650D01*
X168439250Y-53557400D01*
X167834854Y-53557400D01*
X167715403Y-53606878D01*
X167623979Y-53698302D01*
X167574500Y-53817753D01*
X167422621Y-53817753D01*
X167398177Y-53687847D01*
X167283196Y-53509161D01*
X167107756Y-53389288D01*
X167079900Y-53383647D01*
X167079900Y-52445655D01*
X167124232Y-52338892D01*
X167124568Y-51953201D01*
X166977282Y-51596740D01*
X166704795Y-51323777D01*
X166348592Y-51175868D01*
X165962901Y-51175532D01*
X165606440Y-51322818D01*
X165333477Y-51595305D01*
X165185568Y-51951508D01*
X165185232Y-52337199D01*
X165229900Y-52445304D01*
X165229900Y-53379028D01*
X165204947Y-53383723D01*
X165026261Y-53498704D01*
X164906388Y-53674144D01*
X164864215Y-53882400D01*
X164864215Y-55132400D01*
X164900823Y-55326953D01*
X165015804Y-55505639D01*
X165173779Y-55613579D01*
X165026261Y-55708504D01*
X164906388Y-55883944D01*
X164884466Y-55992200D01*
X164503900Y-55992200D01*
X164226454Y-56047387D01*
X163991248Y-56204547D01*
X162793896Y-57401900D01*
X162375285Y-57401900D01*
X162375285Y-56337500D01*
X162338677Y-56142947D01*
X162223696Y-55964261D01*
X162048256Y-55844388D01*
X161840000Y-55802215D01*
X161440000Y-55802215D01*
X161310411Y-55826599D01*
X161190000Y-55802215D01*
X160790000Y-55802215D01*
X160660411Y-55826599D01*
X160540000Y-55802215D01*
X160140000Y-55802215D01*
X160010411Y-55826599D01*
X159890000Y-55802215D01*
X159765000Y-55802215D01*
X159765000Y-53247200D01*
X159718969Y-53015785D01*
X159709813Y-52969754D01*
X159552652Y-52734548D01*
X159090889Y-52272785D01*
X159240000Y-52272785D01*
X159369589Y-52248401D01*
X159490000Y-52272785D01*
X159890000Y-52272785D01*
X160019589Y-52248401D01*
X160140000Y-52272785D01*
X160540000Y-52272785D01*
X160669589Y-52248401D01*
X160790000Y-52272785D01*
X161190000Y-52272785D01*
X161319589Y-52248401D01*
X161440000Y-52272785D01*
X161840000Y-52272785D01*
X162034553Y-52236177D01*
X162213239Y-52121196D01*
X162333112Y-51945756D01*
X162375285Y-51737500D01*
X162375285Y-50676319D01*
X162578455Y-50473149D01*
X162714699Y-50473268D01*
X163071160Y-50325982D01*
X163344123Y-50053495D01*
X163492032Y-49697292D01*
X163492368Y-49311601D01*
X163345082Y-48955140D01*
X163072595Y-48682177D01*
X162716392Y-48534268D01*
X162409157Y-48534000D01*
X162341782Y-48370940D01*
X162069295Y-48097977D01*
X161713092Y-47950068D01*
X161567443Y-47949941D01*
X161452782Y-47672440D01*
X161180295Y-47399477D01*
X160824092Y-47251568D01*
X160438401Y-47251232D01*
X160415000Y-47260901D01*
X160415000Y-43579750D01*
X169639900Y-43579750D01*
X169639900Y-44551747D01*
X169689379Y-44671198D01*
X169780803Y-44762622D01*
X169900254Y-44812100D01*
X170872250Y-44812100D01*
X170953500Y-44730850D01*
X170953500Y-43498500D01*
X171211500Y-43498500D01*
X171211500Y-44730850D01*
X171292750Y-44812100D01*
X172264746Y-44812100D01*
X172384197Y-44762622D01*
X172475621Y-44671198D01*
X172525100Y-44551747D01*
X172525100Y-43579750D01*
X172443850Y-43498500D01*
X171211500Y-43498500D01*
X170953500Y-43498500D01*
X169721150Y-43498500D01*
X169639900Y-43579750D01*
X160415000Y-43579750D01*
X160415000Y-42187253D01*
X169639900Y-42187253D01*
X169639900Y-43159250D01*
X169721150Y-43240500D01*
X170953500Y-43240500D01*
X170953500Y-42008150D01*
X171211500Y-42008150D01*
X171211500Y-43240500D01*
X172443850Y-43240500D01*
X172525100Y-43159250D01*
X172525100Y-42187253D01*
X172475621Y-42067802D01*
X172384197Y-41976378D01*
X172264746Y-41926900D01*
X171292750Y-41926900D01*
X171211500Y-42008150D01*
X170953500Y-42008150D01*
X170872250Y-41926900D01*
X169900254Y-41926900D01*
X169780803Y-41976378D01*
X169689379Y-42067802D01*
X169639900Y-42187253D01*
X160415000Y-42187253D01*
X160415000Y-38379084D01*
X160359813Y-38101639D01*
X160202652Y-37866432D01*
X154039954Y-31703734D01*
X153804748Y-31546573D01*
X153758717Y-31537417D01*
X153527302Y-31491386D01*
X143371086Y-31491386D01*
X143093640Y-31546573D01*
X142858434Y-31703733D01*
X139305736Y-35256432D01*
X139148575Y-35491638D01*
X139146749Y-35500818D01*
X139093388Y-35769084D01*
X139093388Y-52373388D01*
X139139419Y-52604803D01*
X139148575Y-52650834D01*
X139305736Y-52886040D01*
X144394984Y-57975289D01*
X144330196Y-58301000D01*
X144435897Y-58832394D01*
X144736908Y-59282888D01*
X145187402Y-59583899D01*
X145616998Y-59669351D01*
X145616998Y-59740658D01*
X145433747Y-59694136D01*
X145018630Y-59900930D01*
X144714249Y-60250841D01*
X144599148Y-60528749D01*
X144646190Y-60712000D01*
X145617000Y-60712000D01*
X145617000Y-60692000D01*
X145875000Y-60692000D01*
X145875000Y-60712000D01*
X146845810Y-60712000D01*
X146892852Y-60528749D01*
X146777751Y-60250841D01*
X146473370Y-59900930D01*
X146058253Y-59694136D01*
X145875002Y-59740658D01*
X145875002Y-59669351D01*
X146304598Y-59583899D01*
X146755092Y-59282888D01*
X147016000Y-58892412D01*
X147276908Y-59282888D01*
X147727402Y-59583899D01*
X148071779Y-59652400D01*
X147357754Y-59652400D01*
X147238303Y-59701878D01*
X147146879Y-59793302D01*
X147097400Y-59912753D01*
X147097400Y-60630750D01*
X147178650Y-60712000D01*
X148157000Y-60712000D01*
X148157000Y-60692000D01*
X148415000Y-60692000D01*
X148415000Y-60712000D01*
X149393350Y-60712000D01*
X149474600Y-60630750D01*
X149474600Y-59912753D01*
X149425121Y-59793302D01*
X149333697Y-59701878D01*
X149214246Y-59652400D01*
X148500221Y-59652400D01*
X148844598Y-59583899D01*
X149295092Y-59282888D01*
X149466739Y-59026000D01*
X153712600Y-59026000D01*
X153944015Y-58979969D01*
X153990046Y-58970813D01*
X154225252Y-58813652D01*
X155002653Y-58036252D01*
X155045060Y-57972785D01*
X155325106Y-57972785D01*
X155177448Y-58071447D01*
X153793148Y-59455748D01*
X153635987Y-59690954D01*
X153635987Y-59690955D01*
X153580800Y-59968400D01*
X153580800Y-71324000D01*
X153610498Y-71473301D01*
X153635987Y-71601446D01*
X153793148Y-71836652D01*
X155747984Y-73791489D01*
X155683196Y-74117200D01*
X155788897Y-74648594D01*
X156089908Y-75099088D01*
X156521097Y-75387200D01*
X156089908Y-75675312D01*
X155788897Y-76125806D01*
X155683196Y-76657200D01*
X155747984Y-76982911D01*
X153843948Y-78886948D01*
X153686787Y-79122154D01*
X153686787Y-79122155D01*
X153631600Y-79399600D01*
X153631600Y-94880700D01*
X153661696Y-95032001D01*
X153686787Y-95158146D01*
X153843948Y-95393352D01*
X155558447Y-97107852D01*
X155715608Y-97212863D01*
X155793655Y-97265013D01*
X156071100Y-97320200D01*
X158767996Y-97320200D01*
X159615000Y-98167205D01*
X159615000Y-98933715D01*
X159490000Y-98933715D01*
X159360411Y-98958099D01*
X159240000Y-98933715D01*
X158840000Y-98933715D01*
X158710411Y-98958099D01*
X158590000Y-98933715D01*
X158190000Y-98933715D01*
X158060411Y-98958099D01*
X157940000Y-98933715D01*
X157540000Y-98933715D01*
X157410411Y-98958099D01*
X157290000Y-98933715D01*
X156890000Y-98933715D01*
X156760411Y-98958099D01*
X156640000Y-98933715D01*
X156240000Y-98933715D01*
X156110411Y-98958099D01*
X155990000Y-98933715D01*
X155863611Y-98933715D01*
X155809813Y-98663255D01*
X155739943Y-98558688D01*
X155652652Y-98428047D01*
X153532200Y-96307596D01*
X153532200Y-91388200D01*
X153477013Y-91110755D01*
X153346422Y-90915312D01*
X153319852Y-90875547D01*
X149637016Y-87192712D01*
X149701804Y-86867000D01*
X149596103Y-86335606D01*
X149295092Y-85885112D01*
X148863903Y-85597000D01*
X149295092Y-85308888D01*
X149596103Y-84858394D01*
X149701804Y-84327000D01*
X149596103Y-83795606D01*
X149295092Y-83345112D01*
X148844598Y-83044101D01*
X148313204Y-82938400D01*
X148258796Y-82938400D01*
X147727402Y-83044101D01*
X147276908Y-83345112D01*
X147016000Y-83735588D01*
X146755092Y-83345112D01*
X146304598Y-83044101D01*
X145773204Y-82938400D01*
X145718796Y-82938400D01*
X145187402Y-83044101D01*
X144736908Y-83345112D01*
X144435897Y-83795606D01*
X144330196Y-84327000D01*
X144435897Y-84858394D01*
X144736908Y-85308888D01*
X145168097Y-85597000D01*
X144736908Y-85885112D01*
X144435897Y-86335606D01*
X144330196Y-86867000D01*
X144394984Y-87192711D01*
X138299148Y-93288548D01*
X138141987Y-93523754D01*
X138141987Y-93523755D01*
X138086800Y-93801200D01*
X136961000Y-93801200D01*
X136961000Y-61153251D01*
X144599148Y-61153251D01*
X144714249Y-61431159D01*
X145018630Y-61781070D01*
X145433747Y-61987864D01*
X145617000Y-61941341D01*
X145617000Y-60970000D01*
X145875000Y-60970000D01*
X145875000Y-61941341D01*
X146058253Y-61987864D01*
X146473370Y-61781070D01*
X146777751Y-61431159D01*
X146892852Y-61153251D01*
X146866668Y-61051250D01*
X147097400Y-61051250D01*
X147097400Y-61769247D01*
X147146879Y-61888698D01*
X147238303Y-61980122D01*
X147357754Y-62029600D01*
X148075750Y-62029600D01*
X148157000Y-61948350D01*
X148157000Y-60970000D01*
X148415000Y-60970000D01*
X148415000Y-61948350D01*
X148496250Y-62029600D01*
X149214246Y-62029600D01*
X149333697Y-61980122D01*
X149425121Y-61888698D01*
X149474600Y-61769247D01*
X149474600Y-61051250D01*
X149393350Y-60970000D01*
X148415000Y-60970000D01*
X148157000Y-60970000D01*
X147178650Y-60970000D01*
X147097400Y-61051250D01*
X146866668Y-61051250D01*
X146845810Y-60970000D01*
X145875000Y-60970000D01*
X145617000Y-60970000D01*
X144646190Y-60970000D01*
X144599148Y-61153251D01*
X136961000Y-61153251D01*
X136961000Y-37670000D01*
X136913425Y-37430823D01*
X136777942Y-37228058D01*
X136575177Y-37092575D01*
X136336000Y-37045000D01*
X59000000Y-37045000D01*
X58760823Y-37092575D01*
X58558058Y-37228058D01*
X58422575Y-37430823D01*
X58375000Y-37670000D01*
X58375000Y-58509000D01*
X45221000Y-58509000D01*
X45221000Y-54752003D01*
X45358826Y-54958274D01*
X46424626Y-56024074D01*
X46724718Y-56224589D01*
X47078700Y-56295000D01*
X47157511Y-56295000D01*
X47195522Y-56351888D01*
X47646016Y-56652899D01*
X48177410Y-56758600D01*
X48542590Y-56758600D01*
X49073984Y-56652899D01*
X49524478Y-56351888D01*
X49825489Y-55901394D01*
X49931190Y-55370000D01*
X49825489Y-54838606D01*
X49524478Y-54388112D01*
X49093289Y-54100000D01*
X49524478Y-53811888D01*
X49825489Y-53361394D01*
X49931190Y-52830000D01*
X49825489Y-52298606D01*
X49524478Y-51848112D01*
X49286178Y-51688885D01*
X49376000Y-51688885D01*
X49570553Y-51652277D01*
X49749239Y-51537296D01*
X49869112Y-51361856D01*
X49911285Y-51153600D01*
X49911285Y-49426400D01*
X49874677Y-49231847D01*
X49759696Y-49053161D01*
X49584256Y-48933288D01*
X49376000Y-48891115D01*
X47344000Y-48891115D01*
X47149447Y-48927723D01*
X46970761Y-49042704D01*
X46937900Y-49090798D01*
X46937900Y-40107748D01*
X52593648Y-34452000D01*
X133545645Y-34452000D01*
X133652408Y-34496332D01*
X134038099Y-34496668D01*
X134394560Y-34349382D01*
X134667523Y-34076895D01*
X134815432Y-33720692D01*
X134815768Y-33335001D01*
X134668482Y-32978540D01*
X134395995Y-32705577D01*
X134039792Y-32557668D01*
X133654101Y-32557332D01*
X133545996Y-32602000D01*
X52210500Y-32602000D01*
X51856517Y-32672411D01*
X51556426Y-32872926D01*
X45358826Y-39070526D01*
X45221000Y-39276797D01*
X45221000Y-37670000D01*
X45173425Y-37430823D01*
X45037942Y-37228058D01*
X44835177Y-37092575D01*
X44596000Y-37045000D01*
X34221000Y-37045000D01*
X34221000Y-29293091D01*
X37482490Y-29293134D01*
X37482490Y-29293134D01*
G37*
X37482490Y-29293134D02*
X37243285Y-29391971D01*
X36321209Y-30312439D01*
X35821570Y-31515704D01*
X35820433Y-32818580D01*
X36317971Y-34022715D01*
X37238439Y-34944791D01*
X38441704Y-35444430D01*
X39744580Y-35445567D01*
X40948715Y-34948029D01*
X41870791Y-34027561D01*
X42370430Y-32824296D01*
X42371567Y-31521420D01*
X41874029Y-30317285D01*
X40953561Y-29395209D01*
X40707837Y-29293175D01*
X166157055Y-29294803D01*
X165094185Y-29733971D01*
X164172109Y-30654439D01*
X163672470Y-31857704D01*
X163671333Y-33160580D01*
X164168871Y-34364715D01*
X165089339Y-35286791D01*
X166292604Y-35786430D01*
X167595480Y-35787567D01*
X168799615Y-35290029D01*
X169721691Y-34369561D01*
X170221330Y-33166296D01*
X170221849Y-32571030D01*
X175740649Y-32571030D01*
X176048288Y-33315572D01*
X176617432Y-33885710D01*
X177361435Y-34194648D01*
X178167030Y-34195351D01*
X178911572Y-33887712D01*
X179481710Y-33318568D01*
X179790648Y-32574565D01*
X179791351Y-31768970D01*
X179483712Y-31024428D01*
X178914568Y-30454290D01*
X178170565Y-30145352D01*
X177364970Y-30144649D01*
X176620428Y-30452288D01*
X176050290Y-31021432D01*
X175741352Y-31765435D01*
X175740649Y-32571030D01*
X170221849Y-32571030D01*
X170222467Y-31863420D01*
X169724929Y-30659285D01*
X168804461Y-29737209D01*
X167739077Y-29294823D01*
X180711000Y-29294991D01*
X180711000Y-124045000D01*
X167737223Y-124045000D01*
X168799615Y-123606029D01*
X169721691Y-122685561D01*
X170184484Y-121571030D01*
X175740649Y-121571030D01*
X176048288Y-122315572D01*
X176617432Y-122885710D01*
X177361435Y-123194648D01*
X178167030Y-123195351D01*
X178911572Y-122887712D01*
X179481710Y-122318568D01*
X179790648Y-121574565D01*
X179791351Y-120768970D01*
X179483712Y-120024428D01*
X178914568Y-119454290D01*
X178170565Y-119145352D01*
X177364970Y-119144649D01*
X176620428Y-119452288D01*
X176050290Y-120021432D01*
X175741352Y-120765435D01*
X175740649Y-121571030D01*
X170184484Y-121571030D01*
X170221330Y-121482296D01*
X170222467Y-120179420D01*
X169724929Y-118975285D01*
X168804461Y-118053209D01*
X167601196Y-117553570D01*
X166298320Y-117552433D01*
X165094185Y-118049971D01*
X164172109Y-118970439D01*
X163672470Y-120173704D01*
X163671333Y-121476580D01*
X164168871Y-122680715D01*
X165089339Y-123602791D01*
X166154297Y-124045000D01*
X155107160Y-124045000D01*
X155096000Y-124042900D01*
X136961000Y-124042900D01*
X136961000Y-93801200D01*
X138086800Y-93801200D01*
X138086800Y-117066316D01*
X138126006Y-117263417D01*
X138141987Y-117343762D01*
X138299148Y-117578968D01*
X142455846Y-121735667D01*
X142691052Y-121892827D01*
X142968498Y-121948014D01*
X155305302Y-121948014D01*
X155536717Y-121901983D01*
X155582748Y-121892827D01*
X155817954Y-121735666D01*
X159552653Y-118000968D01*
X159709813Y-117765762D01*
X159765000Y-117488316D01*
X159765000Y-112413750D01*
X170808300Y-112413750D01*
X170808300Y-113385747D01*
X170857779Y-113505198D01*
X170949203Y-113596622D01*
X171068654Y-113646100D01*
X172040650Y-113646100D01*
X172121900Y-113564850D01*
X172121900Y-112332500D01*
X172379900Y-112332500D01*
X172379900Y-113564850D01*
X172461150Y-113646100D01*
X173433146Y-113646100D01*
X173552597Y-113596622D01*
X173644021Y-113505198D01*
X173693500Y-113385747D01*
X173693500Y-112413750D01*
X173612250Y-112332500D01*
X172379900Y-112332500D01*
X172121900Y-112332500D01*
X170889550Y-112332500D01*
X170808300Y-112413750D01*
X159765000Y-112413750D01*
X159765000Y-110149792D01*
X160869764Y-111254557D01*
X161104970Y-111411717D01*
X161382416Y-111466904D01*
X168285784Y-111466904D01*
X168517199Y-111420873D01*
X168563230Y-111411717D01*
X168798436Y-111254556D01*
X169031739Y-111021253D01*
X170808300Y-111021253D01*
X170808300Y-111993250D01*
X170889550Y-112074500D01*
X172121900Y-112074500D01*
X172121900Y-110842150D01*
X172379900Y-110842150D01*
X172379900Y-112074500D01*
X173612250Y-112074500D01*
X173693500Y-111993250D01*
X173693500Y-111021253D01*
X173644021Y-110901802D01*
X173552597Y-110810378D01*
X173433146Y-110760900D01*
X172461150Y-110760900D01*
X172379900Y-110842150D01*
X172121900Y-110842150D01*
X172040650Y-110760900D01*
X171068654Y-110760900D01*
X170949203Y-110810378D01*
X170857779Y-110901802D01*
X170808300Y-111021253D01*
X169031739Y-111021253D01*
X170279059Y-109773934D01*
X170436219Y-109538728D01*
X170491406Y-109261282D01*
X170491406Y-86033506D01*
X170436219Y-85756061D01*
X170436219Y-85756060D01*
X170279058Y-85520854D01*
X163501700Y-78743496D01*
X163501700Y-72020700D01*
X163446513Y-71743255D01*
X163335558Y-71577200D01*
X163289352Y-71508047D01*
X161574852Y-69793548D01*
X161339646Y-69636387D01*
X161293615Y-69627231D01*
X161062200Y-69581200D01*
X160940680Y-69581200D01*
X160949103Y-69568594D01*
X161054804Y-69037200D01*
X160949103Y-68505806D01*
X160648092Y-68055312D01*
X160216903Y-67767200D01*
X160648092Y-67479088D01*
X160949103Y-67028594D01*
X161054804Y-66497200D01*
X160949103Y-65965806D01*
X160648092Y-65515312D01*
X160216903Y-65227200D01*
X160648092Y-64939088D01*
X160949103Y-64488594D01*
X161054804Y-63957200D01*
X160990016Y-63631489D01*
X162133652Y-62487853D01*
X162290812Y-62252646D01*
X162290813Y-62252645D01*
X162346000Y-61975200D01*
X162346000Y-59209500D01*
X164268700Y-59209500D01*
X164268700Y-77389500D01*
X164277249Y-77434932D01*
X164304099Y-77476659D01*
X164345068Y-77504652D01*
X164393700Y-77514500D01*
X180043700Y-77514500D01*
X180089132Y-77505951D01*
X180130859Y-77479101D01*
X180158852Y-77438132D01*
X180168700Y-77389500D01*
X180168700Y-59209500D01*
X180160151Y-59164068D01*
X180133301Y-59122341D01*
X180092332Y-59094348D01*
X180043700Y-59084500D01*
X164393700Y-59084500D01*
X164348268Y-59093049D01*
X164306541Y-59119899D01*
X164278548Y-59160868D01*
X164268700Y-59209500D01*
X162346000Y-59209500D01*
X162346000Y-59041300D01*
X162313549Y-58878155D01*
X162308326Y-58851900D01*
X163094200Y-58851900D01*
X163325615Y-58805869D01*
X163371646Y-58796713D01*
X163606852Y-58639552D01*
X164804205Y-57442200D01*
X164883031Y-57442200D01*
X164900823Y-57536753D01*
X165015804Y-57715439D01*
X165191244Y-57835312D01*
X165399500Y-57877485D01*
X166899500Y-57877485D01*
X167094053Y-57840877D01*
X167272739Y-57725896D01*
X167392612Y-57550456D01*
X167434785Y-57342200D01*
X167434785Y-56927450D01*
X167574500Y-56927450D01*
X167574500Y-57406847D01*
X167623979Y-57526298D01*
X167715403Y-57617722D01*
X167834854Y-57667200D01*
X168439250Y-57667200D01*
X168520500Y-57585950D01*
X168520500Y-56846200D01*
X168778500Y-56846200D01*
X168778500Y-57585950D01*
X168859750Y-57667200D01*
X169464146Y-57667200D01*
X169583597Y-57617722D01*
X169675021Y-57526298D01*
X169724500Y-57406847D01*
X169724500Y-56927450D01*
X169643250Y-56846200D01*
X168778500Y-56846200D01*
X168520500Y-56846200D01*
X167655750Y-56846200D01*
X167574500Y-56927450D01*
X167434785Y-56927450D01*
X167434785Y-56092200D01*
X167422621Y-56027553D01*
X167574500Y-56027553D01*
X167574500Y-56506950D01*
X167655750Y-56588200D01*
X168520500Y-56588200D01*
X168520500Y-55848450D01*
X168778500Y-55848450D01*
X168778500Y-56588200D01*
X169643250Y-56588200D01*
X169724500Y-56506950D01*
X169724500Y-56027553D01*
X169675021Y-55908102D01*
X169583597Y-55816678D01*
X169464146Y-55767200D01*
X168859750Y-55767200D01*
X168778500Y-55848450D01*
X168520500Y-55848450D01*
X168439250Y-55767200D01*
X167834854Y-55767200D01*
X167715403Y-55816678D01*
X167623979Y-55908102D01*
X167574500Y-56027553D01*
X167422621Y-56027553D01*
X167398177Y-55897647D01*
X167283196Y-55718961D01*
X167125221Y-55611021D01*
X167272739Y-55516096D01*
X167392612Y-55340656D01*
X167434785Y-55132400D01*
X167434785Y-54717650D01*
X167574500Y-54717650D01*
X167574500Y-55197047D01*
X167623979Y-55316498D01*
X167715403Y-55407922D01*
X167834854Y-55457400D01*
X168439250Y-55457400D01*
X168520500Y-55376150D01*
X168520500Y-54636400D01*
X168778500Y-54636400D01*
X168778500Y-55376150D01*
X168859750Y-55457400D01*
X169464146Y-55457400D01*
X169583597Y-55407922D01*
X169675021Y-55316498D01*
X169724500Y-55197047D01*
X169724500Y-54717650D01*
X169643250Y-54636400D01*
X168778500Y-54636400D01*
X168520500Y-54636400D01*
X167655750Y-54636400D01*
X167574500Y-54717650D01*
X167434785Y-54717650D01*
X167434785Y-53882400D01*
X167422621Y-53817753D01*
X167574500Y-53817753D01*
X167574500Y-54297150D01*
X167655750Y-54378400D01*
X168520500Y-54378400D01*
X168520500Y-53638650D01*
X168778500Y-53638650D01*
X168778500Y-54378400D01*
X169643250Y-54378400D01*
X169724500Y-54297150D01*
X169724500Y-53817753D01*
X169675021Y-53698302D01*
X169583597Y-53606878D01*
X169464146Y-53557400D01*
X168859750Y-53557400D01*
X168778500Y-53638650D01*
X168520500Y-53638650D01*
X168439250Y-53557400D01*
X167834854Y-53557400D01*
X167715403Y-53606878D01*
X167623979Y-53698302D01*
X167574500Y-53817753D01*
X167422621Y-53817753D01*
X167398177Y-53687847D01*
X167283196Y-53509161D01*
X167107756Y-53389288D01*
X167079900Y-53383647D01*
X167079900Y-52445655D01*
X167124232Y-52338892D01*
X167124568Y-51953201D01*
X166977282Y-51596740D01*
X166704795Y-51323777D01*
X166348592Y-51175868D01*
X165962901Y-51175532D01*
X165606440Y-51322818D01*
X165333477Y-51595305D01*
X165185568Y-51951508D01*
X165185232Y-52337199D01*
X165229900Y-52445304D01*
X165229900Y-53379028D01*
X165204947Y-53383723D01*
X165026261Y-53498704D01*
X164906388Y-53674144D01*
X164864215Y-53882400D01*
X164864215Y-55132400D01*
X164900823Y-55326953D01*
X165015804Y-55505639D01*
X165173779Y-55613579D01*
X165026261Y-55708504D01*
X164906388Y-55883944D01*
X164884466Y-55992200D01*
X164503900Y-55992200D01*
X164226454Y-56047387D01*
X163991248Y-56204547D01*
X162793896Y-57401900D01*
X162375285Y-57401900D01*
X162375285Y-56337500D01*
X162338677Y-56142947D01*
X162223696Y-55964261D01*
X162048256Y-55844388D01*
X161840000Y-55802215D01*
X161440000Y-55802215D01*
X161310411Y-55826599D01*
X161190000Y-55802215D01*
X160790000Y-55802215D01*
X160660411Y-55826599D01*
X160540000Y-55802215D01*
X160140000Y-55802215D01*
X160010411Y-55826599D01*
X159890000Y-55802215D01*
X159765000Y-55802215D01*
X159765000Y-53247200D01*
X159718969Y-53015785D01*
X159709813Y-52969754D01*
X159552652Y-52734548D01*
X159090889Y-52272785D01*
X159240000Y-52272785D01*
X159369589Y-52248401D01*
X159490000Y-52272785D01*
X159890000Y-52272785D01*
X160019589Y-52248401D01*
X160140000Y-52272785D01*
X160540000Y-52272785D01*
X160669589Y-52248401D01*
X160790000Y-52272785D01*
X161190000Y-52272785D01*
X161319589Y-52248401D01*
X161440000Y-52272785D01*
X161840000Y-52272785D01*
X162034553Y-52236177D01*
X162213239Y-52121196D01*
X162333112Y-51945756D01*
X162375285Y-51737500D01*
X162375285Y-50676319D01*
X162578455Y-50473149D01*
X162714699Y-50473268D01*
X163071160Y-50325982D01*
X163344123Y-50053495D01*
X163492032Y-49697292D01*
X163492368Y-49311601D01*
X163345082Y-48955140D01*
X163072595Y-48682177D01*
X162716392Y-48534268D01*
X162409157Y-48534000D01*
X162341782Y-48370940D01*
X162069295Y-48097977D01*
X161713092Y-47950068D01*
X161567443Y-47949941D01*
X161452782Y-47672440D01*
X161180295Y-47399477D01*
X160824092Y-47251568D01*
X160438401Y-47251232D01*
X160415000Y-47260901D01*
X160415000Y-43579750D01*
X169639900Y-43579750D01*
X169639900Y-44551747D01*
X169689379Y-44671198D01*
X169780803Y-44762622D01*
X169900254Y-44812100D01*
X170872250Y-44812100D01*
X170953500Y-44730850D01*
X170953500Y-43498500D01*
X171211500Y-43498500D01*
X171211500Y-44730850D01*
X171292750Y-44812100D01*
X172264746Y-44812100D01*
X172384197Y-44762622D01*
X172475621Y-44671198D01*
X172525100Y-44551747D01*
X172525100Y-43579750D01*
X172443850Y-43498500D01*
X171211500Y-43498500D01*
X170953500Y-43498500D01*
X169721150Y-43498500D01*
X169639900Y-43579750D01*
X160415000Y-43579750D01*
X160415000Y-42187253D01*
X169639900Y-42187253D01*
X169639900Y-43159250D01*
X169721150Y-43240500D01*
X170953500Y-43240500D01*
X170953500Y-42008150D01*
X171211500Y-42008150D01*
X171211500Y-43240500D01*
X172443850Y-43240500D01*
X172525100Y-43159250D01*
X172525100Y-42187253D01*
X172475621Y-42067802D01*
X172384197Y-41976378D01*
X172264746Y-41926900D01*
X171292750Y-41926900D01*
X171211500Y-42008150D01*
X170953500Y-42008150D01*
X170872250Y-41926900D01*
X169900254Y-41926900D01*
X169780803Y-41976378D01*
X169689379Y-42067802D01*
X169639900Y-42187253D01*
X160415000Y-42187253D01*
X160415000Y-38379084D01*
X160359813Y-38101639D01*
X160202652Y-37866432D01*
X154039954Y-31703734D01*
X153804748Y-31546573D01*
X153758717Y-31537417D01*
X153527302Y-31491386D01*
X143371086Y-31491386D01*
X143093640Y-31546573D01*
X142858434Y-31703733D01*
X139305736Y-35256432D01*
X139148575Y-35491638D01*
X139146749Y-35500818D01*
X139093388Y-35769084D01*
X139093388Y-52373388D01*
X139139419Y-52604803D01*
X139148575Y-52650834D01*
X139305736Y-52886040D01*
X144394984Y-57975289D01*
X144330196Y-58301000D01*
X144435897Y-58832394D01*
X144736908Y-59282888D01*
X145187402Y-59583899D01*
X145616998Y-59669351D01*
X145616998Y-59740658D01*
X145433747Y-59694136D01*
X145018630Y-59900930D01*
X144714249Y-60250841D01*
X144599148Y-60528749D01*
X144646190Y-60712000D01*
X145617000Y-60712000D01*
X145617000Y-60692000D01*
X145875000Y-60692000D01*
X145875000Y-60712000D01*
X146845810Y-60712000D01*
X146892852Y-60528749D01*
X146777751Y-60250841D01*
X146473370Y-59900930D01*
X146058253Y-59694136D01*
X145875002Y-59740658D01*
X145875002Y-59669351D01*
X146304598Y-59583899D01*
X146755092Y-59282888D01*
X147016000Y-58892412D01*
X147276908Y-59282888D01*
X147727402Y-59583899D01*
X148071779Y-59652400D01*
X147357754Y-59652400D01*
X147238303Y-59701878D01*
X147146879Y-59793302D01*
X147097400Y-59912753D01*
X147097400Y-60630750D01*
X147178650Y-60712000D01*
X148157000Y-60712000D01*
X148157000Y-60692000D01*
X148415000Y-60692000D01*
X148415000Y-60712000D01*
X149393350Y-60712000D01*
X149474600Y-60630750D01*
X149474600Y-59912753D01*
X149425121Y-59793302D01*
X149333697Y-59701878D01*
X149214246Y-59652400D01*
X148500221Y-59652400D01*
X148844598Y-59583899D01*
X149295092Y-59282888D01*
X149466739Y-59026000D01*
X153712600Y-59026000D01*
X153944015Y-58979969D01*
X153990046Y-58970813D01*
X154225252Y-58813652D01*
X155002653Y-58036252D01*
X155045060Y-57972785D01*
X155325106Y-57972785D01*
X155177448Y-58071447D01*
X153793148Y-59455748D01*
X153635987Y-59690954D01*
X153635987Y-59690955D01*
X153580800Y-59968400D01*
X153580800Y-71324000D01*
X153610498Y-71473301D01*
X153635987Y-71601446D01*
X153793148Y-71836652D01*
X155747984Y-73791489D01*
X155683196Y-74117200D01*
X155788897Y-74648594D01*
X156089908Y-75099088D01*
X156521097Y-75387200D01*
X156089908Y-75675312D01*
X155788897Y-76125806D01*
X155683196Y-76657200D01*
X155747984Y-76982911D01*
X153843948Y-78886948D01*
X153686787Y-79122154D01*
X153686787Y-79122155D01*
X153631600Y-79399600D01*
X153631600Y-94880700D01*
X153661696Y-95032001D01*
X153686787Y-95158146D01*
X153843948Y-95393352D01*
X155558447Y-97107852D01*
X155715608Y-97212863D01*
X155793655Y-97265013D01*
X156071100Y-97320200D01*
X158767996Y-97320200D01*
X159615000Y-98167205D01*
X159615000Y-98933715D01*
X159490000Y-98933715D01*
X159360411Y-98958099D01*
X159240000Y-98933715D01*
X158840000Y-98933715D01*
X158710411Y-98958099D01*
X158590000Y-98933715D01*
X158190000Y-98933715D01*
X158060411Y-98958099D01*
X157940000Y-98933715D01*
X157540000Y-98933715D01*
X157410411Y-98958099D01*
X157290000Y-98933715D01*
X156890000Y-98933715D01*
X156760411Y-98958099D01*
X156640000Y-98933715D01*
X156240000Y-98933715D01*
X156110411Y-98958099D01*
X155990000Y-98933715D01*
X155863611Y-98933715D01*
X155809813Y-98663255D01*
X155739943Y-98558688D01*
X155652652Y-98428047D01*
X153532200Y-96307596D01*
X153532200Y-91388200D01*
X153477013Y-91110755D01*
X153346422Y-90915312D01*
X153319852Y-90875547D01*
X149637016Y-87192712D01*
X149701804Y-86867000D01*
X149596103Y-86335606D01*
X149295092Y-85885112D01*
X148863903Y-85597000D01*
X149295092Y-85308888D01*
X149596103Y-84858394D01*
X149701804Y-84327000D01*
X149596103Y-83795606D01*
X149295092Y-83345112D01*
X148844598Y-83044101D01*
X148313204Y-82938400D01*
X148258796Y-82938400D01*
X147727402Y-83044101D01*
X147276908Y-83345112D01*
X147016000Y-83735588D01*
X146755092Y-83345112D01*
X146304598Y-83044101D01*
X145773204Y-82938400D01*
X145718796Y-82938400D01*
X145187402Y-83044101D01*
X144736908Y-83345112D01*
X144435897Y-83795606D01*
X144330196Y-84327000D01*
X144435897Y-84858394D01*
X144736908Y-85308888D01*
X145168097Y-85597000D01*
X144736908Y-85885112D01*
X144435897Y-86335606D01*
X144330196Y-86867000D01*
X144394984Y-87192711D01*
X138299148Y-93288548D01*
X138141987Y-93523754D01*
X138141987Y-93523755D01*
X138086800Y-93801200D01*
X136961000Y-93801200D01*
X136961000Y-61153251D01*
X144599148Y-61153251D01*
X144714249Y-61431159D01*
X145018630Y-61781070D01*
X145433747Y-61987864D01*
X145617000Y-61941341D01*
X145617000Y-60970000D01*
X145875000Y-60970000D01*
X145875000Y-61941341D01*
X146058253Y-61987864D01*
X146473370Y-61781070D01*
X146777751Y-61431159D01*
X146892852Y-61153251D01*
X146866668Y-61051250D01*
X147097400Y-61051250D01*
X147097400Y-61769247D01*
X147146879Y-61888698D01*
X147238303Y-61980122D01*
X147357754Y-62029600D01*
X148075750Y-62029600D01*
X148157000Y-61948350D01*
X148157000Y-60970000D01*
X148415000Y-60970000D01*
X148415000Y-61948350D01*
X148496250Y-62029600D01*
X149214246Y-62029600D01*
X149333697Y-61980122D01*
X149425121Y-61888698D01*
X149474600Y-61769247D01*
X149474600Y-61051250D01*
X149393350Y-60970000D01*
X148415000Y-60970000D01*
X148157000Y-60970000D01*
X147178650Y-60970000D01*
X147097400Y-61051250D01*
X146866668Y-61051250D01*
X146845810Y-60970000D01*
X145875000Y-60970000D01*
X145617000Y-60970000D01*
X144646190Y-60970000D01*
X144599148Y-61153251D01*
X136961000Y-61153251D01*
X136961000Y-37670000D01*
X136913425Y-37430823D01*
X136777942Y-37228058D01*
X136575177Y-37092575D01*
X136336000Y-37045000D01*
X59000000Y-37045000D01*
X58760823Y-37092575D01*
X58558058Y-37228058D01*
X58422575Y-37430823D01*
X58375000Y-37670000D01*
X58375000Y-58509000D01*
X45221000Y-58509000D01*
X45221000Y-54752003D01*
X45358826Y-54958274D01*
X46424626Y-56024074D01*
X46724718Y-56224589D01*
X47078700Y-56295000D01*
X47157511Y-56295000D01*
X47195522Y-56351888D01*
X47646016Y-56652899D01*
X48177410Y-56758600D01*
X48542590Y-56758600D01*
X49073984Y-56652899D01*
X49524478Y-56351888D01*
X49825489Y-55901394D01*
X49931190Y-55370000D01*
X49825489Y-54838606D01*
X49524478Y-54388112D01*
X49093289Y-54100000D01*
X49524478Y-53811888D01*
X49825489Y-53361394D01*
X49931190Y-52830000D01*
X49825489Y-52298606D01*
X49524478Y-51848112D01*
X49286178Y-51688885D01*
X49376000Y-51688885D01*
X49570553Y-51652277D01*
X49749239Y-51537296D01*
X49869112Y-51361856D01*
X49911285Y-51153600D01*
X49911285Y-49426400D01*
X49874677Y-49231847D01*
X49759696Y-49053161D01*
X49584256Y-48933288D01*
X49376000Y-48891115D01*
X47344000Y-48891115D01*
X47149447Y-48927723D01*
X46970761Y-49042704D01*
X46937900Y-49090798D01*
X46937900Y-40107748D01*
X52593648Y-34452000D01*
X133545645Y-34452000D01*
X133652408Y-34496332D01*
X134038099Y-34496668D01*
X134394560Y-34349382D01*
X134667523Y-34076895D01*
X134815432Y-33720692D01*
X134815768Y-33335001D01*
X134668482Y-32978540D01*
X134395995Y-32705577D01*
X134039792Y-32557668D01*
X133654101Y-32557332D01*
X133545996Y-32602000D01*
X52210500Y-32602000D01*
X51856517Y-32672411D01*
X51556426Y-32872926D01*
X45358826Y-39070526D01*
X45221000Y-39276797D01*
X45221000Y-37670000D01*
X45173425Y-37430823D01*
X45037942Y-37228058D01*
X44835177Y-37092575D01*
X44596000Y-37045000D01*
X34221000Y-37045000D01*
X34221000Y-29293091D01*
X37482490Y-29293134D01*
G36*
X147276908Y-105628888D02*
X147727402Y-105929899D01*
X148156998Y-106015351D01*
X148156998Y-106086658D01*
X147973747Y-106040136D01*
X147558630Y-106246930D01*
X147254249Y-106596841D01*
X147139148Y-106874749D01*
X147186190Y-107058000D01*
X148157000Y-107058000D01*
X148157000Y-107038000D01*
X148415000Y-107038000D01*
X148415000Y-107058000D01*
X149385810Y-107058000D01*
X149432852Y-106874749D01*
X149317751Y-106596841D01*
X149013370Y-106246930D01*
X148598253Y-106040136D01*
X148415002Y-106086658D01*
X148415002Y-106015351D01*
X148844598Y-105929899D01*
X149295092Y-105628888D01*
X149460450Y-105381412D01*
X153754715Y-105381412D01*
X153754715Y-106269000D01*
X153765000Y-106323660D01*
X153765000Y-115897295D01*
X153294296Y-116368000D01*
X144979505Y-116368000D01*
X143905600Y-115294096D01*
X143905600Y-109727000D01*
X144330196Y-109727000D01*
X144435897Y-110258394D01*
X144736908Y-110708888D01*
X145168097Y-110997000D01*
X144736908Y-111285112D01*
X144435897Y-111735606D01*
X144330196Y-112267000D01*
X144435897Y-112798394D01*
X144736908Y-113248888D01*
X145168097Y-113537000D01*
X144736908Y-113825112D01*
X144435897Y-114275606D01*
X144330196Y-114807000D01*
X144435897Y-115338394D01*
X144736908Y-115788888D01*
X145187402Y-116089899D01*
X145718796Y-116195600D01*
X145773204Y-116195600D01*
X146304598Y-116089899D01*
X146755092Y-115788888D01*
X146887115Y-115591302D01*
X146887115Y-115670600D01*
X146923723Y-115865153D01*
X147038704Y-116043839D01*
X147214144Y-116163712D01*
X147422400Y-116205885D01*
X149149600Y-116205885D01*
X149344153Y-116169277D01*
X149522839Y-116054296D01*
X149642712Y-115878856D01*
X149684885Y-115670600D01*
X149684885Y-113943400D01*
X149648277Y-113748847D01*
X149533296Y-113570161D01*
X149357856Y-113450288D01*
X149149600Y-113408115D01*
X149056792Y-113408115D01*
X149295092Y-113248888D01*
X149596103Y-112798394D01*
X149701804Y-112267000D01*
X149596103Y-111735606D01*
X149295092Y-111285112D01*
X148863903Y-110997000D01*
X149295092Y-110708888D01*
X149596103Y-110258394D01*
X149701804Y-109727000D01*
X149596103Y-109195606D01*
X149295092Y-108745112D01*
X148844598Y-108444101D01*
X148415002Y-108358649D01*
X148415002Y-108287342D01*
X148598253Y-108333864D01*
X149013370Y-108127070D01*
X149317751Y-107777159D01*
X149432852Y-107499251D01*
X149385810Y-107316000D01*
X148415000Y-107316000D01*
X148415000Y-107336000D01*
X148157000Y-107336000D01*
X148157000Y-107316000D01*
X147186190Y-107316000D01*
X147139148Y-107499251D01*
X147254249Y-107777159D01*
X147558630Y-108127070D01*
X147973747Y-108333864D01*
X148156998Y-108287342D01*
X148156998Y-108358649D01*
X147727402Y-108444101D01*
X147276908Y-108745112D01*
X147016000Y-109135588D01*
X146755092Y-108745112D01*
X146304598Y-108444101D01*
X145875002Y-108358649D01*
X145875002Y-108287342D01*
X146058253Y-108333864D01*
X146473370Y-108127070D01*
X146777751Y-107777159D01*
X146892852Y-107499251D01*
X146845810Y-107316000D01*
X145875000Y-107316000D01*
X145875000Y-107336000D01*
X145617000Y-107336000D01*
X145617000Y-107316000D01*
X144646190Y-107316000D01*
X144599148Y-107499251D01*
X144714249Y-107777159D01*
X145018630Y-108127070D01*
X145433747Y-108333864D01*
X145616998Y-108287342D01*
X145616998Y-108358649D01*
X145187402Y-108444101D01*
X144736908Y-108745112D01*
X144435897Y-109195606D01*
X144330196Y-109727000D01*
X143905600Y-109727000D01*
X143905600Y-107512704D01*
X144638451Y-106779854D01*
X144599148Y-106874749D01*
X144646190Y-107058000D01*
X145617000Y-107058000D01*
X145617000Y-107038000D01*
X145875000Y-107038000D01*
X145875000Y-107058000D01*
X146845810Y-107058000D01*
X146892852Y-106874749D01*
X146777751Y-106596841D01*
X146473370Y-106246930D01*
X146058253Y-106040136D01*
X145875002Y-106086658D01*
X145875002Y-106015351D01*
X146304598Y-105929899D01*
X146755092Y-105628888D01*
X147016000Y-105238412D01*
X147276908Y-105628888D01*
X147276908Y-105628888D01*
G37*
X147276908Y-105628888D02*
X147727402Y-105929899D01*
X148156998Y-106015351D01*
X148156998Y-106086658D01*
X147973747Y-106040136D01*
X147558630Y-106246930D01*
X147254249Y-106596841D01*
X147139148Y-106874749D01*
X147186190Y-107058000D01*
X148157000Y-107058000D01*
X148157000Y-107038000D01*
X148415000Y-107038000D01*
X148415000Y-107058000D01*
X149385810Y-107058000D01*
X149432852Y-106874749D01*
X149317751Y-106596841D01*
X149013370Y-106246930D01*
X148598253Y-106040136D01*
X148415002Y-106086658D01*
X148415002Y-106015351D01*
X148844598Y-105929899D01*
X149295092Y-105628888D01*
X149460450Y-105381412D01*
X153754715Y-105381412D01*
X153754715Y-106269000D01*
X153765000Y-106323660D01*
X153765000Y-115897295D01*
X153294296Y-116368000D01*
X144979505Y-116368000D01*
X143905600Y-115294096D01*
X143905600Y-109727000D01*
X144330196Y-109727000D01*
X144435897Y-110258394D01*
X144736908Y-110708888D01*
X145168097Y-110997000D01*
X144736908Y-111285112D01*
X144435897Y-111735606D01*
X144330196Y-112267000D01*
X144435897Y-112798394D01*
X144736908Y-113248888D01*
X145168097Y-113537000D01*
X144736908Y-113825112D01*
X144435897Y-114275606D01*
X144330196Y-114807000D01*
X144435897Y-115338394D01*
X144736908Y-115788888D01*
X145187402Y-116089899D01*
X145718796Y-116195600D01*
X145773204Y-116195600D01*
X146304598Y-116089899D01*
X146755092Y-115788888D01*
X146887115Y-115591302D01*
X146887115Y-115670600D01*
X146923723Y-115865153D01*
X147038704Y-116043839D01*
X147214144Y-116163712D01*
X147422400Y-116205885D01*
X149149600Y-116205885D01*
X149344153Y-116169277D01*
X149522839Y-116054296D01*
X149642712Y-115878856D01*
X149684885Y-115670600D01*
X149684885Y-113943400D01*
X149648277Y-113748847D01*
X149533296Y-113570161D01*
X149357856Y-113450288D01*
X149149600Y-113408115D01*
X149056792Y-113408115D01*
X149295092Y-113248888D01*
X149596103Y-112798394D01*
X149701804Y-112267000D01*
X149596103Y-111735606D01*
X149295092Y-111285112D01*
X148863903Y-110997000D01*
X149295092Y-110708888D01*
X149596103Y-110258394D01*
X149701804Y-109727000D01*
X149596103Y-109195606D01*
X149295092Y-108745112D01*
X148844598Y-108444101D01*
X148415002Y-108358649D01*
X148415002Y-108287342D01*
X148598253Y-108333864D01*
X149013370Y-108127070D01*
X149317751Y-107777159D01*
X149432852Y-107499251D01*
X149385810Y-107316000D01*
X148415000Y-107316000D01*
X148415000Y-107336000D01*
X148157000Y-107336000D01*
X148157000Y-107316000D01*
X147186190Y-107316000D01*
X147139148Y-107499251D01*
X147254249Y-107777159D01*
X147558630Y-108127070D01*
X147973747Y-108333864D01*
X148156998Y-108287342D01*
X148156998Y-108358649D01*
X147727402Y-108444101D01*
X147276908Y-108745112D01*
X147016000Y-109135588D01*
X146755092Y-108745112D01*
X146304598Y-108444101D01*
X145875002Y-108358649D01*
X145875002Y-108287342D01*
X146058253Y-108333864D01*
X146473370Y-108127070D01*
X146777751Y-107777159D01*
X146892852Y-107499251D01*
X146845810Y-107316000D01*
X145875000Y-107316000D01*
X145875000Y-107336000D01*
X145617000Y-107336000D01*
X145617000Y-107316000D01*
X144646190Y-107316000D01*
X144599148Y-107499251D01*
X144714249Y-107777159D01*
X145018630Y-108127070D01*
X145433747Y-108333864D01*
X145616998Y-108287342D01*
X145616998Y-108358649D01*
X145187402Y-108444101D01*
X144736908Y-108745112D01*
X144435897Y-109195606D01*
X144330196Y-109727000D01*
X143905600Y-109727000D01*
X143905600Y-107512704D01*
X144638451Y-106779854D01*
X144599148Y-106874749D01*
X144646190Y-107058000D01*
X145617000Y-107058000D01*
X145617000Y-107038000D01*
X145875000Y-107038000D01*
X145875000Y-107058000D01*
X146845810Y-107058000D01*
X146892852Y-106874749D01*
X146777751Y-106596841D01*
X146473370Y-106246930D01*
X146058253Y-106040136D01*
X145875002Y-106086658D01*
X145875002Y-106015351D01*
X146304598Y-105929899D01*
X146755092Y-105628888D01*
X147016000Y-105238412D01*
X147276908Y-105628888D01*
G36*
X167543902Y-88127407D02*
X167543902Y-107769893D01*
X167362300Y-107951495D01*
X167362300Y-107625850D01*
X167281050Y-107544600D01*
X166416300Y-107544600D01*
X166416300Y-108284350D01*
X166497550Y-108365600D01*
X166948196Y-108365600D01*
X166883296Y-108430500D01*
X164900898Y-108430500D01*
X164910539Y-108424296D01*
X165030412Y-108248856D01*
X165072585Y-108040600D01*
X165072585Y-107625850D01*
X165212300Y-107625850D01*
X165212300Y-108105247D01*
X165261779Y-108224698D01*
X165353203Y-108316122D01*
X165472654Y-108365600D01*
X166077050Y-108365600D01*
X166158300Y-108284350D01*
X166158300Y-107544600D01*
X165293550Y-107544600D01*
X165212300Y-107625850D01*
X165072585Y-107625850D01*
X165072585Y-106790600D01*
X165060421Y-106725953D01*
X165212300Y-106725953D01*
X165212300Y-107205350D01*
X165293550Y-107286600D01*
X166158300Y-107286600D01*
X166158300Y-106546850D01*
X166416300Y-106546850D01*
X166416300Y-107286600D01*
X167281050Y-107286600D01*
X167362300Y-107205350D01*
X167362300Y-106725953D01*
X167312821Y-106606502D01*
X167221397Y-106515078D01*
X167101946Y-106465600D01*
X166497550Y-106465600D01*
X166416300Y-106546850D01*
X166158300Y-106546850D01*
X166077050Y-106465600D01*
X165472654Y-106465600D01*
X165353203Y-106515078D01*
X165261779Y-106606502D01*
X165212300Y-106725953D01*
X165060421Y-106725953D01*
X165035977Y-106596047D01*
X164920996Y-106417361D01*
X164745556Y-106297488D01*
X164712300Y-106290753D01*
X164712300Y-106244256D01*
X164731853Y-106240577D01*
X164910539Y-106125596D01*
X165030412Y-105950156D01*
X165072585Y-105741900D01*
X165072585Y-105327150D01*
X165212300Y-105327150D01*
X165212300Y-105806547D01*
X165261779Y-105925998D01*
X165353203Y-106017422D01*
X165472654Y-106066900D01*
X166077050Y-106066900D01*
X166158300Y-105985650D01*
X166158300Y-105245900D01*
X166416300Y-105245900D01*
X166416300Y-105985650D01*
X166497550Y-106066900D01*
X167101946Y-106066900D01*
X167221397Y-106017422D01*
X167312821Y-105925998D01*
X167362300Y-105806547D01*
X167362300Y-105327150D01*
X167281050Y-105245900D01*
X166416300Y-105245900D01*
X166158300Y-105245900D01*
X165293550Y-105245900D01*
X165212300Y-105327150D01*
X165072585Y-105327150D01*
X165072585Y-104491900D01*
X165060421Y-104427253D01*
X165212300Y-104427253D01*
X165212300Y-104906650D01*
X165293550Y-104987900D01*
X166158300Y-104987900D01*
X166158300Y-104248150D01*
X166416300Y-104248150D01*
X166416300Y-104987900D01*
X167281050Y-104987900D01*
X167362300Y-104906650D01*
X167362300Y-104427253D01*
X167312821Y-104307802D01*
X167221397Y-104216378D01*
X167101946Y-104166900D01*
X166497550Y-104166900D01*
X166416300Y-104248150D01*
X166158300Y-104248150D01*
X166077050Y-104166900D01*
X165472654Y-104166900D01*
X165353203Y-104216378D01*
X165261779Y-104307802D01*
X165212300Y-104427253D01*
X165060421Y-104427253D01*
X165035977Y-104297347D01*
X164920996Y-104118661D01*
X164745556Y-103998788D01*
X164717700Y-103993147D01*
X164717700Y-99676955D01*
X164762032Y-99570192D01*
X164762368Y-99184501D01*
X164615082Y-98828040D01*
X164342595Y-98555077D01*
X163986392Y-98407168D01*
X163600701Y-98406832D01*
X163244240Y-98554118D01*
X162971277Y-98826605D01*
X162823368Y-99182808D01*
X162823032Y-99568499D01*
X162867700Y-99676604D01*
X162867700Y-103988528D01*
X162842747Y-103993223D01*
X162664061Y-104108204D01*
X162544188Y-104283644D01*
X162502015Y-104491900D01*
X162502015Y-105741900D01*
X162538623Y-105936453D01*
X162653604Y-106115139D01*
X162829044Y-106235012D01*
X162862300Y-106241747D01*
X162862300Y-106288244D01*
X162842747Y-106291923D01*
X162664061Y-106406904D01*
X162567025Y-106548921D01*
X162365000Y-106346896D01*
X162365000Y-106319789D01*
X162375285Y-106269000D01*
X162375285Y-105169000D01*
X162338677Y-104974447D01*
X162223696Y-104795761D01*
X162048256Y-104675888D01*
X161840000Y-104633715D01*
X161440000Y-104633715D01*
X161310411Y-104658099D01*
X161190000Y-104633715D01*
X160790000Y-104633715D01*
X160660411Y-104658099D01*
X160540000Y-104633715D01*
X160140000Y-104633715D01*
X160010411Y-104658099D01*
X159890000Y-104633715D01*
X159814789Y-104633715D01*
X160202652Y-104245852D01*
X160359813Y-104010646D01*
X160383880Y-103889652D01*
X160415000Y-103733200D01*
X160415000Y-101104285D01*
X160540000Y-101104285D01*
X160669589Y-101079901D01*
X160790000Y-101104285D01*
X161190000Y-101104285D01*
X161319589Y-101079901D01*
X161440000Y-101104285D01*
X161840000Y-101104285D01*
X162034553Y-101067677D01*
X162213239Y-100952696D01*
X162333112Y-100777256D01*
X162375285Y-100569000D01*
X162375285Y-99469000D01*
X162365000Y-99414340D01*
X162365000Y-83738200D01*
X162309813Y-83460755D01*
X162257663Y-83382708D01*
X162152652Y-83225547D01*
X160990016Y-82062911D01*
X161054804Y-81737200D01*
X161030249Y-81613753D01*
X167543902Y-88127407D01*
X167543902Y-88127407D01*
G37*
X167543902Y-88127407D02*
X167543902Y-107769893D01*
X167362300Y-107951495D01*
X167362300Y-107625850D01*
X167281050Y-107544600D01*
X166416300Y-107544600D01*
X166416300Y-108284350D01*
X166497550Y-108365600D01*
X166948196Y-108365600D01*
X166883296Y-108430500D01*
X164900898Y-108430500D01*
X164910539Y-108424296D01*
X165030412Y-108248856D01*
X165072585Y-108040600D01*
X165072585Y-107625850D01*
X165212300Y-107625850D01*
X165212300Y-108105247D01*
X165261779Y-108224698D01*
X165353203Y-108316122D01*
X165472654Y-108365600D01*
X166077050Y-108365600D01*
X166158300Y-108284350D01*
X166158300Y-107544600D01*
X165293550Y-107544600D01*
X165212300Y-107625850D01*
X165072585Y-107625850D01*
X165072585Y-106790600D01*
X165060421Y-106725953D01*
X165212300Y-106725953D01*
X165212300Y-107205350D01*
X165293550Y-107286600D01*
X166158300Y-107286600D01*
X166158300Y-106546850D01*
X166416300Y-106546850D01*
X166416300Y-107286600D01*
X167281050Y-107286600D01*
X167362300Y-107205350D01*
X167362300Y-106725953D01*
X167312821Y-106606502D01*
X167221397Y-106515078D01*
X167101946Y-106465600D01*
X166497550Y-106465600D01*
X166416300Y-106546850D01*
X166158300Y-106546850D01*
X166077050Y-106465600D01*
X165472654Y-106465600D01*
X165353203Y-106515078D01*
X165261779Y-106606502D01*
X165212300Y-106725953D01*
X165060421Y-106725953D01*
X165035977Y-106596047D01*
X164920996Y-106417361D01*
X164745556Y-106297488D01*
X164712300Y-106290753D01*
X164712300Y-106244256D01*
X164731853Y-106240577D01*
X164910539Y-106125596D01*
X165030412Y-105950156D01*
X165072585Y-105741900D01*
X165072585Y-105327150D01*
X165212300Y-105327150D01*
X165212300Y-105806547D01*
X165261779Y-105925998D01*
X165353203Y-106017422D01*
X165472654Y-106066900D01*
X166077050Y-106066900D01*
X166158300Y-105985650D01*
X166158300Y-105245900D01*
X166416300Y-105245900D01*
X166416300Y-105985650D01*
X166497550Y-106066900D01*
X167101946Y-106066900D01*
X167221397Y-106017422D01*
X167312821Y-105925998D01*
X167362300Y-105806547D01*
X167362300Y-105327150D01*
X167281050Y-105245900D01*
X166416300Y-105245900D01*
X166158300Y-105245900D01*
X165293550Y-105245900D01*
X165212300Y-105327150D01*
X165072585Y-105327150D01*
X165072585Y-104491900D01*
X165060421Y-104427253D01*
X165212300Y-104427253D01*
X165212300Y-104906650D01*
X165293550Y-104987900D01*
X166158300Y-104987900D01*
X166158300Y-104248150D01*
X166416300Y-104248150D01*
X166416300Y-104987900D01*
X167281050Y-104987900D01*
X167362300Y-104906650D01*
X167362300Y-104427253D01*
X167312821Y-104307802D01*
X167221397Y-104216378D01*
X167101946Y-104166900D01*
X166497550Y-104166900D01*
X166416300Y-104248150D01*
X166158300Y-104248150D01*
X166077050Y-104166900D01*
X165472654Y-104166900D01*
X165353203Y-104216378D01*
X165261779Y-104307802D01*
X165212300Y-104427253D01*
X165060421Y-104427253D01*
X165035977Y-104297347D01*
X164920996Y-104118661D01*
X164745556Y-103998788D01*
X164717700Y-103993147D01*
X164717700Y-99676955D01*
X164762032Y-99570192D01*
X164762368Y-99184501D01*
X164615082Y-98828040D01*
X164342595Y-98555077D01*
X163986392Y-98407168D01*
X163600701Y-98406832D01*
X163244240Y-98554118D01*
X162971277Y-98826605D01*
X162823368Y-99182808D01*
X162823032Y-99568499D01*
X162867700Y-99676604D01*
X162867700Y-103988528D01*
X162842747Y-103993223D01*
X162664061Y-104108204D01*
X162544188Y-104283644D01*
X162502015Y-104491900D01*
X162502015Y-105741900D01*
X162538623Y-105936453D01*
X162653604Y-106115139D01*
X162829044Y-106235012D01*
X162862300Y-106241747D01*
X162862300Y-106288244D01*
X162842747Y-106291923D01*
X162664061Y-106406904D01*
X162567025Y-106548921D01*
X162365000Y-106346896D01*
X162365000Y-106319789D01*
X162375285Y-106269000D01*
X162375285Y-105169000D01*
X162338677Y-104974447D01*
X162223696Y-104795761D01*
X162048256Y-104675888D01*
X161840000Y-104633715D01*
X161440000Y-104633715D01*
X161310411Y-104658099D01*
X161190000Y-104633715D01*
X160790000Y-104633715D01*
X160660411Y-104658099D01*
X160540000Y-104633715D01*
X160140000Y-104633715D01*
X160010411Y-104658099D01*
X159890000Y-104633715D01*
X159814789Y-104633715D01*
X160202652Y-104245852D01*
X160359813Y-104010646D01*
X160383880Y-103889652D01*
X160415000Y-103733200D01*
X160415000Y-101104285D01*
X160540000Y-101104285D01*
X160669589Y-101079901D01*
X160790000Y-101104285D01*
X161190000Y-101104285D01*
X161319589Y-101079901D01*
X161440000Y-101104285D01*
X161840000Y-101104285D01*
X162034553Y-101067677D01*
X162213239Y-100952696D01*
X162333112Y-100777256D01*
X162375285Y-100569000D01*
X162375285Y-99469000D01*
X162365000Y-99414340D01*
X162365000Y-83738200D01*
X162309813Y-83460755D01*
X162257663Y-83382708D01*
X162152652Y-83225547D01*
X160990016Y-82062911D01*
X161054804Y-81737200D01*
X161030249Y-81613753D01*
X167543902Y-88127407D01*
G36*
X154360998Y-99187003D02*
X154360998Y-99196248D01*
X154308750Y-99144000D01*
X154225353Y-99144000D01*
X154105902Y-99193479D01*
X154014478Y-99284903D01*
X153965000Y-99404354D01*
X153965000Y-99808750D01*
X154046248Y-99889998D01*
X153965000Y-99889998D01*
X153965000Y-99902695D01*
X152757500Y-98695196D01*
X152757500Y-97583504D01*
X154360998Y-99187003D01*
X154360998Y-99187003D01*
G37*
X154360998Y-99187003D02*
X154360998Y-99196248D01*
X154308750Y-99144000D01*
X154225353Y-99144000D01*
X154105902Y-99193479D01*
X154014478Y-99284903D01*
X153965000Y-99404354D01*
X153965000Y-99808750D01*
X154046248Y-99889998D01*
X153965000Y-99889998D01*
X153965000Y-99902695D01*
X152757500Y-98695196D01*
X152757500Y-97583504D01*
X154360998Y-99187003D01*
G36*
X158629908Y-82719088D02*
X159080402Y-83020099D01*
X159509998Y-83105551D01*
X159509998Y-83176858D01*
X159326747Y-83130336D01*
X158911630Y-83337130D01*
X158607249Y-83687041D01*
X158492148Y-83964949D01*
X158539190Y-84148200D01*
X159510000Y-84148200D01*
X159510000Y-84128200D01*
X159768000Y-84128200D01*
X159768000Y-84148200D01*
X160738810Y-84148200D01*
X160785852Y-83964949D01*
X160746550Y-83870054D01*
X160915000Y-84038505D01*
X160915000Y-86234767D01*
X160648092Y-85835312D01*
X160197598Y-85534301D01*
X159768002Y-85448849D01*
X159768002Y-85377542D01*
X159951253Y-85424064D01*
X160366370Y-85217270D01*
X160670751Y-84867359D01*
X160785852Y-84589451D01*
X160738810Y-84406200D01*
X159768000Y-84406200D01*
X159768000Y-84426200D01*
X159510000Y-84426200D01*
X159510000Y-84406200D01*
X158539190Y-84406200D01*
X158492148Y-84589451D01*
X158607249Y-84867359D01*
X158911630Y-85217270D01*
X159326747Y-85424064D01*
X159509998Y-85377542D01*
X159509998Y-85448849D01*
X159080402Y-85534301D01*
X158629908Y-85835312D01*
X158369000Y-86225788D01*
X158108092Y-85835312D01*
X157657598Y-85534301D01*
X157228002Y-85448849D01*
X157228002Y-85377542D01*
X157411253Y-85424064D01*
X157826370Y-85217270D01*
X158130751Y-84867359D01*
X158245852Y-84589451D01*
X158198810Y-84406200D01*
X157228000Y-84406200D01*
X157228000Y-84426200D01*
X156970000Y-84426200D01*
X156970000Y-84406200D01*
X155999190Y-84406200D01*
X155952148Y-84589451D01*
X156067249Y-84867359D01*
X156371630Y-85217270D01*
X156786747Y-85424064D01*
X156969998Y-85377542D01*
X156969998Y-85448849D01*
X156540402Y-85534301D01*
X156089908Y-85835312D01*
X155881700Y-86146917D01*
X155881700Y-82407483D01*
X156089908Y-82719088D01*
X156540402Y-83020099D01*
X156969998Y-83105551D01*
X156969998Y-83176858D01*
X156786747Y-83130336D01*
X156371630Y-83337130D01*
X156067249Y-83687041D01*
X155952148Y-83964949D01*
X155999190Y-84148200D01*
X156970000Y-84148200D01*
X156970000Y-84128200D01*
X157228000Y-84128200D01*
X157228000Y-84148200D01*
X158198810Y-84148200D01*
X158245852Y-83964949D01*
X158130751Y-83687041D01*
X157826370Y-83337130D01*
X157411253Y-83130336D01*
X157228002Y-83176858D01*
X157228002Y-83105551D01*
X157657598Y-83020099D01*
X158108092Y-82719088D01*
X158369000Y-82328612D01*
X158629908Y-82719088D01*
X158629908Y-82719088D01*
G37*
X158629908Y-82719088D02*
X159080402Y-83020099D01*
X159509998Y-83105551D01*
X159509998Y-83176858D01*
X159326747Y-83130336D01*
X158911630Y-83337130D01*
X158607249Y-83687041D01*
X158492148Y-83964949D01*
X158539190Y-84148200D01*
X159510000Y-84148200D01*
X159510000Y-84128200D01*
X159768000Y-84128200D01*
X159768000Y-84148200D01*
X160738810Y-84148200D01*
X160785852Y-83964949D01*
X160746550Y-83870054D01*
X160915000Y-84038505D01*
X160915000Y-86234767D01*
X160648092Y-85835312D01*
X160197598Y-85534301D01*
X159768002Y-85448849D01*
X159768002Y-85377542D01*
X159951253Y-85424064D01*
X160366370Y-85217270D01*
X160670751Y-84867359D01*
X160785852Y-84589451D01*
X160738810Y-84406200D01*
X159768000Y-84406200D01*
X159768000Y-84426200D01*
X159510000Y-84426200D01*
X159510000Y-84406200D01*
X158539190Y-84406200D01*
X158492148Y-84589451D01*
X158607249Y-84867359D01*
X158911630Y-85217270D01*
X159326747Y-85424064D01*
X159509998Y-85377542D01*
X159509998Y-85448849D01*
X159080402Y-85534301D01*
X158629908Y-85835312D01*
X158369000Y-86225788D01*
X158108092Y-85835312D01*
X157657598Y-85534301D01*
X157228002Y-85448849D01*
X157228002Y-85377542D01*
X157411253Y-85424064D01*
X157826370Y-85217270D01*
X158130751Y-84867359D01*
X158245852Y-84589451D01*
X158198810Y-84406200D01*
X157228000Y-84406200D01*
X157228000Y-84426200D01*
X156970000Y-84426200D01*
X156970000Y-84406200D01*
X155999190Y-84406200D01*
X155952148Y-84589451D01*
X156067249Y-84867359D01*
X156371630Y-85217270D01*
X156786747Y-85424064D01*
X156969998Y-85377542D01*
X156969998Y-85448849D01*
X156540402Y-85534301D01*
X156089908Y-85835312D01*
X155881700Y-86146917D01*
X155881700Y-82407483D01*
X156089908Y-82719088D01*
X156540402Y-83020099D01*
X156969998Y-83105551D01*
X156969998Y-83176858D01*
X156786747Y-83130336D01*
X156371630Y-83337130D01*
X156067249Y-83687041D01*
X155952148Y-83964949D01*
X155999190Y-84148200D01*
X156970000Y-84148200D01*
X156970000Y-84128200D01*
X157228000Y-84128200D01*
X157228000Y-84148200D01*
X158198810Y-84148200D01*
X158245852Y-83964949D01*
X158130751Y-83687041D01*
X157826370Y-83337130D01*
X157411253Y-83130336D01*
X157228002Y-83176858D01*
X157228002Y-83105551D01*
X157657598Y-83020099D01*
X158108092Y-82719088D01*
X158369000Y-82328612D01*
X158629908Y-82719088D01*
G36*
X147254249Y-37390841D02*
X147139148Y-37668749D01*
X147186190Y-37852000D01*
X148157000Y-37852000D01*
X148157000Y-37832000D01*
X148415000Y-37832000D01*
X148415000Y-37852000D01*
X149385810Y-37852000D01*
X149432852Y-37668749D01*
X149317751Y-37390841D01*
X149039875Y-37071400D01*
X151516296Y-37071400D01*
X154415000Y-39970105D01*
X154415000Y-50312500D01*
X154360998Y-50312500D01*
X154360998Y-50364748D01*
X154308750Y-50312500D01*
X154225353Y-50312500D01*
X154105902Y-50361979D01*
X154014478Y-50453403D01*
X153965000Y-50572854D01*
X153965000Y-50977250D01*
X154046250Y-51058500D01*
X154390000Y-51058500D01*
X154390000Y-51038500D01*
X154404715Y-51038500D01*
X154404715Y-51336500D01*
X154390000Y-51336500D01*
X154390000Y-51316500D01*
X154046250Y-51316500D01*
X153965000Y-51397750D01*
X153965000Y-51414095D01*
X153646500Y-51095596D01*
X153646500Y-45156500D01*
X153596931Y-44907300D01*
X153591313Y-44879054D01*
X153434152Y-44643848D01*
X149637016Y-40846712D01*
X149701804Y-40521000D01*
X149596103Y-39989606D01*
X149295092Y-39539112D01*
X148844598Y-39238101D01*
X148415002Y-39152649D01*
X148415002Y-39081342D01*
X148598253Y-39127864D01*
X149013370Y-38921070D01*
X149317751Y-38571159D01*
X149432852Y-38293251D01*
X149385810Y-38110000D01*
X148415000Y-38110000D01*
X148415000Y-38130000D01*
X148157000Y-38130000D01*
X148157000Y-38110000D01*
X147186190Y-38110000D01*
X147139148Y-38293251D01*
X147254249Y-38571159D01*
X147558630Y-38921070D01*
X147973747Y-39127864D01*
X148156998Y-39081342D01*
X148156998Y-39152649D01*
X147727402Y-39238101D01*
X147276908Y-39539112D01*
X147016000Y-39929588D01*
X146755092Y-39539112D01*
X146304598Y-39238101D01*
X145875002Y-39152649D01*
X145875002Y-39081342D01*
X146058253Y-39127864D01*
X146473370Y-38921070D01*
X146777751Y-38571159D01*
X146892852Y-38293251D01*
X146845810Y-38110000D01*
X145875000Y-38110000D01*
X145875000Y-38130000D01*
X145617000Y-38130000D01*
X145617000Y-38110000D01*
X145597000Y-38110000D01*
X145597000Y-37852000D01*
X145617000Y-37852000D01*
X145617000Y-37832000D01*
X145875000Y-37832000D01*
X145875000Y-37852000D01*
X146845810Y-37852000D01*
X146892852Y-37668749D01*
X146777751Y-37390841D01*
X146499875Y-37071400D01*
X147532125Y-37071400D01*
X147254249Y-37390841D01*
X147254249Y-37390841D01*
G37*
X147254249Y-37390841D02*
X147139148Y-37668749D01*
X147186190Y-37852000D01*
X148157000Y-37852000D01*
X148157000Y-37832000D01*
X148415000Y-37832000D01*
X148415000Y-37852000D01*
X149385810Y-37852000D01*
X149432852Y-37668749D01*
X149317751Y-37390841D01*
X149039875Y-37071400D01*
X151516296Y-37071400D01*
X154415000Y-39970105D01*
X154415000Y-50312500D01*
X154360998Y-50312500D01*
X154360998Y-50364748D01*
X154308750Y-50312500D01*
X154225353Y-50312500D01*
X154105902Y-50361979D01*
X154014478Y-50453403D01*
X153965000Y-50572854D01*
X153965000Y-50977250D01*
X154046250Y-51058500D01*
X154390000Y-51058500D01*
X154390000Y-51038500D01*
X154404715Y-51038500D01*
X154404715Y-51336500D01*
X154390000Y-51336500D01*
X154390000Y-51316500D01*
X154046250Y-51316500D01*
X153965000Y-51397750D01*
X153965000Y-51414095D01*
X153646500Y-51095596D01*
X153646500Y-45156500D01*
X153596931Y-44907300D01*
X153591313Y-44879054D01*
X153434152Y-44643848D01*
X149637016Y-40846712D01*
X149701804Y-40521000D01*
X149596103Y-39989606D01*
X149295092Y-39539112D01*
X148844598Y-39238101D01*
X148415002Y-39152649D01*
X148415002Y-39081342D01*
X148598253Y-39127864D01*
X149013370Y-38921070D01*
X149317751Y-38571159D01*
X149432852Y-38293251D01*
X149385810Y-38110000D01*
X148415000Y-38110000D01*
X148415000Y-38130000D01*
X148157000Y-38130000D01*
X148157000Y-38110000D01*
X147186190Y-38110000D01*
X147139148Y-38293251D01*
X147254249Y-38571159D01*
X147558630Y-38921070D01*
X147973747Y-39127864D01*
X148156998Y-39081342D01*
X148156998Y-39152649D01*
X147727402Y-39238101D01*
X147276908Y-39539112D01*
X147016000Y-39929588D01*
X146755092Y-39539112D01*
X146304598Y-39238101D01*
X145875002Y-39152649D01*
X145875002Y-39081342D01*
X146058253Y-39127864D01*
X146473370Y-38921070D01*
X146777751Y-38571159D01*
X146892852Y-38293251D01*
X146845810Y-38110000D01*
X145875000Y-38110000D01*
X145875000Y-38130000D01*
X145617000Y-38130000D01*
X145617000Y-38110000D01*
X145597000Y-38110000D01*
X145597000Y-37852000D01*
X145617000Y-37852000D01*
X145617000Y-37832000D01*
X145875000Y-37832000D01*
X145875000Y-37852000D01*
X146845810Y-37852000D01*
X146892852Y-37668749D01*
X146777751Y-37390841D01*
X146499875Y-37071400D01*
X147532125Y-37071400D01*
X147254249Y-37390841D01*
G36*
X-806428Y-29292637D02*
X-1869215Y-29731771D01*
X-2791291Y-30652239D01*
X-3290930Y-31855504D01*
X-3292067Y-33158380D01*
X-2794529Y-34362515D01*
X-1874061Y-35284591D01*
X-670796Y-35784230D01*
X632080Y-35785367D01*
X1836215Y-35287829D01*
X2758291Y-34367361D01*
X3257930Y-33164096D01*
X3259067Y-31861220D01*
X2761529Y-30657085D01*
X1841061Y-29735009D01*
X775759Y-29292657D01*
X29969400Y-29293036D01*
X29969400Y-115667800D01*
X30016975Y-115906977D01*
X30152458Y-116109742D01*
X30355223Y-116245225D01*
X30594400Y-116292800D01*
X107930400Y-116292800D01*
X108169577Y-116245225D01*
X108372342Y-116109742D01*
X108507825Y-115906977D01*
X108555400Y-115667800D01*
X108555400Y-94828800D01*
X121709400Y-94828800D01*
X121709400Y-98585797D01*
X121571574Y-98379526D01*
X120505774Y-97313726D01*
X120205683Y-97113211D01*
X119851700Y-97042800D01*
X119772889Y-97042800D01*
X119734878Y-96985912D01*
X119284384Y-96684901D01*
X118752990Y-96579200D01*
X118387810Y-96579200D01*
X117856416Y-96684901D01*
X117405922Y-96985912D01*
X117104911Y-97436406D01*
X116999210Y-97967800D01*
X117104911Y-98499194D01*
X117405922Y-98949688D01*
X117837111Y-99237800D01*
X117405922Y-99525912D01*
X117104911Y-99976406D01*
X116999210Y-100507800D01*
X117104911Y-101039194D01*
X117405922Y-101489688D01*
X117644222Y-101648915D01*
X117554400Y-101648915D01*
X117359847Y-101685523D01*
X117181161Y-101800504D01*
X117061288Y-101975944D01*
X117019115Y-102184200D01*
X117019115Y-103911400D01*
X117055723Y-104105953D01*
X117170704Y-104284639D01*
X117346144Y-104404512D01*
X117554400Y-104446685D01*
X119586400Y-104446685D01*
X119780953Y-104410077D01*
X119959639Y-104295096D01*
X119992500Y-104247002D01*
X119992500Y-113230052D01*
X114336752Y-118885800D01*
X33384755Y-118885800D01*
X33277992Y-118841468D01*
X32892301Y-118841132D01*
X32535840Y-118988418D01*
X32262877Y-119260905D01*
X32114968Y-119617108D01*
X32114632Y-120002799D01*
X32261918Y-120359260D01*
X32534405Y-120632223D01*
X32890608Y-120780132D01*
X33276299Y-120780468D01*
X33384404Y-120735800D01*
X114719900Y-120735800D01*
X115073883Y-120665389D01*
X115373974Y-120464874D01*
X121571574Y-114267274D01*
X121709400Y-114061003D01*
X121709400Y-115667800D01*
X121756975Y-115906977D01*
X121892458Y-116109742D01*
X122095223Y-116245225D01*
X122334400Y-116292800D01*
X132709400Y-116292800D01*
X132709400Y-124042900D01*
X129452185Y-124042900D01*
X129687115Y-123945829D01*
X130609191Y-123025361D01*
X131108830Y-121822096D01*
X131109967Y-120519220D01*
X130612429Y-119315085D01*
X129691961Y-118393009D01*
X128488696Y-117893370D01*
X127185820Y-117892233D01*
X125981685Y-118389771D01*
X125059609Y-119310239D01*
X124559970Y-120513504D01*
X124558833Y-121816380D01*
X125056371Y-123020515D01*
X125976839Y-123942591D01*
X126218410Y-124042900D01*
X120816000Y-124042900D01*
X120805631Y-124045000D01*
X773956Y-124042745D01*
X1836215Y-123603829D01*
X2758291Y-122683361D01*
X3257930Y-121480096D01*
X3259067Y-120177220D01*
X2761529Y-118973085D01*
X1841061Y-118051009D01*
X637796Y-117551370D01*
X-665080Y-117550233D01*
X-1869215Y-118047771D01*
X-2791291Y-118968239D01*
X-3290930Y-120171504D01*
X-3292067Y-121474380D01*
X-2794529Y-122678515D01*
X-1874061Y-123600591D01*
X-809307Y-124042715D01*
X-13780600Y-124042471D01*
X-13780600Y-121568830D01*
X-12860951Y-121568830D01*
X-12553312Y-122313372D01*
X-11984168Y-122883510D01*
X-11240165Y-123192448D01*
X-10434570Y-123193151D01*
X-9690028Y-122885512D01*
X-9119890Y-122316368D01*
X-8810952Y-121572365D01*
X-8810249Y-120766770D01*
X-9117888Y-120022228D01*
X-9687032Y-119452090D01*
X-10431035Y-119143152D01*
X-11236630Y-119142449D01*
X-11981172Y-119450088D01*
X-12551310Y-120019232D01*
X-12860248Y-120763235D01*
X-12860951Y-121568830D01*
X-13780600Y-121568830D01*
X-13780600Y-110178550D01*
X-5594700Y-110178550D01*
X-5594700Y-111150547D01*
X-5545221Y-111269998D01*
X-5453797Y-111361422D01*
X-5334346Y-111410900D01*
X-4362350Y-111410900D01*
X-4281100Y-111329650D01*
X-4281100Y-110097300D01*
X-4023100Y-110097300D01*
X-4023100Y-111329650D01*
X-3941850Y-111410900D01*
X-2969854Y-111410900D01*
X-2850403Y-111361422D01*
X-2758979Y-111269998D01*
X-2709500Y-111150547D01*
X-2709500Y-110178550D01*
X-2790750Y-110097300D01*
X-4023100Y-110097300D01*
X-4281100Y-110097300D01*
X-5513450Y-110097300D01*
X-5594700Y-110178550D01*
X-13780600Y-110178550D01*
X-13780600Y-108786053D01*
X-5594700Y-108786053D01*
X-5594700Y-109758050D01*
X-5513450Y-109839300D01*
X-4281100Y-109839300D01*
X-4281100Y-108606950D01*
X-4023100Y-108606950D01*
X-4023100Y-109839300D01*
X-2790750Y-109839300D01*
X-2709500Y-109758050D01*
X-2709500Y-108786053D01*
X-2758979Y-108666602D01*
X-2850403Y-108575178D01*
X-2969854Y-108525700D01*
X-3941850Y-108525700D01*
X-4023100Y-108606950D01*
X-4281100Y-108606950D01*
X-4362350Y-108525700D01*
X-5334346Y-108525700D01*
X-5453797Y-108575178D01*
X-5545221Y-108666602D01*
X-5594700Y-108786053D01*
X-13780600Y-108786053D01*
X-13780600Y-99040650D01*
X-2794100Y-99040650D01*
X-2794100Y-99520047D01*
X-2744621Y-99639498D01*
X-2653197Y-99730922D01*
X-2533746Y-99780400D01*
X-1929350Y-99780400D01*
X-1848100Y-99699150D01*
X-1848100Y-98959400D01*
X-1590100Y-98959400D01*
X-1590100Y-99699150D01*
X-1508850Y-99780400D01*
X-904454Y-99780400D01*
X-785003Y-99730922D01*
X-693579Y-99639498D01*
X-644100Y-99520047D01*
X-644100Y-99040650D01*
X-725350Y-98959400D01*
X-1590100Y-98959400D01*
X-1848100Y-98959400D01*
X-2712850Y-98959400D01*
X-2794100Y-99040650D01*
X-13780600Y-99040650D01*
X-13780600Y-98140753D01*
X-2794100Y-98140753D01*
X-2794100Y-98620150D01*
X-2712850Y-98701400D01*
X-1848100Y-98701400D01*
X-1848100Y-97961650D01*
X-1590100Y-97961650D01*
X-1590100Y-98701400D01*
X-725350Y-98701400D01*
X-644100Y-98620150D01*
X-644100Y-98140753D01*
X-693579Y-98021302D01*
X-785003Y-97929878D01*
X-904454Y-97880400D01*
X-1508850Y-97880400D01*
X-1590100Y-97961650D01*
X-1848100Y-97961650D01*
X-1929350Y-97880400D01*
X-2533746Y-97880400D01*
X-2653197Y-97929878D01*
X-2744621Y-98021302D01*
X-2794100Y-98140753D01*
X-13780600Y-98140753D01*
X-13780600Y-96830850D01*
X-2794100Y-96830850D01*
X-2794100Y-97310247D01*
X-2744621Y-97429698D01*
X-2653197Y-97521122D01*
X-2533746Y-97570600D01*
X-1929350Y-97570600D01*
X-1848100Y-97489350D01*
X-1848100Y-96749600D01*
X-1590100Y-96749600D01*
X-1590100Y-97489350D01*
X-1508850Y-97570600D01*
X-904454Y-97570600D01*
X-785003Y-97521122D01*
X-693579Y-97429698D01*
X-644100Y-97310247D01*
X-644100Y-96830850D01*
X-725350Y-96749600D01*
X-1590100Y-96749600D01*
X-1848100Y-96749600D01*
X-2712850Y-96749600D01*
X-2794100Y-96830850D01*
X-13780600Y-96830850D01*
X-13780600Y-95930953D01*
X-2794100Y-95930953D01*
X-2794100Y-96410350D01*
X-2712850Y-96491600D01*
X-1848100Y-96491600D01*
X-1848100Y-95751850D01*
X-1590100Y-95751850D01*
X-1590100Y-96491600D01*
X-725350Y-96491600D01*
X-644100Y-96410350D01*
X-644100Y-95930953D01*
X-693579Y-95811502D01*
X-785003Y-95720078D01*
X-904454Y-95670600D01*
X-1508850Y-95670600D01*
X-1590100Y-95751850D01*
X-1848100Y-95751850D01*
X-1929350Y-95670600D01*
X-2533746Y-95670600D01*
X-2653197Y-95720078D01*
X-2744621Y-95811502D01*
X-2794100Y-95930953D01*
X-13780600Y-95930953D01*
X-13780600Y-75948300D01*
X-13238300Y-75948300D01*
X-13238300Y-94128300D01*
X-13229751Y-94173732D01*
X-13202901Y-94215459D01*
X-13161932Y-94243452D01*
X-13113300Y-94253300D01*
X2536700Y-94253300D01*
X2582132Y-94244751D01*
X2623859Y-94217901D01*
X2651852Y-94176932D01*
X2661700Y-94128300D01*
X2661700Y-75948300D01*
X2653151Y-75902868D01*
X2626301Y-75861141D01*
X2585332Y-75833148D01*
X2536700Y-75823300D01*
X-13113300Y-75823300D01*
X-13158732Y-75831849D01*
X-13200459Y-75858699D01*
X-13228452Y-75899668D01*
X-13238300Y-75948300D01*
X-13780600Y-75948300D01*
X-13780600Y-44076518D01*
X-3561006Y-44076518D01*
X-3561006Y-67304294D01*
X-3526237Y-67479088D01*
X-3505819Y-67581740D01*
X-3348658Y-67816946D01*
X3428700Y-74594304D01*
X3428700Y-81317100D01*
X3448561Y-81416946D01*
X3483887Y-81594546D01*
X3641048Y-81829752D01*
X5355547Y-83544252D01*
X5512708Y-83649263D01*
X5590755Y-83701413D01*
X5868200Y-83756600D01*
X5989720Y-83756600D01*
X5981297Y-83769206D01*
X5875596Y-84300600D01*
X5981297Y-84831994D01*
X6282308Y-85282488D01*
X6713497Y-85570600D01*
X6282308Y-85858712D01*
X5981297Y-86309206D01*
X5875596Y-86840600D01*
X5981297Y-87371994D01*
X6282308Y-87822488D01*
X6713497Y-88110600D01*
X6282308Y-88398712D01*
X5981297Y-88849206D01*
X5875596Y-89380600D01*
X5940384Y-89706311D01*
X4796748Y-90849948D01*
X4639587Y-91085154D01*
X4639587Y-91085155D01*
X4584400Y-91362600D01*
X4584400Y-94296500D01*
X4622074Y-94485900D01*
X3836200Y-94485900D01*
X3558754Y-94541087D01*
X3323548Y-94698247D01*
X2126196Y-95895600D01*
X2047369Y-95895600D01*
X2029577Y-95801047D01*
X1914596Y-95622361D01*
X1739156Y-95502488D01*
X1530900Y-95460315D01*
X30900Y-95460315D01*
X-163653Y-95496923D01*
X-342339Y-95611904D01*
X-462212Y-95787344D01*
X-504385Y-95995600D01*
X-504385Y-97245600D01*
X-467777Y-97440153D01*
X-352796Y-97618839D01*
X-194821Y-97726779D01*
X-342339Y-97821704D01*
X-462212Y-97997144D01*
X-504385Y-98205400D01*
X-504385Y-99455400D01*
X-467777Y-99649953D01*
X-352796Y-99828639D01*
X-177356Y-99948512D01*
X-149500Y-99954153D01*
X-149500Y-100892145D01*
X-193832Y-100998908D01*
X-194168Y-101384599D01*
X-46882Y-101741060D01*
X225605Y-102014023D01*
X581808Y-102161932D01*
X967499Y-102162268D01*
X1323960Y-102014982D01*
X1596923Y-101742495D01*
X1744832Y-101386292D01*
X1745168Y-101000601D01*
X1700500Y-100892496D01*
X1700500Y-99958772D01*
X1725453Y-99954077D01*
X1904139Y-99839096D01*
X2024012Y-99663656D01*
X2066185Y-99455400D01*
X2066185Y-98205400D01*
X2029577Y-98010847D01*
X1914596Y-97832161D01*
X1756621Y-97724221D01*
X1904139Y-97629296D01*
X2024012Y-97453856D01*
X2045934Y-97345600D01*
X2426500Y-97345600D01*
X2658995Y-97299354D01*
X2703946Y-97290413D01*
X2939152Y-97133252D01*
X4136505Y-95935900D01*
X4555115Y-95935900D01*
X4555115Y-97000300D01*
X4591723Y-97194853D01*
X4706704Y-97373539D01*
X4882144Y-97493412D01*
X5090400Y-97535585D01*
X5490400Y-97535585D01*
X5619989Y-97511201D01*
X5740400Y-97535585D01*
X6140400Y-97535585D01*
X6269989Y-97511201D01*
X6390400Y-97535585D01*
X6790400Y-97535585D01*
X6919989Y-97511201D01*
X7040400Y-97535585D01*
X7165400Y-97535585D01*
X7165400Y-100090600D01*
X7195518Y-100242013D01*
X7220587Y-100368046D01*
X7377748Y-100603252D01*
X7839511Y-101065015D01*
X7690400Y-101065015D01*
X7560811Y-101089399D01*
X7440400Y-101065015D01*
X7040400Y-101065015D01*
X6910811Y-101089399D01*
X6790400Y-101065015D01*
X6390400Y-101065015D01*
X6260811Y-101089399D01*
X6140400Y-101065015D01*
X5740400Y-101065015D01*
X5610811Y-101089399D01*
X5490400Y-101065015D01*
X5090400Y-101065015D01*
X4895847Y-101101623D01*
X4717161Y-101216604D01*
X4597288Y-101392044D01*
X4555115Y-101600300D01*
X4555115Y-102661480D01*
X4351945Y-102864651D01*
X4215701Y-102864532D01*
X3859240Y-103011818D01*
X3586277Y-103284305D01*
X3438368Y-103640508D01*
X3438032Y-104026199D01*
X3585318Y-104382660D01*
X3857805Y-104655623D01*
X4214008Y-104803532D01*
X4521243Y-104803800D01*
X4588618Y-104966860D01*
X4861105Y-105239823D01*
X5217308Y-105387732D01*
X5362957Y-105387859D01*
X5477618Y-105665360D01*
X5750105Y-105938323D01*
X6106308Y-106086232D01*
X6491999Y-106086568D01*
X6515400Y-106076899D01*
X6515400Y-114958716D01*
X6548158Y-115123401D01*
X6570587Y-115236162D01*
X6727748Y-115471368D01*
X12890446Y-121634066D01*
X13125653Y-121791227D01*
X13403098Y-121846414D01*
X23559314Y-121846414D01*
X23790729Y-121800383D01*
X23836760Y-121791227D01*
X24071966Y-121634066D01*
X27624665Y-118081368D01*
X27781825Y-117846162D01*
X27837012Y-117568716D01*
X27837012Y-100964412D01*
X27781825Y-100686967D01*
X27725888Y-100603252D01*
X27624664Y-100451759D01*
X22535416Y-95362512D01*
X22600204Y-95036800D01*
X22494503Y-94505406D01*
X22193492Y-94054912D01*
X21742998Y-93753901D01*
X21313402Y-93668449D01*
X21313402Y-93597142D01*
X21496653Y-93643664D01*
X21911770Y-93436870D01*
X22216151Y-93086959D01*
X22331252Y-92809051D01*
X22284210Y-92625800D01*
X21313400Y-92625800D01*
X21313400Y-92645800D01*
X21055400Y-92645800D01*
X21055400Y-92625800D01*
X20084590Y-92625800D01*
X20037548Y-92809051D01*
X20152649Y-93086959D01*
X20457030Y-93436870D01*
X20872147Y-93643664D01*
X21055398Y-93597142D01*
X21055398Y-93668449D01*
X20625802Y-93753901D01*
X20175308Y-94054912D01*
X19914400Y-94445388D01*
X19653492Y-94054912D01*
X19202998Y-93753901D01*
X18858621Y-93685400D01*
X19572646Y-93685400D01*
X19692097Y-93635922D01*
X19783521Y-93544498D01*
X19833000Y-93425047D01*
X19833000Y-92707050D01*
X19751750Y-92625800D01*
X18773400Y-92625800D01*
X18773400Y-92645800D01*
X18515400Y-92645800D01*
X18515400Y-92625800D01*
X17537050Y-92625800D01*
X17455800Y-92707050D01*
X17455800Y-93425047D01*
X17505279Y-93544498D01*
X17596703Y-93635922D01*
X17716154Y-93685400D01*
X18430179Y-93685400D01*
X18085802Y-93753901D01*
X17635308Y-94054912D01*
X17463661Y-94311800D01*
X13217800Y-94311800D01*
X12940354Y-94366987D01*
X12705148Y-94524147D01*
X11927748Y-95301548D01*
X11885340Y-95365015D01*
X11605294Y-95365015D01*
X11752952Y-95266352D01*
X13137253Y-93882052D01*
X13294413Y-93646846D01*
X13349600Y-93369400D01*
X13349600Y-91568553D01*
X17455800Y-91568553D01*
X17455800Y-92286550D01*
X17537050Y-92367800D01*
X18515400Y-92367800D01*
X18515400Y-91389450D01*
X18773400Y-91389450D01*
X18773400Y-92367800D01*
X19751750Y-92367800D01*
X19833000Y-92286550D01*
X19833000Y-92184549D01*
X20037548Y-92184549D01*
X20084590Y-92367800D01*
X21055400Y-92367800D01*
X21055400Y-91396459D01*
X21313400Y-91396459D01*
X21313400Y-92367800D01*
X22284210Y-92367800D01*
X22331252Y-92184549D01*
X22216151Y-91906641D01*
X21911770Y-91556730D01*
X21496653Y-91349936D01*
X21313400Y-91396459D01*
X21055400Y-91396459D01*
X20872147Y-91349936D01*
X20457030Y-91556730D01*
X20152649Y-91906641D01*
X20037548Y-92184549D01*
X19833000Y-92184549D01*
X19833000Y-91568553D01*
X19783521Y-91449102D01*
X19692097Y-91357678D01*
X19572646Y-91308200D01*
X18854650Y-91308200D01*
X18773400Y-91389450D01*
X18515400Y-91389450D01*
X18434150Y-91308200D01*
X17716154Y-91308200D01*
X17596703Y-91357678D01*
X17505279Y-91449102D01*
X17455800Y-91568553D01*
X13349600Y-91568553D01*
X13349600Y-82013800D01*
X13294413Y-81736355D01*
X13199658Y-81594545D01*
X13137252Y-81501147D01*
X11182416Y-79546312D01*
X11247204Y-79220600D01*
X11141503Y-78689206D01*
X10840492Y-78238712D01*
X10409303Y-77950600D01*
X10840492Y-77662488D01*
X11141503Y-77211994D01*
X11247204Y-76680600D01*
X11182416Y-76354888D01*
X13086452Y-74450853D01*
X13243612Y-74215646D01*
X13243613Y-74215645D01*
X13298800Y-73938200D01*
X13298800Y-58457100D01*
X13243613Y-58179655D01*
X13171311Y-58071448D01*
X13086452Y-57944447D01*
X11371952Y-56229948D01*
X11136746Y-56072787D01*
X11090715Y-56063631D01*
X10859300Y-56017600D01*
X8162405Y-56017600D01*
X7315400Y-55170596D01*
X7315400Y-54404085D01*
X7440400Y-54404085D01*
X7569989Y-54379701D01*
X7690400Y-54404085D01*
X8090400Y-54404085D01*
X8219989Y-54379701D01*
X8340400Y-54404085D01*
X8740400Y-54404085D01*
X8869989Y-54379701D01*
X8990400Y-54404085D01*
X9390400Y-54404085D01*
X9519989Y-54379701D01*
X9640400Y-54404085D01*
X10040400Y-54404085D01*
X10169989Y-54379701D01*
X10290400Y-54404085D01*
X10690400Y-54404085D01*
X10819989Y-54379701D01*
X10940400Y-54404085D01*
X11066789Y-54404085D01*
X11089024Y-54515865D01*
X11120587Y-54674546D01*
X11277748Y-54909752D01*
X13398200Y-57030205D01*
X13398200Y-61949600D01*
X13420282Y-62060613D01*
X13453387Y-62227046D01*
X13610548Y-62462252D01*
X17293384Y-66145089D01*
X17228596Y-66470800D01*
X17334297Y-67002194D01*
X17635308Y-67452688D01*
X18066497Y-67740800D01*
X17635308Y-68028912D01*
X17334297Y-68479406D01*
X17228596Y-69010800D01*
X17334297Y-69542194D01*
X17635308Y-69992688D01*
X18085802Y-70293699D01*
X18617196Y-70399400D01*
X18671604Y-70399400D01*
X19202998Y-70293699D01*
X19653492Y-69992688D01*
X19914400Y-69602212D01*
X20175308Y-69992688D01*
X20625802Y-70293699D01*
X21157196Y-70399400D01*
X21211604Y-70399400D01*
X21742998Y-70293699D01*
X22193492Y-69992688D01*
X22494503Y-69542194D01*
X22600204Y-69010800D01*
X22494503Y-68479406D01*
X22193492Y-68028912D01*
X21762303Y-67740800D01*
X22193492Y-67452688D01*
X22494503Y-67002194D01*
X22600204Y-66470800D01*
X22535416Y-66145088D01*
X28631253Y-60049252D01*
X28788413Y-59814046D01*
X28843600Y-59536600D01*
X28843600Y-36271484D01*
X28826001Y-36183007D01*
X28788413Y-35994038D01*
X28631253Y-35758832D01*
X24474554Y-31602134D01*
X24239348Y-31444973D01*
X24193317Y-31435817D01*
X23961902Y-31389786D01*
X11625098Y-31389786D01*
X11347652Y-31444973D01*
X11112446Y-31602133D01*
X7377748Y-35336832D01*
X7220587Y-35572038D01*
X7214693Y-35601671D01*
X7165400Y-35849484D01*
X7165400Y-43188007D01*
X6060636Y-42083244D01*
X5825430Y-41926083D01*
X5779399Y-41916927D01*
X5547984Y-41870896D01*
X-1355384Y-41870896D01*
X-1632830Y-41926083D01*
X-1868036Y-42083243D01*
X-3348658Y-43563866D01*
X-3505819Y-43799072D01*
X-3505819Y-43799073D01*
X-3561006Y-44076518D01*
X-13780600Y-44076518D01*
X-13780600Y-41344550D01*
X-6763100Y-41344550D01*
X-6763100Y-42316547D01*
X-6713621Y-42435998D01*
X-6622197Y-42527422D01*
X-6502746Y-42576900D01*
X-5530750Y-42576900D01*
X-5449500Y-42495650D01*
X-5449500Y-41263300D01*
X-5191500Y-41263300D01*
X-5191500Y-42495650D01*
X-5110250Y-42576900D01*
X-4138254Y-42576900D01*
X-4018803Y-42527422D01*
X-3927379Y-42435998D01*
X-3877900Y-42316547D01*
X-3877900Y-41344550D01*
X-3959150Y-41263300D01*
X-5191500Y-41263300D01*
X-5449500Y-41263300D01*
X-6681850Y-41263300D01*
X-6763100Y-41344550D01*
X-13780600Y-41344550D01*
X-13780600Y-39952053D01*
X-6763100Y-39952053D01*
X-6763100Y-40924050D01*
X-6681850Y-41005300D01*
X-5449500Y-41005300D01*
X-5449500Y-39772950D01*
X-5191500Y-39772950D01*
X-5191500Y-41005300D01*
X-3959150Y-41005300D01*
X-3877900Y-40924050D01*
X-3877900Y-39952053D01*
X-3927379Y-39832602D01*
X-4018803Y-39741178D01*
X-4138254Y-39691700D01*
X-5110250Y-39691700D01*
X-5191500Y-39772950D01*
X-5449500Y-39772950D01*
X-5530750Y-39691700D01*
X-6502746Y-39691700D01*
X-6622197Y-39741178D01*
X-6713621Y-39832602D01*
X-6763100Y-39952053D01*
X-13780600Y-39952053D01*
X-13780600Y-32568830D01*
X-12860951Y-32568830D01*
X-12553312Y-33313372D01*
X-11984168Y-33883510D01*
X-11240165Y-34192448D01*
X-10434570Y-34193151D01*
X-9690028Y-33885512D01*
X-9119890Y-33316368D01*
X-8810952Y-32572365D01*
X-8810249Y-31766770D01*
X-9117888Y-31022228D01*
X-9687032Y-30452090D01*
X-10431035Y-30143152D01*
X-11236630Y-30142449D01*
X-11981172Y-30450088D01*
X-12551310Y-31019232D01*
X-12860248Y-31763235D01*
X-12860951Y-32568830D01*
X-13780600Y-32568830D01*
X-13780600Y-29292469D01*
X-806428Y-29292637D01*
X-806428Y-29292637D01*
G37*
X-806428Y-29292637D02*
X-1869215Y-29731771D01*
X-2791291Y-30652239D01*
X-3290930Y-31855504D01*
X-3292067Y-33158380D01*
X-2794529Y-34362515D01*
X-1874061Y-35284591D01*
X-670796Y-35784230D01*
X632080Y-35785367D01*
X1836215Y-35287829D01*
X2758291Y-34367361D01*
X3257930Y-33164096D01*
X3259067Y-31861220D01*
X2761529Y-30657085D01*
X1841061Y-29735009D01*
X775759Y-29292657D01*
X29969400Y-29293036D01*
X29969400Y-115667800D01*
X30016975Y-115906977D01*
X30152458Y-116109742D01*
X30355223Y-116245225D01*
X30594400Y-116292800D01*
X107930400Y-116292800D01*
X108169577Y-116245225D01*
X108372342Y-116109742D01*
X108507825Y-115906977D01*
X108555400Y-115667800D01*
X108555400Y-94828800D01*
X121709400Y-94828800D01*
X121709400Y-98585797D01*
X121571574Y-98379526D01*
X120505774Y-97313726D01*
X120205683Y-97113211D01*
X119851700Y-97042800D01*
X119772889Y-97042800D01*
X119734878Y-96985912D01*
X119284384Y-96684901D01*
X118752990Y-96579200D01*
X118387810Y-96579200D01*
X117856416Y-96684901D01*
X117405922Y-96985912D01*
X117104911Y-97436406D01*
X116999210Y-97967800D01*
X117104911Y-98499194D01*
X117405922Y-98949688D01*
X117837111Y-99237800D01*
X117405922Y-99525912D01*
X117104911Y-99976406D01*
X116999210Y-100507800D01*
X117104911Y-101039194D01*
X117405922Y-101489688D01*
X117644222Y-101648915D01*
X117554400Y-101648915D01*
X117359847Y-101685523D01*
X117181161Y-101800504D01*
X117061288Y-101975944D01*
X117019115Y-102184200D01*
X117019115Y-103911400D01*
X117055723Y-104105953D01*
X117170704Y-104284639D01*
X117346144Y-104404512D01*
X117554400Y-104446685D01*
X119586400Y-104446685D01*
X119780953Y-104410077D01*
X119959639Y-104295096D01*
X119992500Y-104247002D01*
X119992500Y-113230052D01*
X114336752Y-118885800D01*
X33384755Y-118885800D01*
X33277992Y-118841468D01*
X32892301Y-118841132D01*
X32535840Y-118988418D01*
X32262877Y-119260905D01*
X32114968Y-119617108D01*
X32114632Y-120002799D01*
X32261918Y-120359260D01*
X32534405Y-120632223D01*
X32890608Y-120780132D01*
X33276299Y-120780468D01*
X33384404Y-120735800D01*
X114719900Y-120735800D01*
X115073883Y-120665389D01*
X115373974Y-120464874D01*
X121571574Y-114267274D01*
X121709400Y-114061003D01*
X121709400Y-115667800D01*
X121756975Y-115906977D01*
X121892458Y-116109742D01*
X122095223Y-116245225D01*
X122334400Y-116292800D01*
X132709400Y-116292800D01*
X132709400Y-124042900D01*
X129452185Y-124042900D01*
X129687115Y-123945829D01*
X130609191Y-123025361D01*
X131108830Y-121822096D01*
X131109967Y-120519220D01*
X130612429Y-119315085D01*
X129691961Y-118393009D01*
X128488696Y-117893370D01*
X127185820Y-117892233D01*
X125981685Y-118389771D01*
X125059609Y-119310239D01*
X124559970Y-120513504D01*
X124558833Y-121816380D01*
X125056371Y-123020515D01*
X125976839Y-123942591D01*
X126218410Y-124042900D01*
X120816000Y-124042900D01*
X120805631Y-124045000D01*
X773956Y-124042745D01*
X1836215Y-123603829D01*
X2758291Y-122683361D01*
X3257930Y-121480096D01*
X3259067Y-120177220D01*
X2761529Y-118973085D01*
X1841061Y-118051009D01*
X637796Y-117551370D01*
X-665080Y-117550233D01*
X-1869215Y-118047771D01*
X-2791291Y-118968239D01*
X-3290930Y-120171504D01*
X-3292067Y-121474380D01*
X-2794529Y-122678515D01*
X-1874061Y-123600591D01*
X-809307Y-124042715D01*
X-13780600Y-124042471D01*
X-13780600Y-121568830D01*
X-12860951Y-121568830D01*
X-12553312Y-122313372D01*
X-11984168Y-122883510D01*
X-11240165Y-123192448D01*
X-10434570Y-123193151D01*
X-9690028Y-122885512D01*
X-9119890Y-122316368D01*
X-8810952Y-121572365D01*
X-8810249Y-120766770D01*
X-9117888Y-120022228D01*
X-9687032Y-119452090D01*
X-10431035Y-119143152D01*
X-11236630Y-119142449D01*
X-11981172Y-119450088D01*
X-12551310Y-120019232D01*
X-12860248Y-120763235D01*
X-12860951Y-121568830D01*
X-13780600Y-121568830D01*
X-13780600Y-110178550D01*
X-5594700Y-110178550D01*
X-5594700Y-111150547D01*
X-5545221Y-111269998D01*
X-5453797Y-111361422D01*
X-5334346Y-111410900D01*
X-4362350Y-111410900D01*
X-4281100Y-111329650D01*
X-4281100Y-110097300D01*
X-4023100Y-110097300D01*
X-4023100Y-111329650D01*
X-3941850Y-111410900D01*
X-2969854Y-111410900D01*
X-2850403Y-111361422D01*
X-2758979Y-111269998D01*
X-2709500Y-111150547D01*
X-2709500Y-110178550D01*
X-2790750Y-110097300D01*
X-4023100Y-110097300D01*
X-4281100Y-110097300D01*
X-5513450Y-110097300D01*
X-5594700Y-110178550D01*
X-13780600Y-110178550D01*
X-13780600Y-108786053D01*
X-5594700Y-108786053D01*
X-5594700Y-109758050D01*
X-5513450Y-109839300D01*
X-4281100Y-109839300D01*
X-4281100Y-108606950D01*
X-4023100Y-108606950D01*
X-4023100Y-109839300D01*
X-2790750Y-109839300D01*
X-2709500Y-109758050D01*
X-2709500Y-108786053D01*
X-2758979Y-108666602D01*
X-2850403Y-108575178D01*
X-2969854Y-108525700D01*
X-3941850Y-108525700D01*
X-4023100Y-108606950D01*
X-4281100Y-108606950D01*
X-4362350Y-108525700D01*
X-5334346Y-108525700D01*
X-5453797Y-108575178D01*
X-5545221Y-108666602D01*
X-5594700Y-108786053D01*
X-13780600Y-108786053D01*
X-13780600Y-99040650D01*
X-2794100Y-99040650D01*
X-2794100Y-99520047D01*
X-2744621Y-99639498D01*
X-2653197Y-99730922D01*
X-2533746Y-99780400D01*
X-1929350Y-99780400D01*
X-1848100Y-99699150D01*
X-1848100Y-98959400D01*
X-1590100Y-98959400D01*
X-1590100Y-99699150D01*
X-1508850Y-99780400D01*
X-904454Y-99780400D01*
X-785003Y-99730922D01*
X-693579Y-99639498D01*
X-644100Y-99520047D01*
X-644100Y-99040650D01*
X-725350Y-98959400D01*
X-1590100Y-98959400D01*
X-1848100Y-98959400D01*
X-2712850Y-98959400D01*
X-2794100Y-99040650D01*
X-13780600Y-99040650D01*
X-13780600Y-98140753D01*
X-2794100Y-98140753D01*
X-2794100Y-98620150D01*
X-2712850Y-98701400D01*
X-1848100Y-98701400D01*
X-1848100Y-97961650D01*
X-1590100Y-97961650D01*
X-1590100Y-98701400D01*
X-725350Y-98701400D01*
X-644100Y-98620150D01*
X-644100Y-98140753D01*
X-693579Y-98021302D01*
X-785003Y-97929878D01*
X-904454Y-97880400D01*
X-1508850Y-97880400D01*
X-1590100Y-97961650D01*
X-1848100Y-97961650D01*
X-1929350Y-97880400D01*
X-2533746Y-97880400D01*
X-2653197Y-97929878D01*
X-2744621Y-98021302D01*
X-2794100Y-98140753D01*
X-13780600Y-98140753D01*
X-13780600Y-96830850D01*
X-2794100Y-96830850D01*
X-2794100Y-97310247D01*
X-2744621Y-97429698D01*
X-2653197Y-97521122D01*
X-2533746Y-97570600D01*
X-1929350Y-97570600D01*
X-1848100Y-97489350D01*
X-1848100Y-96749600D01*
X-1590100Y-96749600D01*
X-1590100Y-97489350D01*
X-1508850Y-97570600D01*
X-904454Y-97570600D01*
X-785003Y-97521122D01*
X-693579Y-97429698D01*
X-644100Y-97310247D01*
X-644100Y-96830850D01*
X-725350Y-96749600D01*
X-1590100Y-96749600D01*
X-1848100Y-96749600D01*
X-2712850Y-96749600D01*
X-2794100Y-96830850D01*
X-13780600Y-96830850D01*
X-13780600Y-95930953D01*
X-2794100Y-95930953D01*
X-2794100Y-96410350D01*
X-2712850Y-96491600D01*
X-1848100Y-96491600D01*
X-1848100Y-95751850D01*
X-1590100Y-95751850D01*
X-1590100Y-96491600D01*
X-725350Y-96491600D01*
X-644100Y-96410350D01*
X-644100Y-95930953D01*
X-693579Y-95811502D01*
X-785003Y-95720078D01*
X-904454Y-95670600D01*
X-1508850Y-95670600D01*
X-1590100Y-95751850D01*
X-1848100Y-95751850D01*
X-1929350Y-95670600D01*
X-2533746Y-95670600D01*
X-2653197Y-95720078D01*
X-2744621Y-95811502D01*
X-2794100Y-95930953D01*
X-13780600Y-95930953D01*
X-13780600Y-75948300D01*
X-13238300Y-75948300D01*
X-13238300Y-94128300D01*
X-13229751Y-94173732D01*
X-13202901Y-94215459D01*
X-13161932Y-94243452D01*
X-13113300Y-94253300D01*
X2536700Y-94253300D01*
X2582132Y-94244751D01*
X2623859Y-94217901D01*
X2651852Y-94176932D01*
X2661700Y-94128300D01*
X2661700Y-75948300D01*
X2653151Y-75902868D01*
X2626301Y-75861141D01*
X2585332Y-75833148D01*
X2536700Y-75823300D01*
X-13113300Y-75823300D01*
X-13158732Y-75831849D01*
X-13200459Y-75858699D01*
X-13228452Y-75899668D01*
X-13238300Y-75948300D01*
X-13780600Y-75948300D01*
X-13780600Y-44076518D01*
X-3561006Y-44076518D01*
X-3561006Y-67304294D01*
X-3526237Y-67479088D01*
X-3505819Y-67581740D01*
X-3348658Y-67816946D01*
X3428700Y-74594304D01*
X3428700Y-81317100D01*
X3448561Y-81416946D01*
X3483887Y-81594546D01*
X3641048Y-81829752D01*
X5355547Y-83544252D01*
X5512708Y-83649263D01*
X5590755Y-83701413D01*
X5868200Y-83756600D01*
X5989720Y-83756600D01*
X5981297Y-83769206D01*
X5875596Y-84300600D01*
X5981297Y-84831994D01*
X6282308Y-85282488D01*
X6713497Y-85570600D01*
X6282308Y-85858712D01*
X5981297Y-86309206D01*
X5875596Y-86840600D01*
X5981297Y-87371994D01*
X6282308Y-87822488D01*
X6713497Y-88110600D01*
X6282308Y-88398712D01*
X5981297Y-88849206D01*
X5875596Y-89380600D01*
X5940384Y-89706311D01*
X4796748Y-90849948D01*
X4639587Y-91085154D01*
X4639587Y-91085155D01*
X4584400Y-91362600D01*
X4584400Y-94296500D01*
X4622074Y-94485900D01*
X3836200Y-94485900D01*
X3558754Y-94541087D01*
X3323548Y-94698247D01*
X2126196Y-95895600D01*
X2047369Y-95895600D01*
X2029577Y-95801047D01*
X1914596Y-95622361D01*
X1739156Y-95502488D01*
X1530900Y-95460315D01*
X30900Y-95460315D01*
X-163653Y-95496923D01*
X-342339Y-95611904D01*
X-462212Y-95787344D01*
X-504385Y-95995600D01*
X-504385Y-97245600D01*
X-467777Y-97440153D01*
X-352796Y-97618839D01*
X-194821Y-97726779D01*
X-342339Y-97821704D01*
X-462212Y-97997144D01*
X-504385Y-98205400D01*
X-504385Y-99455400D01*
X-467777Y-99649953D01*
X-352796Y-99828639D01*
X-177356Y-99948512D01*
X-149500Y-99954153D01*
X-149500Y-100892145D01*
X-193832Y-100998908D01*
X-194168Y-101384599D01*
X-46882Y-101741060D01*
X225605Y-102014023D01*
X581808Y-102161932D01*
X967499Y-102162268D01*
X1323960Y-102014982D01*
X1596923Y-101742495D01*
X1744832Y-101386292D01*
X1745168Y-101000601D01*
X1700500Y-100892496D01*
X1700500Y-99958772D01*
X1725453Y-99954077D01*
X1904139Y-99839096D01*
X2024012Y-99663656D01*
X2066185Y-99455400D01*
X2066185Y-98205400D01*
X2029577Y-98010847D01*
X1914596Y-97832161D01*
X1756621Y-97724221D01*
X1904139Y-97629296D01*
X2024012Y-97453856D01*
X2045934Y-97345600D01*
X2426500Y-97345600D01*
X2658995Y-97299354D01*
X2703946Y-97290413D01*
X2939152Y-97133252D01*
X4136505Y-95935900D01*
X4555115Y-95935900D01*
X4555115Y-97000300D01*
X4591723Y-97194853D01*
X4706704Y-97373539D01*
X4882144Y-97493412D01*
X5090400Y-97535585D01*
X5490400Y-97535585D01*
X5619989Y-97511201D01*
X5740400Y-97535585D01*
X6140400Y-97535585D01*
X6269989Y-97511201D01*
X6390400Y-97535585D01*
X6790400Y-97535585D01*
X6919989Y-97511201D01*
X7040400Y-97535585D01*
X7165400Y-97535585D01*
X7165400Y-100090600D01*
X7195518Y-100242013D01*
X7220587Y-100368046D01*
X7377748Y-100603252D01*
X7839511Y-101065015D01*
X7690400Y-101065015D01*
X7560811Y-101089399D01*
X7440400Y-101065015D01*
X7040400Y-101065015D01*
X6910811Y-101089399D01*
X6790400Y-101065015D01*
X6390400Y-101065015D01*
X6260811Y-101089399D01*
X6140400Y-101065015D01*
X5740400Y-101065015D01*
X5610811Y-101089399D01*
X5490400Y-101065015D01*
X5090400Y-101065015D01*
X4895847Y-101101623D01*
X4717161Y-101216604D01*
X4597288Y-101392044D01*
X4555115Y-101600300D01*
X4555115Y-102661480D01*
X4351945Y-102864651D01*
X4215701Y-102864532D01*
X3859240Y-103011818D01*
X3586277Y-103284305D01*
X3438368Y-103640508D01*
X3438032Y-104026199D01*
X3585318Y-104382660D01*
X3857805Y-104655623D01*
X4214008Y-104803532D01*
X4521243Y-104803800D01*
X4588618Y-104966860D01*
X4861105Y-105239823D01*
X5217308Y-105387732D01*
X5362957Y-105387859D01*
X5477618Y-105665360D01*
X5750105Y-105938323D01*
X6106308Y-106086232D01*
X6491999Y-106086568D01*
X6515400Y-106076899D01*
X6515400Y-114958716D01*
X6548158Y-115123401D01*
X6570587Y-115236162D01*
X6727748Y-115471368D01*
X12890446Y-121634066D01*
X13125653Y-121791227D01*
X13403098Y-121846414D01*
X23559314Y-121846414D01*
X23790729Y-121800383D01*
X23836760Y-121791227D01*
X24071966Y-121634066D01*
X27624665Y-118081368D01*
X27781825Y-117846162D01*
X27837012Y-117568716D01*
X27837012Y-100964412D01*
X27781825Y-100686967D01*
X27725888Y-100603252D01*
X27624664Y-100451759D01*
X22535416Y-95362512D01*
X22600204Y-95036800D01*
X22494503Y-94505406D01*
X22193492Y-94054912D01*
X21742998Y-93753901D01*
X21313402Y-93668449D01*
X21313402Y-93597142D01*
X21496653Y-93643664D01*
X21911770Y-93436870D01*
X22216151Y-93086959D01*
X22331252Y-92809051D01*
X22284210Y-92625800D01*
X21313400Y-92625800D01*
X21313400Y-92645800D01*
X21055400Y-92645800D01*
X21055400Y-92625800D01*
X20084590Y-92625800D01*
X20037548Y-92809051D01*
X20152649Y-93086959D01*
X20457030Y-93436870D01*
X20872147Y-93643664D01*
X21055398Y-93597142D01*
X21055398Y-93668449D01*
X20625802Y-93753901D01*
X20175308Y-94054912D01*
X19914400Y-94445388D01*
X19653492Y-94054912D01*
X19202998Y-93753901D01*
X18858621Y-93685400D01*
X19572646Y-93685400D01*
X19692097Y-93635922D01*
X19783521Y-93544498D01*
X19833000Y-93425047D01*
X19833000Y-92707050D01*
X19751750Y-92625800D01*
X18773400Y-92625800D01*
X18773400Y-92645800D01*
X18515400Y-92645800D01*
X18515400Y-92625800D01*
X17537050Y-92625800D01*
X17455800Y-92707050D01*
X17455800Y-93425047D01*
X17505279Y-93544498D01*
X17596703Y-93635922D01*
X17716154Y-93685400D01*
X18430179Y-93685400D01*
X18085802Y-93753901D01*
X17635308Y-94054912D01*
X17463661Y-94311800D01*
X13217800Y-94311800D01*
X12940354Y-94366987D01*
X12705148Y-94524147D01*
X11927748Y-95301548D01*
X11885340Y-95365015D01*
X11605294Y-95365015D01*
X11752952Y-95266352D01*
X13137253Y-93882052D01*
X13294413Y-93646846D01*
X13349600Y-93369400D01*
X13349600Y-91568553D01*
X17455800Y-91568553D01*
X17455800Y-92286550D01*
X17537050Y-92367800D01*
X18515400Y-92367800D01*
X18515400Y-91389450D01*
X18773400Y-91389450D01*
X18773400Y-92367800D01*
X19751750Y-92367800D01*
X19833000Y-92286550D01*
X19833000Y-92184549D01*
X20037548Y-92184549D01*
X20084590Y-92367800D01*
X21055400Y-92367800D01*
X21055400Y-91396459D01*
X21313400Y-91396459D01*
X21313400Y-92367800D01*
X22284210Y-92367800D01*
X22331252Y-92184549D01*
X22216151Y-91906641D01*
X21911770Y-91556730D01*
X21496653Y-91349936D01*
X21313400Y-91396459D01*
X21055400Y-91396459D01*
X20872147Y-91349936D01*
X20457030Y-91556730D01*
X20152649Y-91906641D01*
X20037548Y-92184549D01*
X19833000Y-92184549D01*
X19833000Y-91568553D01*
X19783521Y-91449102D01*
X19692097Y-91357678D01*
X19572646Y-91308200D01*
X18854650Y-91308200D01*
X18773400Y-91389450D01*
X18515400Y-91389450D01*
X18434150Y-91308200D01*
X17716154Y-91308200D01*
X17596703Y-91357678D01*
X17505279Y-91449102D01*
X17455800Y-91568553D01*
X13349600Y-91568553D01*
X13349600Y-82013800D01*
X13294413Y-81736355D01*
X13199658Y-81594545D01*
X13137252Y-81501147D01*
X11182416Y-79546312D01*
X11247204Y-79220600D01*
X11141503Y-78689206D01*
X10840492Y-78238712D01*
X10409303Y-77950600D01*
X10840492Y-77662488D01*
X11141503Y-77211994D01*
X11247204Y-76680600D01*
X11182416Y-76354888D01*
X13086452Y-74450853D01*
X13243612Y-74215646D01*
X13243613Y-74215645D01*
X13298800Y-73938200D01*
X13298800Y-58457100D01*
X13243613Y-58179655D01*
X13171311Y-58071448D01*
X13086452Y-57944447D01*
X11371952Y-56229948D01*
X11136746Y-56072787D01*
X11090715Y-56063631D01*
X10859300Y-56017600D01*
X8162405Y-56017600D01*
X7315400Y-55170596D01*
X7315400Y-54404085D01*
X7440400Y-54404085D01*
X7569989Y-54379701D01*
X7690400Y-54404085D01*
X8090400Y-54404085D01*
X8219989Y-54379701D01*
X8340400Y-54404085D01*
X8740400Y-54404085D01*
X8869989Y-54379701D01*
X8990400Y-54404085D01*
X9390400Y-54404085D01*
X9519989Y-54379701D01*
X9640400Y-54404085D01*
X10040400Y-54404085D01*
X10169989Y-54379701D01*
X10290400Y-54404085D01*
X10690400Y-54404085D01*
X10819989Y-54379701D01*
X10940400Y-54404085D01*
X11066789Y-54404085D01*
X11089024Y-54515865D01*
X11120587Y-54674546D01*
X11277748Y-54909752D01*
X13398200Y-57030205D01*
X13398200Y-61949600D01*
X13420282Y-62060613D01*
X13453387Y-62227046D01*
X13610548Y-62462252D01*
X17293384Y-66145089D01*
X17228596Y-66470800D01*
X17334297Y-67002194D01*
X17635308Y-67452688D01*
X18066497Y-67740800D01*
X17635308Y-68028912D01*
X17334297Y-68479406D01*
X17228596Y-69010800D01*
X17334297Y-69542194D01*
X17635308Y-69992688D01*
X18085802Y-70293699D01*
X18617196Y-70399400D01*
X18671604Y-70399400D01*
X19202998Y-70293699D01*
X19653492Y-69992688D01*
X19914400Y-69602212D01*
X20175308Y-69992688D01*
X20625802Y-70293699D01*
X21157196Y-70399400D01*
X21211604Y-70399400D01*
X21742998Y-70293699D01*
X22193492Y-69992688D01*
X22494503Y-69542194D01*
X22600204Y-69010800D01*
X22494503Y-68479406D01*
X22193492Y-68028912D01*
X21762303Y-67740800D01*
X22193492Y-67452688D01*
X22494503Y-67002194D01*
X22600204Y-66470800D01*
X22535416Y-66145088D01*
X28631253Y-60049252D01*
X28788413Y-59814046D01*
X28843600Y-59536600D01*
X28843600Y-36271484D01*
X28826001Y-36183007D01*
X28788413Y-35994038D01*
X28631253Y-35758832D01*
X24474554Y-31602134D01*
X24239348Y-31444973D01*
X24193317Y-31435817D01*
X23961902Y-31389786D01*
X11625098Y-31389786D01*
X11347652Y-31444973D01*
X11112446Y-31602133D01*
X7377748Y-35336832D01*
X7220587Y-35572038D01*
X7214693Y-35601671D01*
X7165400Y-35849484D01*
X7165400Y-43188007D01*
X6060636Y-42083244D01*
X5825430Y-41926083D01*
X5779399Y-41916927D01*
X5547984Y-41870896D01*
X-1355384Y-41870896D01*
X-1632830Y-41926083D01*
X-1868036Y-42083243D01*
X-3348658Y-43563866D01*
X-3505819Y-43799072D01*
X-3505819Y-43799073D01*
X-3561006Y-44076518D01*
X-13780600Y-44076518D01*
X-13780600Y-41344550D01*
X-6763100Y-41344550D01*
X-6763100Y-42316547D01*
X-6713621Y-42435998D01*
X-6622197Y-42527422D01*
X-6502746Y-42576900D01*
X-5530750Y-42576900D01*
X-5449500Y-42495650D01*
X-5449500Y-41263300D01*
X-5191500Y-41263300D01*
X-5191500Y-42495650D01*
X-5110250Y-42576900D01*
X-4138254Y-42576900D01*
X-4018803Y-42527422D01*
X-3927379Y-42435998D01*
X-3877900Y-42316547D01*
X-3877900Y-41344550D01*
X-3959150Y-41263300D01*
X-5191500Y-41263300D01*
X-5449500Y-41263300D01*
X-6681850Y-41263300D01*
X-6763100Y-41344550D01*
X-13780600Y-41344550D01*
X-13780600Y-39952053D01*
X-6763100Y-39952053D01*
X-6763100Y-40924050D01*
X-6681850Y-41005300D01*
X-5449500Y-41005300D01*
X-5449500Y-39772950D01*
X-5191500Y-39772950D01*
X-5191500Y-41005300D01*
X-3959150Y-41005300D01*
X-3877900Y-40924050D01*
X-3877900Y-39952053D01*
X-3927379Y-39832602D01*
X-4018803Y-39741178D01*
X-4138254Y-39691700D01*
X-5110250Y-39691700D01*
X-5191500Y-39772950D01*
X-5449500Y-39772950D01*
X-5530750Y-39691700D01*
X-6502746Y-39691700D01*
X-6622197Y-39741178D01*
X-6713621Y-39832602D01*
X-6763100Y-39952053D01*
X-13780600Y-39952053D01*
X-13780600Y-32568830D01*
X-12860951Y-32568830D01*
X-12553312Y-33313372D01*
X-11984168Y-33883510D01*
X-11240165Y-34192448D01*
X-10434570Y-34193151D01*
X-9690028Y-33885512D01*
X-9119890Y-33316368D01*
X-8810952Y-32572365D01*
X-8810249Y-31766770D01*
X-9117888Y-31022228D01*
X-9687032Y-30452090D01*
X-10431035Y-30143152D01*
X-11236630Y-30142449D01*
X-11981172Y-30450088D01*
X-12551310Y-31019232D01*
X-12860248Y-31763235D01*
X-12860951Y-32568830D01*
X-13780600Y-32568830D01*
X-13780600Y-29292469D01*
X-806428Y-29292637D01*
G36*
X13283900Y-102242205D02*
X13283900Y-108181300D01*
X13323359Y-108379675D01*
X13339087Y-108458746D01*
X13496248Y-108693952D01*
X17293384Y-112491088D01*
X17228596Y-112816800D01*
X17334297Y-113348194D01*
X17635308Y-113798688D01*
X18085802Y-114099699D01*
X18515398Y-114185151D01*
X18515398Y-114256458D01*
X18332147Y-114209936D01*
X17917030Y-114416730D01*
X17612649Y-114766641D01*
X17497548Y-115044549D01*
X17544590Y-115227800D01*
X18515400Y-115227800D01*
X18515400Y-115207800D01*
X18773400Y-115207800D01*
X18773400Y-115227800D01*
X19744210Y-115227800D01*
X19791252Y-115044549D01*
X19676151Y-114766641D01*
X19371770Y-114416730D01*
X18956653Y-114209936D01*
X18773402Y-114256458D01*
X18773402Y-114185151D01*
X19202998Y-114099699D01*
X19653492Y-113798688D01*
X19914400Y-113408212D01*
X20175308Y-113798688D01*
X20625802Y-114099699D01*
X21055398Y-114185151D01*
X21055398Y-114256458D01*
X20872147Y-114209936D01*
X20457030Y-114416730D01*
X20152649Y-114766641D01*
X20037548Y-115044549D01*
X20084590Y-115227800D01*
X21055400Y-115227800D01*
X21055400Y-115207800D01*
X21313400Y-115207800D01*
X21313400Y-115227800D01*
X21333400Y-115227800D01*
X21333400Y-115485800D01*
X21313400Y-115485800D01*
X21313400Y-115505800D01*
X21055400Y-115505800D01*
X21055400Y-115485800D01*
X20084590Y-115485800D01*
X20037548Y-115669051D01*
X20152649Y-115946959D01*
X20430525Y-116266400D01*
X19398275Y-116266400D01*
X19676151Y-115946959D01*
X19791252Y-115669051D01*
X19744210Y-115485800D01*
X18773400Y-115485800D01*
X18773400Y-115505800D01*
X18515400Y-115505800D01*
X18515400Y-115485800D01*
X17544590Y-115485800D01*
X17497548Y-115669051D01*
X17612649Y-115946959D01*
X17890525Y-116266400D01*
X15414105Y-116266400D01*
X12515400Y-113367696D01*
X12515400Y-103025300D01*
X12569402Y-103025300D01*
X12569402Y-102973052D01*
X12621650Y-103025300D01*
X12705047Y-103025300D01*
X12824498Y-102975821D01*
X12915922Y-102884397D01*
X12965400Y-102764946D01*
X12965400Y-102360550D01*
X12884150Y-102279300D01*
X12540400Y-102279300D01*
X12540400Y-102299300D01*
X12525685Y-102299300D01*
X12525685Y-102001300D01*
X12540400Y-102001300D01*
X12540400Y-102021300D01*
X12884150Y-102021300D01*
X12965400Y-101940050D01*
X12965400Y-101923704D01*
X13283900Y-102242205D01*
X13283900Y-102242205D01*
G37*
X13283900Y-102242205D02*
X13283900Y-108181300D01*
X13323359Y-108379675D01*
X13339087Y-108458746D01*
X13496248Y-108693952D01*
X17293384Y-112491088D01*
X17228596Y-112816800D01*
X17334297Y-113348194D01*
X17635308Y-113798688D01*
X18085802Y-114099699D01*
X18515398Y-114185151D01*
X18515398Y-114256458D01*
X18332147Y-114209936D01*
X17917030Y-114416730D01*
X17612649Y-114766641D01*
X17497548Y-115044549D01*
X17544590Y-115227800D01*
X18515400Y-115227800D01*
X18515400Y-115207800D01*
X18773400Y-115207800D01*
X18773400Y-115227800D01*
X19744210Y-115227800D01*
X19791252Y-115044549D01*
X19676151Y-114766641D01*
X19371770Y-114416730D01*
X18956653Y-114209936D01*
X18773402Y-114256458D01*
X18773402Y-114185151D01*
X19202998Y-114099699D01*
X19653492Y-113798688D01*
X19914400Y-113408212D01*
X20175308Y-113798688D01*
X20625802Y-114099699D01*
X21055398Y-114185151D01*
X21055398Y-114256458D01*
X20872147Y-114209936D01*
X20457030Y-114416730D01*
X20152649Y-114766641D01*
X20037548Y-115044549D01*
X20084590Y-115227800D01*
X21055400Y-115227800D01*
X21055400Y-115207800D01*
X21313400Y-115207800D01*
X21313400Y-115227800D01*
X21333400Y-115227800D01*
X21333400Y-115485800D01*
X21313400Y-115485800D01*
X21313400Y-115505800D01*
X21055400Y-115505800D01*
X21055400Y-115485800D01*
X20084590Y-115485800D01*
X20037548Y-115669051D01*
X20152649Y-115946959D01*
X20430525Y-116266400D01*
X19398275Y-116266400D01*
X19676151Y-115946959D01*
X19791252Y-115669051D01*
X19744210Y-115485800D01*
X18773400Y-115485800D01*
X18773400Y-115505800D01*
X18515400Y-115505800D01*
X18515400Y-115485800D01*
X17544590Y-115485800D01*
X17497548Y-115669051D01*
X17612649Y-115946959D01*
X17890525Y-116266400D01*
X15414105Y-116266400D01*
X12515400Y-113367696D01*
X12515400Y-103025300D01*
X12569402Y-103025300D01*
X12569402Y-102973052D01*
X12621650Y-103025300D01*
X12705047Y-103025300D01*
X12824498Y-102975821D01*
X12915922Y-102884397D01*
X12965400Y-102764946D01*
X12965400Y-102360550D01*
X12884150Y-102279300D01*
X12540400Y-102279300D01*
X12540400Y-102299300D01*
X12525685Y-102299300D01*
X12525685Y-102001300D01*
X12540400Y-102001300D01*
X12540400Y-102021300D01*
X12884150Y-102021300D01*
X12965400Y-101940050D01*
X12965400Y-101923704D01*
X13283900Y-102242205D01*
G36*
X2019861Y-44913504D02*
X1899988Y-45088944D01*
X1857815Y-45297200D01*
X1857815Y-46547200D01*
X1894423Y-46741753D01*
X2009404Y-46920439D01*
X2184844Y-47040312D01*
X2218100Y-47047047D01*
X2218100Y-47093544D01*
X2198547Y-47097223D01*
X2019861Y-47212204D01*
X1899988Y-47387644D01*
X1857815Y-47595900D01*
X1857815Y-48845900D01*
X1894423Y-49040453D01*
X2009404Y-49219139D01*
X2184844Y-49339012D01*
X2212700Y-49344653D01*
X2212700Y-53660845D01*
X2168368Y-53767608D01*
X2168032Y-54153299D01*
X2315318Y-54509760D01*
X2587805Y-54782723D01*
X2944008Y-54930632D01*
X3329699Y-54930968D01*
X3686160Y-54783682D01*
X3959123Y-54511195D01*
X4107032Y-54154992D01*
X4107368Y-53769301D01*
X4062700Y-53661196D01*
X4062700Y-49349272D01*
X4087653Y-49344577D01*
X4266339Y-49229596D01*
X4386212Y-49054156D01*
X4428385Y-48845900D01*
X4428385Y-47595900D01*
X4391777Y-47401347D01*
X4276796Y-47222661D01*
X4101356Y-47102788D01*
X4068100Y-47096053D01*
X4068100Y-47049556D01*
X4087653Y-47045877D01*
X4266339Y-46930896D01*
X4363375Y-46788879D01*
X4565400Y-46990905D01*
X4565400Y-47018011D01*
X4555115Y-47068800D01*
X4555115Y-48168800D01*
X4591723Y-48363353D01*
X4706704Y-48542039D01*
X4882144Y-48661912D01*
X5090400Y-48704085D01*
X5490400Y-48704085D01*
X5619989Y-48679701D01*
X5740400Y-48704085D01*
X6140400Y-48704085D01*
X6269989Y-48679701D01*
X6390400Y-48704085D01*
X6790400Y-48704085D01*
X6919989Y-48679701D01*
X7040400Y-48704085D01*
X7115611Y-48704085D01*
X6727748Y-49091948D01*
X6570587Y-49327154D01*
X6566294Y-49348739D01*
X6515400Y-49604600D01*
X6515400Y-52233515D01*
X6390400Y-52233515D01*
X6260811Y-52257899D01*
X6140400Y-52233515D01*
X5740400Y-52233515D01*
X5610811Y-52257899D01*
X5490400Y-52233515D01*
X5090400Y-52233515D01*
X4895847Y-52270123D01*
X4717161Y-52385104D01*
X4597288Y-52560544D01*
X4555115Y-52768800D01*
X4555115Y-53868800D01*
X4565400Y-53923460D01*
X4565400Y-69599600D01*
X4611431Y-69831015D01*
X4620587Y-69877046D01*
X4777748Y-70112252D01*
X5940384Y-71274889D01*
X5875596Y-71600600D01*
X5900151Y-71724046D01*
X-613502Y-65210394D01*
X-613502Y-48431150D01*
X-431900Y-48431150D01*
X-431900Y-48910547D01*
X-382421Y-49029998D01*
X-290997Y-49121422D01*
X-171546Y-49170900D01*
X432850Y-49170900D01*
X514100Y-49089650D01*
X514100Y-48349900D01*
X772100Y-48349900D01*
X772100Y-49089650D01*
X853350Y-49170900D01*
X1457746Y-49170900D01*
X1577197Y-49121422D01*
X1668621Y-49029998D01*
X1718100Y-48910547D01*
X1718100Y-48431150D01*
X1636850Y-48349900D01*
X772100Y-48349900D01*
X514100Y-48349900D01*
X-350650Y-48349900D01*
X-431900Y-48431150D01*
X-613502Y-48431150D01*
X-613502Y-47531253D01*
X-431900Y-47531253D01*
X-431900Y-48010650D01*
X-350650Y-48091900D01*
X514100Y-48091900D01*
X514100Y-47352150D01*
X772100Y-47352150D01*
X772100Y-48091900D01*
X1636850Y-48091900D01*
X1718100Y-48010650D01*
X1718100Y-47531253D01*
X1668621Y-47411802D01*
X1577197Y-47320378D01*
X1457746Y-47270900D01*
X853350Y-47270900D01*
X772100Y-47352150D01*
X514100Y-47352150D01*
X432850Y-47270900D01*
X-171546Y-47270900D01*
X-290997Y-47320378D01*
X-382421Y-47411802D01*
X-431900Y-47531253D01*
X-613502Y-47531253D01*
X-613502Y-46132450D01*
X-431900Y-46132450D01*
X-431900Y-46611847D01*
X-382421Y-46731298D01*
X-290997Y-46822722D01*
X-171546Y-46872200D01*
X432850Y-46872200D01*
X514100Y-46790950D01*
X514100Y-46051200D01*
X772100Y-46051200D01*
X772100Y-46790950D01*
X853350Y-46872200D01*
X1457746Y-46872200D01*
X1577197Y-46822722D01*
X1668621Y-46731298D01*
X1718100Y-46611847D01*
X1718100Y-46132450D01*
X1636850Y-46051200D01*
X772100Y-46051200D01*
X514100Y-46051200D01*
X-350650Y-46051200D01*
X-431900Y-46132450D01*
X-613502Y-46132450D01*
X-613502Y-45567906D01*
X-431900Y-45386304D01*
X-431900Y-45711950D01*
X-350650Y-45793200D01*
X514100Y-45793200D01*
X514100Y-45053450D01*
X772100Y-45053450D01*
X772100Y-45793200D01*
X1636850Y-45793200D01*
X1718100Y-45711950D01*
X1718100Y-45232553D01*
X1668621Y-45113102D01*
X1577197Y-45021678D01*
X1457746Y-44972200D01*
X853350Y-44972200D01*
X772100Y-45053450D01*
X514100Y-45053450D01*
X432850Y-44972200D01*
X-17795Y-44972200D01*
X47105Y-44907300D01*
X2029502Y-44907300D01*
X2019861Y-44913504D01*
X2019861Y-44913504D01*
G37*
X2019861Y-44913504D02*
X1899988Y-45088944D01*
X1857815Y-45297200D01*
X1857815Y-46547200D01*
X1894423Y-46741753D01*
X2009404Y-46920439D01*
X2184844Y-47040312D01*
X2218100Y-47047047D01*
X2218100Y-47093544D01*
X2198547Y-47097223D01*
X2019861Y-47212204D01*
X1899988Y-47387644D01*
X1857815Y-47595900D01*
X1857815Y-48845900D01*
X1894423Y-49040453D01*
X2009404Y-49219139D01*
X2184844Y-49339012D01*
X2212700Y-49344653D01*
X2212700Y-53660845D01*
X2168368Y-53767608D01*
X2168032Y-54153299D01*
X2315318Y-54509760D01*
X2587805Y-54782723D01*
X2944008Y-54930632D01*
X3329699Y-54930968D01*
X3686160Y-54783682D01*
X3959123Y-54511195D01*
X4107032Y-54154992D01*
X4107368Y-53769301D01*
X4062700Y-53661196D01*
X4062700Y-49349272D01*
X4087653Y-49344577D01*
X4266339Y-49229596D01*
X4386212Y-49054156D01*
X4428385Y-48845900D01*
X4428385Y-47595900D01*
X4391777Y-47401347D01*
X4276796Y-47222661D01*
X4101356Y-47102788D01*
X4068100Y-47096053D01*
X4068100Y-47049556D01*
X4087653Y-47045877D01*
X4266339Y-46930896D01*
X4363375Y-46788879D01*
X4565400Y-46990905D01*
X4565400Y-47018011D01*
X4555115Y-47068800D01*
X4555115Y-48168800D01*
X4591723Y-48363353D01*
X4706704Y-48542039D01*
X4882144Y-48661912D01*
X5090400Y-48704085D01*
X5490400Y-48704085D01*
X5619989Y-48679701D01*
X5740400Y-48704085D01*
X6140400Y-48704085D01*
X6269989Y-48679701D01*
X6390400Y-48704085D01*
X6790400Y-48704085D01*
X6919989Y-48679701D01*
X7040400Y-48704085D01*
X7115611Y-48704085D01*
X6727748Y-49091948D01*
X6570587Y-49327154D01*
X6566294Y-49348739D01*
X6515400Y-49604600D01*
X6515400Y-52233515D01*
X6390400Y-52233515D01*
X6260811Y-52257899D01*
X6140400Y-52233515D01*
X5740400Y-52233515D01*
X5610811Y-52257899D01*
X5490400Y-52233515D01*
X5090400Y-52233515D01*
X4895847Y-52270123D01*
X4717161Y-52385104D01*
X4597288Y-52560544D01*
X4555115Y-52768800D01*
X4555115Y-53868800D01*
X4565400Y-53923460D01*
X4565400Y-69599600D01*
X4611431Y-69831015D01*
X4620587Y-69877046D01*
X4777748Y-70112252D01*
X5940384Y-71274889D01*
X5875596Y-71600600D01*
X5900151Y-71724046D01*
X-613502Y-65210394D01*
X-613502Y-48431150D01*
X-431900Y-48431150D01*
X-431900Y-48910547D01*
X-382421Y-49029998D01*
X-290997Y-49121422D01*
X-171546Y-49170900D01*
X432850Y-49170900D01*
X514100Y-49089650D01*
X514100Y-48349900D01*
X772100Y-48349900D01*
X772100Y-49089650D01*
X853350Y-49170900D01*
X1457746Y-49170900D01*
X1577197Y-49121422D01*
X1668621Y-49029998D01*
X1718100Y-48910547D01*
X1718100Y-48431150D01*
X1636850Y-48349900D01*
X772100Y-48349900D01*
X514100Y-48349900D01*
X-350650Y-48349900D01*
X-431900Y-48431150D01*
X-613502Y-48431150D01*
X-613502Y-47531253D01*
X-431900Y-47531253D01*
X-431900Y-48010650D01*
X-350650Y-48091900D01*
X514100Y-48091900D01*
X514100Y-47352150D01*
X772100Y-47352150D01*
X772100Y-48091900D01*
X1636850Y-48091900D01*
X1718100Y-48010650D01*
X1718100Y-47531253D01*
X1668621Y-47411802D01*
X1577197Y-47320378D01*
X1457746Y-47270900D01*
X853350Y-47270900D01*
X772100Y-47352150D01*
X514100Y-47352150D01*
X432850Y-47270900D01*
X-171546Y-47270900D01*
X-290997Y-47320378D01*
X-382421Y-47411802D01*
X-431900Y-47531253D01*
X-613502Y-47531253D01*
X-613502Y-46132450D01*
X-431900Y-46132450D01*
X-431900Y-46611847D01*
X-382421Y-46731298D01*
X-290997Y-46822722D01*
X-171546Y-46872200D01*
X432850Y-46872200D01*
X514100Y-46790950D01*
X514100Y-46051200D01*
X772100Y-46051200D01*
X772100Y-46790950D01*
X853350Y-46872200D01*
X1457746Y-46872200D01*
X1577197Y-46822722D01*
X1668621Y-46731298D01*
X1718100Y-46611847D01*
X1718100Y-46132450D01*
X1636850Y-46051200D01*
X772100Y-46051200D01*
X514100Y-46051200D01*
X-350650Y-46051200D01*
X-431900Y-46132450D01*
X-613502Y-46132450D01*
X-613502Y-45567906D01*
X-431900Y-45386304D01*
X-431900Y-45711950D01*
X-350650Y-45793200D01*
X514100Y-45793200D01*
X514100Y-45053450D01*
X772100Y-45053450D01*
X772100Y-45793200D01*
X1636850Y-45793200D01*
X1718100Y-45711950D01*
X1718100Y-45232553D01*
X1668621Y-45113102D01*
X1577197Y-45021678D01*
X1457746Y-44972200D01*
X853350Y-44972200D01*
X772100Y-45053450D01*
X514100Y-45053450D01*
X432850Y-44972200D01*
X-17795Y-44972200D01*
X47105Y-44907300D01*
X2029502Y-44907300D01*
X2019861Y-44913504D01*
G36*
X6282308Y-67502488D02*
X6732802Y-67803499D01*
X7162398Y-67888951D01*
X7162398Y-67960258D01*
X6979147Y-67913736D01*
X6564030Y-68120530D01*
X6259649Y-68470441D01*
X6144548Y-68748349D01*
X6191590Y-68931600D01*
X7162400Y-68931600D01*
X7162400Y-68911600D01*
X7420400Y-68911600D01*
X7420400Y-68931600D01*
X8391210Y-68931600D01*
X8438252Y-68748349D01*
X8323151Y-68470441D01*
X8018770Y-68120530D01*
X7603653Y-67913736D01*
X7420402Y-67960258D01*
X7420402Y-67888951D01*
X7849998Y-67803499D01*
X8300492Y-67502488D01*
X8561400Y-67112012D01*
X8822308Y-67502488D01*
X9272802Y-67803499D01*
X9702398Y-67888951D01*
X9702398Y-67960258D01*
X9519147Y-67913736D01*
X9104030Y-68120530D01*
X8799649Y-68470441D01*
X8684548Y-68748349D01*
X8731590Y-68931600D01*
X9702400Y-68931600D01*
X9702400Y-68911600D01*
X9960400Y-68911600D01*
X9960400Y-68931600D01*
X10931210Y-68931600D01*
X10978252Y-68748349D01*
X10863151Y-68470441D01*
X10558770Y-68120530D01*
X10143653Y-67913736D01*
X9960402Y-67960258D01*
X9960402Y-67888951D01*
X10389998Y-67803499D01*
X10840492Y-67502488D01*
X11048700Y-67190883D01*
X11048700Y-70930317D01*
X10840492Y-70618712D01*
X10389998Y-70317701D01*
X9960402Y-70232249D01*
X9960402Y-70160942D01*
X10143653Y-70207464D01*
X10558770Y-70000670D01*
X10863151Y-69650759D01*
X10978252Y-69372851D01*
X10931210Y-69189600D01*
X9960400Y-69189600D01*
X9960400Y-69209600D01*
X9702400Y-69209600D01*
X9702400Y-69189600D01*
X8731590Y-69189600D01*
X8684548Y-69372851D01*
X8799649Y-69650759D01*
X9104030Y-70000670D01*
X9519147Y-70207464D01*
X9702398Y-70160942D01*
X9702398Y-70232249D01*
X9272802Y-70317701D01*
X8822308Y-70618712D01*
X8561400Y-71009188D01*
X8300492Y-70618712D01*
X7849998Y-70317701D01*
X7420402Y-70232249D01*
X7420402Y-70160942D01*
X7603653Y-70207464D01*
X8018770Y-70000670D01*
X8323151Y-69650759D01*
X8438252Y-69372851D01*
X8391210Y-69189600D01*
X7420400Y-69189600D01*
X7420400Y-69209600D01*
X7162400Y-69209600D01*
X7162400Y-69189600D01*
X6191590Y-69189600D01*
X6144548Y-69372851D01*
X6183851Y-69467747D01*
X6015400Y-69299296D01*
X6015400Y-67103033D01*
X6282308Y-67502488D01*
X6282308Y-67502488D01*
G37*
X6282308Y-67502488D02*
X6732802Y-67803499D01*
X7162398Y-67888951D01*
X7162398Y-67960258D01*
X6979147Y-67913736D01*
X6564030Y-68120530D01*
X6259649Y-68470441D01*
X6144548Y-68748349D01*
X6191590Y-68931600D01*
X7162400Y-68931600D01*
X7162400Y-68911600D01*
X7420400Y-68911600D01*
X7420400Y-68931600D01*
X8391210Y-68931600D01*
X8438252Y-68748349D01*
X8323151Y-68470441D01*
X8018770Y-68120530D01*
X7603653Y-67913736D01*
X7420402Y-67960258D01*
X7420402Y-67888951D01*
X7849998Y-67803499D01*
X8300492Y-67502488D01*
X8561400Y-67112012D01*
X8822308Y-67502488D01*
X9272802Y-67803499D01*
X9702398Y-67888951D01*
X9702398Y-67960258D01*
X9519147Y-67913736D01*
X9104030Y-68120530D01*
X8799649Y-68470441D01*
X8684548Y-68748349D01*
X8731590Y-68931600D01*
X9702400Y-68931600D01*
X9702400Y-68911600D01*
X9960400Y-68911600D01*
X9960400Y-68931600D01*
X10931210Y-68931600D01*
X10978252Y-68748349D01*
X10863151Y-68470441D01*
X10558770Y-68120530D01*
X10143653Y-67913736D01*
X9960402Y-67960258D01*
X9960402Y-67888951D01*
X10389998Y-67803499D01*
X10840492Y-67502488D01*
X11048700Y-67190883D01*
X11048700Y-70930317D01*
X10840492Y-70618712D01*
X10389998Y-70317701D01*
X9960402Y-70232249D01*
X9960402Y-70160942D01*
X10143653Y-70207464D01*
X10558770Y-70000670D01*
X10863151Y-69650759D01*
X10978252Y-69372851D01*
X10931210Y-69189600D01*
X9960400Y-69189600D01*
X9960400Y-69209600D01*
X9702400Y-69209600D01*
X9702400Y-69189600D01*
X8731590Y-69189600D01*
X8684548Y-69372851D01*
X8799649Y-69650759D01*
X9104030Y-70000670D01*
X9519147Y-70207464D01*
X9702398Y-70160942D01*
X9702398Y-70232249D01*
X9272802Y-70317701D01*
X8822308Y-70618712D01*
X8561400Y-71009188D01*
X8300492Y-70618712D01*
X7849998Y-70317701D01*
X7420402Y-70232249D01*
X7420402Y-70160942D01*
X7603653Y-70207464D01*
X8018770Y-70000670D01*
X8323151Y-69650759D01*
X8438252Y-69372851D01*
X8391210Y-69189600D01*
X7420400Y-69189600D01*
X7420400Y-69209600D01*
X7162400Y-69209600D01*
X7162400Y-69189600D01*
X6191590Y-69189600D01*
X6144548Y-69372851D01*
X6183851Y-69467747D01*
X6015400Y-69299296D01*
X6015400Y-67103033D01*
X6282308Y-67502488D01*
G36*
X14172900Y-54642605D02*
X14172900Y-55754295D01*
X12569402Y-54150798D01*
X12569402Y-54141552D01*
X12621650Y-54193800D01*
X12705047Y-54193800D01*
X12824498Y-54144321D01*
X12915922Y-54052897D01*
X12965400Y-53933446D01*
X12965400Y-53529050D01*
X12884152Y-53447802D01*
X12965400Y-53447802D01*
X12965400Y-53435104D01*
X14172900Y-54642605D01*
X14172900Y-54642605D01*
G37*
X14172900Y-54642605D02*
X14172900Y-55754295D01*
X12569402Y-54150798D01*
X12569402Y-54141552D01*
X12621650Y-54193800D01*
X12705047Y-54193800D01*
X12824498Y-54144321D01*
X12915922Y-54052897D01*
X12965400Y-53933446D01*
X12965400Y-53529050D01*
X12884152Y-53447802D01*
X12965400Y-53447802D01*
X12965400Y-53435104D01*
X14172900Y-54642605D01*
G36*
X23024800Y-38043705D02*
X23024800Y-45825095D01*
X22291949Y-46557946D01*
X22331252Y-46463051D01*
X22284210Y-46279800D01*
X21313400Y-46279800D01*
X21313400Y-46299800D01*
X21055400Y-46299800D01*
X21055400Y-46279800D01*
X20084590Y-46279800D01*
X20037548Y-46463051D01*
X20152649Y-46740959D01*
X20457030Y-47090870D01*
X20872147Y-47297664D01*
X21055398Y-47251142D01*
X21055398Y-47322449D01*
X20625802Y-47407901D01*
X20175308Y-47708912D01*
X19914400Y-48099388D01*
X19653492Y-47708912D01*
X19202998Y-47407901D01*
X18773402Y-47322449D01*
X18773402Y-47251142D01*
X18956653Y-47297664D01*
X19371770Y-47090870D01*
X19676151Y-46740959D01*
X19791252Y-46463051D01*
X19744210Y-46279800D01*
X18773400Y-46279800D01*
X18773400Y-46299800D01*
X18515400Y-46299800D01*
X18515400Y-46279800D01*
X17544590Y-46279800D01*
X17497548Y-46463051D01*
X17612649Y-46740959D01*
X17917030Y-47090870D01*
X18332147Y-47297664D01*
X18515398Y-47251142D01*
X18515398Y-47322449D01*
X18085802Y-47407901D01*
X17635308Y-47708912D01*
X17469950Y-47956388D01*
X13175685Y-47956388D01*
X13175685Y-47068800D01*
X13165400Y-47014140D01*
X13165400Y-41070800D01*
X17228596Y-41070800D01*
X17334297Y-41602194D01*
X17635308Y-42052688D01*
X18066497Y-42340800D01*
X17635308Y-42628912D01*
X17334297Y-43079406D01*
X17228596Y-43610800D01*
X17334297Y-44142194D01*
X17635308Y-44592688D01*
X18085802Y-44893699D01*
X18515398Y-44979151D01*
X18515398Y-45050458D01*
X18332147Y-45003936D01*
X17917030Y-45210730D01*
X17612649Y-45560641D01*
X17497548Y-45838549D01*
X17544590Y-46021800D01*
X18515400Y-46021800D01*
X18515400Y-46001800D01*
X18773400Y-46001800D01*
X18773400Y-46021800D01*
X19744210Y-46021800D01*
X19791252Y-45838549D01*
X19676151Y-45560641D01*
X19371770Y-45210730D01*
X18956653Y-45003936D01*
X18773402Y-45050458D01*
X18773402Y-44979151D01*
X19202998Y-44893699D01*
X19653492Y-44592688D01*
X19914400Y-44202212D01*
X20175308Y-44592688D01*
X20625802Y-44893699D01*
X21055398Y-44979151D01*
X21055398Y-45050458D01*
X20872147Y-45003936D01*
X20457030Y-45210730D01*
X20152649Y-45560641D01*
X20037548Y-45838549D01*
X20084590Y-46021800D01*
X21055400Y-46021800D01*
X21055400Y-46001800D01*
X21313400Y-46001800D01*
X21313400Y-46021800D01*
X22284210Y-46021800D01*
X22331252Y-45838549D01*
X22216151Y-45560641D01*
X21911770Y-45210730D01*
X21496653Y-45003936D01*
X21313402Y-45050458D01*
X21313402Y-44979151D01*
X21742998Y-44893699D01*
X22193492Y-44592688D01*
X22494503Y-44142194D01*
X22600204Y-43610800D01*
X22494503Y-43079406D01*
X22193492Y-42628912D01*
X21762303Y-42340800D01*
X22193492Y-42052688D01*
X22494503Y-41602194D01*
X22600204Y-41070800D01*
X22494503Y-40539406D01*
X22193492Y-40088912D01*
X21762303Y-39800800D01*
X22193492Y-39512688D01*
X22494503Y-39062194D01*
X22600204Y-38530800D01*
X22494503Y-37999406D01*
X22193492Y-37548912D01*
X21742998Y-37247901D01*
X21211604Y-37142200D01*
X21157196Y-37142200D01*
X20625802Y-37247901D01*
X20175308Y-37548912D01*
X20043285Y-37746498D01*
X20043285Y-37667200D01*
X20006677Y-37472647D01*
X19891696Y-37293961D01*
X19716256Y-37174088D01*
X19508000Y-37131915D01*
X17780800Y-37131915D01*
X17586247Y-37168523D01*
X17407561Y-37283504D01*
X17287688Y-37458944D01*
X17245515Y-37667200D01*
X17245515Y-39394400D01*
X17282123Y-39588953D01*
X17397104Y-39767639D01*
X17572544Y-39887512D01*
X17780800Y-39929685D01*
X17873608Y-39929685D01*
X17635308Y-40088912D01*
X17334297Y-40539406D01*
X17228596Y-41070800D01*
X13165400Y-41070800D01*
X13165400Y-37440504D01*
X13636105Y-36969800D01*
X21950896Y-36969800D01*
X23024800Y-38043705D01*
X23024800Y-38043705D01*
G37*
X23024800Y-38043705D02*
X23024800Y-45825095D01*
X22291949Y-46557946D01*
X22331252Y-46463051D01*
X22284210Y-46279800D01*
X21313400Y-46279800D01*
X21313400Y-46299800D01*
X21055400Y-46299800D01*
X21055400Y-46279800D01*
X20084590Y-46279800D01*
X20037548Y-46463051D01*
X20152649Y-46740959D01*
X20457030Y-47090870D01*
X20872147Y-47297664D01*
X21055398Y-47251142D01*
X21055398Y-47322449D01*
X20625802Y-47407901D01*
X20175308Y-47708912D01*
X19914400Y-48099388D01*
X19653492Y-47708912D01*
X19202998Y-47407901D01*
X18773402Y-47322449D01*
X18773402Y-47251142D01*
X18956653Y-47297664D01*
X19371770Y-47090870D01*
X19676151Y-46740959D01*
X19791252Y-46463051D01*
X19744210Y-46279800D01*
X18773400Y-46279800D01*
X18773400Y-46299800D01*
X18515400Y-46299800D01*
X18515400Y-46279800D01*
X17544590Y-46279800D01*
X17497548Y-46463051D01*
X17612649Y-46740959D01*
X17917030Y-47090870D01*
X18332147Y-47297664D01*
X18515398Y-47251142D01*
X18515398Y-47322449D01*
X18085802Y-47407901D01*
X17635308Y-47708912D01*
X17469950Y-47956388D01*
X13175685Y-47956388D01*
X13175685Y-47068800D01*
X13165400Y-47014140D01*
X13165400Y-41070800D01*
X17228596Y-41070800D01*
X17334297Y-41602194D01*
X17635308Y-42052688D01*
X18066497Y-42340800D01*
X17635308Y-42628912D01*
X17334297Y-43079406D01*
X17228596Y-43610800D01*
X17334297Y-44142194D01*
X17635308Y-44592688D01*
X18085802Y-44893699D01*
X18515398Y-44979151D01*
X18515398Y-45050458D01*
X18332147Y-45003936D01*
X17917030Y-45210730D01*
X17612649Y-45560641D01*
X17497548Y-45838549D01*
X17544590Y-46021800D01*
X18515400Y-46021800D01*
X18515400Y-46001800D01*
X18773400Y-46001800D01*
X18773400Y-46021800D01*
X19744210Y-46021800D01*
X19791252Y-45838549D01*
X19676151Y-45560641D01*
X19371770Y-45210730D01*
X18956653Y-45003936D01*
X18773402Y-45050458D01*
X18773402Y-44979151D01*
X19202998Y-44893699D01*
X19653492Y-44592688D01*
X19914400Y-44202212D01*
X20175308Y-44592688D01*
X20625802Y-44893699D01*
X21055398Y-44979151D01*
X21055398Y-45050458D01*
X20872147Y-45003936D01*
X20457030Y-45210730D01*
X20152649Y-45560641D01*
X20037548Y-45838549D01*
X20084590Y-46021800D01*
X21055400Y-46021800D01*
X21055400Y-46001800D01*
X21313400Y-46001800D01*
X21313400Y-46021800D01*
X22284210Y-46021800D01*
X22331252Y-45838549D01*
X22216151Y-45560641D01*
X21911770Y-45210730D01*
X21496653Y-45003936D01*
X21313402Y-45050458D01*
X21313402Y-44979151D01*
X21742998Y-44893699D01*
X22193492Y-44592688D01*
X22494503Y-44142194D01*
X22600204Y-43610800D01*
X22494503Y-43079406D01*
X22193492Y-42628912D01*
X21762303Y-42340800D01*
X22193492Y-42052688D01*
X22494503Y-41602194D01*
X22600204Y-41070800D01*
X22494503Y-40539406D01*
X22193492Y-40088912D01*
X21762303Y-39800800D01*
X22193492Y-39512688D01*
X22494503Y-39062194D01*
X22600204Y-38530800D01*
X22494503Y-37999406D01*
X22193492Y-37548912D01*
X21742998Y-37247901D01*
X21211604Y-37142200D01*
X21157196Y-37142200D01*
X20625802Y-37247901D01*
X20175308Y-37548912D01*
X20043285Y-37746498D01*
X20043285Y-37667200D01*
X20006677Y-37472647D01*
X19891696Y-37293961D01*
X19716256Y-37174088D01*
X19508000Y-37131915D01*
X17780800Y-37131915D01*
X17586247Y-37168523D01*
X17407561Y-37283504D01*
X17287688Y-37458944D01*
X17245515Y-37667200D01*
X17245515Y-39394400D01*
X17282123Y-39588953D01*
X17397104Y-39767639D01*
X17572544Y-39887512D01*
X17780800Y-39929685D01*
X17873608Y-39929685D01*
X17635308Y-40088912D01*
X17334297Y-40539406D01*
X17228596Y-41070800D01*
X13165400Y-41070800D01*
X13165400Y-37440504D01*
X13636105Y-36969800D01*
X21950896Y-36969800D01*
X23024800Y-38043705D01*
M02*
