G04 #@! TF.FileFunction,Copper,L2,Bot,Signal*
%FSLAX46Y46*%
G04 Gerber Fmt 4.6, Leading zero omitted, Abs format (unit mm)*
G04 Created by KiCad (PCBNEW 4.0.5+dfsg1-4) date Tue Feb 27 09:26:50 2018*
%MOMM*%
%LPD*%
G01*
G04 APERTURE LIST*
%ADD10C,0.150000*%
%ADD11R,1.727200X1.727200*%
%ADD12O,1.727200X1.727200*%
%ADD13C,3.000000*%
%ADD14C,5.500000*%
%ADD15R,2.235200X2.235200*%
%ADD16R,2.032000X1.727200*%
%ADD17O,2.032000X1.727200*%
%ADD18C,0.889000*%
%ADD19C,0.250000*%
%ADD20C,0.400000*%
%ADD21C,0.800000*%
G04 APERTURE END LIST*
D10*
D11*
X18644400Y-38530800D03*
D12*
X21184400Y-38530800D03*
X18644400Y-41070800D03*
X21184400Y-41070800D03*
X18644400Y-43610800D03*
X21184400Y-43610800D03*
X18644400Y-46150800D03*
X21184400Y-46150800D03*
X18644400Y-48690800D03*
X21184400Y-48690800D03*
X18644400Y-51230800D03*
X21184400Y-51230800D03*
X18644400Y-53770800D03*
X21184400Y-53770800D03*
X18644400Y-56310800D03*
X21184400Y-56310800D03*
X18644400Y-58850800D03*
X21184400Y-58850800D03*
X18644400Y-61390800D03*
X21184400Y-61390800D03*
X18644400Y-63930800D03*
X21184400Y-63930800D03*
X18644400Y-66470800D03*
X21184400Y-66470800D03*
X18644400Y-69010800D03*
X21184400Y-69010800D03*
D11*
X7291400Y-61440600D03*
D12*
X9831400Y-61440600D03*
X7291400Y-63980600D03*
X9831400Y-63980600D03*
X7291400Y-66520600D03*
X9831400Y-66520600D03*
X7291400Y-69060600D03*
X9831400Y-69060600D03*
X7291400Y-71600600D03*
X9831400Y-71600600D03*
X7291400Y-74140600D03*
X9831400Y-74140600D03*
X7291400Y-76680600D03*
X9831400Y-76680600D03*
X7291400Y-79220600D03*
X9831400Y-79220600D03*
X7291400Y-81760600D03*
X9831400Y-81760600D03*
X7291400Y-84300600D03*
X9831400Y-84300600D03*
X7291400Y-86840600D03*
X9831400Y-86840600D03*
X7291400Y-89380600D03*
X9831400Y-89380600D03*
X7291400Y-91920600D03*
X9831400Y-91920600D03*
D11*
X18644400Y-92496800D03*
D12*
X21184400Y-92496800D03*
X18644400Y-95036800D03*
X21184400Y-95036800D03*
X18644400Y-97576800D03*
X21184400Y-97576800D03*
X18644400Y-100116800D03*
X21184400Y-100116800D03*
X18644400Y-102656800D03*
X21184400Y-102656800D03*
X18644400Y-105196800D03*
X21184400Y-105196800D03*
X18644400Y-107736800D03*
X21184400Y-107736800D03*
X18644400Y-110276800D03*
X21184400Y-110276800D03*
X18644400Y-112816800D03*
X21184400Y-112816800D03*
X18644400Y-115356800D03*
X21184400Y-115356800D03*
D13*
X-10835600Y-121167800D03*
X-10835600Y-32167800D03*
D14*
X-16500Y-120825800D03*
X127834400Y-121167800D03*
X-16500Y-32509800D03*
D15*
X-5320500Y-41134300D03*
X-4152100Y-109968300D03*
D16*
X118570400Y-103047800D03*
D17*
X118570400Y-100507800D03*
X118570400Y-97967800D03*
D16*
X48360000Y-50290000D03*
D17*
X48360000Y-52830000D03*
X48360000Y-55370000D03*
D15*
X171082500Y-43369500D03*
X172250900Y-112203500D03*
D14*
X166946900Y-120828000D03*
X39096000Y-32170000D03*
X166946900Y-32512000D03*
D13*
X177766000Y-121170000D03*
X177766000Y-32170000D03*
D11*
X148286000Y-60841000D03*
D12*
X145746000Y-60841000D03*
X148286000Y-58301000D03*
X145746000Y-58301000D03*
X148286000Y-55761000D03*
X145746000Y-55761000D03*
X148286000Y-53221000D03*
X145746000Y-53221000D03*
X148286000Y-50681000D03*
X145746000Y-50681000D03*
X148286000Y-48141000D03*
X145746000Y-48141000D03*
X148286000Y-45601000D03*
X145746000Y-45601000D03*
X148286000Y-43061000D03*
X145746000Y-43061000D03*
X148286000Y-40521000D03*
X145746000Y-40521000D03*
X148286000Y-37981000D03*
X145746000Y-37981000D03*
D11*
X159639000Y-91897200D03*
D12*
X157099000Y-91897200D03*
X159639000Y-89357200D03*
X157099000Y-89357200D03*
X159639000Y-86817200D03*
X157099000Y-86817200D03*
X159639000Y-84277200D03*
X157099000Y-84277200D03*
X159639000Y-81737200D03*
X157099000Y-81737200D03*
X159639000Y-79197200D03*
X157099000Y-79197200D03*
X159639000Y-76657200D03*
X157099000Y-76657200D03*
X159639000Y-74117200D03*
X157099000Y-74117200D03*
X159639000Y-71577200D03*
X157099000Y-71577200D03*
X159639000Y-69037200D03*
X157099000Y-69037200D03*
X159639000Y-66497200D03*
X157099000Y-66497200D03*
X159639000Y-63957200D03*
X157099000Y-63957200D03*
X159639000Y-61417200D03*
X157099000Y-61417200D03*
D11*
X148286000Y-114807000D03*
D12*
X145746000Y-114807000D03*
X148286000Y-112267000D03*
X145746000Y-112267000D03*
X148286000Y-109727000D03*
X145746000Y-109727000D03*
X148286000Y-107187000D03*
X145746000Y-107187000D03*
X148286000Y-104647000D03*
X145746000Y-104647000D03*
X148286000Y-102107000D03*
X145746000Y-102107000D03*
X148286000Y-99567000D03*
X145746000Y-99567000D03*
X148286000Y-97027000D03*
X145746000Y-97027000D03*
X148286000Y-94487000D03*
X145746000Y-94487000D03*
X148286000Y-91947000D03*
X145746000Y-91947000D03*
X148286000Y-89407000D03*
X145746000Y-89407000D03*
X148286000Y-86867000D03*
X145746000Y-86867000D03*
X148286000Y-84327000D03*
X145746000Y-84327000D03*
D18*
X13894600Y-46150800D03*
X27191500Y-92505800D03*
X12904000Y-104380300D03*
X13640600Y-54824900D03*
X648500Y-50494200D03*
X-1713700Y-101192600D03*
X168644100Y-52145200D03*
X166281900Y-102843600D03*
X153289800Y-98512900D03*
X154026400Y-48957500D03*
X139738900Y-60832000D03*
X153035800Y-107187000D03*
X33084300Y-119810800D03*
X775500Y-101192600D03*
X3137700Y-53961300D03*
X163792700Y-99376500D03*
X166154900Y-52145200D03*
X133846100Y-33527000D03*
X4407700Y-103834200D03*
X162522700Y-49503600D03*
X5411000Y-104418400D03*
X161519400Y-48919400D03*
X6300000Y-105116900D03*
X160630400Y-48220900D03*
D19*
X18644400Y-47319200D02*
X18644400Y-46150800D01*
X21184400Y-47319200D02*
X18644400Y-47319200D01*
X21184400Y-46150800D02*
X21184400Y-47319200D01*
X18644400Y-114184700D02*
X21184400Y-114184700D01*
X21184400Y-114184700D02*
X21184400Y-114489500D01*
X18644400Y-115356800D02*
X18644400Y-114184700D01*
X21184400Y-92496800D02*
X21184400Y-93674200D01*
X18657100Y-92509500D02*
X18644400Y-92496800D01*
X21184400Y-93674200D02*
X18657100Y-93674200D01*
X18657100Y-93674200D02*
X18657100Y-92509500D01*
X18657100Y-93674200D02*
X18403100Y-93674200D01*
X9829800Y-69062200D02*
X9831400Y-69060600D01*
X9829800Y-70216500D02*
X9829800Y-69062200D01*
X7291400Y-70216500D02*
X9829800Y-70216500D01*
X7291400Y-69060600D02*
X7291400Y-70216500D01*
X7290600Y-68198000D02*
X7291400Y-69060600D01*
X7291400Y-68197200D02*
X7290600Y-68198000D01*
X7291400Y-68197200D02*
X7291400Y-69060600D01*
X9831400Y-67906700D02*
X7291400Y-67906700D01*
X7291400Y-67906700D02*
X7291400Y-68197200D01*
X9831400Y-69060600D02*
X9831400Y-67906700D01*
X157099000Y-84277200D02*
X157099000Y-85431100D01*
X159639000Y-85431100D02*
X159639000Y-85140600D01*
X157099000Y-85431100D02*
X159639000Y-85431100D01*
X159639000Y-85140600D02*
X159639000Y-84277200D01*
X159639000Y-85140600D02*
X159639800Y-85139800D01*
X159639800Y-85139800D02*
X159639000Y-84277200D01*
X159639000Y-84277200D02*
X159639000Y-83121300D01*
X159639000Y-83121300D02*
X157100600Y-83121300D01*
X157100600Y-83121300D02*
X157100600Y-84275600D01*
X157100600Y-84275600D02*
X157099000Y-84277200D01*
X148273300Y-59663600D02*
X148527300Y-59663600D01*
X148273300Y-59663600D02*
X148273300Y-60828300D01*
X145746000Y-59663600D02*
X148273300Y-59663600D01*
X148273300Y-60828300D02*
X148286000Y-60841000D01*
X145746000Y-60841000D02*
X145746000Y-59663600D01*
X148286000Y-37981000D02*
X148286000Y-39153100D01*
X145746000Y-39153100D02*
X145746000Y-38848300D01*
X148286000Y-39153100D02*
X145746000Y-39153100D01*
X145746000Y-107187000D02*
X145746000Y-106018600D01*
X145746000Y-106018600D02*
X148286000Y-106018600D01*
X148286000Y-106018600D02*
X148286000Y-107187000D01*
D20*
X7291400Y-61440600D02*
X7291400Y-40612800D01*
X7291400Y-40612800D02*
X9373400Y-38530800D01*
X9373400Y-38530800D02*
X18644400Y-38530800D01*
X157557000Y-114807000D02*
X148286000Y-114807000D01*
X159639000Y-112725000D02*
X157557000Y-114807000D01*
X159639000Y-91897200D02*
X159639000Y-112725000D01*
X11811800Y-42340800D02*
X19254000Y-42340800D01*
X9831400Y-44321200D02*
X11811800Y-42340800D01*
X9831400Y-61440600D02*
X9831400Y-44321200D01*
X19914400Y-39800800D02*
X21184400Y-38530800D01*
X19914400Y-41680400D02*
X19914400Y-39800800D01*
X19254000Y-42340800D02*
X19914400Y-41680400D01*
X147676400Y-110997000D02*
X147016000Y-111657400D01*
X147016000Y-111657400D02*
X147016000Y-113537000D01*
X147016000Y-113537000D02*
X145746000Y-114807000D01*
X157099000Y-91897200D02*
X157099000Y-109016600D01*
X157099000Y-109016600D02*
X155118600Y-110997000D01*
X155118600Y-110997000D02*
X147676400Y-110997000D01*
X18644400Y-41070800D02*
X10364000Y-41070800D01*
X8560600Y-62711400D02*
X7291400Y-63980600D01*
X8560600Y-42874200D02*
X10364000Y-41070800D01*
X8560600Y-42874200D02*
X8560600Y-62711400D01*
X158369800Y-110463600D02*
X158369800Y-90626400D01*
X158369800Y-110463600D02*
X156566400Y-112267000D01*
X158369800Y-90626400D02*
X159639000Y-89357200D01*
X148286000Y-112267000D02*
X156566400Y-112267000D01*
X21184400Y-41070800D02*
X22860800Y-42747200D01*
X22860800Y-44220400D02*
X22860800Y-42747200D01*
X22187700Y-44893500D02*
X22860800Y-44220400D01*
X11329200Y-62482800D02*
X9831400Y-63980600D01*
X13069100Y-44893500D02*
X22187700Y-44893500D01*
X11329200Y-46633400D02*
X13069100Y-44893500D01*
X11329200Y-46633400D02*
X11329200Y-62482800D01*
X155601200Y-106704400D02*
X155601200Y-90855000D01*
X155601200Y-106704400D02*
X153861300Y-108444300D01*
X153861300Y-108444300D02*
X144742700Y-108444300D01*
X155601200Y-90855000D02*
X157099000Y-89357200D01*
X144742700Y-108444300D02*
X144069600Y-109117400D01*
X144069600Y-109117400D02*
X144069600Y-110590600D01*
X145746000Y-112267000D02*
X144069600Y-110590600D01*
D21*
X33084300Y-119810800D02*
X8459000Y-119810800D01*
X775500Y-112127300D02*
X775500Y-101192600D01*
X8459000Y-119810800D02*
X775500Y-112127300D01*
X775500Y-101192600D02*
X775500Y-57834800D01*
X3137700Y-55472600D02*
X3137700Y-53961300D01*
X775500Y-57834800D02*
X3137700Y-55472600D01*
X166154900Y-95503000D02*
X163792700Y-97865200D01*
X163792700Y-97865200D02*
X163792700Y-99376500D01*
X166154900Y-52145200D02*
X166154900Y-95503000D01*
X158471400Y-33527000D02*
X166154900Y-41210500D01*
X166154900Y-41210500D02*
X166154900Y-52145200D01*
X133846100Y-33527000D02*
X158471400Y-33527000D01*
D20*
X4407700Y-103834200D02*
X5157000Y-103084900D01*
X5157000Y-103084900D02*
X5157000Y-86435000D01*
X5157000Y-86435000D02*
X7291400Y-84300600D01*
X161773400Y-66902800D02*
X159639000Y-69037200D01*
X161773400Y-50252900D02*
X161773400Y-66902800D01*
X162522700Y-49503600D02*
X161773400Y-50252900D01*
X11938800Y-76248000D02*
X11938800Y-97890600D01*
X5411000Y-104418400D02*
X11938800Y-97890600D01*
X9831400Y-74140600D02*
X11938800Y-76248000D01*
X157099000Y-79197200D02*
X154991600Y-77089800D01*
X161519400Y-48919400D02*
X154991600Y-55447200D01*
X154991600Y-77089800D02*
X154991600Y-55447200D01*
X13208800Y-98208100D02*
X13208800Y-74978000D01*
X9831400Y-71600600D02*
X13208800Y-74978000D01*
X6300000Y-105116900D02*
X13208800Y-98208100D01*
X160630400Y-48220900D02*
X153721600Y-55129700D01*
X157099000Y-81737200D02*
X153721600Y-78359800D01*
X153721600Y-55129700D02*
X153721600Y-78359800D01*
D19*
G36*
X37482490Y-29293133D02*
X37243285Y-29391971D01*
X36321209Y-30312439D01*
X35821570Y-31515704D01*
X35820433Y-32818580D01*
X36317971Y-34022715D01*
X37238439Y-34944791D01*
X38441704Y-35444430D01*
X39744580Y-35445567D01*
X40948715Y-34948029D01*
X41870791Y-34027561D01*
X41998917Y-33718999D01*
X132876432Y-33718999D01*
X133023718Y-34075460D01*
X133296205Y-34348423D01*
X133652408Y-34496332D01*
X134038099Y-34496668D01*
X134146204Y-34452000D01*
X158088252Y-34452000D01*
X165229900Y-41593648D01*
X165229900Y-51844745D01*
X165185568Y-51951508D01*
X165185232Y-52337199D01*
X165229900Y-52445304D01*
X165229900Y-95119852D01*
X163138626Y-97211126D01*
X162938111Y-97511217D01*
X162928727Y-97558394D01*
X162867700Y-97865200D01*
X162867700Y-99076045D01*
X162823368Y-99182808D01*
X162823032Y-99568499D01*
X162970318Y-99924960D01*
X163242805Y-100197923D01*
X163599008Y-100345832D01*
X163984699Y-100346168D01*
X164341160Y-100198882D01*
X164614123Y-99926395D01*
X164762032Y-99570192D01*
X164762368Y-99184501D01*
X164717700Y-99076396D01*
X164717700Y-98248348D01*
X166808974Y-96157074D01*
X167009489Y-95856983D01*
X167079900Y-95503000D01*
X167079900Y-52445655D01*
X167124232Y-52338892D01*
X167124568Y-51953201D01*
X167079900Y-51845096D01*
X167079900Y-43579750D01*
X169639900Y-43579750D01*
X169639900Y-44551747D01*
X169689379Y-44671198D01*
X169780803Y-44762622D01*
X169900254Y-44812100D01*
X170872250Y-44812100D01*
X170953500Y-44730850D01*
X170953500Y-43498500D01*
X171211500Y-43498500D01*
X171211500Y-44730850D01*
X171292750Y-44812100D01*
X172264746Y-44812100D01*
X172384197Y-44762622D01*
X172475621Y-44671198D01*
X172525100Y-44551747D01*
X172525100Y-43579750D01*
X172443850Y-43498500D01*
X171211500Y-43498500D01*
X170953500Y-43498500D01*
X169721150Y-43498500D01*
X169639900Y-43579750D01*
X167079900Y-43579750D01*
X167079900Y-42187253D01*
X169639900Y-42187253D01*
X169639900Y-43159250D01*
X169721150Y-43240500D01*
X170953500Y-43240500D01*
X170953500Y-42008150D01*
X171211500Y-42008150D01*
X171211500Y-43240500D01*
X172443850Y-43240500D01*
X172525100Y-43159250D01*
X172525100Y-42187253D01*
X172475621Y-42067802D01*
X172384197Y-41976378D01*
X172264746Y-41926900D01*
X171292750Y-41926900D01*
X171211500Y-42008150D01*
X170953500Y-42008150D01*
X170872250Y-41926900D01*
X169900254Y-41926900D01*
X169780803Y-41976378D01*
X169689379Y-42067802D01*
X169639900Y-42187253D01*
X167079900Y-42187253D01*
X167079900Y-41210500D01*
X167040135Y-41010587D01*
X167009489Y-40856517D01*
X166808974Y-40556426D01*
X159125474Y-32872926D01*
X158825383Y-32672411D01*
X158471400Y-32602000D01*
X134146555Y-32602000D01*
X134039792Y-32557668D01*
X133654101Y-32557332D01*
X133297640Y-32704618D01*
X133024677Y-32977105D01*
X132876768Y-33333308D01*
X132876432Y-33718999D01*
X41998917Y-33718999D01*
X42370430Y-32824296D01*
X42371567Y-31521420D01*
X41874029Y-30317285D01*
X40953561Y-29395209D01*
X40707836Y-29293175D01*
X166157055Y-29294803D01*
X165094185Y-29733971D01*
X164172109Y-30654439D01*
X163672470Y-31857704D01*
X163671333Y-33160580D01*
X164168871Y-34364715D01*
X165089339Y-35286791D01*
X166292604Y-35786430D01*
X167595480Y-35787567D01*
X168799615Y-35290029D01*
X169721691Y-34369561D01*
X170221330Y-33166296D01*
X170221849Y-32571030D01*
X175740649Y-32571030D01*
X176048288Y-33315572D01*
X176617432Y-33885710D01*
X177361435Y-34194648D01*
X178167030Y-34195351D01*
X178911572Y-33887712D01*
X179481710Y-33318568D01*
X179790648Y-32574565D01*
X179791351Y-31768970D01*
X179483712Y-31024428D01*
X178914568Y-30454290D01*
X178170565Y-30145352D01*
X177364970Y-30144649D01*
X176620428Y-30452288D01*
X176050290Y-31021432D01*
X175741352Y-31765435D01*
X175740649Y-32571030D01*
X170221849Y-32571030D01*
X170222467Y-31863420D01*
X169724929Y-30659285D01*
X168804461Y-29737209D01*
X167739077Y-29294823D01*
X180711000Y-29294991D01*
X180711000Y-124045000D01*
X167737223Y-124045000D01*
X168799615Y-123606029D01*
X169721691Y-122685561D01*
X170184484Y-121571030D01*
X175740649Y-121571030D01*
X176048288Y-122315572D01*
X176617432Y-122885710D01*
X177361435Y-123194648D01*
X178167030Y-123195351D01*
X178911572Y-122887712D01*
X179481710Y-122318568D01*
X179790648Y-121574565D01*
X179791351Y-120768970D01*
X179483712Y-120024428D01*
X178914568Y-119454290D01*
X178170565Y-119145352D01*
X177364970Y-119144649D01*
X176620428Y-119452288D01*
X176050290Y-120021432D01*
X175741352Y-120765435D01*
X175740649Y-121571030D01*
X170184484Y-121571030D01*
X170221330Y-121482296D01*
X170222467Y-120179420D01*
X169724929Y-118975285D01*
X168804461Y-118053209D01*
X167601196Y-117553570D01*
X166298320Y-117552433D01*
X165094185Y-118049971D01*
X164172109Y-118970439D01*
X163672470Y-120173704D01*
X163671333Y-121476580D01*
X164168871Y-122680715D01*
X165089339Y-123602791D01*
X166154297Y-124045000D01*
X155107160Y-124045000D01*
X155096000Y-124042900D01*
X136961000Y-124042900D01*
X136961000Y-109117400D01*
X143344600Y-109117400D01*
X143344600Y-110590600D01*
X143378475Y-110760900D01*
X143399787Y-110868046D01*
X143556948Y-111103252D01*
X144394984Y-111941289D01*
X144330196Y-112267000D01*
X144435897Y-112798394D01*
X144736908Y-113248888D01*
X145168097Y-113537000D01*
X144736908Y-113825112D01*
X144435897Y-114275606D01*
X144330196Y-114807000D01*
X144435897Y-115338394D01*
X144736908Y-115788888D01*
X145187402Y-116089899D01*
X145718796Y-116195600D01*
X145773204Y-116195600D01*
X146304598Y-116089899D01*
X146755092Y-115788888D01*
X146887115Y-115591302D01*
X146887115Y-115670600D01*
X146923723Y-115865153D01*
X147038704Y-116043839D01*
X147214144Y-116163712D01*
X147422400Y-116205885D01*
X149149600Y-116205885D01*
X149344153Y-116169277D01*
X149522839Y-116054296D01*
X149642712Y-115878856D01*
X149684885Y-115670600D01*
X149684885Y-115532000D01*
X157557000Y-115532000D01*
X157789264Y-115485800D01*
X157834446Y-115476813D01*
X158069652Y-115319652D01*
X160151653Y-113237652D01*
X160308813Y-113002446D01*
X160364000Y-112725000D01*
X160364000Y-112413750D01*
X170808300Y-112413750D01*
X170808300Y-113385747D01*
X170857779Y-113505198D01*
X170949203Y-113596622D01*
X171068654Y-113646100D01*
X172040650Y-113646100D01*
X172121900Y-113564850D01*
X172121900Y-112332500D01*
X172379900Y-112332500D01*
X172379900Y-113564850D01*
X172461150Y-113646100D01*
X173433146Y-113646100D01*
X173552597Y-113596622D01*
X173644021Y-113505198D01*
X173693500Y-113385747D01*
X173693500Y-112413750D01*
X173612250Y-112332500D01*
X172379900Y-112332500D01*
X172121900Y-112332500D01*
X170889550Y-112332500D01*
X170808300Y-112413750D01*
X160364000Y-112413750D01*
X160364000Y-111021253D01*
X170808300Y-111021253D01*
X170808300Y-111993250D01*
X170889550Y-112074500D01*
X172121900Y-112074500D01*
X172121900Y-110842150D01*
X172379900Y-110842150D01*
X172379900Y-112074500D01*
X173612250Y-112074500D01*
X173693500Y-111993250D01*
X173693500Y-111021253D01*
X173644021Y-110901802D01*
X173552597Y-110810378D01*
X173433146Y-110760900D01*
X172461150Y-110760900D01*
X172379900Y-110842150D01*
X172121900Y-110842150D01*
X172040650Y-110760900D01*
X171068654Y-110760900D01*
X170949203Y-110810378D01*
X170857779Y-110901802D01*
X170808300Y-111021253D01*
X160364000Y-111021253D01*
X160364000Y-93296085D01*
X160502600Y-93296085D01*
X160697153Y-93259477D01*
X160875839Y-93144496D01*
X160995712Y-92969056D01*
X161037885Y-92760800D01*
X161037885Y-91033600D01*
X161001277Y-90839047D01*
X160886296Y-90660361D01*
X160710856Y-90540488D01*
X160502600Y-90498315D01*
X160409792Y-90498315D01*
X160648092Y-90339088D01*
X160949103Y-89888594D01*
X161054804Y-89357200D01*
X160949103Y-88825806D01*
X160648092Y-88375312D01*
X160216903Y-88087200D01*
X160648092Y-87799088D01*
X160949103Y-87348594D01*
X161054804Y-86817200D01*
X160949103Y-86285806D01*
X160648092Y-85835312D01*
X160197598Y-85534301D01*
X159768002Y-85448849D01*
X159768002Y-85377542D01*
X159951253Y-85424064D01*
X160366370Y-85217270D01*
X160670751Y-84867359D01*
X160785852Y-84589451D01*
X160738810Y-84406200D01*
X159768000Y-84406200D01*
X159768000Y-84426200D01*
X159510000Y-84426200D01*
X159510000Y-84406200D01*
X158539190Y-84406200D01*
X158492148Y-84589451D01*
X158607249Y-84867359D01*
X158911630Y-85217270D01*
X159326747Y-85424064D01*
X159509998Y-85377542D01*
X159509998Y-85448849D01*
X159080402Y-85534301D01*
X158629908Y-85835312D01*
X158369000Y-86225788D01*
X158108092Y-85835312D01*
X157657598Y-85534301D01*
X157228002Y-85448849D01*
X157228002Y-85377542D01*
X157411253Y-85424064D01*
X157826370Y-85217270D01*
X158130751Y-84867359D01*
X158245852Y-84589451D01*
X158198810Y-84406200D01*
X157228000Y-84406200D01*
X157228000Y-84426200D01*
X156970000Y-84426200D01*
X156970000Y-84406200D01*
X155999190Y-84406200D01*
X155952148Y-84589451D01*
X156067249Y-84867359D01*
X156371630Y-85217270D01*
X156786747Y-85424064D01*
X156969998Y-85377542D01*
X156969998Y-85448849D01*
X156540402Y-85534301D01*
X156089908Y-85835312D01*
X155788897Y-86285806D01*
X155683196Y-86817200D01*
X155788897Y-87348594D01*
X156089908Y-87799088D01*
X156521097Y-88087200D01*
X156089908Y-88375312D01*
X155788897Y-88825806D01*
X155683196Y-89357200D01*
X155747984Y-89682912D01*
X155088548Y-90342348D01*
X154931387Y-90577554D01*
X154931387Y-90577555D01*
X154876200Y-90855000D01*
X154876200Y-106404095D01*
X153560996Y-107719300D01*
X149341714Y-107719300D01*
X149432852Y-107499251D01*
X149385810Y-107316000D01*
X148415000Y-107316000D01*
X148415000Y-107336000D01*
X148157000Y-107336000D01*
X148157000Y-107316000D01*
X147186190Y-107316000D01*
X147139148Y-107499251D01*
X147230286Y-107719300D01*
X146801714Y-107719300D01*
X146892852Y-107499251D01*
X146845810Y-107316000D01*
X145875000Y-107316000D01*
X145875000Y-107336000D01*
X145617000Y-107336000D01*
X145617000Y-107316000D01*
X144646190Y-107316000D01*
X144599148Y-107499251D01*
X144694275Y-107728932D01*
X144465255Y-107774487D01*
X144387208Y-107826637D01*
X144230047Y-107931648D01*
X143556948Y-108604748D01*
X143399787Y-108839954D01*
X143399787Y-108839955D01*
X143344600Y-109117400D01*
X136961000Y-109117400D01*
X136961000Y-84327000D01*
X144330196Y-84327000D01*
X144435897Y-84858394D01*
X144736908Y-85308888D01*
X145168097Y-85597000D01*
X144736908Y-85885112D01*
X144435897Y-86335606D01*
X144330196Y-86867000D01*
X144435897Y-87398394D01*
X144736908Y-87848888D01*
X145168097Y-88137000D01*
X144736908Y-88425112D01*
X144435897Y-88875606D01*
X144330196Y-89407000D01*
X144435897Y-89938394D01*
X144736908Y-90388888D01*
X145168097Y-90677000D01*
X144736908Y-90965112D01*
X144435897Y-91415606D01*
X144330196Y-91947000D01*
X144435897Y-92478394D01*
X144736908Y-92928888D01*
X145168097Y-93217000D01*
X144736908Y-93505112D01*
X144435897Y-93955606D01*
X144330196Y-94487000D01*
X144435897Y-95018394D01*
X144736908Y-95468888D01*
X145168097Y-95757000D01*
X144736908Y-96045112D01*
X144435897Y-96495606D01*
X144330196Y-97027000D01*
X144435897Y-97558394D01*
X144736908Y-98008888D01*
X145168097Y-98297000D01*
X144736908Y-98585112D01*
X144435897Y-99035606D01*
X144330196Y-99567000D01*
X144435897Y-100098394D01*
X144736908Y-100548888D01*
X145168097Y-100837000D01*
X144736908Y-101125112D01*
X144435897Y-101575606D01*
X144330196Y-102107000D01*
X144435897Y-102638394D01*
X144736908Y-103088888D01*
X145168097Y-103377000D01*
X144736908Y-103665112D01*
X144435897Y-104115606D01*
X144330196Y-104647000D01*
X144435897Y-105178394D01*
X144736908Y-105628888D01*
X145187402Y-105929899D01*
X145616998Y-106015351D01*
X145616998Y-106086658D01*
X145433747Y-106040136D01*
X145018630Y-106246930D01*
X144714249Y-106596841D01*
X144599148Y-106874749D01*
X144646190Y-107058000D01*
X145617000Y-107058000D01*
X145617000Y-107038000D01*
X145875000Y-107038000D01*
X145875000Y-107058000D01*
X146845810Y-107058000D01*
X146892852Y-106874749D01*
X146777751Y-106596841D01*
X146473370Y-106246930D01*
X146058253Y-106040136D01*
X145875002Y-106086658D01*
X145875002Y-106015351D01*
X146304598Y-105929899D01*
X146755092Y-105628888D01*
X147016000Y-105238412D01*
X147276908Y-105628888D01*
X147727402Y-105929899D01*
X148156998Y-106015351D01*
X148156998Y-106086658D01*
X147973747Y-106040136D01*
X147558630Y-106246930D01*
X147254249Y-106596841D01*
X147139148Y-106874749D01*
X147186190Y-107058000D01*
X148157000Y-107058000D01*
X148157000Y-107038000D01*
X148415000Y-107038000D01*
X148415000Y-107058000D01*
X149385810Y-107058000D01*
X149432852Y-106874749D01*
X149317751Y-106596841D01*
X149013370Y-106246930D01*
X148598253Y-106040136D01*
X148415002Y-106086658D01*
X148415002Y-106015351D01*
X148844598Y-105929899D01*
X149295092Y-105628888D01*
X149596103Y-105178394D01*
X149701804Y-104647000D01*
X149596103Y-104115606D01*
X149295092Y-103665112D01*
X148863903Y-103377000D01*
X149295092Y-103088888D01*
X149596103Y-102638394D01*
X149701804Y-102107000D01*
X149596103Y-101575606D01*
X149295092Y-101125112D01*
X148863903Y-100837000D01*
X149295092Y-100548888D01*
X149596103Y-100098394D01*
X149701804Y-99567000D01*
X149596103Y-99035606D01*
X149295092Y-98585112D01*
X148863903Y-98297000D01*
X149295092Y-98008888D01*
X149596103Y-97558394D01*
X149701804Y-97027000D01*
X149596103Y-96495606D01*
X149295092Y-96045112D01*
X148863903Y-95757000D01*
X149295092Y-95468888D01*
X149596103Y-95018394D01*
X149701804Y-94487000D01*
X149596103Y-93955606D01*
X149295092Y-93505112D01*
X148863903Y-93217000D01*
X149295092Y-92928888D01*
X149596103Y-92478394D01*
X149701804Y-91947000D01*
X149596103Y-91415606D01*
X149295092Y-90965112D01*
X148863903Y-90677000D01*
X149295092Y-90388888D01*
X149596103Y-89938394D01*
X149701804Y-89407000D01*
X149596103Y-88875606D01*
X149295092Y-88425112D01*
X148863903Y-88137000D01*
X149295092Y-87848888D01*
X149596103Y-87398394D01*
X149701804Y-86867000D01*
X149596103Y-86335606D01*
X149295092Y-85885112D01*
X148863903Y-85597000D01*
X149295092Y-85308888D01*
X149596103Y-84858394D01*
X149701804Y-84327000D01*
X149596103Y-83795606D01*
X149295092Y-83345112D01*
X148844598Y-83044101D01*
X148313204Y-82938400D01*
X148258796Y-82938400D01*
X147727402Y-83044101D01*
X147276908Y-83345112D01*
X147016000Y-83735588D01*
X146755092Y-83345112D01*
X146304598Y-83044101D01*
X145773204Y-82938400D01*
X145718796Y-82938400D01*
X145187402Y-83044101D01*
X144736908Y-83345112D01*
X144435897Y-83795606D01*
X144330196Y-84327000D01*
X136961000Y-84327000D01*
X136961000Y-61153251D01*
X144599148Y-61153251D01*
X144714249Y-61431159D01*
X145018630Y-61781070D01*
X145433747Y-61987864D01*
X145617000Y-61941341D01*
X145617000Y-60970000D01*
X145875000Y-60970000D01*
X145875000Y-61941341D01*
X146058253Y-61987864D01*
X146473370Y-61781070D01*
X146777751Y-61431159D01*
X146892852Y-61153251D01*
X146866668Y-61051250D01*
X147097400Y-61051250D01*
X147097400Y-61769247D01*
X147146879Y-61888698D01*
X147238303Y-61980122D01*
X147357754Y-62029600D01*
X148075750Y-62029600D01*
X148157000Y-61948350D01*
X148157000Y-60970000D01*
X148415000Y-60970000D01*
X148415000Y-61948350D01*
X148496250Y-62029600D01*
X149214246Y-62029600D01*
X149333697Y-61980122D01*
X149425121Y-61888698D01*
X149474600Y-61769247D01*
X149474600Y-61051250D01*
X149393350Y-60970000D01*
X148415000Y-60970000D01*
X148157000Y-60970000D01*
X147178650Y-60970000D01*
X147097400Y-61051250D01*
X146866668Y-61051250D01*
X146845810Y-60970000D01*
X145875000Y-60970000D01*
X145617000Y-60970000D01*
X144646190Y-60970000D01*
X144599148Y-61153251D01*
X136961000Y-61153251D01*
X136961000Y-40521000D01*
X144330196Y-40521000D01*
X144435897Y-41052394D01*
X144736908Y-41502888D01*
X145168097Y-41791000D01*
X144736908Y-42079112D01*
X144435897Y-42529606D01*
X144330196Y-43061000D01*
X144435897Y-43592394D01*
X144736908Y-44042888D01*
X145168097Y-44331000D01*
X144736908Y-44619112D01*
X144435897Y-45069606D01*
X144330196Y-45601000D01*
X144435897Y-46132394D01*
X144736908Y-46582888D01*
X145168097Y-46871000D01*
X144736908Y-47159112D01*
X144435897Y-47609606D01*
X144330196Y-48141000D01*
X144435897Y-48672394D01*
X144736908Y-49122888D01*
X145168097Y-49411000D01*
X144736908Y-49699112D01*
X144435897Y-50149606D01*
X144330196Y-50681000D01*
X144435897Y-51212394D01*
X144736908Y-51662888D01*
X145168097Y-51951000D01*
X144736908Y-52239112D01*
X144435897Y-52689606D01*
X144330196Y-53221000D01*
X144435897Y-53752394D01*
X144736908Y-54202888D01*
X145168097Y-54491000D01*
X144736908Y-54779112D01*
X144435897Y-55229606D01*
X144330196Y-55761000D01*
X144435897Y-56292394D01*
X144736908Y-56742888D01*
X145168097Y-57031000D01*
X144736908Y-57319112D01*
X144435897Y-57769606D01*
X144330196Y-58301000D01*
X144435897Y-58832394D01*
X144736908Y-59282888D01*
X145187402Y-59583899D01*
X145616998Y-59669351D01*
X145616998Y-59740658D01*
X145433747Y-59694136D01*
X145018630Y-59900930D01*
X144714249Y-60250841D01*
X144599148Y-60528749D01*
X144646190Y-60712000D01*
X145617000Y-60712000D01*
X145617000Y-60692000D01*
X145875000Y-60692000D01*
X145875000Y-60712000D01*
X146845810Y-60712000D01*
X146892852Y-60528749D01*
X146777751Y-60250841D01*
X146473370Y-59900930D01*
X146058253Y-59694136D01*
X145875002Y-59740658D01*
X145875002Y-59669351D01*
X146304598Y-59583899D01*
X146755092Y-59282888D01*
X147016000Y-58892412D01*
X147276908Y-59282888D01*
X147727402Y-59583899D01*
X148071779Y-59652400D01*
X147357754Y-59652400D01*
X147238303Y-59701878D01*
X147146879Y-59793302D01*
X147097400Y-59912753D01*
X147097400Y-60630750D01*
X147178650Y-60712000D01*
X148157000Y-60712000D01*
X148157000Y-60692000D01*
X148415000Y-60692000D01*
X148415000Y-60712000D01*
X149393350Y-60712000D01*
X149474600Y-60630750D01*
X149474600Y-59912753D01*
X149425121Y-59793302D01*
X149333697Y-59701878D01*
X149214246Y-59652400D01*
X148500221Y-59652400D01*
X148844598Y-59583899D01*
X149295092Y-59282888D01*
X149596103Y-58832394D01*
X149701804Y-58301000D01*
X149596103Y-57769606D01*
X149295092Y-57319112D01*
X148863903Y-57031000D01*
X149295092Y-56742888D01*
X149596103Y-56292394D01*
X149701804Y-55761000D01*
X149596103Y-55229606D01*
X149529348Y-55129700D01*
X152996600Y-55129700D01*
X152996600Y-78359800D01*
X153042631Y-78591215D01*
X153051787Y-78637246D01*
X153208948Y-78872452D01*
X155747984Y-81411488D01*
X155683196Y-81737200D01*
X155788897Y-82268594D01*
X156089908Y-82719088D01*
X156540402Y-83020099D01*
X156969998Y-83105551D01*
X156969998Y-83176858D01*
X156786747Y-83130336D01*
X156371630Y-83337130D01*
X156067249Y-83687041D01*
X155952148Y-83964949D01*
X155999190Y-84148200D01*
X156970000Y-84148200D01*
X156970000Y-84128200D01*
X157228000Y-84128200D01*
X157228000Y-84148200D01*
X158198810Y-84148200D01*
X158245852Y-83964949D01*
X158130751Y-83687041D01*
X157826370Y-83337130D01*
X157411253Y-83130336D01*
X157228002Y-83176858D01*
X157228002Y-83105551D01*
X157657598Y-83020099D01*
X158108092Y-82719088D01*
X158369000Y-82328612D01*
X158629908Y-82719088D01*
X159080402Y-83020099D01*
X159509998Y-83105551D01*
X159509998Y-83176858D01*
X159326747Y-83130336D01*
X158911630Y-83337130D01*
X158607249Y-83687041D01*
X158492148Y-83964949D01*
X158539190Y-84148200D01*
X159510000Y-84148200D01*
X159510000Y-84128200D01*
X159768000Y-84128200D01*
X159768000Y-84148200D01*
X160738810Y-84148200D01*
X160785852Y-83964949D01*
X160670751Y-83687041D01*
X160366370Y-83337130D01*
X159951253Y-83130336D01*
X159768002Y-83176858D01*
X159768002Y-83105551D01*
X160197598Y-83020099D01*
X160648092Y-82719088D01*
X160949103Y-82268594D01*
X161054804Y-81737200D01*
X160949103Y-81205806D01*
X160648092Y-80755312D01*
X160216903Y-80467200D01*
X160648092Y-80179088D01*
X160949103Y-79728594D01*
X161054804Y-79197200D01*
X160949103Y-78665806D01*
X160648092Y-78215312D01*
X160216903Y-77927200D01*
X160648092Y-77639088D01*
X160949103Y-77188594D01*
X161054804Y-76657200D01*
X160949103Y-76125806D01*
X160648092Y-75675312D01*
X160216903Y-75387200D01*
X160648092Y-75099088D01*
X160949103Y-74648594D01*
X161054804Y-74117200D01*
X160949103Y-73585806D01*
X160648092Y-73135312D01*
X160216903Y-72847200D01*
X160648092Y-72559088D01*
X160949103Y-72108594D01*
X161054804Y-71577200D01*
X160949103Y-71045806D01*
X160648092Y-70595312D01*
X160216903Y-70307200D01*
X160648092Y-70019088D01*
X160949103Y-69568594D01*
X161054804Y-69037200D01*
X160990016Y-68711489D01*
X162286052Y-67415453D01*
X162443212Y-67180246D01*
X162443213Y-67180245D01*
X162498400Y-66902800D01*
X162498400Y-50553204D01*
X162578455Y-50473149D01*
X162714699Y-50473268D01*
X163071160Y-50325982D01*
X163344123Y-50053495D01*
X163492032Y-49697292D01*
X163492368Y-49311601D01*
X163345082Y-48955140D01*
X163072595Y-48682177D01*
X162716392Y-48534268D01*
X162409157Y-48534000D01*
X162341782Y-48370940D01*
X162069295Y-48097977D01*
X161713092Y-47950068D01*
X161567443Y-47949941D01*
X161452782Y-47672440D01*
X161180295Y-47399477D01*
X160824092Y-47251568D01*
X160438401Y-47251232D01*
X160081940Y-47398518D01*
X159808977Y-47671005D01*
X159661068Y-48027208D01*
X159660948Y-48165047D01*
X153208948Y-54617048D01*
X153051787Y-54852254D01*
X153051787Y-54852255D01*
X152996600Y-55129700D01*
X149529348Y-55129700D01*
X149295092Y-54779112D01*
X148863903Y-54491000D01*
X149295092Y-54202888D01*
X149596103Y-53752394D01*
X149701804Y-53221000D01*
X149596103Y-52689606D01*
X149295092Y-52239112D01*
X148863903Y-51951000D01*
X149295092Y-51662888D01*
X149596103Y-51212394D01*
X149701804Y-50681000D01*
X149596103Y-50149606D01*
X149295092Y-49699112D01*
X148863903Y-49411000D01*
X149295092Y-49122888D01*
X149596103Y-48672394D01*
X149701804Y-48141000D01*
X149596103Y-47609606D01*
X149295092Y-47159112D01*
X148863903Y-46871000D01*
X149295092Y-46582888D01*
X149596103Y-46132394D01*
X149701804Y-45601000D01*
X149596103Y-45069606D01*
X149295092Y-44619112D01*
X148863903Y-44331000D01*
X149295092Y-44042888D01*
X149596103Y-43592394D01*
X149701804Y-43061000D01*
X149596103Y-42529606D01*
X149295092Y-42079112D01*
X148863903Y-41791000D01*
X149295092Y-41502888D01*
X149596103Y-41052394D01*
X149701804Y-40521000D01*
X149596103Y-39989606D01*
X149295092Y-39539112D01*
X148844598Y-39238101D01*
X148415002Y-39152649D01*
X148415002Y-39081342D01*
X148598253Y-39127864D01*
X149013370Y-38921070D01*
X149317751Y-38571159D01*
X149432852Y-38293251D01*
X149385810Y-38110000D01*
X148415000Y-38110000D01*
X148415000Y-38130000D01*
X148157000Y-38130000D01*
X148157000Y-38110000D01*
X147186190Y-38110000D01*
X147139148Y-38293251D01*
X147254249Y-38571159D01*
X147558630Y-38921070D01*
X147973747Y-39127864D01*
X148156998Y-39081342D01*
X148156998Y-39152649D01*
X147727402Y-39238101D01*
X147276908Y-39539112D01*
X147016000Y-39929588D01*
X146755092Y-39539112D01*
X146304598Y-39238101D01*
X145875002Y-39152649D01*
X145875002Y-39081342D01*
X146058253Y-39127864D01*
X146473370Y-38921070D01*
X146777751Y-38571159D01*
X146892852Y-38293251D01*
X146845810Y-38110000D01*
X145875000Y-38110000D01*
X145875000Y-38130000D01*
X145617000Y-38130000D01*
X145617000Y-38110000D01*
X144646190Y-38110000D01*
X144599148Y-38293251D01*
X144714249Y-38571159D01*
X145018630Y-38921070D01*
X145433747Y-39127864D01*
X145616998Y-39081342D01*
X145616998Y-39152649D01*
X145187402Y-39238101D01*
X144736908Y-39539112D01*
X144435897Y-39989606D01*
X144330196Y-40521000D01*
X136961000Y-40521000D01*
X136961000Y-37670000D01*
X136960752Y-37668749D01*
X144599148Y-37668749D01*
X144646190Y-37852000D01*
X145617000Y-37852000D01*
X145617000Y-36880659D01*
X145875000Y-36880659D01*
X145875000Y-37852000D01*
X146845810Y-37852000D01*
X146892852Y-37668749D01*
X147139148Y-37668749D01*
X147186190Y-37852000D01*
X148157000Y-37852000D01*
X148157000Y-36880659D01*
X148415000Y-36880659D01*
X148415000Y-37852000D01*
X149385810Y-37852000D01*
X149432852Y-37668749D01*
X149317751Y-37390841D01*
X149013370Y-37040930D01*
X148598253Y-36834136D01*
X148415000Y-36880659D01*
X148157000Y-36880659D01*
X147973747Y-36834136D01*
X147558630Y-37040930D01*
X147254249Y-37390841D01*
X147139148Y-37668749D01*
X146892852Y-37668749D01*
X146777751Y-37390841D01*
X146473370Y-37040930D01*
X146058253Y-36834136D01*
X145875000Y-36880659D01*
X145617000Y-36880659D01*
X145433747Y-36834136D01*
X145018630Y-37040930D01*
X144714249Y-37390841D01*
X144599148Y-37668749D01*
X136960752Y-37668749D01*
X136913425Y-37430823D01*
X136777942Y-37228058D01*
X136575177Y-37092575D01*
X136336000Y-37045000D01*
X59000000Y-37045000D01*
X58760823Y-37092575D01*
X58558058Y-37228058D01*
X58422575Y-37430823D01*
X58375000Y-37670000D01*
X58375000Y-58509000D01*
X45221000Y-58509000D01*
X45221000Y-52830000D01*
X46788810Y-52830000D01*
X46894511Y-53361394D01*
X47195522Y-53811888D01*
X47626711Y-54100000D01*
X47195522Y-54388112D01*
X46894511Y-54838606D01*
X46788810Y-55370000D01*
X46894511Y-55901394D01*
X47195522Y-56351888D01*
X47646016Y-56652899D01*
X48177410Y-56758600D01*
X48542590Y-56758600D01*
X49073984Y-56652899D01*
X49524478Y-56351888D01*
X49825489Y-55901394D01*
X49931190Y-55370000D01*
X49825489Y-54838606D01*
X49524478Y-54388112D01*
X49093289Y-54100000D01*
X49524478Y-53811888D01*
X49825489Y-53361394D01*
X49931190Y-52830000D01*
X49825489Y-52298606D01*
X49524478Y-51848112D01*
X49286178Y-51688885D01*
X49376000Y-51688885D01*
X49570553Y-51652277D01*
X49749239Y-51537296D01*
X49869112Y-51361856D01*
X49911285Y-51153600D01*
X49911285Y-49426400D01*
X49874677Y-49231847D01*
X49759696Y-49053161D01*
X49584256Y-48933288D01*
X49376000Y-48891115D01*
X47344000Y-48891115D01*
X47149447Y-48927723D01*
X46970761Y-49042704D01*
X46850888Y-49218144D01*
X46808715Y-49426400D01*
X46808715Y-51153600D01*
X46845323Y-51348153D01*
X46960304Y-51526839D01*
X47135744Y-51646712D01*
X47344000Y-51688885D01*
X47433822Y-51688885D01*
X47195522Y-51848112D01*
X46894511Y-52298606D01*
X46788810Y-52830000D01*
X45221000Y-52830000D01*
X45221000Y-37670000D01*
X45173425Y-37430823D01*
X45037942Y-37228058D01*
X44835177Y-37092575D01*
X44596000Y-37045000D01*
X34221000Y-37045000D01*
X34221000Y-29293091D01*
X37482490Y-29293133D01*
X37482490Y-29293133D01*
G37*
X37482490Y-29293133D02*
X37243285Y-29391971D01*
X36321209Y-30312439D01*
X35821570Y-31515704D01*
X35820433Y-32818580D01*
X36317971Y-34022715D01*
X37238439Y-34944791D01*
X38441704Y-35444430D01*
X39744580Y-35445567D01*
X40948715Y-34948029D01*
X41870791Y-34027561D01*
X41998917Y-33718999D01*
X132876432Y-33718999D01*
X133023718Y-34075460D01*
X133296205Y-34348423D01*
X133652408Y-34496332D01*
X134038099Y-34496668D01*
X134146204Y-34452000D01*
X158088252Y-34452000D01*
X165229900Y-41593648D01*
X165229900Y-51844745D01*
X165185568Y-51951508D01*
X165185232Y-52337199D01*
X165229900Y-52445304D01*
X165229900Y-95119852D01*
X163138626Y-97211126D01*
X162938111Y-97511217D01*
X162928727Y-97558394D01*
X162867700Y-97865200D01*
X162867700Y-99076045D01*
X162823368Y-99182808D01*
X162823032Y-99568499D01*
X162970318Y-99924960D01*
X163242805Y-100197923D01*
X163599008Y-100345832D01*
X163984699Y-100346168D01*
X164341160Y-100198882D01*
X164614123Y-99926395D01*
X164762032Y-99570192D01*
X164762368Y-99184501D01*
X164717700Y-99076396D01*
X164717700Y-98248348D01*
X166808974Y-96157074D01*
X167009489Y-95856983D01*
X167079900Y-95503000D01*
X167079900Y-52445655D01*
X167124232Y-52338892D01*
X167124568Y-51953201D01*
X167079900Y-51845096D01*
X167079900Y-43579750D01*
X169639900Y-43579750D01*
X169639900Y-44551747D01*
X169689379Y-44671198D01*
X169780803Y-44762622D01*
X169900254Y-44812100D01*
X170872250Y-44812100D01*
X170953500Y-44730850D01*
X170953500Y-43498500D01*
X171211500Y-43498500D01*
X171211500Y-44730850D01*
X171292750Y-44812100D01*
X172264746Y-44812100D01*
X172384197Y-44762622D01*
X172475621Y-44671198D01*
X172525100Y-44551747D01*
X172525100Y-43579750D01*
X172443850Y-43498500D01*
X171211500Y-43498500D01*
X170953500Y-43498500D01*
X169721150Y-43498500D01*
X169639900Y-43579750D01*
X167079900Y-43579750D01*
X167079900Y-42187253D01*
X169639900Y-42187253D01*
X169639900Y-43159250D01*
X169721150Y-43240500D01*
X170953500Y-43240500D01*
X170953500Y-42008150D01*
X171211500Y-42008150D01*
X171211500Y-43240500D01*
X172443850Y-43240500D01*
X172525100Y-43159250D01*
X172525100Y-42187253D01*
X172475621Y-42067802D01*
X172384197Y-41976378D01*
X172264746Y-41926900D01*
X171292750Y-41926900D01*
X171211500Y-42008150D01*
X170953500Y-42008150D01*
X170872250Y-41926900D01*
X169900254Y-41926900D01*
X169780803Y-41976378D01*
X169689379Y-42067802D01*
X169639900Y-42187253D01*
X167079900Y-42187253D01*
X167079900Y-41210500D01*
X167040135Y-41010587D01*
X167009489Y-40856517D01*
X166808974Y-40556426D01*
X159125474Y-32872926D01*
X158825383Y-32672411D01*
X158471400Y-32602000D01*
X134146555Y-32602000D01*
X134039792Y-32557668D01*
X133654101Y-32557332D01*
X133297640Y-32704618D01*
X133024677Y-32977105D01*
X132876768Y-33333308D01*
X132876432Y-33718999D01*
X41998917Y-33718999D01*
X42370430Y-32824296D01*
X42371567Y-31521420D01*
X41874029Y-30317285D01*
X40953561Y-29395209D01*
X40707836Y-29293175D01*
X166157055Y-29294803D01*
X165094185Y-29733971D01*
X164172109Y-30654439D01*
X163672470Y-31857704D01*
X163671333Y-33160580D01*
X164168871Y-34364715D01*
X165089339Y-35286791D01*
X166292604Y-35786430D01*
X167595480Y-35787567D01*
X168799615Y-35290029D01*
X169721691Y-34369561D01*
X170221330Y-33166296D01*
X170221849Y-32571030D01*
X175740649Y-32571030D01*
X176048288Y-33315572D01*
X176617432Y-33885710D01*
X177361435Y-34194648D01*
X178167030Y-34195351D01*
X178911572Y-33887712D01*
X179481710Y-33318568D01*
X179790648Y-32574565D01*
X179791351Y-31768970D01*
X179483712Y-31024428D01*
X178914568Y-30454290D01*
X178170565Y-30145352D01*
X177364970Y-30144649D01*
X176620428Y-30452288D01*
X176050290Y-31021432D01*
X175741352Y-31765435D01*
X175740649Y-32571030D01*
X170221849Y-32571030D01*
X170222467Y-31863420D01*
X169724929Y-30659285D01*
X168804461Y-29737209D01*
X167739077Y-29294823D01*
X180711000Y-29294991D01*
X180711000Y-124045000D01*
X167737223Y-124045000D01*
X168799615Y-123606029D01*
X169721691Y-122685561D01*
X170184484Y-121571030D01*
X175740649Y-121571030D01*
X176048288Y-122315572D01*
X176617432Y-122885710D01*
X177361435Y-123194648D01*
X178167030Y-123195351D01*
X178911572Y-122887712D01*
X179481710Y-122318568D01*
X179790648Y-121574565D01*
X179791351Y-120768970D01*
X179483712Y-120024428D01*
X178914568Y-119454290D01*
X178170565Y-119145352D01*
X177364970Y-119144649D01*
X176620428Y-119452288D01*
X176050290Y-120021432D01*
X175741352Y-120765435D01*
X175740649Y-121571030D01*
X170184484Y-121571030D01*
X170221330Y-121482296D01*
X170222467Y-120179420D01*
X169724929Y-118975285D01*
X168804461Y-118053209D01*
X167601196Y-117553570D01*
X166298320Y-117552433D01*
X165094185Y-118049971D01*
X164172109Y-118970439D01*
X163672470Y-120173704D01*
X163671333Y-121476580D01*
X164168871Y-122680715D01*
X165089339Y-123602791D01*
X166154297Y-124045000D01*
X155107160Y-124045000D01*
X155096000Y-124042900D01*
X136961000Y-124042900D01*
X136961000Y-109117400D01*
X143344600Y-109117400D01*
X143344600Y-110590600D01*
X143378475Y-110760900D01*
X143399787Y-110868046D01*
X143556948Y-111103252D01*
X144394984Y-111941289D01*
X144330196Y-112267000D01*
X144435897Y-112798394D01*
X144736908Y-113248888D01*
X145168097Y-113537000D01*
X144736908Y-113825112D01*
X144435897Y-114275606D01*
X144330196Y-114807000D01*
X144435897Y-115338394D01*
X144736908Y-115788888D01*
X145187402Y-116089899D01*
X145718796Y-116195600D01*
X145773204Y-116195600D01*
X146304598Y-116089899D01*
X146755092Y-115788888D01*
X146887115Y-115591302D01*
X146887115Y-115670600D01*
X146923723Y-115865153D01*
X147038704Y-116043839D01*
X147214144Y-116163712D01*
X147422400Y-116205885D01*
X149149600Y-116205885D01*
X149344153Y-116169277D01*
X149522839Y-116054296D01*
X149642712Y-115878856D01*
X149684885Y-115670600D01*
X149684885Y-115532000D01*
X157557000Y-115532000D01*
X157789264Y-115485800D01*
X157834446Y-115476813D01*
X158069652Y-115319652D01*
X160151653Y-113237652D01*
X160308813Y-113002446D01*
X160364000Y-112725000D01*
X160364000Y-112413750D01*
X170808300Y-112413750D01*
X170808300Y-113385747D01*
X170857779Y-113505198D01*
X170949203Y-113596622D01*
X171068654Y-113646100D01*
X172040650Y-113646100D01*
X172121900Y-113564850D01*
X172121900Y-112332500D01*
X172379900Y-112332500D01*
X172379900Y-113564850D01*
X172461150Y-113646100D01*
X173433146Y-113646100D01*
X173552597Y-113596622D01*
X173644021Y-113505198D01*
X173693500Y-113385747D01*
X173693500Y-112413750D01*
X173612250Y-112332500D01*
X172379900Y-112332500D01*
X172121900Y-112332500D01*
X170889550Y-112332500D01*
X170808300Y-112413750D01*
X160364000Y-112413750D01*
X160364000Y-111021253D01*
X170808300Y-111021253D01*
X170808300Y-111993250D01*
X170889550Y-112074500D01*
X172121900Y-112074500D01*
X172121900Y-110842150D01*
X172379900Y-110842150D01*
X172379900Y-112074500D01*
X173612250Y-112074500D01*
X173693500Y-111993250D01*
X173693500Y-111021253D01*
X173644021Y-110901802D01*
X173552597Y-110810378D01*
X173433146Y-110760900D01*
X172461150Y-110760900D01*
X172379900Y-110842150D01*
X172121900Y-110842150D01*
X172040650Y-110760900D01*
X171068654Y-110760900D01*
X170949203Y-110810378D01*
X170857779Y-110901802D01*
X170808300Y-111021253D01*
X160364000Y-111021253D01*
X160364000Y-93296085D01*
X160502600Y-93296085D01*
X160697153Y-93259477D01*
X160875839Y-93144496D01*
X160995712Y-92969056D01*
X161037885Y-92760800D01*
X161037885Y-91033600D01*
X161001277Y-90839047D01*
X160886296Y-90660361D01*
X160710856Y-90540488D01*
X160502600Y-90498315D01*
X160409792Y-90498315D01*
X160648092Y-90339088D01*
X160949103Y-89888594D01*
X161054804Y-89357200D01*
X160949103Y-88825806D01*
X160648092Y-88375312D01*
X160216903Y-88087200D01*
X160648092Y-87799088D01*
X160949103Y-87348594D01*
X161054804Y-86817200D01*
X160949103Y-86285806D01*
X160648092Y-85835312D01*
X160197598Y-85534301D01*
X159768002Y-85448849D01*
X159768002Y-85377542D01*
X159951253Y-85424064D01*
X160366370Y-85217270D01*
X160670751Y-84867359D01*
X160785852Y-84589451D01*
X160738810Y-84406200D01*
X159768000Y-84406200D01*
X159768000Y-84426200D01*
X159510000Y-84426200D01*
X159510000Y-84406200D01*
X158539190Y-84406200D01*
X158492148Y-84589451D01*
X158607249Y-84867359D01*
X158911630Y-85217270D01*
X159326747Y-85424064D01*
X159509998Y-85377542D01*
X159509998Y-85448849D01*
X159080402Y-85534301D01*
X158629908Y-85835312D01*
X158369000Y-86225788D01*
X158108092Y-85835312D01*
X157657598Y-85534301D01*
X157228002Y-85448849D01*
X157228002Y-85377542D01*
X157411253Y-85424064D01*
X157826370Y-85217270D01*
X158130751Y-84867359D01*
X158245852Y-84589451D01*
X158198810Y-84406200D01*
X157228000Y-84406200D01*
X157228000Y-84426200D01*
X156970000Y-84426200D01*
X156970000Y-84406200D01*
X155999190Y-84406200D01*
X155952148Y-84589451D01*
X156067249Y-84867359D01*
X156371630Y-85217270D01*
X156786747Y-85424064D01*
X156969998Y-85377542D01*
X156969998Y-85448849D01*
X156540402Y-85534301D01*
X156089908Y-85835312D01*
X155788897Y-86285806D01*
X155683196Y-86817200D01*
X155788897Y-87348594D01*
X156089908Y-87799088D01*
X156521097Y-88087200D01*
X156089908Y-88375312D01*
X155788897Y-88825806D01*
X155683196Y-89357200D01*
X155747984Y-89682912D01*
X155088548Y-90342348D01*
X154931387Y-90577554D01*
X154931387Y-90577555D01*
X154876200Y-90855000D01*
X154876200Y-106404095D01*
X153560996Y-107719300D01*
X149341714Y-107719300D01*
X149432852Y-107499251D01*
X149385810Y-107316000D01*
X148415000Y-107316000D01*
X148415000Y-107336000D01*
X148157000Y-107336000D01*
X148157000Y-107316000D01*
X147186190Y-107316000D01*
X147139148Y-107499251D01*
X147230286Y-107719300D01*
X146801714Y-107719300D01*
X146892852Y-107499251D01*
X146845810Y-107316000D01*
X145875000Y-107316000D01*
X145875000Y-107336000D01*
X145617000Y-107336000D01*
X145617000Y-107316000D01*
X144646190Y-107316000D01*
X144599148Y-107499251D01*
X144694275Y-107728932D01*
X144465255Y-107774487D01*
X144387208Y-107826637D01*
X144230047Y-107931648D01*
X143556948Y-108604748D01*
X143399787Y-108839954D01*
X143399787Y-108839955D01*
X143344600Y-109117400D01*
X136961000Y-109117400D01*
X136961000Y-84327000D01*
X144330196Y-84327000D01*
X144435897Y-84858394D01*
X144736908Y-85308888D01*
X145168097Y-85597000D01*
X144736908Y-85885112D01*
X144435897Y-86335606D01*
X144330196Y-86867000D01*
X144435897Y-87398394D01*
X144736908Y-87848888D01*
X145168097Y-88137000D01*
X144736908Y-88425112D01*
X144435897Y-88875606D01*
X144330196Y-89407000D01*
X144435897Y-89938394D01*
X144736908Y-90388888D01*
X145168097Y-90677000D01*
X144736908Y-90965112D01*
X144435897Y-91415606D01*
X144330196Y-91947000D01*
X144435897Y-92478394D01*
X144736908Y-92928888D01*
X145168097Y-93217000D01*
X144736908Y-93505112D01*
X144435897Y-93955606D01*
X144330196Y-94487000D01*
X144435897Y-95018394D01*
X144736908Y-95468888D01*
X145168097Y-95757000D01*
X144736908Y-96045112D01*
X144435897Y-96495606D01*
X144330196Y-97027000D01*
X144435897Y-97558394D01*
X144736908Y-98008888D01*
X145168097Y-98297000D01*
X144736908Y-98585112D01*
X144435897Y-99035606D01*
X144330196Y-99567000D01*
X144435897Y-100098394D01*
X144736908Y-100548888D01*
X145168097Y-100837000D01*
X144736908Y-101125112D01*
X144435897Y-101575606D01*
X144330196Y-102107000D01*
X144435897Y-102638394D01*
X144736908Y-103088888D01*
X145168097Y-103377000D01*
X144736908Y-103665112D01*
X144435897Y-104115606D01*
X144330196Y-104647000D01*
X144435897Y-105178394D01*
X144736908Y-105628888D01*
X145187402Y-105929899D01*
X145616998Y-106015351D01*
X145616998Y-106086658D01*
X145433747Y-106040136D01*
X145018630Y-106246930D01*
X144714249Y-106596841D01*
X144599148Y-106874749D01*
X144646190Y-107058000D01*
X145617000Y-107058000D01*
X145617000Y-107038000D01*
X145875000Y-107038000D01*
X145875000Y-107058000D01*
X146845810Y-107058000D01*
X146892852Y-106874749D01*
X146777751Y-106596841D01*
X146473370Y-106246930D01*
X146058253Y-106040136D01*
X145875002Y-106086658D01*
X145875002Y-106015351D01*
X146304598Y-105929899D01*
X146755092Y-105628888D01*
X147016000Y-105238412D01*
X147276908Y-105628888D01*
X147727402Y-105929899D01*
X148156998Y-106015351D01*
X148156998Y-106086658D01*
X147973747Y-106040136D01*
X147558630Y-106246930D01*
X147254249Y-106596841D01*
X147139148Y-106874749D01*
X147186190Y-107058000D01*
X148157000Y-107058000D01*
X148157000Y-107038000D01*
X148415000Y-107038000D01*
X148415000Y-107058000D01*
X149385810Y-107058000D01*
X149432852Y-106874749D01*
X149317751Y-106596841D01*
X149013370Y-106246930D01*
X148598253Y-106040136D01*
X148415002Y-106086658D01*
X148415002Y-106015351D01*
X148844598Y-105929899D01*
X149295092Y-105628888D01*
X149596103Y-105178394D01*
X149701804Y-104647000D01*
X149596103Y-104115606D01*
X149295092Y-103665112D01*
X148863903Y-103377000D01*
X149295092Y-103088888D01*
X149596103Y-102638394D01*
X149701804Y-102107000D01*
X149596103Y-101575606D01*
X149295092Y-101125112D01*
X148863903Y-100837000D01*
X149295092Y-100548888D01*
X149596103Y-100098394D01*
X149701804Y-99567000D01*
X149596103Y-99035606D01*
X149295092Y-98585112D01*
X148863903Y-98297000D01*
X149295092Y-98008888D01*
X149596103Y-97558394D01*
X149701804Y-97027000D01*
X149596103Y-96495606D01*
X149295092Y-96045112D01*
X148863903Y-95757000D01*
X149295092Y-95468888D01*
X149596103Y-95018394D01*
X149701804Y-94487000D01*
X149596103Y-93955606D01*
X149295092Y-93505112D01*
X148863903Y-93217000D01*
X149295092Y-92928888D01*
X149596103Y-92478394D01*
X149701804Y-91947000D01*
X149596103Y-91415606D01*
X149295092Y-90965112D01*
X148863903Y-90677000D01*
X149295092Y-90388888D01*
X149596103Y-89938394D01*
X149701804Y-89407000D01*
X149596103Y-88875606D01*
X149295092Y-88425112D01*
X148863903Y-88137000D01*
X149295092Y-87848888D01*
X149596103Y-87398394D01*
X149701804Y-86867000D01*
X149596103Y-86335606D01*
X149295092Y-85885112D01*
X148863903Y-85597000D01*
X149295092Y-85308888D01*
X149596103Y-84858394D01*
X149701804Y-84327000D01*
X149596103Y-83795606D01*
X149295092Y-83345112D01*
X148844598Y-83044101D01*
X148313204Y-82938400D01*
X148258796Y-82938400D01*
X147727402Y-83044101D01*
X147276908Y-83345112D01*
X147016000Y-83735588D01*
X146755092Y-83345112D01*
X146304598Y-83044101D01*
X145773204Y-82938400D01*
X145718796Y-82938400D01*
X145187402Y-83044101D01*
X144736908Y-83345112D01*
X144435897Y-83795606D01*
X144330196Y-84327000D01*
X136961000Y-84327000D01*
X136961000Y-61153251D01*
X144599148Y-61153251D01*
X144714249Y-61431159D01*
X145018630Y-61781070D01*
X145433747Y-61987864D01*
X145617000Y-61941341D01*
X145617000Y-60970000D01*
X145875000Y-60970000D01*
X145875000Y-61941341D01*
X146058253Y-61987864D01*
X146473370Y-61781070D01*
X146777751Y-61431159D01*
X146892852Y-61153251D01*
X146866668Y-61051250D01*
X147097400Y-61051250D01*
X147097400Y-61769247D01*
X147146879Y-61888698D01*
X147238303Y-61980122D01*
X147357754Y-62029600D01*
X148075750Y-62029600D01*
X148157000Y-61948350D01*
X148157000Y-60970000D01*
X148415000Y-60970000D01*
X148415000Y-61948350D01*
X148496250Y-62029600D01*
X149214246Y-62029600D01*
X149333697Y-61980122D01*
X149425121Y-61888698D01*
X149474600Y-61769247D01*
X149474600Y-61051250D01*
X149393350Y-60970000D01*
X148415000Y-60970000D01*
X148157000Y-60970000D01*
X147178650Y-60970000D01*
X147097400Y-61051250D01*
X146866668Y-61051250D01*
X146845810Y-60970000D01*
X145875000Y-60970000D01*
X145617000Y-60970000D01*
X144646190Y-60970000D01*
X144599148Y-61153251D01*
X136961000Y-61153251D01*
X136961000Y-40521000D01*
X144330196Y-40521000D01*
X144435897Y-41052394D01*
X144736908Y-41502888D01*
X145168097Y-41791000D01*
X144736908Y-42079112D01*
X144435897Y-42529606D01*
X144330196Y-43061000D01*
X144435897Y-43592394D01*
X144736908Y-44042888D01*
X145168097Y-44331000D01*
X144736908Y-44619112D01*
X144435897Y-45069606D01*
X144330196Y-45601000D01*
X144435897Y-46132394D01*
X144736908Y-46582888D01*
X145168097Y-46871000D01*
X144736908Y-47159112D01*
X144435897Y-47609606D01*
X144330196Y-48141000D01*
X144435897Y-48672394D01*
X144736908Y-49122888D01*
X145168097Y-49411000D01*
X144736908Y-49699112D01*
X144435897Y-50149606D01*
X144330196Y-50681000D01*
X144435897Y-51212394D01*
X144736908Y-51662888D01*
X145168097Y-51951000D01*
X144736908Y-52239112D01*
X144435897Y-52689606D01*
X144330196Y-53221000D01*
X144435897Y-53752394D01*
X144736908Y-54202888D01*
X145168097Y-54491000D01*
X144736908Y-54779112D01*
X144435897Y-55229606D01*
X144330196Y-55761000D01*
X144435897Y-56292394D01*
X144736908Y-56742888D01*
X145168097Y-57031000D01*
X144736908Y-57319112D01*
X144435897Y-57769606D01*
X144330196Y-58301000D01*
X144435897Y-58832394D01*
X144736908Y-59282888D01*
X145187402Y-59583899D01*
X145616998Y-59669351D01*
X145616998Y-59740658D01*
X145433747Y-59694136D01*
X145018630Y-59900930D01*
X144714249Y-60250841D01*
X144599148Y-60528749D01*
X144646190Y-60712000D01*
X145617000Y-60712000D01*
X145617000Y-60692000D01*
X145875000Y-60692000D01*
X145875000Y-60712000D01*
X146845810Y-60712000D01*
X146892852Y-60528749D01*
X146777751Y-60250841D01*
X146473370Y-59900930D01*
X146058253Y-59694136D01*
X145875002Y-59740658D01*
X145875002Y-59669351D01*
X146304598Y-59583899D01*
X146755092Y-59282888D01*
X147016000Y-58892412D01*
X147276908Y-59282888D01*
X147727402Y-59583899D01*
X148071779Y-59652400D01*
X147357754Y-59652400D01*
X147238303Y-59701878D01*
X147146879Y-59793302D01*
X147097400Y-59912753D01*
X147097400Y-60630750D01*
X147178650Y-60712000D01*
X148157000Y-60712000D01*
X148157000Y-60692000D01*
X148415000Y-60692000D01*
X148415000Y-60712000D01*
X149393350Y-60712000D01*
X149474600Y-60630750D01*
X149474600Y-59912753D01*
X149425121Y-59793302D01*
X149333697Y-59701878D01*
X149214246Y-59652400D01*
X148500221Y-59652400D01*
X148844598Y-59583899D01*
X149295092Y-59282888D01*
X149596103Y-58832394D01*
X149701804Y-58301000D01*
X149596103Y-57769606D01*
X149295092Y-57319112D01*
X148863903Y-57031000D01*
X149295092Y-56742888D01*
X149596103Y-56292394D01*
X149701804Y-55761000D01*
X149596103Y-55229606D01*
X149529348Y-55129700D01*
X152996600Y-55129700D01*
X152996600Y-78359800D01*
X153042631Y-78591215D01*
X153051787Y-78637246D01*
X153208948Y-78872452D01*
X155747984Y-81411488D01*
X155683196Y-81737200D01*
X155788897Y-82268594D01*
X156089908Y-82719088D01*
X156540402Y-83020099D01*
X156969998Y-83105551D01*
X156969998Y-83176858D01*
X156786747Y-83130336D01*
X156371630Y-83337130D01*
X156067249Y-83687041D01*
X155952148Y-83964949D01*
X155999190Y-84148200D01*
X156970000Y-84148200D01*
X156970000Y-84128200D01*
X157228000Y-84128200D01*
X157228000Y-84148200D01*
X158198810Y-84148200D01*
X158245852Y-83964949D01*
X158130751Y-83687041D01*
X157826370Y-83337130D01*
X157411253Y-83130336D01*
X157228002Y-83176858D01*
X157228002Y-83105551D01*
X157657598Y-83020099D01*
X158108092Y-82719088D01*
X158369000Y-82328612D01*
X158629908Y-82719088D01*
X159080402Y-83020099D01*
X159509998Y-83105551D01*
X159509998Y-83176858D01*
X159326747Y-83130336D01*
X158911630Y-83337130D01*
X158607249Y-83687041D01*
X158492148Y-83964949D01*
X158539190Y-84148200D01*
X159510000Y-84148200D01*
X159510000Y-84128200D01*
X159768000Y-84128200D01*
X159768000Y-84148200D01*
X160738810Y-84148200D01*
X160785852Y-83964949D01*
X160670751Y-83687041D01*
X160366370Y-83337130D01*
X159951253Y-83130336D01*
X159768002Y-83176858D01*
X159768002Y-83105551D01*
X160197598Y-83020099D01*
X160648092Y-82719088D01*
X160949103Y-82268594D01*
X161054804Y-81737200D01*
X160949103Y-81205806D01*
X160648092Y-80755312D01*
X160216903Y-80467200D01*
X160648092Y-80179088D01*
X160949103Y-79728594D01*
X161054804Y-79197200D01*
X160949103Y-78665806D01*
X160648092Y-78215312D01*
X160216903Y-77927200D01*
X160648092Y-77639088D01*
X160949103Y-77188594D01*
X161054804Y-76657200D01*
X160949103Y-76125806D01*
X160648092Y-75675312D01*
X160216903Y-75387200D01*
X160648092Y-75099088D01*
X160949103Y-74648594D01*
X161054804Y-74117200D01*
X160949103Y-73585806D01*
X160648092Y-73135312D01*
X160216903Y-72847200D01*
X160648092Y-72559088D01*
X160949103Y-72108594D01*
X161054804Y-71577200D01*
X160949103Y-71045806D01*
X160648092Y-70595312D01*
X160216903Y-70307200D01*
X160648092Y-70019088D01*
X160949103Y-69568594D01*
X161054804Y-69037200D01*
X160990016Y-68711489D01*
X162286052Y-67415453D01*
X162443212Y-67180246D01*
X162443213Y-67180245D01*
X162498400Y-66902800D01*
X162498400Y-50553204D01*
X162578455Y-50473149D01*
X162714699Y-50473268D01*
X163071160Y-50325982D01*
X163344123Y-50053495D01*
X163492032Y-49697292D01*
X163492368Y-49311601D01*
X163345082Y-48955140D01*
X163072595Y-48682177D01*
X162716392Y-48534268D01*
X162409157Y-48534000D01*
X162341782Y-48370940D01*
X162069295Y-48097977D01*
X161713092Y-47950068D01*
X161567443Y-47949941D01*
X161452782Y-47672440D01*
X161180295Y-47399477D01*
X160824092Y-47251568D01*
X160438401Y-47251232D01*
X160081940Y-47398518D01*
X159808977Y-47671005D01*
X159661068Y-48027208D01*
X159660948Y-48165047D01*
X153208948Y-54617048D01*
X153051787Y-54852254D01*
X153051787Y-54852255D01*
X152996600Y-55129700D01*
X149529348Y-55129700D01*
X149295092Y-54779112D01*
X148863903Y-54491000D01*
X149295092Y-54202888D01*
X149596103Y-53752394D01*
X149701804Y-53221000D01*
X149596103Y-52689606D01*
X149295092Y-52239112D01*
X148863903Y-51951000D01*
X149295092Y-51662888D01*
X149596103Y-51212394D01*
X149701804Y-50681000D01*
X149596103Y-50149606D01*
X149295092Y-49699112D01*
X148863903Y-49411000D01*
X149295092Y-49122888D01*
X149596103Y-48672394D01*
X149701804Y-48141000D01*
X149596103Y-47609606D01*
X149295092Y-47159112D01*
X148863903Y-46871000D01*
X149295092Y-46582888D01*
X149596103Y-46132394D01*
X149701804Y-45601000D01*
X149596103Y-45069606D01*
X149295092Y-44619112D01*
X148863903Y-44331000D01*
X149295092Y-44042888D01*
X149596103Y-43592394D01*
X149701804Y-43061000D01*
X149596103Y-42529606D01*
X149295092Y-42079112D01*
X148863903Y-41791000D01*
X149295092Y-41502888D01*
X149596103Y-41052394D01*
X149701804Y-40521000D01*
X149596103Y-39989606D01*
X149295092Y-39539112D01*
X148844598Y-39238101D01*
X148415002Y-39152649D01*
X148415002Y-39081342D01*
X148598253Y-39127864D01*
X149013370Y-38921070D01*
X149317751Y-38571159D01*
X149432852Y-38293251D01*
X149385810Y-38110000D01*
X148415000Y-38110000D01*
X148415000Y-38130000D01*
X148157000Y-38130000D01*
X148157000Y-38110000D01*
X147186190Y-38110000D01*
X147139148Y-38293251D01*
X147254249Y-38571159D01*
X147558630Y-38921070D01*
X147973747Y-39127864D01*
X148156998Y-39081342D01*
X148156998Y-39152649D01*
X147727402Y-39238101D01*
X147276908Y-39539112D01*
X147016000Y-39929588D01*
X146755092Y-39539112D01*
X146304598Y-39238101D01*
X145875002Y-39152649D01*
X145875002Y-39081342D01*
X146058253Y-39127864D01*
X146473370Y-38921070D01*
X146777751Y-38571159D01*
X146892852Y-38293251D01*
X146845810Y-38110000D01*
X145875000Y-38110000D01*
X145875000Y-38130000D01*
X145617000Y-38130000D01*
X145617000Y-38110000D01*
X144646190Y-38110000D01*
X144599148Y-38293251D01*
X144714249Y-38571159D01*
X145018630Y-38921070D01*
X145433747Y-39127864D01*
X145616998Y-39081342D01*
X145616998Y-39152649D01*
X145187402Y-39238101D01*
X144736908Y-39539112D01*
X144435897Y-39989606D01*
X144330196Y-40521000D01*
X136961000Y-40521000D01*
X136961000Y-37670000D01*
X136960752Y-37668749D01*
X144599148Y-37668749D01*
X144646190Y-37852000D01*
X145617000Y-37852000D01*
X145617000Y-36880659D01*
X145875000Y-36880659D01*
X145875000Y-37852000D01*
X146845810Y-37852000D01*
X146892852Y-37668749D01*
X147139148Y-37668749D01*
X147186190Y-37852000D01*
X148157000Y-37852000D01*
X148157000Y-36880659D01*
X148415000Y-36880659D01*
X148415000Y-37852000D01*
X149385810Y-37852000D01*
X149432852Y-37668749D01*
X149317751Y-37390841D01*
X149013370Y-37040930D01*
X148598253Y-36834136D01*
X148415000Y-36880659D01*
X148157000Y-36880659D01*
X147973747Y-36834136D01*
X147558630Y-37040930D01*
X147254249Y-37390841D01*
X147139148Y-37668749D01*
X146892852Y-37668749D01*
X146777751Y-37390841D01*
X146473370Y-37040930D01*
X146058253Y-36834136D01*
X145875000Y-36880659D01*
X145617000Y-36880659D01*
X145433747Y-36834136D01*
X145018630Y-37040930D01*
X144714249Y-37390841D01*
X144599148Y-37668749D01*
X136960752Y-37668749D01*
X136913425Y-37430823D01*
X136777942Y-37228058D01*
X136575177Y-37092575D01*
X136336000Y-37045000D01*
X59000000Y-37045000D01*
X58760823Y-37092575D01*
X58558058Y-37228058D01*
X58422575Y-37430823D01*
X58375000Y-37670000D01*
X58375000Y-58509000D01*
X45221000Y-58509000D01*
X45221000Y-52830000D01*
X46788810Y-52830000D01*
X46894511Y-53361394D01*
X47195522Y-53811888D01*
X47626711Y-54100000D01*
X47195522Y-54388112D01*
X46894511Y-54838606D01*
X46788810Y-55370000D01*
X46894511Y-55901394D01*
X47195522Y-56351888D01*
X47646016Y-56652899D01*
X48177410Y-56758600D01*
X48542590Y-56758600D01*
X49073984Y-56652899D01*
X49524478Y-56351888D01*
X49825489Y-55901394D01*
X49931190Y-55370000D01*
X49825489Y-54838606D01*
X49524478Y-54388112D01*
X49093289Y-54100000D01*
X49524478Y-53811888D01*
X49825489Y-53361394D01*
X49931190Y-52830000D01*
X49825489Y-52298606D01*
X49524478Y-51848112D01*
X49286178Y-51688885D01*
X49376000Y-51688885D01*
X49570553Y-51652277D01*
X49749239Y-51537296D01*
X49869112Y-51361856D01*
X49911285Y-51153600D01*
X49911285Y-49426400D01*
X49874677Y-49231847D01*
X49759696Y-49053161D01*
X49584256Y-48933288D01*
X49376000Y-48891115D01*
X47344000Y-48891115D01*
X47149447Y-48927723D01*
X46970761Y-49042704D01*
X46850888Y-49218144D01*
X46808715Y-49426400D01*
X46808715Y-51153600D01*
X46845323Y-51348153D01*
X46960304Y-51526839D01*
X47135744Y-51646712D01*
X47344000Y-51688885D01*
X47433822Y-51688885D01*
X47195522Y-51848112D01*
X46894511Y-52298606D01*
X46788810Y-52830000D01*
X45221000Y-52830000D01*
X45221000Y-37670000D01*
X45173425Y-37430823D01*
X45037942Y-37228058D01*
X44835177Y-37092575D01*
X44596000Y-37045000D01*
X34221000Y-37045000D01*
X34221000Y-29293091D01*
X37482490Y-29293133D01*
G36*
X-806428Y-29292637D02*
X-1869215Y-29731771D01*
X-2791291Y-30652239D01*
X-3290930Y-31855504D01*
X-3292067Y-33158380D01*
X-2794529Y-34362515D01*
X-1874061Y-35284591D01*
X-670796Y-35784230D01*
X632080Y-35785367D01*
X1836215Y-35287829D01*
X2758291Y-34367361D01*
X3257930Y-33164096D01*
X3259067Y-31861220D01*
X2761529Y-30657085D01*
X1841061Y-29735009D01*
X775759Y-29292657D01*
X29969400Y-29293036D01*
X29969400Y-115667800D01*
X30016975Y-115906977D01*
X30152458Y-116109742D01*
X30355223Y-116245225D01*
X30594400Y-116292800D01*
X107930400Y-116292800D01*
X108169577Y-116245225D01*
X108372342Y-116109742D01*
X108507825Y-115906977D01*
X108555400Y-115667800D01*
X108555400Y-97967800D01*
X116999210Y-97967800D01*
X117104911Y-98499194D01*
X117405922Y-98949688D01*
X117837111Y-99237800D01*
X117405922Y-99525912D01*
X117104911Y-99976406D01*
X116999210Y-100507800D01*
X117104911Y-101039194D01*
X117405922Y-101489688D01*
X117644222Y-101648915D01*
X117554400Y-101648915D01*
X117359847Y-101685523D01*
X117181161Y-101800504D01*
X117061288Y-101975944D01*
X117019115Y-102184200D01*
X117019115Y-103911400D01*
X117055723Y-104105953D01*
X117170704Y-104284639D01*
X117346144Y-104404512D01*
X117554400Y-104446685D01*
X119586400Y-104446685D01*
X119780953Y-104410077D01*
X119959639Y-104295096D01*
X120079512Y-104119656D01*
X120121685Y-103911400D01*
X120121685Y-102184200D01*
X120085077Y-101989647D01*
X119970096Y-101810961D01*
X119794656Y-101691088D01*
X119586400Y-101648915D01*
X119496578Y-101648915D01*
X119734878Y-101489688D01*
X120035889Y-101039194D01*
X120141590Y-100507800D01*
X120035889Y-99976406D01*
X119734878Y-99525912D01*
X119303689Y-99237800D01*
X119734878Y-98949688D01*
X120035889Y-98499194D01*
X120141590Y-97967800D01*
X120035889Y-97436406D01*
X119734878Y-96985912D01*
X119284384Y-96684901D01*
X118752990Y-96579200D01*
X118387810Y-96579200D01*
X117856416Y-96684901D01*
X117405922Y-96985912D01*
X117104911Y-97436406D01*
X116999210Y-97967800D01*
X108555400Y-97967800D01*
X108555400Y-94828800D01*
X121709400Y-94828800D01*
X121709400Y-115667800D01*
X121756975Y-115906977D01*
X121892458Y-116109742D01*
X122095223Y-116245225D01*
X122334400Y-116292800D01*
X132709400Y-116292800D01*
X132709400Y-124042900D01*
X129452185Y-124042900D01*
X129687115Y-123945829D01*
X130609191Y-123025361D01*
X131108830Y-121822096D01*
X131109967Y-120519220D01*
X130612429Y-119315085D01*
X129691961Y-118393009D01*
X128488696Y-117893370D01*
X127185820Y-117892233D01*
X125981685Y-118389771D01*
X125059609Y-119310239D01*
X124559970Y-120513504D01*
X124558833Y-121816380D01*
X125056371Y-123020515D01*
X125976839Y-123942591D01*
X126218410Y-124042900D01*
X120816000Y-124042900D01*
X120805631Y-124045000D01*
X773957Y-124042745D01*
X1836215Y-123603829D01*
X2758291Y-122683361D01*
X3257930Y-121480096D01*
X3259067Y-120177220D01*
X2761529Y-118973085D01*
X1841061Y-118051009D01*
X637796Y-117551370D01*
X-665080Y-117550233D01*
X-1869215Y-118047771D01*
X-2791291Y-118968239D01*
X-3290930Y-120171504D01*
X-3292067Y-121474380D01*
X-2794529Y-122678515D01*
X-1874061Y-123600591D01*
X-809307Y-124042715D01*
X-13780600Y-124042471D01*
X-13780600Y-121568830D01*
X-12860951Y-121568830D01*
X-12553312Y-122313372D01*
X-11984168Y-122883510D01*
X-11240165Y-123192448D01*
X-10434570Y-123193151D01*
X-9690028Y-122885512D01*
X-9119890Y-122316368D01*
X-8810952Y-121572365D01*
X-8810249Y-120766770D01*
X-9117888Y-120022228D01*
X-9687032Y-119452090D01*
X-10431035Y-119143152D01*
X-11236630Y-119142449D01*
X-11981172Y-119450088D01*
X-12551310Y-120019232D01*
X-12860248Y-120763235D01*
X-12860951Y-121568830D01*
X-13780600Y-121568830D01*
X-13780600Y-110178550D01*
X-5594700Y-110178550D01*
X-5594700Y-111150547D01*
X-5545221Y-111269998D01*
X-5453797Y-111361422D01*
X-5334346Y-111410900D01*
X-4362350Y-111410900D01*
X-4281100Y-111329650D01*
X-4281100Y-110097300D01*
X-4023100Y-110097300D01*
X-4023100Y-111329650D01*
X-3941850Y-111410900D01*
X-2969854Y-111410900D01*
X-2850403Y-111361422D01*
X-2758979Y-111269998D01*
X-2709500Y-111150547D01*
X-2709500Y-110178550D01*
X-2790750Y-110097300D01*
X-4023100Y-110097300D01*
X-4281100Y-110097300D01*
X-5513450Y-110097300D01*
X-5594700Y-110178550D01*
X-13780600Y-110178550D01*
X-13780600Y-108786053D01*
X-5594700Y-108786053D01*
X-5594700Y-109758050D01*
X-5513450Y-109839300D01*
X-4281100Y-109839300D01*
X-4281100Y-108606950D01*
X-4023100Y-108606950D01*
X-4023100Y-109839300D01*
X-2790750Y-109839300D01*
X-2709500Y-109758050D01*
X-2709500Y-108786053D01*
X-2758979Y-108666602D01*
X-2850403Y-108575178D01*
X-2969854Y-108525700D01*
X-3941850Y-108525700D01*
X-4023100Y-108606950D01*
X-4281100Y-108606950D01*
X-4362350Y-108525700D01*
X-5334346Y-108525700D01*
X-5453797Y-108575178D01*
X-5545221Y-108666602D01*
X-5594700Y-108786053D01*
X-13780600Y-108786053D01*
X-13780600Y-101384599D01*
X-194168Y-101384599D01*
X-149500Y-101492704D01*
X-149500Y-112127300D01*
X-79089Y-112481283D01*
X121426Y-112781374D01*
X7804926Y-120464874D01*
X8105017Y-120665389D01*
X8459000Y-120735800D01*
X32783845Y-120735800D01*
X32890608Y-120780132D01*
X33276299Y-120780468D01*
X33632760Y-120633182D01*
X33905723Y-120360695D01*
X34053632Y-120004492D01*
X34053968Y-119618801D01*
X33906682Y-119262340D01*
X33634195Y-118989377D01*
X33277992Y-118841468D01*
X32892301Y-118841132D01*
X32784196Y-118885800D01*
X8842148Y-118885800D01*
X5625399Y-115669051D01*
X17497548Y-115669051D01*
X17612649Y-115946959D01*
X17917030Y-116296870D01*
X18332147Y-116503664D01*
X18515400Y-116457141D01*
X18515400Y-115485800D01*
X18773400Y-115485800D01*
X18773400Y-116457141D01*
X18956653Y-116503664D01*
X19371770Y-116296870D01*
X19676151Y-115946959D01*
X19791252Y-115669051D01*
X20037548Y-115669051D01*
X20152649Y-115946959D01*
X20457030Y-116296870D01*
X20872147Y-116503664D01*
X21055400Y-116457141D01*
X21055400Y-115485800D01*
X21313400Y-115485800D01*
X21313400Y-116457141D01*
X21496653Y-116503664D01*
X21911770Y-116296870D01*
X22216151Y-115946959D01*
X22331252Y-115669051D01*
X22284210Y-115485800D01*
X21313400Y-115485800D01*
X21055400Y-115485800D01*
X20084590Y-115485800D01*
X20037548Y-115669051D01*
X19791252Y-115669051D01*
X19744210Y-115485800D01*
X18773400Y-115485800D01*
X18515400Y-115485800D01*
X17544590Y-115485800D01*
X17497548Y-115669051D01*
X5625399Y-115669051D01*
X1700500Y-111744152D01*
X1700500Y-104026199D01*
X3438032Y-104026199D01*
X3585318Y-104382660D01*
X3857805Y-104655623D01*
X4214008Y-104803532D01*
X4521243Y-104803800D01*
X4588618Y-104966860D01*
X4861105Y-105239823D01*
X5217308Y-105387732D01*
X5362957Y-105387859D01*
X5477618Y-105665360D01*
X5750105Y-105938323D01*
X6106308Y-106086232D01*
X6491999Y-106086568D01*
X6848460Y-105939282D01*
X7121423Y-105666795D01*
X7269332Y-105310592D01*
X7269452Y-105172752D01*
X13721453Y-98720752D01*
X13878613Y-98485546D01*
X13933800Y-98208100D01*
X13933800Y-95036800D01*
X17228596Y-95036800D01*
X17334297Y-95568194D01*
X17635308Y-96018688D01*
X18066497Y-96306800D01*
X17635308Y-96594912D01*
X17334297Y-97045406D01*
X17228596Y-97576800D01*
X17334297Y-98108194D01*
X17635308Y-98558688D01*
X18066497Y-98846800D01*
X17635308Y-99134912D01*
X17334297Y-99585406D01*
X17228596Y-100116800D01*
X17334297Y-100648194D01*
X17635308Y-101098688D01*
X18066497Y-101386800D01*
X17635308Y-101674912D01*
X17334297Y-102125406D01*
X17228596Y-102656800D01*
X17334297Y-103188194D01*
X17635308Y-103638688D01*
X18066497Y-103926800D01*
X17635308Y-104214912D01*
X17334297Y-104665406D01*
X17228596Y-105196800D01*
X17334297Y-105728194D01*
X17635308Y-106178688D01*
X18066497Y-106466800D01*
X17635308Y-106754912D01*
X17334297Y-107205406D01*
X17228596Y-107736800D01*
X17334297Y-108268194D01*
X17635308Y-108718688D01*
X18066497Y-109006800D01*
X17635308Y-109294912D01*
X17334297Y-109745406D01*
X17228596Y-110276800D01*
X17334297Y-110808194D01*
X17635308Y-111258688D01*
X18066497Y-111546800D01*
X17635308Y-111834912D01*
X17334297Y-112285406D01*
X17228596Y-112816800D01*
X17334297Y-113348194D01*
X17635308Y-113798688D01*
X18085802Y-114099699D01*
X18515398Y-114185151D01*
X18515398Y-114256458D01*
X18332147Y-114209936D01*
X17917030Y-114416730D01*
X17612649Y-114766641D01*
X17497548Y-115044549D01*
X17544590Y-115227800D01*
X18515400Y-115227800D01*
X18515400Y-115207800D01*
X18773400Y-115207800D01*
X18773400Y-115227800D01*
X19744210Y-115227800D01*
X19791252Y-115044549D01*
X19676151Y-114766641D01*
X19371770Y-114416730D01*
X18956653Y-114209936D01*
X18773402Y-114256458D01*
X18773402Y-114185151D01*
X19202998Y-114099699D01*
X19653492Y-113798688D01*
X19914400Y-113408212D01*
X20175308Y-113798688D01*
X20625802Y-114099699D01*
X21055398Y-114185151D01*
X21055398Y-114256458D01*
X20872147Y-114209936D01*
X20457030Y-114416730D01*
X20152649Y-114766641D01*
X20037548Y-115044549D01*
X20084590Y-115227800D01*
X21055400Y-115227800D01*
X21055400Y-115207800D01*
X21313400Y-115207800D01*
X21313400Y-115227800D01*
X22284210Y-115227800D01*
X22331252Y-115044549D01*
X22216151Y-114766641D01*
X21911770Y-114416730D01*
X21496653Y-114209936D01*
X21313402Y-114256458D01*
X21313402Y-114185151D01*
X21742998Y-114099699D01*
X22193492Y-113798688D01*
X22494503Y-113348194D01*
X22600204Y-112816800D01*
X22494503Y-112285406D01*
X22193492Y-111834912D01*
X21762303Y-111546800D01*
X22193492Y-111258688D01*
X22494503Y-110808194D01*
X22600204Y-110276800D01*
X22494503Y-109745406D01*
X22193492Y-109294912D01*
X21762303Y-109006800D01*
X22193492Y-108718688D01*
X22494503Y-108268194D01*
X22600204Y-107736800D01*
X22494503Y-107205406D01*
X22193492Y-106754912D01*
X21762303Y-106466800D01*
X22193492Y-106178688D01*
X22494503Y-105728194D01*
X22600204Y-105196800D01*
X22494503Y-104665406D01*
X22193492Y-104214912D01*
X21762303Y-103926800D01*
X22193492Y-103638688D01*
X22494503Y-103188194D01*
X22600204Y-102656800D01*
X22494503Y-102125406D01*
X22193492Y-101674912D01*
X21762303Y-101386800D01*
X22193492Y-101098688D01*
X22494503Y-100648194D01*
X22600204Y-100116800D01*
X22494503Y-99585406D01*
X22193492Y-99134912D01*
X21762303Y-98846800D01*
X22193492Y-98558688D01*
X22494503Y-98108194D01*
X22600204Y-97576800D01*
X22494503Y-97045406D01*
X22193492Y-96594912D01*
X21762303Y-96306800D01*
X22193492Y-96018688D01*
X22494503Y-95568194D01*
X22600204Y-95036800D01*
X22494503Y-94505406D01*
X22193492Y-94054912D01*
X21742998Y-93753901D01*
X21313402Y-93668449D01*
X21313402Y-93597142D01*
X21496653Y-93643664D01*
X21911770Y-93436870D01*
X22216151Y-93086959D01*
X22331252Y-92809051D01*
X22284210Y-92625800D01*
X21313400Y-92625800D01*
X21313400Y-92645800D01*
X21055400Y-92645800D01*
X21055400Y-92625800D01*
X20084590Y-92625800D01*
X20037548Y-92809051D01*
X20152649Y-93086959D01*
X20457030Y-93436870D01*
X20872147Y-93643664D01*
X21055398Y-93597142D01*
X21055398Y-93668449D01*
X20625802Y-93753901D01*
X20175308Y-94054912D01*
X19914400Y-94445388D01*
X19653492Y-94054912D01*
X19202998Y-93753901D01*
X18858621Y-93685400D01*
X19572646Y-93685400D01*
X19692097Y-93635922D01*
X19783521Y-93544498D01*
X19833000Y-93425047D01*
X19833000Y-92707050D01*
X19751750Y-92625800D01*
X18773400Y-92625800D01*
X18773400Y-92645800D01*
X18515400Y-92645800D01*
X18515400Y-92625800D01*
X17537050Y-92625800D01*
X17455800Y-92707050D01*
X17455800Y-93425047D01*
X17505279Y-93544498D01*
X17596703Y-93635922D01*
X17716154Y-93685400D01*
X18430179Y-93685400D01*
X18085802Y-93753901D01*
X17635308Y-94054912D01*
X17334297Y-94505406D01*
X17228596Y-95036800D01*
X13933800Y-95036800D01*
X13933800Y-91568553D01*
X17455800Y-91568553D01*
X17455800Y-92286550D01*
X17537050Y-92367800D01*
X18515400Y-92367800D01*
X18515400Y-91389450D01*
X18773400Y-91389450D01*
X18773400Y-92367800D01*
X19751750Y-92367800D01*
X19833000Y-92286550D01*
X19833000Y-92184549D01*
X20037548Y-92184549D01*
X20084590Y-92367800D01*
X21055400Y-92367800D01*
X21055400Y-91396459D01*
X21313400Y-91396459D01*
X21313400Y-92367800D01*
X22284210Y-92367800D01*
X22331252Y-92184549D01*
X22216151Y-91906641D01*
X21911770Y-91556730D01*
X21496653Y-91349936D01*
X21313400Y-91396459D01*
X21055400Y-91396459D01*
X20872147Y-91349936D01*
X20457030Y-91556730D01*
X20152649Y-91906641D01*
X20037548Y-92184549D01*
X19833000Y-92184549D01*
X19833000Y-91568553D01*
X19783521Y-91449102D01*
X19692097Y-91357678D01*
X19572646Y-91308200D01*
X18854650Y-91308200D01*
X18773400Y-91389450D01*
X18515400Y-91389450D01*
X18434150Y-91308200D01*
X17716154Y-91308200D01*
X17596703Y-91357678D01*
X17505279Y-91449102D01*
X17455800Y-91568553D01*
X13933800Y-91568553D01*
X13933800Y-74978000D01*
X13878613Y-74700555D01*
X13878613Y-74700554D01*
X13721452Y-74465348D01*
X11182416Y-71926312D01*
X11247204Y-71600600D01*
X11141503Y-71069206D01*
X10840492Y-70618712D01*
X10389998Y-70317701D01*
X9960402Y-70232249D01*
X9960402Y-70160942D01*
X10143653Y-70207464D01*
X10558770Y-70000670D01*
X10863151Y-69650759D01*
X10978252Y-69372851D01*
X10931210Y-69189600D01*
X9960400Y-69189600D01*
X9960400Y-69209600D01*
X9702400Y-69209600D01*
X9702400Y-69189600D01*
X8731590Y-69189600D01*
X8684548Y-69372851D01*
X8799649Y-69650759D01*
X9104030Y-70000670D01*
X9519147Y-70207464D01*
X9702398Y-70160942D01*
X9702398Y-70232249D01*
X9272802Y-70317701D01*
X8822308Y-70618712D01*
X8561400Y-71009188D01*
X8300492Y-70618712D01*
X7849998Y-70317701D01*
X7420402Y-70232249D01*
X7420402Y-70160942D01*
X7603653Y-70207464D01*
X8018770Y-70000670D01*
X8323151Y-69650759D01*
X8438252Y-69372851D01*
X8391210Y-69189600D01*
X7420400Y-69189600D01*
X7420400Y-69209600D01*
X7162400Y-69209600D01*
X7162400Y-69189600D01*
X6191590Y-69189600D01*
X6144548Y-69372851D01*
X6259649Y-69650759D01*
X6564030Y-70000670D01*
X6979147Y-70207464D01*
X7162398Y-70160942D01*
X7162398Y-70232249D01*
X6732802Y-70317701D01*
X6282308Y-70618712D01*
X5981297Y-71069206D01*
X5875596Y-71600600D01*
X5981297Y-72131994D01*
X6282308Y-72582488D01*
X6713497Y-72870600D01*
X6282308Y-73158712D01*
X5981297Y-73609206D01*
X5875596Y-74140600D01*
X5981297Y-74671994D01*
X6282308Y-75122488D01*
X6713497Y-75410600D01*
X6282308Y-75698712D01*
X5981297Y-76149206D01*
X5875596Y-76680600D01*
X5981297Y-77211994D01*
X6282308Y-77662488D01*
X6713497Y-77950600D01*
X6282308Y-78238712D01*
X5981297Y-78689206D01*
X5875596Y-79220600D01*
X5981297Y-79751994D01*
X6282308Y-80202488D01*
X6713497Y-80490600D01*
X6282308Y-80778712D01*
X5981297Y-81229206D01*
X5875596Y-81760600D01*
X5981297Y-82291994D01*
X6282308Y-82742488D01*
X6713497Y-83030600D01*
X6282308Y-83318712D01*
X5981297Y-83769206D01*
X5875596Y-84300600D01*
X5940384Y-84626311D01*
X4644348Y-85922348D01*
X4487187Y-86157554D01*
X4487187Y-86157555D01*
X4432000Y-86435000D01*
X4432000Y-102784595D01*
X4351945Y-102864651D01*
X4215701Y-102864532D01*
X3859240Y-103011818D01*
X3586277Y-103284305D01*
X3438368Y-103640508D01*
X3438032Y-104026199D01*
X1700500Y-104026199D01*
X1700500Y-101493055D01*
X1744832Y-101386292D01*
X1745168Y-101000601D01*
X1700500Y-100892496D01*
X1700500Y-63980600D01*
X5875596Y-63980600D01*
X5981297Y-64511994D01*
X6282308Y-64962488D01*
X6713497Y-65250600D01*
X6282308Y-65538712D01*
X5981297Y-65989206D01*
X5875596Y-66520600D01*
X5981297Y-67051994D01*
X6282308Y-67502488D01*
X6732802Y-67803499D01*
X7162398Y-67888951D01*
X7162398Y-67960258D01*
X6979147Y-67913736D01*
X6564030Y-68120530D01*
X6259649Y-68470441D01*
X6144548Y-68748349D01*
X6191590Y-68931600D01*
X7162400Y-68931600D01*
X7162400Y-68911600D01*
X7420400Y-68911600D01*
X7420400Y-68931600D01*
X8391210Y-68931600D01*
X8438252Y-68748349D01*
X8323151Y-68470441D01*
X8018770Y-68120530D01*
X7603653Y-67913736D01*
X7420402Y-67960258D01*
X7420402Y-67888951D01*
X7849998Y-67803499D01*
X8300492Y-67502488D01*
X8561400Y-67112012D01*
X8822308Y-67502488D01*
X9272802Y-67803499D01*
X9702398Y-67888951D01*
X9702398Y-67960258D01*
X9519147Y-67913736D01*
X9104030Y-68120530D01*
X8799649Y-68470441D01*
X8684548Y-68748349D01*
X8731590Y-68931600D01*
X9702400Y-68931600D01*
X9702400Y-68911600D01*
X9960400Y-68911600D01*
X9960400Y-68931600D01*
X10931210Y-68931600D01*
X10978252Y-68748349D01*
X10863151Y-68470441D01*
X10558770Y-68120530D01*
X10143653Y-67913736D01*
X9960402Y-67960258D01*
X9960402Y-67888951D01*
X10389998Y-67803499D01*
X10840492Y-67502488D01*
X11141503Y-67051994D01*
X11247204Y-66520600D01*
X11141503Y-65989206D01*
X10840492Y-65538712D01*
X10409303Y-65250600D01*
X10840492Y-64962488D01*
X11141503Y-64511994D01*
X11247204Y-63980600D01*
X11182416Y-63654888D01*
X11841852Y-62995452D01*
X11999013Y-62760246D01*
X12016228Y-62673699D01*
X12054200Y-62482800D01*
X12054200Y-48690800D01*
X17228596Y-48690800D01*
X17334297Y-49222194D01*
X17635308Y-49672688D01*
X18066497Y-49960800D01*
X17635308Y-50248912D01*
X17334297Y-50699406D01*
X17228596Y-51230800D01*
X17334297Y-51762194D01*
X17635308Y-52212688D01*
X18066497Y-52500800D01*
X17635308Y-52788912D01*
X17334297Y-53239406D01*
X17228596Y-53770800D01*
X17334297Y-54302194D01*
X17635308Y-54752688D01*
X18066497Y-55040800D01*
X17635308Y-55328912D01*
X17334297Y-55779406D01*
X17228596Y-56310800D01*
X17334297Y-56842194D01*
X17635308Y-57292688D01*
X18066497Y-57580800D01*
X17635308Y-57868912D01*
X17334297Y-58319406D01*
X17228596Y-58850800D01*
X17334297Y-59382194D01*
X17635308Y-59832688D01*
X18066497Y-60120800D01*
X17635308Y-60408912D01*
X17334297Y-60859406D01*
X17228596Y-61390800D01*
X17334297Y-61922194D01*
X17635308Y-62372688D01*
X18066497Y-62660800D01*
X17635308Y-62948912D01*
X17334297Y-63399406D01*
X17228596Y-63930800D01*
X17334297Y-64462194D01*
X17635308Y-64912688D01*
X18066497Y-65200800D01*
X17635308Y-65488912D01*
X17334297Y-65939406D01*
X17228596Y-66470800D01*
X17334297Y-67002194D01*
X17635308Y-67452688D01*
X18066497Y-67740800D01*
X17635308Y-68028912D01*
X17334297Y-68479406D01*
X17228596Y-69010800D01*
X17334297Y-69542194D01*
X17635308Y-69992688D01*
X18085802Y-70293699D01*
X18617196Y-70399400D01*
X18671604Y-70399400D01*
X19202998Y-70293699D01*
X19653492Y-69992688D01*
X19914400Y-69602212D01*
X20175308Y-69992688D01*
X20625802Y-70293699D01*
X21157196Y-70399400D01*
X21211604Y-70399400D01*
X21742998Y-70293699D01*
X22193492Y-69992688D01*
X22494503Y-69542194D01*
X22600204Y-69010800D01*
X22494503Y-68479406D01*
X22193492Y-68028912D01*
X21762303Y-67740800D01*
X22193492Y-67452688D01*
X22494503Y-67002194D01*
X22600204Y-66470800D01*
X22494503Y-65939406D01*
X22193492Y-65488912D01*
X21762303Y-65200800D01*
X22193492Y-64912688D01*
X22494503Y-64462194D01*
X22600204Y-63930800D01*
X22494503Y-63399406D01*
X22193492Y-62948912D01*
X21762303Y-62660800D01*
X22193492Y-62372688D01*
X22494503Y-61922194D01*
X22600204Y-61390800D01*
X22494503Y-60859406D01*
X22193492Y-60408912D01*
X21762303Y-60120800D01*
X22193492Y-59832688D01*
X22494503Y-59382194D01*
X22600204Y-58850800D01*
X22494503Y-58319406D01*
X22193492Y-57868912D01*
X21762303Y-57580800D01*
X22193492Y-57292688D01*
X22494503Y-56842194D01*
X22600204Y-56310800D01*
X22494503Y-55779406D01*
X22193492Y-55328912D01*
X21762303Y-55040800D01*
X22193492Y-54752688D01*
X22494503Y-54302194D01*
X22600204Y-53770800D01*
X22494503Y-53239406D01*
X22193492Y-52788912D01*
X21762303Y-52500800D01*
X22193492Y-52212688D01*
X22494503Y-51762194D01*
X22600204Y-51230800D01*
X22494503Y-50699406D01*
X22193492Y-50248912D01*
X21762303Y-49960800D01*
X22193492Y-49672688D01*
X22494503Y-49222194D01*
X22600204Y-48690800D01*
X22494503Y-48159406D01*
X22193492Y-47708912D01*
X21742998Y-47407901D01*
X21313402Y-47322449D01*
X21313402Y-47251142D01*
X21496653Y-47297664D01*
X21911770Y-47090870D01*
X22216151Y-46740959D01*
X22331252Y-46463051D01*
X22284210Y-46279800D01*
X21313400Y-46279800D01*
X21313400Y-46299800D01*
X21055400Y-46299800D01*
X21055400Y-46279800D01*
X20084590Y-46279800D01*
X20037548Y-46463051D01*
X20152649Y-46740959D01*
X20457030Y-47090870D01*
X20872147Y-47297664D01*
X21055398Y-47251142D01*
X21055398Y-47322449D01*
X20625802Y-47407901D01*
X20175308Y-47708912D01*
X19914400Y-48099388D01*
X19653492Y-47708912D01*
X19202998Y-47407901D01*
X18773402Y-47322449D01*
X18773402Y-47251142D01*
X18956653Y-47297664D01*
X19371770Y-47090870D01*
X19676151Y-46740959D01*
X19791252Y-46463051D01*
X19744210Y-46279800D01*
X18773400Y-46279800D01*
X18773400Y-46299800D01*
X18515400Y-46299800D01*
X18515400Y-46279800D01*
X17544590Y-46279800D01*
X17497548Y-46463051D01*
X17612649Y-46740959D01*
X17917030Y-47090870D01*
X18332147Y-47297664D01*
X18515398Y-47251142D01*
X18515398Y-47322449D01*
X18085802Y-47407901D01*
X17635308Y-47708912D01*
X17334297Y-48159406D01*
X17228596Y-48690800D01*
X12054200Y-48690800D01*
X12054200Y-46933704D01*
X13369405Y-45618500D01*
X17588686Y-45618500D01*
X17497548Y-45838549D01*
X17544590Y-46021800D01*
X18515400Y-46021800D01*
X18515400Y-46001800D01*
X18773400Y-46001800D01*
X18773400Y-46021800D01*
X19744210Y-46021800D01*
X19791252Y-45838549D01*
X19700114Y-45618500D01*
X20128686Y-45618500D01*
X20037548Y-45838549D01*
X20084590Y-46021800D01*
X21055400Y-46021800D01*
X21055400Y-46001800D01*
X21313400Y-46001800D01*
X21313400Y-46021800D01*
X22284210Y-46021800D01*
X22331252Y-45838549D01*
X22236125Y-45608868D01*
X22419115Y-45572469D01*
X22465146Y-45563313D01*
X22700352Y-45406152D01*
X23373452Y-44733053D01*
X23530612Y-44497846D01*
X23530613Y-44497845D01*
X23585800Y-44220400D01*
X23585800Y-42747200D01*
X23530613Y-42469755D01*
X23530613Y-42469754D01*
X23373453Y-42234548D01*
X22535416Y-41396511D01*
X22600204Y-41070800D01*
X22494503Y-40539406D01*
X22193492Y-40088912D01*
X21762303Y-39800800D01*
X22193492Y-39512688D01*
X22494503Y-39062194D01*
X22600204Y-38530800D01*
X22494503Y-37999406D01*
X22193492Y-37548912D01*
X21742998Y-37247901D01*
X21211604Y-37142200D01*
X21157196Y-37142200D01*
X20625802Y-37247901D01*
X20175308Y-37548912D01*
X20043285Y-37746498D01*
X20043285Y-37667200D01*
X20006677Y-37472647D01*
X19891696Y-37293961D01*
X19716256Y-37174088D01*
X19508000Y-37131915D01*
X17780800Y-37131915D01*
X17586247Y-37168523D01*
X17407561Y-37283504D01*
X17287688Y-37458944D01*
X17245515Y-37667200D01*
X17245515Y-37805800D01*
X9373400Y-37805800D01*
X9095954Y-37860987D01*
X8860748Y-38018147D01*
X6778748Y-40100148D01*
X6621587Y-40335354D01*
X6621587Y-40335355D01*
X6566400Y-40612800D01*
X6566400Y-60041715D01*
X6427800Y-60041715D01*
X6233247Y-60078323D01*
X6054561Y-60193304D01*
X5934688Y-60368744D01*
X5892515Y-60577000D01*
X5892515Y-62304200D01*
X5929123Y-62498753D01*
X6044104Y-62677439D01*
X6219544Y-62797312D01*
X6427800Y-62839485D01*
X6520608Y-62839485D01*
X6282308Y-62998712D01*
X5981297Y-63449206D01*
X5875596Y-63980600D01*
X1700500Y-63980600D01*
X1700500Y-58217948D01*
X3791774Y-56126674D01*
X3992289Y-55826583D01*
X4062700Y-55472600D01*
X4062700Y-54261755D01*
X4107032Y-54154992D01*
X4107368Y-53769301D01*
X3960082Y-53412840D01*
X3687595Y-53139877D01*
X3331392Y-52991968D01*
X2945701Y-52991632D01*
X2589240Y-53138918D01*
X2316277Y-53411405D01*
X2168368Y-53767608D01*
X2168032Y-54153299D01*
X2212700Y-54261404D01*
X2212700Y-55089452D01*
X121426Y-57180726D01*
X-79089Y-57480817D01*
X-79089Y-57480818D01*
X-149500Y-57834800D01*
X-149500Y-100892145D01*
X-193832Y-100998908D01*
X-194168Y-101384599D01*
X-13780600Y-101384599D01*
X-13780600Y-41344550D01*
X-6763100Y-41344550D01*
X-6763100Y-42316547D01*
X-6713621Y-42435998D01*
X-6622197Y-42527422D01*
X-6502746Y-42576900D01*
X-5530750Y-42576900D01*
X-5449500Y-42495650D01*
X-5449500Y-41263300D01*
X-5191500Y-41263300D01*
X-5191500Y-42495650D01*
X-5110250Y-42576900D01*
X-4138254Y-42576900D01*
X-4018803Y-42527422D01*
X-3927379Y-42435998D01*
X-3877900Y-42316547D01*
X-3877900Y-41344550D01*
X-3959150Y-41263300D01*
X-5191500Y-41263300D01*
X-5449500Y-41263300D01*
X-6681850Y-41263300D01*
X-6763100Y-41344550D01*
X-13780600Y-41344550D01*
X-13780600Y-39952053D01*
X-6763100Y-39952053D01*
X-6763100Y-40924050D01*
X-6681850Y-41005300D01*
X-5449500Y-41005300D01*
X-5449500Y-39772950D01*
X-5191500Y-39772950D01*
X-5191500Y-41005300D01*
X-3959150Y-41005300D01*
X-3877900Y-40924050D01*
X-3877900Y-39952053D01*
X-3927379Y-39832602D01*
X-4018803Y-39741178D01*
X-4138254Y-39691700D01*
X-5110250Y-39691700D01*
X-5191500Y-39772950D01*
X-5449500Y-39772950D01*
X-5530750Y-39691700D01*
X-6502746Y-39691700D01*
X-6622197Y-39741178D01*
X-6713621Y-39832602D01*
X-6763100Y-39952053D01*
X-13780600Y-39952053D01*
X-13780600Y-32568830D01*
X-12860951Y-32568830D01*
X-12553312Y-33313372D01*
X-11984168Y-33883510D01*
X-11240165Y-34192448D01*
X-10434570Y-34193151D01*
X-9690028Y-33885512D01*
X-9119890Y-33316368D01*
X-8810952Y-32572365D01*
X-8810249Y-31766770D01*
X-9117888Y-31022228D01*
X-9687032Y-30452090D01*
X-10431035Y-30143152D01*
X-11236630Y-30142449D01*
X-11981172Y-30450088D01*
X-12551310Y-31019232D01*
X-12860248Y-31763235D01*
X-12860951Y-32568830D01*
X-13780600Y-32568830D01*
X-13780600Y-29292468D01*
X-806428Y-29292637D01*
X-806428Y-29292637D01*
G37*
X-806428Y-29292637D02*
X-1869215Y-29731771D01*
X-2791291Y-30652239D01*
X-3290930Y-31855504D01*
X-3292067Y-33158380D01*
X-2794529Y-34362515D01*
X-1874061Y-35284591D01*
X-670796Y-35784230D01*
X632080Y-35785367D01*
X1836215Y-35287829D01*
X2758291Y-34367361D01*
X3257930Y-33164096D01*
X3259067Y-31861220D01*
X2761529Y-30657085D01*
X1841061Y-29735009D01*
X775759Y-29292657D01*
X29969400Y-29293036D01*
X29969400Y-115667800D01*
X30016975Y-115906977D01*
X30152458Y-116109742D01*
X30355223Y-116245225D01*
X30594400Y-116292800D01*
X107930400Y-116292800D01*
X108169577Y-116245225D01*
X108372342Y-116109742D01*
X108507825Y-115906977D01*
X108555400Y-115667800D01*
X108555400Y-97967800D01*
X116999210Y-97967800D01*
X117104911Y-98499194D01*
X117405922Y-98949688D01*
X117837111Y-99237800D01*
X117405922Y-99525912D01*
X117104911Y-99976406D01*
X116999210Y-100507800D01*
X117104911Y-101039194D01*
X117405922Y-101489688D01*
X117644222Y-101648915D01*
X117554400Y-101648915D01*
X117359847Y-101685523D01*
X117181161Y-101800504D01*
X117061288Y-101975944D01*
X117019115Y-102184200D01*
X117019115Y-103911400D01*
X117055723Y-104105953D01*
X117170704Y-104284639D01*
X117346144Y-104404512D01*
X117554400Y-104446685D01*
X119586400Y-104446685D01*
X119780953Y-104410077D01*
X119959639Y-104295096D01*
X120079512Y-104119656D01*
X120121685Y-103911400D01*
X120121685Y-102184200D01*
X120085077Y-101989647D01*
X119970096Y-101810961D01*
X119794656Y-101691088D01*
X119586400Y-101648915D01*
X119496578Y-101648915D01*
X119734878Y-101489688D01*
X120035889Y-101039194D01*
X120141590Y-100507800D01*
X120035889Y-99976406D01*
X119734878Y-99525912D01*
X119303689Y-99237800D01*
X119734878Y-98949688D01*
X120035889Y-98499194D01*
X120141590Y-97967800D01*
X120035889Y-97436406D01*
X119734878Y-96985912D01*
X119284384Y-96684901D01*
X118752990Y-96579200D01*
X118387810Y-96579200D01*
X117856416Y-96684901D01*
X117405922Y-96985912D01*
X117104911Y-97436406D01*
X116999210Y-97967800D01*
X108555400Y-97967800D01*
X108555400Y-94828800D01*
X121709400Y-94828800D01*
X121709400Y-115667800D01*
X121756975Y-115906977D01*
X121892458Y-116109742D01*
X122095223Y-116245225D01*
X122334400Y-116292800D01*
X132709400Y-116292800D01*
X132709400Y-124042900D01*
X129452185Y-124042900D01*
X129687115Y-123945829D01*
X130609191Y-123025361D01*
X131108830Y-121822096D01*
X131109967Y-120519220D01*
X130612429Y-119315085D01*
X129691961Y-118393009D01*
X128488696Y-117893370D01*
X127185820Y-117892233D01*
X125981685Y-118389771D01*
X125059609Y-119310239D01*
X124559970Y-120513504D01*
X124558833Y-121816380D01*
X125056371Y-123020515D01*
X125976839Y-123942591D01*
X126218410Y-124042900D01*
X120816000Y-124042900D01*
X120805631Y-124045000D01*
X773957Y-124042745D01*
X1836215Y-123603829D01*
X2758291Y-122683361D01*
X3257930Y-121480096D01*
X3259067Y-120177220D01*
X2761529Y-118973085D01*
X1841061Y-118051009D01*
X637796Y-117551370D01*
X-665080Y-117550233D01*
X-1869215Y-118047771D01*
X-2791291Y-118968239D01*
X-3290930Y-120171504D01*
X-3292067Y-121474380D01*
X-2794529Y-122678515D01*
X-1874061Y-123600591D01*
X-809307Y-124042715D01*
X-13780600Y-124042471D01*
X-13780600Y-121568830D01*
X-12860951Y-121568830D01*
X-12553312Y-122313372D01*
X-11984168Y-122883510D01*
X-11240165Y-123192448D01*
X-10434570Y-123193151D01*
X-9690028Y-122885512D01*
X-9119890Y-122316368D01*
X-8810952Y-121572365D01*
X-8810249Y-120766770D01*
X-9117888Y-120022228D01*
X-9687032Y-119452090D01*
X-10431035Y-119143152D01*
X-11236630Y-119142449D01*
X-11981172Y-119450088D01*
X-12551310Y-120019232D01*
X-12860248Y-120763235D01*
X-12860951Y-121568830D01*
X-13780600Y-121568830D01*
X-13780600Y-110178550D01*
X-5594700Y-110178550D01*
X-5594700Y-111150547D01*
X-5545221Y-111269998D01*
X-5453797Y-111361422D01*
X-5334346Y-111410900D01*
X-4362350Y-111410900D01*
X-4281100Y-111329650D01*
X-4281100Y-110097300D01*
X-4023100Y-110097300D01*
X-4023100Y-111329650D01*
X-3941850Y-111410900D01*
X-2969854Y-111410900D01*
X-2850403Y-111361422D01*
X-2758979Y-111269998D01*
X-2709500Y-111150547D01*
X-2709500Y-110178550D01*
X-2790750Y-110097300D01*
X-4023100Y-110097300D01*
X-4281100Y-110097300D01*
X-5513450Y-110097300D01*
X-5594700Y-110178550D01*
X-13780600Y-110178550D01*
X-13780600Y-108786053D01*
X-5594700Y-108786053D01*
X-5594700Y-109758050D01*
X-5513450Y-109839300D01*
X-4281100Y-109839300D01*
X-4281100Y-108606950D01*
X-4023100Y-108606950D01*
X-4023100Y-109839300D01*
X-2790750Y-109839300D01*
X-2709500Y-109758050D01*
X-2709500Y-108786053D01*
X-2758979Y-108666602D01*
X-2850403Y-108575178D01*
X-2969854Y-108525700D01*
X-3941850Y-108525700D01*
X-4023100Y-108606950D01*
X-4281100Y-108606950D01*
X-4362350Y-108525700D01*
X-5334346Y-108525700D01*
X-5453797Y-108575178D01*
X-5545221Y-108666602D01*
X-5594700Y-108786053D01*
X-13780600Y-108786053D01*
X-13780600Y-101384599D01*
X-194168Y-101384599D01*
X-149500Y-101492704D01*
X-149500Y-112127300D01*
X-79089Y-112481283D01*
X121426Y-112781374D01*
X7804926Y-120464874D01*
X8105017Y-120665389D01*
X8459000Y-120735800D01*
X32783845Y-120735800D01*
X32890608Y-120780132D01*
X33276299Y-120780468D01*
X33632760Y-120633182D01*
X33905723Y-120360695D01*
X34053632Y-120004492D01*
X34053968Y-119618801D01*
X33906682Y-119262340D01*
X33634195Y-118989377D01*
X33277992Y-118841468D01*
X32892301Y-118841132D01*
X32784196Y-118885800D01*
X8842148Y-118885800D01*
X5625399Y-115669051D01*
X17497548Y-115669051D01*
X17612649Y-115946959D01*
X17917030Y-116296870D01*
X18332147Y-116503664D01*
X18515400Y-116457141D01*
X18515400Y-115485800D01*
X18773400Y-115485800D01*
X18773400Y-116457141D01*
X18956653Y-116503664D01*
X19371770Y-116296870D01*
X19676151Y-115946959D01*
X19791252Y-115669051D01*
X20037548Y-115669051D01*
X20152649Y-115946959D01*
X20457030Y-116296870D01*
X20872147Y-116503664D01*
X21055400Y-116457141D01*
X21055400Y-115485800D01*
X21313400Y-115485800D01*
X21313400Y-116457141D01*
X21496653Y-116503664D01*
X21911770Y-116296870D01*
X22216151Y-115946959D01*
X22331252Y-115669051D01*
X22284210Y-115485800D01*
X21313400Y-115485800D01*
X21055400Y-115485800D01*
X20084590Y-115485800D01*
X20037548Y-115669051D01*
X19791252Y-115669051D01*
X19744210Y-115485800D01*
X18773400Y-115485800D01*
X18515400Y-115485800D01*
X17544590Y-115485800D01*
X17497548Y-115669051D01*
X5625399Y-115669051D01*
X1700500Y-111744152D01*
X1700500Y-104026199D01*
X3438032Y-104026199D01*
X3585318Y-104382660D01*
X3857805Y-104655623D01*
X4214008Y-104803532D01*
X4521243Y-104803800D01*
X4588618Y-104966860D01*
X4861105Y-105239823D01*
X5217308Y-105387732D01*
X5362957Y-105387859D01*
X5477618Y-105665360D01*
X5750105Y-105938323D01*
X6106308Y-106086232D01*
X6491999Y-106086568D01*
X6848460Y-105939282D01*
X7121423Y-105666795D01*
X7269332Y-105310592D01*
X7269452Y-105172752D01*
X13721453Y-98720752D01*
X13878613Y-98485546D01*
X13933800Y-98208100D01*
X13933800Y-95036800D01*
X17228596Y-95036800D01*
X17334297Y-95568194D01*
X17635308Y-96018688D01*
X18066497Y-96306800D01*
X17635308Y-96594912D01*
X17334297Y-97045406D01*
X17228596Y-97576800D01*
X17334297Y-98108194D01*
X17635308Y-98558688D01*
X18066497Y-98846800D01*
X17635308Y-99134912D01*
X17334297Y-99585406D01*
X17228596Y-100116800D01*
X17334297Y-100648194D01*
X17635308Y-101098688D01*
X18066497Y-101386800D01*
X17635308Y-101674912D01*
X17334297Y-102125406D01*
X17228596Y-102656800D01*
X17334297Y-103188194D01*
X17635308Y-103638688D01*
X18066497Y-103926800D01*
X17635308Y-104214912D01*
X17334297Y-104665406D01*
X17228596Y-105196800D01*
X17334297Y-105728194D01*
X17635308Y-106178688D01*
X18066497Y-106466800D01*
X17635308Y-106754912D01*
X17334297Y-107205406D01*
X17228596Y-107736800D01*
X17334297Y-108268194D01*
X17635308Y-108718688D01*
X18066497Y-109006800D01*
X17635308Y-109294912D01*
X17334297Y-109745406D01*
X17228596Y-110276800D01*
X17334297Y-110808194D01*
X17635308Y-111258688D01*
X18066497Y-111546800D01*
X17635308Y-111834912D01*
X17334297Y-112285406D01*
X17228596Y-112816800D01*
X17334297Y-113348194D01*
X17635308Y-113798688D01*
X18085802Y-114099699D01*
X18515398Y-114185151D01*
X18515398Y-114256458D01*
X18332147Y-114209936D01*
X17917030Y-114416730D01*
X17612649Y-114766641D01*
X17497548Y-115044549D01*
X17544590Y-115227800D01*
X18515400Y-115227800D01*
X18515400Y-115207800D01*
X18773400Y-115207800D01*
X18773400Y-115227800D01*
X19744210Y-115227800D01*
X19791252Y-115044549D01*
X19676151Y-114766641D01*
X19371770Y-114416730D01*
X18956653Y-114209936D01*
X18773402Y-114256458D01*
X18773402Y-114185151D01*
X19202998Y-114099699D01*
X19653492Y-113798688D01*
X19914400Y-113408212D01*
X20175308Y-113798688D01*
X20625802Y-114099699D01*
X21055398Y-114185151D01*
X21055398Y-114256458D01*
X20872147Y-114209936D01*
X20457030Y-114416730D01*
X20152649Y-114766641D01*
X20037548Y-115044549D01*
X20084590Y-115227800D01*
X21055400Y-115227800D01*
X21055400Y-115207800D01*
X21313400Y-115207800D01*
X21313400Y-115227800D01*
X22284210Y-115227800D01*
X22331252Y-115044549D01*
X22216151Y-114766641D01*
X21911770Y-114416730D01*
X21496653Y-114209936D01*
X21313402Y-114256458D01*
X21313402Y-114185151D01*
X21742998Y-114099699D01*
X22193492Y-113798688D01*
X22494503Y-113348194D01*
X22600204Y-112816800D01*
X22494503Y-112285406D01*
X22193492Y-111834912D01*
X21762303Y-111546800D01*
X22193492Y-111258688D01*
X22494503Y-110808194D01*
X22600204Y-110276800D01*
X22494503Y-109745406D01*
X22193492Y-109294912D01*
X21762303Y-109006800D01*
X22193492Y-108718688D01*
X22494503Y-108268194D01*
X22600204Y-107736800D01*
X22494503Y-107205406D01*
X22193492Y-106754912D01*
X21762303Y-106466800D01*
X22193492Y-106178688D01*
X22494503Y-105728194D01*
X22600204Y-105196800D01*
X22494503Y-104665406D01*
X22193492Y-104214912D01*
X21762303Y-103926800D01*
X22193492Y-103638688D01*
X22494503Y-103188194D01*
X22600204Y-102656800D01*
X22494503Y-102125406D01*
X22193492Y-101674912D01*
X21762303Y-101386800D01*
X22193492Y-101098688D01*
X22494503Y-100648194D01*
X22600204Y-100116800D01*
X22494503Y-99585406D01*
X22193492Y-99134912D01*
X21762303Y-98846800D01*
X22193492Y-98558688D01*
X22494503Y-98108194D01*
X22600204Y-97576800D01*
X22494503Y-97045406D01*
X22193492Y-96594912D01*
X21762303Y-96306800D01*
X22193492Y-96018688D01*
X22494503Y-95568194D01*
X22600204Y-95036800D01*
X22494503Y-94505406D01*
X22193492Y-94054912D01*
X21742998Y-93753901D01*
X21313402Y-93668449D01*
X21313402Y-93597142D01*
X21496653Y-93643664D01*
X21911770Y-93436870D01*
X22216151Y-93086959D01*
X22331252Y-92809051D01*
X22284210Y-92625800D01*
X21313400Y-92625800D01*
X21313400Y-92645800D01*
X21055400Y-92645800D01*
X21055400Y-92625800D01*
X20084590Y-92625800D01*
X20037548Y-92809051D01*
X20152649Y-93086959D01*
X20457030Y-93436870D01*
X20872147Y-93643664D01*
X21055398Y-93597142D01*
X21055398Y-93668449D01*
X20625802Y-93753901D01*
X20175308Y-94054912D01*
X19914400Y-94445388D01*
X19653492Y-94054912D01*
X19202998Y-93753901D01*
X18858621Y-93685400D01*
X19572646Y-93685400D01*
X19692097Y-93635922D01*
X19783521Y-93544498D01*
X19833000Y-93425047D01*
X19833000Y-92707050D01*
X19751750Y-92625800D01*
X18773400Y-92625800D01*
X18773400Y-92645800D01*
X18515400Y-92645800D01*
X18515400Y-92625800D01*
X17537050Y-92625800D01*
X17455800Y-92707050D01*
X17455800Y-93425047D01*
X17505279Y-93544498D01*
X17596703Y-93635922D01*
X17716154Y-93685400D01*
X18430179Y-93685400D01*
X18085802Y-93753901D01*
X17635308Y-94054912D01*
X17334297Y-94505406D01*
X17228596Y-95036800D01*
X13933800Y-95036800D01*
X13933800Y-91568553D01*
X17455800Y-91568553D01*
X17455800Y-92286550D01*
X17537050Y-92367800D01*
X18515400Y-92367800D01*
X18515400Y-91389450D01*
X18773400Y-91389450D01*
X18773400Y-92367800D01*
X19751750Y-92367800D01*
X19833000Y-92286550D01*
X19833000Y-92184549D01*
X20037548Y-92184549D01*
X20084590Y-92367800D01*
X21055400Y-92367800D01*
X21055400Y-91396459D01*
X21313400Y-91396459D01*
X21313400Y-92367800D01*
X22284210Y-92367800D01*
X22331252Y-92184549D01*
X22216151Y-91906641D01*
X21911770Y-91556730D01*
X21496653Y-91349936D01*
X21313400Y-91396459D01*
X21055400Y-91396459D01*
X20872147Y-91349936D01*
X20457030Y-91556730D01*
X20152649Y-91906641D01*
X20037548Y-92184549D01*
X19833000Y-92184549D01*
X19833000Y-91568553D01*
X19783521Y-91449102D01*
X19692097Y-91357678D01*
X19572646Y-91308200D01*
X18854650Y-91308200D01*
X18773400Y-91389450D01*
X18515400Y-91389450D01*
X18434150Y-91308200D01*
X17716154Y-91308200D01*
X17596703Y-91357678D01*
X17505279Y-91449102D01*
X17455800Y-91568553D01*
X13933800Y-91568553D01*
X13933800Y-74978000D01*
X13878613Y-74700555D01*
X13878613Y-74700554D01*
X13721452Y-74465348D01*
X11182416Y-71926312D01*
X11247204Y-71600600D01*
X11141503Y-71069206D01*
X10840492Y-70618712D01*
X10389998Y-70317701D01*
X9960402Y-70232249D01*
X9960402Y-70160942D01*
X10143653Y-70207464D01*
X10558770Y-70000670D01*
X10863151Y-69650759D01*
X10978252Y-69372851D01*
X10931210Y-69189600D01*
X9960400Y-69189600D01*
X9960400Y-69209600D01*
X9702400Y-69209600D01*
X9702400Y-69189600D01*
X8731590Y-69189600D01*
X8684548Y-69372851D01*
X8799649Y-69650759D01*
X9104030Y-70000670D01*
X9519147Y-70207464D01*
X9702398Y-70160942D01*
X9702398Y-70232249D01*
X9272802Y-70317701D01*
X8822308Y-70618712D01*
X8561400Y-71009188D01*
X8300492Y-70618712D01*
X7849998Y-70317701D01*
X7420402Y-70232249D01*
X7420402Y-70160942D01*
X7603653Y-70207464D01*
X8018770Y-70000670D01*
X8323151Y-69650759D01*
X8438252Y-69372851D01*
X8391210Y-69189600D01*
X7420400Y-69189600D01*
X7420400Y-69209600D01*
X7162400Y-69209600D01*
X7162400Y-69189600D01*
X6191590Y-69189600D01*
X6144548Y-69372851D01*
X6259649Y-69650759D01*
X6564030Y-70000670D01*
X6979147Y-70207464D01*
X7162398Y-70160942D01*
X7162398Y-70232249D01*
X6732802Y-70317701D01*
X6282308Y-70618712D01*
X5981297Y-71069206D01*
X5875596Y-71600600D01*
X5981297Y-72131994D01*
X6282308Y-72582488D01*
X6713497Y-72870600D01*
X6282308Y-73158712D01*
X5981297Y-73609206D01*
X5875596Y-74140600D01*
X5981297Y-74671994D01*
X6282308Y-75122488D01*
X6713497Y-75410600D01*
X6282308Y-75698712D01*
X5981297Y-76149206D01*
X5875596Y-76680600D01*
X5981297Y-77211994D01*
X6282308Y-77662488D01*
X6713497Y-77950600D01*
X6282308Y-78238712D01*
X5981297Y-78689206D01*
X5875596Y-79220600D01*
X5981297Y-79751994D01*
X6282308Y-80202488D01*
X6713497Y-80490600D01*
X6282308Y-80778712D01*
X5981297Y-81229206D01*
X5875596Y-81760600D01*
X5981297Y-82291994D01*
X6282308Y-82742488D01*
X6713497Y-83030600D01*
X6282308Y-83318712D01*
X5981297Y-83769206D01*
X5875596Y-84300600D01*
X5940384Y-84626311D01*
X4644348Y-85922348D01*
X4487187Y-86157554D01*
X4487187Y-86157555D01*
X4432000Y-86435000D01*
X4432000Y-102784595D01*
X4351945Y-102864651D01*
X4215701Y-102864532D01*
X3859240Y-103011818D01*
X3586277Y-103284305D01*
X3438368Y-103640508D01*
X3438032Y-104026199D01*
X1700500Y-104026199D01*
X1700500Y-101493055D01*
X1744832Y-101386292D01*
X1745168Y-101000601D01*
X1700500Y-100892496D01*
X1700500Y-63980600D01*
X5875596Y-63980600D01*
X5981297Y-64511994D01*
X6282308Y-64962488D01*
X6713497Y-65250600D01*
X6282308Y-65538712D01*
X5981297Y-65989206D01*
X5875596Y-66520600D01*
X5981297Y-67051994D01*
X6282308Y-67502488D01*
X6732802Y-67803499D01*
X7162398Y-67888951D01*
X7162398Y-67960258D01*
X6979147Y-67913736D01*
X6564030Y-68120530D01*
X6259649Y-68470441D01*
X6144548Y-68748349D01*
X6191590Y-68931600D01*
X7162400Y-68931600D01*
X7162400Y-68911600D01*
X7420400Y-68911600D01*
X7420400Y-68931600D01*
X8391210Y-68931600D01*
X8438252Y-68748349D01*
X8323151Y-68470441D01*
X8018770Y-68120530D01*
X7603653Y-67913736D01*
X7420402Y-67960258D01*
X7420402Y-67888951D01*
X7849998Y-67803499D01*
X8300492Y-67502488D01*
X8561400Y-67112012D01*
X8822308Y-67502488D01*
X9272802Y-67803499D01*
X9702398Y-67888951D01*
X9702398Y-67960258D01*
X9519147Y-67913736D01*
X9104030Y-68120530D01*
X8799649Y-68470441D01*
X8684548Y-68748349D01*
X8731590Y-68931600D01*
X9702400Y-68931600D01*
X9702400Y-68911600D01*
X9960400Y-68911600D01*
X9960400Y-68931600D01*
X10931210Y-68931600D01*
X10978252Y-68748349D01*
X10863151Y-68470441D01*
X10558770Y-68120530D01*
X10143653Y-67913736D01*
X9960402Y-67960258D01*
X9960402Y-67888951D01*
X10389998Y-67803499D01*
X10840492Y-67502488D01*
X11141503Y-67051994D01*
X11247204Y-66520600D01*
X11141503Y-65989206D01*
X10840492Y-65538712D01*
X10409303Y-65250600D01*
X10840492Y-64962488D01*
X11141503Y-64511994D01*
X11247204Y-63980600D01*
X11182416Y-63654888D01*
X11841852Y-62995452D01*
X11999013Y-62760246D01*
X12016228Y-62673699D01*
X12054200Y-62482800D01*
X12054200Y-48690800D01*
X17228596Y-48690800D01*
X17334297Y-49222194D01*
X17635308Y-49672688D01*
X18066497Y-49960800D01*
X17635308Y-50248912D01*
X17334297Y-50699406D01*
X17228596Y-51230800D01*
X17334297Y-51762194D01*
X17635308Y-52212688D01*
X18066497Y-52500800D01*
X17635308Y-52788912D01*
X17334297Y-53239406D01*
X17228596Y-53770800D01*
X17334297Y-54302194D01*
X17635308Y-54752688D01*
X18066497Y-55040800D01*
X17635308Y-55328912D01*
X17334297Y-55779406D01*
X17228596Y-56310800D01*
X17334297Y-56842194D01*
X17635308Y-57292688D01*
X18066497Y-57580800D01*
X17635308Y-57868912D01*
X17334297Y-58319406D01*
X17228596Y-58850800D01*
X17334297Y-59382194D01*
X17635308Y-59832688D01*
X18066497Y-60120800D01*
X17635308Y-60408912D01*
X17334297Y-60859406D01*
X17228596Y-61390800D01*
X17334297Y-61922194D01*
X17635308Y-62372688D01*
X18066497Y-62660800D01*
X17635308Y-62948912D01*
X17334297Y-63399406D01*
X17228596Y-63930800D01*
X17334297Y-64462194D01*
X17635308Y-64912688D01*
X18066497Y-65200800D01*
X17635308Y-65488912D01*
X17334297Y-65939406D01*
X17228596Y-66470800D01*
X17334297Y-67002194D01*
X17635308Y-67452688D01*
X18066497Y-67740800D01*
X17635308Y-68028912D01*
X17334297Y-68479406D01*
X17228596Y-69010800D01*
X17334297Y-69542194D01*
X17635308Y-69992688D01*
X18085802Y-70293699D01*
X18617196Y-70399400D01*
X18671604Y-70399400D01*
X19202998Y-70293699D01*
X19653492Y-69992688D01*
X19914400Y-69602212D01*
X20175308Y-69992688D01*
X20625802Y-70293699D01*
X21157196Y-70399400D01*
X21211604Y-70399400D01*
X21742998Y-70293699D01*
X22193492Y-69992688D01*
X22494503Y-69542194D01*
X22600204Y-69010800D01*
X22494503Y-68479406D01*
X22193492Y-68028912D01*
X21762303Y-67740800D01*
X22193492Y-67452688D01*
X22494503Y-67002194D01*
X22600204Y-66470800D01*
X22494503Y-65939406D01*
X22193492Y-65488912D01*
X21762303Y-65200800D01*
X22193492Y-64912688D01*
X22494503Y-64462194D01*
X22600204Y-63930800D01*
X22494503Y-63399406D01*
X22193492Y-62948912D01*
X21762303Y-62660800D01*
X22193492Y-62372688D01*
X22494503Y-61922194D01*
X22600204Y-61390800D01*
X22494503Y-60859406D01*
X22193492Y-60408912D01*
X21762303Y-60120800D01*
X22193492Y-59832688D01*
X22494503Y-59382194D01*
X22600204Y-58850800D01*
X22494503Y-58319406D01*
X22193492Y-57868912D01*
X21762303Y-57580800D01*
X22193492Y-57292688D01*
X22494503Y-56842194D01*
X22600204Y-56310800D01*
X22494503Y-55779406D01*
X22193492Y-55328912D01*
X21762303Y-55040800D01*
X22193492Y-54752688D01*
X22494503Y-54302194D01*
X22600204Y-53770800D01*
X22494503Y-53239406D01*
X22193492Y-52788912D01*
X21762303Y-52500800D01*
X22193492Y-52212688D01*
X22494503Y-51762194D01*
X22600204Y-51230800D01*
X22494503Y-50699406D01*
X22193492Y-50248912D01*
X21762303Y-49960800D01*
X22193492Y-49672688D01*
X22494503Y-49222194D01*
X22600204Y-48690800D01*
X22494503Y-48159406D01*
X22193492Y-47708912D01*
X21742998Y-47407901D01*
X21313402Y-47322449D01*
X21313402Y-47251142D01*
X21496653Y-47297664D01*
X21911770Y-47090870D01*
X22216151Y-46740959D01*
X22331252Y-46463051D01*
X22284210Y-46279800D01*
X21313400Y-46279800D01*
X21313400Y-46299800D01*
X21055400Y-46299800D01*
X21055400Y-46279800D01*
X20084590Y-46279800D01*
X20037548Y-46463051D01*
X20152649Y-46740959D01*
X20457030Y-47090870D01*
X20872147Y-47297664D01*
X21055398Y-47251142D01*
X21055398Y-47322449D01*
X20625802Y-47407901D01*
X20175308Y-47708912D01*
X19914400Y-48099388D01*
X19653492Y-47708912D01*
X19202998Y-47407901D01*
X18773402Y-47322449D01*
X18773402Y-47251142D01*
X18956653Y-47297664D01*
X19371770Y-47090870D01*
X19676151Y-46740959D01*
X19791252Y-46463051D01*
X19744210Y-46279800D01*
X18773400Y-46279800D01*
X18773400Y-46299800D01*
X18515400Y-46299800D01*
X18515400Y-46279800D01*
X17544590Y-46279800D01*
X17497548Y-46463051D01*
X17612649Y-46740959D01*
X17917030Y-47090870D01*
X18332147Y-47297664D01*
X18515398Y-47251142D01*
X18515398Y-47322449D01*
X18085802Y-47407901D01*
X17635308Y-47708912D01*
X17334297Y-48159406D01*
X17228596Y-48690800D01*
X12054200Y-48690800D01*
X12054200Y-46933704D01*
X13369405Y-45618500D01*
X17588686Y-45618500D01*
X17497548Y-45838549D01*
X17544590Y-46021800D01*
X18515400Y-46021800D01*
X18515400Y-46001800D01*
X18773400Y-46001800D01*
X18773400Y-46021800D01*
X19744210Y-46021800D01*
X19791252Y-45838549D01*
X19700114Y-45618500D01*
X20128686Y-45618500D01*
X20037548Y-45838549D01*
X20084590Y-46021800D01*
X21055400Y-46021800D01*
X21055400Y-46001800D01*
X21313400Y-46001800D01*
X21313400Y-46021800D01*
X22284210Y-46021800D01*
X22331252Y-45838549D01*
X22236125Y-45608868D01*
X22419115Y-45572469D01*
X22465146Y-45563313D01*
X22700352Y-45406152D01*
X23373452Y-44733053D01*
X23530612Y-44497846D01*
X23530613Y-44497845D01*
X23585800Y-44220400D01*
X23585800Y-42747200D01*
X23530613Y-42469755D01*
X23530613Y-42469754D01*
X23373453Y-42234548D01*
X22535416Y-41396511D01*
X22600204Y-41070800D01*
X22494503Y-40539406D01*
X22193492Y-40088912D01*
X21762303Y-39800800D01*
X22193492Y-39512688D01*
X22494503Y-39062194D01*
X22600204Y-38530800D01*
X22494503Y-37999406D01*
X22193492Y-37548912D01*
X21742998Y-37247901D01*
X21211604Y-37142200D01*
X21157196Y-37142200D01*
X20625802Y-37247901D01*
X20175308Y-37548912D01*
X20043285Y-37746498D01*
X20043285Y-37667200D01*
X20006677Y-37472647D01*
X19891696Y-37293961D01*
X19716256Y-37174088D01*
X19508000Y-37131915D01*
X17780800Y-37131915D01*
X17586247Y-37168523D01*
X17407561Y-37283504D01*
X17287688Y-37458944D01*
X17245515Y-37667200D01*
X17245515Y-37805800D01*
X9373400Y-37805800D01*
X9095954Y-37860987D01*
X8860748Y-38018147D01*
X6778748Y-40100148D01*
X6621587Y-40335354D01*
X6621587Y-40335355D01*
X6566400Y-40612800D01*
X6566400Y-60041715D01*
X6427800Y-60041715D01*
X6233247Y-60078323D01*
X6054561Y-60193304D01*
X5934688Y-60368744D01*
X5892515Y-60577000D01*
X5892515Y-62304200D01*
X5929123Y-62498753D01*
X6044104Y-62677439D01*
X6219544Y-62797312D01*
X6427800Y-62839485D01*
X6520608Y-62839485D01*
X6282308Y-62998712D01*
X5981297Y-63449206D01*
X5875596Y-63980600D01*
X1700500Y-63980600D01*
X1700500Y-58217948D01*
X3791774Y-56126674D01*
X3992289Y-55826583D01*
X4062700Y-55472600D01*
X4062700Y-54261755D01*
X4107032Y-54154992D01*
X4107368Y-53769301D01*
X3960082Y-53412840D01*
X3687595Y-53139877D01*
X3331392Y-52991968D01*
X2945701Y-52991632D01*
X2589240Y-53138918D01*
X2316277Y-53411405D01*
X2168368Y-53767608D01*
X2168032Y-54153299D01*
X2212700Y-54261404D01*
X2212700Y-55089452D01*
X121426Y-57180726D01*
X-79089Y-57480817D01*
X-79089Y-57480818D01*
X-149500Y-57834800D01*
X-149500Y-100892145D01*
X-193832Y-100998908D01*
X-194168Y-101384599D01*
X-13780600Y-101384599D01*
X-13780600Y-41344550D01*
X-6763100Y-41344550D01*
X-6763100Y-42316547D01*
X-6713621Y-42435998D01*
X-6622197Y-42527422D01*
X-6502746Y-42576900D01*
X-5530750Y-42576900D01*
X-5449500Y-42495650D01*
X-5449500Y-41263300D01*
X-5191500Y-41263300D01*
X-5191500Y-42495650D01*
X-5110250Y-42576900D01*
X-4138254Y-42576900D01*
X-4018803Y-42527422D01*
X-3927379Y-42435998D01*
X-3877900Y-42316547D01*
X-3877900Y-41344550D01*
X-3959150Y-41263300D01*
X-5191500Y-41263300D01*
X-5449500Y-41263300D01*
X-6681850Y-41263300D01*
X-6763100Y-41344550D01*
X-13780600Y-41344550D01*
X-13780600Y-39952053D01*
X-6763100Y-39952053D01*
X-6763100Y-40924050D01*
X-6681850Y-41005300D01*
X-5449500Y-41005300D01*
X-5449500Y-39772950D01*
X-5191500Y-39772950D01*
X-5191500Y-41005300D01*
X-3959150Y-41005300D01*
X-3877900Y-40924050D01*
X-3877900Y-39952053D01*
X-3927379Y-39832602D01*
X-4018803Y-39741178D01*
X-4138254Y-39691700D01*
X-5110250Y-39691700D01*
X-5191500Y-39772950D01*
X-5449500Y-39772950D01*
X-5530750Y-39691700D01*
X-6502746Y-39691700D01*
X-6622197Y-39741178D01*
X-6713621Y-39832602D01*
X-6763100Y-39952053D01*
X-13780600Y-39952053D01*
X-13780600Y-32568830D01*
X-12860951Y-32568830D01*
X-12553312Y-33313372D01*
X-11984168Y-33883510D01*
X-11240165Y-34192448D01*
X-10434570Y-34193151D01*
X-9690028Y-33885512D01*
X-9119890Y-33316368D01*
X-8810952Y-32572365D01*
X-8810249Y-31766770D01*
X-9117888Y-31022228D01*
X-9687032Y-30452090D01*
X-10431035Y-30143152D01*
X-11236630Y-30142449D01*
X-11981172Y-30450088D01*
X-12551310Y-31019232D01*
X-12860248Y-31763235D01*
X-12860951Y-32568830D01*
X-13780600Y-32568830D01*
X-13780600Y-29292468D01*
X-806428Y-29292637D01*
M02*
