G04 #@! TF.FileFunction,Soldermask,Bot*
%FSLAX46Y46*%
G04 Gerber Fmt 4.6, Leading zero omitted, Abs format (unit mm)*
G04 Created by KiCad (PCBNEW 4.0.5+dfsg1-4) date Tue Feb 27 09:26:50 2018*
%MOMM*%
%LPD*%
G01*
G04 APERTURE LIST*
%ADD10C,0.150000*%
%ADD11R,2.235200X2.235200*%
%ADD12O,2.235200X2.235200*%
%ADD13C,3.508000*%
%ADD14C,6.008000*%
%ADD15R,2.743200X2.743200*%
%ADD16R,2.540000X2.235200*%
%ADD17O,2.540000X2.235200*%
G04 APERTURE END LIST*
D10*
D11*
X18644400Y-38530800D03*
D12*
X21184400Y-38530800D03*
X18644400Y-41070800D03*
X21184400Y-41070800D03*
X18644400Y-43610800D03*
X21184400Y-43610800D03*
X18644400Y-46150800D03*
X21184400Y-46150800D03*
X18644400Y-48690800D03*
X21184400Y-48690800D03*
X18644400Y-51230800D03*
X21184400Y-51230800D03*
X18644400Y-53770800D03*
X21184400Y-53770800D03*
X18644400Y-56310800D03*
X21184400Y-56310800D03*
X18644400Y-58850800D03*
X21184400Y-58850800D03*
X18644400Y-61390800D03*
X21184400Y-61390800D03*
X18644400Y-63930800D03*
X21184400Y-63930800D03*
X18644400Y-66470800D03*
X21184400Y-66470800D03*
X18644400Y-69010800D03*
X21184400Y-69010800D03*
D11*
X7291400Y-61440600D03*
D12*
X9831400Y-61440600D03*
X7291400Y-63980600D03*
X9831400Y-63980600D03*
X7291400Y-66520600D03*
X9831400Y-66520600D03*
X7291400Y-69060600D03*
X9831400Y-69060600D03*
X7291400Y-71600600D03*
X9831400Y-71600600D03*
X7291400Y-74140600D03*
X9831400Y-74140600D03*
X7291400Y-76680600D03*
X9831400Y-76680600D03*
X7291400Y-79220600D03*
X9831400Y-79220600D03*
X7291400Y-81760600D03*
X9831400Y-81760600D03*
X7291400Y-84300600D03*
X9831400Y-84300600D03*
X7291400Y-86840600D03*
X9831400Y-86840600D03*
X7291400Y-89380600D03*
X9831400Y-89380600D03*
X7291400Y-91920600D03*
X9831400Y-91920600D03*
D11*
X18644400Y-92496800D03*
D12*
X21184400Y-92496800D03*
X18644400Y-95036800D03*
X21184400Y-95036800D03*
X18644400Y-97576800D03*
X21184400Y-97576800D03*
X18644400Y-100116800D03*
X21184400Y-100116800D03*
X18644400Y-102656800D03*
X21184400Y-102656800D03*
X18644400Y-105196800D03*
X21184400Y-105196800D03*
X18644400Y-107736800D03*
X21184400Y-107736800D03*
X18644400Y-110276800D03*
X21184400Y-110276800D03*
X18644400Y-112816800D03*
X21184400Y-112816800D03*
X18644400Y-115356800D03*
X21184400Y-115356800D03*
D13*
X-10835600Y-121167800D03*
X-10835600Y-32167800D03*
D14*
X-16500Y-120825800D03*
X127834400Y-121167800D03*
X-16500Y-32509800D03*
D15*
X-5320500Y-41134300D03*
X-4152100Y-109968300D03*
D16*
X118570400Y-103047800D03*
D17*
X118570400Y-100507800D03*
X118570400Y-97967800D03*
D16*
X48360000Y-50290000D03*
D17*
X48360000Y-52830000D03*
X48360000Y-55370000D03*
D15*
X171082500Y-43369500D03*
X172250900Y-112203500D03*
D14*
X166946900Y-120828000D03*
X39096000Y-32170000D03*
X166946900Y-32512000D03*
D13*
X177766000Y-121170000D03*
X177766000Y-32170000D03*
D11*
X148286000Y-60841000D03*
D12*
X145746000Y-60841000D03*
X148286000Y-58301000D03*
X145746000Y-58301000D03*
X148286000Y-55761000D03*
X145746000Y-55761000D03*
X148286000Y-53221000D03*
X145746000Y-53221000D03*
X148286000Y-50681000D03*
X145746000Y-50681000D03*
X148286000Y-48141000D03*
X145746000Y-48141000D03*
X148286000Y-45601000D03*
X145746000Y-45601000D03*
X148286000Y-43061000D03*
X145746000Y-43061000D03*
X148286000Y-40521000D03*
X145746000Y-40521000D03*
X148286000Y-37981000D03*
X145746000Y-37981000D03*
D11*
X159639000Y-91897200D03*
D12*
X157099000Y-91897200D03*
X159639000Y-89357200D03*
X157099000Y-89357200D03*
X159639000Y-86817200D03*
X157099000Y-86817200D03*
X159639000Y-84277200D03*
X157099000Y-84277200D03*
X159639000Y-81737200D03*
X157099000Y-81737200D03*
X159639000Y-79197200D03*
X157099000Y-79197200D03*
X159639000Y-76657200D03*
X157099000Y-76657200D03*
X159639000Y-74117200D03*
X157099000Y-74117200D03*
X159639000Y-71577200D03*
X157099000Y-71577200D03*
X159639000Y-69037200D03*
X157099000Y-69037200D03*
X159639000Y-66497200D03*
X157099000Y-66497200D03*
X159639000Y-63957200D03*
X157099000Y-63957200D03*
X159639000Y-61417200D03*
X157099000Y-61417200D03*
D11*
X148286000Y-114807000D03*
D12*
X145746000Y-114807000D03*
X148286000Y-112267000D03*
X145746000Y-112267000D03*
X148286000Y-109727000D03*
X145746000Y-109727000D03*
X148286000Y-107187000D03*
X145746000Y-107187000D03*
X148286000Y-104647000D03*
X145746000Y-104647000D03*
X148286000Y-102107000D03*
X145746000Y-102107000D03*
X148286000Y-99567000D03*
X145746000Y-99567000D03*
X148286000Y-97027000D03*
X145746000Y-97027000D03*
X148286000Y-94487000D03*
X145746000Y-94487000D03*
X148286000Y-91947000D03*
X145746000Y-91947000D03*
X148286000Y-89407000D03*
X145746000Y-89407000D03*
X148286000Y-86867000D03*
X145746000Y-86867000D03*
X148286000Y-84327000D03*
X145746000Y-84327000D03*
M02*
