M48
;DRILL file {KiCad no-vcs-found-product} date Mon Sep  4 09:08:40 2017
;FORMAT={-:-/ absolute / metric / decimal}
FMAT,2
METRIC,TZ
T1C0.635
T2C0.800
T3C1.000
T4C1.016
T5C2.800
T6C3.000
%
G90
G05
M71
T1
X38.46Y-62.28
X42.23Y-80.2
X42.418Y-82.423
X43.688Y-72.771
X44.577Y-84.963
X44.704Y-73.787
X44.958Y-71.247
X45.72Y-46.02
X46.228Y-72.771
X47.371Y-63.246
X47.752Y-81.915
X48.387Y-69.977
X51.181Y-56.896
X52.21Y-37.37
X52.62Y-89.98
X52.822Y-41.91
X53.3Y-30.61
X53.88Y-90.62
X53.886Y-102.514
X55.17Y-90.37
X55.72Y-65.37
X56.26Y-89.28
X57.239Y-93.472
X58.255Y-94.488
X59.245Y-95.479
X60.236Y-96.469
X61.227Y-97.46
X61.34Y-60.47
X62.217Y-98.45
X63.208Y-99.441
X63.214Y-51.073
X64.198Y-100.432
X64.205Y-52.064
X64.643Y-83.693
X64.77Y-86.741
X65.195Y-53.054
X65.215Y-101.448
X66.186Y-54.045
X67.177Y-55.035
X68.167Y-56.026
X69.13Y-99.54
X69.158Y-57.017
X69.215Y-111.633
X69.85Y-68.961
X69.977Y-84.455
X70.155Y-58.014
X70.33Y-94.1
X71.145Y-58.991
X71.51Y-99.59
X72.136Y-68.834
X72.733Y-85.534
X79.05Y-82.3
X83.08Y-57.01
X86.84Y-40.65
X87.04Y-105.83
X88.773Y-50.927
X89.281Y-114.808
X92.1Y-98.62
X92.583Y-61.531
X94.59Y-80.48
X96.95Y-53.64
X97.536Y-58.801
X97.98Y-85.47
X99.44Y-87.55
X102.06Y-80.48
X102.743Y-39.243
X102.87Y-105.918
X105.029Y-56.261
X105.029Y-68.326
X105.62Y-54.49
X106.94Y-98.44
X108.458Y-58.801
X109.601Y-72.291
X111.11Y-103.76
X111.15Y-101.76
X111.252Y-56.388
X111.49Y-112.52
X112.02Y-44.96
X112.395Y-82.296
X113.36Y-99.14
X113.665Y-79.502
X114.046Y-51.308
X114.046Y-59.563
X114.15Y-93.85
X114.23Y-39.74
X117.348Y-101.092
X118.09Y-72.62
X118.11Y-89.09
X118.364Y-84.709
X118.48Y-63.22
X119.761Y-61.722
X120.142Y-47.688
X120.269Y-95.123
X120.269Y-102.362
X120.8Y-66.78
X122.936Y-61.722
X123.063Y-44.323
X123.17Y-49.55
X123.19Y-63.627
X123.19Y-97.663
X124.206Y-90.678
X124.968Y-109.474
X125.793Y-47.688
X125.793Y-49.593
X125.857Y-61.722
X127.127Y-49.657
X127.127Y-94.107
X127.254Y-98.298
X127.87Y-61.82
X129.286Y-53.975
X129.413Y-55.245
X129.476Y-57.594
X130.71Y-108.9
X132.08Y-93.726
X132.207Y-52.07
X132.207Y-60.706
X134.747Y-48.26
X136.779Y-109.22
X141.72Y-60.7
X142.113Y-95.25
X143.85Y-51.84
X144.8Y-41.89
X146.431Y-63.373
X148.717Y-108.077
X148.844Y-61.468
X149.6Y-94.79
X152.146Y-56.832
X152.57Y-76.68
X162.179Y-106.553
X164.592Y-104.521
X165.862Y-105.791
X165.865Y-49.027
X166.15Y-86.4
X167.132Y-104.521
X167.135Y-47.758
X167.14Y-87.81
X168.4Y-89.08
X168.402Y-105.791
X168.405Y-49.027
X169.67Y-87.81
X169.672Y-104.521
X169.675Y-47.758
X170.942Y-89.687
X170.942Y-105.791
X170.945Y-49.027
X172.212Y-88.417
X172.212Y-104.521
X172.215Y-47.758
X173.482Y-89.687
X173.482Y-105.791
X173.486Y-49.027
X174.752Y-67.31
X174.752Y-88.417
X174.752Y-104.521
X174.755Y-47.758
X176.022Y-89.687
X176.025Y-48.901
T2
X112.29Y-95.43
T3
X26.636Y-37.35
X26.636Y-39.89
X26.636Y-42.43
X26.636Y-44.97
X26.636Y-47.51
X26.636Y-50.05
X26.636Y-52.59
X26.636Y-55.13
X26.636Y-57.67
X26.636Y-60.21
X26.636Y-62.75
X26.636Y-65.29
X26.636Y-67.83
X26.636Y-70.37
X26.636Y-72.91
X26.636Y-75.45
X26.636Y-77.99
X26.636Y-80.53
X26.636Y-83.07
X26.636Y-85.61
X26.636Y-88.15
X26.636Y-90.69
X26.636Y-93.23
X26.636Y-95.77
X26.636Y-98.31
X26.636Y-100.85
X26.636Y-103.39
X26.636Y-105.93
X26.636Y-108.47
X26.636Y-111.01
X26.636Y-113.55
X26.636Y-116.09
X31.716Y-37.35
X31.716Y-39.89
X31.716Y-42.43
X31.716Y-44.97
X31.716Y-47.51
X31.716Y-50.05
X31.716Y-52.59
X31.716Y-55.13
X31.716Y-57.67
X31.716Y-60.21
X31.716Y-62.75
X31.716Y-65.29
X31.716Y-67.83
X31.716Y-70.37
X31.716Y-72.91
X31.716Y-75.45
X31.716Y-77.99
X31.716Y-80.53
X31.716Y-83.07
X31.716Y-85.61
X31.716Y-88.15
X31.716Y-90.69
X31.716Y-93.23
X31.716Y-95.77
X31.716Y-98.31
X31.716Y-100.85
X31.716Y-103.39
X31.716Y-105.93
X31.716Y-108.47
X31.716Y-111.01
X31.716Y-113.55
X31.716Y-116.09
X37.2Y-45.35
X37.2Y-47.89
X37.2Y-50.43
X37.2Y-52.97
X37.2Y-55.51
X39.74Y-45.35
X39.74Y-47.89
X39.74Y-50.43
X39.74Y-52.97
X39.74Y-55.51
X45.085Y-93.726
X45.085Y-96.266
X45.085Y-98.806
X45.085Y-101.346
X48.36Y-50.29
X48.36Y-52.83
X48.36Y-55.37
X77.216Y-86.487
X79.38Y-66.89
X79.756Y-86.487
X81.92Y-66.89
X82.296Y-86.487
X84.46Y-66.89
X84.836Y-86.487
X87.Y-66.89
X87.376Y-86.487
X89.54Y-66.89
X89.916Y-86.487
X92.456Y-86.487
X100.14Y-107.96
X100.14Y-110.5
X100.2Y-41.22
X100.2Y-43.76
X115.Y-106.93
X115.Y-109.47
X116.713Y-39.624
X116.713Y-42.164
X131.96Y-70.52
X137.224Y-54.927
X137.224Y-57.467
X148.971Y-97.282
X148.971Y-99.822
X149.8Y-71.06
X149.8Y-73.6
X149.8Y-79.92
X149.8Y-82.46
X157.099Y-61.417
X157.099Y-63.957
X157.099Y-66.497
X157.099Y-69.037
X157.099Y-71.577
X157.099Y-74.117
X157.099Y-76.657
X157.099Y-79.197
X157.099Y-81.737
X157.099Y-84.277
X157.099Y-86.817
X157.099Y-89.357
X157.099Y-91.897
X159.639Y-61.417
X159.639Y-63.957
X159.639Y-66.497
X159.639Y-69.037
X159.639Y-71.577
X159.639Y-74.117
X159.639Y-76.657
X159.639Y-79.197
X159.639Y-81.737
X159.639Y-84.277
X159.639Y-86.817
X159.639Y-89.357
X159.639Y-91.897
T4
X37.226Y-65.14
X37.226Y-67.68
X37.226Y-70.22
X37.226Y-72.76
X37.226Y-75.3
X37.226Y-77.84
X37.226Y-80.38
X37.226Y-82.92
X37.226Y-85.46
X37.226Y-88.
X39.766Y-65.14
X39.766Y-67.68
X39.766Y-70.22
X39.766Y-72.76
X39.766Y-75.3
X39.766Y-77.84
X39.766Y-80.38
X39.766Y-82.92
X39.766Y-85.46
X39.766Y-88.
T5
X24.096Y-32.17
X24.096Y-121.17
T6
X39.096Y-32.17
X39.096Y-121.17
X166.947Y-32.512
X166.947Y-120.828
X177.766Y-32.17
X177.766Y-121.17
T0
M30
