G04 #@! TF.FileFunction,Soldermask,Top*
%FSLAX46Y46*%
G04 Gerber Fmt 4.6, Leading zero omitted, Abs format (unit mm)*
G04 Created by KiCad (PCBNEW no-vcs-found-product) date Mon Sep  4 09:08:35 2017*
%MOMM*%
%LPD*%
G01*
G04 APERTURE LIST*
%ADD10C,0.150000*%
%ADD11R,2.235200X2.235200*%
%ADD12O,2.235200X2.235200*%
%ADD13C,6.008000*%
%ADD14O,2.308000X1.708000*%
%ADD15C,3.508000*%
%ADD16C,4.008000*%
%ADD17R,1.808000X1.208000*%
%ADD18R,0.758000X1.808000*%
%ADD19R,1.808000X0.758000*%
%ADD20R,0.958000X1.958000*%
%ADD21R,1.208000X1.808000*%
%ADD22R,4.165600X2.540000*%
%ADD23R,1.524000X2.540000*%
%ADD24R,2.108000X4.008000*%
%ADD25R,2.508000X1.108000*%
%ADD26R,0.928000X1.398000*%
%ADD27R,1.220500X1.333000*%
%ADD28R,1.308000X1.408000*%
%ADD29R,2.208000X2.208000*%
%ADD30O,2.208000X2.208000*%
%ADD31R,1.758000X1.508000*%
%ADD32R,4.008000X2.108000*%
%ADD33R,1.508000X1.758000*%
%ADD34R,3.008000X1.508000*%
%ADD35R,1.158000X2.208000*%
%ADD36R,1.108000X2.058000*%
%ADD37R,2.058000X1.108000*%
%ADD38R,1.108000X2.458000*%
%ADD39R,1.508000X3.008000*%
%ADD40R,1.016000X1.651000*%
%ADD41R,1.608000X2.008000*%
%ADD42C,2.108000*%
%ADD43C,2.540000*%
%ADD44R,1.708000X1.708000*%
%ADD45R,1.258000X1.308000*%
%ADD46R,2.208000X2.008000*%
G04 APERTURE END LIST*
D10*
D11*
X37226000Y-65140000D03*
D12*
X39766000Y-65140000D03*
X37226000Y-67680000D03*
X39766000Y-67680000D03*
X37226000Y-70220000D03*
X39766000Y-70220000D03*
X37226000Y-72760000D03*
X39766000Y-72760000D03*
X37226000Y-75300000D03*
X39766000Y-75300000D03*
X37226000Y-77840000D03*
X39766000Y-77840000D03*
X37226000Y-80380000D03*
X39766000Y-80380000D03*
X37226000Y-82920000D03*
X39766000Y-82920000D03*
X37226000Y-85460000D03*
X39766000Y-85460000D03*
X37226000Y-88000000D03*
X39766000Y-88000000D03*
D13*
X166946900Y-32512000D03*
X39096000Y-32170000D03*
X39096000Y-121170000D03*
D14*
X26636000Y-116090000D03*
D15*
X177766000Y-121170000D03*
X177766000Y-32170000D03*
D16*
X24096000Y-121170000D03*
X24096000Y-32170000D03*
D14*
X31716000Y-116090000D03*
X31716000Y-113550000D03*
X31716000Y-111010000D03*
X31716000Y-108470000D03*
X31716000Y-105930000D03*
X31716000Y-103390000D03*
X31716000Y-100850000D03*
X31716000Y-98310000D03*
X31716000Y-95770000D03*
X31716000Y-93230000D03*
X31716000Y-90690000D03*
X31716000Y-88150000D03*
X31716000Y-85610000D03*
X31716000Y-83070000D03*
X31716000Y-80530000D03*
X31716000Y-77990000D03*
X31716000Y-75450000D03*
X31716000Y-72910000D03*
X31716000Y-70370000D03*
X31716000Y-67830000D03*
X31716000Y-65290000D03*
X31716000Y-62750000D03*
X31716000Y-60210000D03*
X31716000Y-57670000D03*
X31716000Y-55130000D03*
X31716000Y-52590000D03*
X31716000Y-50050000D03*
X31716000Y-47510000D03*
X31716000Y-44970000D03*
X31716000Y-42430000D03*
X31716000Y-39890000D03*
X31716000Y-37350000D03*
X26636000Y-113550000D03*
X26636000Y-111010000D03*
X26636000Y-108470000D03*
X26636000Y-105930000D03*
X26636000Y-103390000D03*
X26636000Y-100850000D03*
X26636000Y-98310000D03*
X26636000Y-95770000D03*
X26636000Y-93230000D03*
X26636000Y-90690000D03*
X26636000Y-88150000D03*
X26636000Y-85610000D03*
X26636000Y-83070000D03*
X26636000Y-80530000D03*
X26636000Y-77990000D03*
X26636000Y-75450000D03*
X26636000Y-72910000D03*
X26636000Y-70370000D03*
X26636000Y-67830000D03*
X26636000Y-65290000D03*
X26636000Y-62750000D03*
X26636000Y-60210000D03*
X26636000Y-57670000D03*
X26636000Y-55130000D03*
X26636000Y-52590000D03*
X26636000Y-50050000D03*
X26636000Y-47510000D03*
X26636000Y-44970000D03*
X26636000Y-42430000D03*
X26636000Y-39890000D03*
X26636000Y-37350000D03*
D13*
X166946900Y-120828000D03*
D17*
X106900000Y-97760000D03*
X106900000Y-95860000D03*
D18*
X125940000Y-51149000D03*
X125440000Y-51149000D03*
X124940000Y-51149000D03*
X124440000Y-51149000D03*
X123940000Y-51149000D03*
X123440000Y-51149000D03*
X122940000Y-51149000D03*
X122440000Y-51149000D03*
X121940000Y-51149000D03*
X121440000Y-51149000D03*
X120940000Y-51149000D03*
X120440000Y-51149000D03*
D19*
X118840000Y-52749000D03*
X118840000Y-53249000D03*
X118840000Y-53749000D03*
X118840000Y-54249000D03*
X118840000Y-54749000D03*
X118840000Y-55249000D03*
X118840000Y-55749000D03*
X118840000Y-56249000D03*
X118840000Y-56749000D03*
X118840000Y-57249000D03*
X118840000Y-57749000D03*
X118840000Y-58249000D03*
D18*
X120440000Y-59849000D03*
X120940000Y-59849000D03*
X121440000Y-59849000D03*
X121940000Y-59849000D03*
X122440000Y-59849000D03*
X122940000Y-59849000D03*
X123440000Y-59849000D03*
X123940000Y-59849000D03*
X124440000Y-59849000D03*
X124940000Y-59849000D03*
X125440000Y-59849000D03*
X125940000Y-59849000D03*
D19*
X127540000Y-58249000D03*
X127540000Y-57749000D03*
X127540000Y-57249000D03*
X127540000Y-56749000D03*
X127540000Y-56249000D03*
X127540000Y-55749000D03*
X127540000Y-55249000D03*
X127540000Y-54749000D03*
X127540000Y-54249000D03*
X127540000Y-53749000D03*
X127540000Y-53249000D03*
X127540000Y-52749000D03*
D20*
X111941800Y-86889800D03*
X111291800Y-86889800D03*
X110641800Y-86889800D03*
X109991800Y-86889800D03*
X109341800Y-86889800D03*
X108691800Y-86889800D03*
X108041800Y-86889800D03*
X107391800Y-86889800D03*
X106741800Y-86889800D03*
X106091800Y-86889800D03*
X106091800Y-92789800D03*
X106741800Y-92789800D03*
X107391800Y-92789800D03*
X108041800Y-92789800D03*
X108691800Y-92789800D03*
X109341800Y-92789800D03*
X109991800Y-92789800D03*
X110641800Y-92789800D03*
X111291800Y-92789800D03*
X111941800Y-92789800D03*
D21*
X104206000Y-103251000D03*
X106106000Y-103251000D03*
X108730000Y-119470000D03*
X106830000Y-119470000D03*
D22*
X102362000Y-120396000D03*
D23*
X102362000Y-113792000D03*
X100076000Y-113792000D03*
X104648000Y-113792000D03*
D24*
X94615000Y-107221000D03*
X94615000Y-101821000D03*
X94615000Y-111981000D03*
X94615000Y-117381000D03*
D25*
X86742000Y-117348000D03*
X86742000Y-116078000D03*
X86742000Y-114808000D03*
X86742000Y-103378000D03*
X86742000Y-102108000D03*
X86742000Y-100838000D03*
X77342000Y-100838000D03*
X77342000Y-102108000D03*
X77342000Y-103378000D03*
X77342000Y-114808000D03*
X77342000Y-116078000D03*
X77342000Y-117348000D03*
D26*
X99467000Y-104467000D03*
X100117000Y-104467000D03*
X100767000Y-104467000D03*
X101417000Y-104467000D03*
X102067000Y-104467000D03*
X102717000Y-104467000D03*
X102717000Y-100257000D03*
X102067000Y-100257000D03*
X101417000Y-100257000D03*
X100767000Y-100257000D03*
X100117000Y-100257000D03*
X99467000Y-100257000D03*
D27*
X102160750Y-101949500D03*
X101448250Y-101949500D03*
X100735750Y-101949500D03*
X100023250Y-101949500D03*
X102160750Y-102774500D03*
X101448250Y-102774500D03*
X100735750Y-102774500D03*
X100023250Y-102774500D03*
D21*
X104206000Y-100457000D03*
X106106000Y-100457000D03*
X106106000Y-105410000D03*
X104206000Y-105410000D03*
X108730000Y-115870000D03*
X106830000Y-115870000D03*
X112460000Y-119470000D03*
X110560000Y-119470000D03*
D17*
X70904100Y-109195400D03*
X70904100Y-107295400D03*
X66713100Y-105639400D03*
X66713100Y-103739400D03*
X69126100Y-103485400D03*
X69126100Y-105385400D03*
D28*
X73378100Y-103562400D03*
X71478100Y-103562400D03*
X72428100Y-105562400D03*
X68679100Y-107245400D03*
X66779100Y-107245400D03*
X67729100Y-109245400D03*
D29*
X115000000Y-109470000D03*
D30*
X115000000Y-106930000D03*
D29*
X100140000Y-110500000D03*
D30*
X100140000Y-107960000D03*
D31*
X112120000Y-105180000D03*
X112120000Y-107180000D03*
X110090000Y-105170000D03*
X110090000Y-107170000D03*
X110090000Y-111110000D03*
X110090000Y-109110000D03*
X87185500Y-121586500D03*
X87185500Y-119586500D03*
X85026500Y-121586500D03*
X85026500Y-119586500D03*
X112120000Y-111110000D03*
X112120000Y-109110000D03*
D32*
X72423000Y-116840000D03*
X67023000Y-116840000D03*
D22*
X45800000Y-41292000D03*
D23*
X45800000Y-34688000D03*
X43514000Y-34688000D03*
X48086000Y-34688000D03*
D10*
G36*
X53498312Y-66458373D02*
X54069654Y-65887031D01*
X55489524Y-67306901D01*
X54918182Y-67878243D01*
X53498312Y-66458373D01*
X53498312Y-66458373D01*
G37*
G36*
X53144759Y-66811926D02*
X53716101Y-66240584D01*
X55135971Y-67660454D01*
X54564629Y-68231796D01*
X53144759Y-66811926D01*
X53144759Y-66811926D01*
G37*
G36*
X52791206Y-67165480D02*
X53362548Y-66594138D01*
X54782418Y-68014008D01*
X54211076Y-68585350D01*
X52791206Y-67165480D01*
X52791206Y-67165480D01*
G37*
G36*
X52437652Y-67519033D02*
X53008994Y-66947691D01*
X54428864Y-68367561D01*
X53857522Y-68938903D01*
X52437652Y-67519033D01*
X52437652Y-67519033D01*
G37*
G36*
X52084099Y-67872587D02*
X52655441Y-67301245D01*
X54075311Y-68721115D01*
X53503969Y-69292457D01*
X52084099Y-67872587D01*
X52084099Y-67872587D01*
G37*
G36*
X51730546Y-68226140D02*
X52301888Y-67654798D01*
X53721758Y-69074668D01*
X53150416Y-69646010D01*
X51730546Y-68226140D01*
X51730546Y-68226140D01*
G37*
G36*
X51376992Y-68579693D02*
X51948334Y-68008351D01*
X53368204Y-69428221D01*
X52796862Y-69999563D01*
X51376992Y-68579693D01*
X51376992Y-68579693D01*
G37*
G36*
X51023439Y-68933247D02*
X51594781Y-68361905D01*
X53014651Y-69781775D01*
X52443309Y-70353117D01*
X51023439Y-68933247D01*
X51023439Y-68933247D01*
G37*
G36*
X50669885Y-69286800D02*
X51241227Y-68715458D01*
X52661097Y-70135328D01*
X52089755Y-70706670D01*
X50669885Y-69286800D01*
X50669885Y-69286800D01*
G37*
G36*
X50316332Y-69640354D02*
X50887674Y-69069012D01*
X52307544Y-70488882D01*
X51736202Y-71060224D01*
X50316332Y-69640354D01*
X50316332Y-69640354D01*
G37*
G36*
X49962779Y-69993907D02*
X50534121Y-69422565D01*
X51953991Y-70842435D01*
X51382649Y-71413777D01*
X49962779Y-69993907D01*
X49962779Y-69993907D01*
G37*
G36*
X49609225Y-70347460D02*
X50180567Y-69776118D01*
X51600437Y-71195988D01*
X51029095Y-71767330D01*
X49609225Y-70347460D01*
X49609225Y-70347460D01*
G37*
G36*
X49255672Y-70701014D02*
X49827014Y-70129672D01*
X51246884Y-71549542D01*
X50675542Y-72120884D01*
X49255672Y-70701014D01*
X49255672Y-70701014D01*
G37*
G36*
X48902118Y-71054567D02*
X49473460Y-70483225D01*
X50893330Y-71903095D01*
X50321988Y-72474437D01*
X48902118Y-71054567D01*
X48902118Y-71054567D01*
G37*
G36*
X48548565Y-71408121D02*
X49119907Y-70836779D01*
X50539777Y-72256649D01*
X49968435Y-72827991D01*
X48548565Y-71408121D01*
X48548565Y-71408121D01*
G37*
G36*
X48195012Y-71761674D02*
X48766354Y-71190332D01*
X50186224Y-72610202D01*
X49614882Y-73181544D01*
X48195012Y-71761674D01*
X48195012Y-71761674D01*
G37*
G36*
X47841458Y-72115227D02*
X48412800Y-71543885D01*
X49832670Y-72963755D01*
X49261328Y-73535097D01*
X47841458Y-72115227D01*
X47841458Y-72115227D01*
G37*
G36*
X47487905Y-72468781D02*
X48059247Y-71897439D01*
X49479117Y-73317309D01*
X48907775Y-73888651D01*
X47487905Y-72468781D01*
X47487905Y-72468781D01*
G37*
G36*
X47134351Y-72822334D02*
X47705693Y-72250992D01*
X49125563Y-73670862D01*
X48554221Y-74242204D01*
X47134351Y-72822334D01*
X47134351Y-72822334D01*
G37*
G36*
X46780798Y-73175888D02*
X47352140Y-72604546D01*
X48772010Y-74024416D01*
X48200668Y-74595758D01*
X46780798Y-73175888D01*
X46780798Y-73175888D01*
G37*
G36*
X46427245Y-73529441D02*
X46998587Y-72958099D01*
X48418457Y-74377969D01*
X47847115Y-74949311D01*
X46427245Y-73529441D01*
X46427245Y-73529441D01*
G37*
G36*
X46073691Y-73882994D02*
X46645033Y-73311652D01*
X48064903Y-74731522D01*
X47493561Y-75302864D01*
X46073691Y-73882994D01*
X46073691Y-73882994D01*
G37*
G36*
X45720138Y-74236548D02*
X46291480Y-73665206D01*
X47711350Y-75085076D01*
X47140008Y-75656418D01*
X45720138Y-74236548D01*
X45720138Y-74236548D01*
G37*
G36*
X45366584Y-74590101D02*
X45937926Y-74018759D01*
X47357796Y-75438629D01*
X46786454Y-76009971D01*
X45366584Y-74590101D01*
X45366584Y-74590101D01*
G37*
G36*
X45013031Y-74943654D02*
X45584373Y-74372312D01*
X47004243Y-75792182D01*
X46432901Y-76363524D01*
X45013031Y-74943654D01*
X45013031Y-74943654D01*
G37*
G36*
X45584373Y-78767688D02*
X45013031Y-78196346D01*
X46432901Y-76776476D01*
X47004243Y-77347818D01*
X45584373Y-78767688D01*
X45584373Y-78767688D01*
G37*
G36*
X45937926Y-79121241D02*
X45366584Y-78549899D01*
X46786454Y-77130029D01*
X47357796Y-77701371D01*
X45937926Y-79121241D01*
X45937926Y-79121241D01*
G37*
G36*
X46291480Y-79474794D02*
X45720138Y-78903452D01*
X47140008Y-77483582D01*
X47711350Y-78054924D01*
X46291480Y-79474794D01*
X46291480Y-79474794D01*
G37*
G36*
X46645033Y-79828348D02*
X46073691Y-79257006D01*
X47493561Y-77837136D01*
X48064903Y-78408478D01*
X46645033Y-79828348D01*
X46645033Y-79828348D01*
G37*
G36*
X46998587Y-80181901D02*
X46427245Y-79610559D01*
X47847115Y-78190689D01*
X48418457Y-78762031D01*
X46998587Y-80181901D01*
X46998587Y-80181901D01*
G37*
G36*
X47352140Y-80535454D02*
X46780798Y-79964112D01*
X48200668Y-78544242D01*
X48772010Y-79115584D01*
X47352140Y-80535454D01*
X47352140Y-80535454D01*
G37*
G36*
X47705693Y-80889008D02*
X47134351Y-80317666D01*
X48554221Y-78897796D01*
X49125563Y-79469138D01*
X47705693Y-80889008D01*
X47705693Y-80889008D01*
G37*
G36*
X48059247Y-81242561D02*
X47487905Y-80671219D01*
X48907775Y-79251349D01*
X49479117Y-79822691D01*
X48059247Y-81242561D01*
X48059247Y-81242561D01*
G37*
G36*
X48412800Y-81596115D02*
X47841458Y-81024773D01*
X49261328Y-79604903D01*
X49832670Y-80176245D01*
X48412800Y-81596115D01*
X48412800Y-81596115D01*
G37*
G36*
X48766354Y-81949668D02*
X48195012Y-81378326D01*
X49614882Y-79958456D01*
X50186224Y-80529798D01*
X48766354Y-81949668D01*
X48766354Y-81949668D01*
G37*
G36*
X49119907Y-82303221D02*
X48548565Y-81731879D01*
X49968435Y-80312009D01*
X50539777Y-80883351D01*
X49119907Y-82303221D01*
X49119907Y-82303221D01*
G37*
G36*
X49473460Y-82656775D02*
X48902118Y-82085433D01*
X50321988Y-80665563D01*
X50893330Y-81236905D01*
X49473460Y-82656775D01*
X49473460Y-82656775D01*
G37*
G36*
X49827014Y-83010328D02*
X49255672Y-82438986D01*
X50675542Y-81019116D01*
X51246884Y-81590458D01*
X49827014Y-83010328D01*
X49827014Y-83010328D01*
G37*
G36*
X50180567Y-83363882D02*
X49609225Y-82792540D01*
X51029095Y-81372670D01*
X51600437Y-81944012D01*
X50180567Y-83363882D01*
X50180567Y-83363882D01*
G37*
G36*
X50534121Y-83717435D02*
X49962779Y-83146093D01*
X51382649Y-81726223D01*
X51953991Y-82297565D01*
X50534121Y-83717435D01*
X50534121Y-83717435D01*
G37*
G36*
X50887674Y-84070988D02*
X50316332Y-83499646D01*
X51736202Y-82079776D01*
X52307544Y-82651118D01*
X50887674Y-84070988D01*
X50887674Y-84070988D01*
G37*
G36*
X51241227Y-84424542D02*
X50669885Y-83853200D01*
X52089755Y-82433330D01*
X52661097Y-83004672D01*
X51241227Y-84424542D01*
X51241227Y-84424542D01*
G37*
G36*
X51594781Y-84778095D02*
X51023439Y-84206753D01*
X52443309Y-82786883D01*
X53014651Y-83358225D01*
X51594781Y-84778095D01*
X51594781Y-84778095D01*
G37*
G36*
X51948334Y-85131649D02*
X51376992Y-84560307D01*
X52796862Y-83140437D01*
X53368204Y-83711779D01*
X51948334Y-85131649D01*
X51948334Y-85131649D01*
G37*
G36*
X52301888Y-85485202D02*
X51730546Y-84913860D01*
X53150416Y-83493990D01*
X53721758Y-84065332D01*
X52301888Y-85485202D01*
X52301888Y-85485202D01*
G37*
G36*
X52655441Y-85838755D02*
X52084099Y-85267413D01*
X53503969Y-83847543D01*
X54075311Y-84418885D01*
X52655441Y-85838755D01*
X52655441Y-85838755D01*
G37*
G36*
X53008994Y-86192309D02*
X52437652Y-85620967D01*
X53857522Y-84201097D01*
X54428864Y-84772439D01*
X53008994Y-86192309D01*
X53008994Y-86192309D01*
G37*
G36*
X53362548Y-86545862D02*
X52791206Y-85974520D01*
X54211076Y-84554650D01*
X54782418Y-85125992D01*
X53362548Y-86545862D01*
X53362548Y-86545862D01*
G37*
G36*
X53716101Y-86899416D02*
X53144759Y-86328074D01*
X54564629Y-84908204D01*
X55135971Y-85479546D01*
X53716101Y-86899416D01*
X53716101Y-86899416D01*
G37*
G36*
X54069654Y-87252969D02*
X53498312Y-86681627D01*
X54918182Y-85261757D01*
X55489524Y-85833099D01*
X54069654Y-87252969D01*
X54069654Y-87252969D01*
G37*
G36*
X55902476Y-85833099D02*
X56473818Y-85261757D01*
X57893688Y-86681627D01*
X57322346Y-87252969D01*
X55902476Y-85833099D01*
X55902476Y-85833099D01*
G37*
G36*
X56256029Y-85479546D02*
X56827371Y-84908204D01*
X58247241Y-86328074D01*
X57675899Y-86899416D01*
X56256029Y-85479546D01*
X56256029Y-85479546D01*
G37*
G36*
X56609582Y-85125992D02*
X57180924Y-84554650D01*
X58600794Y-85974520D01*
X58029452Y-86545862D01*
X56609582Y-85125992D01*
X56609582Y-85125992D01*
G37*
G36*
X56963136Y-84772439D02*
X57534478Y-84201097D01*
X58954348Y-85620967D01*
X58383006Y-86192309D01*
X56963136Y-84772439D01*
X56963136Y-84772439D01*
G37*
G36*
X57316689Y-84418885D02*
X57888031Y-83847543D01*
X59307901Y-85267413D01*
X58736559Y-85838755D01*
X57316689Y-84418885D01*
X57316689Y-84418885D01*
G37*
G36*
X57670242Y-84065332D02*
X58241584Y-83493990D01*
X59661454Y-84913860D01*
X59090112Y-85485202D01*
X57670242Y-84065332D01*
X57670242Y-84065332D01*
G37*
G36*
X58023796Y-83711779D02*
X58595138Y-83140437D01*
X60015008Y-84560307D01*
X59443666Y-85131649D01*
X58023796Y-83711779D01*
X58023796Y-83711779D01*
G37*
G36*
X58377349Y-83358225D02*
X58948691Y-82786883D01*
X60368561Y-84206753D01*
X59797219Y-84778095D01*
X58377349Y-83358225D01*
X58377349Y-83358225D01*
G37*
G36*
X58730903Y-83004672D02*
X59302245Y-82433330D01*
X60722115Y-83853200D01*
X60150773Y-84424542D01*
X58730903Y-83004672D01*
X58730903Y-83004672D01*
G37*
G36*
X59084456Y-82651118D02*
X59655798Y-82079776D01*
X61075668Y-83499646D01*
X60504326Y-84070988D01*
X59084456Y-82651118D01*
X59084456Y-82651118D01*
G37*
G36*
X59438009Y-82297565D02*
X60009351Y-81726223D01*
X61429221Y-83146093D01*
X60857879Y-83717435D01*
X59438009Y-82297565D01*
X59438009Y-82297565D01*
G37*
G36*
X59791563Y-81944012D02*
X60362905Y-81372670D01*
X61782775Y-82792540D01*
X61211433Y-83363882D01*
X59791563Y-81944012D01*
X59791563Y-81944012D01*
G37*
G36*
X60145116Y-81590458D02*
X60716458Y-81019116D01*
X62136328Y-82438986D01*
X61564986Y-83010328D01*
X60145116Y-81590458D01*
X60145116Y-81590458D01*
G37*
G36*
X60498670Y-81236905D02*
X61070012Y-80665563D01*
X62489882Y-82085433D01*
X61918540Y-82656775D01*
X60498670Y-81236905D01*
X60498670Y-81236905D01*
G37*
G36*
X60852223Y-80883351D02*
X61423565Y-80312009D01*
X62843435Y-81731879D01*
X62272093Y-82303221D01*
X60852223Y-80883351D01*
X60852223Y-80883351D01*
G37*
G36*
X61205776Y-80529798D02*
X61777118Y-79958456D01*
X63196988Y-81378326D01*
X62625646Y-81949668D01*
X61205776Y-80529798D01*
X61205776Y-80529798D01*
G37*
G36*
X61559330Y-80176245D02*
X62130672Y-79604903D01*
X63550542Y-81024773D01*
X62979200Y-81596115D01*
X61559330Y-80176245D01*
X61559330Y-80176245D01*
G37*
G36*
X61912883Y-79822691D02*
X62484225Y-79251349D01*
X63904095Y-80671219D01*
X63332753Y-81242561D01*
X61912883Y-79822691D01*
X61912883Y-79822691D01*
G37*
G36*
X62266437Y-79469138D02*
X62837779Y-78897796D01*
X64257649Y-80317666D01*
X63686307Y-80889008D01*
X62266437Y-79469138D01*
X62266437Y-79469138D01*
G37*
G36*
X62619990Y-79115584D02*
X63191332Y-78544242D01*
X64611202Y-79964112D01*
X64039860Y-80535454D01*
X62619990Y-79115584D01*
X62619990Y-79115584D01*
G37*
G36*
X62973543Y-78762031D02*
X63544885Y-78190689D01*
X64964755Y-79610559D01*
X64393413Y-80181901D01*
X62973543Y-78762031D01*
X62973543Y-78762031D01*
G37*
G36*
X63327097Y-78408478D02*
X63898439Y-77837136D01*
X65318309Y-79257006D01*
X64746967Y-79828348D01*
X63327097Y-78408478D01*
X63327097Y-78408478D01*
G37*
G36*
X63680650Y-78054924D02*
X64251992Y-77483582D01*
X65671862Y-78903452D01*
X65100520Y-79474794D01*
X63680650Y-78054924D01*
X63680650Y-78054924D01*
G37*
G36*
X64034204Y-77701371D02*
X64605546Y-77130029D01*
X66025416Y-78549899D01*
X65454074Y-79121241D01*
X64034204Y-77701371D01*
X64034204Y-77701371D01*
G37*
G36*
X64387757Y-77347818D02*
X64959099Y-76776476D01*
X66378969Y-78196346D01*
X65807627Y-78767688D01*
X64387757Y-77347818D01*
X64387757Y-77347818D01*
G37*
G36*
X64959099Y-76363524D02*
X64387757Y-75792182D01*
X65807627Y-74372312D01*
X66378969Y-74943654D01*
X64959099Y-76363524D01*
X64959099Y-76363524D01*
G37*
G36*
X64605546Y-76009971D02*
X64034204Y-75438629D01*
X65454074Y-74018759D01*
X66025416Y-74590101D01*
X64605546Y-76009971D01*
X64605546Y-76009971D01*
G37*
G36*
X64251992Y-75656418D02*
X63680650Y-75085076D01*
X65100520Y-73665206D01*
X65671862Y-74236548D01*
X64251992Y-75656418D01*
X64251992Y-75656418D01*
G37*
G36*
X63898439Y-75302864D02*
X63327097Y-74731522D01*
X64746967Y-73311652D01*
X65318309Y-73882994D01*
X63898439Y-75302864D01*
X63898439Y-75302864D01*
G37*
G36*
X63544885Y-74949311D02*
X62973543Y-74377969D01*
X64393413Y-72958099D01*
X64964755Y-73529441D01*
X63544885Y-74949311D01*
X63544885Y-74949311D01*
G37*
G36*
X63191332Y-74595758D02*
X62619990Y-74024416D01*
X64039860Y-72604546D01*
X64611202Y-73175888D01*
X63191332Y-74595758D01*
X63191332Y-74595758D01*
G37*
G36*
X62837779Y-74242204D02*
X62266437Y-73670862D01*
X63686307Y-72250992D01*
X64257649Y-72822334D01*
X62837779Y-74242204D01*
X62837779Y-74242204D01*
G37*
G36*
X62484225Y-73888651D02*
X61912883Y-73317309D01*
X63332753Y-71897439D01*
X63904095Y-72468781D01*
X62484225Y-73888651D01*
X62484225Y-73888651D01*
G37*
G36*
X62130672Y-73535097D02*
X61559330Y-72963755D01*
X62979200Y-71543885D01*
X63550542Y-72115227D01*
X62130672Y-73535097D01*
X62130672Y-73535097D01*
G37*
G36*
X61777118Y-73181544D02*
X61205776Y-72610202D01*
X62625646Y-71190332D01*
X63196988Y-71761674D01*
X61777118Y-73181544D01*
X61777118Y-73181544D01*
G37*
G36*
X61423565Y-72827991D02*
X60852223Y-72256649D01*
X62272093Y-70836779D01*
X62843435Y-71408121D01*
X61423565Y-72827991D01*
X61423565Y-72827991D01*
G37*
G36*
X61070012Y-72474437D02*
X60498670Y-71903095D01*
X61918540Y-70483225D01*
X62489882Y-71054567D01*
X61070012Y-72474437D01*
X61070012Y-72474437D01*
G37*
G36*
X60716458Y-72120884D02*
X60145116Y-71549542D01*
X61564986Y-70129672D01*
X62136328Y-70701014D01*
X60716458Y-72120884D01*
X60716458Y-72120884D01*
G37*
G36*
X60362905Y-71767330D02*
X59791563Y-71195988D01*
X61211433Y-69776118D01*
X61782775Y-70347460D01*
X60362905Y-71767330D01*
X60362905Y-71767330D01*
G37*
G36*
X60009351Y-71413777D02*
X59438009Y-70842435D01*
X60857879Y-69422565D01*
X61429221Y-69993907D01*
X60009351Y-71413777D01*
X60009351Y-71413777D01*
G37*
G36*
X59655798Y-71060224D02*
X59084456Y-70488882D01*
X60504326Y-69069012D01*
X61075668Y-69640354D01*
X59655798Y-71060224D01*
X59655798Y-71060224D01*
G37*
G36*
X59302245Y-70706670D02*
X58730903Y-70135328D01*
X60150773Y-68715458D01*
X60722115Y-69286800D01*
X59302245Y-70706670D01*
X59302245Y-70706670D01*
G37*
G36*
X58948691Y-70353117D02*
X58377349Y-69781775D01*
X59797219Y-68361905D01*
X60368561Y-68933247D01*
X58948691Y-70353117D01*
X58948691Y-70353117D01*
G37*
G36*
X58595138Y-69999563D02*
X58023796Y-69428221D01*
X59443666Y-68008351D01*
X60015008Y-68579693D01*
X58595138Y-69999563D01*
X58595138Y-69999563D01*
G37*
G36*
X58241584Y-69646010D02*
X57670242Y-69074668D01*
X59090112Y-67654798D01*
X59661454Y-68226140D01*
X58241584Y-69646010D01*
X58241584Y-69646010D01*
G37*
G36*
X57888031Y-69292457D02*
X57316689Y-68721115D01*
X58736559Y-67301245D01*
X59307901Y-67872587D01*
X57888031Y-69292457D01*
X57888031Y-69292457D01*
G37*
G36*
X57534478Y-68938903D02*
X56963136Y-68367561D01*
X58383006Y-66947691D01*
X58954348Y-67519033D01*
X57534478Y-68938903D01*
X57534478Y-68938903D01*
G37*
G36*
X57180924Y-68585350D02*
X56609582Y-68014008D01*
X58029452Y-66594138D01*
X58600794Y-67165480D01*
X57180924Y-68585350D01*
X57180924Y-68585350D01*
G37*
G36*
X56827371Y-68231796D02*
X56256029Y-67660454D01*
X57675899Y-66240584D01*
X58247241Y-66811926D01*
X56827371Y-68231796D01*
X56827371Y-68231796D01*
G37*
G36*
X56473818Y-67878243D02*
X55902476Y-67306901D01*
X57322346Y-65887031D01*
X57893688Y-66458373D01*
X56473818Y-67878243D01*
X56473818Y-67878243D01*
G37*
D32*
X72296000Y-47625000D03*
X66896000Y-47625000D03*
D31*
X37080000Y-39110000D03*
X37080000Y-37110000D03*
X34530000Y-39110000D03*
X34530000Y-37110000D03*
D33*
X43520000Y-44210000D03*
X45520000Y-44210000D03*
X43520000Y-47780000D03*
X45520000Y-47780000D03*
D31*
X52960000Y-60940000D03*
X52960000Y-58940000D03*
X54991000Y-98949000D03*
X54991000Y-100949000D03*
D10*
G36*
X48878719Y-62781188D02*
X50121812Y-64024281D01*
X49055495Y-65090598D01*
X47812402Y-63847505D01*
X48878719Y-62781188D01*
X48878719Y-62781188D01*
G37*
G36*
X47464505Y-64195402D02*
X48707598Y-65438495D01*
X47641281Y-66504812D01*
X46398188Y-65261719D01*
X47464505Y-64195402D01*
X47464505Y-64195402D01*
G37*
G36*
X50402719Y-64305188D02*
X51645812Y-65548281D01*
X50579495Y-66614598D01*
X49336402Y-65371505D01*
X50402719Y-64305188D01*
X50402719Y-64305188D01*
G37*
G36*
X48988505Y-65719402D02*
X50231598Y-66962495D01*
X49165281Y-68028812D01*
X47922188Y-66785719D01*
X48988505Y-65719402D01*
X48988505Y-65719402D01*
G37*
D31*
X43815000Y-81423000D03*
X43815000Y-83423000D03*
X45720000Y-81423000D03*
X45720000Y-83423000D03*
D10*
G36*
X48430188Y-88408281D02*
X49673281Y-87165188D01*
X50739598Y-88231505D01*
X49496505Y-89474598D01*
X48430188Y-88408281D01*
X48430188Y-88408281D01*
G37*
G36*
X49844402Y-89822495D02*
X51087495Y-88579402D01*
X52153812Y-89645719D01*
X50910719Y-90888812D01*
X49844402Y-89822495D01*
X49844402Y-89822495D01*
G37*
G36*
X49827188Y-87011281D02*
X51070281Y-85768188D01*
X52136598Y-86834505D01*
X50893505Y-88077598D01*
X49827188Y-87011281D01*
X49827188Y-87011281D01*
G37*
G36*
X51241402Y-88425495D02*
X52484495Y-87182402D01*
X53550812Y-88248719D01*
X52307719Y-89491812D01*
X51241402Y-88425495D01*
X51241402Y-88425495D01*
G37*
D31*
X42760000Y-64490000D03*
X42760000Y-66490000D03*
D33*
X42760000Y-62280000D03*
X40760000Y-62280000D03*
D31*
X66421000Y-89138000D03*
X66421000Y-87138000D03*
X68453000Y-89138000D03*
X68453000Y-87138000D03*
D10*
G36*
X65829188Y-71898281D02*
X67072281Y-70655188D01*
X68138598Y-71721505D01*
X66895505Y-72964598D01*
X65829188Y-71898281D01*
X65829188Y-71898281D01*
G37*
G36*
X67243402Y-73312495D02*
X68486495Y-72069402D01*
X69552812Y-73135719D01*
X68309719Y-74378812D01*
X67243402Y-73312495D01*
X67243402Y-73312495D01*
G37*
G36*
X67226188Y-70501281D02*
X68469281Y-69258188D01*
X69535598Y-70324505D01*
X68292505Y-71567598D01*
X67226188Y-70501281D01*
X67226188Y-70501281D01*
G37*
G36*
X68640402Y-71915495D02*
X69883495Y-70672402D01*
X70949812Y-71738719D01*
X69706719Y-72981812D01*
X68640402Y-71915495D01*
X68640402Y-71915495D01*
G37*
G36*
X58921281Y-65991812D02*
X57678188Y-64748719D01*
X58744505Y-63682402D01*
X59987598Y-64925495D01*
X58921281Y-65991812D01*
X58921281Y-65991812D01*
G37*
G36*
X60335495Y-64577598D02*
X59092402Y-63334505D01*
X60158719Y-62268188D01*
X61401812Y-63511281D01*
X60335495Y-64577598D01*
X60335495Y-64577598D01*
G37*
G36*
X60451281Y-67531812D02*
X59208188Y-66288719D01*
X60274505Y-65222402D01*
X61517598Y-66465495D01*
X60451281Y-67531812D01*
X60451281Y-67531812D01*
G37*
G36*
X61865495Y-66117598D02*
X60622402Y-64874505D01*
X61688719Y-63808188D01*
X62931812Y-65051281D01*
X61865495Y-66117598D01*
X61865495Y-66117598D01*
G37*
D31*
X34370000Y-68170000D03*
X34370000Y-70170000D03*
D33*
X34340000Y-62280000D03*
X36340000Y-62280000D03*
D10*
G36*
X45848719Y-65708188D02*
X47091812Y-66951281D01*
X46025495Y-68017598D01*
X44782402Y-66774505D01*
X45848719Y-65708188D01*
X45848719Y-65708188D01*
G37*
G36*
X44434505Y-67122402D02*
X45677598Y-68365495D01*
X44611281Y-69431812D01*
X43368188Y-68188719D01*
X44434505Y-67122402D01*
X44434505Y-67122402D01*
G37*
G36*
X47354719Y-67226188D02*
X48597812Y-68469281D01*
X47531495Y-69535598D01*
X46288402Y-68292505D01*
X47354719Y-67226188D01*
X47354719Y-67226188D01*
G37*
G36*
X45940505Y-68640402D02*
X47183598Y-69883495D01*
X46117281Y-70949812D01*
X44874188Y-69706719D01*
X45940505Y-68640402D01*
X45940505Y-68640402D01*
G37*
D31*
X66421000Y-85455000D03*
X66421000Y-83455000D03*
X68453000Y-85455000D03*
X68453000Y-83455000D03*
D33*
X130064000Y-92075000D03*
X132064000Y-92075000D03*
X109236000Y-81026000D03*
X111236000Y-81026000D03*
X109236000Y-83566000D03*
X111236000Y-83566000D03*
X122158000Y-91313000D03*
X120158000Y-91313000D03*
X144415000Y-93980000D03*
X146415000Y-93980000D03*
X111990000Y-97890000D03*
X109990000Y-97890000D03*
X127270000Y-107823000D03*
X129270000Y-107823000D03*
D31*
X121412000Y-101076000D03*
X121412000Y-99076000D03*
D33*
X127270000Y-109982000D03*
X129270000Y-109982000D03*
D31*
X119253000Y-101076000D03*
X119253000Y-99076000D03*
X119380000Y-81423000D03*
X119380000Y-83423000D03*
X126111000Y-92694000D03*
X126111000Y-90694000D03*
X117221000Y-81423000D03*
X117221000Y-83423000D03*
X128143000Y-92694000D03*
X128143000Y-90694000D03*
X129150000Y-105570000D03*
X129150000Y-103570000D03*
X127571500Y-86439500D03*
X127571500Y-88439500D03*
X109601000Y-68370000D03*
X109601000Y-70370000D03*
X112649000Y-41672000D03*
X112649000Y-43672000D03*
X86995000Y-57007000D03*
X86995000Y-55007000D03*
X84836000Y-57007000D03*
X84836000Y-55007000D03*
X110617000Y-41672000D03*
X110617000Y-43672000D03*
D34*
X120580000Y-69620000D03*
X120580000Y-72620000D03*
D31*
X110630000Y-39740000D03*
X110630000Y-37740000D03*
X112650000Y-39740000D03*
X112650000Y-37740000D03*
X140462000Y-53356000D03*
X140462000Y-55356000D03*
X140462000Y-57166000D03*
X140462000Y-59166000D03*
X124079000Y-45672500D03*
X124079000Y-47672500D03*
X122047000Y-45672500D03*
X122047000Y-47672500D03*
X131191000Y-57420000D03*
X131191000Y-59420000D03*
X133223000Y-53356000D03*
X133223000Y-55356000D03*
X133223000Y-57420000D03*
X133223000Y-59420000D03*
X131191000Y-53356000D03*
X131191000Y-55356000D03*
X112966500Y-52530500D03*
X112966500Y-54530500D03*
X115125500Y-52530500D03*
X115125500Y-54530500D03*
X112966500Y-56340500D03*
X112966500Y-58340500D03*
X115125500Y-56340500D03*
X115125500Y-58340500D03*
D24*
X125870000Y-71940000D03*
X125870000Y-66540000D03*
D33*
X125110000Y-63410000D03*
X127110000Y-63410000D03*
X176806100Y-63639700D03*
X174806100Y-63639700D03*
X176768000Y-65659000D03*
X174768000Y-65659000D03*
X163410000Y-90180000D03*
X165410000Y-90180000D03*
X163410000Y-88010000D03*
X165410000Y-88010000D03*
D29*
X39740000Y-55510000D03*
D30*
X37200000Y-55510000D03*
X39740000Y-52970000D03*
X37200000Y-52970000D03*
X39740000Y-50430000D03*
X37200000Y-50430000D03*
X39740000Y-47890000D03*
X37200000Y-47890000D03*
X39740000Y-45350000D03*
X37200000Y-45350000D03*
D29*
X45085000Y-101346000D03*
D30*
X45085000Y-98806000D03*
X45085000Y-96266000D03*
X45085000Y-93726000D03*
D29*
X48360000Y-50290000D03*
D30*
X48360000Y-52830000D03*
X48360000Y-55370000D03*
D29*
X149800000Y-79920000D03*
D30*
X149800000Y-82460000D03*
D29*
X92456000Y-86487000D03*
D30*
X89916000Y-86487000D03*
X87376000Y-86487000D03*
X84836000Y-86487000D03*
X82296000Y-86487000D03*
X79756000Y-86487000D03*
X77216000Y-86487000D03*
D29*
X148971000Y-97282000D03*
D30*
X148971000Y-99822000D03*
D29*
X100200000Y-41220000D03*
D30*
X100200000Y-43760000D03*
D29*
X131960000Y-70520000D03*
X137223500Y-54927500D03*
D30*
X137223500Y-57467500D03*
D29*
X116713000Y-39624000D03*
D30*
X116713000Y-42164000D03*
D28*
X68552100Y-40570400D03*
X66652100Y-40570400D03*
X67602100Y-42570400D03*
X73251100Y-36887400D03*
X71351100Y-36887400D03*
X72301100Y-38887400D03*
D17*
X68999100Y-36810400D03*
X68999100Y-38710400D03*
X66586100Y-38964400D03*
X66586100Y-37064400D03*
X70777100Y-42520400D03*
X70777100Y-40620400D03*
D21*
X49120000Y-44200000D03*
X47220000Y-44200000D03*
X43570000Y-51320000D03*
X45470000Y-51320000D03*
D17*
X62807600Y-44892000D03*
X62807600Y-42992000D03*
X60267600Y-44892000D03*
X60267600Y-42992000D03*
X57727600Y-44892000D03*
X57727600Y-42992000D03*
X55187600Y-44892000D03*
X55187600Y-42992000D03*
D21*
X43570000Y-54870000D03*
X45470000Y-54870000D03*
X43570000Y-58430000D03*
X45470000Y-58430000D03*
X120208000Y-93472000D03*
X122108000Y-93472000D03*
X106990000Y-54890000D03*
X108890000Y-54890000D03*
X108890000Y-50090000D03*
X106990000Y-50090000D03*
D17*
X151066500Y-53152000D03*
X151066500Y-55052000D03*
D21*
X104079000Y-38735000D03*
X105979000Y-38735000D03*
X104079000Y-33782000D03*
X105979000Y-33782000D03*
X146365000Y-61404500D03*
X144465000Y-61404500D03*
D17*
X142748000Y-55306000D03*
X142748000Y-53406000D03*
X142811500Y-57216000D03*
X142811500Y-59116000D03*
D21*
X125130000Y-55050000D03*
X123230000Y-55050000D03*
D35*
X49022000Y-100551000D03*
X50292000Y-100551000D03*
X51562000Y-100551000D03*
X52832000Y-100551000D03*
X52832000Y-93251000D03*
X51562000Y-93251000D03*
X50292000Y-93251000D03*
X49022000Y-93251000D03*
D36*
X127254000Y-100170000D03*
X125984000Y-100170000D03*
X124714000Y-100170000D03*
X123444000Y-100170000D03*
X123444000Y-105570000D03*
X124714000Y-105570000D03*
X125984000Y-105570000D03*
X127254000Y-105570000D03*
X145097500Y-58961000D03*
X146367500Y-58961000D03*
X147637500Y-58961000D03*
X148907500Y-58961000D03*
X148907500Y-53561000D03*
X147637500Y-53561000D03*
X146367500Y-53561000D03*
X145097500Y-53561000D03*
D37*
X112235000Y-67084000D03*
X112235000Y-68354000D03*
X112235000Y-69624000D03*
X112235000Y-70894000D03*
X117635000Y-70894000D03*
X117635000Y-69624000D03*
X117635000Y-68354000D03*
X117635000Y-67084000D03*
D26*
X99340000Y-37792000D03*
X99990000Y-37792000D03*
X100640000Y-37792000D03*
X101290000Y-37792000D03*
X101940000Y-37792000D03*
X102590000Y-37792000D03*
X102590000Y-33582000D03*
X101940000Y-33582000D03*
X101290000Y-33582000D03*
X100640000Y-33582000D03*
X99990000Y-33582000D03*
X99340000Y-33582000D03*
D27*
X102033750Y-35274500D03*
X101321250Y-35274500D03*
X100608750Y-35274500D03*
X99896250Y-35274500D03*
X102033750Y-36099500D03*
X101321250Y-36099500D03*
X100608750Y-36099500D03*
X99896250Y-36099500D03*
D25*
X86615000Y-52832000D03*
X86615000Y-51562000D03*
X86615000Y-50292000D03*
X86615000Y-38862000D03*
X86615000Y-37592000D03*
X86615000Y-36322000D03*
X77215000Y-36322000D03*
X77215000Y-37592000D03*
X77215000Y-38862000D03*
X77215000Y-50292000D03*
X77215000Y-51562000D03*
X77215000Y-52832000D03*
D38*
X176022000Y-51180000D03*
X174752000Y-51180000D03*
X173482000Y-51180000D03*
X172212000Y-51180000D03*
X170942000Y-51180000D03*
X169672000Y-51180000D03*
X168402000Y-51180000D03*
X167132000Y-51180000D03*
X165862000Y-51180000D03*
X164592000Y-51180000D03*
X164592000Y-60580000D03*
X165862000Y-60580000D03*
X167132000Y-60580000D03*
X168402000Y-60580000D03*
X169672000Y-60580000D03*
X170942000Y-60580000D03*
X172212000Y-60580000D03*
X173482000Y-60580000D03*
X174752000Y-60580000D03*
X176022000Y-60580000D03*
X164592000Y-102236000D03*
X165862000Y-102236000D03*
X167132000Y-102236000D03*
X168402000Y-102236000D03*
X169672000Y-102236000D03*
X170942000Y-102236000D03*
X172212000Y-102236000D03*
X173482000Y-102236000D03*
X174752000Y-102236000D03*
X176022000Y-102236000D03*
X176022000Y-92836000D03*
X174752000Y-92836000D03*
X173482000Y-92836000D03*
X172212000Y-92836000D03*
X170942000Y-92836000D03*
X169672000Y-92836000D03*
X168402000Y-92836000D03*
X167132000Y-92836000D03*
X165862000Y-92836000D03*
X164592000Y-92836000D03*
D33*
X111990000Y-100080000D03*
X109990000Y-100080000D03*
D39*
X145693000Y-110744000D03*
X148693000Y-110744000D03*
D29*
X149800000Y-73600000D03*
D30*
X149800000Y-71060000D03*
D29*
X79380000Y-66890000D03*
D30*
X81920000Y-66890000D03*
X84460000Y-66890000D03*
X87000000Y-66890000D03*
X89540000Y-66890000D03*
D36*
X121475500Y-88361500D03*
X122745500Y-88361500D03*
X124015500Y-88361500D03*
X125285500Y-88361500D03*
X125285500Y-82961500D03*
X124015500Y-82961500D03*
X122745500Y-82961500D03*
X121475500Y-82961500D03*
D40*
X145669000Y-97409000D03*
X144399000Y-97409000D03*
X143129000Y-97409000D03*
X141859000Y-97409000D03*
X140589000Y-97409000D03*
X139319000Y-97409000D03*
X138049000Y-97409000D03*
X136779000Y-97409000D03*
X136779000Y-107569000D03*
X138049000Y-107569000D03*
X139319000Y-107569000D03*
X140589000Y-107569000D03*
X141859000Y-107569000D03*
X143129000Y-107569000D03*
X144399000Y-107569000D03*
X145669000Y-107569000D03*
D24*
X94488000Y-45306000D03*
X94488000Y-50706000D03*
X94488000Y-40546000D03*
X94488000Y-35146000D03*
D22*
X102235000Y-53721000D03*
D23*
X102235000Y-47117000D03*
X99949000Y-47117000D03*
X104521000Y-47117000D03*
D21*
X108890000Y-52500000D03*
X106990000Y-52500000D03*
X104079000Y-36576000D03*
X105979000Y-36576000D03*
D41*
X62807600Y-39497000D03*
X60267600Y-39497000D03*
X57727600Y-39497000D03*
X55187600Y-39497000D03*
X62807600Y-30607000D03*
X60267600Y-30607000D03*
X57727600Y-30607000D03*
X55187600Y-30607000D03*
D31*
X100901500Y-85550500D03*
X100901500Y-87550500D03*
X103060500Y-85550500D03*
X103060500Y-87550500D03*
D42*
X112290000Y-95430000D03*
D43*
X173010000Y-32160000D03*
X31330000Y-121170000D03*
D21*
X42140000Y-91260000D03*
X40240000Y-91260000D03*
X80410000Y-83180000D03*
X82310000Y-83180000D03*
D17*
X74900000Y-72890000D03*
X74900000Y-74790000D03*
D33*
X49180000Y-46490000D03*
X47180000Y-46490000D03*
X110760000Y-115870000D03*
X112760000Y-115870000D03*
X108910000Y-47800000D03*
X106910000Y-47800000D03*
D44*
X75540000Y-31330000D03*
X75540000Y-33530000D03*
X75660000Y-95850000D03*
X75660000Y-98050000D03*
D17*
X73110000Y-95870000D03*
X73110000Y-97770000D03*
D45*
X89916000Y-105041000D03*
X89916000Y-106541000D03*
X89916000Y-102350000D03*
X89916000Y-100850000D03*
X89789000Y-38366000D03*
X89789000Y-39866000D03*
X89789000Y-35675000D03*
X89789000Y-34175000D03*
D17*
X72990000Y-31350000D03*
X72990000Y-33250000D03*
D29*
X159639000Y-91897200D03*
D30*
X157099000Y-91897200D03*
X159639000Y-89357200D03*
X157099000Y-89357200D03*
X159639000Y-86817200D03*
X157099000Y-86817200D03*
X159639000Y-84277200D03*
X157099000Y-84277200D03*
X159639000Y-81737200D03*
X157099000Y-81737200D03*
X159639000Y-79197200D03*
X157099000Y-79197200D03*
X159639000Y-76657200D03*
X157099000Y-76657200D03*
X159639000Y-74117200D03*
X157099000Y-74117200D03*
X159639000Y-71577200D03*
X157099000Y-71577200D03*
X159639000Y-69037200D03*
X157099000Y-69037200D03*
X159639000Y-66497200D03*
X157099000Y-66497200D03*
X159639000Y-63957200D03*
X157099000Y-63957200D03*
X159639000Y-61417200D03*
X157099000Y-61417200D03*
D10*
G36*
X49114000Y-59796000D02*
X49114000Y-61804000D01*
X46906000Y-61804000D01*
X46906000Y-59796000D01*
X49114000Y-59796000D01*
X49114000Y-59796000D01*
G37*
D46*
X48010000Y-58600000D03*
D10*
G36*
X51654000Y-59796000D02*
X51654000Y-61804000D01*
X49446000Y-61804000D01*
X49446000Y-59796000D01*
X51654000Y-59796000D01*
X51654000Y-59796000D01*
G37*
D46*
X50550000Y-58600000D03*
M02*
