G04 #@! TF.FileFunction,Soldermask,Bot*
%FSLAX46Y46*%
G04 Gerber Fmt 4.6, Leading zero omitted, Abs format (unit mm)*
G04 Created by KiCad (PCBNEW no-vcs-found-product) date Mon Sep  4 09:08:35 2017*
%MOMM*%
%LPD*%
G01*
G04 APERTURE LIST*
%ADD10C,0.150000*%
%ADD11R,2.235200X2.235200*%
%ADD12O,2.235200X2.235200*%
%ADD13C,6.008000*%
%ADD14O,2.308000X1.708000*%
%ADD15C,3.508000*%
%ADD16C,4.008000*%
%ADD17R,2.208000X2.208000*%
%ADD18O,2.208000X2.208000*%
%ADD19C,2.108000*%
%ADD20C,2.540000*%
G04 APERTURE END LIST*
D10*
D11*
X37226000Y-65140000D03*
D12*
X39766000Y-65140000D03*
X37226000Y-67680000D03*
X39766000Y-67680000D03*
X37226000Y-70220000D03*
X39766000Y-70220000D03*
X37226000Y-72760000D03*
X39766000Y-72760000D03*
X37226000Y-75300000D03*
X39766000Y-75300000D03*
X37226000Y-77840000D03*
X39766000Y-77840000D03*
X37226000Y-80380000D03*
X39766000Y-80380000D03*
X37226000Y-82920000D03*
X39766000Y-82920000D03*
X37226000Y-85460000D03*
X39766000Y-85460000D03*
X37226000Y-88000000D03*
X39766000Y-88000000D03*
D13*
X166946900Y-32512000D03*
X39096000Y-32170000D03*
X39096000Y-121170000D03*
D14*
X26636000Y-116090000D03*
D15*
X177766000Y-121170000D03*
X177766000Y-32170000D03*
D16*
X24096000Y-121170000D03*
X24096000Y-32170000D03*
D14*
X31716000Y-116090000D03*
X31716000Y-113550000D03*
X31716000Y-111010000D03*
X31716000Y-108470000D03*
X31716000Y-105930000D03*
X31716000Y-103390000D03*
X31716000Y-100850000D03*
X31716000Y-98310000D03*
X31716000Y-95770000D03*
X31716000Y-93230000D03*
X31716000Y-90690000D03*
X31716000Y-88150000D03*
X31716000Y-85610000D03*
X31716000Y-83070000D03*
X31716000Y-80530000D03*
X31716000Y-77990000D03*
X31716000Y-75450000D03*
X31716000Y-72910000D03*
X31716000Y-70370000D03*
X31716000Y-67830000D03*
X31716000Y-65290000D03*
X31716000Y-62750000D03*
X31716000Y-60210000D03*
X31716000Y-57670000D03*
X31716000Y-55130000D03*
X31716000Y-52590000D03*
X31716000Y-50050000D03*
X31716000Y-47510000D03*
X31716000Y-44970000D03*
X31716000Y-42430000D03*
X31716000Y-39890000D03*
X31716000Y-37350000D03*
X26636000Y-113550000D03*
X26636000Y-111010000D03*
X26636000Y-108470000D03*
X26636000Y-105930000D03*
X26636000Y-103390000D03*
X26636000Y-100850000D03*
X26636000Y-98310000D03*
X26636000Y-95770000D03*
X26636000Y-93230000D03*
X26636000Y-90690000D03*
X26636000Y-88150000D03*
X26636000Y-85610000D03*
X26636000Y-83070000D03*
X26636000Y-80530000D03*
X26636000Y-77990000D03*
X26636000Y-75450000D03*
X26636000Y-72910000D03*
X26636000Y-70370000D03*
X26636000Y-67830000D03*
X26636000Y-65290000D03*
X26636000Y-62750000D03*
X26636000Y-60210000D03*
X26636000Y-57670000D03*
X26636000Y-55130000D03*
X26636000Y-52590000D03*
X26636000Y-50050000D03*
X26636000Y-47510000D03*
X26636000Y-44970000D03*
X26636000Y-42430000D03*
X26636000Y-39890000D03*
X26636000Y-37350000D03*
D13*
X166946900Y-120828000D03*
D17*
X115000000Y-109470000D03*
D18*
X115000000Y-106930000D03*
D17*
X100140000Y-110500000D03*
D18*
X100140000Y-107960000D03*
D17*
X39740000Y-55510000D03*
D18*
X37200000Y-55510000D03*
X39740000Y-52970000D03*
X37200000Y-52970000D03*
X39740000Y-50430000D03*
X37200000Y-50430000D03*
X39740000Y-47890000D03*
X37200000Y-47890000D03*
X39740000Y-45350000D03*
X37200000Y-45350000D03*
D17*
X45085000Y-101346000D03*
D18*
X45085000Y-98806000D03*
X45085000Y-96266000D03*
X45085000Y-93726000D03*
D17*
X48360000Y-50290000D03*
D18*
X48360000Y-52830000D03*
X48360000Y-55370000D03*
D17*
X149800000Y-79920000D03*
D18*
X149800000Y-82460000D03*
D17*
X92456000Y-86487000D03*
D18*
X89916000Y-86487000D03*
X87376000Y-86487000D03*
X84836000Y-86487000D03*
X82296000Y-86487000D03*
X79756000Y-86487000D03*
X77216000Y-86487000D03*
D17*
X148971000Y-97282000D03*
D18*
X148971000Y-99822000D03*
D17*
X100200000Y-41220000D03*
D18*
X100200000Y-43760000D03*
D17*
X131960000Y-70520000D03*
X137223500Y-54927500D03*
D18*
X137223500Y-57467500D03*
D17*
X116713000Y-39624000D03*
D18*
X116713000Y-42164000D03*
D17*
X149800000Y-73600000D03*
D18*
X149800000Y-71060000D03*
D17*
X79380000Y-66890000D03*
D18*
X81920000Y-66890000D03*
X84460000Y-66890000D03*
X87000000Y-66890000D03*
X89540000Y-66890000D03*
D19*
X112290000Y-95430000D03*
D20*
X173010000Y-32160000D03*
X31330000Y-121170000D03*
D17*
X159639000Y-91897200D03*
D18*
X157099000Y-91897200D03*
X159639000Y-89357200D03*
X157099000Y-89357200D03*
X159639000Y-86817200D03*
X157099000Y-86817200D03*
X159639000Y-84277200D03*
X157099000Y-84277200D03*
X159639000Y-81737200D03*
X157099000Y-81737200D03*
X159639000Y-79197200D03*
X157099000Y-79197200D03*
X159639000Y-76657200D03*
X157099000Y-76657200D03*
X159639000Y-74117200D03*
X157099000Y-74117200D03*
X159639000Y-71577200D03*
X157099000Y-71577200D03*
X159639000Y-69037200D03*
X157099000Y-69037200D03*
X159639000Y-66497200D03*
X157099000Y-66497200D03*
X159639000Y-63957200D03*
X157099000Y-63957200D03*
X159639000Y-61417200D03*
X157099000Y-61417200D03*
M02*
