G04 #@! TF.FileFunction,Drawing*
%FSLAX46Y46*%
G04 Gerber Fmt 4.6, Leading zero omitted, Abs format (unit mm)*
G04 Created by KiCad (PCBNEW no-vcs-found-product) date Mon Sep  4 09:08:35 2017*
%MOMM*%
%LPD*%
G01*
G04 APERTURE LIST*
%ADD10C,0.150000*%
%ADD11C,0.180000*%
%ADD12C,0.075000*%
G04 APERTURE END LIST*
D10*
D11*
X111510000Y-75680000D02*
X112290000Y-75680000D01*
X111510000Y-76680000D02*
X111510000Y-75680000D01*
X117340000Y-77680000D02*
X117340000Y-77690000D01*
X111510000Y-77680000D02*
X117340000Y-77680000D01*
X111510000Y-76680000D02*
X111510000Y-77680000D01*
X21336000Y-76682600D02*
X181330600Y-76682600D01*
D10*
X181336000Y-29170000D02*
X21336000Y-29170000D01*
X181336000Y-124170000D02*
X21336000Y-124170000D01*
D12*
X105716190Y-97379523D02*
X105478095Y-97546190D01*
X105716190Y-97665238D02*
X105216190Y-97665238D01*
X105216190Y-97474761D01*
X105240000Y-97427142D01*
X105263809Y-97403333D01*
X105311428Y-97379523D01*
X105382857Y-97379523D01*
X105430476Y-97403333D01*
X105454285Y-97427142D01*
X105478095Y-97474761D01*
X105478095Y-97665238D01*
X105216190Y-97212857D02*
X105216190Y-96903333D01*
X105406666Y-97070000D01*
X105406666Y-96998571D01*
X105430476Y-96950952D01*
X105454285Y-96927142D01*
X105501904Y-96903333D01*
X105620952Y-96903333D01*
X105668571Y-96927142D01*
X105692380Y-96950952D01*
X105716190Y-96998571D01*
X105716190Y-97141428D01*
X105692380Y-97189047D01*
X105668571Y-97212857D01*
X105216190Y-96593809D02*
X105216190Y-96546190D01*
X105240000Y-96498571D01*
X105263809Y-96474761D01*
X105311428Y-96450952D01*
X105406666Y-96427142D01*
X105525714Y-96427142D01*
X105620952Y-96450952D01*
X105668571Y-96474761D01*
X105692380Y-96498571D01*
X105716190Y-96546190D01*
X105716190Y-96593809D01*
X105692380Y-96641428D01*
X105668571Y-96665238D01*
X105620952Y-96689047D01*
X105525714Y-96712857D01*
X105406666Y-96712857D01*
X105311428Y-96689047D01*
X105263809Y-96665238D01*
X105240000Y-96641428D01*
X105216190Y-96593809D01*
X105216190Y-95998571D02*
X105216190Y-96093809D01*
X105240000Y-96141428D01*
X105263809Y-96165238D01*
X105335238Y-96212857D01*
X105430476Y-96236666D01*
X105620952Y-96236666D01*
X105668571Y-96212857D01*
X105692380Y-96189047D01*
X105716190Y-96141428D01*
X105716190Y-96046190D01*
X105692380Y-95998571D01*
X105668571Y-95974761D01*
X105620952Y-95950952D01*
X105501904Y-95950952D01*
X105454285Y-95974761D01*
X105430476Y-95998571D01*
X105406666Y-96046190D01*
X105406666Y-96141428D01*
X105430476Y-96189047D01*
X105454285Y-96212857D01*
X105501904Y-96236666D01*
X104356190Y-96833809D02*
X104356190Y-96786190D01*
X104380000Y-96738571D01*
X104403809Y-96714761D01*
X104451428Y-96690952D01*
X104546666Y-96667142D01*
X104665714Y-96667142D01*
X104760952Y-96690952D01*
X104808571Y-96714761D01*
X104832380Y-96738571D01*
X104856190Y-96786190D01*
X104856190Y-96833809D01*
X104832380Y-96881428D01*
X104808571Y-96905238D01*
X104760952Y-96929047D01*
X104665714Y-96952857D01*
X104546666Y-96952857D01*
X104451428Y-96929047D01*
X104403809Y-96905238D01*
X104380000Y-96881428D01*
X104356190Y-96833809D01*
X107126190Y-97369523D02*
X106888095Y-97536190D01*
X107126190Y-97655238D02*
X106626190Y-97655238D01*
X106626190Y-97464761D01*
X106650000Y-97417142D01*
X106673809Y-97393333D01*
X106721428Y-97369523D01*
X106792857Y-97369523D01*
X106840476Y-97393333D01*
X106864285Y-97417142D01*
X106888095Y-97464761D01*
X106888095Y-97655238D01*
X106626190Y-97202857D02*
X106626190Y-96893333D01*
X106816666Y-97060000D01*
X106816666Y-96988571D01*
X106840476Y-96940952D01*
X106864285Y-96917142D01*
X106911904Y-96893333D01*
X107030952Y-96893333D01*
X107078571Y-96917142D01*
X107102380Y-96940952D01*
X107126190Y-96988571D01*
X107126190Y-97131428D01*
X107102380Y-97179047D01*
X107078571Y-97202857D01*
X106626190Y-96583809D02*
X106626190Y-96536190D01*
X106650000Y-96488571D01*
X106673809Y-96464761D01*
X106721428Y-96440952D01*
X106816666Y-96417142D01*
X106935714Y-96417142D01*
X107030952Y-96440952D01*
X107078571Y-96464761D01*
X107102380Y-96488571D01*
X107126190Y-96536190D01*
X107126190Y-96583809D01*
X107102380Y-96631428D01*
X107078571Y-96655238D01*
X107030952Y-96679047D01*
X106935714Y-96702857D01*
X106816666Y-96702857D01*
X106721428Y-96679047D01*
X106673809Y-96655238D01*
X106650000Y-96631428D01*
X106626190Y-96583809D01*
X106626190Y-95988571D02*
X106626190Y-96083809D01*
X106650000Y-96131428D01*
X106673809Y-96155238D01*
X106745238Y-96202857D01*
X106840476Y-96226666D01*
X107030952Y-96226666D01*
X107078571Y-96202857D01*
X107102380Y-96179047D01*
X107126190Y-96131428D01*
X107126190Y-96036190D01*
X107102380Y-95988571D01*
X107078571Y-95964761D01*
X107030952Y-95940952D01*
X106911904Y-95940952D01*
X106864285Y-95964761D01*
X106840476Y-95988571D01*
X106816666Y-96036190D01*
X106816666Y-96131428D01*
X106840476Y-96179047D01*
X106864285Y-96202857D01*
X106911904Y-96226666D01*
X152223333Y-83390476D02*
X152223333Y-83152380D01*
X152366190Y-83438095D02*
X151866190Y-83271428D01*
X152366190Y-83104761D01*
X152032857Y-82938095D02*
X152366190Y-82938095D01*
X152080476Y-82938095D02*
X152056666Y-82914285D01*
X152032857Y-82866666D01*
X152032857Y-82795238D01*
X152056666Y-82747619D01*
X152104285Y-82723809D01*
X152366190Y-82723809D01*
X152366190Y-82271428D02*
X152104285Y-82271428D01*
X152056666Y-82295238D01*
X152032857Y-82342857D01*
X152032857Y-82438095D01*
X152056666Y-82485714D01*
X152342380Y-82271428D02*
X152366190Y-82319047D01*
X152366190Y-82438095D01*
X152342380Y-82485714D01*
X152294761Y-82509523D01*
X152247142Y-82509523D01*
X152199523Y-82485714D01*
X152175714Y-82438095D01*
X152175714Y-82319047D01*
X152151904Y-82271428D01*
X152366190Y-81961904D02*
X152342380Y-82009523D01*
X152294761Y-82033333D01*
X151866190Y-82033333D01*
X152366190Y-81700000D02*
X152342380Y-81747619D01*
X152318571Y-81771428D01*
X152270952Y-81795238D01*
X152128095Y-81795238D01*
X152080476Y-81771428D01*
X152056666Y-81747619D01*
X152032857Y-81700000D01*
X152032857Y-81628571D01*
X152056666Y-81580952D01*
X152080476Y-81557142D01*
X152128095Y-81533333D01*
X152270952Y-81533333D01*
X152318571Y-81557142D01*
X152342380Y-81580952D01*
X152366190Y-81628571D01*
X152366190Y-81700000D01*
X152032857Y-81104761D02*
X152437619Y-81104761D01*
X152485238Y-81128571D01*
X152509047Y-81152380D01*
X152532857Y-81200000D01*
X152532857Y-81271428D01*
X152509047Y-81319047D01*
X152342380Y-81104761D02*
X152366190Y-81152380D01*
X152366190Y-81247619D01*
X152342380Y-81295238D01*
X152318571Y-81319047D01*
X152270952Y-81342857D01*
X152128095Y-81342857D01*
X152080476Y-81319047D01*
X152056666Y-81295238D01*
X152032857Y-81247619D01*
X152032857Y-81152380D01*
X152056666Y-81104761D01*
X152413809Y-80985714D02*
X152413809Y-80604761D01*
X152366190Y-80414285D02*
X152342380Y-80461904D01*
X152318571Y-80485714D01*
X152270952Y-80509523D01*
X152128095Y-80509523D01*
X152080476Y-80485714D01*
X152056666Y-80461904D01*
X152032857Y-80414285D01*
X152032857Y-80342857D01*
X152056666Y-80295238D01*
X152080476Y-80271428D01*
X152128095Y-80247619D01*
X152270952Y-80247619D01*
X152318571Y-80271428D01*
X152342380Y-80295238D01*
X152366190Y-80342857D01*
X152366190Y-80414285D01*
X152032857Y-79819047D02*
X152366190Y-79819047D01*
X152032857Y-80033333D02*
X152294761Y-80033333D01*
X152342380Y-80009523D01*
X152366190Y-79961904D01*
X152366190Y-79890476D01*
X152342380Y-79842857D01*
X152318571Y-79819047D01*
X152032857Y-79652380D02*
X152032857Y-79461904D01*
X151866190Y-79580952D02*
X152294761Y-79580952D01*
X152342380Y-79557142D01*
X152366190Y-79509523D01*
X152366190Y-79461904D01*
X90230476Y-84326190D02*
X90230476Y-83826190D01*
X90349523Y-83826190D01*
X90420952Y-83850000D01*
X90468571Y-83897619D01*
X90492380Y-83945238D01*
X90516190Y-84040476D01*
X90516190Y-84111904D01*
X90492380Y-84207142D01*
X90468571Y-84254761D01*
X90420952Y-84302380D01*
X90349523Y-84326190D01*
X90230476Y-84326190D01*
X90706666Y-84183333D02*
X90944761Y-84183333D01*
X90659047Y-84326190D02*
X90825714Y-83826190D01*
X90992380Y-84326190D01*
X91444761Y-84278571D02*
X91420952Y-84302380D01*
X91349523Y-84326190D01*
X91301904Y-84326190D01*
X91230476Y-84302380D01*
X91182857Y-84254761D01*
X91159047Y-84207142D01*
X91135238Y-84111904D01*
X91135238Y-84040476D01*
X91159047Y-83945238D01*
X91182857Y-83897619D01*
X91230476Y-83850000D01*
X91301904Y-83826190D01*
X91349523Y-83826190D01*
X91420952Y-83850000D01*
X91444761Y-83873809D01*
X91540000Y-84373809D02*
X91920952Y-84373809D01*
X92040000Y-83992857D02*
X92040000Y-84492857D01*
X92040000Y-84016666D02*
X92087619Y-83992857D01*
X92182857Y-83992857D01*
X92230476Y-84016666D01*
X92254285Y-84040476D01*
X92278095Y-84088095D01*
X92278095Y-84230952D01*
X92254285Y-84278571D01*
X92230476Y-84302380D01*
X92182857Y-84326190D01*
X92087619Y-84326190D01*
X92040000Y-84302380D01*
X92492380Y-84326190D02*
X92492380Y-83992857D01*
X92492380Y-83826190D02*
X92468571Y-83850000D01*
X92492380Y-83873809D01*
X92516190Y-83850000D01*
X92492380Y-83826190D01*
X92492380Y-83873809D01*
X92730476Y-83992857D02*
X92730476Y-84326190D01*
X92730476Y-84040476D02*
X92754285Y-84016666D01*
X92801904Y-83992857D01*
X92873333Y-83992857D01*
X92920952Y-84016666D01*
X92944761Y-84064285D01*
X92944761Y-84326190D01*
X93159047Y-84302380D02*
X93206666Y-84326190D01*
X93301904Y-84326190D01*
X93349523Y-84302380D01*
X93373333Y-84254761D01*
X93373333Y-84230952D01*
X93349523Y-84183333D01*
X93301904Y-84159523D01*
X93230476Y-84159523D01*
X93182857Y-84135714D01*
X93159047Y-84088095D01*
X93159047Y-84064285D01*
X93182857Y-84016666D01*
X93230476Y-83992857D01*
X93301904Y-83992857D01*
X93349523Y-84016666D01*
X123620476Y-56926190D02*
X123453809Y-56688095D01*
X123334761Y-56926190D02*
X123334761Y-56426190D01*
X123525238Y-56426190D01*
X123572857Y-56450000D01*
X123596666Y-56473809D01*
X123620476Y-56521428D01*
X123620476Y-56592857D01*
X123596666Y-56640476D01*
X123572857Y-56664285D01*
X123525238Y-56688095D01*
X123334761Y-56688095D01*
X124049047Y-56592857D02*
X124049047Y-56926190D01*
X123930000Y-56402380D02*
X123810952Y-56759523D01*
X124120476Y-56759523D01*
X124406190Y-56426190D02*
X124453809Y-56426190D01*
X124501428Y-56450000D01*
X124525238Y-56473809D01*
X124549047Y-56521428D01*
X124572857Y-56616666D01*
X124572857Y-56735714D01*
X124549047Y-56830952D01*
X124525238Y-56878571D01*
X124501428Y-56902380D01*
X124453809Y-56926190D01*
X124406190Y-56926190D01*
X124358571Y-56902380D01*
X124334761Y-56878571D01*
X124310952Y-56830952D01*
X124287142Y-56735714D01*
X124287142Y-56616666D01*
X124310952Y-56521428D01*
X124334761Y-56473809D01*
X124358571Y-56450000D01*
X124406190Y-56426190D01*
X124810952Y-56926190D02*
X124906190Y-56926190D01*
X124953809Y-56902380D01*
X124977619Y-56878571D01*
X125025238Y-56807142D01*
X125049047Y-56711904D01*
X125049047Y-56521428D01*
X125025238Y-56473809D01*
X125001428Y-56450000D01*
X124953809Y-56426190D01*
X124858571Y-56426190D01*
X124810952Y-56450000D01*
X124787142Y-56473809D01*
X124763333Y-56521428D01*
X124763333Y-56640476D01*
X124787142Y-56688095D01*
X124810952Y-56711904D01*
X124858571Y-56735714D01*
X124953809Y-56735714D01*
X125001428Y-56711904D01*
X125025238Y-56688095D01*
X125049047Y-56640476D01*
X124176190Y-54776190D02*
X124223809Y-54776190D01*
X124271428Y-54800000D01*
X124295238Y-54823809D01*
X124319047Y-54871428D01*
X124342857Y-54966666D01*
X124342857Y-55085714D01*
X124319047Y-55180952D01*
X124295238Y-55228571D01*
X124271428Y-55252380D01*
X124223809Y-55276190D01*
X124176190Y-55276190D01*
X124128571Y-55252380D01*
X124104761Y-55228571D01*
X124080952Y-55180952D01*
X124057142Y-55085714D01*
X124057142Y-54966666D01*
X124080952Y-54871428D01*
X124104761Y-54823809D01*
X124128571Y-54800000D01*
X124176190Y-54776190D01*
X123600476Y-53946190D02*
X123433809Y-53708095D01*
X123314761Y-53946190D02*
X123314761Y-53446190D01*
X123505238Y-53446190D01*
X123552857Y-53470000D01*
X123576666Y-53493809D01*
X123600476Y-53541428D01*
X123600476Y-53612857D01*
X123576666Y-53660476D01*
X123552857Y-53684285D01*
X123505238Y-53708095D01*
X123314761Y-53708095D01*
X124029047Y-53612857D02*
X124029047Y-53946190D01*
X123910000Y-53422380D02*
X123790952Y-53779523D01*
X124100476Y-53779523D01*
X124386190Y-53446190D02*
X124433809Y-53446190D01*
X124481428Y-53470000D01*
X124505238Y-53493809D01*
X124529047Y-53541428D01*
X124552857Y-53636666D01*
X124552857Y-53755714D01*
X124529047Y-53850952D01*
X124505238Y-53898571D01*
X124481428Y-53922380D01*
X124433809Y-53946190D01*
X124386190Y-53946190D01*
X124338571Y-53922380D01*
X124314761Y-53898571D01*
X124290952Y-53850952D01*
X124267142Y-53755714D01*
X124267142Y-53636666D01*
X124290952Y-53541428D01*
X124314761Y-53493809D01*
X124338571Y-53470000D01*
X124386190Y-53446190D01*
X124790952Y-53946190D02*
X124886190Y-53946190D01*
X124933809Y-53922380D01*
X124957619Y-53898571D01*
X125005238Y-53827142D01*
X125029047Y-53731904D01*
X125029047Y-53541428D01*
X125005238Y-53493809D01*
X124981428Y-53470000D01*
X124933809Y-53446190D01*
X124838571Y-53446190D01*
X124790952Y-53470000D01*
X124767142Y-53493809D01*
X124743333Y-53541428D01*
X124743333Y-53660476D01*
X124767142Y-53708095D01*
X124790952Y-53731904D01*
X124838571Y-53755714D01*
X124933809Y-53755714D01*
X124981428Y-53731904D01*
X125005238Y-53708095D01*
X125029047Y-53660476D01*
X152223333Y-73940476D02*
X152223333Y-73702380D01*
X152366190Y-73988095D02*
X151866190Y-73821428D01*
X152366190Y-73654761D01*
X152032857Y-73488095D02*
X152366190Y-73488095D01*
X152080476Y-73488095D02*
X152056666Y-73464285D01*
X152032857Y-73416666D01*
X152032857Y-73345238D01*
X152056666Y-73297619D01*
X152104285Y-73273809D01*
X152366190Y-73273809D01*
X152366190Y-72821428D02*
X152104285Y-72821428D01*
X152056666Y-72845238D01*
X152032857Y-72892857D01*
X152032857Y-72988095D01*
X152056666Y-73035714D01*
X152342380Y-72821428D02*
X152366190Y-72869047D01*
X152366190Y-72988095D01*
X152342380Y-73035714D01*
X152294761Y-73059523D01*
X152247142Y-73059523D01*
X152199523Y-73035714D01*
X152175714Y-72988095D01*
X152175714Y-72869047D01*
X152151904Y-72821428D01*
X152366190Y-72511904D02*
X152342380Y-72559523D01*
X152294761Y-72583333D01*
X151866190Y-72583333D01*
X152366190Y-72250000D02*
X152342380Y-72297619D01*
X152318571Y-72321428D01*
X152270952Y-72345238D01*
X152128095Y-72345238D01*
X152080476Y-72321428D01*
X152056666Y-72297619D01*
X152032857Y-72250000D01*
X152032857Y-72178571D01*
X152056666Y-72130952D01*
X152080476Y-72107142D01*
X152128095Y-72083333D01*
X152270952Y-72083333D01*
X152318571Y-72107142D01*
X152342380Y-72130952D01*
X152366190Y-72178571D01*
X152366190Y-72250000D01*
X152032857Y-71654761D02*
X152437619Y-71654761D01*
X152485238Y-71678571D01*
X152509047Y-71702380D01*
X152532857Y-71750000D01*
X152532857Y-71821428D01*
X152509047Y-71869047D01*
X152342380Y-71654761D02*
X152366190Y-71702380D01*
X152366190Y-71797619D01*
X152342380Y-71845238D01*
X152318571Y-71869047D01*
X152270952Y-71892857D01*
X152128095Y-71892857D01*
X152080476Y-71869047D01*
X152056666Y-71845238D01*
X152032857Y-71797619D01*
X152032857Y-71702380D01*
X152056666Y-71654761D01*
X152413809Y-71535714D02*
X152413809Y-71154761D01*
X152366190Y-71035714D02*
X152032857Y-71035714D01*
X151866190Y-71035714D02*
X151890000Y-71059523D01*
X151913809Y-71035714D01*
X151890000Y-71011904D01*
X151866190Y-71035714D01*
X151913809Y-71035714D01*
X152032857Y-70797619D02*
X152366190Y-70797619D01*
X152080476Y-70797619D02*
X152056666Y-70773809D01*
X152032857Y-70726190D01*
X152032857Y-70654761D01*
X152056666Y-70607142D01*
X152104285Y-70583333D01*
X152366190Y-70583333D01*
X87256666Y-69433333D02*
X87494761Y-69433333D01*
X87209047Y-69576190D02*
X87375714Y-69076190D01*
X87542380Y-69576190D01*
X87709047Y-69576190D02*
X87709047Y-69076190D01*
X87828095Y-69076190D01*
X87899523Y-69100000D01*
X87947142Y-69147619D01*
X87970952Y-69195238D01*
X87994761Y-69290476D01*
X87994761Y-69361904D01*
X87970952Y-69457142D01*
X87947142Y-69504761D01*
X87899523Y-69552380D01*
X87828095Y-69576190D01*
X87709047Y-69576190D01*
X88494761Y-69528571D02*
X88470952Y-69552380D01*
X88399523Y-69576190D01*
X88351904Y-69576190D01*
X88280476Y-69552380D01*
X88232857Y-69504761D01*
X88209047Y-69457142D01*
X88185238Y-69361904D01*
X88185238Y-69290476D01*
X88209047Y-69195238D01*
X88232857Y-69147619D01*
X88280476Y-69100000D01*
X88351904Y-69076190D01*
X88399523Y-69076190D01*
X88470952Y-69100000D01*
X88494761Y-69123809D01*
X88590000Y-69623809D02*
X88970952Y-69623809D01*
X89090000Y-69242857D02*
X89090000Y-69742857D01*
X89090000Y-69266666D02*
X89137619Y-69242857D01*
X89232857Y-69242857D01*
X89280476Y-69266666D01*
X89304285Y-69290476D01*
X89328095Y-69338095D01*
X89328095Y-69480952D01*
X89304285Y-69528571D01*
X89280476Y-69552380D01*
X89232857Y-69576190D01*
X89137619Y-69576190D01*
X89090000Y-69552380D01*
X89542380Y-69576190D02*
X89542380Y-69242857D01*
X89542380Y-69076190D02*
X89518571Y-69100000D01*
X89542380Y-69123809D01*
X89566190Y-69100000D01*
X89542380Y-69076190D01*
X89542380Y-69123809D01*
X89780476Y-69242857D02*
X89780476Y-69576190D01*
X89780476Y-69290476D02*
X89804285Y-69266666D01*
X89851904Y-69242857D01*
X89923333Y-69242857D01*
X89970952Y-69266666D01*
X89994761Y-69314285D01*
X89994761Y-69576190D01*
X90209047Y-69552380D02*
X90256666Y-69576190D01*
X90351904Y-69576190D01*
X90399523Y-69552380D01*
X90423333Y-69504761D01*
X90423333Y-69480952D01*
X90399523Y-69433333D01*
X90351904Y-69409523D01*
X90280476Y-69409523D01*
X90232857Y-69385714D01*
X90209047Y-69338095D01*
X90209047Y-69314285D01*
X90232857Y-69266666D01*
X90280476Y-69242857D01*
X90351904Y-69242857D01*
X90399523Y-69266666D01*
D10*
X172166666Y-34758571D02*
X171833333Y-34758571D01*
X171833333Y-35282380D02*
X171833333Y-34282380D01*
X172309523Y-34282380D01*
X172690476Y-35282380D02*
X172690476Y-34282380D01*
X172928571Y-34282380D01*
X173071428Y-34330000D01*
X173166666Y-34425238D01*
X173214285Y-34520476D01*
X173261904Y-34710952D01*
X173261904Y-34853809D01*
X173214285Y-35044285D01*
X173166666Y-35139523D01*
X173071428Y-35234761D01*
X172928571Y-35282380D01*
X172690476Y-35282380D01*
X174119047Y-34615714D02*
X174119047Y-35282380D01*
X173880952Y-34234761D02*
X173642857Y-34949047D01*
X174261904Y-34949047D01*
X30506666Y-123328571D02*
X30173333Y-123328571D01*
X30173333Y-123852380D02*
X30173333Y-122852380D01*
X30649523Y-122852380D01*
X31030476Y-123852380D02*
X31030476Y-122852380D01*
X31268571Y-122852380D01*
X31411428Y-122900000D01*
X31506666Y-122995238D01*
X31554285Y-123090476D01*
X31601904Y-123280952D01*
X31601904Y-123423809D01*
X31554285Y-123614285D01*
X31506666Y-123709523D01*
X31411428Y-123804761D01*
X31268571Y-123852380D01*
X31030476Y-123852380D01*
X31935238Y-122852380D02*
X32554285Y-122852380D01*
X32220952Y-123233333D01*
X32363809Y-123233333D01*
X32459047Y-123280952D01*
X32506666Y-123328571D01*
X32554285Y-123423809D01*
X32554285Y-123661904D01*
X32506666Y-123757142D01*
X32459047Y-123804761D01*
X32363809Y-123852380D01*
X32078095Y-123852380D01*
X31982857Y-123804761D01*
X31935238Y-123757142D01*
M02*
