G04 #@! TF.FileFunction,Other,User*
%FSLAX46Y46*%
G04 Gerber Fmt 4.6, Leading zero omitted, Abs format (unit mm)*
G04 Created by KiCad (PCBNEW no-vcs-found-product) date Mon Sep  4 09:08:35 2017*
%MOMM*%
%LPD*%
G01*
G04 APERTURE LIST*
%ADD10C,0.150000*%
%ADD11C,0.050000*%
G04 APERTURE END LIST*
D10*
D11*
X35448000Y-63362000D02*
X35448000Y-89778000D01*
X41544000Y-89778000D02*
X41544000Y-63362000D01*
X35476000Y-63390000D02*
X41526000Y-63390000D01*
X35476000Y-89770000D02*
X41526000Y-89770000D01*
X106000000Y-98360000D02*
X106000000Y-95260000D01*
X106000000Y-98360000D02*
X107800000Y-98360000D01*
X107800000Y-95260000D02*
X106000000Y-95260000D01*
X107800000Y-95260000D02*
X107800000Y-98360000D01*
X128440000Y-50249000D02*
X117940000Y-50249000D01*
X128440000Y-60749000D02*
X117940000Y-60749000D01*
X128440000Y-50249000D02*
X128440000Y-60749000D01*
X117940000Y-50249000D02*
X117940000Y-60749000D01*
X112566800Y-85889800D02*
X105466800Y-85889800D01*
X112566800Y-93789800D02*
X105466800Y-93789800D01*
X112566800Y-85889800D02*
X112566800Y-93789800D01*
X105466800Y-85889800D02*
X105466800Y-93789800D01*
X103606000Y-102351000D02*
X106706000Y-102351000D01*
X103606000Y-102351000D02*
X103606000Y-104151000D01*
X106706000Y-104151000D02*
X106706000Y-102351000D01*
X106706000Y-104151000D02*
X103606000Y-104151000D01*
X109330000Y-120370000D02*
X106230000Y-120370000D01*
X109330000Y-120370000D02*
X109330000Y-118570000D01*
X106230000Y-118570000D02*
X106230000Y-120370000D01*
X106230000Y-118570000D02*
X109330000Y-118570000D01*
X91215000Y-109221000D02*
X91215000Y-99821000D01*
X91215000Y-109221000D02*
X98015000Y-109221000D01*
X98015000Y-99821000D02*
X91215000Y-99821000D01*
X98015000Y-99821000D02*
X98015000Y-109221000D01*
X98015000Y-109981000D02*
X98015000Y-119381000D01*
X98015000Y-109981000D02*
X91215000Y-109981000D01*
X91215000Y-119381000D02*
X98015000Y-119381000D01*
X91215000Y-119381000D02*
X91215000Y-109981000D01*
X87992000Y-118393000D02*
X87992000Y-99793000D01*
X76092000Y-118393000D02*
X76092000Y-99793000D01*
X87992000Y-118393000D02*
X76092000Y-118393000D01*
X87992000Y-99793000D02*
X76092000Y-99793000D01*
X98792000Y-105162000D02*
X103392000Y-105162000D01*
X98792000Y-99562000D02*
X103392000Y-99562000D01*
X98792000Y-105162000D02*
X98792000Y-99562000D01*
X103392000Y-105162000D02*
X103392000Y-99562000D01*
X103606000Y-99557000D02*
X106706000Y-99557000D01*
X103606000Y-99557000D02*
X103606000Y-101357000D01*
X106706000Y-101357000D02*
X106706000Y-99557000D01*
X106706000Y-101357000D02*
X103606000Y-101357000D01*
X106706000Y-106310000D02*
X103606000Y-106310000D01*
X106706000Y-106310000D02*
X106706000Y-104510000D01*
X103606000Y-104510000D02*
X103606000Y-106310000D01*
X103606000Y-104510000D02*
X106706000Y-104510000D01*
X109330000Y-116770000D02*
X106230000Y-116770000D01*
X109330000Y-116770000D02*
X109330000Y-114970000D01*
X106230000Y-114970000D02*
X106230000Y-116770000D01*
X106230000Y-114970000D02*
X109330000Y-114970000D01*
X113060000Y-120370000D02*
X109960000Y-120370000D01*
X113060000Y-120370000D02*
X113060000Y-118570000D01*
X109960000Y-118570000D02*
X109960000Y-120370000D01*
X109960000Y-118570000D02*
X113060000Y-118570000D01*
X70004100Y-109795400D02*
X70004100Y-106695400D01*
X70004100Y-109795400D02*
X71804100Y-109795400D01*
X71804100Y-106695400D02*
X70004100Y-106695400D01*
X71804100Y-106695400D02*
X71804100Y-109795400D01*
X65813100Y-106239400D02*
X65813100Y-103139400D01*
X65813100Y-106239400D02*
X67613100Y-106239400D01*
X67613100Y-103139400D02*
X65813100Y-103139400D01*
X67613100Y-103139400D02*
X67613100Y-106239400D01*
X70026100Y-102885400D02*
X70026100Y-105985400D01*
X70026100Y-102885400D02*
X68226100Y-102885400D01*
X68226100Y-105985400D02*
X70026100Y-105985400D01*
X68226100Y-105985400D02*
X68226100Y-102885400D01*
X74178100Y-102862400D02*
X74178100Y-106262400D01*
X74178100Y-106262400D02*
X70678100Y-106262400D01*
X70678100Y-106262400D02*
X70678100Y-102862400D01*
X70678100Y-102862400D02*
X74178100Y-102862400D01*
X69479100Y-106545400D02*
X69479100Y-109945400D01*
X69479100Y-109945400D02*
X65979100Y-109945400D01*
X65979100Y-109945400D02*
X65979100Y-106545400D01*
X65979100Y-106545400D02*
X69479100Y-106545400D01*
X116800000Y-111270000D02*
X116800000Y-105120000D01*
X116800000Y-105120000D02*
X113200000Y-105120000D01*
X113200000Y-105120000D02*
X113200000Y-111270000D01*
X113200000Y-111270000D02*
X116800000Y-111270000D01*
X101940000Y-112300000D02*
X101940000Y-106150000D01*
X101940000Y-106150000D02*
X98340000Y-106150000D01*
X98340000Y-106150000D02*
X98340000Y-112300000D01*
X98340000Y-112300000D02*
X101940000Y-112300000D01*
X113000000Y-104430000D02*
X113000000Y-107930000D01*
X113000000Y-104430000D02*
X111250000Y-104430000D01*
X111250000Y-107930000D02*
X113000000Y-107930000D01*
X111250000Y-107930000D02*
X111250000Y-104430000D01*
X110970000Y-104420000D02*
X110970000Y-107920000D01*
X110970000Y-104420000D02*
X109220000Y-104420000D01*
X109220000Y-107920000D02*
X110970000Y-107920000D01*
X109220000Y-107920000D02*
X109220000Y-104420000D01*
X109210000Y-111860000D02*
X109210000Y-108360000D01*
X109210000Y-111860000D02*
X110960000Y-111860000D01*
X110960000Y-108360000D02*
X109210000Y-108360000D01*
X110960000Y-108360000D02*
X110960000Y-111860000D01*
X86305500Y-122336500D02*
X86305500Y-118836500D01*
X86305500Y-122336500D02*
X88055500Y-122336500D01*
X88055500Y-118836500D02*
X86305500Y-118836500D01*
X88055500Y-118836500D02*
X88055500Y-122336500D01*
X84146500Y-122336500D02*
X84146500Y-118836500D01*
X84146500Y-122336500D02*
X85896500Y-122336500D01*
X85896500Y-118836500D02*
X84146500Y-118836500D01*
X85896500Y-118836500D02*
X85896500Y-122336500D01*
X111240000Y-111860000D02*
X111240000Y-108360000D01*
X111240000Y-111860000D02*
X112990000Y-111860000D01*
X112990000Y-108360000D02*
X111240000Y-108360000D01*
X112990000Y-108360000D02*
X112990000Y-111860000D01*
X74423000Y-120240000D02*
X65023000Y-120240000D01*
X74423000Y-120240000D02*
X74423000Y-113440000D01*
X65023000Y-113440000D02*
X65023000Y-120240000D01*
X65023000Y-113440000D02*
X74423000Y-113440000D01*
X55696000Y-64266342D02*
X43392342Y-76570000D01*
X67999658Y-76570000D02*
X55696000Y-88873658D01*
X55696000Y-64266342D02*
X67999658Y-76570000D01*
X43392342Y-76570000D02*
X55696000Y-88873658D01*
X74296000Y-51025000D02*
X64896000Y-51025000D01*
X74296000Y-51025000D02*
X74296000Y-44225000D01*
X64896000Y-44225000D02*
X64896000Y-51025000D01*
X64896000Y-44225000D02*
X74296000Y-44225000D01*
X36200000Y-39860000D02*
X36200000Y-36360000D01*
X36200000Y-39860000D02*
X37950000Y-39860000D01*
X37950000Y-36360000D02*
X36200000Y-36360000D01*
X37950000Y-36360000D02*
X37950000Y-39860000D01*
X33650000Y-39860000D02*
X33650000Y-36360000D01*
X33650000Y-39860000D02*
X35400000Y-39860000D01*
X35400000Y-36360000D02*
X33650000Y-36360000D01*
X35400000Y-36360000D02*
X35400000Y-39860000D01*
X42770000Y-43330000D02*
X46270000Y-43330000D01*
X42770000Y-43330000D02*
X42770000Y-45080000D01*
X46270000Y-45080000D02*
X46270000Y-43330000D01*
X46270000Y-45080000D02*
X42770000Y-45080000D01*
X42770000Y-46900000D02*
X46270000Y-46900000D01*
X42770000Y-46900000D02*
X42770000Y-48650000D01*
X46270000Y-48650000D02*
X46270000Y-46900000D01*
X46270000Y-48650000D02*
X42770000Y-48650000D01*
X52080000Y-61690000D02*
X52080000Y-58190000D01*
X52080000Y-61690000D02*
X53830000Y-61690000D01*
X53830000Y-58190000D02*
X52080000Y-58190000D01*
X53830000Y-58190000D02*
X53830000Y-61690000D01*
X55871000Y-98199000D02*
X55871000Y-101699000D01*
X55871000Y-98199000D02*
X54121000Y-98199000D01*
X54121000Y-101699000D02*
X55871000Y-101699000D01*
X54121000Y-101699000D02*
X54121000Y-98199000D01*
X50119691Y-64027817D02*
X47644817Y-66502691D01*
X50119691Y-64027817D02*
X48882254Y-62790380D01*
X46407380Y-65265254D02*
X47644817Y-66502691D01*
X46407380Y-65265254D02*
X48882254Y-62790380D01*
X51643691Y-65551817D02*
X49168817Y-68026691D01*
X51643691Y-65551817D02*
X50406254Y-64314380D01*
X47931380Y-66789254D02*
X49168817Y-68026691D01*
X47931380Y-66789254D02*
X50406254Y-64314380D01*
X44695000Y-80673000D02*
X44695000Y-84173000D01*
X44695000Y-80673000D02*
X42945000Y-80673000D01*
X42945000Y-84173000D02*
X44695000Y-84173000D01*
X42945000Y-84173000D02*
X42945000Y-80673000D01*
X46600000Y-80673000D02*
X46600000Y-84173000D01*
X46600000Y-80673000D02*
X44850000Y-80673000D01*
X44850000Y-84173000D02*
X46600000Y-84173000D01*
X44850000Y-84173000D02*
X44850000Y-80673000D01*
X49676817Y-87167309D02*
X52151691Y-89642183D01*
X49676817Y-87167309D02*
X48439380Y-88404746D01*
X50914254Y-90879620D02*
X52151691Y-89642183D01*
X50914254Y-90879620D02*
X48439380Y-88404746D01*
X51073817Y-85770309D02*
X53548691Y-88245183D01*
X51073817Y-85770309D02*
X49836380Y-87007746D01*
X52311254Y-89482620D02*
X53548691Y-88245183D01*
X52311254Y-89482620D02*
X49836380Y-87007746D01*
X43640000Y-63740000D02*
X43640000Y-67240000D01*
X43640000Y-63740000D02*
X41890000Y-63740000D01*
X41890000Y-67240000D02*
X43640000Y-67240000D01*
X41890000Y-67240000D02*
X41890000Y-63740000D01*
X43510000Y-63160000D02*
X40010000Y-63160000D01*
X43510000Y-63160000D02*
X43510000Y-61410000D01*
X40010000Y-61410000D02*
X40010000Y-63160000D01*
X40010000Y-61410000D02*
X43510000Y-61410000D01*
X65541000Y-89888000D02*
X65541000Y-86388000D01*
X65541000Y-89888000D02*
X67291000Y-89888000D01*
X67291000Y-86388000D02*
X65541000Y-86388000D01*
X67291000Y-86388000D02*
X67291000Y-89888000D01*
X67573000Y-89888000D02*
X67573000Y-86388000D01*
X67573000Y-89888000D02*
X69323000Y-89888000D01*
X69323000Y-86388000D02*
X67573000Y-86388000D01*
X69323000Y-86388000D02*
X69323000Y-89888000D01*
X67075817Y-70657309D02*
X69550691Y-73132183D01*
X67075817Y-70657309D02*
X65838380Y-71894746D01*
X68313254Y-74369620D02*
X69550691Y-73132183D01*
X68313254Y-74369620D02*
X65838380Y-71894746D01*
X68472817Y-69260309D02*
X70947691Y-71735183D01*
X68472817Y-69260309D02*
X67235380Y-70497746D01*
X69710254Y-72972620D02*
X70947691Y-71735183D01*
X69710254Y-72972620D02*
X67235380Y-70497746D01*
X57680309Y-64745183D02*
X60155183Y-62270309D01*
X57680309Y-64745183D02*
X58917746Y-65982620D01*
X61392620Y-63507746D02*
X60155183Y-62270309D01*
X61392620Y-63507746D02*
X58917746Y-65982620D01*
X59210309Y-66285183D02*
X61685183Y-63810309D01*
X59210309Y-66285183D02*
X60447746Y-67522620D01*
X62922620Y-65047746D02*
X61685183Y-63810309D01*
X62922620Y-65047746D02*
X60447746Y-67522620D01*
X35250000Y-67420000D02*
X35250000Y-70920000D01*
X35250000Y-67420000D02*
X33500000Y-67420000D01*
X33500000Y-70920000D02*
X35250000Y-70920000D01*
X33500000Y-70920000D02*
X33500000Y-67420000D01*
X33590000Y-61400000D02*
X37090000Y-61400000D01*
X33590000Y-61400000D02*
X33590000Y-63150000D01*
X37090000Y-63150000D02*
X37090000Y-61400000D01*
X37090000Y-63150000D02*
X33590000Y-63150000D01*
X47089691Y-66954817D02*
X44614817Y-69429691D01*
X47089691Y-66954817D02*
X45852254Y-65717380D01*
X43377380Y-68192254D02*
X44614817Y-69429691D01*
X43377380Y-68192254D02*
X45852254Y-65717380D01*
X48595691Y-68472817D02*
X46120817Y-70947691D01*
X48595691Y-68472817D02*
X47358254Y-67235380D01*
X44883380Y-69710254D02*
X46120817Y-70947691D01*
X44883380Y-69710254D02*
X47358254Y-67235380D01*
X65541000Y-86205000D02*
X65541000Y-82705000D01*
X65541000Y-86205000D02*
X67291000Y-86205000D01*
X67291000Y-82705000D02*
X65541000Y-82705000D01*
X67291000Y-82705000D02*
X67291000Y-86205000D01*
X67573000Y-86205000D02*
X67573000Y-82705000D01*
X67573000Y-86205000D02*
X69323000Y-86205000D01*
X69323000Y-82705000D02*
X67573000Y-82705000D01*
X69323000Y-82705000D02*
X69323000Y-86205000D01*
X129314000Y-91195000D02*
X132814000Y-91195000D01*
X129314000Y-91195000D02*
X129314000Y-92945000D01*
X132814000Y-92945000D02*
X132814000Y-91195000D01*
X132814000Y-92945000D02*
X129314000Y-92945000D01*
X108486000Y-80146000D02*
X111986000Y-80146000D01*
X108486000Y-80146000D02*
X108486000Y-81896000D01*
X111986000Y-81896000D02*
X111986000Y-80146000D01*
X111986000Y-81896000D02*
X108486000Y-81896000D01*
X108486000Y-82686000D02*
X111986000Y-82686000D01*
X108486000Y-82686000D02*
X108486000Y-84436000D01*
X111986000Y-84436000D02*
X111986000Y-82686000D01*
X111986000Y-84436000D02*
X108486000Y-84436000D01*
X122908000Y-92193000D02*
X119408000Y-92193000D01*
X122908000Y-92193000D02*
X122908000Y-90443000D01*
X119408000Y-90443000D02*
X119408000Y-92193000D01*
X119408000Y-90443000D02*
X122908000Y-90443000D01*
X143665000Y-93100000D02*
X147165000Y-93100000D01*
X143665000Y-93100000D02*
X143665000Y-94850000D01*
X147165000Y-94850000D02*
X147165000Y-93100000D01*
X147165000Y-94850000D02*
X143665000Y-94850000D01*
X112740000Y-98770000D02*
X109240000Y-98770000D01*
X112740000Y-98770000D02*
X112740000Y-97020000D01*
X109240000Y-97020000D02*
X109240000Y-98770000D01*
X109240000Y-97020000D02*
X112740000Y-97020000D01*
X126520000Y-106943000D02*
X130020000Y-106943000D01*
X126520000Y-106943000D02*
X126520000Y-108693000D01*
X130020000Y-108693000D02*
X130020000Y-106943000D01*
X130020000Y-108693000D02*
X126520000Y-108693000D01*
X120532000Y-101826000D02*
X120532000Y-98326000D01*
X120532000Y-101826000D02*
X122282000Y-101826000D01*
X122282000Y-98326000D02*
X120532000Y-98326000D01*
X122282000Y-98326000D02*
X122282000Y-101826000D01*
X126520000Y-109102000D02*
X130020000Y-109102000D01*
X126520000Y-109102000D02*
X126520000Y-110852000D01*
X130020000Y-110852000D02*
X130020000Y-109102000D01*
X130020000Y-110852000D02*
X126520000Y-110852000D01*
X118373000Y-101826000D02*
X118373000Y-98326000D01*
X118373000Y-101826000D02*
X120123000Y-101826000D01*
X120123000Y-98326000D02*
X118373000Y-98326000D01*
X120123000Y-98326000D02*
X120123000Y-101826000D01*
X120260000Y-80673000D02*
X120260000Y-84173000D01*
X120260000Y-80673000D02*
X118510000Y-80673000D01*
X118510000Y-84173000D02*
X120260000Y-84173000D01*
X118510000Y-84173000D02*
X118510000Y-80673000D01*
X125231000Y-93444000D02*
X125231000Y-89944000D01*
X125231000Y-93444000D02*
X126981000Y-93444000D01*
X126981000Y-89944000D02*
X125231000Y-89944000D01*
X126981000Y-89944000D02*
X126981000Y-93444000D01*
X118101000Y-80673000D02*
X118101000Y-84173000D01*
X118101000Y-80673000D02*
X116351000Y-80673000D01*
X116351000Y-84173000D02*
X118101000Y-84173000D01*
X116351000Y-84173000D02*
X116351000Y-80673000D01*
X127263000Y-93444000D02*
X127263000Y-89944000D01*
X127263000Y-93444000D02*
X129013000Y-93444000D01*
X129013000Y-89944000D02*
X127263000Y-89944000D01*
X129013000Y-89944000D02*
X129013000Y-93444000D01*
X128270000Y-106320000D02*
X128270000Y-102820000D01*
X128270000Y-106320000D02*
X130020000Y-106320000D01*
X130020000Y-102820000D02*
X128270000Y-102820000D01*
X130020000Y-102820000D02*
X130020000Y-106320000D01*
X128451500Y-85689500D02*
X128451500Y-89189500D01*
X128451500Y-85689500D02*
X126701500Y-85689500D01*
X126701500Y-89189500D02*
X128451500Y-89189500D01*
X126701500Y-89189500D02*
X126701500Y-85689500D01*
X110481000Y-67620000D02*
X110481000Y-71120000D01*
X110481000Y-67620000D02*
X108731000Y-67620000D01*
X108731000Y-71120000D02*
X110481000Y-71120000D01*
X108731000Y-71120000D02*
X108731000Y-67620000D01*
X113529000Y-40922000D02*
X113529000Y-44422000D01*
X113529000Y-40922000D02*
X111779000Y-40922000D01*
X111779000Y-44422000D02*
X113529000Y-44422000D01*
X111779000Y-44422000D02*
X111779000Y-40922000D01*
X86115000Y-57757000D02*
X86115000Y-54257000D01*
X86115000Y-57757000D02*
X87865000Y-57757000D01*
X87865000Y-54257000D02*
X86115000Y-54257000D01*
X87865000Y-54257000D02*
X87865000Y-57757000D01*
X83956000Y-57757000D02*
X83956000Y-54257000D01*
X83956000Y-57757000D02*
X85706000Y-57757000D01*
X85706000Y-54257000D02*
X83956000Y-54257000D01*
X85706000Y-54257000D02*
X85706000Y-57757000D01*
X111497000Y-40922000D02*
X111497000Y-44422000D01*
X111497000Y-40922000D02*
X109747000Y-40922000D01*
X109747000Y-44422000D02*
X111497000Y-44422000D01*
X109747000Y-44422000D02*
X109747000Y-40922000D01*
X122080000Y-68870000D02*
X122080000Y-73370000D01*
X122080000Y-68870000D02*
X119080000Y-68870000D01*
X119080000Y-73370000D02*
X122080000Y-73370000D01*
X119080000Y-73370000D02*
X119080000Y-68870000D01*
X109750000Y-40490000D02*
X109750000Y-36990000D01*
X109750000Y-40490000D02*
X111500000Y-40490000D01*
X111500000Y-36990000D02*
X109750000Y-36990000D01*
X111500000Y-36990000D02*
X111500000Y-40490000D01*
X111770000Y-40490000D02*
X111770000Y-36990000D01*
X111770000Y-40490000D02*
X113520000Y-40490000D01*
X113520000Y-36990000D02*
X111770000Y-36990000D01*
X113520000Y-36990000D02*
X113520000Y-40490000D01*
X141342000Y-52606000D02*
X141342000Y-56106000D01*
X141342000Y-52606000D02*
X139592000Y-52606000D01*
X139592000Y-56106000D02*
X141342000Y-56106000D01*
X139592000Y-56106000D02*
X139592000Y-52606000D01*
X141342000Y-56416000D02*
X141342000Y-59916000D01*
X141342000Y-56416000D02*
X139592000Y-56416000D01*
X139592000Y-59916000D02*
X141342000Y-59916000D01*
X139592000Y-59916000D02*
X139592000Y-56416000D01*
X124959000Y-44922500D02*
X124959000Y-48422500D01*
X124959000Y-44922500D02*
X123209000Y-44922500D01*
X123209000Y-48422500D02*
X124959000Y-48422500D01*
X123209000Y-48422500D02*
X123209000Y-44922500D01*
X122927000Y-44922500D02*
X122927000Y-48422500D01*
X122927000Y-44922500D02*
X121177000Y-44922500D01*
X121177000Y-48422500D02*
X122927000Y-48422500D01*
X121177000Y-48422500D02*
X121177000Y-44922500D01*
X132071000Y-56670000D02*
X132071000Y-60170000D01*
X132071000Y-56670000D02*
X130321000Y-56670000D01*
X130321000Y-60170000D02*
X132071000Y-60170000D01*
X130321000Y-60170000D02*
X130321000Y-56670000D01*
X134103000Y-52606000D02*
X134103000Y-56106000D01*
X134103000Y-52606000D02*
X132353000Y-52606000D01*
X132353000Y-56106000D02*
X134103000Y-56106000D01*
X132353000Y-56106000D02*
X132353000Y-52606000D01*
X134103000Y-56670000D02*
X134103000Y-60170000D01*
X134103000Y-56670000D02*
X132353000Y-56670000D01*
X132353000Y-60170000D02*
X134103000Y-60170000D01*
X132353000Y-60170000D02*
X132353000Y-56670000D01*
X132071000Y-52606000D02*
X132071000Y-56106000D01*
X132071000Y-52606000D02*
X130321000Y-52606000D01*
X130321000Y-56106000D02*
X132071000Y-56106000D01*
X130321000Y-56106000D02*
X130321000Y-52606000D01*
X113846500Y-51780500D02*
X113846500Y-55280500D01*
X113846500Y-51780500D02*
X112096500Y-51780500D01*
X112096500Y-55280500D02*
X113846500Y-55280500D01*
X112096500Y-55280500D02*
X112096500Y-51780500D01*
X116005500Y-51780500D02*
X116005500Y-55280500D01*
X116005500Y-51780500D02*
X114255500Y-51780500D01*
X114255500Y-55280500D02*
X116005500Y-55280500D01*
X114255500Y-55280500D02*
X114255500Y-51780500D01*
X113846500Y-55590500D02*
X113846500Y-59090500D01*
X113846500Y-55590500D02*
X112096500Y-55590500D01*
X112096500Y-59090500D02*
X113846500Y-59090500D01*
X112096500Y-59090500D02*
X112096500Y-55590500D01*
X116005500Y-55590500D02*
X116005500Y-59090500D01*
X116005500Y-55590500D02*
X114255500Y-55590500D01*
X114255500Y-59090500D02*
X116005500Y-59090500D01*
X114255500Y-59090500D02*
X114255500Y-55590500D01*
X122470000Y-73940000D02*
X122470000Y-64540000D01*
X122470000Y-73940000D02*
X129270000Y-73940000D01*
X129270000Y-64540000D02*
X122470000Y-64540000D01*
X129270000Y-64540000D02*
X129270000Y-73940000D01*
X124360000Y-62530000D02*
X127860000Y-62530000D01*
X124360000Y-62530000D02*
X124360000Y-64280000D01*
X127860000Y-64280000D02*
X127860000Y-62530000D01*
X127860000Y-64280000D02*
X124360000Y-64280000D01*
X177556100Y-64519700D02*
X174056100Y-64519700D01*
X177556100Y-64519700D02*
X177556100Y-62769700D01*
X174056100Y-62769700D02*
X174056100Y-64519700D01*
X174056100Y-62769700D02*
X177556100Y-62769700D01*
X177518000Y-66539000D02*
X174018000Y-66539000D01*
X177518000Y-66539000D02*
X177518000Y-64789000D01*
X174018000Y-64789000D02*
X174018000Y-66539000D01*
X174018000Y-64789000D02*
X177518000Y-64789000D01*
X162660000Y-89300000D02*
X166160000Y-89300000D01*
X162660000Y-89300000D02*
X162660000Y-91050000D01*
X166160000Y-91050000D02*
X166160000Y-89300000D01*
X166160000Y-91050000D02*
X162660000Y-91050000D01*
X162660000Y-87130000D02*
X166160000Y-87130000D01*
X162660000Y-87130000D02*
X162660000Y-88880000D01*
X166160000Y-88880000D02*
X166160000Y-87130000D01*
X166160000Y-88880000D02*
X162660000Y-88880000D01*
X41540000Y-57310000D02*
X41540000Y-43560000D01*
X41540000Y-43560000D02*
X35390000Y-43560000D01*
X35390000Y-43560000D02*
X35390000Y-57310000D01*
X35390000Y-57310000D02*
X41540000Y-57310000D01*
X46885000Y-103146000D02*
X46885000Y-91946000D01*
X46885000Y-91946000D02*
X43285000Y-91946000D01*
X43285000Y-91946000D02*
X43285000Y-103146000D01*
X43285000Y-103146000D02*
X46885000Y-103146000D01*
X46560000Y-48490000D02*
X46560000Y-57140000D01*
X46560000Y-57140000D02*
X50160000Y-57140000D01*
X50160000Y-57140000D02*
X50160000Y-48490000D01*
X50160000Y-48490000D02*
X46560000Y-48490000D01*
X148000000Y-78120000D02*
X148000000Y-84270000D01*
X148000000Y-84270000D02*
X151600000Y-84270000D01*
X151600000Y-84270000D02*
X151600000Y-78120000D01*
X151600000Y-78120000D02*
X148000000Y-78120000D01*
X94256000Y-84687000D02*
X75406000Y-84687000D01*
X75406000Y-84687000D02*
X75406000Y-88287000D01*
X75406000Y-88287000D02*
X94256000Y-88287000D01*
X94256000Y-88287000D02*
X94256000Y-84687000D01*
X147171000Y-95482000D02*
X147171000Y-101632000D01*
X147171000Y-101632000D02*
X150771000Y-101632000D01*
X150771000Y-101632000D02*
X150771000Y-95482000D01*
X150771000Y-95482000D02*
X147171000Y-95482000D01*
X98400000Y-39420000D02*
X98400000Y-45570000D01*
X98400000Y-45570000D02*
X102000000Y-45570000D01*
X102000000Y-45570000D02*
X102000000Y-39420000D01*
X102000000Y-39420000D02*
X98400000Y-39420000D01*
X130160000Y-68720000D02*
X130160000Y-72320000D01*
X130160000Y-72320000D02*
X133760000Y-72320000D01*
X133760000Y-72320000D02*
X133760000Y-68720000D01*
X133760000Y-68720000D02*
X130160000Y-68720000D01*
X135423500Y-53127500D02*
X135423500Y-59277500D01*
X135423500Y-59277500D02*
X139023500Y-59277500D01*
X139023500Y-59277500D02*
X139023500Y-53127500D01*
X139023500Y-53127500D02*
X135423500Y-53127500D01*
X114913000Y-37824000D02*
X114913000Y-43974000D01*
X114913000Y-43974000D02*
X118513000Y-43974000D01*
X118513000Y-43974000D02*
X118513000Y-37824000D01*
X118513000Y-37824000D02*
X114913000Y-37824000D01*
X69352100Y-39870400D02*
X69352100Y-43270400D01*
X69352100Y-43270400D02*
X65852100Y-43270400D01*
X65852100Y-43270400D02*
X65852100Y-39870400D01*
X65852100Y-39870400D02*
X69352100Y-39870400D01*
X74051100Y-36187400D02*
X74051100Y-39587400D01*
X74051100Y-39587400D02*
X70551100Y-39587400D01*
X70551100Y-39587400D02*
X70551100Y-36187400D01*
X70551100Y-36187400D02*
X74051100Y-36187400D01*
X69899100Y-36210400D02*
X69899100Y-39310400D01*
X69899100Y-36210400D02*
X68099100Y-36210400D01*
X68099100Y-39310400D02*
X69899100Y-39310400D01*
X68099100Y-39310400D02*
X68099100Y-36210400D01*
X65686100Y-39564400D02*
X65686100Y-36464400D01*
X65686100Y-39564400D02*
X67486100Y-39564400D01*
X67486100Y-36464400D02*
X65686100Y-36464400D01*
X67486100Y-36464400D02*
X67486100Y-39564400D01*
X69877100Y-43120400D02*
X69877100Y-40020400D01*
X69877100Y-43120400D02*
X71677100Y-43120400D01*
X71677100Y-40020400D02*
X69877100Y-40020400D01*
X71677100Y-40020400D02*
X71677100Y-43120400D01*
X49720000Y-45100000D02*
X46620000Y-45100000D01*
X49720000Y-45100000D02*
X49720000Y-43300000D01*
X46620000Y-43300000D02*
X46620000Y-45100000D01*
X46620000Y-43300000D02*
X49720000Y-43300000D01*
X42970000Y-50420000D02*
X46070000Y-50420000D01*
X42970000Y-50420000D02*
X42970000Y-52220000D01*
X46070000Y-52220000D02*
X46070000Y-50420000D01*
X46070000Y-52220000D02*
X42970000Y-52220000D01*
X61907600Y-45492000D02*
X61907600Y-42392000D01*
X61907600Y-45492000D02*
X63707600Y-45492000D01*
X63707600Y-42392000D02*
X61907600Y-42392000D01*
X63707600Y-42392000D02*
X63707600Y-45492000D01*
X59367600Y-45492000D02*
X59367600Y-42392000D01*
X59367600Y-45492000D02*
X61167600Y-45492000D01*
X61167600Y-42392000D02*
X59367600Y-42392000D01*
X61167600Y-42392000D02*
X61167600Y-45492000D01*
X56827600Y-45492000D02*
X56827600Y-42392000D01*
X56827600Y-45492000D02*
X58627600Y-45492000D01*
X58627600Y-42392000D02*
X56827600Y-42392000D01*
X58627600Y-42392000D02*
X58627600Y-45492000D01*
X54287600Y-45492000D02*
X54287600Y-42392000D01*
X54287600Y-45492000D02*
X56087600Y-45492000D01*
X56087600Y-42392000D02*
X54287600Y-42392000D01*
X56087600Y-42392000D02*
X56087600Y-45492000D01*
X42970000Y-53970000D02*
X46070000Y-53970000D01*
X42970000Y-53970000D02*
X42970000Y-55770000D01*
X46070000Y-55770000D02*
X46070000Y-53970000D01*
X46070000Y-55770000D02*
X42970000Y-55770000D01*
X42970000Y-57530000D02*
X46070000Y-57530000D01*
X42970000Y-57530000D02*
X42970000Y-59330000D01*
X46070000Y-59330000D02*
X46070000Y-57530000D01*
X46070000Y-59330000D02*
X42970000Y-59330000D01*
X119608000Y-92572000D02*
X122708000Y-92572000D01*
X119608000Y-92572000D02*
X119608000Y-94372000D01*
X122708000Y-94372000D02*
X122708000Y-92572000D01*
X122708000Y-94372000D02*
X119608000Y-94372000D01*
X106390000Y-53990000D02*
X109490000Y-53990000D01*
X106390000Y-53990000D02*
X106390000Y-55790000D01*
X109490000Y-55790000D02*
X109490000Y-53990000D01*
X109490000Y-55790000D02*
X106390000Y-55790000D01*
X109490000Y-50990000D02*
X106390000Y-50990000D01*
X109490000Y-50990000D02*
X109490000Y-49190000D01*
X106390000Y-49190000D02*
X106390000Y-50990000D01*
X106390000Y-49190000D02*
X109490000Y-49190000D01*
X151966500Y-52552000D02*
X151966500Y-55652000D01*
X151966500Y-52552000D02*
X150166500Y-52552000D01*
X150166500Y-55652000D02*
X151966500Y-55652000D01*
X150166500Y-55652000D02*
X150166500Y-52552000D01*
X103479000Y-37835000D02*
X106579000Y-37835000D01*
X103479000Y-37835000D02*
X103479000Y-39635000D01*
X106579000Y-39635000D02*
X106579000Y-37835000D01*
X106579000Y-39635000D02*
X103479000Y-39635000D01*
X103479000Y-32882000D02*
X106579000Y-32882000D01*
X103479000Y-32882000D02*
X103479000Y-34682000D01*
X106579000Y-34682000D02*
X106579000Y-32882000D01*
X106579000Y-34682000D02*
X103479000Y-34682000D01*
X146965000Y-62304500D02*
X143865000Y-62304500D01*
X146965000Y-62304500D02*
X146965000Y-60504500D01*
X143865000Y-60504500D02*
X143865000Y-62304500D01*
X143865000Y-60504500D02*
X146965000Y-60504500D01*
X141848000Y-55906000D02*
X141848000Y-52806000D01*
X141848000Y-55906000D02*
X143648000Y-55906000D01*
X143648000Y-52806000D02*
X141848000Y-52806000D01*
X143648000Y-52806000D02*
X143648000Y-55906000D01*
X143711500Y-56616000D02*
X143711500Y-59716000D01*
X143711500Y-56616000D02*
X141911500Y-56616000D01*
X141911500Y-59716000D02*
X143711500Y-59716000D01*
X141911500Y-59716000D02*
X141911500Y-56616000D01*
X125730000Y-55950000D02*
X122630000Y-55950000D01*
X125730000Y-55950000D02*
X125730000Y-54150000D01*
X122630000Y-54150000D02*
X122630000Y-55950000D01*
X122630000Y-54150000D02*
X125730000Y-54150000D01*
X47977000Y-101651000D02*
X53877000Y-101651000D01*
X47977000Y-92151000D02*
X53877000Y-92151000D01*
X47977000Y-101651000D02*
X47977000Y-92151000D01*
X53877000Y-101651000D02*
X53877000Y-92151000D01*
X128049000Y-99140000D02*
X122649000Y-99140000D01*
X128049000Y-106600000D02*
X122649000Y-106600000D01*
X128049000Y-99140000D02*
X128049000Y-106600000D01*
X122649000Y-99140000D02*
X122649000Y-106600000D01*
X144302500Y-59991000D02*
X149702500Y-59991000D01*
X144302500Y-52531000D02*
X149702500Y-52531000D01*
X144302500Y-59991000D02*
X144302500Y-52531000D01*
X149702500Y-59991000D02*
X149702500Y-52531000D01*
X111205000Y-66289000D02*
X111205000Y-71689000D01*
X118665000Y-66289000D02*
X118665000Y-71689000D01*
X111205000Y-66289000D02*
X118665000Y-66289000D01*
X111205000Y-71689000D02*
X118665000Y-71689000D01*
X98665000Y-38487000D02*
X103265000Y-38487000D01*
X98665000Y-32887000D02*
X103265000Y-32887000D01*
X98665000Y-38487000D02*
X98665000Y-32887000D01*
X103265000Y-38487000D02*
X103265000Y-32887000D01*
X87865000Y-53877000D02*
X87865000Y-35277000D01*
X75965000Y-53877000D02*
X75965000Y-35277000D01*
X87865000Y-53877000D02*
X75965000Y-53877000D01*
X87865000Y-35277000D02*
X75965000Y-35277000D01*
X177057000Y-49930000D02*
X163557000Y-49930000D01*
X177057000Y-61830000D02*
X163557000Y-61830000D01*
X177057000Y-49930000D02*
X177057000Y-61830000D01*
X163557000Y-49930000D02*
X163557000Y-61830000D01*
X163557000Y-103486000D02*
X177057000Y-103486000D01*
X163557000Y-91586000D02*
X177057000Y-91586000D01*
X163557000Y-103486000D02*
X163557000Y-91586000D01*
X177057000Y-103486000D02*
X177057000Y-91586000D01*
X112740000Y-100960000D02*
X109240000Y-100960000D01*
X112740000Y-100960000D02*
X112740000Y-99210000D01*
X109240000Y-99210000D02*
X109240000Y-100960000D01*
X109240000Y-99210000D02*
X112740000Y-99210000D01*
X144943000Y-109244000D02*
X149443000Y-109244000D01*
X144943000Y-109244000D02*
X144943000Y-112244000D01*
X149443000Y-112244000D02*
X149443000Y-109244000D01*
X149443000Y-112244000D02*
X144943000Y-112244000D01*
X151600000Y-75400000D02*
X151600000Y-69250000D01*
X151600000Y-69250000D02*
X148000000Y-69250000D01*
X148000000Y-69250000D02*
X148000000Y-75400000D01*
X148000000Y-75400000D02*
X151600000Y-75400000D01*
X77580000Y-68690000D02*
X91330000Y-68690000D01*
X91330000Y-68690000D02*
X91330000Y-65090000D01*
X91330000Y-65090000D02*
X77580000Y-65090000D01*
X77580000Y-65090000D02*
X77580000Y-68690000D01*
X120680500Y-89391500D02*
X126080500Y-89391500D01*
X120680500Y-81931500D02*
X126080500Y-81931500D01*
X120680500Y-89391500D02*
X120680500Y-81931500D01*
X126080500Y-89391500D02*
X126080500Y-81931500D01*
X97888000Y-43306000D02*
X97888000Y-52706000D01*
X97888000Y-43306000D02*
X91088000Y-43306000D01*
X91088000Y-52706000D02*
X97888000Y-52706000D01*
X91088000Y-52706000D02*
X91088000Y-43306000D01*
X91088000Y-42546000D02*
X91088000Y-33146000D01*
X91088000Y-42546000D02*
X97888000Y-42546000D01*
X97888000Y-33146000D02*
X91088000Y-33146000D01*
X97888000Y-33146000D02*
X97888000Y-42546000D01*
X109490000Y-53400000D02*
X106390000Y-53400000D01*
X109490000Y-53400000D02*
X109490000Y-51600000D01*
X106390000Y-51600000D02*
X106390000Y-53400000D01*
X106390000Y-51600000D02*
X109490000Y-51600000D01*
X103479000Y-35676000D02*
X106579000Y-35676000D01*
X103479000Y-35676000D02*
X103479000Y-37476000D01*
X106579000Y-37476000D02*
X106579000Y-35676000D01*
X106579000Y-37476000D02*
X103479000Y-37476000D01*
X101781500Y-84800500D02*
X101781500Y-88300500D01*
X101781500Y-84800500D02*
X100031500Y-84800500D01*
X100031500Y-88300500D02*
X101781500Y-88300500D01*
X100031500Y-88300500D02*
X100031500Y-84800500D01*
X103940500Y-84800500D02*
X103940500Y-88300500D01*
X103940500Y-84800500D02*
X102190500Y-84800500D01*
X102190500Y-88300500D02*
X103940500Y-88300500D01*
X102190500Y-88300500D02*
X102190500Y-84800500D01*
X174560000Y-32160000D02*
G75*
G03X174560000Y-32160000I-1550000J0D01*
G01*
X32880000Y-121170000D02*
G75*
G03X32880000Y-121170000I-1550000J0D01*
G01*
X42740000Y-92160000D02*
X39640000Y-92160000D01*
X42740000Y-92160000D02*
X42740000Y-90360000D01*
X39640000Y-90360000D02*
X39640000Y-92160000D01*
X39640000Y-90360000D02*
X42740000Y-90360000D01*
X79810000Y-82280000D02*
X82910000Y-82280000D01*
X79810000Y-82280000D02*
X79810000Y-84080000D01*
X82910000Y-84080000D02*
X82910000Y-82280000D01*
X82910000Y-84080000D02*
X79810000Y-84080000D01*
X75800000Y-72290000D02*
X75800000Y-75390000D01*
X75800000Y-72290000D02*
X74000000Y-72290000D01*
X74000000Y-75390000D02*
X75800000Y-75390000D01*
X74000000Y-75390000D02*
X74000000Y-72290000D01*
X49930000Y-47370000D02*
X46430000Y-47370000D01*
X49930000Y-47370000D02*
X49930000Y-45620000D01*
X46430000Y-45620000D02*
X46430000Y-47370000D01*
X46430000Y-45620000D02*
X49930000Y-45620000D01*
X110010000Y-114990000D02*
X113510000Y-114990000D01*
X110010000Y-114990000D02*
X110010000Y-116740000D01*
X113510000Y-116740000D02*
X113510000Y-114990000D01*
X113510000Y-116740000D02*
X110010000Y-116740000D01*
X109660000Y-48680000D02*
X106160000Y-48680000D01*
X109660000Y-48680000D02*
X109660000Y-46930000D01*
X106160000Y-46930000D02*
X106160000Y-48680000D01*
X106160000Y-46930000D02*
X109660000Y-46930000D01*
X74690000Y-30480000D02*
X76390000Y-30480000D01*
X76390000Y-30480000D02*
X76390000Y-34380000D01*
X76390000Y-34380000D02*
X74690000Y-34380000D01*
X74690000Y-34380000D02*
X74690000Y-30480000D01*
X74810000Y-95000000D02*
X76510000Y-95000000D01*
X76510000Y-95000000D02*
X76510000Y-98900000D01*
X76510000Y-98900000D02*
X74810000Y-98900000D01*
X74810000Y-98900000D02*
X74810000Y-95000000D01*
X74010000Y-95270000D02*
X74010000Y-98370000D01*
X74010000Y-95270000D02*
X72210000Y-95270000D01*
X72210000Y-98370000D02*
X74010000Y-98370000D01*
X72210000Y-98370000D02*
X72210000Y-95270000D01*
X90566000Y-104391000D02*
X90566000Y-107191000D01*
X90566000Y-104391000D02*
X89266000Y-104391000D01*
X89266000Y-107191000D02*
X90566000Y-107191000D01*
X89266000Y-107191000D02*
X89266000Y-104391000D01*
X89266000Y-103000000D02*
X89266000Y-100200000D01*
X89266000Y-103000000D02*
X90566000Y-103000000D01*
X90566000Y-100200000D02*
X89266000Y-100200000D01*
X90566000Y-100200000D02*
X90566000Y-103000000D01*
X90439000Y-37716000D02*
X90439000Y-40516000D01*
X90439000Y-37716000D02*
X89139000Y-37716000D01*
X89139000Y-40516000D02*
X90439000Y-40516000D01*
X89139000Y-40516000D02*
X89139000Y-37716000D01*
X89139000Y-36325000D02*
X89139000Y-33525000D01*
X89139000Y-36325000D02*
X90439000Y-36325000D01*
X90439000Y-33525000D02*
X89139000Y-33525000D01*
X90439000Y-33525000D02*
X90439000Y-36325000D01*
X73890000Y-30750000D02*
X73890000Y-33850000D01*
X73890000Y-30750000D02*
X72090000Y-30750000D01*
X72090000Y-33850000D02*
X73890000Y-33850000D01*
X72090000Y-33850000D02*
X72090000Y-30750000D01*
X161439000Y-93697200D02*
X161439000Y-59647200D01*
X161439000Y-59647200D02*
X155289000Y-59647200D01*
X155289000Y-59647200D02*
X155289000Y-93697200D01*
X155289000Y-93697200D02*
X161439000Y-93697200D01*
M02*
