M48
;DRILL file {KiCad no-vcs-found-product} date Fri Jul  7 16:08:01 2017
;FORMAT={-:-/ absolute / metric / decimal}
FMAT,2
METRIC,TZ
T1C1.000
T2C1.100
T3C3.000
T4C3.175
%
G90
G05
M71
T1
X77.216Y-86.487
X79.38Y-66.89
X79.756Y-86.487
X81.92Y-66.89
X82.296Y-86.487
X84.46Y-66.89
X84.836Y-86.487
X87.Y-66.89
X87.376Y-86.487
X89.54Y-66.89
X89.916Y-86.487
X92.456Y-86.487
X151.83Y-113.21
X151.83Y-115.75
X154.37Y-113.21
X154.37Y-115.75
T2
X105.985Y-51.283
X105.985Y-53.823
X105.985Y-99.543
X105.985Y-102.083
X108.525Y-51.283
X108.525Y-53.823
X108.525Y-99.543
X108.525Y-102.083
X111.065Y-51.283
X111.065Y-53.823
X111.065Y-99.543
X111.065Y-102.083
X113.605Y-51.283
X113.605Y-53.823
X113.605Y-99.543
X113.605Y-102.083
X116.145Y-51.283
X116.145Y-53.823
X116.145Y-99.543
X116.145Y-102.083
X118.685Y-51.283
X118.685Y-53.823
X118.685Y-99.543
X118.685Y-102.083
X121.225Y-51.283
X121.225Y-53.823
X121.225Y-99.543
X121.225Y-102.083
X123.765Y-51.283
X123.765Y-53.823
X123.765Y-99.543
X123.765Y-102.083
X126.305Y-51.283
X126.305Y-53.823
X126.305Y-99.543
X126.305Y-102.083
X128.845Y-51.283
X128.845Y-53.823
X128.845Y-99.543
X128.845Y-102.083
X131.385Y-51.283
X131.385Y-53.823
X131.385Y-99.543
X131.385Y-102.083
X133.925Y-51.283
X133.925Y-53.823
X133.925Y-99.543
X133.925Y-102.083
X136.465Y-51.283
X136.465Y-53.823
X136.465Y-99.543
X136.465Y-102.083
X139.005Y-51.283
X139.005Y-53.823
X139.005Y-99.543
X139.005Y-102.083
X141.545Y-51.283
X141.545Y-53.823
X141.545Y-99.543
X141.545Y-102.083
X144.085Y-51.283
X144.085Y-53.823
X144.085Y-99.543
X144.085Y-102.083
X146.625Y-51.283
X146.625Y-53.823
X146.625Y-99.543
X146.625Y-102.083
X149.165Y-51.283
X149.165Y-53.823
X149.165Y-99.543
X149.165Y-102.083
X151.705Y-51.283
X151.705Y-53.823
X151.705Y-99.543
X151.705Y-102.083
X154.245Y-51.283
X154.245Y-53.823
X154.245Y-99.543
X154.245Y-102.083
X156.785Y-51.283
X156.785Y-53.823
X156.785Y-99.543
X156.785Y-102.083
X159.325Y-51.283
X159.325Y-53.823
X159.325Y-99.543
X159.325Y-102.083
X161.865Y-51.283
X161.865Y-53.823
X161.865Y-99.543
X161.865Y-102.083
T3
X166.947Y-32.512
X166.947Y-120.828
X177.766Y-32.17
X177.766Y-121.17
T4
X100.905Y-55.728
X100.905Y-97.638
X166.945Y-52.553
X166.945Y-100.813
T0
M30
