G04 #@! TF.FileFunction,Copper,L1,Top,Signal*
%FSLAX46Y46*%
G04 Gerber Fmt 4.6, Leading zero omitted, Abs format (unit mm)*
G04 Created by KiCad (PCBNEW 4.0.5+dfsg1-4) date Mon Feb 19 09:44:50 2018*
%MOMM*%
%LPD*%
G01*
G04 APERTURE LIST*
%ADD10C,0.150000*%
%ADD11C,0.304800*%
%ADD12C,0.300000*%
%ADD13C,0.200000*%
%ADD14C,0.010000*%
%ADD15R,0.400000X1.100000*%
%ADD16R,2.032000X1.727200*%
%ADD17O,2.032000X1.727200*%
%ADD18R,2.235200X2.235200*%
%ADD19C,5.000000*%
%ADD20C,5.500000*%
%ADD21C,3.000000*%
%ADD22R,1.727200X1.727200*%
%ADD23O,1.727200X1.727200*%
%ADD24R,1.250000X1.500000*%
%ADD25R,1.500000X1.250000*%
%ADD26C,0.889000*%
%ADD27C,0.250000*%
%ADD28C,0.400000*%
%ADD29C,0.800000*%
G04 APERTURE END LIST*
D10*
D11*
X173794858Y-51764200D02*
X173649715Y-51691629D01*
X173432001Y-51691629D01*
X173214286Y-51764200D01*
X173069144Y-51909343D01*
X172996572Y-52054486D01*
X172924001Y-52344771D01*
X172924001Y-52562486D01*
X172996572Y-52852771D01*
X173069144Y-52997914D01*
X173214286Y-53143057D01*
X173432001Y-53215629D01*
X173577144Y-53215629D01*
X173794858Y-53143057D01*
X173867429Y-53070486D01*
X173867429Y-52562486D01*
X173577144Y-52562486D01*
X174520572Y-53215629D02*
X174520572Y-51691629D01*
X175391429Y-53215629D01*
X175391429Y-51691629D01*
X176117143Y-53215629D02*
X176117143Y-51691629D01*
X176480000Y-51691629D01*
X176697715Y-51764200D01*
X176842857Y-51909343D01*
X176915429Y-52054486D01*
X176988000Y-52344771D01*
X176988000Y-52562486D01*
X176915429Y-52852771D01*
X176842857Y-52997914D01*
X176697715Y-53143057D01*
X176480000Y-53215629D01*
X176117143Y-53215629D01*
X172994758Y-112698800D02*
X172849615Y-112626229D01*
X172631901Y-112626229D01*
X172414186Y-112698800D01*
X172269044Y-112843943D01*
X172196472Y-112989086D01*
X172123901Y-113279371D01*
X172123901Y-113497086D01*
X172196472Y-113787371D01*
X172269044Y-113932514D01*
X172414186Y-114077657D01*
X172631901Y-114150229D01*
X172777044Y-114150229D01*
X172994758Y-114077657D01*
X173067329Y-114005086D01*
X173067329Y-113497086D01*
X172777044Y-113497086D01*
X173720472Y-114150229D02*
X173720472Y-112626229D01*
X174591329Y-114150229D01*
X174591329Y-112626229D01*
X175317043Y-114150229D02*
X175317043Y-112626229D01*
X175679900Y-112626229D01*
X175897615Y-112698800D01*
X176042757Y-112843943D01*
X176115329Y-112989086D01*
X176187900Y-113279371D01*
X176187900Y-113497086D01*
X176115329Y-113787371D01*
X176042757Y-113932514D01*
X175897615Y-114077657D01*
X175679900Y-114150229D01*
X175317043Y-114150229D01*
X145602671Y-68386686D02*
X145530100Y-68459257D01*
X145312386Y-68531829D01*
X145167243Y-68531829D01*
X144949528Y-68459257D01*
X144804386Y-68314114D01*
X144731814Y-68168971D01*
X144659243Y-67878686D01*
X144659243Y-67660971D01*
X144731814Y-67370686D01*
X144804386Y-67225543D01*
X144949528Y-67080400D01*
X145167243Y-67007829D01*
X145312386Y-67007829D01*
X145530100Y-67080400D01*
X145602671Y-67152971D01*
X148578100Y-68531829D02*
X148578100Y-67007829D01*
X148940957Y-67007829D01*
X149158672Y-67080400D01*
X149303814Y-67225543D01*
X149376386Y-67370686D01*
X149448957Y-67660971D01*
X149448957Y-67878686D01*
X149376386Y-68168971D01*
X149303814Y-68314114D01*
X149158672Y-68459257D01*
X148940957Y-68531829D01*
X148578100Y-68531829D01*
X145348671Y-77207743D02*
X145566385Y-77280314D01*
X145638957Y-77352886D01*
X145711528Y-77498029D01*
X145711528Y-77715743D01*
X145638957Y-77860886D01*
X145566385Y-77933457D01*
X145421243Y-78006029D01*
X144840671Y-78006029D01*
X144840671Y-76482029D01*
X145348671Y-76482029D01*
X145493814Y-76554600D01*
X145566385Y-76627171D01*
X145638957Y-76772314D01*
X145638957Y-76917457D01*
X145566385Y-77062600D01*
X145493814Y-77135171D01*
X145348671Y-77207743D01*
X144840671Y-77207743D01*
X148614386Y-77570600D02*
X149340100Y-77570600D01*
X148469243Y-78006029D02*
X148977243Y-76482029D01*
X149485243Y-78006029D01*
D12*
X50317143Y-50397143D02*
X51460000Y-50397143D01*
X50888571Y-50968571D02*
X50888571Y-49825714D01*
X52888572Y-49468571D02*
X52174286Y-49468571D01*
X52102857Y-50182857D01*
X52174286Y-50111429D01*
X52317143Y-50040000D01*
X52674286Y-50040000D01*
X52817143Y-50111429D01*
X52888572Y-50182857D01*
X52960000Y-50325714D01*
X52960000Y-50682857D01*
X52888572Y-50825714D01*
X52817143Y-50897143D01*
X52674286Y-50968571D01*
X52317143Y-50968571D01*
X52174286Y-50897143D01*
X52102857Y-50825714D01*
X53388571Y-49468571D02*
X53888571Y-50968571D01*
X54388571Y-49468571D01*
X50317143Y-52947143D02*
X51460000Y-52947143D01*
X50888571Y-53518571D02*
X50888571Y-52375714D01*
X52960000Y-53518571D02*
X52102857Y-53518571D01*
X52531429Y-53518571D02*
X52531429Y-52018571D01*
X52388572Y-52232857D01*
X52245714Y-52375714D01*
X52102857Y-52447143D01*
X53602857Y-53375714D02*
X53674285Y-53447143D01*
X53602857Y-53518571D01*
X53531428Y-53447143D01*
X53602857Y-53375714D01*
X53602857Y-53518571D01*
X54531429Y-52661429D02*
X54388571Y-52590000D01*
X54317143Y-52518571D01*
X54245714Y-52375714D01*
X54245714Y-52304286D01*
X54317143Y-52161429D01*
X54388571Y-52090000D01*
X54531429Y-52018571D01*
X54817143Y-52018571D01*
X54960000Y-52090000D01*
X55031429Y-52161429D01*
X55102857Y-52304286D01*
X55102857Y-52375714D01*
X55031429Y-52518571D01*
X54960000Y-52590000D01*
X54817143Y-52661429D01*
X54531429Y-52661429D01*
X54388571Y-52732857D01*
X54317143Y-52804286D01*
X54245714Y-52947143D01*
X54245714Y-53232857D01*
X54317143Y-53375714D01*
X54388571Y-53447143D01*
X54531429Y-53518571D01*
X54817143Y-53518571D01*
X54960000Y-53447143D01*
X55031429Y-53375714D01*
X55102857Y-53232857D01*
X55102857Y-52947143D01*
X55031429Y-52804286D01*
X54960000Y-52732857D01*
X54817143Y-52661429D01*
X55531428Y-52018571D02*
X56031428Y-53518571D01*
X56531428Y-52018571D01*
X50317143Y-55497143D02*
X51460000Y-55497143D01*
X50888571Y-56068571D02*
X50888571Y-54925714D01*
X52031429Y-54568571D02*
X52960000Y-54568571D01*
X52460000Y-55140000D01*
X52674286Y-55140000D01*
X52817143Y-55211429D01*
X52888572Y-55282857D01*
X52960000Y-55425714D01*
X52960000Y-55782857D01*
X52888572Y-55925714D01*
X52817143Y-55997143D01*
X52674286Y-56068571D01*
X52245714Y-56068571D01*
X52102857Y-55997143D01*
X52031429Y-55925714D01*
X53602857Y-55925714D02*
X53674285Y-55997143D01*
X53602857Y-56068571D01*
X53531428Y-55997143D01*
X53602857Y-55925714D01*
X53602857Y-56068571D01*
X54174286Y-54568571D02*
X55102857Y-54568571D01*
X54602857Y-55140000D01*
X54817143Y-55140000D01*
X54960000Y-55211429D01*
X55031429Y-55282857D01*
X55102857Y-55425714D01*
X55102857Y-55782857D01*
X55031429Y-55925714D01*
X54960000Y-55997143D01*
X54817143Y-56068571D01*
X54388571Y-56068571D01*
X54245714Y-55997143D01*
X54174286Y-55925714D01*
X55531428Y-54568571D02*
X56031428Y-56068571D01*
X56531428Y-54568571D01*
D13*
X172703286Y-100305984D02*
X172765190Y-100367889D01*
X172827095Y-100553603D01*
X172827095Y-100677413D01*
X172765190Y-100863127D01*
X172641381Y-100986936D01*
X172517571Y-101048841D01*
X172269952Y-101110746D01*
X172084238Y-101110746D01*
X171836619Y-101048841D01*
X171712810Y-100986936D01*
X171589000Y-100863127D01*
X171527095Y-100677413D01*
X171527095Y-100553603D01*
X171589000Y-100367889D01*
X171650905Y-100305984D01*
X172827095Y-99563127D02*
X172765190Y-99686936D01*
X172703286Y-99748841D01*
X172579476Y-99810746D01*
X172208048Y-99810746D01*
X172084238Y-99748841D01*
X172022333Y-99686936D01*
X171960429Y-99563127D01*
X171960429Y-99377413D01*
X172022333Y-99253603D01*
X172084238Y-99191698D01*
X172208048Y-99129794D01*
X172579476Y-99129794D01*
X172703286Y-99191698D01*
X172765190Y-99253603D01*
X172827095Y-99377413D01*
X172827095Y-99563127D01*
X171960429Y-98572651D02*
X172827095Y-98572651D01*
X172084238Y-98572651D02*
X172022333Y-98510746D01*
X171960429Y-98386937D01*
X171960429Y-98201223D01*
X172022333Y-98077413D01*
X172146143Y-98015508D01*
X172827095Y-98015508D01*
X171960429Y-97582175D02*
X171960429Y-97086937D01*
X171527095Y-97396461D02*
X172641381Y-97396461D01*
X172765190Y-97334556D01*
X172827095Y-97210747D01*
X172827095Y-97086937D01*
X172827095Y-96653604D02*
X171960429Y-96653604D01*
X172208048Y-96653604D02*
X172084238Y-96591699D01*
X172022333Y-96529795D01*
X171960429Y-96405985D01*
X171960429Y-96282176D01*
X172827095Y-95663128D02*
X172765190Y-95786937D01*
X172703286Y-95848842D01*
X172579476Y-95910747D01*
X172208048Y-95910747D01*
X172084238Y-95848842D01*
X172022333Y-95786937D01*
X171960429Y-95663128D01*
X171960429Y-95477414D01*
X172022333Y-95353604D01*
X172084238Y-95291699D01*
X172208048Y-95229795D01*
X172579476Y-95229795D01*
X172703286Y-95291699D01*
X172765190Y-95353604D01*
X172827095Y-95477414D01*
X172827095Y-95663128D01*
X172827095Y-94486938D02*
X172765190Y-94610747D01*
X172641381Y-94672652D01*
X171527095Y-94672652D01*
X172765190Y-94053605D02*
X172827095Y-93929795D01*
X172827095Y-93682176D01*
X172765190Y-93558367D01*
X172641381Y-93496462D01*
X172579476Y-93496462D01*
X172455667Y-93558367D01*
X172393762Y-93682176D01*
X172393762Y-93867891D01*
X172331857Y-93991700D01*
X172208048Y-94053605D01*
X172146143Y-94053605D01*
X172022333Y-93991700D01*
X171960429Y-93867891D01*
X171960429Y-93682176D01*
X172022333Y-93558367D01*
X171589000Y-91267891D02*
X171527095Y-91391700D01*
X171527095Y-91577415D01*
X171589000Y-91763129D01*
X171712810Y-91886938D01*
X171836619Y-91948843D01*
X172084238Y-92010748D01*
X172269952Y-92010748D01*
X172517571Y-91948843D01*
X172641381Y-91886938D01*
X172765190Y-91763129D01*
X172827095Y-91577415D01*
X172827095Y-91453605D01*
X172765190Y-91267891D01*
X172703286Y-91205986D01*
X172269952Y-91205986D01*
X172269952Y-91453605D01*
X172827095Y-90648843D02*
X171960429Y-90648843D01*
X172208048Y-90648843D02*
X172084238Y-90586938D01*
X172022333Y-90525034D01*
X171960429Y-90401224D01*
X171960429Y-90277415D01*
X172827095Y-89658367D02*
X172765190Y-89782176D01*
X172703286Y-89844081D01*
X172579476Y-89905986D01*
X172208048Y-89905986D01*
X172084238Y-89844081D01*
X172022333Y-89782176D01*
X171960429Y-89658367D01*
X171960429Y-89472653D01*
X172022333Y-89348843D01*
X172084238Y-89286938D01*
X172208048Y-89225034D01*
X172579476Y-89225034D01*
X172703286Y-89286938D01*
X172765190Y-89348843D01*
X172827095Y-89472653D01*
X172827095Y-89658367D01*
X171960429Y-88110748D02*
X172827095Y-88110748D01*
X171960429Y-88667891D02*
X172641381Y-88667891D01*
X172765190Y-88605986D01*
X172827095Y-88482177D01*
X172827095Y-88296463D01*
X172765190Y-88172653D01*
X172703286Y-88110748D01*
X171960429Y-87491701D02*
X173260429Y-87491701D01*
X172022333Y-87491701D02*
X171960429Y-87367892D01*
X171960429Y-87120273D01*
X172022333Y-86996463D01*
X172084238Y-86934558D01*
X172208048Y-86872654D01*
X172579476Y-86872654D01*
X172703286Y-86934558D01*
X172765190Y-86996463D01*
X172827095Y-87120273D01*
X172827095Y-87367892D01*
X172765190Y-87491701D01*
X174977095Y-101884558D02*
X174977095Y-102503605D01*
X173677095Y-102503605D01*
X174977095Y-101451224D02*
X173677095Y-101451224D01*
X174977095Y-100708367D01*
X173677095Y-100708367D01*
X174977095Y-99470272D02*
X174977095Y-100089319D01*
X173677095Y-100089319D01*
X174915190Y-99098843D02*
X174977095Y-98913129D01*
X174977095Y-98603605D01*
X174915190Y-98479795D01*
X174853286Y-98417891D01*
X174729476Y-98355986D01*
X174605667Y-98355986D01*
X174481857Y-98417891D01*
X174419952Y-98479795D01*
X174358048Y-98603605D01*
X174296143Y-98851224D01*
X174234238Y-98975033D01*
X174172333Y-99036938D01*
X174048524Y-99098843D01*
X173924714Y-99098843D01*
X173800905Y-99036938D01*
X173739000Y-98975033D01*
X173677095Y-98851224D01*
X173677095Y-98541700D01*
X173739000Y-98355986D01*
X174481857Y-96808367D02*
X174481857Y-95817891D01*
X174915190Y-94270272D02*
X174977095Y-94084558D01*
X174977095Y-93775034D01*
X174915190Y-93651224D01*
X174853286Y-93589320D01*
X174729476Y-93527415D01*
X174605667Y-93527415D01*
X174481857Y-93589320D01*
X174419952Y-93651224D01*
X174358048Y-93775034D01*
X174296143Y-94022653D01*
X174234238Y-94146462D01*
X174172333Y-94208367D01*
X174048524Y-94270272D01*
X173924714Y-94270272D01*
X173800905Y-94208367D01*
X173739000Y-94146462D01*
X173677095Y-94022653D01*
X173677095Y-93713129D01*
X173739000Y-93527415D01*
X174977095Y-92970272D02*
X173677095Y-92970272D01*
X173677095Y-92475034D01*
X173739000Y-92351225D01*
X173800905Y-92289320D01*
X173924714Y-92227415D01*
X174110429Y-92227415D01*
X174234238Y-92289320D01*
X174296143Y-92351225D01*
X174358048Y-92475034D01*
X174358048Y-92970272D01*
X174977095Y-91670272D02*
X173677095Y-91670272D01*
X174977095Y-91175034D02*
X174110429Y-90494081D01*
X174110429Y-91175034D02*
X174977095Y-90494081D01*
X174853286Y-89255986D02*
X174915190Y-89317891D01*
X174977095Y-89503605D01*
X174977095Y-89627415D01*
X174915190Y-89813129D01*
X174791381Y-89936938D01*
X174667571Y-89998843D01*
X174419952Y-90060748D01*
X174234238Y-90060748D01*
X173986619Y-89998843D01*
X173862810Y-89936938D01*
X173739000Y-89813129D01*
X173677095Y-89627415D01*
X173677095Y-89503605D01*
X173739000Y-89317891D01*
X173800905Y-89255986D01*
X173677095Y-88451224D02*
X173677095Y-88203605D01*
X173739000Y-88079796D01*
X173862810Y-87955986D01*
X174110429Y-87894081D01*
X174543762Y-87894081D01*
X174791381Y-87955986D01*
X174915190Y-88079796D01*
X174977095Y-88203605D01*
X174977095Y-88451224D01*
X174915190Y-88575034D01*
X174791381Y-88698843D01*
X174543762Y-88760748D01*
X174110429Y-88760748D01*
X173862810Y-88698843D01*
X173739000Y-88575034D01*
X173677095Y-88451224D01*
X174977095Y-87336938D02*
X173677095Y-87336938D01*
X174977095Y-86594081D01*
X173677095Y-86594081D01*
X173677095Y-86160747D02*
X174977095Y-85727414D01*
X173677095Y-85294081D01*
X175889000Y-100398843D02*
X175827095Y-100522652D01*
X175827095Y-100708367D01*
X175889000Y-100894081D01*
X176012810Y-101017890D01*
X176136619Y-101079795D01*
X176384238Y-101141700D01*
X176569952Y-101141700D01*
X176817571Y-101079795D01*
X176941381Y-101017890D01*
X177065190Y-100894081D01*
X177127095Y-100708367D01*
X177127095Y-100584557D01*
X177065190Y-100398843D01*
X177003286Y-100336938D01*
X176569952Y-100336938D01*
X176569952Y-100584557D01*
X177127095Y-99779795D02*
X175827095Y-99779795D01*
X175827095Y-99284557D01*
X175889000Y-99160748D01*
X175950905Y-99098843D01*
X176074714Y-99036938D01*
X176260429Y-99036938D01*
X176384238Y-99098843D01*
X176446143Y-99160748D01*
X176508048Y-99284557D01*
X176508048Y-99779795D01*
X177127095Y-98479795D02*
X175827095Y-98479795D01*
X175827095Y-97613128D02*
X175827095Y-97365509D01*
X175889000Y-97241700D01*
X176012810Y-97117890D01*
X176260429Y-97055985D01*
X176693762Y-97055985D01*
X176941381Y-97117890D01*
X177065190Y-97241700D01*
X177127095Y-97365509D01*
X177127095Y-97613128D01*
X177065190Y-97736938D01*
X176941381Y-97860747D01*
X176693762Y-97922652D01*
X176260429Y-97922652D01*
X176012810Y-97860747D01*
X175889000Y-97736938D01*
X175827095Y-97613128D01*
X177065190Y-95013128D02*
X177127095Y-95136938D01*
X177127095Y-95384557D01*
X177065190Y-95508366D01*
X176941381Y-95570271D01*
X176446143Y-95570271D01*
X176322333Y-95508366D01*
X176260429Y-95384557D01*
X176260429Y-95136938D01*
X176322333Y-95013128D01*
X176446143Y-94951223D01*
X176569952Y-94951223D01*
X176693762Y-95570271D01*
X177127095Y-94517890D02*
X176260429Y-93836937D01*
X176260429Y-94517890D02*
X177127095Y-93836937D01*
X176260429Y-93527413D02*
X176260429Y-93032175D01*
X175827095Y-93341699D02*
X176941381Y-93341699D01*
X177065190Y-93279794D01*
X177127095Y-93155985D01*
X177127095Y-93032175D01*
X177065190Y-92103604D02*
X177127095Y-92227414D01*
X177127095Y-92475033D01*
X177065190Y-92598842D01*
X176941381Y-92660747D01*
X176446143Y-92660747D01*
X176322333Y-92598842D01*
X176260429Y-92475033D01*
X176260429Y-92227414D01*
X176322333Y-92103604D01*
X176446143Y-92041699D01*
X176569952Y-92041699D01*
X176693762Y-92660747D01*
X176260429Y-91484556D02*
X177127095Y-91484556D01*
X176384238Y-91484556D02*
X176322333Y-91422651D01*
X176260429Y-91298842D01*
X176260429Y-91113128D01*
X176322333Y-90989318D01*
X176446143Y-90927413D01*
X177127095Y-90927413D01*
X177065190Y-90370271D02*
X177127095Y-90246461D01*
X177127095Y-89998842D01*
X177065190Y-89875033D01*
X176941381Y-89813128D01*
X176879476Y-89813128D01*
X176755667Y-89875033D01*
X176693762Y-89998842D01*
X176693762Y-90184557D01*
X176631857Y-90308366D01*
X176508048Y-90370271D01*
X176446143Y-90370271D01*
X176322333Y-90308366D01*
X176260429Y-90184557D01*
X176260429Y-89998842D01*
X176322333Y-89875033D01*
X177127095Y-89255985D02*
X176260429Y-89255985D01*
X175827095Y-89255985D02*
X175889000Y-89317890D01*
X175950905Y-89255985D01*
X175889000Y-89194080D01*
X175827095Y-89255985D01*
X175950905Y-89255985D01*
X177127095Y-88451223D02*
X177065190Y-88575032D01*
X177003286Y-88636937D01*
X176879476Y-88698842D01*
X176508048Y-88698842D01*
X176384238Y-88636937D01*
X176322333Y-88575032D01*
X176260429Y-88451223D01*
X176260429Y-88265509D01*
X176322333Y-88141699D01*
X176384238Y-88079794D01*
X176508048Y-88017890D01*
X176879476Y-88017890D01*
X177003286Y-88079794D01*
X177065190Y-88141699D01*
X177127095Y-88265509D01*
X177127095Y-88451223D01*
X176260429Y-87460747D02*
X177127095Y-87460747D01*
X176384238Y-87460747D02*
X176322333Y-87398842D01*
X176260429Y-87275033D01*
X176260429Y-87089319D01*
X176322333Y-86965509D01*
X176446143Y-86903604D01*
X177127095Y-86903604D01*
X178410429Y-104546461D02*
X179277095Y-104236937D01*
X178410429Y-103927413D01*
X179277095Y-102751223D02*
X179277095Y-103494080D01*
X179277095Y-103122651D02*
X177977095Y-103122651D01*
X178162810Y-103246461D01*
X178286619Y-103370270D01*
X178348524Y-103494080D01*
X179153286Y-102194080D02*
X179215190Y-102132175D01*
X179277095Y-102194080D01*
X179215190Y-102255985D01*
X179153286Y-102194080D01*
X179277095Y-102194080D01*
X179277095Y-100894080D02*
X179277095Y-101636937D01*
X179277095Y-101265508D02*
X177977095Y-101265508D01*
X178162810Y-101389318D01*
X178286619Y-101513127D01*
X178348524Y-101636937D01*
X179772333Y-98975033D02*
X179710429Y-99036937D01*
X179524714Y-99160747D01*
X179400905Y-99222652D01*
X179215190Y-99284556D01*
X178905667Y-99346461D01*
X178658048Y-99346461D01*
X178348524Y-99284556D01*
X178162810Y-99222652D01*
X178039000Y-99160747D01*
X177853286Y-99036937D01*
X177791381Y-98975033D01*
X178596143Y-98046461D02*
X178596143Y-98479794D01*
X179277095Y-98479794D02*
X177977095Y-98479794D01*
X177977095Y-97860747D01*
X179215190Y-96870270D02*
X179277095Y-96994080D01*
X179277095Y-97241699D01*
X179215190Y-97365508D01*
X179091381Y-97427413D01*
X178596143Y-97427413D01*
X178472333Y-97365508D01*
X178410429Y-97241699D01*
X178410429Y-96994080D01*
X178472333Y-96870270D01*
X178596143Y-96808365D01*
X178719952Y-96808365D01*
X178843762Y-97427413D01*
X179277095Y-96251222D02*
X177977095Y-96251222D01*
X178472333Y-96251222D02*
X178410429Y-96127413D01*
X178410429Y-95879794D01*
X178472333Y-95755984D01*
X178534238Y-95694079D01*
X178658048Y-95632175D01*
X179029476Y-95632175D01*
X179153286Y-95694079D01*
X179215190Y-95755984D01*
X179277095Y-95879794D01*
X179277095Y-96127413D01*
X179215190Y-96251222D01*
X179277095Y-95075032D02*
X178410429Y-95075032D01*
X178658048Y-95075032D02*
X178534238Y-95013127D01*
X178472333Y-94951223D01*
X178410429Y-94827413D01*
X178410429Y-94703604D01*
X178410429Y-93713127D02*
X179277095Y-93713127D01*
X178410429Y-94270270D02*
X179091381Y-94270270D01*
X179215190Y-94208365D01*
X179277095Y-94084556D01*
X179277095Y-93898842D01*
X179215190Y-93775032D01*
X179153286Y-93713127D01*
X179277095Y-92536937D02*
X178596143Y-92536937D01*
X178472333Y-92598842D01*
X178410429Y-92722652D01*
X178410429Y-92970271D01*
X178472333Y-93094080D01*
X179215190Y-92536937D02*
X179277095Y-92660747D01*
X179277095Y-92970271D01*
X179215190Y-93094080D01*
X179091381Y-93155985D01*
X178967571Y-93155985D01*
X178843762Y-93094080D01*
X178781857Y-92970271D01*
X178781857Y-92660747D01*
X178719952Y-92536937D01*
X179277095Y-91917890D02*
X178410429Y-91917890D01*
X178658048Y-91917890D02*
X178534238Y-91855985D01*
X178472333Y-91794081D01*
X178410429Y-91670271D01*
X178410429Y-91546462D01*
X178410429Y-91236938D02*
X179277095Y-90927414D01*
X178410429Y-90617890D02*
X179277095Y-90927414D01*
X179586619Y-91051223D01*
X179648524Y-91113128D01*
X179710429Y-91236938D01*
X177915190Y-89194081D02*
X179586619Y-90308366D01*
X178100905Y-88822652D02*
X178039000Y-88760747D01*
X177977095Y-88636938D01*
X177977095Y-88327414D01*
X178039000Y-88203604D01*
X178100905Y-88141700D01*
X178224714Y-88079795D01*
X178348524Y-88079795D01*
X178534238Y-88141700D01*
X179277095Y-88884557D01*
X179277095Y-88079795D01*
X177977095Y-87275033D02*
X177977095Y-87151224D01*
X178039000Y-87027414D01*
X178100905Y-86965509D01*
X178224714Y-86903605D01*
X178472333Y-86841700D01*
X178781857Y-86841700D01*
X179029476Y-86903605D01*
X179153286Y-86965509D01*
X179215190Y-87027414D01*
X179277095Y-87151224D01*
X179277095Y-87275033D01*
X179215190Y-87398843D01*
X179153286Y-87460747D01*
X179029476Y-87522652D01*
X178781857Y-87584557D01*
X178472333Y-87584557D01*
X178224714Y-87522652D01*
X178100905Y-87460747D01*
X178039000Y-87398843D01*
X177977095Y-87275033D01*
X179277095Y-85603605D02*
X179277095Y-86346462D01*
X179277095Y-85975033D02*
X177977095Y-85975033D01*
X178162810Y-86098843D01*
X178286619Y-86222652D01*
X178348524Y-86346462D01*
X178534238Y-84860748D02*
X178472333Y-84984557D01*
X178410429Y-85046462D01*
X178286619Y-85108367D01*
X178224714Y-85108367D01*
X178100905Y-85046462D01*
X178039000Y-84984557D01*
X177977095Y-84860748D01*
X177977095Y-84613129D01*
X178039000Y-84489319D01*
X178100905Y-84427415D01*
X178224714Y-84365510D01*
X178286619Y-84365510D01*
X178410429Y-84427415D01*
X178472333Y-84489319D01*
X178534238Y-84613129D01*
X178534238Y-84860748D01*
X178596143Y-84984557D01*
X178658048Y-85046462D01*
X178781857Y-85108367D01*
X179029476Y-85108367D01*
X179153286Y-85046462D01*
X179215190Y-84984557D01*
X179277095Y-84860748D01*
X179277095Y-84613129D01*
X179215190Y-84489319D01*
X179153286Y-84427415D01*
X179029476Y-84365510D01*
X178781857Y-84365510D01*
X178658048Y-84427415D01*
X178596143Y-84489319D01*
X178534238Y-84613129D01*
X179772333Y-83932177D02*
X179710429Y-83870272D01*
X179524714Y-83746462D01*
X179400905Y-83684558D01*
X179215190Y-83622653D01*
X178905667Y-83560748D01*
X178658048Y-83560748D01*
X178348524Y-83622653D01*
X178162810Y-83684558D01*
X178039000Y-83746462D01*
X177853286Y-83870272D01*
X177791381Y-83932177D01*
D14*
G36*
X173595287Y-72575095D02*
X173600937Y-72595788D01*
X173618860Y-72686507D01*
X173638997Y-72825423D01*
X173657056Y-72982852D01*
X173657423Y-72986557D01*
X173673664Y-73130452D01*
X173690204Y-73243388D01*
X173703737Y-73303175D01*
X173704941Y-73305623D01*
X173742517Y-73304259D01*
X173808803Y-73258141D01*
X173817584Y-73250110D01*
X173898171Y-73191716D01*
X173937132Y-73193580D01*
X173924749Y-73244614D01*
X173872231Y-73312453D01*
X173817563Y-73383899D01*
X173803479Y-73431378D01*
X173805706Y-73434801D01*
X173853047Y-73448756D01*
X173960177Y-73466052D01*
X174108961Y-73484042D01*
X174212912Y-73494268D01*
X174420872Y-73514013D01*
X174554016Y-73529746D01*
X174615486Y-73542952D01*
X174608427Y-73555110D01*
X174535981Y-73567705D01*
X174401292Y-73582217D01*
X174399769Y-73582365D01*
X174226103Y-73599739D01*
X174052010Y-73618064D01*
X173937260Y-73630849D01*
X173748289Y-73652864D01*
X173856257Y-73765559D01*
X173923237Y-73851392D01*
X173936054Y-73901123D01*
X173900727Y-73903912D01*
X173823272Y-73848921D01*
X173814481Y-73840805D01*
X173761580Y-73795208D01*
X173725411Y-73783149D01*
X173701076Y-73814453D01*
X173683677Y-73898945D01*
X173668317Y-74046449D01*
X173659473Y-74151755D01*
X173637980Y-74337287D01*
X173610105Y-74453032D01*
X173576891Y-74496125D01*
X173543419Y-74470630D01*
X173528841Y-74414702D01*
X173512498Y-74302441D01*
X173497397Y-74155522D01*
X173494139Y-74115532D01*
X173478231Y-73946515D01*
X173459552Y-73847262D01*
X173433852Y-73809398D01*
X173396880Y-73824548D01*
X173364231Y-73859530D01*
X173307821Y-73908654D01*
X173281292Y-73918146D01*
X173247907Y-73892523D01*
X173259649Y-73831116D01*
X173310358Y-73757112D01*
X173328885Y-73738923D01*
X173410769Y-73664818D01*
X173319115Y-73639069D01*
X173225294Y-73622447D01*
X173093862Y-73610141D01*
X173032077Y-73607173D01*
X172877188Y-73596825D01*
X172723865Y-73578283D01*
X172680385Y-73570815D01*
X172603355Y-73554768D01*
X172579454Y-73543448D01*
X172615742Y-73533381D01*
X172719276Y-73521092D01*
X172797615Y-73513115D01*
X172966889Y-73495485D01*
X173132507Y-73477232D01*
X173241617Y-73464372D01*
X173412081Y-73443118D01*
X173303082Y-73329347D01*
X173236384Y-73244019D01*
X173222127Y-73193192D01*
X173254981Y-73188083D01*
X173329616Y-73239911D01*
X173340724Y-73250110D01*
X173408596Y-73300802D01*
X173450525Y-73308260D01*
X173452672Y-73305623D01*
X173465984Y-73252517D01*
X173482520Y-73145565D01*
X173497441Y-73019376D01*
X173515416Y-72861264D01*
X173534964Y-72713171D01*
X173548210Y-72628607D01*
X173565407Y-72541192D01*
X173578121Y-72525209D01*
X173595287Y-72575095D01*
X173595287Y-72575095D01*
G37*
X173595287Y-72575095D02*
X173600937Y-72595788D01*
X173618860Y-72686507D01*
X173638997Y-72825423D01*
X173657056Y-72982852D01*
X173657423Y-72986557D01*
X173673664Y-73130452D01*
X173690204Y-73243388D01*
X173703737Y-73303175D01*
X173704941Y-73305623D01*
X173742517Y-73304259D01*
X173808803Y-73258141D01*
X173817584Y-73250110D01*
X173898171Y-73191716D01*
X173937132Y-73193580D01*
X173924749Y-73244614D01*
X173872231Y-73312453D01*
X173817563Y-73383899D01*
X173803479Y-73431378D01*
X173805706Y-73434801D01*
X173853047Y-73448756D01*
X173960177Y-73466052D01*
X174108961Y-73484042D01*
X174212912Y-73494268D01*
X174420872Y-73514013D01*
X174554016Y-73529746D01*
X174615486Y-73542952D01*
X174608427Y-73555110D01*
X174535981Y-73567705D01*
X174401292Y-73582217D01*
X174399769Y-73582365D01*
X174226103Y-73599739D01*
X174052010Y-73618064D01*
X173937260Y-73630849D01*
X173748289Y-73652864D01*
X173856257Y-73765559D01*
X173923237Y-73851392D01*
X173936054Y-73901123D01*
X173900727Y-73903912D01*
X173823272Y-73848921D01*
X173814481Y-73840805D01*
X173761580Y-73795208D01*
X173725411Y-73783149D01*
X173701076Y-73814453D01*
X173683677Y-73898945D01*
X173668317Y-74046449D01*
X173659473Y-74151755D01*
X173637980Y-74337287D01*
X173610105Y-74453032D01*
X173576891Y-74496125D01*
X173543419Y-74470630D01*
X173528841Y-74414702D01*
X173512498Y-74302441D01*
X173497397Y-74155522D01*
X173494139Y-74115532D01*
X173478231Y-73946515D01*
X173459552Y-73847262D01*
X173433852Y-73809398D01*
X173396880Y-73824548D01*
X173364231Y-73859530D01*
X173307821Y-73908654D01*
X173281292Y-73918146D01*
X173247907Y-73892523D01*
X173259649Y-73831116D01*
X173310358Y-73757112D01*
X173328885Y-73738923D01*
X173410769Y-73664818D01*
X173319115Y-73639069D01*
X173225294Y-73622447D01*
X173093862Y-73610141D01*
X173032077Y-73607173D01*
X172877188Y-73596825D01*
X172723865Y-73578283D01*
X172680385Y-73570815D01*
X172603355Y-73554768D01*
X172579454Y-73543448D01*
X172615742Y-73533381D01*
X172719276Y-73521092D01*
X172797615Y-73513115D01*
X172966889Y-73495485D01*
X173132507Y-73477232D01*
X173241617Y-73464372D01*
X173412081Y-73443118D01*
X173303082Y-73329347D01*
X173236384Y-73244019D01*
X173222127Y-73193192D01*
X173254981Y-73188083D01*
X173329616Y-73239911D01*
X173340724Y-73250110D01*
X173408596Y-73300802D01*
X173450525Y-73308260D01*
X173452672Y-73305623D01*
X173465984Y-73252517D01*
X173482520Y-73145565D01*
X173497441Y-73019376D01*
X173515416Y-72861264D01*
X173534964Y-72713171D01*
X173548210Y-72628607D01*
X173565407Y-72541192D01*
X173578121Y-72525209D01*
X173595287Y-72575095D01*
G36*
X175558469Y-73178274D02*
X175632775Y-73189748D01*
X175664010Y-73215664D01*
X175669769Y-73253838D01*
X175660826Y-73298236D01*
X175621871Y-73321841D01*
X175534714Y-73330998D01*
X175445077Y-73332205D01*
X175220385Y-73332419D01*
X175484154Y-73490678D01*
X175627533Y-73582837D01*
X175710813Y-73653701D01*
X175745277Y-73713793D01*
X175747923Y-73736649D01*
X175733315Y-73822641D01*
X175681265Y-73877564D01*
X175579436Y-73907325D01*
X175415491Y-73917831D01*
X175368877Y-73918146D01*
X175221445Y-73916201D01*
X175135734Y-73907373D01*
X175095346Y-73887169D01*
X175083884Y-73851097D01*
X175083615Y-73839992D01*
X175091882Y-73797012D01*
X175128387Y-73773339D01*
X175210692Y-73763316D01*
X175327846Y-73761307D01*
X175572077Y-73760777D01*
X175327846Y-73616015D01*
X175195678Y-73532451D01*
X175120366Y-73468332D01*
X175088084Y-73409752D01*
X175083615Y-73370360D01*
X175099143Y-73273887D01*
X175154111Y-73214088D01*
X175261101Y-73183760D01*
X175423585Y-73175684D01*
X175558469Y-73178274D01*
X175558469Y-73178274D01*
G37*
X175558469Y-73178274D02*
X175632775Y-73189748D01*
X175664010Y-73215664D01*
X175669769Y-73253838D01*
X175660826Y-73298236D01*
X175621871Y-73321841D01*
X175534714Y-73330998D01*
X175445077Y-73332205D01*
X175220385Y-73332419D01*
X175484154Y-73490678D01*
X175627533Y-73582837D01*
X175710813Y-73653701D01*
X175745277Y-73713793D01*
X175747923Y-73736649D01*
X175733315Y-73822641D01*
X175681265Y-73877564D01*
X175579436Y-73907325D01*
X175415491Y-73917831D01*
X175368877Y-73918146D01*
X175221445Y-73916201D01*
X175135734Y-73907373D01*
X175095346Y-73887169D01*
X175083884Y-73851097D01*
X175083615Y-73839992D01*
X175091882Y-73797012D01*
X175128387Y-73773339D01*
X175210692Y-73763316D01*
X175327846Y-73761307D01*
X175572077Y-73760777D01*
X175327846Y-73616015D01*
X175195678Y-73532451D01*
X175120366Y-73468332D01*
X175088084Y-73409752D01*
X175083615Y-73370360D01*
X175099143Y-73273887D01*
X175154111Y-73214088D01*
X175261101Y-73183760D01*
X175423585Y-73175684D01*
X175558469Y-73178274D01*
G36*
X176164411Y-73178262D02*
X176192954Y-73195755D01*
X176208635Y-73242804D01*
X176215307Y-73334046D01*
X176216821Y-73484121D01*
X176216846Y-73546915D01*
X176216168Y-73718893D01*
X176211564Y-73827356D01*
X176199183Y-73886944D01*
X176175172Y-73912296D01*
X176135678Y-73918052D01*
X176119154Y-73918146D01*
X176073896Y-73915568D01*
X176045353Y-73898074D01*
X176029672Y-73851026D01*
X176023001Y-73759784D01*
X176021486Y-73609709D01*
X176021461Y-73546915D01*
X176022140Y-73374937D01*
X176026743Y-73266474D01*
X176039124Y-73206886D01*
X176063136Y-73181533D01*
X176102629Y-73175778D01*
X176119154Y-73175684D01*
X176164411Y-73178262D01*
X176164411Y-73178262D01*
G37*
X176164411Y-73178262D02*
X176192954Y-73195755D01*
X176208635Y-73242804D01*
X176215307Y-73334046D01*
X176216821Y-73484121D01*
X176216846Y-73546915D01*
X176216168Y-73718893D01*
X176211564Y-73827356D01*
X176199183Y-73886944D01*
X176175172Y-73912296D01*
X176135678Y-73918052D01*
X176119154Y-73918146D01*
X176073896Y-73915568D01*
X176045353Y-73898074D01*
X176029672Y-73851026D01*
X176023001Y-73759784D01*
X176021486Y-73609709D01*
X176021461Y-73546915D01*
X176022140Y-73374937D01*
X176026743Y-73266474D01*
X176039124Y-73206886D01*
X176063136Y-73181533D01*
X176102629Y-73175778D01*
X176119154Y-73175684D01*
X176164411Y-73178262D01*
G36*
X176965238Y-73178274D02*
X177039545Y-73189748D01*
X177070779Y-73215664D01*
X177076538Y-73253838D01*
X177067210Y-73299003D01*
X177026876Y-73322531D01*
X176937016Y-73331158D01*
X176861615Y-73331992D01*
X176646692Y-73331992D01*
X176646692Y-73625069D01*
X176644846Y-73774915D01*
X176636429Y-73862836D01*
X176617122Y-73905028D01*
X176582607Y-73917686D01*
X176568538Y-73918146D01*
X176530171Y-73911832D01*
X176506907Y-73882588D01*
X176495023Y-73814960D01*
X176490796Y-73693496D01*
X176490385Y-73593807D01*
X176496283Y-73412662D01*
X176512900Y-73284226D01*
X176537277Y-73222576D01*
X176600803Y-73197008D01*
X176717700Y-73180191D01*
X176830354Y-73175684D01*
X176965238Y-73178274D01*
X176965238Y-73178274D01*
G37*
X176965238Y-73178274D02*
X177039545Y-73189748D01*
X177070779Y-73215664D01*
X177076538Y-73253838D01*
X177067210Y-73299003D01*
X177026876Y-73322531D01*
X176937016Y-73331158D01*
X176861615Y-73331992D01*
X176646692Y-73331992D01*
X176646692Y-73625069D01*
X176644846Y-73774915D01*
X176636429Y-73862836D01*
X176617122Y-73905028D01*
X176582607Y-73917686D01*
X176568538Y-73918146D01*
X176530171Y-73911832D01*
X176506907Y-73882588D01*
X176495023Y-73814960D01*
X176490796Y-73693496D01*
X176490385Y-73593807D01*
X176496283Y-73412662D01*
X176512900Y-73284226D01*
X176537277Y-73222576D01*
X176600803Y-73197008D01*
X176717700Y-73180191D01*
X176830354Y-73175684D01*
X176965238Y-73178274D01*
G36*
X177493026Y-73178262D02*
X177521569Y-73195755D01*
X177537251Y-73242804D01*
X177543922Y-73334046D01*
X177545437Y-73484121D01*
X177545461Y-73546915D01*
X177544783Y-73718893D01*
X177540179Y-73827356D01*
X177527798Y-73886944D01*
X177503787Y-73912296D01*
X177464294Y-73918052D01*
X177447769Y-73918146D01*
X177402512Y-73915568D01*
X177373969Y-73898074D01*
X177358288Y-73851026D01*
X177351616Y-73759784D01*
X177350102Y-73609709D01*
X177350077Y-73546915D01*
X177350755Y-73374937D01*
X177355359Y-73266474D01*
X177367740Y-73206886D01*
X177391751Y-73181533D01*
X177431244Y-73175778D01*
X177447769Y-73175684D01*
X177493026Y-73178262D01*
X177493026Y-73178262D01*
G37*
X177493026Y-73178262D02*
X177521569Y-73195755D01*
X177537251Y-73242804D01*
X177543922Y-73334046D01*
X177545437Y-73484121D01*
X177545461Y-73546915D01*
X177544783Y-73718893D01*
X177540179Y-73827356D01*
X177527798Y-73886944D01*
X177503787Y-73912296D01*
X177464294Y-73918052D01*
X177447769Y-73918146D01*
X177402512Y-73915568D01*
X177373969Y-73898074D01*
X177358288Y-73851026D01*
X177351616Y-73759784D01*
X177350102Y-73609709D01*
X177350077Y-73546915D01*
X177350755Y-73374937D01*
X177355359Y-73266474D01*
X177367740Y-73206886D01*
X177391751Y-73181533D01*
X177431244Y-73175778D01*
X177447769Y-73175684D01*
X177493026Y-73178262D01*
G36*
X178443521Y-73181998D02*
X178466785Y-73211242D01*
X178478669Y-73278870D01*
X178482896Y-73400333D01*
X178483308Y-73500023D01*
X178477409Y-73681168D01*
X178460792Y-73809604D01*
X178436415Y-73871253D01*
X178377323Y-73893401D01*
X178267520Y-73909159D01*
X178133108Y-73917608D01*
X178000189Y-73917826D01*
X177894863Y-73908896D01*
X177845051Y-73892094D01*
X177833392Y-73843706D01*
X177824429Y-73736589D01*
X177819523Y-73590156D01*
X177819000Y-73520864D01*
X177820352Y-73355617D01*
X177826676Y-73253502D01*
X177841367Y-73199511D01*
X177867824Y-73178636D01*
X177897154Y-73175684D01*
X177937113Y-73182606D01*
X177960558Y-73214170D01*
X177971810Y-73286571D01*
X177975185Y-73416005D01*
X177975308Y-73468761D01*
X177975308Y-73761838D01*
X178327000Y-73761838D01*
X178327000Y-73468761D01*
X178328846Y-73318914D01*
X178337263Y-73230993D01*
X178356570Y-73188802D01*
X178391086Y-73176144D01*
X178405154Y-73175684D01*
X178443521Y-73181998D01*
X178443521Y-73181998D01*
G37*
X178443521Y-73181998D02*
X178466785Y-73211242D01*
X178478669Y-73278870D01*
X178482896Y-73400333D01*
X178483308Y-73500023D01*
X178477409Y-73681168D01*
X178460792Y-73809604D01*
X178436415Y-73871253D01*
X178377323Y-73893401D01*
X178267520Y-73909159D01*
X178133108Y-73917608D01*
X178000189Y-73917826D01*
X177894863Y-73908896D01*
X177845051Y-73892094D01*
X177833392Y-73843706D01*
X177824429Y-73736589D01*
X177819523Y-73590156D01*
X177819000Y-73520864D01*
X177820352Y-73355617D01*
X177826676Y-73253502D01*
X177841367Y-73199511D01*
X177867824Y-73178636D01*
X177897154Y-73175684D01*
X177937113Y-73182606D01*
X177960558Y-73214170D01*
X177971810Y-73286571D01*
X177975185Y-73416005D01*
X177975308Y-73468761D01*
X177975308Y-73761838D01*
X178327000Y-73761838D01*
X178327000Y-73468761D01*
X178328846Y-73318914D01*
X178337263Y-73230993D01*
X178356570Y-73188802D01*
X178391086Y-73176144D01*
X178405154Y-73175684D01*
X178443521Y-73181998D01*
G36*
X179231700Y-73178274D02*
X179306006Y-73189748D01*
X179337240Y-73215664D01*
X179343000Y-73253838D01*
X179334057Y-73298236D01*
X179295102Y-73321841D01*
X179207945Y-73330998D01*
X179118308Y-73332205D01*
X178893615Y-73332419D01*
X179157385Y-73490678D01*
X179300764Y-73582837D01*
X179384044Y-73653701D01*
X179418508Y-73713793D01*
X179421154Y-73736649D01*
X179406545Y-73822641D01*
X179354495Y-73877564D01*
X179252667Y-73907325D01*
X179088722Y-73917831D01*
X179042108Y-73918146D01*
X178894676Y-73916201D01*
X178808964Y-73907373D01*
X178768576Y-73887169D01*
X178757115Y-73851097D01*
X178756846Y-73839992D01*
X178765112Y-73797012D01*
X178801618Y-73773339D01*
X178883923Y-73763316D01*
X179001077Y-73761307D01*
X179245308Y-73760777D01*
X179001077Y-73616015D01*
X178868909Y-73532451D01*
X178793597Y-73468332D01*
X178761315Y-73409752D01*
X178756846Y-73370360D01*
X178772373Y-73273887D01*
X178827342Y-73214088D01*
X178934332Y-73183760D01*
X179096815Y-73175684D01*
X179231700Y-73178274D01*
X179231700Y-73178274D01*
G37*
X179231700Y-73178274D02*
X179306006Y-73189748D01*
X179337240Y-73215664D01*
X179343000Y-73253838D01*
X179334057Y-73298236D01*
X179295102Y-73321841D01*
X179207945Y-73330998D01*
X179118308Y-73332205D01*
X178893615Y-73332419D01*
X179157385Y-73490678D01*
X179300764Y-73582837D01*
X179384044Y-73653701D01*
X179418508Y-73713793D01*
X179421154Y-73736649D01*
X179406545Y-73822641D01*
X179354495Y-73877564D01*
X179252667Y-73907325D01*
X179088722Y-73917831D01*
X179042108Y-73918146D01*
X178894676Y-73916201D01*
X178808964Y-73907373D01*
X178768576Y-73887169D01*
X178757115Y-73851097D01*
X178756846Y-73839992D01*
X178765112Y-73797012D01*
X178801618Y-73773339D01*
X178883923Y-73763316D01*
X179001077Y-73761307D01*
X179245308Y-73760777D01*
X179001077Y-73616015D01*
X178868909Y-73532451D01*
X178793597Y-73468332D01*
X178761315Y-73409752D01*
X178756846Y-73370360D01*
X178772373Y-73273887D01*
X178827342Y-73214088D01*
X178934332Y-73183760D01*
X179096815Y-73175684D01*
X179231700Y-73178274D01*
G36*
X173207923Y-73117069D02*
X173188385Y-73136607D01*
X173168846Y-73117069D01*
X173188385Y-73097530D01*
X173207923Y-73117069D01*
X173207923Y-73117069D01*
G37*
X173207923Y-73117069D02*
X173188385Y-73136607D01*
X173168846Y-73117069D01*
X173188385Y-73097530D01*
X173207923Y-73117069D01*
G36*
X176195760Y-72764155D02*
X176216846Y-72823992D01*
X176193950Y-72885277D01*
X176119154Y-72902146D01*
X176042547Y-72883829D01*
X176021461Y-72823992D01*
X176044358Y-72762706D01*
X176119154Y-72745838D01*
X176195760Y-72764155D01*
X176195760Y-72764155D01*
G37*
X176195760Y-72764155D02*
X176216846Y-72823992D01*
X176193950Y-72885277D01*
X176119154Y-72902146D01*
X176042547Y-72883829D01*
X176021461Y-72823992D01*
X176044358Y-72762706D01*
X176119154Y-72745838D01*
X176195760Y-72764155D01*
G36*
X177524376Y-72764155D02*
X177545461Y-72823992D01*
X177522565Y-72885277D01*
X177447769Y-72902146D01*
X177371162Y-72883829D01*
X177350077Y-72823992D01*
X177372973Y-72762706D01*
X177447769Y-72745838D01*
X177524376Y-72764155D01*
X177524376Y-72764155D01*
G37*
X177524376Y-72764155D02*
X177545461Y-72823992D01*
X177522565Y-72885277D01*
X177447769Y-72902146D01*
X177371162Y-72883829D01*
X177350077Y-72823992D01*
X177372973Y-72762706D01*
X177447769Y-72745838D01*
X177524376Y-72764155D01*
G36*
X179538385Y-72355069D02*
X164884538Y-72355069D01*
X164884538Y-72042453D01*
X179538385Y-72042453D01*
X179538385Y-72355069D01*
X179538385Y-72355069D01*
G37*
X179538385Y-72355069D02*
X164884538Y-72355069D01*
X164884538Y-72042453D01*
X179538385Y-72042453D01*
X179538385Y-72355069D01*
G36*
X165548846Y-70207614D02*
X165548575Y-70487533D01*
X165554148Y-70698966D01*
X165575144Y-70851493D01*
X165621142Y-70954694D01*
X165701723Y-71018148D01*
X165826465Y-71051435D01*
X166004948Y-71064133D01*
X166246752Y-71065823D01*
X166406762Y-71065530D01*
X167072846Y-71065530D01*
X167072846Y-71417223D01*
X166240972Y-71417223D01*
X165963105Y-71416782D01*
X165751390Y-71414761D01*
X165593830Y-71410111D01*
X165478424Y-71401783D01*
X165393174Y-71388730D01*
X165326081Y-71369902D01*
X165265145Y-71344252D01*
X165234741Y-71329300D01*
X165085519Y-71227341D01*
X164981068Y-71083670D01*
X164972461Y-71067020D01*
X164940227Y-70997545D01*
X164916966Y-70927352D01*
X164901230Y-70842454D01*
X164891574Y-70728870D01*
X164886551Y-70572615D01*
X164884715Y-70359705D01*
X164884538Y-70217096D01*
X164884538Y-69541530D01*
X165548846Y-69541530D01*
X165548846Y-70207614D01*
X165548846Y-70207614D01*
G37*
X165548846Y-70207614D02*
X165548575Y-70487533D01*
X165554148Y-70698966D01*
X165575144Y-70851493D01*
X165621142Y-70954694D01*
X165701723Y-71018148D01*
X165826465Y-71051435D01*
X166004948Y-71064133D01*
X166246752Y-71065823D01*
X166406762Y-71065530D01*
X167072846Y-71065530D01*
X167072846Y-71417223D01*
X166240972Y-71417223D01*
X165963105Y-71416782D01*
X165751390Y-71414761D01*
X165593830Y-71410111D01*
X165478424Y-71401783D01*
X165393174Y-71388730D01*
X165326081Y-71369902D01*
X165265145Y-71344252D01*
X165234741Y-71329300D01*
X165085519Y-71227341D01*
X164981068Y-71083670D01*
X164972461Y-71067020D01*
X164940227Y-70997545D01*
X164916966Y-70927352D01*
X164901230Y-70842454D01*
X164891574Y-70728870D01*
X164886551Y-70572615D01*
X164884715Y-70359705D01*
X164884538Y-70217096D01*
X164884538Y-69541530D01*
X165548846Y-69541530D01*
X165548846Y-70207614D01*
G36*
X171332231Y-71417223D02*
X170766478Y-71417223D01*
X170131047Y-70782667D01*
X169495615Y-70148111D01*
X169495615Y-71417223D01*
X168870385Y-71417223D01*
X168870385Y-69541530D01*
X169134154Y-69542416D01*
X169397923Y-69543303D01*
X170667923Y-70760127D01*
X170667923Y-69541530D01*
X171332231Y-69541530D01*
X171332231Y-71417223D01*
X171332231Y-71417223D01*
G37*
X171332231Y-71417223D02*
X170766478Y-71417223D01*
X170131047Y-70782667D01*
X169495615Y-70148111D01*
X169495615Y-71417223D01*
X168870385Y-71417223D01*
X168870385Y-69541530D01*
X169134154Y-69542416D01*
X169397923Y-69543303D01*
X170667923Y-70760127D01*
X170667923Y-69541530D01*
X171332231Y-69541530D01*
X171332231Y-71417223D01*
G36*
X173911308Y-70207614D02*
X173911667Y-70450449D01*
X173913798Y-70627673D01*
X173919279Y-70751831D01*
X173929689Y-70835467D01*
X173946607Y-70891123D01*
X173971612Y-70931344D01*
X174006284Y-70968674D01*
X174007224Y-70969614D01*
X174044636Y-71004531D01*
X174084646Y-71029744D01*
X174139798Y-71046834D01*
X174222635Y-71057378D01*
X174345702Y-71062956D01*
X174521541Y-71065147D01*
X174762696Y-71065530D01*
X175435308Y-71065530D01*
X175435308Y-71417223D01*
X174603434Y-71417223D01*
X174325566Y-71416782D01*
X174113852Y-71414761D01*
X173956291Y-71410111D01*
X173840886Y-71401783D01*
X173755636Y-71388730D01*
X173688542Y-71369902D01*
X173627607Y-71344252D01*
X173597203Y-71329300D01*
X173447981Y-71227341D01*
X173343529Y-71083670D01*
X173334923Y-71067020D01*
X173302689Y-70997545D01*
X173279427Y-70927352D01*
X173263692Y-70842454D01*
X173254036Y-70728870D01*
X173249013Y-70572615D01*
X173247176Y-70359705D01*
X173247000Y-70217096D01*
X173247000Y-69541530D01*
X173911308Y-69541530D01*
X173911308Y-70207614D01*
X173911308Y-70207614D01*
G37*
X173911308Y-70207614D02*
X173911667Y-70450449D01*
X173913798Y-70627673D01*
X173919279Y-70751831D01*
X173929689Y-70835467D01*
X173946607Y-70891123D01*
X173971612Y-70931344D01*
X174006284Y-70968674D01*
X174007224Y-70969614D01*
X174044636Y-71004531D01*
X174084646Y-71029744D01*
X174139798Y-71046834D01*
X174222635Y-71057378D01*
X174345702Y-71062956D01*
X174521541Y-71065147D01*
X174762696Y-71065530D01*
X175435308Y-71065530D01*
X175435308Y-71417223D01*
X174603434Y-71417223D01*
X174325566Y-71416782D01*
X174113852Y-71414761D01*
X173956291Y-71410111D01*
X173840886Y-71401783D01*
X173755636Y-71388730D01*
X173688542Y-71369902D01*
X173627607Y-71344252D01*
X173597203Y-71329300D01*
X173447981Y-71227341D01*
X173343529Y-71083670D01*
X173334923Y-71067020D01*
X173302689Y-70997545D01*
X173279427Y-70927352D01*
X173263692Y-70842454D01*
X173254036Y-70728870D01*
X173249013Y-70572615D01*
X173247176Y-70359705D01*
X173247000Y-70217096D01*
X173247000Y-69541530D01*
X173911308Y-69541530D01*
X173911308Y-70207614D01*
G36*
X179382077Y-69893223D02*
X177820802Y-69893223D01*
X177758508Y-69988294D01*
X177723442Y-70099662D01*
X177760325Y-70201032D01*
X177863087Y-70277841D01*
X177882535Y-70285862D01*
X177955185Y-70298972D01*
X178089443Y-70310078D01*
X178268770Y-70318286D01*
X178476629Y-70322703D01*
X178573775Y-70323215D01*
X178807338Y-70324318D01*
X178977130Y-70328541D01*
X179097517Y-70337454D01*
X179182864Y-70352629D01*
X179247540Y-70375635D01*
X179296505Y-70402224D01*
X179428880Y-70525342D01*
X179509549Y-70689298D01*
X179534122Y-70872728D01*
X179498208Y-71054267D01*
X179449682Y-71147675D01*
X179392585Y-71226731D01*
X179332662Y-71288654D01*
X179259969Y-71335524D01*
X179164561Y-71369421D01*
X179036493Y-71392422D01*
X178865823Y-71406609D01*
X178642604Y-71414060D01*
X178356893Y-71416855D01*
X178160923Y-71417162D01*
X177232846Y-71417223D01*
X177232846Y-71065530D01*
X177988790Y-71065530D01*
X178252521Y-71064921D01*
X178449186Y-71062450D01*
X178589866Y-71057152D01*
X178685643Y-71048062D01*
X178747599Y-71034215D01*
X178786816Y-71014647D01*
X178809405Y-70994069D01*
X178867508Y-70884133D01*
X178855101Y-70775254D01*
X178787228Y-70696515D01*
X178737730Y-70672408D01*
X178661062Y-70655315D01*
X178545211Y-70644201D01*
X178378161Y-70638028D01*
X178147899Y-70635762D01*
X178081903Y-70635684D01*
X177810027Y-70633282D01*
X177604023Y-70623920D01*
X177451699Y-70604369D01*
X177340862Y-70571397D01*
X177259318Y-70521773D01*
X177194876Y-70452266D01*
X177153110Y-70389556D01*
X177091707Y-70224572D01*
X177080104Y-70035559D01*
X177118466Y-69857076D01*
X177150225Y-69792403D01*
X177199871Y-69719456D01*
X177255941Y-69662115D01*
X177327981Y-69618521D01*
X177425540Y-69586818D01*
X177558166Y-69565150D01*
X177735406Y-69551660D01*
X177966808Y-69544492D01*
X178261921Y-69541788D01*
X178440367Y-69541530D01*
X179382077Y-69541530D01*
X179382077Y-69893223D01*
X179382077Y-69893223D01*
G37*
X179382077Y-69893223D02*
X177820802Y-69893223D01*
X177758508Y-69988294D01*
X177723442Y-70099662D01*
X177760325Y-70201032D01*
X177863087Y-70277841D01*
X177882535Y-70285862D01*
X177955185Y-70298972D01*
X178089443Y-70310078D01*
X178268770Y-70318286D01*
X178476629Y-70322703D01*
X178573775Y-70323215D01*
X178807338Y-70324318D01*
X178977130Y-70328541D01*
X179097517Y-70337454D01*
X179182864Y-70352629D01*
X179247540Y-70375635D01*
X179296505Y-70402224D01*
X179428880Y-70525342D01*
X179509549Y-70689298D01*
X179534122Y-70872728D01*
X179498208Y-71054267D01*
X179449682Y-71147675D01*
X179392585Y-71226731D01*
X179332662Y-71288654D01*
X179259969Y-71335524D01*
X179164561Y-71369421D01*
X179036493Y-71392422D01*
X178865823Y-71406609D01*
X178642604Y-71414060D01*
X178356893Y-71416855D01*
X178160923Y-71417162D01*
X177232846Y-71417223D01*
X177232846Y-71065530D01*
X177988790Y-71065530D01*
X178252521Y-71064921D01*
X178449186Y-71062450D01*
X178589866Y-71057152D01*
X178685643Y-71048062D01*
X178747599Y-71034215D01*
X178786816Y-71014647D01*
X178809405Y-70994069D01*
X178867508Y-70884133D01*
X178855101Y-70775254D01*
X178787228Y-70696515D01*
X178737730Y-70672408D01*
X178661062Y-70655315D01*
X178545211Y-70644201D01*
X178378161Y-70638028D01*
X178147899Y-70635762D01*
X178081903Y-70635684D01*
X177810027Y-70633282D01*
X177604023Y-70623920D01*
X177451699Y-70604369D01*
X177340862Y-70571397D01*
X177259318Y-70521773D01*
X177194876Y-70452266D01*
X177153110Y-70389556D01*
X177091707Y-70224572D01*
X177080104Y-70035559D01*
X177118466Y-69857076D01*
X177150225Y-69792403D01*
X177199871Y-69719456D01*
X177255941Y-69662115D01*
X177327981Y-69618521D01*
X177425540Y-69586818D01*
X177558166Y-69565150D01*
X177735406Y-69551660D01*
X177966808Y-69544492D01*
X178261921Y-69541788D01*
X178440367Y-69541530D01*
X179382077Y-69541530D01*
X179382077Y-69893223D01*
G36*
X179636077Y-69013992D02*
X172220043Y-69023862D01*
X171294127Y-69025003D01*
X170443554Y-69025849D01*
X169665515Y-69026386D01*
X168957201Y-69026598D01*
X168315800Y-69026470D01*
X167738504Y-69025989D01*
X167222504Y-69025139D01*
X166764988Y-69023905D01*
X166363147Y-69022273D01*
X166014173Y-69020228D01*
X165715254Y-69017755D01*
X165463581Y-69014839D01*
X165256345Y-69011466D01*
X165090735Y-69007620D01*
X164963942Y-69003288D01*
X164873157Y-68998454D01*
X164815569Y-68993103D01*
X164788368Y-68987221D01*
X164785392Y-68984785D01*
X164783368Y-68940851D01*
X164781532Y-68822991D01*
X164779889Y-68635430D01*
X164778445Y-68382396D01*
X164777206Y-68068115D01*
X164776178Y-67696813D01*
X164775367Y-67272719D01*
X164774778Y-66800057D01*
X164774418Y-66283056D01*
X164774292Y-65725942D01*
X164774407Y-65132940D01*
X164774767Y-64508279D01*
X164775380Y-63856185D01*
X164776251Y-63180884D01*
X164776810Y-62820300D01*
X164786429Y-56958761D01*
X165040846Y-56958761D01*
X165040846Y-68759992D01*
X165998231Y-68759992D01*
X166262461Y-68759558D01*
X166498754Y-68758339D01*
X166696541Y-68756458D01*
X166845251Y-68754037D01*
X166934317Y-68751200D01*
X166955615Y-68748868D01*
X166943289Y-68709364D01*
X166911126Y-68617261D01*
X166870499Y-68504637D01*
X166806734Y-68261154D01*
X166770409Y-67972909D01*
X166762255Y-67668588D01*
X166783003Y-67376877D01*
X166833384Y-67126463D01*
X166835221Y-67120349D01*
X166991515Y-66732398D01*
X167208180Y-66386141D01*
X167477667Y-66087274D01*
X167792426Y-65841495D01*
X168144908Y-65654500D01*
X168527563Y-65531985D01*
X168932842Y-65479648D01*
X169011589Y-65478108D01*
X169326178Y-65493054D01*
X169602321Y-65544544D01*
X169874257Y-65640403D01*
X170023154Y-65709289D01*
X170386615Y-65929515D01*
X170695293Y-66201401D01*
X170945322Y-66517826D01*
X171132841Y-66871670D01*
X171253984Y-67255811D01*
X171304888Y-67663129D01*
X171287882Y-68040216D01*
X171258279Y-68220182D01*
X171216782Y-68401474D01*
X171174394Y-68538957D01*
X171132317Y-68651269D01*
X171104492Y-68728625D01*
X171097789Y-68750223D01*
X171135794Y-68751885D01*
X171245546Y-68753459D01*
X171420637Y-68754919D01*
X171654659Y-68756242D01*
X171941205Y-68757404D01*
X172273867Y-68758380D01*
X172646237Y-68759147D01*
X173051909Y-68759681D01*
X173484475Y-68759958D01*
X173702783Y-68759992D01*
X176307797Y-68759992D01*
X175822706Y-68268058D01*
X175142478Y-67623327D01*
X174447749Y-67054652D01*
X173736605Y-66560957D01*
X173007132Y-66141164D01*
X172257417Y-65794197D01*
X171485545Y-65518977D01*
X170689603Y-65314428D01*
X170511615Y-65278906D01*
X170293315Y-65236916D01*
X170099437Y-65198459D01*
X169944103Y-65166428D01*
X169841437Y-65143718D01*
X169808231Y-65134826D01*
X169806018Y-65117526D01*
X169873047Y-65096130D01*
X170000587Y-65071875D01*
X170179909Y-65045996D01*
X170402281Y-65019731D01*
X170658974Y-64994316D01*
X170941257Y-64970986D01*
X170991044Y-64967325D01*
X171838564Y-64944411D01*
X172697554Y-64995825D01*
X173560990Y-65119956D01*
X174421850Y-65315198D01*
X175273110Y-65579943D01*
X176107748Y-65912581D01*
X176918740Y-66311506D01*
X176960365Y-66334160D01*
X177131041Y-66428871D01*
X177353508Y-66554384D01*
X177612228Y-66701817D01*
X177891662Y-66862286D01*
X178176274Y-67026909D01*
X178393432Y-67153399D01*
X178639117Y-67296552D01*
X178862571Y-67425884D01*
X179054997Y-67536374D01*
X179207598Y-67622999D01*
X179311576Y-67680738D01*
X179358136Y-67704569D01*
X179359528Y-67704915D01*
X179362220Y-67666582D01*
X179364819Y-67554556D01*
X179367308Y-67373300D01*
X179369669Y-67127274D01*
X179371881Y-66820942D01*
X179373927Y-66458763D01*
X179375788Y-66045199D01*
X179377444Y-65584713D01*
X179378878Y-65081766D01*
X179380071Y-64540819D01*
X179381004Y-63966333D01*
X179381657Y-63362772D01*
X179382014Y-62734595D01*
X179382077Y-62331838D01*
X179382077Y-56958761D01*
X165040846Y-56958761D01*
X164786429Y-56958761D01*
X164786846Y-56704761D01*
X179636077Y-56704761D01*
X179636077Y-69013992D01*
X179636077Y-69013992D01*
G37*
X179636077Y-69013992D02*
X172220043Y-69023862D01*
X171294127Y-69025003D01*
X170443554Y-69025849D01*
X169665515Y-69026386D01*
X168957201Y-69026598D01*
X168315800Y-69026470D01*
X167738504Y-69025989D01*
X167222504Y-69025139D01*
X166764988Y-69023905D01*
X166363147Y-69022273D01*
X166014173Y-69020228D01*
X165715254Y-69017755D01*
X165463581Y-69014839D01*
X165256345Y-69011466D01*
X165090735Y-69007620D01*
X164963942Y-69003288D01*
X164873157Y-68998454D01*
X164815569Y-68993103D01*
X164788368Y-68987221D01*
X164785392Y-68984785D01*
X164783368Y-68940851D01*
X164781532Y-68822991D01*
X164779889Y-68635430D01*
X164778445Y-68382396D01*
X164777206Y-68068115D01*
X164776178Y-67696813D01*
X164775367Y-67272719D01*
X164774778Y-66800057D01*
X164774418Y-66283056D01*
X164774292Y-65725942D01*
X164774407Y-65132940D01*
X164774767Y-64508279D01*
X164775380Y-63856185D01*
X164776251Y-63180884D01*
X164776810Y-62820300D01*
X164786429Y-56958761D01*
X165040846Y-56958761D01*
X165040846Y-68759992D01*
X165998231Y-68759992D01*
X166262461Y-68759558D01*
X166498754Y-68758339D01*
X166696541Y-68756458D01*
X166845251Y-68754037D01*
X166934317Y-68751200D01*
X166955615Y-68748868D01*
X166943289Y-68709364D01*
X166911126Y-68617261D01*
X166870499Y-68504637D01*
X166806734Y-68261154D01*
X166770409Y-67972909D01*
X166762255Y-67668588D01*
X166783003Y-67376877D01*
X166833384Y-67126463D01*
X166835221Y-67120349D01*
X166991515Y-66732398D01*
X167208180Y-66386141D01*
X167477667Y-66087274D01*
X167792426Y-65841495D01*
X168144908Y-65654500D01*
X168527563Y-65531985D01*
X168932842Y-65479648D01*
X169011589Y-65478108D01*
X169326178Y-65493054D01*
X169602321Y-65544544D01*
X169874257Y-65640403D01*
X170023154Y-65709289D01*
X170386615Y-65929515D01*
X170695293Y-66201401D01*
X170945322Y-66517826D01*
X171132841Y-66871670D01*
X171253984Y-67255811D01*
X171304888Y-67663129D01*
X171287882Y-68040216D01*
X171258279Y-68220182D01*
X171216782Y-68401474D01*
X171174394Y-68538957D01*
X171132317Y-68651269D01*
X171104492Y-68728625D01*
X171097789Y-68750223D01*
X171135794Y-68751885D01*
X171245546Y-68753459D01*
X171420637Y-68754919D01*
X171654659Y-68756242D01*
X171941205Y-68757404D01*
X172273867Y-68758380D01*
X172646237Y-68759147D01*
X173051909Y-68759681D01*
X173484475Y-68759958D01*
X173702783Y-68759992D01*
X176307797Y-68759992D01*
X175822706Y-68268058D01*
X175142478Y-67623327D01*
X174447749Y-67054652D01*
X173736605Y-66560957D01*
X173007132Y-66141164D01*
X172257417Y-65794197D01*
X171485545Y-65518977D01*
X170689603Y-65314428D01*
X170511615Y-65278906D01*
X170293315Y-65236916D01*
X170099437Y-65198459D01*
X169944103Y-65166428D01*
X169841437Y-65143718D01*
X169808231Y-65134826D01*
X169806018Y-65117526D01*
X169873047Y-65096130D01*
X170000587Y-65071875D01*
X170179909Y-65045996D01*
X170402281Y-65019731D01*
X170658974Y-64994316D01*
X170941257Y-64970986D01*
X170991044Y-64967325D01*
X171838564Y-64944411D01*
X172697554Y-64995825D01*
X173560990Y-65119956D01*
X174421850Y-65315198D01*
X175273110Y-65579943D01*
X176107748Y-65912581D01*
X176918740Y-66311506D01*
X176960365Y-66334160D01*
X177131041Y-66428871D01*
X177353508Y-66554384D01*
X177612228Y-66701817D01*
X177891662Y-66862286D01*
X178176274Y-67026909D01*
X178393432Y-67153399D01*
X178639117Y-67296552D01*
X178862571Y-67425884D01*
X179054997Y-67536374D01*
X179207598Y-67622999D01*
X179311576Y-67680738D01*
X179358136Y-67704569D01*
X179359528Y-67704915D01*
X179362220Y-67666582D01*
X179364819Y-67554556D01*
X179367308Y-67373300D01*
X179369669Y-67127274D01*
X179371881Y-66820942D01*
X179373927Y-66458763D01*
X179375788Y-66045199D01*
X179377444Y-65584713D01*
X179378878Y-65081766D01*
X179380071Y-64540819D01*
X179381004Y-63966333D01*
X179381657Y-63362772D01*
X179382014Y-62734595D01*
X179382077Y-62331838D01*
X179382077Y-56958761D01*
X165040846Y-56958761D01*
X164786429Y-56958761D01*
X164786846Y-56704761D01*
X179636077Y-56704761D01*
X179636077Y-69013992D01*
G36*
X169201153Y-57347097D02*
X169272733Y-57389302D01*
X169402063Y-57464468D01*
X169579034Y-57566791D01*
X169793535Y-57690464D01*
X170035457Y-57829680D01*
X170294689Y-57978635D01*
X170561122Y-58131521D01*
X170824646Y-58282533D01*
X171075150Y-58425865D01*
X171302525Y-58555709D01*
X171496661Y-58666260D01*
X171615472Y-58733644D01*
X171775897Y-58826222D01*
X171908066Y-58905984D01*
X171998913Y-58964793D01*
X172035371Y-58994508D01*
X172035549Y-58995306D01*
X172005102Y-59025042D01*
X171921771Y-59089273D01*
X171797650Y-59179068D01*
X171644833Y-59285494D01*
X171615538Y-59305504D01*
X170844531Y-59857527D01*
X170146878Y-60414617D01*
X169517779Y-60981916D01*
X168952435Y-61564568D01*
X168446046Y-62167717D01*
X167993812Y-62796504D01*
X167590934Y-63456075D01*
X167387386Y-63836300D01*
X167172126Y-64279150D01*
X166992790Y-64698558D01*
X166841940Y-65116424D01*
X166712139Y-65554647D01*
X166595948Y-66035126D01*
X166525444Y-66374168D01*
X166471140Y-66642754D01*
X166428947Y-66836542D01*
X166398263Y-66957845D01*
X166378487Y-67008977D01*
X166369017Y-66992252D01*
X166368222Y-66978735D01*
X166362327Y-66926975D01*
X166347434Y-66816236D01*
X166326057Y-66664841D01*
X166309705Y-66552146D01*
X166288064Y-66372880D01*
X166266743Y-66140334D01*
X166247670Y-65879365D01*
X166232776Y-65614830D01*
X166227796Y-65497069D01*
X166233475Y-64599229D01*
X166316959Y-63704495D01*
X166477918Y-62814159D01*
X166716024Y-61929516D01*
X167030947Y-61051859D01*
X167422360Y-60182481D01*
X167723765Y-59611471D01*
X167821807Y-59438016D01*
X167950410Y-59213257D01*
X168100353Y-58953159D01*
X168262410Y-58673687D01*
X168427360Y-58390806D01*
X168541006Y-58196927D01*
X169082537Y-57275365D01*
X169201153Y-57347097D01*
X169201153Y-57347097D01*
G37*
X169201153Y-57347097D02*
X169272733Y-57389302D01*
X169402063Y-57464468D01*
X169579034Y-57566791D01*
X169793535Y-57690464D01*
X170035457Y-57829680D01*
X170294689Y-57978635D01*
X170561122Y-58131521D01*
X170824646Y-58282533D01*
X171075150Y-58425865D01*
X171302525Y-58555709D01*
X171496661Y-58666260D01*
X171615472Y-58733644D01*
X171775897Y-58826222D01*
X171908066Y-58905984D01*
X171998913Y-58964793D01*
X172035371Y-58994508D01*
X172035549Y-58995306D01*
X172005102Y-59025042D01*
X171921771Y-59089273D01*
X171797650Y-59179068D01*
X171644833Y-59285494D01*
X171615538Y-59305504D01*
X170844531Y-59857527D01*
X170146878Y-60414617D01*
X169517779Y-60981916D01*
X168952435Y-61564568D01*
X168446046Y-62167717D01*
X167993812Y-62796504D01*
X167590934Y-63456075D01*
X167387386Y-63836300D01*
X167172126Y-64279150D01*
X166992790Y-64698558D01*
X166841940Y-65116424D01*
X166712139Y-65554647D01*
X166595948Y-66035126D01*
X166525444Y-66374168D01*
X166471140Y-66642754D01*
X166428947Y-66836542D01*
X166398263Y-66957845D01*
X166378487Y-67008977D01*
X166369017Y-66992252D01*
X166368222Y-66978735D01*
X166362327Y-66926975D01*
X166347434Y-66816236D01*
X166326057Y-66664841D01*
X166309705Y-66552146D01*
X166288064Y-66372880D01*
X166266743Y-66140334D01*
X166247670Y-65879365D01*
X166232776Y-65614830D01*
X166227796Y-65497069D01*
X166233475Y-64599229D01*
X166316959Y-63704495D01*
X166477918Y-62814159D01*
X166716024Y-61929516D01*
X167030947Y-61051859D01*
X167422360Y-60182481D01*
X167723765Y-59611471D01*
X167821807Y-59438016D01*
X167950410Y-59213257D01*
X168100353Y-58953159D01*
X168262410Y-58673687D01*
X168427360Y-58390806D01*
X168541006Y-58196927D01*
X169082537Y-57275365D01*
X169201153Y-57347097D01*
G36*
X176735447Y-62561634D02*
X176944065Y-62566086D01*
X178131615Y-62594815D01*
X178131615Y-64309711D01*
X178130970Y-64667179D01*
X178129125Y-64999257D01*
X178126214Y-65298069D01*
X178122373Y-65555739D01*
X178117737Y-65764390D01*
X178112440Y-65916145D01*
X178106617Y-66003127D01*
X178102308Y-66021258D01*
X178057968Y-66003315D01*
X177958489Y-65956840D01*
X177818371Y-65888771D01*
X177652116Y-65806049D01*
X177643154Y-65801540D01*
X176793649Y-65402177D01*
X175965848Y-65071633D01*
X175150088Y-64807141D01*
X174336708Y-64605936D01*
X173516044Y-64465253D01*
X172686981Y-64382880D01*
X171888547Y-64363183D01*
X171105176Y-64411002D01*
X170326285Y-64527886D01*
X169541288Y-64715382D01*
X168809679Y-64949756D01*
X168646248Y-65005673D01*
X168508975Y-65048015D01*
X168415102Y-65071734D01*
X168383900Y-65074394D01*
X168388091Y-65045936D01*
X168450555Y-64983046D01*
X168562617Y-64891613D01*
X168715601Y-64777525D01*
X168900830Y-64646671D01*
X169109629Y-64504940D01*
X169333322Y-64358220D01*
X169563231Y-64212400D01*
X169790683Y-64073370D01*
X170007000Y-63947016D01*
X170203506Y-63839229D01*
X170204502Y-63838705D01*
X170767536Y-63560316D01*
X171328407Y-63319599D01*
X171895431Y-63114985D01*
X172476923Y-62944902D01*
X173081202Y-62807781D01*
X173716582Y-62702051D01*
X174391380Y-62626142D01*
X175113913Y-62578483D01*
X175892497Y-62557504D01*
X176735447Y-62561634D01*
X176735447Y-62561634D01*
G37*
X176735447Y-62561634D02*
X176944065Y-62566086D01*
X178131615Y-62594815D01*
X178131615Y-64309711D01*
X178130970Y-64667179D01*
X178129125Y-64999257D01*
X178126214Y-65298069D01*
X178122373Y-65555739D01*
X178117737Y-65764390D01*
X178112440Y-65916145D01*
X178106617Y-66003127D01*
X178102308Y-66021258D01*
X178057968Y-66003315D01*
X177958489Y-65956840D01*
X177818371Y-65888771D01*
X177652116Y-65806049D01*
X177643154Y-65801540D01*
X176793649Y-65402177D01*
X175965848Y-65071633D01*
X175150088Y-64807141D01*
X174336708Y-64605936D01*
X173516044Y-64465253D01*
X172686981Y-64382880D01*
X171888547Y-64363183D01*
X171105176Y-64411002D01*
X170326285Y-64527886D01*
X169541288Y-64715382D01*
X168809679Y-64949756D01*
X168646248Y-65005673D01*
X168508975Y-65048015D01*
X168415102Y-65071734D01*
X168383900Y-65074394D01*
X168388091Y-65045936D01*
X168450555Y-64983046D01*
X168562617Y-64891613D01*
X168715601Y-64777525D01*
X168900830Y-64646671D01*
X169109629Y-64504940D01*
X169333322Y-64358220D01*
X169563231Y-64212400D01*
X169790683Y-64073370D01*
X170007000Y-63947016D01*
X170203506Y-63839229D01*
X170204502Y-63838705D01*
X170767536Y-63560316D01*
X171328407Y-63319599D01*
X171895431Y-63114985D01*
X172476923Y-62944902D01*
X173081202Y-62807781D01*
X173716582Y-62702051D01*
X174391380Y-62626142D01*
X175113913Y-62578483D01*
X175892497Y-62557504D01*
X176735447Y-62561634D01*
G36*
X174398159Y-58883941D02*
X174447689Y-58966166D01*
X174526921Y-59100441D01*
X174630903Y-59278177D01*
X174754683Y-59490785D01*
X174893311Y-59729677D01*
X175041833Y-59986262D01*
X175195299Y-60251952D01*
X175348756Y-60518158D01*
X175497254Y-60776291D01*
X175635841Y-61017761D01*
X175759564Y-61233979D01*
X175863472Y-61416357D01*
X175942614Y-61556305D01*
X175992038Y-61645234D01*
X176006995Y-61674619D01*
X175968043Y-61680050D01*
X175863456Y-61690883D01*
X175705479Y-61705951D01*
X175506353Y-61724087D01*
X175278424Y-61744113D01*
X174700228Y-61800048D01*
X174185120Y-61863184D01*
X173718184Y-61935835D01*
X173284506Y-62020314D01*
X172879485Y-62116271D01*
X171995322Y-62375723D01*
X171169974Y-62683871D01*
X170399129Y-63043336D01*
X169678476Y-63456737D01*
X169003705Y-63926695D01*
X168370502Y-64455828D01*
X167774558Y-65046757D01*
X167444222Y-65418915D01*
X167309032Y-65578240D01*
X167216510Y-65686412D01*
X167158592Y-65751727D01*
X167127209Y-65782478D01*
X167114297Y-65786961D01*
X167111789Y-65773470D01*
X167111923Y-65760631D01*
X167127611Y-65701719D01*
X167170499Y-65586650D01*
X167234326Y-65429898D01*
X167312830Y-65245933D01*
X167399747Y-65049227D01*
X167488815Y-64854252D01*
X167573773Y-64675480D01*
X167631806Y-64559223D01*
X168018884Y-63864464D01*
X168439847Y-63225308D01*
X168909014Y-62621691D01*
X169416838Y-62058300D01*
X169732642Y-61738950D01*
X170042897Y-61445298D01*
X170357283Y-61170195D01*
X170685479Y-60906491D01*
X171037165Y-60647037D01*
X171422019Y-60384685D01*
X171849722Y-60112284D01*
X172329952Y-59822686D01*
X172856231Y-59517948D01*
X173076810Y-59392663D01*
X173308545Y-59261817D01*
X173538337Y-59132731D01*
X173753088Y-59012724D01*
X173939696Y-58909114D01*
X174085063Y-58829223D01*
X174176089Y-58780369D01*
X174178297Y-58779225D01*
X174295713Y-58718507D01*
X174398159Y-58883941D01*
X174398159Y-58883941D01*
G37*
X174398159Y-58883941D02*
X174447689Y-58966166D01*
X174526921Y-59100441D01*
X174630903Y-59278177D01*
X174754683Y-59490785D01*
X174893311Y-59729677D01*
X175041833Y-59986262D01*
X175195299Y-60251952D01*
X175348756Y-60518158D01*
X175497254Y-60776291D01*
X175635841Y-61017761D01*
X175759564Y-61233979D01*
X175863472Y-61416357D01*
X175942614Y-61556305D01*
X175992038Y-61645234D01*
X176006995Y-61674619D01*
X175968043Y-61680050D01*
X175863456Y-61690883D01*
X175705479Y-61705951D01*
X175506353Y-61724087D01*
X175278424Y-61744113D01*
X174700228Y-61800048D01*
X174185120Y-61863184D01*
X173718184Y-61935835D01*
X173284506Y-62020314D01*
X172879485Y-62116271D01*
X171995322Y-62375723D01*
X171169974Y-62683871D01*
X170399129Y-63043336D01*
X169678476Y-63456737D01*
X169003705Y-63926695D01*
X168370502Y-64455828D01*
X167774558Y-65046757D01*
X167444222Y-65418915D01*
X167309032Y-65578240D01*
X167216510Y-65686412D01*
X167158592Y-65751727D01*
X167127209Y-65782478D01*
X167114297Y-65786961D01*
X167111789Y-65773470D01*
X167111923Y-65760631D01*
X167127611Y-65701719D01*
X167170499Y-65586650D01*
X167234326Y-65429898D01*
X167312830Y-65245933D01*
X167399747Y-65049227D01*
X167488815Y-64854252D01*
X167573773Y-64675480D01*
X167631806Y-64559223D01*
X168018884Y-63864464D01*
X168439847Y-63225308D01*
X168909014Y-62621691D01*
X169416838Y-62058300D01*
X169732642Y-61738950D01*
X170042897Y-61445298D01*
X170357283Y-61170195D01*
X170685479Y-60906491D01*
X171037165Y-60647037D01*
X171422019Y-60384685D01*
X171849722Y-60112284D01*
X172329952Y-59822686D01*
X172856231Y-59517948D01*
X173076810Y-59392663D01*
X173308545Y-59261817D01*
X173538337Y-59132731D01*
X173753088Y-59012724D01*
X173939696Y-58909114D01*
X174085063Y-58829223D01*
X174176089Y-58780369D01*
X174178297Y-58779225D01*
X174295713Y-58718507D01*
X174398159Y-58883941D01*
D15*
X161640000Y-51187500D03*
X160990000Y-51187500D03*
X160340000Y-51187500D03*
X159690000Y-51187500D03*
X159040000Y-51187500D03*
X158390000Y-51187500D03*
X157740000Y-51187500D03*
X157090000Y-51187500D03*
X156440000Y-51187500D03*
X155790000Y-51187500D03*
X155140000Y-51187500D03*
X154490000Y-51187500D03*
X154490000Y-56887500D03*
X155140000Y-56887500D03*
X155790000Y-56887500D03*
X156440000Y-56887500D03*
X157090000Y-56887500D03*
X157740000Y-56887500D03*
X158390000Y-56887500D03*
X159040000Y-56887500D03*
X159690000Y-56887500D03*
X160340000Y-56887500D03*
X160990000Y-56887500D03*
X161640000Y-56887500D03*
D16*
X48360000Y-50290000D03*
D17*
X48360000Y-52830000D03*
X48360000Y-55370000D03*
D18*
X170269700Y-52602400D03*
X169456900Y-113486200D03*
D19*
X166946900Y-120828000D03*
D20*
X39096000Y-32170000D03*
X166946900Y-32512000D03*
D21*
X177766000Y-121170000D03*
X177766000Y-32170000D03*
D15*
X161640000Y-100019000D03*
X160990000Y-100019000D03*
X160340000Y-100019000D03*
X159690000Y-100019000D03*
X159040000Y-100019000D03*
X158390000Y-100019000D03*
X157740000Y-100019000D03*
X157090000Y-100019000D03*
X156440000Y-100019000D03*
X155790000Y-100019000D03*
X155140000Y-100019000D03*
X154490000Y-100019000D03*
X154490000Y-105719000D03*
X155140000Y-105719000D03*
X155790000Y-105719000D03*
X156440000Y-105719000D03*
X157090000Y-105719000D03*
X157740000Y-105719000D03*
X158390000Y-105719000D03*
X159040000Y-105719000D03*
X159690000Y-105719000D03*
X160340000Y-105719000D03*
X160990000Y-105719000D03*
X161640000Y-105719000D03*
D22*
X148286000Y-60841000D03*
D23*
X145746000Y-60841000D03*
X148286000Y-58301000D03*
X145746000Y-58301000D03*
X148286000Y-55761000D03*
X145746000Y-55761000D03*
X148286000Y-53221000D03*
X145746000Y-53221000D03*
X148286000Y-50681000D03*
X145746000Y-50681000D03*
X148286000Y-48141000D03*
X145746000Y-48141000D03*
X148286000Y-45601000D03*
X145746000Y-45601000D03*
X148286000Y-43061000D03*
X145746000Y-43061000D03*
X148286000Y-40521000D03*
X145746000Y-40521000D03*
X148286000Y-37981000D03*
X145746000Y-37981000D03*
D22*
X159639000Y-91897200D03*
D23*
X157099000Y-91897200D03*
X159639000Y-89357200D03*
X157099000Y-89357200D03*
X159639000Y-86817200D03*
X157099000Y-86817200D03*
X159639000Y-84277200D03*
X157099000Y-84277200D03*
X159639000Y-81737200D03*
X157099000Y-81737200D03*
X159639000Y-79197200D03*
X157099000Y-79197200D03*
X159639000Y-76657200D03*
X157099000Y-76657200D03*
X159639000Y-74117200D03*
X157099000Y-74117200D03*
X159639000Y-71577200D03*
X157099000Y-71577200D03*
X159639000Y-69037200D03*
X157099000Y-69037200D03*
X159639000Y-66497200D03*
X157099000Y-66497200D03*
X159639000Y-63957200D03*
X157099000Y-63957200D03*
X159639000Y-61417200D03*
X157099000Y-61417200D03*
D22*
X148286000Y-114807000D03*
D23*
X145746000Y-114807000D03*
X148286000Y-112267000D03*
X145746000Y-112267000D03*
X148286000Y-109727000D03*
X145746000Y-109727000D03*
X148286000Y-107187000D03*
X145746000Y-107187000D03*
X148286000Y-104647000D03*
X145746000Y-104647000D03*
X148286000Y-102107000D03*
X145746000Y-102107000D03*
X148286000Y-99567000D03*
X145746000Y-99567000D03*
X148286000Y-97027000D03*
X145746000Y-97027000D03*
X148286000Y-94487000D03*
X145746000Y-94487000D03*
X148286000Y-91947000D03*
X145746000Y-91947000D03*
X148286000Y-89407000D03*
X145746000Y-89407000D03*
X148286000Y-86867000D03*
X145746000Y-86867000D03*
X148286000Y-84327000D03*
X145746000Y-84327000D03*
D24*
X163475200Y-98494800D03*
X163475200Y-100994800D03*
X165634200Y-98494800D03*
X165634200Y-100994800D03*
D25*
X163482500Y-49046400D03*
X165982500Y-49046400D03*
X163482500Y-46557200D03*
X165982500Y-46557200D03*
D26*
X153289800Y-98512900D03*
X139738900Y-60832000D03*
X152781800Y-106412300D03*
X164478500Y-102843600D03*
X167907500Y-47801800D03*
X154026400Y-48957500D03*
X159639000Y-97890600D03*
X152781800Y-114807000D03*
X157099000Y-97890600D03*
X152781800Y-110997000D03*
X158369800Y-97890600D03*
X152781800Y-112267000D03*
X155601200Y-97890600D03*
X152781800Y-108457000D03*
X133846100Y-33527000D03*
X165646900Y-96150700D03*
X163475200Y-43941000D03*
X161151100Y-97890600D03*
X160986000Y-48246300D03*
X151765800Y-81748900D03*
D27*
X157099000Y-84277200D02*
X157099000Y-85431100D01*
X159639000Y-85431100D02*
X159639000Y-84277200D01*
X157099000Y-85431100D02*
X159639000Y-85431100D01*
X157099000Y-84277200D02*
X157099000Y-83121300D01*
X159639000Y-83411800D02*
X159639800Y-83412600D01*
X159639000Y-83121300D02*
X159639000Y-83411800D01*
X157099000Y-83121300D02*
X159639000Y-83121300D01*
D28*
X154490000Y-100019000D02*
X154186300Y-100019000D01*
X153289800Y-99122500D02*
X153289800Y-98512900D01*
X154186300Y-100019000D02*
X153289800Y-99122500D01*
D27*
X145746000Y-60841000D02*
X139747900Y-60841000D01*
X139747900Y-60841000D02*
X139738900Y-60832000D01*
X163475200Y-100994800D02*
X163475200Y-102335600D01*
X163983200Y-102843600D02*
X164478500Y-102843600D01*
X163475200Y-102335600D02*
X163983200Y-102843600D01*
X165982500Y-49046400D02*
X167602700Y-49046400D01*
X167907500Y-48741600D02*
X167907500Y-47801800D01*
X167602700Y-49046400D02*
X167907500Y-48741600D01*
X145746000Y-107187000D02*
X145746000Y-106018600D01*
X148286000Y-106018600D02*
X148286000Y-106310700D01*
X145746000Y-106018600D02*
X148286000Y-106018600D01*
X148286000Y-37981000D02*
X148286000Y-39153100D01*
X145746000Y-39026100D02*
X145746000Y-37981000D01*
X145873000Y-39153100D02*
X145746000Y-39026100D01*
X148286000Y-39153100D02*
X145873000Y-39153100D01*
X148273300Y-59663600D02*
X148552700Y-59663600D01*
X145746000Y-60841000D02*
X145746000Y-59663600D01*
X148273300Y-59663600D02*
X148273300Y-60828300D01*
X145746000Y-59663600D02*
X148273300Y-59663600D01*
X148273300Y-60828300D02*
X148286000Y-60841000D01*
D28*
X154490000Y-51187500D02*
X154490000Y-50526000D01*
X154026400Y-50062400D02*
X154026400Y-48957500D01*
X154490000Y-50526000D02*
X154026400Y-50062400D01*
X159639000Y-97890600D02*
X159639000Y-91897200D01*
X148286000Y-114807000D02*
X152781800Y-114807000D01*
X157099000Y-97890600D02*
X157099000Y-91897200D01*
X147676400Y-110997000D02*
X152781800Y-110997000D01*
X147016000Y-111657400D02*
X147676400Y-110997000D01*
X147016000Y-113537000D02*
X147016000Y-111657400D01*
X145746000Y-114807000D02*
X147016000Y-113537000D01*
X159690000Y-100019000D02*
X159690000Y-103733200D01*
X158766788Y-104656412D02*
X148295412Y-104656412D01*
X159690000Y-103733200D02*
X158766788Y-104656412D01*
X148295412Y-104656412D02*
X148286000Y-104647000D01*
X154490000Y-105719000D02*
X154490000Y-116197600D01*
X143180600Y-107212400D02*
X145746000Y-104647000D01*
X143180600Y-115594400D02*
X143180600Y-107212400D01*
X144679200Y-117093000D02*
X143180600Y-115594400D01*
X153594600Y-117093000D02*
X144679200Y-117093000D01*
X154490000Y-116197600D02*
X153594600Y-117093000D01*
X159040000Y-100019000D02*
X159040000Y-103240200D01*
X150245410Y-104066410D02*
X148286000Y-102107000D01*
X158213790Y-104066410D02*
X150245410Y-104066410D01*
X159040000Y-103240200D02*
X158213790Y-104066410D01*
X145746000Y-102107000D02*
X142545600Y-105307400D01*
X155140000Y-116381988D02*
X155140000Y-105719000D01*
X153838986Y-117683002D02*
X155140000Y-116381988D01*
X144434814Y-117683002D02*
X153838986Y-117683002D01*
X142545600Y-115793788D02*
X144434814Y-117683002D01*
X142545600Y-105307400D02*
X142545600Y-115793788D01*
X148286000Y-99567000D02*
X152195408Y-103476408D01*
X158390000Y-102747200D02*
X158390000Y-100019000D01*
X157660792Y-103476408D02*
X158390000Y-102747200D01*
X152195408Y-103476408D02*
X157660792Y-103476408D01*
X145746000Y-99567000D02*
X141936000Y-103377000D01*
X155790000Y-116566376D02*
X154083372Y-118273004D01*
X154083372Y-118273004D02*
X144190428Y-118273004D01*
X155790000Y-116566376D02*
X155790000Y-105719000D01*
X141936000Y-116018576D02*
X144190428Y-118273004D01*
X141936000Y-103377000D02*
X141936000Y-116018576D01*
X157740000Y-100019000D02*
X157740000Y-102305000D01*
X149822700Y-98563700D02*
X148286000Y-97027000D01*
X149822700Y-100113100D02*
X149822700Y-98563700D01*
X152596006Y-102886406D02*
X149822700Y-100113100D01*
X157158594Y-102886406D02*
X152596006Y-102886406D01*
X157740000Y-102305000D02*
X157158594Y-102886406D01*
X145746000Y-97027000D02*
X141301000Y-101472000D01*
X156440000Y-116750764D02*
X156440000Y-105719000D01*
X154327758Y-118863006D02*
X156440000Y-116750764D01*
X143946042Y-118863006D02*
X154327758Y-118863006D01*
X141301000Y-116217964D02*
X143946042Y-118863006D01*
X141301000Y-101472000D02*
X141301000Y-116217964D01*
X148286000Y-94487000D02*
X150572000Y-96773000D01*
X157090000Y-101761200D02*
X157090000Y-100019000D01*
X156554796Y-102296404D02*
X157090000Y-101761200D01*
X153174404Y-102296404D02*
X156554796Y-102296404D01*
X150572000Y-99694000D02*
X153174404Y-102296404D01*
X150572000Y-96773000D02*
X150572000Y-99694000D01*
X157090000Y-105719000D02*
X157090000Y-116935152D01*
X140666000Y-99567000D02*
X145746000Y-94487000D01*
X140666000Y-116417352D02*
X140666000Y-99567000D01*
X143701656Y-119453008D02*
X140666000Y-116417352D01*
X154572144Y-119453008D02*
X143701656Y-119453008D01*
X157090000Y-116935152D02*
X154572144Y-119453008D01*
X156440000Y-100019000D02*
X156440000Y-101293600D01*
X151334000Y-94995000D02*
X148286000Y-91947000D01*
X151334000Y-99334588D02*
X151334000Y-94995000D01*
X153705814Y-101706402D02*
X151334000Y-99334588D01*
X156027198Y-101706402D02*
X153705814Y-101706402D01*
X156440000Y-101293600D02*
X156027198Y-101706402D01*
X145746000Y-91947000D02*
X140056400Y-97636600D01*
X157740000Y-117119540D02*
X157740000Y-105719000D01*
X154816530Y-120043010D02*
X157740000Y-117119540D01*
X143457270Y-120043010D02*
X154816530Y-120043010D01*
X140056400Y-116642140D02*
X143457270Y-120043010D01*
X140056400Y-97636600D02*
X140056400Y-116642140D01*
X148286000Y-89407000D02*
X152032500Y-93153500D01*
X155790000Y-100749800D02*
X155790000Y-100019000D01*
X155423400Y-101116400D02*
X155790000Y-100749800D01*
X154153400Y-101116400D02*
X155423400Y-101116400D01*
X152032500Y-98995500D02*
X154153400Y-101116400D01*
X152032500Y-93153500D02*
X152032500Y-98995500D01*
X158390000Y-105719000D02*
X158390000Y-117303928D01*
X139446800Y-95706200D02*
X145746000Y-89407000D01*
X139446800Y-116866928D02*
X139446800Y-95706200D01*
X143212884Y-120633012D02*
X139446800Y-116866928D01*
X155060916Y-120633012D02*
X143212884Y-120633012D01*
X158390000Y-117303928D02*
X155060916Y-120633012D01*
X155140000Y-100019000D02*
X155140000Y-98940700D01*
X152807200Y-96607900D02*
X152807200Y-91388200D01*
X155140000Y-98940700D02*
X152807200Y-96607900D01*
X152807200Y-91388200D02*
X148286000Y-86867000D01*
X145746000Y-86867000D02*
X138811800Y-93801200D01*
X159040000Y-117488316D02*
X159040000Y-105719000D01*
X155305302Y-121223014D02*
X159040000Y-117488316D01*
X142968498Y-121223014D02*
X155305302Y-121223014D01*
X138811800Y-117066316D02*
X142968498Y-121223014D01*
X138811800Y-93801200D02*
X138811800Y-117066316D01*
X159639000Y-89357200D02*
X158369800Y-90626400D01*
X158369800Y-90626400D02*
X158369800Y-97890600D01*
X148286000Y-112267000D02*
X152781800Y-112267000D01*
X157099000Y-89357200D02*
X155601200Y-90855000D01*
X155601200Y-90855000D02*
X155601200Y-97890600D01*
X152781800Y-108457000D02*
X144730000Y-108457000D01*
X144069600Y-110590600D02*
X144069600Y-109117400D01*
X144069600Y-109117400D02*
X144730000Y-108457000D01*
X144069600Y-110590600D02*
X145746000Y-112267000D01*
D29*
X46012900Y-39724600D02*
X52210500Y-33527000D01*
X48360000Y-55370000D02*
X47078700Y-55370000D01*
X46012900Y-54304200D02*
X46012900Y-39724600D01*
X47078700Y-55370000D02*
X46012900Y-54304200D01*
X52210500Y-33527000D02*
X133846100Y-33527000D01*
X165634200Y-98494800D02*
X163475200Y-98494800D01*
X165646900Y-96150700D02*
X165646900Y-98482100D01*
X165646900Y-98482100D02*
X165634200Y-98494800D01*
X163482500Y-43948300D02*
X163482500Y-46557200D01*
X163475200Y-43941000D02*
X163482500Y-43948300D01*
D28*
X160990000Y-100019000D02*
X160990000Y-99283600D01*
X160990000Y-99283600D02*
X161778800Y-98494800D01*
X161778800Y-98494800D02*
X163475200Y-98494800D01*
X160990000Y-51187500D02*
X160990000Y-54054200D01*
X161640000Y-54704200D02*
X161640000Y-56887500D01*
X160990000Y-54054200D02*
X161640000Y-54704200D01*
X163482500Y-49046400D02*
X162065500Y-49046400D01*
X160990000Y-50121900D02*
X160990000Y-51187500D01*
X162065500Y-49046400D02*
X160990000Y-50121900D01*
D29*
X163482500Y-46557200D02*
X163482500Y-49046400D01*
D28*
X160990000Y-100019000D02*
X160990000Y-103965200D01*
X161640000Y-104615200D02*
X161640000Y-105719000D01*
X160990000Y-103965200D02*
X161640000Y-104615200D01*
X159690000Y-51187500D02*
X159690000Y-38379084D01*
X159690000Y-38379084D02*
X153527302Y-32216386D01*
X153527302Y-32216386D02*
X143371086Y-32216386D01*
X143371086Y-32216386D02*
X139818388Y-35769084D01*
X139818388Y-35769084D02*
X139818388Y-52373388D01*
X139818388Y-52373388D02*
X145746000Y-58301000D01*
X148286000Y-58301000D02*
X153712600Y-58301000D01*
X154490000Y-57523600D02*
X154490000Y-56887500D01*
X153712600Y-58301000D02*
X154490000Y-57523600D01*
X159040000Y-51187500D02*
X159040000Y-38563472D01*
X159040000Y-38563472D02*
X153282916Y-32806388D01*
X153282916Y-32806388D02*
X143615472Y-32806388D01*
X143615472Y-32806388D02*
X140408390Y-36013470D01*
X140408390Y-36013470D02*
X140408390Y-50423390D01*
X140408390Y-50423390D02*
X145746000Y-55761000D01*
X148286000Y-55761000D02*
X154708500Y-55761000D01*
X155140000Y-56192500D02*
X155140000Y-56887500D01*
X154708500Y-55761000D02*
X155140000Y-56192500D01*
X158390000Y-51187500D02*
X158390000Y-38747860D01*
X158390000Y-38747860D02*
X153038530Y-33396390D01*
X153038530Y-33396390D02*
X143859858Y-33396390D01*
X143859858Y-33396390D02*
X140998392Y-36257856D01*
X140998392Y-36257856D02*
X140998392Y-48473392D01*
X140998392Y-48473392D02*
X145746000Y-53221000D01*
X155790000Y-56887500D02*
X155790000Y-55712200D01*
X150235998Y-55170998D02*
X148286000Y-53221000D01*
X155248798Y-55170998D02*
X150235998Y-55170998D01*
X155790000Y-55712200D02*
X155248798Y-55170998D01*
X157740000Y-51187500D02*
X157740000Y-38932248D01*
X157740000Y-38932248D02*
X152794144Y-33986392D01*
X152794144Y-33986392D02*
X144104244Y-33986392D01*
X144104244Y-33986392D02*
X141588394Y-36502242D01*
X141588394Y-36502242D02*
X141588394Y-46523394D01*
X141588394Y-46523394D02*
X145746000Y-50681000D01*
X155789096Y-54580996D02*
X151407596Y-54580996D01*
X156440000Y-55231900D02*
X155789096Y-54580996D01*
X156440000Y-56887500D02*
X156440000Y-55231900D01*
X149784600Y-52179600D02*
X148286000Y-50681000D01*
X149784600Y-52958000D02*
X149784600Y-52179600D01*
X151407596Y-54580996D02*
X149784600Y-52958000D01*
X157090000Y-51187500D02*
X157090000Y-39116636D01*
X157090000Y-39116636D02*
X152549758Y-34576394D01*
X152549758Y-34576394D02*
X144348630Y-34576394D01*
X144348630Y-34576394D02*
X142178396Y-36746628D01*
X142178396Y-36746628D02*
X142178396Y-44573396D01*
X142178396Y-44573396D02*
X145746000Y-48141000D01*
X148286000Y-48141000D02*
X150635500Y-50490500D01*
X157090000Y-54764300D02*
X157090000Y-56887500D01*
X156316694Y-53990994D02*
X157090000Y-54764300D01*
X152151094Y-53990994D02*
X156316694Y-53990994D01*
X150635500Y-52475400D02*
X152151094Y-53990994D01*
X150635500Y-50490500D02*
X150635500Y-52475400D01*
X156440000Y-51187500D02*
X156440000Y-39301024D01*
X156440000Y-39301024D02*
X152305372Y-35166396D01*
X152305372Y-35166396D02*
X144593016Y-35166396D01*
X144593016Y-35166396D02*
X142768398Y-36991014D01*
X142768398Y-36991014D02*
X142768398Y-42623398D01*
X142768398Y-42623398D02*
X145746000Y-45601000D01*
X157740000Y-56887500D02*
X157740000Y-54245900D01*
X151435600Y-48750600D02*
X148286000Y-45601000D01*
X151435600Y-52145200D02*
X151435600Y-48750600D01*
X152691392Y-53400992D02*
X151435600Y-52145200D01*
X156895092Y-53400992D02*
X152691392Y-53400992D01*
X157740000Y-54245900D02*
X156895092Y-53400992D01*
X155790000Y-51187500D02*
X155790000Y-39485412D01*
X155790000Y-39485412D02*
X152060986Y-35756398D01*
X152060986Y-35756398D02*
X144837402Y-35756398D01*
X144837402Y-35756398D02*
X143358400Y-37235400D01*
X143358400Y-37235400D02*
X143358400Y-40673400D01*
X143358400Y-40673400D02*
X145746000Y-43061000D01*
X148286000Y-43061000D02*
X152235700Y-47010700D01*
X158390000Y-53765600D02*
X158390000Y-56887500D01*
X157435390Y-52810990D02*
X158390000Y-53765600D01*
X153218990Y-52810990D02*
X157435390Y-52810990D01*
X152235700Y-51827700D02*
X153218990Y-52810990D01*
X152235700Y-47010700D02*
X152235700Y-51827700D01*
X155140000Y-51187500D02*
X155140000Y-39669800D01*
X155140000Y-39669800D02*
X151816600Y-36346400D01*
X151816600Y-36346400D02*
X145111000Y-36346400D01*
X145111000Y-36346400D02*
X143968000Y-37489400D01*
X143968000Y-37489400D02*
X143968000Y-38743000D01*
X143968000Y-38743000D02*
X145746000Y-40521000D01*
X159040000Y-56887500D02*
X159040000Y-53247200D01*
X152921500Y-45156500D02*
X148286000Y-40521000D01*
X152921500Y-51395900D02*
X152921500Y-45156500D01*
X153746588Y-52220988D02*
X152921500Y-51395900D01*
X158013788Y-52220988D02*
X153746588Y-52220988D01*
X159040000Y-53247200D02*
X158013788Y-52220988D01*
X162865600Y-54774100D02*
X162865600Y-65810600D01*
X161640000Y-53548500D02*
X162865600Y-54774100D01*
X161640000Y-51187500D02*
X161640000Y-53548500D01*
X162865600Y-65810600D02*
X159639000Y-69037200D01*
X160340000Y-100019000D02*
X160340000Y-98701700D01*
X160340000Y-98701700D02*
X161151100Y-97890600D01*
X160340000Y-48892300D02*
X160986000Y-48246300D01*
X160340000Y-51187500D02*
X160340000Y-48892300D01*
X151777500Y-81737200D02*
X157099000Y-81737200D01*
X151765800Y-81748900D02*
X151777500Y-81737200D01*
X159690000Y-56887500D02*
X159690000Y-57898900D01*
X154305800Y-76404000D02*
X157099000Y-79197200D01*
X154305800Y-59968400D02*
X154305800Y-76404000D01*
X155690100Y-58584100D02*
X154305800Y-59968400D01*
X159004800Y-58584100D02*
X155690100Y-58584100D01*
X159690000Y-57898900D02*
X159004800Y-58584100D01*
X160340000Y-56887500D02*
X160340000Y-58379200D01*
X155156700Y-74714900D02*
X157099000Y-76657200D01*
X155156700Y-60285900D02*
X155156700Y-74714900D01*
X156033000Y-59409600D02*
X155156700Y-60285900D01*
X159309600Y-59409600D02*
X156033000Y-59409600D01*
X160340000Y-58379200D02*
X159309600Y-59409600D01*
X157099000Y-76657200D02*
X158368000Y-77926200D01*
X160947900Y-77926200D02*
X169011304Y-85989604D01*
X158368000Y-77926200D02*
X160947900Y-77926200D01*
X160340000Y-105719000D02*
X160340000Y-107049000D01*
X169011304Y-104648096D02*
X169011304Y-85989604D01*
X165539498Y-108119902D02*
X169011304Y-104648096D01*
X161410902Y-108119902D02*
X165539498Y-108119902D01*
X160340000Y-107049000D02*
X161410902Y-108119902D01*
X167526500Y-103135700D02*
X167526500Y-89064100D01*
X161640000Y-100019000D02*
X161640000Y-103472200D01*
X166459700Y-104202500D02*
X167526500Y-103135700D01*
X162370300Y-104202500D02*
X166459700Y-104202500D01*
X161640000Y-103472200D02*
X162370300Y-104202500D01*
X167526500Y-89064100D02*
X160199600Y-81737200D01*
X160199600Y-81737200D02*
X159639000Y-81737200D01*
X159690000Y-105719000D02*
X159690000Y-107576288D01*
X158368000Y-75386200D02*
X157099000Y-74117200D01*
X161138400Y-75386200D02*
X158368000Y-75386200D01*
X169766406Y-84014206D02*
X161138400Y-75386200D01*
X169766406Y-105032182D02*
X169766406Y-84014206D01*
X165834684Y-108963904D02*
X169766406Y-105032182D01*
X161077616Y-108963904D02*
X165834684Y-108963904D01*
X159690000Y-107576288D02*
X161077616Y-108963904D01*
X160990000Y-105719000D02*
X160990000Y-106657600D01*
X168268902Y-87827102D02*
X159639000Y-79197200D01*
X168268902Y-104006198D02*
X168268902Y-87827102D01*
X165075400Y-107199700D02*
X168268902Y-104006198D01*
X161532100Y-107199700D02*
X165075400Y-107199700D01*
X160990000Y-106657600D02*
X161532100Y-107199700D01*
X161621000Y-59041300D02*
X161621000Y-61975200D01*
X160990000Y-56887500D02*
X160990000Y-58410300D01*
X160990000Y-58410300D02*
X161621000Y-59041300D01*
X161621000Y-61975200D02*
X159639000Y-63957200D01*
D27*
G36*
X37243285Y-29391971D02*
X36321209Y-30312439D01*
X35821570Y-31515704D01*
X35820433Y-32818580D01*
X36317971Y-34022715D01*
X37238439Y-34944791D01*
X38441704Y-35444430D01*
X39744580Y-35445567D01*
X40948715Y-34948029D01*
X41870791Y-34027561D01*
X42370430Y-32824296D01*
X42371567Y-31521420D01*
X41874029Y-30317285D01*
X40953561Y-29395209D01*
X40712231Y-29295000D01*
X166156577Y-29295000D01*
X165094185Y-29733971D01*
X164172109Y-30654439D01*
X163672470Y-31857704D01*
X163671333Y-33160580D01*
X164168871Y-34364715D01*
X165089339Y-35286791D01*
X166292604Y-35786430D01*
X167595480Y-35787567D01*
X168799615Y-35290029D01*
X169721691Y-34369561D01*
X170221330Y-33166296D01*
X170221849Y-32571030D01*
X175740649Y-32571030D01*
X176048288Y-33315572D01*
X176617432Y-33885710D01*
X177361435Y-34194648D01*
X178167030Y-34195351D01*
X178911572Y-33887712D01*
X179481710Y-33318568D01*
X179790648Y-32574565D01*
X179791351Y-31768970D01*
X179483712Y-31024428D01*
X178914568Y-30454290D01*
X178170565Y-30145352D01*
X177364970Y-30144649D01*
X176620428Y-30452288D01*
X176050290Y-31021432D01*
X175741352Y-31765435D01*
X175740649Y-32571030D01*
X170221849Y-32571030D01*
X170222467Y-31863420D01*
X169724929Y-30659285D01*
X168804461Y-29737209D01*
X167739503Y-29295000D01*
X180711000Y-29295000D01*
X180711000Y-124045000D01*
X155107160Y-124045000D01*
X155096000Y-124042900D01*
X136961000Y-124042900D01*
X136961000Y-93801200D01*
X138086800Y-93801200D01*
X138086800Y-117066316D01*
X138126006Y-117263417D01*
X138141987Y-117343762D01*
X138299148Y-117578968D01*
X142455846Y-121735667D01*
X142691052Y-121892827D01*
X142968498Y-121948014D01*
X155305302Y-121948014D01*
X155536717Y-121901983D01*
X155582748Y-121892827D01*
X155817954Y-121735666D01*
X156126550Y-121427070D01*
X163921376Y-121427070D01*
X164380935Y-122539286D01*
X165231138Y-123390975D01*
X166342551Y-123852474D01*
X167545970Y-123853524D01*
X168658186Y-123393965D01*
X169509875Y-122543762D01*
X169913788Y-121571030D01*
X175740649Y-121571030D01*
X176048288Y-122315572D01*
X176617432Y-122885710D01*
X177361435Y-123194648D01*
X178167030Y-123195351D01*
X178911572Y-122887712D01*
X179481710Y-122318568D01*
X179790648Y-121574565D01*
X179791351Y-120768970D01*
X179483712Y-120024428D01*
X178914568Y-119454290D01*
X178170565Y-119145352D01*
X177364970Y-119144649D01*
X176620428Y-119452288D01*
X176050290Y-120021432D01*
X175741352Y-120765435D01*
X175740649Y-121571030D01*
X169913788Y-121571030D01*
X169971374Y-121432349D01*
X169972424Y-120228930D01*
X169512865Y-119116714D01*
X168662662Y-118265025D01*
X167551249Y-117803526D01*
X166347830Y-117802476D01*
X165235614Y-118262035D01*
X164383925Y-119112238D01*
X163922426Y-120223651D01*
X163921376Y-121427070D01*
X156126550Y-121427070D01*
X159552653Y-118000968D01*
X159709813Y-117765762D01*
X159765000Y-117488316D01*
X159765000Y-113696450D01*
X168014300Y-113696450D01*
X168014300Y-114668447D01*
X168063779Y-114787898D01*
X168155203Y-114879322D01*
X168274654Y-114928800D01*
X169246650Y-114928800D01*
X169327900Y-114847550D01*
X169327900Y-113615200D01*
X169585900Y-113615200D01*
X169585900Y-114847550D01*
X169667150Y-114928800D01*
X170639146Y-114928800D01*
X170758597Y-114879322D01*
X170850021Y-114787898D01*
X170899500Y-114668447D01*
X170899500Y-113696450D01*
X170818250Y-113615200D01*
X169585900Y-113615200D01*
X169327900Y-113615200D01*
X168095550Y-113615200D01*
X168014300Y-113696450D01*
X159765000Y-113696450D01*
X159765000Y-112303953D01*
X168014300Y-112303953D01*
X168014300Y-113275950D01*
X168095550Y-113357200D01*
X169327900Y-113357200D01*
X169327900Y-112124850D01*
X169585900Y-112124850D01*
X169585900Y-113357200D01*
X170818250Y-113357200D01*
X170899500Y-113275950D01*
X170899500Y-112303953D01*
X170850021Y-112184502D01*
X170758597Y-112093078D01*
X170639146Y-112043600D01*
X169667150Y-112043600D01*
X169585900Y-112124850D01*
X169327900Y-112124850D01*
X169246650Y-112043600D01*
X168274654Y-112043600D01*
X168155203Y-112093078D01*
X168063779Y-112184502D01*
X168014300Y-112303953D01*
X159765000Y-112303953D01*
X159765000Y-111716600D01*
X171308615Y-111716600D01*
X171308615Y-115357400D01*
X177003186Y-115357400D01*
X177003186Y-111716600D01*
X171308615Y-111716600D01*
X159765000Y-111716600D01*
X159765000Y-108676592D01*
X160564963Y-109476556D01*
X160722124Y-109581567D01*
X160800171Y-109633717D01*
X161077616Y-109688904D01*
X165834684Y-109688904D01*
X166066099Y-109642873D01*
X166112130Y-109633717D01*
X166347336Y-109476556D01*
X170279059Y-105544834D01*
X170436219Y-105309628D01*
X170491406Y-105032182D01*
X170491406Y-84014206D01*
X170436219Y-83736761D01*
X170279058Y-83501554D01*
X169503728Y-82726224D01*
X170704000Y-82726224D01*
X170704000Y-105257175D01*
X180354000Y-105257175D01*
X180354000Y-82726224D01*
X170704000Y-82726224D01*
X169503728Y-82726224D01*
X161651052Y-74873548D01*
X161415846Y-74716387D01*
X161369815Y-74707231D01*
X161138400Y-74661200D01*
X160940680Y-74661200D01*
X160949103Y-74648594D01*
X161054804Y-74117200D01*
X160949103Y-73585806D01*
X160648092Y-73135312D01*
X160216903Y-72847200D01*
X160648092Y-72559088D01*
X160949103Y-72108594D01*
X161054804Y-71577200D01*
X160949103Y-71045806D01*
X160648092Y-70595312D01*
X160216903Y-70307200D01*
X160648092Y-70019088D01*
X160949103Y-69568594D01*
X161054804Y-69037200D01*
X160990016Y-68711488D01*
X163378252Y-66323253D01*
X163500474Y-66140334D01*
X163535413Y-66088045D01*
X163590600Y-65810600D01*
X163590600Y-65725839D01*
X164244292Y-65725839D01*
X164244314Y-65725950D01*
X164244292Y-65726062D01*
X164244418Y-66283176D01*
X164244443Y-66283300D01*
X164244418Y-66283425D01*
X164244778Y-66800426D01*
X164244807Y-66800571D01*
X164244778Y-66800717D01*
X164245367Y-67273379D01*
X164245403Y-67273557D01*
X164245368Y-67273733D01*
X164246179Y-67697827D01*
X164246224Y-67698053D01*
X164246180Y-67698280D01*
X164247208Y-68069582D01*
X164247271Y-68069893D01*
X164247210Y-68070204D01*
X164248449Y-68384485D01*
X164248544Y-68384954D01*
X164248454Y-68385421D01*
X164249898Y-68638454D01*
X164250063Y-68639261D01*
X164249909Y-68640073D01*
X164251552Y-68827633D01*
X164251927Y-68829435D01*
X164251596Y-68831246D01*
X164253432Y-68949106D01*
X164255159Y-68957130D01*
X164253930Y-68965242D01*
X164255954Y-69009176D01*
X164256000Y-69009362D01*
X164256000Y-74900300D01*
X164264549Y-74945732D01*
X164291399Y-74987459D01*
X164332368Y-75015452D01*
X164381000Y-75025300D01*
X180031000Y-75025300D01*
X180076432Y-75016751D01*
X180118159Y-74989901D01*
X180146152Y-74948932D01*
X180156000Y-74900300D01*
X180156000Y-69064652D01*
X180166077Y-69013992D01*
X180166077Y-56704761D01*
X180125733Y-56501939D01*
X180010844Y-56329994D01*
X179838899Y-56215105D01*
X179636077Y-56174761D01*
X164786846Y-56174761D01*
X164685691Y-56194882D01*
X164584828Y-56214773D01*
X164584459Y-56215018D01*
X164584024Y-56215105D01*
X164498169Y-56272471D01*
X164412695Y-56329380D01*
X164412449Y-56329747D01*
X164412079Y-56329994D01*
X164354658Y-56415931D01*
X164297524Y-56501136D01*
X164297437Y-56501569D01*
X164297190Y-56501939D01*
X164277055Y-56603163D01*
X164256847Y-56703891D01*
X164256827Y-56716217D01*
X164256000Y-56720300D01*
X164256000Y-57219921D01*
X164246811Y-62819430D01*
X164246816Y-62819455D01*
X164246811Y-62819479D01*
X164246252Y-63180062D01*
X164246265Y-63180129D01*
X164246251Y-63180200D01*
X164245380Y-63855501D01*
X164245398Y-63855595D01*
X164245380Y-63855687D01*
X164244767Y-64507781D01*
X164244786Y-64507878D01*
X164244767Y-64507974D01*
X164244407Y-65132635D01*
X164244427Y-65132736D01*
X164244407Y-65132837D01*
X164244292Y-65725839D01*
X163590600Y-65725839D01*
X163590600Y-54774100D01*
X163535413Y-54496655D01*
X163425157Y-54331646D01*
X163378252Y-54261447D01*
X162365000Y-53248196D01*
X162365000Y-52812650D01*
X168827100Y-52812650D01*
X168827100Y-53784647D01*
X168876579Y-53904098D01*
X168968003Y-53995522D01*
X169087454Y-54045000D01*
X170059450Y-54045000D01*
X170140700Y-53963750D01*
X170140700Y-52731400D01*
X170398700Y-52731400D01*
X170398700Y-53963750D01*
X170479950Y-54045000D01*
X171451946Y-54045000D01*
X171571397Y-53995522D01*
X171662821Y-53904098D01*
X171712300Y-53784647D01*
X171712300Y-52812650D01*
X171631050Y-52731400D01*
X170398700Y-52731400D01*
X170140700Y-52731400D01*
X168908350Y-52731400D01*
X168827100Y-52812650D01*
X162365000Y-52812650D01*
X162365000Y-51788289D01*
X162375285Y-51737500D01*
X162375285Y-51420153D01*
X168827100Y-51420153D01*
X168827100Y-52392150D01*
X168908350Y-52473400D01*
X170140700Y-52473400D01*
X170140700Y-51241050D01*
X170398700Y-51241050D01*
X170398700Y-52473400D01*
X171631050Y-52473400D01*
X171712300Y-52392150D01*
X171712300Y-51420153D01*
X171662821Y-51300702D01*
X171571397Y-51209278D01*
X171451946Y-51159800D01*
X170479950Y-51159800D01*
X170398700Y-51241050D01*
X170140700Y-51241050D01*
X170059450Y-51159800D01*
X169087454Y-51159800D01*
X168968003Y-51209278D01*
X168876579Y-51300702D01*
X168827100Y-51420153D01*
X162375285Y-51420153D01*
X162375285Y-50782000D01*
X172108715Y-50782000D01*
X172108715Y-54422800D01*
X177803286Y-54422800D01*
X177803286Y-50782000D01*
X172108715Y-50782000D01*
X162375285Y-50782000D01*
X162375285Y-50637500D01*
X162338677Y-50442947D01*
X162223696Y-50264261D01*
X162048256Y-50144388D01*
X162002153Y-50135052D01*
X162248478Y-49888727D01*
X162348804Y-50044639D01*
X162524244Y-50164512D01*
X162732500Y-50206685D01*
X164232500Y-50206685D01*
X164427053Y-50170077D01*
X164605739Y-50055096D01*
X164725612Y-49879656D01*
X164767785Y-49671400D01*
X164767785Y-49256650D01*
X164907500Y-49256650D01*
X164907500Y-49736047D01*
X164956979Y-49855498D01*
X165048403Y-49946922D01*
X165167854Y-49996400D01*
X165772250Y-49996400D01*
X165853500Y-49915150D01*
X165853500Y-49175400D01*
X166111500Y-49175400D01*
X166111500Y-49915150D01*
X166192750Y-49996400D01*
X166797146Y-49996400D01*
X166916597Y-49946922D01*
X167008021Y-49855498D01*
X167057500Y-49736047D01*
X167057500Y-49256650D01*
X166976250Y-49175400D01*
X166111500Y-49175400D01*
X165853500Y-49175400D01*
X164988750Y-49175400D01*
X164907500Y-49256650D01*
X164767785Y-49256650D01*
X164767785Y-48421400D01*
X164755621Y-48356753D01*
X164907500Y-48356753D01*
X164907500Y-48836150D01*
X164988750Y-48917400D01*
X165853500Y-48917400D01*
X165853500Y-48177650D01*
X166111500Y-48177650D01*
X166111500Y-48917400D01*
X166976250Y-48917400D01*
X167057500Y-48836150D01*
X167057500Y-48356753D01*
X167008021Y-48237302D01*
X166916597Y-48145878D01*
X166797146Y-48096400D01*
X166192750Y-48096400D01*
X166111500Y-48177650D01*
X165853500Y-48177650D01*
X165772250Y-48096400D01*
X165167854Y-48096400D01*
X165048403Y-48145878D01*
X164956979Y-48237302D01*
X164907500Y-48356753D01*
X164755621Y-48356753D01*
X164731177Y-48226847D01*
X164616196Y-48048161D01*
X164440756Y-47928288D01*
X164407500Y-47921553D01*
X164407500Y-47684556D01*
X164427053Y-47680877D01*
X164605739Y-47565896D01*
X164725612Y-47390456D01*
X164767785Y-47182200D01*
X164767785Y-46767450D01*
X164907500Y-46767450D01*
X164907500Y-47246847D01*
X164956979Y-47366298D01*
X165048403Y-47457722D01*
X165167854Y-47507200D01*
X165772250Y-47507200D01*
X165853500Y-47425950D01*
X165853500Y-46686200D01*
X166111500Y-46686200D01*
X166111500Y-47425950D01*
X166192750Y-47507200D01*
X166797146Y-47507200D01*
X166916597Y-47457722D01*
X167008021Y-47366298D01*
X167057500Y-47246847D01*
X167057500Y-46767450D01*
X166976250Y-46686200D01*
X166111500Y-46686200D01*
X165853500Y-46686200D01*
X164988750Y-46686200D01*
X164907500Y-46767450D01*
X164767785Y-46767450D01*
X164767785Y-45932200D01*
X164755621Y-45867553D01*
X164907500Y-45867553D01*
X164907500Y-46346950D01*
X164988750Y-46428200D01*
X165853500Y-46428200D01*
X165853500Y-45688450D01*
X166111500Y-45688450D01*
X166111500Y-46428200D01*
X166976250Y-46428200D01*
X167057500Y-46346950D01*
X167057500Y-45867553D01*
X167008021Y-45748102D01*
X166916597Y-45656678D01*
X166797146Y-45607200D01*
X166192750Y-45607200D01*
X166111500Y-45688450D01*
X165853500Y-45688450D01*
X165772250Y-45607200D01*
X165167854Y-45607200D01*
X165048403Y-45656678D01*
X164956979Y-45748102D01*
X164907500Y-45867553D01*
X164755621Y-45867553D01*
X164731177Y-45737647D01*
X164616196Y-45558961D01*
X164440756Y-45439088D01*
X164407500Y-45432353D01*
X164407500Y-44223875D01*
X164444532Y-44134692D01*
X164444868Y-43749001D01*
X164297582Y-43392540D01*
X164025095Y-43119577D01*
X163668892Y-42971668D01*
X163283201Y-42971332D01*
X162926740Y-43118618D01*
X162653777Y-43391105D01*
X162505868Y-43747308D01*
X162505532Y-44132999D01*
X162557500Y-44258772D01*
X162557500Y-45429844D01*
X162537947Y-45433523D01*
X162359261Y-45548504D01*
X162239388Y-45723944D01*
X162197215Y-45932200D01*
X162197215Y-47182200D01*
X162233823Y-47376753D01*
X162348804Y-47555439D01*
X162524244Y-47675312D01*
X162557500Y-47682047D01*
X162557500Y-47919044D01*
X162537947Y-47922723D01*
X162359261Y-48037704D01*
X162239388Y-48213144D01*
X162217466Y-48321400D01*
X162065500Y-48321400D01*
X161955416Y-48343297D01*
X161955668Y-48054301D01*
X161808382Y-47697840D01*
X161535895Y-47424877D01*
X161179692Y-47276968D01*
X160794001Y-47276632D01*
X160437540Y-47423918D01*
X160415000Y-47446419D01*
X160415000Y-38379084D01*
X160359813Y-38101639D01*
X160202652Y-37866432D01*
X154039954Y-31703734D01*
X153804748Y-31546573D01*
X153758717Y-31537417D01*
X153527302Y-31491386D01*
X143371086Y-31491386D01*
X143093640Y-31546573D01*
X142858434Y-31703733D01*
X139305736Y-35256432D01*
X139148575Y-35491638D01*
X139148575Y-35491639D01*
X139093388Y-35769084D01*
X139093388Y-52373388D01*
X139125245Y-52533544D01*
X139148575Y-52650834D01*
X139305736Y-52886040D01*
X144394984Y-57975289D01*
X144330196Y-58301000D01*
X144435897Y-58832394D01*
X144736908Y-59282888D01*
X145187402Y-59583899D01*
X145616998Y-59669351D01*
X145616998Y-59740658D01*
X145433747Y-59694136D01*
X145018630Y-59900930D01*
X144714249Y-60250841D01*
X144599148Y-60528749D01*
X144646190Y-60712000D01*
X145617000Y-60712000D01*
X145617000Y-60692000D01*
X145875000Y-60692000D01*
X145875000Y-60712000D01*
X146845810Y-60712000D01*
X146892852Y-60528749D01*
X146777751Y-60250841D01*
X146473370Y-59900930D01*
X146058253Y-59694136D01*
X145875002Y-59740658D01*
X145875002Y-59669351D01*
X146304598Y-59583899D01*
X146755092Y-59282888D01*
X147016000Y-58892412D01*
X147276908Y-59282888D01*
X147727402Y-59583899D01*
X148071779Y-59652400D01*
X147357754Y-59652400D01*
X147238303Y-59701878D01*
X147146879Y-59793302D01*
X147097400Y-59912753D01*
X147097400Y-60630750D01*
X147178650Y-60712000D01*
X148157000Y-60712000D01*
X148157000Y-60692000D01*
X148415000Y-60692000D01*
X148415000Y-60712000D01*
X149393350Y-60712000D01*
X149474600Y-60630750D01*
X149474600Y-59912753D01*
X149425121Y-59793302D01*
X149333697Y-59701878D01*
X149214246Y-59652400D01*
X148500221Y-59652400D01*
X148844598Y-59583899D01*
X149295092Y-59282888D01*
X149466739Y-59026000D01*
X153712600Y-59026000D01*
X153951189Y-58978542D01*
X153990046Y-58970813D01*
X154225252Y-58813652D01*
X155002653Y-58036252D01*
X155045060Y-57972785D01*
X155325106Y-57972785D01*
X155177448Y-58071447D01*
X153793148Y-59455748D01*
X153635987Y-59690954D01*
X153632103Y-59710479D01*
X153580800Y-59968400D01*
X153580800Y-76404000D01*
X153626831Y-76635415D01*
X153635987Y-76681446D01*
X153793148Y-76916652D01*
X155747984Y-78871489D01*
X155683196Y-79197200D01*
X155788897Y-79728594D01*
X156089908Y-80179088D01*
X156521097Y-80467200D01*
X156089908Y-80755312D01*
X155918261Y-81012200D01*
X152400270Y-81012200D01*
X152315695Y-80927477D01*
X151959492Y-80779568D01*
X151573801Y-80779232D01*
X151217340Y-80926518D01*
X150944377Y-81199005D01*
X150796468Y-81555208D01*
X150796132Y-81940899D01*
X150943418Y-82297360D01*
X151215905Y-82570323D01*
X151572108Y-82718232D01*
X151957799Y-82718568D01*
X152314260Y-82571282D01*
X152423533Y-82462200D01*
X155918261Y-82462200D01*
X156089908Y-82719088D01*
X156540402Y-83020099D01*
X156969998Y-83105551D01*
X156969998Y-83176858D01*
X156786747Y-83130336D01*
X156371630Y-83337130D01*
X156067249Y-83687041D01*
X155952148Y-83964949D01*
X155999190Y-84148200D01*
X156970000Y-84148200D01*
X156970000Y-84128200D01*
X157228000Y-84128200D01*
X157228000Y-84148200D01*
X158198810Y-84148200D01*
X158245852Y-83964949D01*
X158130751Y-83687041D01*
X157826370Y-83337130D01*
X157411253Y-83130336D01*
X157228002Y-83176858D01*
X157228002Y-83105551D01*
X157657598Y-83020099D01*
X158108092Y-82719088D01*
X158369000Y-82328612D01*
X158629908Y-82719088D01*
X159080402Y-83020099D01*
X159509998Y-83105551D01*
X159509998Y-83176858D01*
X159326747Y-83130336D01*
X158911630Y-83337130D01*
X158607249Y-83687041D01*
X158492148Y-83964949D01*
X158539190Y-84148200D01*
X159510000Y-84148200D01*
X159510000Y-84128200D01*
X159768000Y-84128200D01*
X159768000Y-84148200D01*
X160738810Y-84148200D01*
X160785852Y-83964949D01*
X160670751Y-83687041D01*
X160366370Y-83337130D01*
X159951253Y-83130336D01*
X159768002Y-83176858D01*
X159768002Y-83105551D01*
X160197598Y-83020099D01*
X160353215Y-82916119D01*
X166801500Y-89364405D01*
X166801500Y-102835396D01*
X166159396Y-103477500D01*
X162670605Y-103477500D01*
X162365000Y-103171896D01*
X162365000Y-101205050D01*
X162525200Y-101205050D01*
X162525200Y-101809446D01*
X162574678Y-101928897D01*
X162666102Y-102020321D01*
X162785553Y-102069800D01*
X163264950Y-102069800D01*
X163346200Y-101988550D01*
X163346200Y-101123800D01*
X163604200Y-101123800D01*
X163604200Y-101988550D01*
X163685450Y-102069800D01*
X164164847Y-102069800D01*
X164284298Y-102020321D01*
X164375722Y-101928897D01*
X164425200Y-101809446D01*
X164425200Y-101205050D01*
X164684200Y-101205050D01*
X164684200Y-101809446D01*
X164733678Y-101928897D01*
X164825102Y-102020321D01*
X164944553Y-102069800D01*
X165423950Y-102069800D01*
X165505200Y-101988550D01*
X165505200Y-101123800D01*
X165763200Y-101123800D01*
X165763200Y-101988550D01*
X165844450Y-102069800D01*
X166323847Y-102069800D01*
X166443298Y-102020321D01*
X166534722Y-101928897D01*
X166584200Y-101809446D01*
X166584200Y-101205050D01*
X166502950Y-101123800D01*
X165763200Y-101123800D01*
X165505200Y-101123800D01*
X164765450Y-101123800D01*
X164684200Y-101205050D01*
X164425200Y-101205050D01*
X164343950Y-101123800D01*
X163604200Y-101123800D01*
X163346200Y-101123800D01*
X162606450Y-101123800D01*
X162525200Y-101205050D01*
X162365000Y-101205050D01*
X162365000Y-100619789D01*
X162375285Y-100569000D01*
X162375285Y-100180154D01*
X162525200Y-100180154D01*
X162525200Y-100784550D01*
X162606450Y-100865800D01*
X163346200Y-100865800D01*
X163346200Y-100001050D01*
X163604200Y-100001050D01*
X163604200Y-100865800D01*
X164343950Y-100865800D01*
X164425200Y-100784550D01*
X164425200Y-100180154D01*
X164684200Y-100180154D01*
X164684200Y-100784550D01*
X164765450Y-100865800D01*
X165505200Y-100865800D01*
X165505200Y-100001050D01*
X165763200Y-100001050D01*
X165763200Y-100865800D01*
X166502950Y-100865800D01*
X166584200Y-100784550D01*
X166584200Y-100180154D01*
X166534722Y-100060703D01*
X166443298Y-99969279D01*
X166323847Y-99919800D01*
X165844450Y-99919800D01*
X165763200Y-100001050D01*
X165505200Y-100001050D01*
X165423950Y-99919800D01*
X164944553Y-99919800D01*
X164825102Y-99969279D01*
X164733678Y-100060703D01*
X164684200Y-100180154D01*
X164425200Y-100180154D01*
X164375722Y-100060703D01*
X164284298Y-99969279D01*
X164164847Y-99919800D01*
X163685450Y-99919800D01*
X163604200Y-100001050D01*
X163346200Y-100001050D01*
X163264950Y-99919800D01*
X162785553Y-99919800D01*
X162666102Y-99969279D01*
X162574678Y-100060703D01*
X162525200Y-100180154D01*
X162375285Y-100180154D01*
X162375285Y-99476280D01*
X162466504Y-99618039D01*
X162641944Y-99737912D01*
X162850200Y-99780085D01*
X164100200Y-99780085D01*
X164294753Y-99743477D01*
X164473439Y-99628496D01*
X164555217Y-99508810D01*
X164625504Y-99618039D01*
X164800944Y-99737912D01*
X165009200Y-99780085D01*
X166259200Y-99780085D01*
X166453753Y-99743477D01*
X166632439Y-99628496D01*
X166752312Y-99453056D01*
X166794485Y-99244800D01*
X166794485Y-97744800D01*
X166757877Y-97550247D01*
X166642896Y-97371561D01*
X166571900Y-97323052D01*
X166571900Y-96451155D01*
X166616232Y-96344392D01*
X166616568Y-95958701D01*
X166469282Y-95602240D01*
X166196795Y-95329277D01*
X165840592Y-95181368D01*
X165454901Y-95181032D01*
X165098440Y-95328318D01*
X164825477Y-95600805D01*
X164677568Y-95957008D01*
X164677232Y-96342699D01*
X164721900Y-96450804D01*
X164721900Y-97305804D01*
X164635961Y-97361104D01*
X164554183Y-97480790D01*
X164483896Y-97371561D01*
X164308456Y-97251688D01*
X164100200Y-97209515D01*
X162850200Y-97209515D01*
X162655647Y-97246123D01*
X162476961Y-97361104D01*
X162357088Y-97536544D01*
X162314915Y-97744800D01*
X162314915Y-97769800D01*
X162120706Y-97769800D01*
X162120768Y-97698601D01*
X161973482Y-97342140D01*
X161700995Y-97069177D01*
X161344792Y-96921268D01*
X160959101Y-96920932D01*
X160602640Y-97068218D01*
X160394927Y-97275569D01*
X160364000Y-97244588D01*
X160364000Y-93296085D01*
X160502600Y-93296085D01*
X160697153Y-93259477D01*
X160875839Y-93144496D01*
X160995712Y-92969056D01*
X161037885Y-92760800D01*
X161037885Y-91033600D01*
X161001277Y-90839047D01*
X160886296Y-90660361D01*
X160710856Y-90540488D01*
X160502600Y-90498315D01*
X160409792Y-90498315D01*
X160648092Y-90339088D01*
X160949103Y-89888594D01*
X161054804Y-89357200D01*
X160949103Y-88825806D01*
X160648092Y-88375312D01*
X160216903Y-88087200D01*
X160648092Y-87799088D01*
X160949103Y-87348594D01*
X161054804Y-86817200D01*
X160949103Y-86285806D01*
X160648092Y-85835312D01*
X160197598Y-85534301D01*
X159768002Y-85448849D01*
X159768002Y-85377542D01*
X159951253Y-85424064D01*
X160366370Y-85217270D01*
X160670751Y-84867359D01*
X160785852Y-84589451D01*
X160738810Y-84406200D01*
X159768000Y-84406200D01*
X159768000Y-84426200D01*
X159510000Y-84426200D01*
X159510000Y-84406200D01*
X158539190Y-84406200D01*
X158492148Y-84589451D01*
X158607249Y-84867359D01*
X158911630Y-85217270D01*
X159326747Y-85424064D01*
X159509998Y-85377542D01*
X159509998Y-85448849D01*
X159080402Y-85534301D01*
X158629908Y-85835312D01*
X158369000Y-86225788D01*
X158108092Y-85835312D01*
X157657598Y-85534301D01*
X157228002Y-85448849D01*
X157228002Y-85377542D01*
X157411253Y-85424064D01*
X157826370Y-85217270D01*
X158130751Y-84867359D01*
X158245852Y-84589451D01*
X158198810Y-84406200D01*
X157228000Y-84406200D01*
X157228000Y-84426200D01*
X156970000Y-84426200D01*
X156970000Y-84406200D01*
X155999190Y-84406200D01*
X155952148Y-84589451D01*
X156067249Y-84867359D01*
X156371630Y-85217270D01*
X156786747Y-85424064D01*
X156969998Y-85377542D01*
X156969998Y-85448849D01*
X156540402Y-85534301D01*
X156089908Y-85835312D01*
X155788897Y-86285806D01*
X155683196Y-86817200D01*
X155788897Y-87348594D01*
X156089908Y-87799088D01*
X156521097Y-88087200D01*
X156089908Y-88375312D01*
X155788897Y-88825806D01*
X155683196Y-89357200D01*
X155747984Y-89682912D01*
X155088548Y-90342348D01*
X154931387Y-90577554D01*
X154931387Y-90577555D01*
X154876200Y-90855000D01*
X154876200Y-97244450D01*
X154779777Y-97340705D01*
X154716851Y-97492247D01*
X153532200Y-96307596D01*
X153532200Y-91388200D01*
X153477013Y-91110755D01*
X153346422Y-90915312D01*
X153319852Y-90875547D01*
X149637016Y-87192712D01*
X149701804Y-86867000D01*
X149596103Y-86335606D01*
X149295092Y-85885112D01*
X148863903Y-85597000D01*
X149295092Y-85308888D01*
X149596103Y-84858394D01*
X149701804Y-84327000D01*
X149596103Y-83795606D01*
X149295092Y-83345112D01*
X148844598Y-83044101D01*
X148313204Y-82938400D01*
X148258796Y-82938400D01*
X147727402Y-83044101D01*
X147276908Y-83345112D01*
X147016000Y-83735588D01*
X146755092Y-83345112D01*
X146304598Y-83044101D01*
X145773204Y-82938400D01*
X145718796Y-82938400D01*
X145187402Y-83044101D01*
X144736908Y-83345112D01*
X144435897Y-83795606D01*
X144330196Y-84327000D01*
X144435897Y-84858394D01*
X144736908Y-85308888D01*
X145168097Y-85597000D01*
X144736908Y-85885112D01*
X144435897Y-86335606D01*
X144330196Y-86867000D01*
X144394984Y-87192711D01*
X138299148Y-93288548D01*
X138141987Y-93523754D01*
X138141987Y-93523755D01*
X138086800Y-93801200D01*
X136961000Y-93801200D01*
X136961000Y-75572400D01*
X143952814Y-75572400D01*
X143952814Y-79213200D01*
X150155386Y-79213200D01*
X150155386Y-75572400D01*
X143952814Y-75572400D01*
X136961000Y-75572400D01*
X136961000Y-66098200D01*
X143843957Y-66098200D01*
X143843957Y-69739000D01*
X150264243Y-69739000D01*
X150264243Y-66098200D01*
X143843957Y-66098200D01*
X136961000Y-66098200D01*
X136961000Y-61153251D01*
X144599148Y-61153251D01*
X144714249Y-61431159D01*
X145018630Y-61781070D01*
X145433747Y-61987864D01*
X145617000Y-61941341D01*
X145617000Y-60970000D01*
X145875000Y-60970000D01*
X145875000Y-61941341D01*
X146058253Y-61987864D01*
X146473370Y-61781070D01*
X146777751Y-61431159D01*
X146892852Y-61153251D01*
X146866668Y-61051250D01*
X147097400Y-61051250D01*
X147097400Y-61769247D01*
X147146879Y-61888698D01*
X147238303Y-61980122D01*
X147357754Y-62029600D01*
X148075750Y-62029600D01*
X148157000Y-61948350D01*
X148157000Y-60970000D01*
X148415000Y-60970000D01*
X148415000Y-61948350D01*
X148496250Y-62029600D01*
X149214246Y-62029600D01*
X149333697Y-61980122D01*
X149425121Y-61888698D01*
X149474600Y-61769247D01*
X149474600Y-61051250D01*
X149393350Y-60970000D01*
X148415000Y-60970000D01*
X148157000Y-60970000D01*
X147178650Y-60970000D01*
X147097400Y-61051250D01*
X146866668Y-61051250D01*
X146845810Y-60970000D01*
X145875000Y-60970000D01*
X145617000Y-60970000D01*
X144646190Y-60970000D01*
X144599148Y-61153251D01*
X136961000Y-61153251D01*
X136961000Y-37670000D01*
X136913425Y-37430823D01*
X136777942Y-37228058D01*
X136575177Y-37092575D01*
X136336000Y-37045000D01*
X59000000Y-37045000D01*
X58760823Y-37092575D01*
X58558058Y-37228058D01*
X58422575Y-37430823D01*
X58375000Y-37670000D01*
X58375000Y-58509000D01*
X45221000Y-58509000D01*
X45221000Y-54752003D01*
X45358826Y-54958274D01*
X46424626Y-56024074D01*
X46724718Y-56224589D01*
X47078700Y-56295000D01*
X47157511Y-56295000D01*
X47195522Y-56351888D01*
X47646016Y-56652899D01*
X48177410Y-56758600D01*
X48542590Y-56758600D01*
X49073984Y-56652899D01*
X49435000Y-56411675D01*
X49435000Y-57265000D01*
X57199285Y-57265000D01*
X57199285Y-48565000D01*
X49435000Y-48565000D01*
X49435000Y-48903063D01*
X49376000Y-48891115D01*
X47344000Y-48891115D01*
X47149447Y-48927723D01*
X46970761Y-49042704D01*
X46937900Y-49090798D01*
X46937900Y-40107748D01*
X52593648Y-34452000D01*
X133545645Y-34452000D01*
X133652408Y-34496332D01*
X134038099Y-34496668D01*
X134394560Y-34349382D01*
X134667523Y-34076895D01*
X134815432Y-33720692D01*
X134815768Y-33335001D01*
X134668482Y-32978540D01*
X134395995Y-32705577D01*
X134039792Y-32557668D01*
X133654101Y-32557332D01*
X133545996Y-32602000D01*
X52210500Y-32602000D01*
X51856517Y-32672411D01*
X51556426Y-32872926D01*
X45358826Y-39070526D01*
X45221000Y-39276797D01*
X45221000Y-37670000D01*
X45173425Y-37430823D01*
X45037942Y-37228058D01*
X44835177Y-37092575D01*
X44596000Y-37045000D01*
X34221000Y-37045000D01*
X34221000Y-29295000D01*
X37477973Y-29295000D01*
X37243285Y-29391971D01*
X37243285Y-29391971D01*
G37*
X37243285Y-29391971D02*
X36321209Y-30312439D01*
X35821570Y-31515704D01*
X35820433Y-32818580D01*
X36317971Y-34022715D01*
X37238439Y-34944791D01*
X38441704Y-35444430D01*
X39744580Y-35445567D01*
X40948715Y-34948029D01*
X41870791Y-34027561D01*
X42370430Y-32824296D01*
X42371567Y-31521420D01*
X41874029Y-30317285D01*
X40953561Y-29395209D01*
X40712231Y-29295000D01*
X166156577Y-29295000D01*
X165094185Y-29733971D01*
X164172109Y-30654439D01*
X163672470Y-31857704D01*
X163671333Y-33160580D01*
X164168871Y-34364715D01*
X165089339Y-35286791D01*
X166292604Y-35786430D01*
X167595480Y-35787567D01*
X168799615Y-35290029D01*
X169721691Y-34369561D01*
X170221330Y-33166296D01*
X170221849Y-32571030D01*
X175740649Y-32571030D01*
X176048288Y-33315572D01*
X176617432Y-33885710D01*
X177361435Y-34194648D01*
X178167030Y-34195351D01*
X178911572Y-33887712D01*
X179481710Y-33318568D01*
X179790648Y-32574565D01*
X179791351Y-31768970D01*
X179483712Y-31024428D01*
X178914568Y-30454290D01*
X178170565Y-30145352D01*
X177364970Y-30144649D01*
X176620428Y-30452288D01*
X176050290Y-31021432D01*
X175741352Y-31765435D01*
X175740649Y-32571030D01*
X170221849Y-32571030D01*
X170222467Y-31863420D01*
X169724929Y-30659285D01*
X168804461Y-29737209D01*
X167739503Y-29295000D01*
X180711000Y-29295000D01*
X180711000Y-124045000D01*
X155107160Y-124045000D01*
X155096000Y-124042900D01*
X136961000Y-124042900D01*
X136961000Y-93801200D01*
X138086800Y-93801200D01*
X138086800Y-117066316D01*
X138126006Y-117263417D01*
X138141987Y-117343762D01*
X138299148Y-117578968D01*
X142455846Y-121735667D01*
X142691052Y-121892827D01*
X142968498Y-121948014D01*
X155305302Y-121948014D01*
X155536717Y-121901983D01*
X155582748Y-121892827D01*
X155817954Y-121735666D01*
X156126550Y-121427070D01*
X163921376Y-121427070D01*
X164380935Y-122539286D01*
X165231138Y-123390975D01*
X166342551Y-123852474D01*
X167545970Y-123853524D01*
X168658186Y-123393965D01*
X169509875Y-122543762D01*
X169913788Y-121571030D01*
X175740649Y-121571030D01*
X176048288Y-122315572D01*
X176617432Y-122885710D01*
X177361435Y-123194648D01*
X178167030Y-123195351D01*
X178911572Y-122887712D01*
X179481710Y-122318568D01*
X179790648Y-121574565D01*
X179791351Y-120768970D01*
X179483712Y-120024428D01*
X178914568Y-119454290D01*
X178170565Y-119145352D01*
X177364970Y-119144649D01*
X176620428Y-119452288D01*
X176050290Y-120021432D01*
X175741352Y-120765435D01*
X175740649Y-121571030D01*
X169913788Y-121571030D01*
X169971374Y-121432349D01*
X169972424Y-120228930D01*
X169512865Y-119116714D01*
X168662662Y-118265025D01*
X167551249Y-117803526D01*
X166347830Y-117802476D01*
X165235614Y-118262035D01*
X164383925Y-119112238D01*
X163922426Y-120223651D01*
X163921376Y-121427070D01*
X156126550Y-121427070D01*
X159552653Y-118000968D01*
X159709813Y-117765762D01*
X159765000Y-117488316D01*
X159765000Y-113696450D01*
X168014300Y-113696450D01*
X168014300Y-114668447D01*
X168063779Y-114787898D01*
X168155203Y-114879322D01*
X168274654Y-114928800D01*
X169246650Y-114928800D01*
X169327900Y-114847550D01*
X169327900Y-113615200D01*
X169585900Y-113615200D01*
X169585900Y-114847550D01*
X169667150Y-114928800D01*
X170639146Y-114928800D01*
X170758597Y-114879322D01*
X170850021Y-114787898D01*
X170899500Y-114668447D01*
X170899500Y-113696450D01*
X170818250Y-113615200D01*
X169585900Y-113615200D01*
X169327900Y-113615200D01*
X168095550Y-113615200D01*
X168014300Y-113696450D01*
X159765000Y-113696450D01*
X159765000Y-112303953D01*
X168014300Y-112303953D01*
X168014300Y-113275950D01*
X168095550Y-113357200D01*
X169327900Y-113357200D01*
X169327900Y-112124850D01*
X169585900Y-112124850D01*
X169585900Y-113357200D01*
X170818250Y-113357200D01*
X170899500Y-113275950D01*
X170899500Y-112303953D01*
X170850021Y-112184502D01*
X170758597Y-112093078D01*
X170639146Y-112043600D01*
X169667150Y-112043600D01*
X169585900Y-112124850D01*
X169327900Y-112124850D01*
X169246650Y-112043600D01*
X168274654Y-112043600D01*
X168155203Y-112093078D01*
X168063779Y-112184502D01*
X168014300Y-112303953D01*
X159765000Y-112303953D01*
X159765000Y-111716600D01*
X171308615Y-111716600D01*
X171308615Y-115357400D01*
X177003186Y-115357400D01*
X177003186Y-111716600D01*
X171308615Y-111716600D01*
X159765000Y-111716600D01*
X159765000Y-108676592D01*
X160564963Y-109476556D01*
X160722124Y-109581567D01*
X160800171Y-109633717D01*
X161077616Y-109688904D01*
X165834684Y-109688904D01*
X166066099Y-109642873D01*
X166112130Y-109633717D01*
X166347336Y-109476556D01*
X170279059Y-105544834D01*
X170436219Y-105309628D01*
X170491406Y-105032182D01*
X170491406Y-84014206D01*
X170436219Y-83736761D01*
X170279058Y-83501554D01*
X169503728Y-82726224D01*
X170704000Y-82726224D01*
X170704000Y-105257175D01*
X180354000Y-105257175D01*
X180354000Y-82726224D01*
X170704000Y-82726224D01*
X169503728Y-82726224D01*
X161651052Y-74873548D01*
X161415846Y-74716387D01*
X161369815Y-74707231D01*
X161138400Y-74661200D01*
X160940680Y-74661200D01*
X160949103Y-74648594D01*
X161054804Y-74117200D01*
X160949103Y-73585806D01*
X160648092Y-73135312D01*
X160216903Y-72847200D01*
X160648092Y-72559088D01*
X160949103Y-72108594D01*
X161054804Y-71577200D01*
X160949103Y-71045806D01*
X160648092Y-70595312D01*
X160216903Y-70307200D01*
X160648092Y-70019088D01*
X160949103Y-69568594D01*
X161054804Y-69037200D01*
X160990016Y-68711488D01*
X163378252Y-66323253D01*
X163500474Y-66140334D01*
X163535413Y-66088045D01*
X163590600Y-65810600D01*
X163590600Y-65725839D01*
X164244292Y-65725839D01*
X164244314Y-65725950D01*
X164244292Y-65726062D01*
X164244418Y-66283176D01*
X164244443Y-66283300D01*
X164244418Y-66283425D01*
X164244778Y-66800426D01*
X164244807Y-66800571D01*
X164244778Y-66800717D01*
X164245367Y-67273379D01*
X164245403Y-67273557D01*
X164245368Y-67273733D01*
X164246179Y-67697827D01*
X164246224Y-67698053D01*
X164246180Y-67698280D01*
X164247208Y-68069582D01*
X164247271Y-68069893D01*
X164247210Y-68070204D01*
X164248449Y-68384485D01*
X164248544Y-68384954D01*
X164248454Y-68385421D01*
X164249898Y-68638454D01*
X164250063Y-68639261D01*
X164249909Y-68640073D01*
X164251552Y-68827633D01*
X164251927Y-68829435D01*
X164251596Y-68831246D01*
X164253432Y-68949106D01*
X164255159Y-68957130D01*
X164253930Y-68965242D01*
X164255954Y-69009176D01*
X164256000Y-69009362D01*
X164256000Y-74900300D01*
X164264549Y-74945732D01*
X164291399Y-74987459D01*
X164332368Y-75015452D01*
X164381000Y-75025300D01*
X180031000Y-75025300D01*
X180076432Y-75016751D01*
X180118159Y-74989901D01*
X180146152Y-74948932D01*
X180156000Y-74900300D01*
X180156000Y-69064652D01*
X180166077Y-69013992D01*
X180166077Y-56704761D01*
X180125733Y-56501939D01*
X180010844Y-56329994D01*
X179838899Y-56215105D01*
X179636077Y-56174761D01*
X164786846Y-56174761D01*
X164685691Y-56194882D01*
X164584828Y-56214773D01*
X164584459Y-56215018D01*
X164584024Y-56215105D01*
X164498169Y-56272471D01*
X164412695Y-56329380D01*
X164412449Y-56329747D01*
X164412079Y-56329994D01*
X164354658Y-56415931D01*
X164297524Y-56501136D01*
X164297437Y-56501569D01*
X164297190Y-56501939D01*
X164277055Y-56603163D01*
X164256847Y-56703891D01*
X164256827Y-56716217D01*
X164256000Y-56720300D01*
X164256000Y-57219921D01*
X164246811Y-62819430D01*
X164246816Y-62819455D01*
X164246811Y-62819479D01*
X164246252Y-63180062D01*
X164246265Y-63180129D01*
X164246251Y-63180200D01*
X164245380Y-63855501D01*
X164245398Y-63855595D01*
X164245380Y-63855687D01*
X164244767Y-64507781D01*
X164244786Y-64507878D01*
X164244767Y-64507974D01*
X164244407Y-65132635D01*
X164244427Y-65132736D01*
X164244407Y-65132837D01*
X164244292Y-65725839D01*
X163590600Y-65725839D01*
X163590600Y-54774100D01*
X163535413Y-54496655D01*
X163425157Y-54331646D01*
X163378252Y-54261447D01*
X162365000Y-53248196D01*
X162365000Y-52812650D01*
X168827100Y-52812650D01*
X168827100Y-53784647D01*
X168876579Y-53904098D01*
X168968003Y-53995522D01*
X169087454Y-54045000D01*
X170059450Y-54045000D01*
X170140700Y-53963750D01*
X170140700Y-52731400D01*
X170398700Y-52731400D01*
X170398700Y-53963750D01*
X170479950Y-54045000D01*
X171451946Y-54045000D01*
X171571397Y-53995522D01*
X171662821Y-53904098D01*
X171712300Y-53784647D01*
X171712300Y-52812650D01*
X171631050Y-52731400D01*
X170398700Y-52731400D01*
X170140700Y-52731400D01*
X168908350Y-52731400D01*
X168827100Y-52812650D01*
X162365000Y-52812650D01*
X162365000Y-51788289D01*
X162375285Y-51737500D01*
X162375285Y-51420153D01*
X168827100Y-51420153D01*
X168827100Y-52392150D01*
X168908350Y-52473400D01*
X170140700Y-52473400D01*
X170140700Y-51241050D01*
X170398700Y-51241050D01*
X170398700Y-52473400D01*
X171631050Y-52473400D01*
X171712300Y-52392150D01*
X171712300Y-51420153D01*
X171662821Y-51300702D01*
X171571397Y-51209278D01*
X171451946Y-51159800D01*
X170479950Y-51159800D01*
X170398700Y-51241050D01*
X170140700Y-51241050D01*
X170059450Y-51159800D01*
X169087454Y-51159800D01*
X168968003Y-51209278D01*
X168876579Y-51300702D01*
X168827100Y-51420153D01*
X162375285Y-51420153D01*
X162375285Y-50782000D01*
X172108715Y-50782000D01*
X172108715Y-54422800D01*
X177803286Y-54422800D01*
X177803286Y-50782000D01*
X172108715Y-50782000D01*
X162375285Y-50782000D01*
X162375285Y-50637500D01*
X162338677Y-50442947D01*
X162223696Y-50264261D01*
X162048256Y-50144388D01*
X162002153Y-50135052D01*
X162248478Y-49888727D01*
X162348804Y-50044639D01*
X162524244Y-50164512D01*
X162732500Y-50206685D01*
X164232500Y-50206685D01*
X164427053Y-50170077D01*
X164605739Y-50055096D01*
X164725612Y-49879656D01*
X164767785Y-49671400D01*
X164767785Y-49256650D01*
X164907500Y-49256650D01*
X164907500Y-49736047D01*
X164956979Y-49855498D01*
X165048403Y-49946922D01*
X165167854Y-49996400D01*
X165772250Y-49996400D01*
X165853500Y-49915150D01*
X165853500Y-49175400D01*
X166111500Y-49175400D01*
X166111500Y-49915150D01*
X166192750Y-49996400D01*
X166797146Y-49996400D01*
X166916597Y-49946922D01*
X167008021Y-49855498D01*
X167057500Y-49736047D01*
X167057500Y-49256650D01*
X166976250Y-49175400D01*
X166111500Y-49175400D01*
X165853500Y-49175400D01*
X164988750Y-49175400D01*
X164907500Y-49256650D01*
X164767785Y-49256650D01*
X164767785Y-48421400D01*
X164755621Y-48356753D01*
X164907500Y-48356753D01*
X164907500Y-48836150D01*
X164988750Y-48917400D01*
X165853500Y-48917400D01*
X165853500Y-48177650D01*
X166111500Y-48177650D01*
X166111500Y-48917400D01*
X166976250Y-48917400D01*
X167057500Y-48836150D01*
X167057500Y-48356753D01*
X167008021Y-48237302D01*
X166916597Y-48145878D01*
X166797146Y-48096400D01*
X166192750Y-48096400D01*
X166111500Y-48177650D01*
X165853500Y-48177650D01*
X165772250Y-48096400D01*
X165167854Y-48096400D01*
X165048403Y-48145878D01*
X164956979Y-48237302D01*
X164907500Y-48356753D01*
X164755621Y-48356753D01*
X164731177Y-48226847D01*
X164616196Y-48048161D01*
X164440756Y-47928288D01*
X164407500Y-47921553D01*
X164407500Y-47684556D01*
X164427053Y-47680877D01*
X164605739Y-47565896D01*
X164725612Y-47390456D01*
X164767785Y-47182200D01*
X164767785Y-46767450D01*
X164907500Y-46767450D01*
X164907500Y-47246847D01*
X164956979Y-47366298D01*
X165048403Y-47457722D01*
X165167854Y-47507200D01*
X165772250Y-47507200D01*
X165853500Y-47425950D01*
X165853500Y-46686200D01*
X166111500Y-46686200D01*
X166111500Y-47425950D01*
X166192750Y-47507200D01*
X166797146Y-47507200D01*
X166916597Y-47457722D01*
X167008021Y-47366298D01*
X167057500Y-47246847D01*
X167057500Y-46767450D01*
X166976250Y-46686200D01*
X166111500Y-46686200D01*
X165853500Y-46686200D01*
X164988750Y-46686200D01*
X164907500Y-46767450D01*
X164767785Y-46767450D01*
X164767785Y-45932200D01*
X164755621Y-45867553D01*
X164907500Y-45867553D01*
X164907500Y-46346950D01*
X164988750Y-46428200D01*
X165853500Y-46428200D01*
X165853500Y-45688450D01*
X166111500Y-45688450D01*
X166111500Y-46428200D01*
X166976250Y-46428200D01*
X167057500Y-46346950D01*
X167057500Y-45867553D01*
X167008021Y-45748102D01*
X166916597Y-45656678D01*
X166797146Y-45607200D01*
X166192750Y-45607200D01*
X166111500Y-45688450D01*
X165853500Y-45688450D01*
X165772250Y-45607200D01*
X165167854Y-45607200D01*
X165048403Y-45656678D01*
X164956979Y-45748102D01*
X164907500Y-45867553D01*
X164755621Y-45867553D01*
X164731177Y-45737647D01*
X164616196Y-45558961D01*
X164440756Y-45439088D01*
X164407500Y-45432353D01*
X164407500Y-44223875D01*
X164444532Y-44134692D01*
X164444868Y-43749001D01*
X164297582Y-43392540D01*
X164025095Y-43119577D01*
X163668892Y-42971668D01*
X163283201Y-42971332D01*
X162926740Y-43118618D01*
X162653777Y-43391105D01*
X162505868Y-43747308D01*
X162505532Y-44132999D01*
X162557500Y-44258772D01*
X162557500Y-45429844D01*
X162537947Y-45433523D01*
X162359261Y-45548504D01*
X162239388Y-45723944D01*
X162197215Y-45932200D01*
X162197215Y-47182200D01*
X162233823Y-47376753D01*
X162348804Y-47555439D01*
X162524244Y-47675312D01*
X162557500Y-47682047D01*
X162557500Y-47919044D01*
X162537947Y-47922723D01*
X162359261Y-48037704D01*
X162239388Y-48213144D01*
X162217466Y-48321400D01*
X162065500Y-48321400D01*
X161955416Y-48343297D01*
X161955668Y-48054301D01*
X161808382Y-47697840D01*
X161535895Y-47424877D01*
X161179692Y-47276968D01*
X160794001Y-47276632D01*
X160437540Y-47423918D01*
X160415000Y-47446419D01*
X160415000Y-38379084D01*
X160359813Y-38101639D01*
X160202652Y-37866432D01*
X154039954Y-31703734D01*
X153804748Y-31546573D01*
X153758717Y-31537417D01*
X153527302Y-31491386D01*
X143371086Y-31491386D01*
X143093640Y-31546573D01*
X142858434Y-31703733D01*
X139305736Y-35256432D01*
X139148575Y-35491638D01*
X139148575Y-35491639D01*
X139093388Y-35769084D01*
X139093388Y-52373388D01*
X139125245Y-52533544D01*
X139148575Y-52650834D01*
X139305736Y-52886040D01*
X144394984Y-57975289D01*
X144330196Y-58301000D01*
X144435897Y-58832394D01*
X144736908Y-59282888D01*
X145187402Y-59583899D01*
X145616998Y-59669351D01*
X145616998Y-59740658D01*
X145433747Y-59694136D01*
X145018630Y-59900930D01*
X144714249Y-60250841D01*
X144599148Y-60528749D01*
X144646190Y-60712000D01*
X145617000Y-60712000D01*
X145617000Y-60692000D01*
X145875000Y-60692000D01*
X145875000Y-60712000D01*
X146845810Y-60712000D01*
X146892852Y-60528749D01*
X146777751Y-60250841D01*
X146473370Y-59900930D01*
X146058253Y-59694136D01*
X145875002Y-59740658D01*
X145875002Y-59669351D01*
X146304598Y-59583899D01*
X146755092Y-59282888D01*
X147016000Y-58892412D01*
X147276908Y-59282888D01*
X147727402Y-59583899D01*
X148071779Y-59652400D01*
X147357754Y-59652400D01*
X147238303Y-59701878D01*
X147146879Y-59793302D01*
X147097400Y-59912753D01*
X147097400Y-60630750D01*
X147178650Y-60712000D01*
X148157000Y-60712000D01*
X148157000Y-60692000D01*
X148415000Y-60692000D01*
X148415000Y-60712000D01*
X149393350Y-60712000D01*
X149474600Y-60630750D01*
X149474600Y-59912753D01*
X149425121Y-59793302D01*
X149333697Y-59701878D01*
X149214246Y-59652400D01*
X148500221Y-59652400D01*
X148844598Y-59583899D01*
X149295092Y-59282888D01*
X149466739Y-59026000D01*
X153712600Y-59026000D01*
X153951189Y-58978542D01*
X153990046Y-58970813D01*
X154225252Y-58813652D01*
X155002653Y-58036252D01*
X155045060Y-57972785D01*
X155325106Y-57972785D01*
X155177448Y-58071447D01*
X153793148Y-59455748D01*
X153635987Y-59690954D01*
X153632103Y-59710479D01*
X153580800Y-59968400D01*
X153580800Y-76404000D01*
X153626831Y-76635415D01*
X153635987Y-76681446D01*
X153793148Y-76916652D01*
X155747984Y-78871489D01*
X155683196Y-79197200D01*
X155788897Y-79728594D01*
X156089908Y-80179088D01*
X156521097Y-80467200D01*
X156089908Y-80755312D01*
X155918261Y-81012200D01*
X152400270Y-81012200D01*
X152315695Y-80927477D01*
X151959492Y-80779568D01*
X151573801Y-80779232D01*
X151217340Y-80926518D01*
X150944377Y-81199005D01*
X150796468Y-81555208D01*
X150796132Y-81940899D01*
X150943418Y-82297360D01*
X151215905Y-82570323D01*
X151572108Y-82718232D01*
X151957799Y-82718568D01*
X152314260Y-82571282D01*
X152423533Y-82462200D01*
X155918261Y-82462200D01*
X156089908Y-82719088D01*
X156540402Y-83020099D01*
X156969998Y-83105551D01*
X156969998Y-83176858D01*
X156786747Y-83130336D01*
X156371630Y-83337130D01*
X156067249Y-83687041D01*
X155952148Y-83964949D01*
X155999190Y-84148200D01*
X156970000Y-84148200D01*
X156970000Y-84128200D01*
X157228000Y-84128200D01*
X157228000Y-84148200D01*
X158198810Y-84148200D01*
X158245852Y-83964949D01*
X158130751Y-83687041D01*
X157826370Y-83337130D01*
X157411253Y-83130336D01*
X157228002Y-83176858D01*
X157228002Y-83105551D01*
X157657598Y-83020099D01*
X158108092Y-82719088D01*
X158369000Y-82328612D01*
X158629908Y-82719088D01*
X159080402Y-83020099D01*
X159509998Y-83105551D01*
X159509998Y-83176858D01*
X159326747Y-83130336D01*
X158911630Y-83337130D01*
X158607249Y-83687041D01*
X158492148Y-83964949D01*
X158539190Y-84148200D01*
X159510000Y-84148200D01*
X159510000Y-84128200D01*
X159768000Y-84128200D01*
X159768000Y-84148200D01*
X160738810Y-84148200D01*
X160785852Y-83964949D01*
X160670751Y-83687041D01*
X160366370Y-83337130D01*
X159951253Y-83130336D01*
X159768002Y-83176858D01*
X159768002Y-83105551D01*
X160197598Y-83020099D01*
X160353215Y-82916119D01*
X166801500Y-89364405D01*
X166801500Y-102835396D01*
X166159396Y-103477500D01*
X162670605Y-103477500D01*
X162365000Y-103171896D01*
X162365000Y-101205050D01*
X162525200Y-101205050D01*
X162525200Y-101809446D01*
X162574678Y-101928897D01*
X162666102Y-102020321D01*
X162785553Y-102069800D01*
X163264950Y-102069800D01*
X163346200Y-101988550D01*
X163346200Y-101123800D01*
X163604200Y-101123800D01*
X163604200Y-101988550D01*
X163685450Y-102069800D01*
X164164847Y-102069800D01*
X164284298Y-102020321D01*
X164375722Y-101928897D01*
X164425200Y-101809446D01*
X164425200Y-101205050D01*
X164684200Y-101205050D01*
X164684200Y-101809446D01*
X164733678Y-101928897D01*
X164825102Y-102020321D01*
X164944553Y-102069800D01*
X165423950Y-102069800D01*
X165505200Y-101988550D01*
X165505200Y-101123800D01*
X165763200Y-101123800D01*
X165763200Y-101988550D01*
X165844450Y-102069800D01*
X166323847Y-102069800D01*
X166443298Y-102020321D01*
X166534722Y-101928897D01*
X166584200Y-101809446D01*
X166584200Y-101205050D01*
X166502950Y-101123800D01*
X165763200Y-101123800D01*
X165505200Y-101123800D01*
X164765450Y-101123800D01*
X164684200Y-101205050D01*
X164425200Y-101205050D01*
X164343950Y-101123800D01*
X163604200Y-101123800D01*
X163346200Y-101123800D01*
X162606450Y-101123800D01*
X162525200Y-101205050D01*
X162365000Y-101205050D01*
X162365000Y-100619789D01*
X162375285Y-100569000D01*
X162375285Y-100180154D01*
X162525200Y-100180154D01*
X162525200Y-100784550D01*
X162606450Y-100865800D01*
X163346200Y-100865800D01*
X163346200Y-100001050D01*
X163604200Y-100001050D01*
X163604200Y-100865800D01*
X164343950Y-100865800D01*
X164425200Y-100784550D01*
X164425200Y-100180154D01*
X164684200Y-100180154D01*
X164684200Y-100784550D01*
X164765450Y-100865800D01*
X165505200Y-100865800D01*
X165505200Y-100001050D01*
X165763200Y-100001050D01*
X165763200Y-100865800D01*
X166502950Y-100865800D01*
X166584200Y-100784550D01*
X166584200Y-100180154D01*
X166534722Y-100060703D01*
X166443298Y-99969279D01*
X166323847Y-99919800D01*
X165844450Y-99919800D01*
X165763200Y-100001050D01*
X165505200Y-100001050D01*
X165423950Y-99919800D01*
X164944553Y-99919800D01*
X164825102Y-99969279D01*
X164733678Y-100060703D01*
X164684200Y-100180154D01*
X164425200Y-100180154D01*
X164375722Y-100060703D01*
X164284298Y-99969279D01*
X164164847Y-99919800D01*
X163685450Y-99919800D01*
X163604200Y-100001050D01*
X163346200Y-100001050D01*
X163264950Y-99919800D01*
X162785553Y-99919800D01*
X162666102Y-99969279D01*
X162574678Y-100060703D01*
X162525200Y-100180154D01*
X162375285Y-100180154D01*
X162375285Y-99476280D01*
X162466504Y-99618039D01*
X162641944Y-99737912D01*
X162850200Y-99780085D01*
X164100200Y-99780085D01*
X164294753Y-99743477D01*
X164473439Y-99628496D01*
X164555217Y-99508810D01*
X164625504Y-99618039D01*
X164800944Y-99737912D01*
X165009200Y-99780085D01*
X166259200Y-99780085D01*
X166453753Y-99743477D01*
X166632439Y-99628496D01*
X166752312Y-99453056D01*
X166794485Y-99244800D01*
X166794485Y-97744800D01*
X166757877Y-97550247D01*
X166642896Y-97371561D01*
X166571900Y-97323052D01*
X166571900Y-96451155D01*
X166616232Y-96344392D01*
X166616568Y-95958701D01*
X166469282Y-95602240D01*
X166196795Y-95329277D01*
X165840592Y-95181368D01*
X165454901Y-95181032D01*
X165098440Y-95328318D01*
X164825477Y-95600805D01*
X164677568Y-95957008D01*
X164677232Y-96342699D01*
X164721900Y-96450804D01*
X164721900Y-97305804D01*
X164635961Y-97361104D01*
X164554183Y-97480790D01*
X164483896Y-97371561D01*
X164308456Y-97251688D01*
X164100200Y-97209515D01*
X162850200Y-97209515D01*
X162655647Y-97246123D01*
X162476961Y-97361104D01*
X162357088Y-97536544D01*
X162314915Y-97744800D01*
X162314915Y-97769800D01*
X162120706Y-97769800D01*
X162120768Y-97698601D01*
X161973482Y-97342140D01*
X161700995Y-97069177D01*
X161344792Y-96921268D01*
X160959101Y-96920932D01*
X160602640Y-97068218D01*
X160394927Y-97275569D01*
X160364000Y-97244588D01*
X160364000Y-93296085D01*
X160502600Y-93296085D01*
X160697153Y-93259477D01*
X160875839Y-93144496D01*
X160995712Y-92969056D01*
X161037885Y-92760800D01*
X161037885Y-91033600D01*
X161001277Y-90839047D01*
X160886296Y-90660361D01*
X160710856Y-90540488D01*
X160502600Y-90498315D01*
X160409792Y-90498315D01*
X160648092Y-90339088D01*
X160949103Y-89888594D01*
X161054804Y-89357200D01*
X160949103Y-88825806D01*
X160648092Y-88375312D01*
X160216903Y-88087200D01*
X160648092Y-87799088D01*
X160949103Y-87348594D01*
X161054804Y-86817200D01*
X160949103Y-86285806D01*
X160648092Y-85835312D01*
X160197598Y-85534301D01*
X159768002Y-85448849D01*
X159768002Y-85377542D01*
X159951253Y-85424064D01*
X160366370Y-85217270D01*
X160670751Y-84867359D01*
X160785852Y-84589451D01*
X160738810Y-84406200D01*
X159768000Y-84406200D01*
X159768000Y-84426200D01*
X159510000Y-84426200D01*
X159510000Y-84406200D01*
X158539190Y-84406200D01*
X158492148Y-84589451D01*
X158607249Y-84867359D01*
X158911630Y-85217270D01*
X159326747Y-85424064D01*
X159509998Y-85377542D01*
X159509998Y-85448849D01*
X159080402Y-85534301D01*
X158629908Y-85835312D01*
X158369000Y-86225788D01*
X158108092Y-85835312D01*
X157657598Y-85534301D01*
X157228002Y-85448849D01*
X157228002Y-85377542D01*
X157411253Y-85424064D01*
X157826370Y-85217270D01*
X158130751Y-84867359D01*
X158245852Y-84589451D01*
X158198810Y-84406200D01*
X157228000Y-84406200D01*
X157228000Y-84426200D01*
X156970000Y-84426200D01*
X156970000Y-84406200D01*
X155999190Y-84406200D01*
X155952148Y-84589451D01*
X156067249Y-84867359D01*
X156371630Y-85217270D01*
X156786747Y-85424064D01*
X156969998Y-85377542D01*
X156969998Y-85448849D01*
X156540402Y-85534301D01*
X156089908Y-85835312D01*
X155788897Y-86285806D01*
X155683196Y-86817200D01*
X155788897Y-87348594D01*
X156089908Y-87799088D01*
X156521097Y-88087200D01*
X156089908Y-88375312D01*
X155788897Y-88825806D01*
X155683196Y-89357200D01*
X155747984Y-89682912D01*
X155088548Y-90342348D01*
X154931387Y-90577554D01*
X154931387Y-90577555D01*
X154876200Y-90855000D01*
X154876200Y-97244450D01*
X154779777Y-97340705D01*
X154716851Y-97492247D01*
X153532200Y-96307596D01*
X153532200Y-91388200D01*
X153477013Y-91110755D01*
X153346422Y-90915312D01*
X153319852Y-90875547D01*
X149637016Y-87192712D01*
X149701804Y-86867000D01*
X149596103Y-86335606D01*
X149295092Y-85885112D01*
X148863903Y-85597000D01*
X149295092Y-85308888D01*
X149596103Y-84858394D01*
X149701804Y-84327000D01*
X149596103Y-83795606D01*
X149295092Y-83345112D01*
X148844598Y-83044101D01*
X148313204Y-82938400D01*
X148258796Y-82938400D01*
X147727402Y-83044101D01*
X147276908Y-83345112D01*
X147016000Y-83735588D01*
X146755092Y-83345112D01*
X146304598Y-83044101D01*
X145773204Y-82938400D01*
X145718796Y-82938400D01*
X145187402Y-83044101D01*
X144736908Y-83345112D01*
X144435897Y-83795606D01*
X144330196Y-84327000D01*
X144435897Y-84858394D01*
X144736908Y-85308888D01*
X145168097Y-85597000D01*
X144736908Y-85885112D01*
X144435897Y-86335606D01*
X144330196Y-86867000D01*
X144394984Y-87192711D01*
X138299148Y-93288548D01*
X138141987Y-93523754D01*
X138141987Y-93523755D01*
X138086800Y-93801200D01*
X136961000Y-93801200D01*
X136961000Y-75572400D01*
X143952814Y-75572400D01*
X143952814Y-79213200D01*
X150155386Y-79213200D01*
X150155386Y-75572400D01*
X143952814Y-75572400D01*
X136961000Y-75572400D01*
X136961000Y-66098200D01*
X143843957Y-66098200D01*
X143843957Y-69739000D01*
X150264243Y-69739000D01*
X150264243Y-66098200D01*
X143843957Y-66098200D01*
X136961000Y-66098200D01*
X136961000Y-61153251D01*
X144599148Y-61153251D01*
X144714249Y-61431159D01*
X145018630Y-61781070D01*
X145433747Y-61987864D01*
X145617000Y-61941341D01*
X145617000Y-60970000D01*
X145875000Y-60970000D01*
X145875000Y-61941341D01*
X146058253Y-61987864D01*
X146473370Y-61781070D01*
X146777751Y-61431159D01*
X146892852Y-61153251D01*
X146866668Y-61051250D01*
X147097400Y-61051250D01*
X147097400Y-61769247D01*
X147146879Y-61888698D01*
X147238303Y-61980122D01*
X147357754Y-62029600D01*
X148075750Y-62029600D01*
X148157000Y-61948350D01*
X148157000Y-60970000D01*
X148415000Y-60970000D01*
X148415000Y-61948350D01*
X148496250Y-62029600D01*
X149214246Y-62029600D01*
X149333697Y-61980122D01*
X149425121Y-61888698D01*
X149474600Y-61769247D01*
X149474600Y-61051250D01*
X149393350Y-60970000D01*
X148415000Y-60970000D01*
X148157000Y-60970000D01*
X147178650Y-60970000D01*
X147097400Y-61051250D01*
X146866668Y-61051250D01*
X146845810Y-60970000D01*
X145875000Y-60970000D01*
X145617000Y-60970000D01*
X144646190Y-60970000D01*
X144599148Y-61153251D01*
X136961000Y-61153251D01*
X136961000Y-37670000D01*
X136913425Y-37430823D01*
X136777942Y-37228058D01*
X136575177Y-37092575D01*
X136336000Y-37045000D01*
X59000000Y-37045000D01*
X58760823Y-37092575D01*
X58558058Y-37228058D01*
X58422575Y-37430823D01*
X58375000Y-37670000D01*
X58375000Y-58509000D01*
X45221000Y-58509000D01*
X45221000Y-54752003D01*
X45358826Y-54958274D01*
X46424626Y-56024074D01*
X46724718Y-56224589D01*
X47078700Y-56295000D01*
X47157511Y-56295000D01*
X47195522Y-56351888D01*
X47646016Y-56652899D01*
X48177410Y-56758600D01*
X48542590Y-56758600D01*
X49073984Y-56652899D01*
X49435000Y-56411675D01*
X49435000Y-57265000D01*
X57199285Y-57265000D01*
X57199285Y-48565000D01*
X49435000Y-48565000D01*
X49435000Y-48903063D01*
X49376000Y-48891115D01*
X47344000Y-48891115D01*
X47149447Y-48927723D01*
X46970761Y-49042704D01*
X46937900Y-49090798D01*
X46937900Y-40107748D01*
X52593648Y-34452000D01*
X133545645Y-34452000D01*
X133652408Y-34496332D01*
X134038099Y-34496668D01*
X134394560Y-34349382D01*
X134667523Y-34076895D01*
X134815432Y-33720692D01*
X134815768Y-33335001D01*
X134668482Y-32978540D01*
X134395995Y-32705577D01*
X134039792Y-32557668D01*
X133654101Y-32557332D01*
X133545996Y-32602000D01*
X52210500Y-32602000D01*
X51856517Y-32672411D01*
X51556426Y-32872926D01*
X45358826Y-39070526D01*
X45221000Y-39276797D01*
X45221000Y-37670000D01*
X45173425Y-37430823D01*
X45037942Y-37228058D01*
X44835177Y-37092575D01*
X44596000Y-37045000D01*
X34221000Y-37045000D01*
X34221000Y-29295000D01*
X37477973Y-29295000D01*
X37243285Y-29391971D01*
G36*
X147276908Y-105628888D02*
X147727402Y-105929899D01*
X148156998Y-106015351D01*
X148156998Y-106086658D01*
X147973747Y-106040136D01*
X147558630Y-106246930D01*
X147254249Y-106596841D01*
X147139148Y-106874749D01*
X147186190Y-107058000D01*
X148157000Y-107058000D01*
X148157000Y-107038000D01*
X148415000Y-107038000D01*
X148415000Y-107058000D01*
X149385810Y-107058000D01*
X149432852Y-106874749D01*
X149317751Y-106596841D01*
X149013370Y-106246930D01*
X148598253Y-106040136D01*
X148415002Y-106086658D01*
X148415002Y-106015351D01*
X148844598Y-105929899D01*
X149295092Y-105628888D01*
X149460450Y-105381412D01*
X153754715Y-105381412D01*
X153754715Y-106269000D01*
X153765000Y-106323660D01*
X153765000Y-115897295D01*
X153294296Y-116368000D01*
X144979505Y-116368000D01*
X143905600Y-115294096D01*
X143905600Y-111451904D01*
X144394984Y-111941289D01*
X144330196Y-112267000D01*
X144435897Y-112798394D01*
X144736908Y-113248888D01*
X145168097Y-113537000D01*
X144736908Y-113825112D01*
X144435897Y-114275606D01*
X144330196Y-114807000D01*
X144435897Y-115338394D01*
X144736908Y-115788888D01*
X145187402Y-116089899D01*
X145718796Y-116195600D01*
X145773204Y-116195600D01*
X146304598Y-116089899D01*
X146755092Y-115788888D01*
X146887115Y-115591302D01*
X146887115Y-115670600D01*
X146923723Y-115865153D01*
X147038704Y-116043839D01*
X147214144Y-116163712D01*
X147422400Y-116205885D01*
X149149600Y-116205885D01*
X149344153Y-116169277D01*
X149522839Y-116054296D01*
X149642712Y-115878856D01*
X149684885Y-115670600D01*
X149684885Y-115532000D01*
X152135650Y-115532000D01*
X152231905Y-115628423D01*
X152588108Y-115776332D01*
X152973799Y-115776668D01*
X153330260Y-115629382D01*
X153603223Y-115356895D01*
X153751132Y-115000692D01*
X153751468Y-114615001D01*
X153604182Y-114258540D01*
X153331695Y-113985577D01*
X152975492Y-113837668D01*
X152589801Y-113837332D01*
X152233340Y-113984618D01*
X152135788Y-114082000D01*
X149684885Y-114082000D01*
X149684885Y-113943400D01*
X149648277Y-113748847D01*
X149533296Y-113570161D01*
X149357856Y-113450288D01*
X149149600Y-113408115D01*
X149056792Y-113408115D01*
X149295092Y-113248888D01*
X149466739Y-112992000D01*
X152135650Y-112992000D01*
X152231905Y-113088423D01*
X152588108Y-113236332D01*
X152973799Y-113236668D01*
X153330260Y-113089382D01*
X153603223Y-112816895D01*
X153751132Y-112460692D01*
X153751468Y-112075001D01*
X153604182Y-111718540D01*
X153517881Y-111632088D01*
X153603223Y-111546895D01*
X153751132Y-111190692D01*
X153751468Y-110805001D01*
X153604182Y-110448540D01*
X153331695Y-110175577D01*
X152975492Y-110027668D01*
X152589801Y-110027332D01*
X152233340Y-110174618D01*
X152135788Y-110272000D01*
X149587012Y-110272000D01*
X149596103Y-110258394D01*
X149701804Y-109727000D01*
X149596103Y-109195606D01*
X149587012Y-109182000D01*
X152135650Y-109182000D01*
X152231905Y-109278423D01*
X152588108Y-109426332D01*
X152973799Y-109426668D01*
X153330260Y-109279382D01*
X153603223Y-109006895D01*
X153751132Y-108650692D01*
X153751468Y-108265001D01*
X153604182Y-107908540D01*
X153331695Y-107635577D01*
X152975492Y-107487668D01*
X152589801Y-107487332D01*
X152233340Y-107634618D01*
X152135788Y-107732000D01*
X149336454Y-107732000D01*
X149432852Y-107499251D01*
X149385810Y-107316000D01*
X148415000Y-107316000D01*
X148415000Y-107336000D01*
X148157000Y-107336000D01*
X148157000Y-107316000D01*
X147186190Y-107316000D01*
X147139148Y-107499251D01*
X147235546Y-107732000D01*
X146796454Y-107732000D01*
X146892852Y-107499251D01*
X146845810Y-107316000D01*
X145875000Y-107316000D01*
X145875000Y-107336000D01*
X145617000Y-107336000D01*
X145617000Y-107316000D01*
X144646190Y-107316000D01*
X144599148Y-107499251D01*
X144698168Y-107738332D01*
X144452554Y-107787187D01*
X144217348Y-107944347D01*
X143905600Y-108256095D01*
X143905600Y-107512704D01*
X144638451Y-106779854D01*
X144599148Y-106874749D01*
X144646190Y-107058000D01*
X145617000Y-107058000D01*
X145617000Y-107038000D01*
X145875000Y-107038000D01*
X145875000Y-107058000D01*
X146845810Y-107058000D01*
X146892852Y-106874749D01*
X146777751Y-106596841D01*
X146473370Y-106246930D01*
X146058253Y-106040136D01*
X145875002Y-106086658D01*
X145875002Y-106015351D01*
X146304598Y-105929899D01*
X146755092Y-105628888D01*
X147016000Y-105238412D01*
X147276908Y-105628888D01*
X147276908Y-105628888D01*
G37*
X147276908Y-105628888D02*
X147727402Y-105929899D01*
X148156998Y-106015351D01*
X148156998Y-106086658D01*
X147973747Y-106040136D01*
X147558630Y-106246930D01*
X147254249Y-106596841D01*
X147139148Y-106874749D01*
X147186190Y-107058000D01*
X148157000Y-107058000D01*
X148157000Y-107038000D01*
X148415000Y-107038000D01*
X148415000Y-107058000D01*
X149385810Y-107058000D01*
X149432852Y-106874749D01*
X149317751Y-106596841D01*
X149013370Y-106246930D01*
X148598253Y-106040136D01*
X148415002Y-106086658D01*
X148415002Y-106015351D01*
X148844598Y-105929899D01*
X149295092Y-105628888D01*
X149460450Y-105381412D01*
X153754715Y-105381412D01*
X153754715Y-106269000D01*
X153765000Y-106323660D01*
X153765000Y-115897295D01*
X153294296Y-116368000D01*
X144979505Y-116368000D01*
X143905600Y-115294096D01*
X143905600Y-111451904D01*
X144394984Y-111941289D01*
X144330196Y-112267000D01*
X144435897Y-112798394D01*
X144736908Y-113248888D01*
X145168097Y-113537000D01*
X144736908Y-113825112D01*
X144435897Y-114275606D01*
X144330196Y-114807000D01*
X144435897Y-115338394D01*
X144736908Y-115788888D01*
X145187402Y-116089899D01*
X145718796Y-116195600D01*
X145773204Y-116195600D01*
X146304598Y-116089899D01*
X146755092Y-115788888D01*
X146887115Y-115591302D01*
X146887115Y-115670600D01*
X146923723Y-115865153D01*
X147038704Y-116043839D01*
X147214144Y-116163712D01*
X147422400Y-116205885D01*
X149149600Y-116205885D01*
X149344153Y-116169277D01*
X149522839Y-116054296D01*
X149642712Y-115878856D01*
X149684885Y-115670600D01*
X149684885Y-115532000D01*
X152135650Y-115532000D01*
X152231905Y-115628423D01*
X152588108Y-115776332D01*
X152973799Y-115776668D01*
X153330260Y-115629382D01*
X153603223Y-115356895D01*
X153751132Y-115000692D01*
X153751468Y-114615001D01*
X153604182Y-114258540D01*
X153331695Y-113985577D01*
X152975492Y-113837668D01*
X152589801Y-113837332D01*
X152233340Y-113984618D01*
X152135788Y-114082000D01*
X149684885Y-114082000D01*
X149684885Y-113943400D01*
X149648277Y-113748847D01*
X149533296Y-113570161D01*
X149357856Y-113450288D01*
X149149600Y-113408115D01*
X149056792Y-113408115D01*
X149295092Y-113248888D01*
X149466739Y-112992000D01*
X152135650Y-112992000D01*
X152231905Y-113088423D01*
X152588108Y-113236332D01*
X152973799Y-113236668D01*
X153330260Y-113089382D01*
X153603223Y-112816895D01*
X153751132Y-112460692D01*
X153751468Y-112075001D01*
X153604182Y-111718540D01*
X153517881Y-111632088D01*
X153603223Y-111546895D01*
X153751132Y-111190692D01*
X153751468Y-110805001D01*
X153604182Y-110448540D01*
X153331695Y-110175577D01*
X152975492Y-110027668D01*
X152589801Y-110027332D01*
X152233340Y-110174618D01*
X152135788Y-110272000D01*
X149587012Y-110272000D01*
X149596103Y-110258394D01*
X149701804Y-109727000D01*
X149596103Y-109195606D01*
X149587012Y-109182000D01*
X152135650Y-109182000D01*
X152231905Y-109278423D01*
X152588108Y-109426332D01*
X152973799Y-109426668D01*
X153330260Y-109279382D01*
X153603223Y-109006895D01*
X153751132Y-108650692D01*
X153751468Y-108265001D01*
X153604182Y-107908540D01*
X153331695Y-107635577D01*
X152975492Y-107487668D01*
X152589801Y-107487332D01*
X152233340Y-107634618D01*
X152135788Y-107732000D01*
X149336454Y-107732000D01*
X149432852Y-107499251D01*
X149385810Y-107316000D01*
X148415000Y-107316000D01*
X148415000Y-107336000D01*
X148157000Y-107336000D01*
X148157000Y-107316000D01*
X147186190Y-107316000D01*
X147139148Y-107499251D01*
X147235546Y-107732000D01*
X146796454Y-107732000D01*
X146892852Y-107499251D01*
X146845810Y-107316000D01*
X145875000Y-107316000D01*
X145875000Y-107336000D01*
X145617000Y-107336000D01*
X145617000Y-107316000D01*
X144646190Y-107316000D01*
X144599148Y-107499251D01*
X144698168Y-107738332D01*
X144452554Y-107787187D01*
X144217348Y-107944347D01*
X143905600Y-108256095D01*
X143905600Y-107512704D01*
X144638451Y-106779854D01*
X144599148Y-106874749D01*
X144646190Y-107058000D01*
X145617000Y-107058000D01*
X145617000Y-107038000D01*
X145875000Y-107038000D01*
X145875000Y-107058000D01*
X146845810Y-107058000D01*
X146892852Y-106874749D01*
X146777751Y-106596841D01*
X146473370Y-106246930D01*
X146058253Y-106040136D01*
X145875002Y-106086658D01*
X145875002Y-106015351D01*
X146304598Y-105929899D01*
X146755092Y-105628888D01*
X147016000Y-105238412D01*
X147276908Y-105628888D01*
G36*
X154360998Y-99187003D02*
X154360998Y-99196248D01*
X154308750Y-99144000D01*
X154225353Y-99144000D01*
X154105902Y-99193479D01*
X154014478Y-99284903D01*
X153965000Y-99404354D01*
X153965000Y-99808750D01*
X154046248Y-99889998D01*
X153965000Y-99889998D01*
X153965000Y-99902695D01*
X152757500Y-98695196D01*
X152757500Y-97583504D01*
X154360998Y-99187003D01*
X154360998Y-99187003D01*
G37*
X154360998Y-99187003D02*
X154360998Y-99196248D01*
X154308750Y-99144000D01*
X154225353Y-99144000D01*
X154105902Y-99193479D01*
X154014478Y-99284903D01*
X153965000Y-99404354D01*
X153965000Y-99808750D01*
X154046248Y-99889998D01*
X153965000Y-99889998D01*
X153965000Y-99902695D01*
X152757500Y-98695196D01*
X152757500Y-97583504D01*
X154360998Y-99187003D01*
G36*
X147254249Y-37390841D02*
X147139148Y-37668749D01*
X147186190Y-37852000D01*
X148157000Y-37852000D01*
X148157000Y-37832000D01*
X148415000Y-37832000D01*
X148415000Y-37852000D01*
X149385810Y-37852000D01*
X149432852Y-37668749D01*
X149317751Y-37390841D01*
X149039875Y-37071400D01*
X151516296Y-37071400D01*
X154415000Y-39970105D01*
X154415000Y-50312500D01*
X154360998Y-50312500D01*
X154360998Y-50364748D01*
X154308750Y-50312500D01*
X154225353Y-50312500D01*
X154105902Y-50361979D01*
X154014478Y-50453403D01*
X153965000Y-50572854D01*
X153965000Y-50977250D01*
X154046250Y-51058500D01*
X154390000Y-51058500D01*
X154390000Y-51038500D01*
X154404715Y-51038500D01*
X154404715Y-51336500D01*
X154390000Y-51336500D01*
X154390000Y-51316500D01*
X154046250Y-51316500D01*
X153965000Y-51397750D01*
X153965000Y-51414095D01*
X153646500Y-51095596D01*
X153646500Y-45156500D01*
X153591313Y-44879055D01*
X153591313Y-44879054D01*
X153434152Y-44643848D01*
X149637016Y-40846712D01*
X149701804Y-40521000D01*
X149596103Y-39989606D01*
X149295092Y-39539112D01*
X148844598Y-39238101D01*
X148415002Y-39152649D01*
X148415002Y-39081342D01*
X148598253Y-39127864D01*
X149013370Y-38921070D01*
X149317751Y-38571159D01*
X149432852Y-38293251D01*
X149385810Y-38110000D01*
X148415000Y-38110000D01*
X148415000Y-38130000D01*
X148157000Y-38130000D01*
X148157000Y-38110000D01*
X147186190Y-38110000D01*
X147139148Y-38293251D01*
X147254249Y-38571159D01*
X147558630Y-38921070D01*
X147973747Y-39127864D01*
X148156998Y-39081342D01*
X148156998Y-39152649D01*
X147727402Y-39238101D01*
X147276908Y-39539112D01*
X147016000Y-39929588D01*
X146755092Y-39539112D01*
X146304598Y-39238101D01*
X145875002Y-39152649D01*
X145875002Y-39081342D01*
X146058253Y-39127864D01*
X146473370Y-38921070D01*
X146777751Y-38571159D01*
X146892852Y-38293251D01*
X146845810Y-38110000D01*
X145875000Y-38110000D01*
X145875000Y-38130000D01*
X145617000Y-38130000D01*
X145617000Y-38110000D01*
X145597000Y-38110000D01*
X145597000Y-37852000D01*
X145617000Y-37852000D01*
X145617000Y-37832000D01*
X145875000Y-37832000D01*
X145875000Y-37852000D01*
X146845810Y-37852000D01*
X146892852Y-37668749D01*
X146777751Y-37390841D01*
X146499875Y-37071400D01*
X147532125Y-37071400D01*
X147254249Y-37390841D01*
X147254249Y-37390841D01*
G37*
X147254249Y-37390841D02*
X147139148Y-37668749D01*
X147186190Y-37852000D01*
X148157000Y-37852000D01*
X148157000Y-37832000D01*
X148415000Y-37832000D01*
X148415000Y-37852000D01*
X149385810Y-37852000D01*
X149432852Y-37668749D01*
X149317751Y-37390841D01*
X149039875Y-37071400D01*
X151516296Y-37071400D01*
X154415000Y-39970105D01*
X154415000Y-50312500D01*
X154360998Y-50312500D01*
X154360998Y-50364748D01*
X154308750Y-50312500D01*
X154225353Y-50312500D01*
X154105902Y-50361979D01*
X154014478Y-50453403D01*
X153965000Y-50572854D01*
X153965000Y-50977250D01*
X154046250Y-51058500D01*
X154390000Y-51058500D01*
X154390000Y-51038500D01*
X154404715Y-51038500D01*
X154404715Y-51336500D01*
X154390000Y-51336500D01*
X154390000Y-51316500D01*
X154046250Y-51316500D01*
X153965000Y-51397750D01*
X153965000Y-51414095D01*
X153646500Y-51095596D01*
X153646500Y-45156500D01*
X153591313Y-44879055D01*
X153591313Y-44879054D01*
X153434152Y-44643848D01*
X149637016Y-40846712D01*
X149701804Y-40521000D01*
X149596103Y-39989606D01*
X149295092Y-39539112D01*
X148844598Y-39238101D01*
X148415002Y-39152649D01*
X148415002Y-39081342D01*
X148598253Y-39127864D01*
X149013370Y-38921070D01*
X149317751Y-38571159D01*
X149432852Y-38293251D01*
X149385810Y-38110000D01*
X148415000Y-38110000D01*
X148415000Y-38130000D01*
X148157000Y-38130000D01*
X148157000Y-38110000D01*
X147186190Y-38110000D01*
X147139148Y-38293251D01*
X147254249Y-38571159D01*
X147558630Y-38921070D01*
X147973747Y-39127864D01*
X148156998Y-39081342D01*
X148156998Y-39152649D01*
X147727402Y-39238101D01*
X147276908Y-39539112D01*
X147016000Y-39929588D01*
X146755092Y-39539112D01*
X146304598Y-39238101D01*
X145875002Y-39152649D01*
X145875002Y-39081342D01*
X146058253Y-39127864D01*
X146473370Y-38921070D01*
X146777751Y-38571159D01*
X146892852Y-38293251D01*
X146845810Y-38110000D01*
X145875000Y-38110000D01*
X145875000Y-38130000D01*
X145617000Y-38130000D01*
X145617000Y-38110000D01*
X145597000Y-38110000D01*
X145597000Y-37852000D01*
X145617000Y-37852000D01*
X145617000Y-37832000D01*
X145875000Y-37832000D01*
X145875000Y-37852000D01*
X146845810Y-37852000D01*
X146892852Y-37668749D01*
X146777751Y-37390841D01*
X146499875Y-37071400D01*
X147532125Y-37071400D01*
X147254249Y-37390841D01*
M02*
