M48
;DRILL file {KiCad 4.0.5+dfsg1-4} date Mon Feb 19 09:44:54 2018
;FORMAT={-:-/ absolute / metric / decimal}
FMAT,2
METRIC,TZ
T1C0.635
T2C1.016
T3C3.000
T4C3.200
%
G90
G05
M71
T1
X133.846Y-33.527
X139.739Y-60.832
X151.766Y-81.749
X152.782Y-106.412
X152.782Y-108.457
X152.782Y-110.997
X152.782Y-112.267
X152.782Y-114.807
X153.29Y-98.513
X154.026Y-48.957
X155.601Y-97.891
X157.099Y-97.891
X158.37Y-97.891
X159.639Y-97.891
X160.986Y-48.246
X161.151Y-97.891
X163.475Y-43.941
X164.478Y-102.844
X165.647Y-96.151
X167.907Y-47.802
T2
X48.36Y-50.29
X48.36Y-52.83
X48.36Y-55.37
X145.746Y-37.981
X145.746Y-40.521
X145.746Y-43.061
X145.746Y-45.601
X145.746Y-48.141
X145.746Y-50.681
X145.746Y-53.221
X145.746Y-55.761
X145.746Y-58.301
X145.746Y-60.841
X145.746Y-84.327
X145.746Y-86.867
X145.746Y-89.407
X145.746Y-91.947
X145.746Y-94.487
X145.746Y-97.027
X145.746Y-99.567
X145.746Y-102.107
X145.746Y-104.647
X145.746Y-107.187
X145.746Y-109.727
X145.746Y-112.267
X145.746Y-114.807
X148.286Y-37.981
X148.286Y-40.521
X148.286Y-43.061
X148.286Y-45.601
X148.286Y-48.141
X148.286Y-50.681
X148.286Y-53.221
X148.286Y-55.761
X148.286Y-58.301
X148.286Y-60.841
X148.286Y-84.327
X148.286Y-86.867
X148.286Y-89.407
X148.286Y-91.947
X148.286Y-94.487
X148.286Y-97.027
X148.286Y-99.567
X148.286Y-102.107
X148.286Y-104.647
X148.286Y-107.187
X148.286Y-109.727
X148.286Y-112.267
X148.286Y-114.807
X157.099Y-61.417
X157.099Y-63.957
X157.099Y-66.497
X157.099Y-69.037
X157.099Y-71.577
X157.099Y-74.117
X157.099Y-76.657
X157.099Y-79.197
X157.099Y-81.737
X157.099Y-84.277
X157.099Y-86.817
X157.099Y-89.357
X157.099Y-91.897
X159.639Y-61.417
X159.639Y-63.957
X159.639Y-66.497
X159.639Y-69.037
X159.639Y-71.577
X159.639Y-74.117
X159.639Y-76.657
X159.639Y-79.197
X159.639Y-81.737
X159.639Y-84.277
X159.639Y-86.817
X159.639Y-89.357
X159.639Y-91.897
X169.457Y-113.486
X170.27Y-52.602
T3
X39.096Y-32.17
X166.947Y-32.512
X177.766Y-32.17
X177.766Y-121.17
T4
X166.947Y-120.828
T0
M30
